<svg xmlns="http://www.w3.org/2000/svg" width="150" height="150" viewBox="0 0 150 150">
  <g id="img16" transform="translate(-383.746 -8399.711)">
    <circle id="Ellipse_13609" data-name="Ellipse 13609" cx="75" cy="75" r="75" transform="translate(383.746 8399.711)" fill="#b9c296"/>
    <g id="Group_1198614" data-name="Group 1198614" transform="translate(420.218 8437.393)">
      <g id="Group_1198613" data-name="Group 1198613" transform="translate(2.145 -0.001)">
        <path id="Path_1023614" data-name="Path 1023614" d="M70.579,222.846a6.9,6.9,0,0,0,.786-3.2v-2.757a6.958,6.958,0,0,0-4.577-6.53,11.029,11.029,0,0,0-4.74-7.214,6.9,6.9,0,0,0,.786-3.2V197.18a6.946,6.946,0,1,0-13.893,0v2.757a6.9,6.9,0,0,0,.786,3.2,11.123,11.123,0,0,0-2.376,2.141,11.094,11.094,0,0,0-2.368-2.139,6.9,6.9,0,0,0,.787-3.206V197.18a6.946,6.946,0,1,0-13.893,0v2.757a6.9,6.9,0,0,0,.787,3.206,11.094,11.094,0,0,0-2.379,2.153,11.206,11.206,0,0,0-2.366-2.152,6.9,6.9,0,0,0,.788-3.207V197.18a6.946,6.946,0,0,0-13.893,0v2.757a6.9,6.9,0,0,0,.786,3.2,11.036,11.036,0,0,0-4.741,7.214,6.958,6.958,0,0,0-4.577,6.53v2.757a6.9,6.9,0,0,0,.786,3.2,11.018,11.018,0,0,0-4.922,9.2v3.468a1.433,1.433,0,0,0,1.433,1.433h70.49a1.433,1.433,0,0,0,1.433-1.433v-3.468a11.018,11.018,0,0,0-4.922-9.2ZM68.5,216.885v2.757a4.081,4.081,0,1,1-8.162,0v-2.757a4.081,4.081,0,1,1,8.162,0Zm-4.752-6.913a6.956,6.956,0,0,0-6.276,6.913v2.757a6.9,6.9,0,0,0,.787,3.206,11.113,11.113,0,0,0-2.365,2.137,11.128,11.128,0,0,0-2.38-2.139,6.9,6.9,0,0,0,.786-3.2v-2.757a6.956,6.956,0,0,0-6.276-6.913,8.365,8.365,0,0,1,3.537-4.6,6.925,6.925,0,0,0,8.648,0A8.361,8.361,0,0,1,63.748,209.971Zm-20.475,9.67v-2.757a4.081,4.081,0,1,1,8.162,0v2.757a4.081,4.081,0,1,1-8.162,0Zm8.532-22.461a4.081,4.081,0,1,1,8.162,0v2.757a4.081,4.081,0,1,1-8.162,0Zm-17.064,0a4.081,4.081,0,1,1,8.162,0v2.757a4.081,4.081,0,0,1-8.162,0V197.18Zm-.243,8.188a6.925,6.925,0,0,0,8.648,0,8.262,8.262,0,0,1,2.583,2.543,11.047,11.047,0,0,0-.744,2.444,6.958,6.958,0,0,0-4.577,6.53v2.757a6.9,6.9,0,0,0,.786,3.2,11.125,11.125,0,0,0-2.379,2.137,11.093,11.093,0,0,0-2.366-2.136,6.9,6.9,0,0,0,.787-3.206v-2.757a6.958,6.958,0,0,0-4.579-6.531,10.968,10.968,0,0,0-.751-2.429,8.26,8.26,0,0,1,2.592-2.557ZM26.21,219.642v-2.757a4.081,4.081,0,0,1,8.162,0v2.757a4.081,4.081,0,0,1-8.162,0ZM17.678,197.18a4.081,4.081,0,0,1,8.162,0v2.757a4.081,4.081,0,0,1-8.162,0Zm-.243,8.188a6.925,6.925,0,0,0,8.648,0,8.358,8.358,0,0,1,3.537,4.6,6.956,6.956,0,0,0-6.276,6.913v2.757a6.9,6.9,0,0,0,.786,3.2,11.13,11.13,0,0,0-2.378,2.137,11.084,11.084,0,0,0-2.366-2.135,6.9,6.9,0,0,0,.787-3.206v-2.757a6.956,6.956,0,0,0-6.276-6.913A8.367,8.367,0,0,1,17.435,205.368ZM9.146,216.885a4.081,4.081,0,0,1,8.162,0v2.757a4.081,4.081,0,0,1-8.162,0ZM5.01,232.048A8.176,8.176,0,0,1,8.9,225.072a6.925,6.925,0,0,0,8.649,0,8.253,8.253,0,0,1,2.58,2.539,11.066,11.066,0,0,0-.922,4.436v2.036H5.01Zm17.064,0a8.175,8.175,0,0,1,3.892-6.976,6.925,6.925,0,0,0,8.649,0,8.258,8.258,0,0,1,2.58,2.54,11.066,11.066,0,0,0-.922,4.435v2.036h-14.2v-2.036Zm17.064,0a8.175,8.175,0,0,1,3.892-6.976,6.925,6.925,0,0,0,8.649,0,8.177,8.177,0,0,1,3.892,6.976v2.036H39.138Zm33.5,2.035h-14.2v-2.036a11.064,11.064,0,0,0-.922-4.435,8.273,8.273,0,0,1,2.58-2.54,6.925,6.925,0,0,0,8.648,0,8.175,8.175,0,0,1,3.892,6.976v2.036Z" transform="translate(-2.145 -162.979)" fill="#4a4e3c"/>
        <path id="Path_1023615" data-name="Path 1023615" d="M162.443,12.179a1.433,1.433,0,0,0,.861-1.834c-.9-2.495-.576-4.468.995-6.034a4.985,4.985,0,0,1,7.027,0,3.769,3.769,0,0,0,5.375,0,4.986,4.986,0,0,1,7.027,0,5.042,5.042,0,0,1,1.239,5.266c-1.436,5.366-8.094,10.846-10.952,11.927a14.393,14.393,0,0,1-3.149-1.888,1.433,1.433,0,1,0-1.722,2.29,14.636,14.636,0,0,0,4.5,2.487,1.432,1.432,0,0,0,.74,0c1.907-.509,4.81-2.461,7.4-4.973,1.776-1.725,4.911-5.2,5.955-9.1a7.9,7.9,0,0,0-13.057-8.036.912.912,0,0,1-1.329,0,7.856,7.856,0,0,0-11.073,0c-2.372,2.364-2.948,5.489-1.667,9.036a1.433,1.433,0,0,0,1.834.861Z" transform="translate(-137.336 0.001)" fill="#4a4e3c"/>
        <path id="Path_1023616" data-name="Path 1023616" d="M188.9,104a1.433,1.433,0,1,0,1.434,1.433A1.432,1.432,0,0,0,188.9,104Z" transform="translate(-160.912 -89.104)" fill="#4a4e3c"/>
      </g>
    </g>
  </g>
</svg>
