<svg xmlns="http://www.w3.org/2000/svg" width="150" height="150" viewBox="0 0 150 150">
  <g id="img15" transform="translate(-383.746 -8400)">
    <circle id="Ellipse_13609" data-name="Ellipse 13609" cx="75" cy="75" r="75" transform="translate(383.746 8400)" fill="#b9c296"/>
    <g id="Group_1198617" data-name="Group 1198617" transform="translate(416.746 8430.024)">
      <g id="Group_1198616" data-name="Group 1198616" transform="translate(0 3.56)">
        <path id="Path_1023618" data-name="Path 1023618" d="M105.443,247.005a1.641,1.641,0,0,0-1.14,2.82,5.645,5.645,0,0,0,7.782,0,1.641,1.641,0,1,0-2.28-2.359,2.337,2.337,0,0,1-3.221,0A1.634,1.634,0,0,0,105.443,247.005Z" transform="translate(-86.772 -207.065)" fill="#4a4e3c"/>
        <path id="Path_1023619" data-name="Path 1023619" d="M83.951,134.873a1.641,1.641,0,0,0-1.078-1.952c-3.886-1.284-8.519-4.178-8.519-10.678V118.8c0-5.307-1.216-9.461-3.613-12.344a12.209,12.209,0,0,0-9.756-4.266,12.178,12.178,0,0,0-9.576,4.25c-2.481,2.907-3.793,7.181-3.793,12.361v3.441a10.022,10.022,0,0,1-4.2,8.511,10.494,10.494,0,0,0-11.881,6.595c-.438-.123-2.733-.742-3.411-.94v-1.092a14.075,14.075,0,0,0,7.366-12.363v-6.516a14.064,14.064,0,1,0-28.129,0v6.516a14.074,14.074,0,0,0,7.366,12.362v1.093c-.678.2-1.381.389-2.11.586C7.056,138.493.139,140.356,0,148.837v14.378a1.641,1.641,0,0,0,1.641,1.641H23.825v2.333s0,.008,0,.012a1.641,1.641,0,0,0,1.641,1.641H33.98a1.641,1.641,0,0,0,0-3.281H27.106v-.983a9.568,9.568,0,0,1,.464-3c1.032-2.956,3.7-3.744,7.34-4.817l.516-.153a6.181,6.181,0,0,0,5.8,4.06,6.252,6.252,0,0,0,6.066-4.056l.5.149c4.643,1.37,7.711,2.274,7.8,7.819v.983H48.712a1.641,1.641,0,0,0,0,3.281h8.529a1.641,1.641,0,0,0,1.641-1.641s0-.008,0-.012v-2.333H80.768a1.641,1.641,0,0,0,1.641-1.641V148.863c0-.009,0-.018,0-.027a10.051,10.051,0,0,0-2.966-7.465C81.8,140.264,83.1,138.287,83.951,134.873Zm-22.966-29.4a8.919,8.919,0,0,1,7.232,3.083c1.706,2.053,2.653,5.056,2.824,8.935-3.039.527-6.615.1-8.593-3.809a1.657,1.657,0,0,0-2.928,0c-1.977,3.909-5.551,4.336-8.589,3.81.38-7.553,4.076-12.018,10.053-12.018ZM50.9,120.8a14.756,14.756,0,0,0,2.036.146,10.144,10.144,0,0,0,8.052-3.556,10.143,10.143,0,0,0,8.052,3.556,14.759,14.759,0,0,0,2.036-.146v1.439a10.088,10.088,0,1,1-20.176,0V120.8ZM64.4,135.167v2.451a3.417,3.417,0,0,1-6.833,0v-2.449a13.347,13.347,0,0,0,6.833,0Zm-15.051-6.346a13.475,13.475,0,0,0,4.936,4.987v2.6c-.682.2-1.389.391-2.122.588l-1.024.278a10.579,10.579,0,0,0-4.277-5.153A13.031,13.031,0,0,0,49.353,128.821Zm-14.686,9.514a7.214,7.214,0,0,1,13.772,1.356,16.432,16.432,0,0,0-14.172,0,7.19,7.19,0,0,1,.4-1.357Zm-24.029-21.9a10.783,10.783,0,1,1,21.566,0v1.7c-4.313.144-9.748-.369-13.756-3.112a1.641,1.641,0,0,0-2.232.36c-1.387,1.823-3.129,2.275-5.578,2.566v-1.512Zm0,6.516v-1.7c2.639-.295,5.124-.777,7.188-2.754,4.489,2.542,9.973,3.055,14.378,2.92v1.535a10.783,10.783,0,0,1-21.566,0Zm14.2,13.641V137.6s0,.01,0,.015a3.417,3.417,0,0,1-6.833,0s0-.007,0-.01v-1.013a14.052,14.052,0,0,0,6.835,0Zm10.216,16.7c-.359.11-.719.217-1.073.32-4.049,1.194-8.564,2.525-9.819,7.964h-12.1v-6.638a1.641,1.641,0,1,0-3.281,0v6.638h-5.5v-12.7c.1-5.594,3.914-7.025,10.185-8.715.528-.143,1.065-.288,1.6-.439a6.7,6.7,0,0,0,12.713,0c.534.151,2.611.715,3.09.851-.008.157-.011.317-.011.476v2.32a10.488,10.488,0,0,0,4.2,8.393Zm9.315,1.2s0,0,0,.006a3.02,3.02,0,0,1-6.034,0s0,0,0,0v-1.063a10.089,10.089,0,0,0,1.226.289,10.472,10.472,0,0,0,3.281.048,10.083,10.083,0,0,0,1.527-.335Zm.873-5.039a7.215,7.215,0,0,1-11.1-5.921,13.189,13.189,0,0,1,14.425,0A7.22,7.22,0,0,1,45.243,149.45Zm33.884,12.124h-5.5v-6.637a1.641,1.641,0,1,0-3.281,0v6.637h-11.8c-1.256-5.438-5.77-6.769-9.819-7.963-.354-.1-.714-.21-1.073-.32v-1.522a10.492,10.492,0,0,0,4.2-8.4v-2.292c0-.2-.007-.4-.018-.591.4-.109.793-.217,1.183-.322.532-.143,1.072-.289,1.61-.441a6.7,6.7,0,0,0,12.713,0c.534.151,1.07.3,1.6.438,6.271,1.69,10.087,3.121,10.185,8.715v12.7ZM75.9,139.022a37.725,37.725,0,0,0-6.1-2.028c-.729-.2-1.433-.386-2.111-.585v-2.6a13.474,13.474,0,0,0,4.923-4.97,15.1,15.1,0,0,0,7.753,6.649C79.576,137.769,78.47,138.588,75.9,139.022Z" transform="translate(0 -86.009)" fill="#4a4e3c"/>
        <path id="Path_1023620" data-name="Path 1023620" d="M194.273,24.362a1.641,1.641,0,0,0,2.279,0l8.682-8.38a7.227,7.227,0,0,0-9.821-10.6,7.227,7.227,0,0,0-9.822,10.6ZM187.766,8.04a3.923,3.923,0,0,1,2.772-1.2h.073a3.91,3.91,0,0,1,2.737,1.1l.925.893a1.641,1.641,0,0,0,2.278,0l.926-.894a3.965,3.965,0,0,1,5.58.1,3.952,3.952,0,0,1-.1,5.582L195.413,20.9l-7.544-7.281a3.955,3.955,0,0,1-.1-5.58Z" transform="translate(-153.299 -3.56)" fill="#4a4e3c"/>
        <path id="Path_1023621" data-name="Path 1023621" d="M243.658,488.441a1.641,1.641,0,1,0,0,3.281h.009a1.641,1.641,0,1,0-.009-3.281Z" transform="translate(-202.311 -408.891)" fill="#4a4e3c"/>
      </g>
    </g>
  </g>
</svg>
