<svg xmlns="http://www.w3.org/2000/svg" width="150" height="150" viewBox="0 0 150 150">
  <g id="img11" transform="translate(-383.746 -8399.999)">
    <circle id="Ellipse_13609" data-name="Ellipse 13609" cx="75" cy="75" r="75" transform="translate(383.746 8399.999)" fill="#fff"/>
    <g id="Group_1198612" data-name="Group 1198612" transform="translate(378.396 8432.104)">
      <path id="Path_1023609" data-name="Path 1023609" d="M108.068,46.016a7.91,7.91,0,0,0,5.859-12.905A33.578,33.578,0,0,0,56.777,9.667a1.257,1.257,0,1,0,1.764,1.79,31.067,31.067,0,0,1,52.851,20.825,18.984,18.984,0,0,1-2.985-.445c-2.55-8.118-7.152-12.756-14.436-14.569a1.257,1.257,0,0,0-1.166.3C79.091,30.5,63.76,24.053,59.388,21.768a1.257,1.257,0,0,0-1.462.217,23.123,23.123,0,0,0-5.64,9.882,15.425,15.425,0,0,1-2.977.425A30.842,30.842,0,0,1,54.894,15.77a1.257,1.257,0,0,0-2.058-1.443,33.363,33.363,0,0,0-6.063,18.786,7.91,7.91,0,0,0,5.86,12.9A28.952,28.952,0,0,0,67.842,64.082a24.036,24.036,0,0,0-11.034,15.9,4.886,4.886,0,0,0,4.8,5.81H99.1a4.886,4.886,0,0,0,4.8-5.81,23.913,23.913,0,0,0-.9-3.328,1.257,1.257,0,1,0-2.374.826,21.4,21.4,0,0,1,.8,2.977A2.373,2.373,0,0,1,99.1,83.278H94.741V79.19a1.257,1.257,0,0,0-2.513,0v4.088H68.473V79.19a1.257,1.257,0,0,0-2.513,0v4.088H61.605a2.373,2.373,0,0,1-2.329-2.822A21.515,21.515,0,0,1,69.371,66.094a11.165,11.165,0,0,0,21.959,0,21.555,21.555,0,0,1,6.807,6.431,1.257,1.257,0,1,0,2.082-1.409,24.071,24.071,0,0,0-7.36-7.033,28.952,28.952,0,0,0,15.209-18.066Zm4.016-11.187a5.4,5.4,0,0,1-3.41,8.608,28.832,28.832,0,0,0,.264-8.93,21.388,21.388,0,0,0,3.146.323ZM47.507,38.108a5.38,5.38,0,0,1,1.108-3.276,20.629,20.629,0,0,0,3.143-.285,28.841,28.841,0,0,0,.269,8.889A5.41,5.41,0,0,1,47.507,38.108ZM80.351,72.716a8.674,8.674,0,0,1-8.5-7.056,28.865,28.865,0,0,0,17.008,0,8.675,8.675,0,0,1-8.5,7.056Zm0-8.288a26.314,26.314,0,0,1-25.833-31.26,22.026,22.026,0,0,1,4.55-8.746,33.826,33.826,0,0,0,15.979,3.452,29.454,29.454,0,0,0,18.966-8c6.213,1.751,9.982,5.877,12.168,13.28a26.314,26.314,0,0,1-25.831,31.27Z" transform="translate(0)" fill="#4a4e3c"/>
      <path id="Path_1023610" data-name="Path 1023610" d="M187.309,223.814a1.257,1.257,0,0,0-1.257,1.257v2.011a1.257,1.257,0,1,0,2.513,0v-2.011A1.257,1.257,0,0,0,187.309,223.814Z" transform="translate(-117.422 -186.311)" fill="#4a4e3c"/>
      <path id="Path_1023611" data-name="Path 1023611" d="M312.2,223.814a1.257,1.257,0,0,0-1.257,1.257v2.011a1.257,1.257,0,1,0,2.513,0v-2.011A1.257,1.257,0,0,0,312.2,223.814Z" transform="translate(-221.39 -186.311)" fill="#4a4e3c"/>
      <path id="Path_1023612" data-name="Path 1023612" d="M239.636,244.067a1.256,1.256,0,0,0-1.773.122,2.4,2.4,0,0,1-3.623,0,1.257,1.257,0,0,0-1.895,1.651,4.913,4.913,0,0,0,7.412,0A1.256,1.256,0,0,0,239.636,244.067Z" transform="translate(-155.701 -202.913)" fill="#4a4e3c"/>
    </g>
  </g>
</svg>
