<svg xmlns="http://www.w3.org/2000/svg" width="150" height="150" viewBox="0 0 150 150">
  <g id="img14" transform="translate(-383.746 -8399.711)">
    <circle id="Ellipse_13609" data-name="Ellipse 13609" cx="75" cy="75" r="75" transform="translate(383.746 8399.711)" fill="#b9c296"/>
    <g id="Group_1198615" data-name="Group 1198615" transform="translate(417.747 8429.3)">
      <path id="Path_1023617" data-name="Path 1023617" d="M51.074,41.286h0A3.511,3.511,0,0,0,47.567,44.8a1.193,1.193,0,0,0,1.193,1.193h0a1.193,1.193,0,0,0,1.193-1.194,1.122,1.122,0,0,1,1.12-1.121h0a1.121,1.121,0,0,1,1.121,1.12,1.193,1.193,0,0,0,1.193,1.193h0a1.193,1.193,0,0,0,1.193-1.194,3.508,3.508,0,0,0-3.507-3.506Zm16.8,21.559a47.022,47.022,0,0,1-8.34,3.275,27.741,27.741,0,0,0,8.574-10.232c6.869,1.492,13.359-3.456,13.359-10.011a10.375,10.375,0,0,0-7.973-9.893,17.6,17.6,0,0,0-1.655-7,1.193,1.193,0,0,0-2.153,1.031c2.262,4.72,1.541,10.661-.193,14.542-2.028-4.629-5.788-11.763-9.711-14.99a2.311,2.311,0,0,0-3.67,1.064,10.678,10.678,0,0,1-3.68,4.935C50.994,30.1,48.9,26.8,46.206,25.731a5.907,5.907,0,0,0-5.473.786,5.907,5.907,0,0,0-5.473-.786c-2.693,1.064-4.787,4.371-6.227,9.831a10.677,10.677,0,0,1-3.68-4.935,2.311,2.311,0,0,0-3.67-1.064c-3.913,3.219-7.668,10.328-9.711,14.99-1.478-3.313-2.49-8.8-.58-13.653a14.19,14.19,0,0,1,8.329-7.949,2.3,2.3,0,0,0,1.207-3.1,14.091,14.091,0,0,0-4.025-5c3.805-1.04,9.146.3,11.6,1.556a2.3,2.3,0,0,0,3.185-1.191,21.508,21.508,0,0,0,1.341-6.361,22.719,22.719,0,0,1,5.915,5,2.3,2.3,0,0,0,3.573,0,22.726,22.726,0,0,1,5.916-5,21.5,21.5,0,0,0,1.341,6.361,2.3,2.3,0,0,0,3.185,1.191c2.455-1.257,7.8-2.6,11.6-1.556a14.09,14.09,0,0,0-4.025,5,2.3,2.3,0,0,0,1.207,3.1,16.706,16.706,0,0,1,4.849,2.954,1.193,1.193,0,1,0,1.591-1.779A19.025,19.025,0,0,0,62.74,20.78a11.792,11.792,0,0,1,3.387-4.117,2.3,2.3,0,0,0-.716-4.049c-4.446-1.316-10.5.149-13.454,1.629a19.416,19.416,0,0,1-1.14-5.589,2.3,2.3,0,0,0-3.371-1.973,24.849,24.849,0,0,0-6.713,5.594,24.856,24.856,0,0,0-6.713-5.595A2.3,2.3,0,0,0,30.65,8.654a19.41,19.41,0,0,1-1.14,5.59c-2.951-1.48-9.008-2.946-13.454-1.629a2.3,2.3,0,0,0-.716,4.049,11.789,11.789,0,0,1,3.387,4.117c-7.007,2.9-10.511,8.414-10.747,15.2A10.377,10.377,0,0,0,0,45.877c0,6.556,6.492,11.5,13.359,10.011a27.74,27.74,0,0,0,8.574,10.231,47.033,47.033,0,0,1-8.339-3.275,7.546,7.546,0,0,0-6.535,13.6A57.216,57.216,0,0,0,21.032,81.4a3.876,3.876,0,0,0,3.84,4.442h1.686a1.193,1.193,0,0,0,0-2.387H24.872a1.489,1.489,0,0,1-1.477-1.722,17.662,17.662,0,0,1,6.919-11.242,32.782,32.782,0,0,0,20.841,0A17.662,17.662,0,0,1,58.073,81.73,1.489,1.489,0,0,1,56.6,83.452H32.229a1.193,1.193,0,0,0,0,2.387H56.6a3.876,3.876,0,0,0,3.84-4.442,57.224,57.224,0,0,0,13.973-4.948,7.546,7.546,0,0,0-6.535-13.6Zm2.665-16.02a2.252,2.252,0,0,0,.914-.853,8.1,8.1,0,0,1,2.036.688,1.193,1.193,0,0,0,1.131-2.1,9.888,9.888,0,0,0-2.253-.827,22.681,22.681,0,0,0,1.07-5.275,7.942,7.942,0,0,1,5.644,7.421c0,4.878-4.777,8.631-10.02,7.765a25.11,25.11,0,0,0,1.478-6.818ZM2.387,45.877a7.945,7.945,0,0,1,5.654-7.427A22.915,22.915,0,0,0,9.1,43.73a9.885,9.885,0,0,0-2.256.828A1.194,1.194,0,0,0,7.415,46.8c.605,0,.766-.447,2.6-.831a2.253,2.253,0,0,0,.914.853,25.113,25.113,0,0,0,1.478,6.818c-5.244.867-10.02-2.888-10.02-7.765ZM8.092,74.3A5.159,5.159,0,0,1,12.56,65q.785.377,1.592.751a17.288,17.288,0,0,1-4.531,9.275q-.784-.365-1.529-.724ZM21.56,79.069a47.945,47.945,0,0,1-9.644-3.025,19.6,19.6,0,0,0,4.506-9.3A35.43,35.43,0,0,0,27.734,69.5,20.116,20.116,0,0,0,21.56,79.069ZM40.734,69.8c-15.059,0-26.494-10.687-27.425-23.154a2.3,2.3,0,0,0,.775-.961C17.42,38,20.921,33.326,23.12,31.475a13.111,13.111,0,0,0,4.648,6.116,2.3,2.3,0,0,0,3.544-1.3c1.2-4.621,2.917-7.581,4.826-8.336a3.652,3.652,0,0,1,3.375.618,2.3,2.3,0,0,0,2.441,0,3.651,3.651,0,0,1,3.375-.618c1.91.754,3.623,3.715,4.826,8.336a2.3,2.3,0,0,0,3.544,1.3,13.109,13.109,0,0,0,4.648-6.116c3.321,2.787,6.84,9.154,9.036,14.211a2.3,2.3,0,0,0,.775.961C67.224,59.159,55.743,69.8,40.734,69.8Zm19.173,9.268A20.115,20.115,0,0,0,53.735,69.5a35.431,35.431,0,0,0,11.309-2.753,19.6,19.6,0,0,0,4.508,9.3A47.954,47.954,0,0,1,59.907,79.069ZM73.375,74.3q-.745.358-1.529.723a17.28,17.28,0,0,1-4.531-9.274q.808-.372,1.592-.751a5.159,5.159,0,0,1,4.468,9.3ZM44.641,43.48a8.6,8.6,0,0,0-3.892-.634h-.018c-1.934,0-5.959,0-5.957,4.418a6.825,6.825,0,0,0,1.7,4.565,5.672,5.672,0,0,0,4.258,1.958h0a5.672,5.672,0,0,0,4.258-1.962,6.824,6.824,0,0,0,1.7-4.567,3.869,3.869,0,0,0-2.051-3.779ZM44.3,47.26a4.443,4.443,0,0,1-1.091,2.976A3.317,3.317,0,0,1,40.735,51.4h0a3.317,3.317,0,0,1-2.479-1.162,4.443,4.443,0,0,1-1.094-2.975c0-1.547.492-2.029,3.571-2.03h.019a7,7,0,0,1,2.811.376c.386.2.742.53.743,1.651ZM30.389,41.3h0a3.507,3.507,0,0,0-3.505,3.509A1.193,1.193,0,0,0,28.075,46h0A1.193,1.193,0,0,0,29.269,44.8a1.121,1.121,0,0,1,1.12-1.121h0A1.121,1.121,0,0,1,31.51,44.8,1.193,1.193,0,0,0,32.7,46h0A1.193,1.193,0,0,0,33.9,44.8,3.508,3.508,0,0,0,30.389,41.3Z" fill="#4a4e3c"/>
    </g>
  </g>
</svg>
