<svg xmlns="http://www.w3.org/2000/svg" width="84" height="84" viewBox="0 0 84 84">
  <g id="img25" transform="translate(-527 -9119)">
    <rect id="Rectangle_461404" data-name="Rectangle 461404" width="84" height="84" rx="10" transform="translate(527 9119)" fill="#b9c296"/>
    <g id="Group_1198858" data-name="Group 1198858" transform="translate(534.901 9129.684)">
      <path id="Path_1024819" data-name="Path 1024819" d="M278.319,225.173a5.583,5.583,0,0,0-5.58,5.423v4.5h10.205v-9.921Z" transform="translate(-236.652 -197.625)" fill="#8379c1"/>
      <path id="Path_1024820" data-name="Path 1024820" d="M287.852,42.381l1.677,11.163a6.308,6.308,0,0,1-.492,3.547,5.616,5.616,0,0,1-5.072,3.375H272.39a5.616,5.616,0,0,1-5.072-3.375,6.308,6.308,0,0,1-.492-3.547L268.5,42.38a5.207,5.207,0,0,1,4.266-4.461,35.7,35.7,0,0,1,10.8,0l.02,0A5.207,5.207,0,0,1,287.852,42.381Z" transform="translate(-231.401 -32.919)" fill="#acacac"/>
      <path id="Path_1024821" data-name="Path 1024821" d="M334.272,219.927a9.167,9.167,0,0,1-3.6-.731v2.194a3.6,3.6,0,1,0,7.2,0V219.2A9.165,9.165,0,0,1,334.272,219.927Z" transform="translate(-287.499 -192.38)" fill="#ffa78f"/>
      <path id="Path_1024822" data-name="Path 1024822" d="M322.064,249.361a6.619,6.619,0,0,0,1.435-4.988l-.7-6.1a17.267,17.267,0,0,0-11.485-14.353l-6.418,2.232a6.969,6.969,0,0,0-4.361,5.934l-1.4,12.291a6.619,6.619,0,0,0,1.435,4.988,4.865,4.865,0,0,0,3.707,1.806h14.078A4.865,4.865,0,0,0,322.064,249.361Z" transform="translate(-259.782 -196.522)" fill="#c86d36"/>
      <path id="Path_1024823" data-name="Path 1024823" d="M396.3,244.373l-.7-6.1a17.267,17.267,0,0,0-11.485-14.353l-2.078.723a17.268,17.268,0,0,1,9.727,13.63l.7,6.1a6.62,6.62,0,0,1-1.435,4.988,4.865,4.865,0,0,1-3.707,1.806h3.837a4.865,4.865,0,0,0,3.707-1.806A6.62,6.62,0,0,0,396.3,244.373Z" transform="translate(-332.579 -196.522)" fill="#ac5e2e"/>
      <path id="Path_1024824" data-name="Path 1024824" d="M361.841,53.546l-1.677-11.163a5.208,5.208,0,0,0-4.268-4.462l-.02,0a35.711,35.711,0,0,0-6.729-.384,35.758,35.758,0,0,1,4.05.384l.02,0a5.207,5.207,0,0,1,4.268,4.462l1.677,11.163a6.309,6.309,0,0,1-.492,3.547,5.616,5.616,0,0,1-5.072,3.375h2.68a5.616,5.616,0,0,0,5.072-3.375A6.309,6.309,0,0,0,361.841,53.546Z" transform="translate(-303.713 -32.92)" fill="#9c9c9c"/>
      <path id="Path_1024825" data-name="Path 1024825" d="M338.133,444.629H318.445v-4.772a3.519,3.519,0,0,1,3.519-3.519h12.65a3.519,3.519,0,0,1,3.519,3.519Z" transform="translate(-276.767 -382.956)" fill="#f58a97"/>
      <path id="Path_1024826" data-name="Path 1024826" d="M425.587,436.338H422.1a3.519,3.519,0,0,1,3.519,3.519v4.772h3.488v-4.772A3.519,3.519,0,0,0,425.587,436.338Z" transform="translate(-367.74 -382.956)" fill="#f07281"/>
      <path id="Path_1024827" data-name="Path 1024827" d="M150.3,225.173a5.584,5.584,0,0,1,5.584,5.584v5.932H144.748V225.173Z" transform="translate(-124.32 -197.625)" fill="#0ab69f"/>
      <path id="Path_1024828" data-name="Path 1024828" d="M133.314,197.366V192.3h-7.2v5.061a3.6,3.6,0,1,0,7.2,0Z" transform="translate(-107.967 -168.778)" fill="#ffcebf"/>
      <path id="Path_1024829" data-name="Path 1024829" d="M73.583,57.728H64.728A2.568,2.568,0,0,0,62.16,60.3v6.723H73.583Z" transform="translate(-51.835 -50.666)" fill="#acacac"/>
      <path id="Path_1024830" data-name="Path 1024830" d="M73.583,57.728H64.728A2.568,2.568,0,0,0,62.16,60.3v6.723H73.583Z" transform="translate(-51.835 -50.666)" fill="#acacac"/>
      <path id="Path_1024831" data-name="Path 1024831" d="M73.66,54.609c-.044,0-.088,0-.131,0a9.5,9.5,0,0,0-18.728,0c-.044,0-.087,0-.131,0a3.224,3.224,0,1,0,0,6.449c.044,0,.088,0,.131,0a9.5,9.5,0,0,0,18.728,0c.044,0,.087,0,.131,0a3.224,3.224,0,0,0,0-6.449Z" transform="translate(-42.431 -40.981)" fill="#ffcebf"/>
      <path id="Path_1024832" data-name="Path 1024832" d="M195.3,158.621H193.92a.622.622,0,1,0,0,1.244H195.3a.622.622,0,0,0,0-1.244Z" transform="translate(-166.93 -139.215)" fill="#fe8f83"/>
      <path id="Path_1024833" data-name="Path 1024833" d="M195.3,158.621H193.92a.622.622,0,1,0,0,1.244H195.3a.622.622,0,0,0,0-1.244Z" transform="translate(-166.93 -139.215)" fill="#fe8f83"/>
      <path id="Path_1024834" data-name="Path 1024834" d="M97.786,158.621H96.4a.622.622,0,0,0,0,1.244h1.384a.622.622,0,0,0,0-1.244Z" transform="translate(-81.342 -139.215)" fill="#fe8f83"/>
      <path id="Path_1024835" data-name="Path 1024835" d="M157.359,54.609c-.044,0-.088,0-.131,0a9.494,9.494,0,0,0-10.417-7.859,9.5,9.5,0,0,1,8.324,7.859c.044,0,.087,0,.131,0a3.224,3.224,0,0,1,0,6.449c-.044,0-.088,0-.131,0a9.5,9.5,0,0,1-8.324,7.859,9.494,9.494,0,0,0,10.417-7.859c.044,0,.087,0,.131,0a3.224,3.224,0,0,0,0-6.449Z" transform="translate(-126.13 -40.981)" fill="#ffb09e"/>
      <path id="Path_1024836" data-name="Path 1024836" d="M48.237,444.629H28.549v-4.772a3.519,3.519,0,0,1,3.519-3.519h12.65a3.519,3.519,0,0,1,3.519,3.519Z" transform="translate(-22.336 -382.956)" fill="#82aee3"/>
      <path id="Path_1024837" data-name="Path 1024837" d="M135.691,436.338H132.2a3.519,3.519,0,0,1,3.519,3.519v4.772h3.488v-4.772A3.519,3.519,0,0,0,135.691,436.338Z" transform="translate(-113.309 -382.956)" fill="#528fd8"/>
      <path id="Path_1024838" data-name="Path 1024838" d="M86.212,393.843v-5.219H78.79v5.219a3.711,3.711,0,1,0,7.422,0Z" transform="translate(-66.431 -341.08)" fill="#ffa78f"/>
      <path id="Path_1024839" data-name="Path 1024839" d="M375.16,385.323v-5.436h-7.731v5.436a3.865,3.865,0,0,0,7.731,0Z" transform="translate(-319.758 -333.412)" fill="#ffa78f"/>
      <path id="Path_1024840" data-name="Path 1024840" d="M280.9,56.458c-.043,0-.085,0-.127,0a9.2,9.2,0,0,0-18.141,0c-.042,0-.084,0-.127,0a3.123,3.123,0,1,0,0,6.246c.043,0,.085,0,.127,0a9.2,9.2,0,0,0,18.141,0c.042,0,.084,0,.127,0a3.123,3.123,0,1,0,0-6.246Z" transform="translate(-224.933 -42.823)" fill="#ffcebf"/>
      <path id="Path_1024841" data-name="Path 1024841" d="M361.785,56.458c-.043,0-.085,0-.127,0a9.182,9.182,0,0,0-10.116-7.608,9.2,9.2,0,0,1,8.023,7.605h.058l.07,0a3.123,3.123,0,1,1,0,6.246l-.07,0h-.058a9.2,9.2,0,0,1-8.023,7.605A9.183,9.183,0,0,0,361.658,62.7c.042,0,.084,0,.127,0a3.123,3.123,0,1,0,0-6.246Z" transform="translate(-305.814 -42.823)" fill="#ffb09e"/>
      <path id="Path_1024842" data-name="Path 1024842" d="M38.125,234.685h-7.04a3.7,3.7,0,0,0-3.69,4.03l1.016,11.518h9.715Z" transform="translate(-21.31 -205.974)" fill="#9e5528"/>
      <path id="Path_1024843" data-name="Path 1024843" d="M318.584,253.532c-.043,0-.086,0-.129,0a9.33,9.33,0,0,0-18.4,0c-.043,0-.086,0-.129,0a3.168,3.168,0,1,0,0,6.336c.043,0,.086,0,.129,0a9.33,9.33,0,0,0,18.4,0c.043,0,.086,0,.129,0a3.168,3.168,0,1,0,0-6.336Z" transform="translate(-257.732 -215.69)" fill="#ffcebf"/>
      <path id="Path_1024844" data-name="Path 1024844" d="M195.3,158.621H193.92a.622.622,0,1,0,0,1.244H195.3a.622.622,0,0,0,0-1.244Z" transform="translate(-166.93 -139.215)" fill="#fe8f83"/>
      <path id="Path_1024845" data-name="Path 1024845" d="M271.491,29.845h12.08a5.916,5.916,0,0,0,5.916-5.916,5.463,5.463,0,0,0-5.463-5.463h-4.915a7.617,7.617,0,0,0-7.617,7.617Z" transform="translate(-235.557 -16.206)" fill="#bfbfbf"/>
      <path id="Path_1024846" data-name="Path 1024846" d="M351.459,18.465h-2.679a5.463,5.463,0,0,1,5.463,5.463,5.916,5.916,0,0,1-5.916,5.916h2.68a5.916,5.916,0,0,0,5.916-5.916A5.463,5.463,0,0,0,351.459,18.465Z" transform="translate(-302.992 -16.206)" fill="#acacac"/>
      <path id="Path_1024847" data-name="Path 1024847" d="M31.9,258.5c-.041,0-.083,0-.124,0a8.958,8.958,0,0,0-17.666,0c-.041,0-.082,0-.124,0a3.041,3.041,0,1,0,0,6.083c.041,0,.083,0,.124,0a8.958,8.958,0,0,0,17.666,0c.041,0,.082,0,.124,0a3.041,3.041,0,1,0,0-6.083Z" transform="translate(-6.883 -220.319)" fill="#ffcebf"/>
      <path id="Path_1024848" data-name="Path 1024848" d="M109.118,13.567a5.744,5.744,0,0,0-5.744-5.744H96.016a6.334,6.334,0,1,0,0,12.668h13.1Z" transform="translate(-75.99 -6.866)" fill="#bfbfbf"/>
      <path id="Path_1024849" data-name="Path 1024849" d="M176.574,7.824h-3.488a5.744,5.744,0,0,1,5.744,5.744v6.924h3.488V13.568a5.743,5.743,0,0,0-5.744-5.744Z" transform="translate(-149.191 -6.867)" fill="#acacac"/>
      <path id="Path_1024850" data-name="Path 1024850" d="M302.716,158.389h-1.31a.589.589,0,1,0,0,1.178h1.31a.589.589,0,1,0,0-1.178Z" transform="translate(-261.295 -139.012)" fill="#fe8f83"/>
      <path id="Path_1024851" data-name="Path 1024851" d="M400.923,158.389h-1.31a.589.589,0,0,0,0,1.178h1.31a.589.589,0,1,0,0-1.178Z" transform="translate(-347.488 -139.012)" fill="#fe8f83"/>
      <path id="Path_1024852" data-name="Path 1024852" d="M400.732,253.532c-.043,0-.086,0-.129,0a9.315,9.315,0,0,0-10.247-7.719,9.333,9.333,0,0,1,8.154,7.719c.043,0,.086,0,.129,0a3.168,3.168,0,1,1,0,6.336c-.043,0-.086,0-.129,0a9.333,9.333,0,0,1-8.154,7.719,9.316,9.316,0,0,0,10.247-7.719c.043,0,.086,0,.129,0a3.168,3.168,0,1,0,0-6.336Z" transform="translate(-339.88 -215.69)" fill="#ffb09e"/>
      <path id="Path_1024853" data-name="Path 1024853" d="M110.463,258.5c-.041,0-.083,0-.124,0a8.944,8.944,0,0,0-9.879-7.406,8.961,8.961,0,0,1,7.787,7.406c.041,0,.082,0,.124,0a3.041,3.041,0,1,1,0,6.083c-.041,0-.083,0-.124,0a8.96,8.96,0,0,1-7.787,7.406,8.944,8.944,0,0,0,9.879-7.406c.041,0,.082,0,.124,0a3.041,3.041,0,0,0,0-6.083Z" transform="translate(-85.45 -220.319)" fill="#ffb09e"/>
      <path id="Path_1024854" data-name="Path 1024854" d="M357.489,226.536H345.624a6,6,0,0,1-6-6,5.542,5.542,0,0,1,5.542-5.542h4.6a7.727,7.727,0,0,1,7.727,7.727Z" transform="translate(-295.354 -188.691)" fill="#d77f4a"/>
      <path id="Path_1024855" data-name="Path 1024855" d="M397.482,214.995h-3.488a7.727,7.727,0,0,1,7.727,7.727v3.816h3.488v-3.816A7.727,7.727,0,0,0,397.482,214.995Z" transform="translate(-343.073 -188.693)" fill="#c86d36"/>
      <path id="Path_1024856" data-name="Path 1024856" d="M66.4,224.37H54.151a6.113,6.113,0,0,1-6.113-6.113v-1.646a4.468,4.468,0,0,1,4.467-4.467h7.859a6.039,6.039,0,0,1,6.039,6.039v6.187Z" transform="translate(-39.441 -186.19)" fill="#ac5e2e"/>
      <path id="Path_1024857" data-name="Path 1024857" d="M123.775,212.144h-3.488a6.039,6.039,0,0,1,6.039,6.039v6.187h3.488v-6.187A6.039,6.039,0,0,0,123.775,212.144Z" transform="translate(-102.851 -186.19)" fill="#9e5528"/>
      <path id="Path_1024858" data-name="Path 1024858" d="M183.969,343.607a5.2,5.2,0,0,0-.305-1.235,2.185,2.185,0,0,0-2.079-1.484,1.992,1.992,0,0,0-1.735,2.977l.243.415c-1.36.4-2.81-.709-3.823-1.764a4.12,4.12,0,0,0,.691,1.764c-1.5.442-2.96-.639-4.041-1.764a4.118,4.118,0,0,0,.691,1.764c-2.431.716-5.148-3.392-5.148-3.392a8.3,8.3,0,0,0-.963,2.719l-.115,0a2.835,2.835,0,1,0,0,5.671l.115,0a8.351,8.351,0,0,0,16.47,0l.115,0a2.835,2.835,0,1,0-.116-5.668Z" transform="translate(-141.698 -299.184)" fill="#ffcebf"/>
      <path id="Path_1024859" data-name="Path 1024859" d="M256.707,343.606a8.521,8.521,0,0,0-.305-1.235,2.185,2.185,0,0,0-2.079-1.484,1.98,1.98,0,0,0-1.021.278,2.154,2.154,0,0,1,1.007,1.205,7.32,7.32,0,0,1,.305,1.235,2.835,2.835,0,1,1,.116,5.668l-.115,0a8.354,8.354,0,0,1-7.188,6.9,8.343,8.343,0,0,0,9.281-6.9l.115,0a2.835,2.835,0,1,0-.115-5.668Z" transform="translate(-214.436 -299.183)" fill="#ffb09e"/>
      <path id="Path_1024860" data-name="Path 1024860" d="M187.89,266.59h-1.442a7.6,7.6,0,0,0-4.787,1.69l.015-.012a6.471,6.471,0,0,0-5.371,6.376v4.12a2.821,2.821,0,0,1,1.4-.368l.115,0a8.3,8.3,0,0,1,.963-2.719s2.718,4.108,5.148,3.392a4.121,4.121,0,0,1-.691-1.764c1.08,1.125,2.541,2.206,4.041,1.764a4.119,4.119,0,0,1-.691-1.764c1.013,1.055,2.463,2.165,3.823,1.764l-.243-.414a1.992,1.992,0,0,1,1.735-2.977,2.185,2.185,0,0,1,2.08,1.486,8.288,8.288,0,0,1,.3,1.232l.115,0a2.822,2.822,0,0,1,1.423.383v-4.254A7.935,7.935,0,0,0,187.89,266.59Z" transform="translate(-152.015 -233.975)" fill="#ac5e2e"/>
      <path id="Path_1024861" data-name="Path 1024861" d="M253.337,266.59h-1.442a7.717,7.717,0,0,0-1.021.068,7.935,7.935,0,0,1,6.91,7.867v1.2a2.174,2.174,0,0,1,1.645,1.442,8.289,8.289,0,0,1,.3,1.232l.115,0a2.822,2.822,0,0,1,1.423.383v-4.254A7.935,7.935,0,0,0,253.337,266.59Z" transform="translate(-217.462 -233.975)" fill="#9e5528"/>
      <g id="Group_1198857" data-name="Group 1198857" transform="translate(8.819 43.67)">
        <path id="Path_1024862" data-name="Path 1024862" d="M51.75,356.958H50.44a.589.589,0,0,0,0,1.178h1.31a.589.589,0,0,0,0-1.178Z" transform="translate(-49.851 -356.958)" fill="#fe8f83"/>
        <path id="Path_1024863" data-name="Path 1024863" d="M149.957,356.958h-1.31a.589.589,0,0,0,0,1.178h1.31a.589.589,0,1,0,0-1.178Z" transform="translate(-136.043 -356.958)" fill="#fe8f83"/>
        <path id="Path_1024864" data-name="Path 1024864" d="M341.534,359.5h-1.31a.589.589,0,1,0,0,1.178h1.31a.589.589,0,0,0,0-1.178Z" transform="translate(-304.183 -359.185)" fill="#fe8f83"/>
        <path id="Path_1024865" data-name="Path 1024865" d="M439.74,359.5h-1.31a.589.589,0,0,0,0,1.178h1.31a.589.589,0,1,0,0-1.178Z" transform="translate(-390.374 -359.185)" fill="#fe8f83"/>
        <path id="Path_1024866" data-name="Path 1024866" d="M198.709,409.484H197.4a.589.589,0,1,0,0,1.178h1.31a.589.589,0,1,0,0-1.178Z" transform="translate(-178.831 -403.058)" fill="#fe8f83"/>
        <path id="Path_1024867" data-name="Path 1024867" d="M296.916,409.484h-1.31a.589.589,0,1,0,0,1.178h1.31a.589.589,0,1,0,0-1.178Z" transform="translate(-265.023 -403.058)" fill="#fe8f83"/>
      </g>
      <path id="Path_1024868" data-name="Path 1024868" d="M180.553,168.9a.917.917,0,0,1-.855-1.246,1.109,1.109,0,0,0-.226-.841.916.916,0,1,1,1.464-1.1,2.886,2.886,0,0,1,.472,2.6A.916.916,0,0,1,180.553,168.9Z" transform="translate(-154.632 -145.114)" fill="#ffb09e"/>
      <path id="Path_1024869" data-name="Path 1024869" d="M113.728,168.912a.917.917,0,0,1-.855-.587,2.885,2.885,0,0,1,.472-2.6.916.916,0,0,1,1.464,1.1,1.106,1.106,0,0,0-.225.84.917.917,0,0,1-.855,1.246Z" transform="translate(-96.212 -145.131)" fill="#ffb09e"/>
      <path id="Path_1024870" data-name="Path 1024870" d="M385.136,169.234a.917.917,0,0,1-.855-1.246c.113-.294-.165-.761-.221-.835a.916.916,0,1,1,1.459-1.109,2.886,2.886,0,0,1,.472,2.6A.917.917,0,0,1,385.136,169.234Z" transform="translate(-334.191 -145.413)" fill="#ffb09e"/>
      <path id="Path_1024871" data-name="Path 1024871" d="M318.281,169.234a.917.917,0,0,1-.855-.587,2.886,2.886,0,0,1,.472-2.6.916.916,0,0,1,1.464,1.1,1.107,1.107,0,0,0-.225.841.917.917,0,0,1-.855,1.246Z" transform="translate(-275.74 -145.413)" fill="#ffb09e"/>
      <path id="Path_1024872" data-name="Path 1024872" d="M195.2,478.515H175.515v-1.266a2.311,2.311,0,0,1,2.311-2.311h15.065a2.311,2.311,0,0,1,2.311,2.311Z" transform="translate(-151.323 -416.834)" fill="#0ab69f"/>
      <path id="Path_1024873" data-name="Path 1024873" d="M292.527,474.938h-3.488a2.311,2.311,0,0,1,2.311,2.311v1.266h3.488v-1.266A2.311,2.311,0,0,0,292.527,474.938Z" transform="translate(-250.958 -416.834)" fill="#01998d"/>
      <path id="Path_1024874" data-name="Path 1024874" d="M231.25,463.823a8.32,8.32,0,0,1-3.447-.743v.851a3.46,3.46,0,1,0,6.919,0v-.863A8.315,8.315,0,0,1,231.25,463.823Z" transform="translate(-197.214 -406.416)" fill="#ffa78f"/>
      <path id="Path_1024875" data-name="Path 1024875" d="M111.663,131.2V129.45a.918.918,0,1,0-1.835,0V131.2a.918.918,0,1,0,1.835,0Z" transform="translate(-93.672 -112.807)"/>
      <path id="Path_1024876" data-name="Path 1024876" d="M186.614,132.118a.918.918,0,0,0,.918-.918V129.45a.918.918,0,1,0-1.835,0V131.2A.918.918,0,0,0,186.614,132.118Z" transform="translate(-160.258 -112.807)"/>
      <path id="Path_1024877" data-name="Path 1024877" d="M391.1,127.82h-.729a.918.918,0,0,0-.918.918v1.7a.918.918,0,0,0,1.835,0v-.8a.918.918,0,0,0-.188-1.816Z" transform="translate(-339.084 -112.183)"/>
      <path id="Path_1024878" data-name="Path 1024878" d="M311.649,131.351a.918.918,0,0,0,.918-.918v-1.7a.918.918,0,0,0-.918-.918h-.729a.918.918,0,0,0-.188,1.816v.8A.918.918,0,0,0,311.649,131.351Z" transform="translate(-269.357 -112.183)"/>
      <path id="Path_1024879" data-name="Path 1024879" d="M88.553,368.2a2.825,2.825,0,0,0,2.822-2.822.918.918,0,0,0-1.835,0,.987.987,0,0,1-1.974,0,.918.918,0,0,0-1.835,0A2.825,2.825,0,0,0,88.553,368.2Z" transform="translate(-72.523 -319.876)"/>
      <path id="Path_1024880" data-name="Path 1024880" d="M66.436,328.05a.918.918,0,0,0-.918.918v1.652a.918.918,0,1,0,1.835,0v-1.652A.918.918,0,0,0,66.436,328.05Z" transform="translate(-54.783 -287.916)"/>
      <path id="Path_1024881" data-name="Path 1024881" d="M138,331.537a.918.918,0,0,0,.918-.918v-1.652a.918.918,0,0,0-1.835,0v1.652A.918.918,0,0,0,138,331.537Z" transform="translate(-117.592 -287.916)"/>
      <path id="Path_1024882" data-name="Path 1024882" d="M380.243,364.216a.918.918,0,0,0-.918.918,1.066,1.066,0,1,1-2.133,0,.918.918,0,0,0-1.835,0,2.9,2.9,0,1,0,5.8,0A.918.918,0,0,0,380.243,364.216Z" transform="translate(-326.717 -319.658)"/>
      <path id="Path_1024883" data-name="Path 1024883" d="M430.5,326.287h-.74a.918.918,0,0,0-.918.918v1.72a.918.918,0,0,0,1.835,0v-.82a.918.918,0,0,0-.178-1.818Z" transform="translate(-373.66 -286.369)"/>
      <path id="Path_1024884" data-name="Path 1024884" d="M349.915,326.287h-.74A.918.918,0,0,0,349,328.1v.82a.918.918,0,1,0,1.835,0V327.2A.918.918,0,0,0,349.915,326.287Z" transform="translate(-302.932 -286.369)"/>
      <path id="Path_1024885" data-name="Path 1024885" d="M236.636,418.128a2.7,2.7,0,0,0,2.693-2.693.918.918,0,0,0-1.835,0,.858.858,0,0,1-1.716,0,.918.918,0,0,0-1.835,0A2.7,2.7,0,0,0,236.636,418.128Z" transform="translate(-202.603 -363.805)"/>
      <path id="Path_1024886" data-name="Path 1024886" d="M216.016,383.944a.918.918,0,0,0,.918-.918v-1.54a.918.918,0,0,0-1.835,0v1.54A.918.918,0,0,0,216.016,383.944Z" transform="translate(-186.063 -334.01)"/>
      <path id="Path_1024887" data-name="Path 1024887" d="M282.735,383.944a.918.918,0,0,0,.918-.918v-1.54a.918.918,0,0,0-1.835,0v1.54A.918.918,0,0,0,282.735,383.944Z" transform="translate(-244.62 -334.01)"/>
      <path id="Path_1024888" data-name="Path 1024888" d="M64.173,43.444a4.09,4.09,0,0,0-1.085-5.877v-3.54a8.666,8.666,0,0,0-5.458-8.04,6.954,6.954,0,0,0,.884-1.444,7.247,7.247,0,0,0,.566-4.068l-.145-.964a4.041,4.041,0,0,0-.961-6.305l-.43-2.861v0l-.158-1.05a6.307,6.307,0,0,0-3.3-4.676,6.387,6.387,0,0,0-2.341-2.423.918.918,0,1,0-.939,1.577,4.556,4.556,0,0,1,1.779,1.941.917.917,0,0,0,.459.442,4.429,4.429,0,0,1,2.526,3.412l.109.729a10.2,10.2,0,0,0-1.19-1.726l-.021-.026a.918.918,0,0,0-1.585.372,5,5,0,0,1-.789,1.7l-.007.009a5,5,0,0,1-4.059,2.071H36.852V9.843a6.717,6.717,0,0,1,6.71-6.71h3.572a.918.918,0,0,0,0-1.835H43.562a8.555,8.555,0,0,0-8.545,8.545V13.6a4.03,4.03,0,0,0-.592.6,4.186,4.186,0,0,0-.387-.409.92.92,0,0,0,.019-.185V6.669A6.677,6.677,0,0,0,27.387,0H20.02a7.271,7.271,0,0,0-7.168,6.108A3.493,3.493,0,0,0,9.373,9.6V13.8a4.143,4.143,0,0,0,2.207,7.122,10.371,10.371,0,0,0,2.026,4.1h-.572a5.429,5.429,0,0,0-4.846,3.029,4.661,4.661,0,0,0-3.058,4.765l.418,4.745a3.963,3.963,0,0,0,.879,7.575,9.835,9.835,0,0,0,4.983,6.389v.212a4.656,4.656,0,0,0,.061.749H9.7a4.446,4.446,0,0,0-4.441,4.441v4.778a.918.918,0,0,0,.918.918h2.3a.918.918,0,1,0,0-1.835H7.091V56.929A2.609,2.609,0,0,1,9.7,54.323h2.5a4.635,4.635,0,0,0,7.692,0h2.473a2.609,2.609,0,0,1,2.606,2.606V57.6a3.246,3.246,0,0,0-1.587,1.97l0,.005a3.956,3.956,0,0,0-.121,1.216H12.753a.918.918,0,1,0,0,1.835h11.3a.912.912,0,0,0,.119.009H43.89a.933.933,0,0,0,.119-.009H61.4a.918.918,0,0,0,.918-.918V56.929a4.414,4.414,0,0,0-.636-2.287,6.281,6.281,0,0,0,1.337-1.188,7.508,7.508,0,0,0,1.648-5.691Zm-3.395-.175a.919.919,0,0,0-.909.679c-.008.028-.014.057-.019.086a8.412,8.412,0,0,1-4.8,6.261h0a8.4,8.4,0,0,1-3.928.752l-.123-.008a8.366,8.366,0,0,1-5.067-2.131,3.769,3.769,0,0,0-1.19-4.216c0-3.808.249-5.651-1.131-8.11.063-.178.131-.348.183-.471h1.044a6.919,6.919,0,0,0,5.456,2.656h10.7a2.254,2.254,0,0,1-.215,4.5ZM51.557,54.886a2.961,2.961,0,0,1-2.9-2.4v0a10.314,10.314,0,0,0,5.8-.01A2.958,2.958,0,0,1,51.557,54.886ZM42.7,53.268q-.148-.083-.29-.179a9.276,9.276,0,0,0,.631-1.759,3.759,3.759,0,0,0,1.852-.89,10.22,10.22,0,0,0,1.881,1.278,6.13,6.13,0,0,0,.032.77H45.209A4.45,4.45,0,0,0,42.7,53.268ZM34.5,19.358c.054.063.111.125.169.185a12.122,12.122,0,0,0-.221,2.011,7.256,7.256,0,0,0,.646,2.989,6.764,6.764,0,0,0,2.976,3.178,6.558,6.558,0,0,0-.924.749,6.471,6.471,0,0,0-1.877,3.579H34.43a8.533,8.533,0,0,0-2,.239A6.525,6.525,0,0,0,27.851,26.9a10.414,10.414,0,0,0,4-5.974A4.149,4.149,0,0,0,34.5,19.358Zm2.445,1.372a10.1,10.1,0,0,0,4.042,5.9,4.98,4.98,0,0,1-4.621-6.03,4.395,4.395,0,0,0,.579.135Zm2.944,20.421a2.924,2.924,0,0,0-2.9,3.275,6.45,6.45,0,0,1-1.761-1.363.919.919,0,0,0-1.573.747c.012.1.027.187.043.276.026.143.057.278.093.4a5.912,5.912,0,0,1-1.918-1.428.918.918,0,0,0-1.572.747,4.556,4.556,0,0,0,.106.567,9.284,9.284,0,0,1-2.893-2.815.917.917,0,0,0-.8-.411c-.509.018-.831.3-1.388,1.8-.047.126-.1.278-.142.408,0-2.407-.128-3.362.565-4.775h0a5.578,5.578,0,0,1,3.558-2.928l.031-.008c.7-.184.461.02,1.078-.441a6.723,6.723,0,0,1,1.492-.838c.011,0,.021-.011.032-.016a6.686,6.686,0,0,1,2.483-.471h1.444c.066,0,.131,0,.2.005h.005a7.031,7.031,0,0,1,5.8,3.373l.011.019C43.1,39.287,42.9,40.894,42.9,43.446q-.027-.089-.056-.177a3.093,3.093,0,0,0-2.7-2.108q-.124-.01-.251-.01Zm-12.2-10.716,0-.013a6.962,6.962,0,0,0-.722-1.858,4.683,4.683,0,0,1,3.683,4.365,9.216,9.216,0,0,0-1.385.856,7.413,7.413,0,0,0-1.4.432,15.576,15.576,0,0,0-.177-3.783Zm14-1.975h2.626a6.552,6.552,0,0,0-.356.667,7.764,7.764,0,0,0-3.58,4.154,8.894,8.894,0,0,0-3.258-1.142,4.645,4.645,0,0,1,4.568-3.679Zm-17.9,19.567a1.923,1.923,0,0,1,1.848-2.32c.037,0,.073,0,.109,0a.914.914,0,0,0,.942-.765,7.393,7.393,0,0,1,.27-1.1c1.151,1.329,3.146,3.1,5.2,2.5a.917.917,0,0,0,.5-.358,3.771,3.771,0,0,0,2.859.358.918.918,0,0,0,.5-.36,3.5,3.5,0,0,0,2.639.36A.918.918,0,0,0,39.189,45c-.224-.382-.6-.842-.236-1.471a1.2,1.2,0,0,1,2.149.31,8.475,8.475,0,0,1,.291,1.186.919.919,0,0,0,.924.682,1.9,1.9,0,0,1,2,1.919,1.924,1.924,0,0,1-1.744,1.913,1.984,1.984,0,0,0-.6.058.917.917,0,0,0-.6.715,7.357,7.357,0,0,1-.93,2.544c-.012.021-.021.044-.031.065a7.407,7.407,0,0,1-3.224,2.9c-.02.008-.041.014-.061.023a7.431,7.431,0,0,1-3.095.672h0a7.421,7.421,0,0,1-3.072-.661c-.016-.007-.034-.013-.05-.019a7.407,7.407,0,0,1-4.218-5.525.918.918,0,0,0-.9-.766h-.038l-.078,0a1.924,1.924,0,0,1-1.879-1.521Zm7.752,9.989a9.36,9.36,0,0,0,5-.008,2.545,2.545,0,0,1-5,.008Zm9.7-3.1a4.412,4.412,0,0,0-.482,2.009v.288H38.5A9.241,9.241,0,0,0,41.251,54.919Zm20-20.892v2.9H50.289a5.085,5.085,0,0,1-4.2-2.215c-.007-.012-.013-.024-.021-.036a5.052,5.052,0,0,1-.713-1.594.918.918,0,0,0-1.585-.375,10.387,10.387,0,0,0-1.423,2.145c-.127-.136-.318-.325-.42-.419a5.919,5.919,0,0,1,3.12-3.8.917.917,0,0,0,.477-.5,4.645,4.645,0,0,1,2.027-2.331h0l.114-.062h0a4.8,4.8,0,0,1,2.6-.539h4.209a6.828,6.828,0,0,1,6.777,6.818Zm-7.192-8.654a10.087,10.087,0,0,0,2.545-4.563c.007-.027.015-.053.022-.08a4.012,4.012,0,0,0,.612-.147,5.285,5.285,0,0,1-1.623,4.873,10.347,10.347,0,0,0-1.556-.082Zm1.845-6.432a.921.921,0,0,0-.941.765,8.318,8.318,0,0,1-2.725,4.866l-.017.017a8.376,8.376,0,0,1-1.063.783,16.108,16.108,0,0,0-2.168.054l-.017,0h0a6.424,6.424,0,0,0-2.922,1.156,8.326,8.326,0,0,1-7.438-6.879.918.918,0,0,0-.9-.766,2.21,2.21,0,1,1-.236-4.413H48.029A6.834,6.834,0,0,0,54,11.041a8.371,8.371,0,0,1,.969,2.721.922.922,0,0,0,.043.164v0a.918.918,0,0,0,.9.6,2.209,2.209,0,1,1,0,4.414ZM20.02,1.835h7.367a4.839,4.839,0,0,1,4.834,4.834v6.016c-12.971,0-12.364.016-12.809-.035l-.065-.008A5.43,5.43,0,0,1,14.6,7.073V7.059s0,0,0-.006a5.43,5.43,0,0,1,5.42-5.218ZM11.209,9.6a1.656,1.656,0,0,1,1.583-1.652,7.638,7.638,0,0,0,.277,1.412,10.639,10.639,0,0,0-1.488,3.371q-.188.028-.373.074Zm2.035,10.3a.918.918,0,0,0-.941-.765l-.095,0a2.311,2.311,0,1,1,.094-4.619.916.916,0,0,0,.943-.765,8.619,8.619,0,0,1,.783-2.4,7.277,7.277,0,0,0,5.031,3.1l.123.016c.624.072-.121.05,11.911.05h.2a2.31,2.31,0,0,1-.066,4.619l-.095,0a.918.918,0,0,0-.941.765,8.583,8.583,0,0,1-5.14,6.49A6.992,6.992,0,0,0,20.9,25.024H16.159A8.562,8.562,0,0,1,13.243,19.9ZM9.076,29.7a.918.918,0,0,0,.639-.562,3.578,3.578,0,0,1,3.319-2.28H20.9a5.137,5.137,0,0,1,5.128,5.066c0,.021,0,.042,0,.064v3.34a7.373,7.373,0,0,0-1.653,1.937h-9.7a5.225,5.225,0,0,1-4.882-3.4.918.918,0,0,0-1.586-.244,10.265,10.265,0,0,0-1.026,1.631l-.229-2.6A2.808,2.808,0,0,1,9.076,29.7ZM8.091,44.117a.918.918,0,0,0-.9-.766H7.149l-.087,0a2.126,2.126,0,0,1-.329-4.228c.457-.071.676.059,1.031-.23a.915.915,0,0,0,.327-.561,8,8,0,0,1,.769-2.32A7.073,7.073,0,0,0,14.682,39.1h8.927c-.327,1.22-.253,1.81-.253,5.569a3.763,3.763,0,0,0-1.393,3.549,8.051,8.051,0,0,1-13.872-4.1Zm7.939,8.547a9.879,9.879,0,0,0,2.761-.392,2.788,2.788,0,0,1-.473,1.095l0,0a2.8,2.8,0,0,1-4.537.006l-.005-.007a2.786,2.786,0,0,1-.473-1.088,10.038,10.038,0,0,0,2.731.381Zm6.333-.177H20.616a4.642,4.642,0,0,0,.061-.749v-.233a9.863,9.863,0,0,0,2.093-1.5,3.757,3.757,0,0,0,2.26,1.32,9.232,9.232,0,0,0,4.534,5.887H26.8v-.288A4.446,4.446,0,0,0,22.364,52.488Zm2.731,8.31v-.35A1.4,1.4,0,0,1,26.127,59.1l.006,0a1.388,1.388,0,0,1,.359-.048h3.44A4.361,4.361,0,0,0,31.106,60.8Zm13.067-1.747h3.414l.043,0,.024,0a1.4,1.4,0,0,1,1.33,1.392v.35H36.987a4.361,4.361,0,0,0,1.175-1.747Zm22.319,1.738H44.808v-.341a3.237,3.237,0,0,0-2.2-3.064v-.456a2.613,2.613,0,0,1,2.606-2.606h2.2a4.8,4.8,0,0,0,4.356,2.393l.1-.006h.019a4.792,4.792,0,0,0,3.818-2.386h2.17a2.614,2.614,0,0,1,2.606,2.606Zm1.134-8.52A4.377,4.377,0,0,1,60.4,53.276c-1.348-.935-2.454-.788-4.088-.788,0-.011,0-.021,0-.032a6.071,6.071,0,0,0,.029-.756,10.249,10.249,0,0,0,5.062-6.245l0-.015c.036-.126.07-.253.1-.38a4.052,4.052,0,0,0,.966-.276l.364,3.189A5.746,5.746,0,0,1,61.616,52.269Z" transform="translate(0 0)"/>
      <path id="Path_1024889" data-name="Path 1024889" d="M343.662,168.276a.918.918,0,0,0-.918.918.62.62,0,0,1-1.241,0,.918.918,0,1,0-1.835,0,2.455,2.455,0,0,0,4.911,0A.918.918,0,0,0,343.662,168.276Z" transform="translate(-295.394 -147.689)"/>
      <path id="Path_1024890" data-name="Path 1024890" d="M139.76,168.872a.918.918,0,1,0-1.835,0,.62.62,0,1,1-1.241,0,.918.918,0,1,0-1.835,0,2.455,2.455,0,1,0,4.911,0Z" transform="translate(-115.632 -147.407)"/>
    </g>
  </g>
</svg>
