<svg xmlns="http://www.w3.org/2000/svg" width="84" height="84" viewBox="0 0 84 84">
  <g id="img23" transform="translate(-185 -4493)">
    <rect id="Rectangle_461356" data-name="Rectangle 461356" width="84" height="84" rx="9" transform="translate(185 4493)" fill="#ffe3c2"/>
    <g id="Group_1196281" data-name="Group 1196281" transform="translate(195 4442.585)">
      <g id="Group_1196293" data-name="Group 1196293" transform="translate(1.236 70.651)">
        <g id="Group_1196281-2" data-name="Group 1196281" transform="translate(1.443 1.236)">
          <path id="Path_1018256" data-name="Path 1018256" d="M49.2,112.739V98.953a9.536,9.536,0,0,0-9.536-9.536H31.208a9.537,9.537,0,0,0-9.537,9.537v13.785a3.891,3.891,0,0,0,3.891,3.891H45.308a3.891,3.891,0,0,0,3.891-3.891Z" transform="translate(-21.671 -89.417)" fill="#e7e9ef" fill-rule="evenodd"/>
        </g>
        <g id="Group_1196282" data-name="Group 1196282" transform="translate(33.888 0)">
          <path id="Path_1018257" data-name="Path 1018257" d="M298.033,79.416h-4.391a9.537,9.537,0,0,0-9.537,9.537v4.16h23.464v-4.16A9.537,9.537,0,0,0,298.033,79.416Z" transform="translate(-284.105 -79.416)" fill="#8690af" fill-rule="evenodd"/>
        </g>
        <g id="Group_1196283" data-name="Group 1196283" transform="translate(0 33.355)">
          <path id="Path_1018258" data-name="Path 1018258" d="M40.414,359.514V356.45a7.244,7.244,0,0,0-7.244-7.244H17.245A7.244,7.244,0,0,0,10,356.45v3.064Z" transform="translate(-10.001 -349.206)" fill="#ffe6b4" fill-rule="evenodd"/>
        </g>
        <g id="Group_1196284" data-name="Group 1196284" transform="translate(0.374 14.067)">
          <path id="Path_1018259" data-name="Path 1018259" d="M22.239,199.65H16.25a3.224,3.224,0,0,1,0-6.449h5.988Z" transform="translate(-13.026 -193.201)" fill="#b96c5a" fill-rule="evenodd"/>
        </g>
        <g id="Group_1196285" data-name="Group 1196285" transform="translate(9.964 21.632)">
          <path id="Path_1018260" data-name="Path 1018260" d="M101.077,266.11a8.148,8.148,0,0,1-10.486,0V254.388h10.486Z" transform="translate(-90.591 -254.388)" fill="#b96c5a" fill-rule="evenodd"/>
        </g>
        <g id="Group_1196286" data-name="Group 1196286" transform="translate(20.827 14.067)">
          <path id="Path_1018261" data-name="Path 1018261" d="M178.457,199.65h5.988a3.224,3.224,0,0,0,0-6.449h-5.988Z" transform="translate(-178.457 -193.201)" fill="#b96c5a" fill-rule="evenodd"/>
        </g>
        <g id="Group_1196287" data-name="Group 1196287" transform="translate(30.413 33.355)">
          <path id="Path_1018262" data-name="Path 1018262" d="M256,359.514V356.45a7.244,7.244,0,0,1,7.244-7.244h15.926a7.244,7.244,0,0,1,7.244,7.244v3.064Z" transform="translate(-256 -349.206)" fill="#ff5d7d" fill-rule="evenodd"/>
        </g>
        <g id="Group_1196288" data-name="Group 1196288" transform="translate(51.24 14.067)">
          <path id="Path_1018263" data-name="Path 1018263" d="M424.457,199.65h5.988a3.224,3.224,0,1,0,0-6.449h-5.988Z" transform="translate(-424.457 -193.201)" fill="#f2b394" fill-rule="evenodd"/>
        </g>
        <g id="Group_1196289" data-name="Group 1196289" transform="translate(40.377 21.632)">
          <path id="Path_1018264" data-name="Path 1018264" d="M336.591,266.11a8.148,8.148,0,0,0,10.486,0V254.388H336.591Z" transform="translate(-336.591 -254.388)" fill="#f2b394" fill-rule="evenodd"/>
        </g>
        <g id="Group_1196290" data-name="Group 1196290" transform="translate(30.787 14.067)">
          <path id="Path_1018265" data-name="Path 1018265" d="M268.239,199.65H262.25a3.224,3.224,0,1,1,0-6.449h5.988Z" transform="translate(-259.026 -193.201)" fill="#f2b394" fill-rule="evenodd"/>
        </g>
        <g id="Group_1196291" data-name="Group 1196291" transform="translate(5.377 14.067)">
          <path id="Path_1018266" data-name="Path 1018266" d="M53.489,193.2v3.162a9.83,9.83,0,1,0,19.66,0V193.2Z" transform="translate(-53.489 -193.201)" fill="#cb9083" fill-rule="evenodd"/>
        </g>
        <g id="Group_1196292" data-name="Group 1196292" transform="translate(35.79 8.434)">
          <path id="Path_1018267" data-name="Path 1018267" d="M303.307,152.235l.08.02c1.288.329,2.748,1.337,5.2.191s2.292-3.983,5.348-4.693a4.185,4.185,0,0,1,2.18.061,4.319,4.319,0,0,1,3.033,4.156v4.462a9.83,9.83,0,1,1-19.66,0V155.25A3.1,3.1,0,0,1,303.307,152.235Z" transform="translate(-299.49 -147.638)" fill="#f5c6af" fill-rule="evenodd"/>
        </g>
      </g>
      <g id="Group_1196295" data-name="Group 1196295" transform="translate(0 69.415)">
        <path id="Path_1018268" data-name="Path 1018268" d="M112.163,230.768a1.236,1.236,0,0,0-1.681-1.814,1.881,1.881,0,0,1-2.562,0,1.236,1.236,0,0,0-1.681,1.814,4.353,4.353,0,0,0,5.923,0Z" transform="translate(-92.758 -208.941)"/>
        <g id="Group_1196294" data-name="Group 1196294" transform="translate(0 0)">
          <path id="Path_1018269" data-name="Path 1018269" d="M54.819,102.77H53.336V96.847a11.135,11.135,0,0,0,3.62-4.442h1.509a4.461,4.461,0,0,0,1.36-8.709V80.188A10.785,10.785,0,0,0,49.052,69.415H44.661A10.785,10.785,0,0,0,33.888,80.188V83.7a4.478,4.478,0,0,0-2.238,1.616q-.1-.134-.207-.26V81.424A10.785,10.785,0,0,0,20.67,70.652H12.216A10.785,10.785,0,0,0,1.443,81.424v3.627a4.448,4.448,0,0,0,0,5.784v4.374a5.133,5.133,0,0,0,5.127,5.127H9.964v2.433H8.48A8.49,8.49,0,0,0,0,111.25v3.064a1.236,1.236,0,0,0,1.236,1.236H10.88a1.236,1.236,0,0,0,0-2.473H2.473V111.25a6.014,6.014,0,0,1,6.008-6.008h2.288a9.362,9.362,0,0,0,11.35,0h2.288a6.014,6.014,0,0,1,6.008,6.008v1.828H22.007a1.236,1.236,0,0,0,0,2.473H62.063a1.236,1.236,0,0,0,1.236-1.236V111.25a8.49,8.49,0,0,0-8.48-8.48Zm.631-14.889a8.594,8.594,0,0,1-17.188,0V86.7a1.864,1.864,0,0,1,1.853-1.865,1.608,1.608,0,0,1,.5.068c.2.052.439.135.689.223a6.385,6.385,0,0,0,5.343-.109,6.664,6.664,0,0,0,2.745-2.637,3.7,3.7,0,0,1,2.359-1.972,2.934,2.934,0,0,1,1.545.041,3.093,3.093,0,0,1,2.152,2.972ZM50.863,98.2v5.2a6.9,6.9,0,0,1-8.014,0V98.2a11.065,11.065,0,0,0,8.014,0Zm7.06-10.315V85.955h.542a1.988,1.988,0,0,1,0,3.976h-.733A11.085,11.085,0,0,0,57.923,87.881ZM36.361,80.188a8.31,8.31,0,0,1,8.3-8.3h4.391a8.31,8.31,0,0,1,8.3,8.3v.767a5.5,5.5,0,0,0-3.344-2.877A5.42,5.42,0,0,0,51.194,78a6.065,6.065,0,0,0-3.849,3,4.423,4.423,0,0,1-1.742,1.78,3.926,3.926,0,0,1-3.479.016c-.289-.1-.687-.231-.991-.309a4.3,4.3,0,0,0-3.687.806c-.084.067-.165.136-.244.208l-.842-.012Zm-1.112,5.767h.6a4.4,4.4,0,0,0-.063.742v1.184a11.074,11.074,0,0,0,.191,2.05h-.733a1.988,1.988,0,0,1,0-3.976Zm-5.209,1.988a1.99,1.99,0,0,1-1.988,1.988h-.733a11.085,11.085,0,0,0,.191-2.05V85.955h.542A1.99,1.99,0,0,1,30.039,87.943Zm-1.069,4.365v2.9a2.658,2.658,0,0,1-2.655,2.655H22.923V96.847a11.134,11.134,0,0,0,3.62-4.442h1.509a4.471,4.471,0,0,0,.919-.1ZM3.916,81.424a8.31,8.31,0,0,1,8.3-8.3H20.67a8.31,8.31,0,0,1,8.3,8.3v2.154a4.462,4.462,0,0,0-.919-.1H17.679V80.214a1.236,1.236,0,1,0-2.473,0v3.269H4.835a4.471,4.471,0,0,0-.919.1V81.424ZM2.847,87.943a1.99,1.99,0,0,1,1.988-1.988h.542v1.926a11.085,11.085,0,0,0,.191,2.05H4.835a1.99,1.99,0,0,1-1.988-1.988Zm7.117,9.921H6.57a2.658,2.658,0,0,1-2.655-2.655v-2.9a4.463,4.463,0,0,0,.919.1H6.344a11.135,11.135,0,0,0,3.62,4.442ZM20.45,103.4a6.9,6.9,0,0,1-8.014,0V98.2a11.064,11.064,0,0,0,8.014,0Zm-4.007-6.926a8.6,8.6,0,0,1-8.594-8.594V85.955H25.037v1.926a8.6,8.6,0,0,1-8.594,8.594Zm7.963,6.295H22.923v-2.433h3.393a5.133,5.133,0,0,0,5.127-5.127V90.836q.108-.126.207-.26a4.457,4.457,0,0,0,3.6,1.829h1.509a11.135,11.135,0,0,0,3.62,4.442v5.923H38.894a8.483,8.483,0,0,0-7.244,4.076,8.483,8.483,0,0,0-7.244-4.076Zm36.421,10.308H32.886V111.25a6.014,6.014,0,0,1,6.008-6.008h2.288a9.362,9.362,0,0,0,11.35,0H54.82a6.014,6.014,0,0,1,6.008,6.008v1.828Z" transform="translate(0 -69.415)"/>
        </g>
        <path id="Path_1018270" data-name="Path 1018270" d="M356.482,228.954a1.881,1.881,0,0,1-2.562,0,1.236,1.236,0,0,0-1.681,1.814,4.353,4.353,0,0,0,5.923,0,1.236,1.236,0,0,0-1.681-1.814Z" transform="translate(-308.345 -208.941)"/>
        <circle id="Ellipse_15148" data-name="Ellipse 15148" cx="1.236" cy="1.236" r="1.236" transform="translate(15.206 43.663)"/>
      </g>
    </g>
  </g>
</svg>
