<svg xmlns="http://www.w3.org/2000/svg" width="80" height="80" viewBox="0 0 80 80">
  <g id="img34" transform="translate(-205 -9605)">
    <rect id="Rectangle_461953" data-name="Rectangle 461953" width="80" height="80" rx="10" transform="translate(205 9605)" fill="#fff7ed"/>
    <g id="layer1" transform="translate(219.941 9338.404)">
      <path id="path4550" d="M25.056,280.689a82.474,82.474,0,0,1-23.245,6.88.871.871,0,0,0-.752.869v2.61a.871.871,0,1,0,1.742,0v-1.861a84.837,84.837,0,0,0,22.648-6.751,82.082,82.082,0,0,0,22.646,6.751v17.537c0,10.575-5.63,16.566-11.343,20.057a33.593,33.593,0,0,1-11.3,4.315,33.565,33.565,0,0,1-11.3-4.315C8.432,323.29,2.8,317.3,2.8,306.725V294.533a.871.871,0,1,0-1.742,0v12.192c0,11.2,6.133,17.847,12.18,21.542a35.906,35.906,0,0,0,12.081,4.585.852.852,0,0,0,.259,0,35.906,35.906,0,0,0,12.081-4.585c6.047-3.7,12.18-10.34,12.18-21.542V288.439a.871.871,0,0,0-.752-.869,82.48,82.48,0,0,1-23.245-6.88.88.88,0,0,0-.786,0Zm.393,10.359a15.68,15.68,0,1,0,11.465,26.377.871.871,0,1,0-1.273-1.191,13.9,13.9,0,1,1,2.108-2.95.872.872,0,0,0,1.538.822,15.69,15.69,0,0,0-13.838-23.058Zm-3.486,7.838v4.36H17.611a.871.871,0,0,0-.874.868v5.228a.871.871,0,0,0,.874.868h4.352v4.36a.871.871,0,0,0,.876.868h5.22a.871.871,0,0,0,.874-.868v-4.36h4.354a.871.871,0,0,0,.874-.868v-5.228a.871.871,0,0,0-.874-.868H28.933v-4.36a.871.871,0,0,0-.874-.868H22.794a.876.876,0,0,0-.831.868Zm1.744.874h3.484v4.354a.871.871,0,0,0,.868.868h4.36v3.486h-4.36a.871.871,0,0,0-.868.874V313.7H23.706v-4.354a.871.871,0,0,0-.868-.874h-4.36v-3.486h4.36a.871.871,0,0,0,.868-.868Z" transform="translate(0 0)" fill="#4a4e3c" stroke="#4a4e3c" stroke-width="0.2"/>
    </g>
  </g>
</svg>
