<svg xmlns="http://www.w3.org/2000/svg" width="80" height="80" viewBox="0 0 80 80">
  <g id="img33" transform="translate(-621 -9465)">
    <rect id="Rectangle_461949" data-name="Rectangle 461949" width="80" height="80" rx="10" transform="translate(621 9465)" fill="#fff7ed"/>
    <g id="Group_1198870" data-name="Group 1198870" transform="translate(629 9473)">
      <g id="Group_1198869" data-name="Group 1198869">
        <g id="Group_1198868" data-name="Group 1198868">
          <path id="Path_1024894" data-name="Path 1024894" d="M27.458,36.308a1,1,0,0,1-.943-.666l-1.458-4.117a1,1,0,0,1,.58-1.266l2.944-1.147a1,1,0,0,1,1.306.6l1.458,4.118a1,1,0,0,1-.58,1.266l-2.944,1.146a.99.99,0,0,1-.363.068Zm-.192-4.537.79,2.23,1.08-.42-.79-2.231Z" fill="#4a4e3c"/>
          <path id="Path_1024895" data-name="Path 1024895" d="M30.4,35.161a1,1,0,0,1-.942-.666L28,30.377a1,1,0,0,1,.332-1.126l6.14-4.735a1,1,0,0,1,1.554.458l2.916,8.235a1,1,0,0,1-.862,1.331l-7.6.618c-.027,0-.055,0-.082,0Zm-.273-4.769.959,2.709,5.536-.45L34.6,26.942Z" fill="#4a4e3c"/>
        </g>
        <path id="Path_1024896" data-name="Path 1024896" d="M31,39.692a1,1,0,0,1-.9-.553l-2-4a1,1,0,0,1,1.789-.9l2,4A1,1,0,0,1,31,39.691Z" fill="#4a4e3c"/>
        <path id="Path_1024897" data-name="Path 1024897" d="M33,37.692a1,1,0,0,1-.9-.553l-1-2a1,1,0,0,1,1.789-.9l1,2A1,1,0,0,1,33,37.691Z" fill="#4a4e3c"/>
        <path id="Path_1024898" data-name="Path 1024898" d="M31,39.692a1,1,0,0,1-.707-1.707l2-2A1,1,0,1,1,33.707,37.4l-2,2A1,1,0,0,1,31,39.692Z" fill="#4a4e3c"/>
      </g>
      <path id="Path_1024899" data-name="Path 1024899" d="M32,22A11,11,0,1,1,43,11,11.013,11.013,0,0,1,32,22ZM32,2a9,9,0,1,0,9,9A9.01,9.01,0,0,0,32,2Z" fill="#4a4e3c"/>
      <path id="Path_1024900" data-name="Path 1024900" d="M32,64A11,11,0,1,1,43,53,11.013,11.013,0,0,1,32,64Zm0-20a9,9,0,1,0,9,9A9.01,9.01,0,0,0,32,44Z" fill="#4a4e3c"/>
      <path id="Path_1024901" data-name="Path 1024901" d="M53,43A11,11,0,1,1,64,32,11.013,11.013,0,0,1,53,43Zm0-20a9,9,0,1,0,9,9A9.01,9.01,0,0,0,53,23Z" fill="#4a4e3c"/>
      <path id="Path_1024902" data-name="Path 1024902" d="M11,43A11,11,0,1,1,22,32,11.013,11.013,0,0,1,11,43Zm0-20a9,9,0,1,0,9,9A9.01,9.01,0,0,0,11,23Z" fill="#4a4e3c"/>
      <path id="Path_1024903" data-name="Path 1024903" d="M56.21,23.53a1,1,0,0,1-.932-.637A25.012,25.012,0,0,0,41.107,8.721a1,1,0,1,1,.727-1.863A27.016,27.016,0,0,1,57.142,22.167a1,1,0,0,1-.568,1.3.985.985,0,0,1-.363.068Z" fill="#4a4e3c"/>
      <path id="Path_1024904" data-name="Path 1024904" d="M22.529,57.21a.985.985,0,0,1-.363-.068A27.016,27.016,0,0,1,6.858,41.833a1,1,0,1,1,1.863-.727A25.012,25.012,0,0,0,22.892,55.278a1,1,0,0,1-.364,1.932Z" fill="#4a4e3c"/>
      <path id="Path_1024905" data-name="Path 1024905" d="M7.79,23.53a.985.985,0,0,1-.363-.068,1,1,0,0,1-.568-1.3A27.019,27.019,0,0,1,22.167,6.858a1,1,0,1,1,.727,1.863A25.009,25.009,0,0,0,8.723,22.893a1,1,0,0,1-.932.637Z" fill="#4a4e3c"/>
      <path id="Path_1024906" data-name="Path 1024906" d="M41.471,57.21a1,1,0,0,1-.364-1.932A25.009,25.009,0,0,0,55.278,41.106a1,1,0,0,1,1.863.727A27.019,27.019,0,0,1,41.833,57.142a.985.985,0,0,1-.363.068Z" fill="#4a4e3c"/>
      <path id="Path_1024907" data-name="Path 1024907" d="M50.621,23.29a1,1,0,0,1-.888-.539,19.813,19.813,0,0,0-8.484-8.483,1,1,0,0,1,.923-1.776,21.8,21.8,0,0,1,9.336,9.337,1,1,0,0,1-.886,1.461Z" fill="#4a4e3c"/>
      <path id="Path_1024908" data-name="Path 1024908" d="M22.289,51.62a1,1,0,0,1-.46-.112,21.8,21.8,0,0,1-9.336-9.337,1,1,0,1,1,1.774-.922,19.813,19.813,0,0,0,8.484,8.483,1,1,0,0,1-.462,1.888Z" fill="#4a4e3c"/>
      <path id="Path_1024909" data-name="Path 1024909" d="M13.379,23.29a1,1,0,0,1-.886-1.461,21.8,21.8,0,0,1,9.336-9.337,1,1,0,0,1,.923,1.776,19.813,19.813,0,0,0-8.484,8.483,1,1,0,0,1-.888.539Z" fill="#4a4e3c"/>
      <path id="Path_1024910" data-name="Path 1024910" d="M41.711,51.62a1,1,0,0,1-.462-1.888,19.813,19.813,0,0,0,8.484-8.483,1,1,0,1,1,1.774.922,21.8,21.8,0,0,1-9.336,9.337,1,1,0,0,1-.46.112Z" fill="#4a4e3c"/>
      <path id="Path_1024911" data-name="Path 1024911" d="M32,12a4,4,0,1,1,4-4A4,4,0,0,1,32,12Zm0-6a2,2,0,1,0,2,2A2,2,0,0,0,32,6Z" fill="#4a4e3c"/>
      <path id="Path_1024912" data-name="Path 1024912" d="M37,17H27a1,1,0,0,1-1-1,6,6,0,1,1,12,0A1,1,0,0,1,37,17Zm-8.874-2h7.748a4,4,0,0,0-7.748,0Z" fill="#4a4e3c"/>
      <path id="Path_1024913" data-name="Path 1024913" d="M53,33a4,4,0,1,1,4-4A4,4,0,0,1,53,33Zm0-6a2,2,0,1,0,2,2A2,2,0,0,0,53,27Z" fill="#4a4e3c"/>
      <path id="Path_1024914" data-name="Path 1024914" d="M58,38H48a1,1,0,0,1-1-1,6,6,0,1,1,12,0A1,1,0,0,1,58,38Zm-8.874-2h7.748a4,4,0,0,0-7.748,0Z" fill="#4a4e3c"/>
      <path id="Path_1024915" data-name="Path 1024915" d="M32,54a4,4,0,1,1,4-4A4,4,0,0,1,32,54Zm0-6a2,2,0,1,0,2,2A2,2,0,0,0,32,48Z" fill="#4a4e3c"/>
      <path id="Path_1024916" data-name="Path 1024916" d="M37,59H27a1,1,0,0,1-1-1,6,6,0,1,1,12,0A1,1,0,0,1,37,59Zm-8.874-2h7.748a4,4,0,0,0-7.748,0Z" fill="#4a4e3c"/>
      <path id="Path_1024917" data-name="Path 1024917" d="M11,33a4,4,0,1,1,4-4A4,4,0,0,1,11,33Zm0-6a2,2,0,1,0,2,2A2,2,0,0,0,11,27Z" fill="#4a4e3c"/>
      <path id="Path_1024918" data-name="Path 1024918" d="M16,38H6a1,1,0,0,1-1-1,6,6,0,1,1,12,0A1,1,0,0,1,16,38ZM7.126,36h7.748a4,4,0,0,0-7.748,0Z" fill="#4a4e3c"/>
      <path id="Path_1024919" data-name="Path 1024919" d="M32,44A12,12,0,1,1,44,32,12.013,12.013,0,0,1,32,44Zm0-22A10,10,0,1,0,42,32,10.011,10.011,0,0,0,32,22Z" fill="#4a4e3c"/>
    </g>
  </g>
</svg>
