<svg xmlns="http://www.w3.org/2000/svg" width="84" height="84" viewBox="0 0 84 84">
  <g id="img3" transform="translate(-185 -686)">
    <path id="Path_1018521" data-name="Path 1018521" d="M10,0H74A10,10,0,0,1,84,10V74A10,10,0,0,1,74,84H10A10,10,0,0,1,0,74V10A10,10,0,0,1,10,0Z" transform="translate(185 686)" fill="#ffe3c2"/>
    <g id="Group_1196507" data-name="Group 1196507" transform="translate(191.885 692.894)">
      <g id="Group_1196506" data-name="Group 1196506" transform="translate(8.884 8.876)">
        <g id="Group_1196501" data-name="Group 1196501" transform="translate(0 1.412)">
          <path id="Path_1018522" data-name="Path 1018522" d="M48.666,28.92a8.287,8.287,0,0,1,8.262,8.262v6.964a3.5,3.5,0,0,1-3.489,3.489H43.892A3.5,3.5,0,0,1,40.4,44.146V37.182A8.287,8.287,0,0,1,48.666,28.92Z" transform="translate(-37.737 -28.92)" fill="#837683" fill-rule="evenodd"/>
          <path id="Path_1018523" data-name="Path 1018523" d="M17.093,208.235H36.766a1.1,1.1,0,0,0,1.093-1.093v-8.416c0-2.432-2.166-3.813-4.631-4.425a27.228,27.228,0,0,0-3.624-.647l-5.348-.01a25.255,25.255,0,0,0-3.624.658c-2.459.632-4.631,1.991-4.631,4.425v8.416A1.1,1.1,0,0,0,17.093,208.235Z" transform="translate(-16 -175.64)" fill="#ffe177" fill-rule="evenodd"/>
          <g id="Group_1196500" data-name="Group 1196500" transform="translate(5.191 18.004)">
            <path id="Path_1018524" data-name="Path 1018524" d="M137.63,208.317h1.093a1.1,1.1,0,0,0,1.093-1.093v-8.416c0-2.432-2.166-3.813-4.631-4.425a27.228,27.228,0,0,0-3.624-.647h-1.093a27.222,27.222,0,0,1,3.624.647c2.465.611,4.631,1.993,4.631,4.425v8.416A1.1,1.1,0,0,1,137.63,208.317Z" transform="translate(-123.148 -193.726)" fill="#ffd064" fill-rule="evenodd"/>
            <path id="Path_1018525" data-name="Path 1018525" d="M108,197.745h1.749v14.143H108Z" transform="translate(-103.136 -197.297)" fill="#ffd064" fill-rule="evenodd"/>
            <path id="Path_1018526" data-name="Path 1018526" d="M74.973,194.168a27,27,0,0,0-3.063-.514l-5.348-.01a25.152,25.152,0,0,0-3.064.52l.458.646a6.252,6.252,0,0,0,10.551.013Z" transform="translate(-63.498 -193.644)" fill="#ffd064" fill-rule="evenodd"/>
          </g>
          <path id="Path_1018527" data-name="Path 1018527" d="M88.44,159.414q-.586-.09-1.173-.154v-4.23H81.92v4.22q-.589.063-1.18.154a4.51,4.51,0,0,0,7.7.01Z" transform="translate(-73.664 -141.247)" fill="#f1cbbc" fill-rule="evenodd"/>
          <path id="Path_1018528" data-name="Path 1018528" d="M76.317,72.959a8.649,8.649,0,0,1,.066,1.086c0,4.022-2.481,7.283-5.541,7.283S65.3,78.068,65.3,74.046a8.243,8.243,0,0,1,.129-1.495,5.818,5.818,0,0,0,2.016.357A5.312,5.312,0,0,0,72.6,69.379,5.106,5.106,0,0,0,76.317,72.959Z" transform="translate(-59.913 -64.957)" fill="#f6dccd" fill-rule="evenodd"/>
        </g>
        <g id="Group_1196503" data-name="Group 1196503" transform="translate(30.603)">
          <path id="Path_1018529" data-name="Path 1018529" d="M297.093,208.235h20.766v-9.509c0-2.432-2.166-3.813-4.631-4.425a27.229,27.229,0,0,0-3.624-.647l-5.348-.01a25.257,25.257,0,0,0-3.624.658c-2.459.632-4.631,1.991-4.631,4.425v8.416A1.1,1.1,0,0,0,297.093,208.235Z" transform="translate(-296 -174.228)" fill="#60b7ff" fill-rule="evenodd"/>
          <g id="Group_1196502" data-name="Group 1196502" transform="translate(5.191 19.416)">
            <path id="Path_1018530" data-name="Path 1018530" d="M388,197.745h1.749v14.143H388Z" transform="translate(-383.137 -197.297)" fill="#41a8fc" fill-rule="evenodd"/>
            <path id="Path_1018531" data-name="Path 1018531" d="M417.629,208.317h1.093a1.1,1.1,0,0,0,1.093-1.093v-8.416c0-2.432-2.166-3.813-4.631-4.425a27.229,27.229,0,0,0-3.624-.647h-1.093a27.221,27.221,0,0,1,3.624.647c2.465.611,4.631,1.993,4.631,4.425v8.416A1.1,1.1,0,0,1,417.629,208.317Z" transform="translate(-403.148 -193.726)" fill="#41a8fc" fill-rule="evenodd"/>
            <path id="Path_1018532" data-name="Path 1018532" d="M354.974,194.168a27,27,0,0,0-3.063-.514l-5.348-.01a25.152,25.152,0,0,0-3.064.52l.458.646a6.252,6.252,0,0,0,10.551.013Z" transform="translate(-343.499 -193.644)" fill="#41a8fc" fill-rule="evenodd"/>
          </g>
          <path id="Path_1018533" data-name="Path 1018533" d="M368.441,159.414q-.586-.09-1.173-.154v-4.23h-5.348v4.22q-.589.063-1.18.154a4.51,4.51,0,0,0,7.7.01Z" transform="translate(-353.665 -139.835)" fill="#f1cbbc" fill-rule="evenodd"/>
          <path id="Path_1018534" data-name="Path 1018534" d="M350.841,59.315c3.06,0,5.541,1.744,5.541,5.766s-2.481,7.283-5.541,7.283S345.3,69.1,345.3,65.081,347.781,59.315,350.841,59.315Z" transform="translate(-339.912 -54.581)" fill="#f6dccd" fill-rule="evenodd"/>
          <path id="Path_1018535" data-name="Path 1018535" d="M347.053,16c.1,1.572-1.448,2.1-2.342,2.1h-4.863a1.207,1.207,0,0,0-1.161,1.381H338.3c-2.119,0-3.576,1.473-3.06,3.572l1.036,4.216,1.61-4.075a10.893,10.893,0,0,0,3.413.98,9.265,9.265,0,0,0,4.666-.409l1.333,3.5c2.84-3.512.991-10.384-.248-11.265Z" transform="translate(-330.861 -16)" fill="#837683" fill-rule="evenodd"/>
        </g>
        <g id="Group_1196504" data-name="Group 1196504" transform="translate(16.394 5.302)">
          <path id="Path_1018536" data-name="Path 1018536" d="M167.093,240.819H184.58a1.1,1.1,0,0,0,1.093-1.093v-7.465c0-2.189-1.95-3.432-4.168-3.982a24.509,24.509,0,0,0-3.262-.583l-4.813-.009a22.719,22.719,0,0,0-3.262.592c-2.213.569-4.168,1.792-4.168,3.982v7.465A1.1,1.1,0,0,0,167.093,240.819Z" transform="translate(-166 -209.852)" fill="#fe646f" fill-rule="evenodd"/>
          <path id="Path_1018537" data-name="Path 1018537" d="M274.356,240.892h1.093a1.1,1.1,0,0,0,1.093-1.093v-7.465c0-2.189-1.95-3.432-4.168-3.982a24.508,24.508,0,0,0-3.262-.583h-1.093a24.508,24.508,0,0,1,3.262.583c2.218.55,4.168,1.793,4.168,3.982V239.8A1.1,1.1,0,0,1,274.356,240.892Z" transform="translate(-256.869 -209.925)" fill="#fd4755" fill-rule="evenodd"/>
          <path id="Path_1018538" data-name="Path 1018538" d="M217.765,228.2a24.4,24.4,0,0,0-2.941-.505l-4.813-.009a22.658,22.658,0,0,0-2.941.512l.453.639a5.8,5.8,0,0,0,9.781.012Z" transform="translate(-202.58 -209.852)" fill="#fd4755" fill-rule="evenodd"/>
          <path id="Path_1018539" data-name="Path 1018539" d="M231.2,196.88q-.527-.081-1.055-.139v-3.807h-4.813v3.8q-.53.056-1.062.139a4.059,4.059,0,0,0,6.93.009Z" transform="translate(-217.898 -178.898)" fill="#f1cbbc" fill-rule="evenodd"/>
          <path id="Path_1018540" data-name="Path 1018540" d="M215.357,106.79c2.754,0,4.987,1.57,4.987,5.19s-2.233,6.555-4.987,6.555-4.987-2.935-4.987-6.555S212.6,106.79,215.357,106.79Z" transform="translate(-205.521 -102.169)" fill="#f6dccd" fill-rule="evenodd"/>
          <path id="Path_1018541" data-name="Path 1018541" d="M211.656,64.509c.086,1.369-1.261,1.825-2.04,1.825h-4.235a1.051,1.051,0,0,0-1.011,1.2h-.335c-1.845,0-3.114,1.283-2.665,3.111l.9,3.672,1.4-3.549a9.49,9.49,0,0,0,2.972.853,8.069,8.069,0,0,0,4.064-.356l1.161,3.052C214.345,71.261,212.735,65.276,211.656,64.509Z" transform="translate(-197.424 -64.509)" fill="#837683" fill-rule="evenodd"/>
        </g>
        <g id="Group_1196505" data-name="Group 1196505" transform="translate(29.205 24.75)">
          <path id="Path_1018542" data-name="Path 1018542" d="M295.16,242.522l10.809,4.632a.8.8,0,0,1,.5.753v8.862c0,6.9-4.942,12.229-11.629,13.395-6.687-1.166-11.629-6.493-11.629-13.395v-8.862a.8.8,0,0,1,.5-.753l10.809-4.632a.792.792,0,0,1,.646,0Z" transform="translate(-283.209 -242.453)" fill="#c2ed56" fill-rule="evenodd"/>
          <path id="Path_1018543" data-name="Path 1018543" d="M385.752,242.522l10.809,4.632a.8.8,0,0,1,.5.753v8.862c0,6.9-4.942,12.229-11.629,13.395-.172-.03-.343-.063-.512-.1a13.517,13.517,0,0,0,11.116-13.3v-8.862a.8.8,0,0,0-.5-.753l-10.62-4.551.189-.081A.792.792,0,0,1,385.752,242.522Z" transform="translate(-373.801 -242.453)" fill="#b7e546" fill-rule="evenodd"/>
          <circle id="Ellipse_15156" data-name="Ellipse 15156" cx="8.194" cy="8.194" r="8.194" transform="translate(3.435 5.627)" fill="#eceff1"/>
          <path id="Path_1018544" data-name="Path 1018544" d="M322.831,293.941c.172,0,.343.006.512.016a8.193,8.193,0,0,0,0,16.354c-.169.01-.34.016-.512.016a8.194,8.194,0,0,1,0-16.387Z" transform="translate(-311.202 -288.314)" fill="#d1d1d6" fill-rule="evenodd"/>
          <path id="Path_1018545" data-name="Path 1018545" d="M345.218,339.992a1.131,1.131,0,1,1,1.6-1.6l1.732,1.732,4.183-4.222a1.128,1.128,0,1,1,1.6,1.591c-2.16,2.182-2.811,2.861-4.981,5.032a1.131,1.131,0,0,1-1.6,0Z" transform="translate(-338.146 -325.392)" fill="#c2ed56" fill-rule="evenodd"/>
        </g>
      </g>
      <path id="Path_1018546" data-name="Path 1018546" d="M60.475,47.942A12.628,12.628,0,0,1,49.992,60.4l-.274.048-.272-.048a12.628,12.628,0,0,1-10.481-12.46V39.117l10.753-4.609,10.758,4.609ZM30.624,44.27h6.592V38.54a.874.874,0,0,1,.53-.8l5.9-2.53a5.439,5.439,0,0,0-3.075-1.754c-.542-.134-1.087-.249-1.63-.345a4.857,4.857,0,0,1-7.663-.008c-.541.1-1.081.214-1.616.352-1.6.412-3.512,1.29-3.512,3.135v7.684h2.721V38.536a.875.875,0,0,1,1.749,0V44.27Zm-6.219-7.684v5.421H20.689v-10.6a5.679,5.679,0,0,0,3.34-2c.624.11,1.251.241,1.874.4a6.232,6.232,0,0,1,3.435,1.933c-.036.01-.072.017-.108.026-3.111.8-4.825,2.515-4.825,4.83ZM9.76,33.373c0-2.113,2.161-3.112,3.974-3.577.615-.158,1.236-.292,1.859-.4a5.681,5.681,0,0,0,3.347,2.013v10.6H14.726V35.54a.874.874,0,1,0-1.749,0v6.468H9.76Zm10.055-7.589c-2.573,0-4.667-2.874-4.667-6.408,0-.13,0-.257.009-.383a6.694,6.694,0,0,0,1.262.118,6.443,6.443,0,0,0,5.1-2.439,6.134,6.134,0,0,0,2.954,2.273c.008.141.011.284.011.431,0,3.534-2.094,6.408-4.667,6.408Zm0,3.952a3.546,3.546,0,0,0,2.132-.75.872.872,0,0,1-.332-.685V27.2a5.086,5.086,0,0,1-3.6,0v1.087a.873.873,0,0,1-.339.692,3.548,3.548,0,0,0,2.139.754ZM12.426,18.551v6.963a2.61,2.61,0,0,0,1.607,2.411c.741-.168,1.487-.3,2.233-.407v-1.35A8.9,8.9,0,0,1,13.4,19.377a9.093,9.093,0,0,1,.144-1.653.875.875,0,0,1,1.162-.663,4.928,4.928,0,0,0,1.714.3,4.452,4.452,0,0,0,4.319-2.916.874.874,0,0,1,1.682.048,4.222,4.222,0,0,0,3.094,2.949.875.875,0,0,1,.643.736,9.554,9.554,0,0,1,.074,1.2,8.909,8.909,0,0,1-2.867,6.792v1.36c.738.1,1.481.236,2.223.4A2.647,2.647,0,0,0,27.2,25.514V18.551a7.389,7.389,0,0,0-14.777,0ZM29.257,24.1l-.305-1.243v2.653a4.346,4.346,0,0,1-1.224,3.03,6.174,6.174,0,0,1,3.417,2.8c.229-.04.46-.077.69-.109v-1.1A8.091,8.091,0,0,1,29.257,24.1Zm1.037-5.379a1.986,1.986,0,0,1,1.6-.646h.335a.875.875,0,0,0,.875-.874.718.718,0,0,1,.061-.322.3.3,0,0,1,.075-.008h4.235A3.285,3.285,0,0,0,39.6,16.1a10.782,10.782,0,0,1,.5,2.313,9.036,9.036,0,0,1-.239,3.446l-.471-1.235a.874.874,0,0,0-1.175-.488,7.338,7.338,0,0,1-3.592.288,8.7,8.7,0,0,1-2.692-.768.875.875,0,0,0-1.207.459l-.395,1-.248-1.009A1.563,1.563,0,0,1,30.294,18.726Zm4.822,10.943c-2.23,0-4.049-2.463-4.11-5.52L32.014,21.6a11.259,11.259,0,0,0,2.376.563,10.162,10.162,0,0,0,3.658-.128l.862,2.268a.873.873,0,0,0,.287.382C38.949,27.488,37.214,29.668,35.116,29.668Zm1.78,2.963a2.963,2.963,0,0,1-3.566,0,.874.874,0,0,0,.254-.614v-.854a4.667,4.667,0,0,0,3.065,0v.863A.875.875,0,0,0,36.9,32.631Zm7.44-2.836A6.393,6.393,0,0,0,40.9,31.733c.031.008.063.014.095.023a6.558,6.558,0,0,1,4.281,2.753l4.1-1.757a1.019,1.019,0,0,1,.169-.052V31.407A5.685,5.685,0,0,1,46.2,29.394Q45.261,29.559,44.336,29.8Zm6.081-2.262a5.2,5.2,0,0,0,1.8-.323V28.3a.871.871,0,0,0,.332.685,3.4,3.4,0,0,1-4.271,0,.873.873,0,0,0,.338-.691V27.211a5.2,5.2,0,0,0,1.8.323ZM45.8,20.266,47,17.228a12.624,12.624,0,0,0,2.819.684,11.377,11.377,0,0,0,4.264-.172l.958,2.52c-.318,3.112-2.321,5.525-4.621,5.525s-4.3-2.409-4.621-5.519Zm-.8-6.248a1.921,1.921,0,0,0-.274,1.7L45.1,17.27l.6-1.525a.874.874,0,0,1,1.206-.46,10.069,10.069,0,0,0,3.133.894,8.547,8.547,0,0,0,4.194-.34.876.876,0,0,1,1.176.487l.669,1.759a10.167,10.167,0,0,0,.386-4.443,12.656,12.656,0,0,0-.633-2.79,3.585,3.585,0,0,1-2.5.993H48.475c-.114,0-.287,0-.287.507a.875.875,0,0,1-.875.875H46.93A2.413,2.413,0,0,0,44.993,14.018ZM60.475,33.374c0-2.256-2.49-3.209-3.971-3.577q-.934-.231-1.872-.4a5.674,5.674,0,0,1-3.34,2v1.872l9.183,3.935v-3.84ZM56.926,28.1a28.658,28.658,0,0,0-2.959-.573V26.183a8.612,8.612,0,0,0,2.81-5.707C58.531,18.1,58.4,14.855,58.16,13.1c-.267-1.948-.983-4.229-1.975-4.935a.873.873,0,0,0-1.377.768.874.874,0,0,1-.223.7,1.87,1.87,0,0,1-1.247.47H48.476a1.922,1.922,0,0,0-1.909,1.393,4.04,4.04,0,0,0-2.95,1.45,3.651,3.651,0,0,0-.6,3.193l1.023,4.159a8.632,8.632,0,0,0,2.825,5.891v1.335A26.555,26.555,0,0,0,43.9,28.1c-2.414.621-4.062,1.738-4.819,3.255-.228-.039-.458-.075-.685-.107V30.141a8.113,8.113,0,0,0,2.58-6.154.861.861,0,0,0-.034-.239,9.737,9.737,0,0,0,.841-5.909c-.236-1.72-.873-3.74-1.766-4.374a.875.875,0,0,0-1.379.768.637.637,0,0,1-.163.522,1.509,1.509,0,0,1-1,.373H33.237a1.775,1.775,0,0,0-1.747,1.221,3.605,3.605,0,0,0-2.573,1.3l-.011.013a9.136,9.136,0,0,0-18.229.891v6.963a4.351,4.351,0,0,0,1.228,3.035c-2.525.99-3.9,2.67-3.9,4.824v9.509a.874.874,0,0,0,.874.874h15.52v1.388a.875.875,0,0,0,.875.875H37.216v1.924A14.446,14.446,0,0,0,49.145,62.125a1.945,1.945,0,0,0,1.147,0A14.444,14.444,0,0,0,62.219,47.942V33.374c0-2.517-1.929-4.439-5.294-5.274Zm-3.27,17.011a.249.249,0,0,0,.076-.181.253.253,0,0,0-.254-.254h0a.248.248,0,0,0-.179.075l-4.182,4.221a.878.878,0,0,1-.62.259h0a.872.872,0,0,1-.617-.257l-1.733-1.731a.257.257,0,0,0-.363.364l2.534,2.534a.258.258,0,0,0,.363,0c1.368-1.367,4.181-4.223,4.978-5.029Zm-.178-2.183h-.006a1.991,1.991,0,0,0-1.416.591l-3.564,3.6-1.111-1.111a2.006,2.006,0,0,0-2.837,2.836l2.533,2.534a2.009,2.009,0,0,0,2.838,0c1.372-1.372,4.187-4.23,4.983-5.034a2,2,0,0,0-1.42-3.414Zm-3.76,11.837A7.319,7.319,0,1,0,42.4,47.447,7.328,7.328,0,0,0,49.718,54.766Zm0-16.387a9.068,9.068,0,1,0,9.07,9.068A9.078,9.078,0,0,0,49.718,38.379Z" fill-rule="evenodd"/>
    </g>
  </g>
</svg>
