<svg xmlns="http://www.w3.org/2000/svg" width="128" height="128" viewBox="0 0 128 128">
  <g id="Group_1200297" data-name="Group 1200297" transform="translate(-383.746 -8400)">
    <circle id="Ellipse_13609" data-name="Ellipse 13609" cx="64" cy="64" r="64" transform="translate(383.746 8400)" fill="#b9c296"/>
    <path id="Path_1027540" data-name="Path 1027540" d="M11.2,25.062a.938.938,0,0,1,.938-.938h28.1a.938.938,0,1,1,0,1.876h-28.1a.938.938,0,0,1-.938-.938Zm15.346,6.973H12.138a.938.938,0,0,0,0,1.876H26.546a.938.938,0,1,0,0-1.876Zm0,7.911H12.138a.938.938,0,0,0,0,1.876H26.546a.938.938,0,1,0,0-1.876Zm0,7.911H12.138a.938.938,0,0,0,0,1.876H26.546a.938.938,0,1,0,0-1.876Zm43.823-.665A2.247,2.247,0,0,1,69.1,48.372l-2.924,1.086a2.213,2.213,0,0,1-2.3-.45,3.123,3.123,0,0,1-.757,1.774,2.355,2.355,0,0,1-2.265.744,3.026,3.026,0,0,1-3.6,2.817,2.882,2.882,0,0,1-.793,1.848v2.678a6.118,6.118,0,0,1-5.907,6.1,6.121,6.121,0,0,1-5.878,4.448H7.7a6.122,6.122,0,0,1-6.115-6.115V10.552A6.118,6.118,0,0,1,7.5,4.447,6.149,6.149,0,0,1,13.371,0H50.348a6.122,6.122,0,0,1,6.115,6.115V35.308l.368.153a5.3,5.3,0,0,0,1.986.584,2.248,2.248,0,0,1,1.416-2.594l2.925-1.086A2.266,2.266,0,0,1,66.065,33.7l4.37,11.765a2.248,2.248,0,0,1-.066,1.73Zm-14.263-10c-1.767-.739-3.593-1.5-6.134.25a11.783,11.783,0,0,0-1.646,1.4c-.333.337-.675.673-1.01,1-.68.667-1.485,1.459-1.918,2,1.282,1.336,2.618.93,4.724.137,1.715-.646,3.655-1.377,5.373-.068.472.269,1.168.613,1.9.976a28.722,28.722,0,0,1,4.991,2.867l-2.938-7.91a3.069,3.069,0,0,1-.668.081,7.166,7.166,0,0,1-2.677-.734ZM9.482,4.437h35.2a6.122,6.122,0,0,1,6.115,6.115V34.9a6.409,6.409,0,0,1,3.794-.22V6.115a4.243,4.243,0,0,0-4.239-4.239H13.371A4.266,4.266,0,0,0,9.482,4.437ZM31.258,15.229l5.06-3.411a.938.938,0,0,1,1.049,0l4.524,3.05V6.313H31.258ZM48.916,63.305V61.011a2.489,2.489,0,0,1-.592.075,2.79,2.79,0,0,1-1.311-.338,3.39,3.39,0,0,1-1.5-1.676l-.057.018a2.915,2.915,0,0,1-2.234-.219,2.742,2.742,0,0,1-1.206-1.207,3.024,3.024,0,0,1-.409.157,2.915,2.915,0,0,1-2.234-.219,2.8,2.8,0,0,1-1.4-1.679,3.026,3.026,0,0,1-.125-1.232,2.92,2.92,0,0,1-1.259-.345,2.8,2.8,0,0,1-1.4-1.678,2.973,2.973,0,0,1,.2-2.293l.337-.631a2.146,2.146,0,0,1-1.289-.022l-2.969-.957A2.265,2.265,0,0,1,30,45.918l3.854-11.944A2.266,2.266,0,0,1,36.7,32.516l2.969.958a2.258,2.258,0,0,1,1.489,1.584,9.389,9.389,0,0,0,2.141-.264,7.926,7.926,0,0,1,5.613.427V10.552a4.243,4.243,0,0,0-4.239-4.239h-.909V16.631a.938.938,0,0,1-1.463.778l-5.463-3.682L31.253,17.5a.938.938,0,0,1-.524.16h-.408a.938.938,0,0,1-.938-.938V6.313H7.7a4.244,4.244,0,0,0-4.239,4.239V63.305A4.243,4.243,0,0,0,7.7,67.544H44.677a4.243,4.243,0,0,0,4.239-4.239Zm2.776-7.088a2.924,2.924,0,0,1-.156,1.68l.1.049a.664.664,0,0,0,.959-.3.843.843,0,0,0-.359-1.141Zm-.928,3.393-.073-.038-.023.038Zm-3.025-2.964v0l-.484.9a1.255,1.255,0,0,0,.644,1.541c.178.1.724.387,1.222-.543l.352-.658v0c.665-1.245.473-1.424-.236-1.8a1,1,0,0,0-.8-.028,1.283,1.283,0,0,0-.7.586ZM46.194,53.31a1.061,1.061,0,0,0-1.432.435l0,0-1.09,2.037h0a1.089,1.089,0,0,0-.064.839.971.971,0,0,0,.475.581,1.068,1.068,0,0,0,.828.089,1.052,1.052,0,0,0,.627-.511l.063-.119,0,0,.478-.894,0,0h0l.545-1.02a1.06,1.06,0,0,0-.435-1.433Zm-2.739-1.76a1.055,1.055,0,0,0-1.943-.193l0,0-.955,1.785-.733,1.371a1.09,1.09,0,0,0-.064.839.97.97,0,0,0,.475.581,1.066,1.066,0,0,0,1.455-.422l.329-.614,0,0,1.088-2.035v0l.269-.5a1.049,1.049,0,0,0,.078-.806Zm-3.792-3.068a1.066,1.066,0,0,0-1.386.457l-.4.75h0l-.839,1.57a1.09,1.09,0,0,0-.064.839.971.971,0,0,0,.476.581,1.064,1.064,0,0,0,1.454-.421l0,0,.953-1.782h0l.286-.533c.107-.2.431-.806-.48-1.456Zm-.318-12.738a.39.39,0,0,0-.249-.485L36.128,34.3a.368.368,0,0,0-.115-.019.394.394,0,0,0-.178.044.384.384,0,0,0-.192.224L31.789,46.494a.391.391,0,0,0,.249.486l2.969.958a.388.388,0,0,0,.486-.248l.67-2.077c.024-.084.044-.168.071-.251.009-.029.024-.054.036-.081ZM54.586,58.868v-1.72l-.021,0a2.746,2.746,0,0,1-.314,1.368A2.533,2.533,0,0,1,52,59.919a2.672,2.672,0,0,1-1.206-.3v3.46a4.245,4.245,0,0,0,3.794-4.216Zm7.226-11.047c-.643-.977-3.412-2.345-5.246-3.25-.826-.408-1.54-.76-2.066-1.065a1,1,0,0,1-.112-.076c-.857-.678-1.929-.326-3.606.307-2.1.79-4.97,1.869-7.294-1.255a.94.94,0,0,1-.115-.916A12.1,12.1,0,0,1,46,38.507c.327-.322.663-.652.99-.982q.4-.4.8-.759a6.341,6.341,0,0,0-4.127-.132,10.486,10.486,0,0,1-2.731.288l-2.978,9.23a5.355,5.355,0,0,0-.154.712,2.966,2.966,0,0,1,.554-.23,2.905,2.905,0,0,1,2.235.219.927.927,0,0,1,.121.078,3.231,3.231,0,0,1,1.394,2.012,2.927,2.927,0,0,1,3.14,2.064,2.956,2.956,0,0,1,.079.327A2.918,2.918,0,0,1,48.468,53.3a.937.937,0,0,1,1.211-.294l3.112,1.671a.927.927,0,0,1,.157.065h0l.777.416a1.126,1.126,0,0,0,1.065-1.985h0a.905.905,0,0,1-.088-.059l-3.594-1.922a.938.938,0,0,1,.884-1.654l3.688,1.972a.927.927,0,0,1,.087.059l1.528.817a1.147,1.147,0,0,0,1.136-1.992l-5.065-2.749a.938.938,0,0,1,.9-1.649l4.957,2.69c.015.007.031.011.046.019l1.54.824c.618.329.847.082.933-.013a1.522,1.522,0,0,0,.075-1.7Zm6.864-1.7-4.37-11.765a.383.383,0,0,0-.2-.215.4.4,0,0,0-.163-.036.375.375,0,0,0-.131.023L60.885,35.21a.389.389,0,0,0-.228.5l4.37,11.765a.384.384,0,0,0,.2.216.391.391,0,0,0,.294.012l2.924-1.086a.389.389,0,0,0,.228-.5Z" transform="translate(411.665 8429.29)" fill="#4a4e3c"/>
  </g>
</svg>
