<svg xmlns="http://www.w3.org/2000/svg" width="128" height="128" viewBox="0 0 128 128">
  <g id="img12" transform="translate(-381.746 -8402)">
    <path id="Path_997402" data-name="Path 997402" d="M64,0A64,64,0,1,1,0,64,64,64,0,0,1,64,0Z" transform="translate(381.746 8402)" fill="#ff945d"/>
    <g id="Group_1200285" data-name="Group 1200285" transform="translate(395.746 8416)">
      <path id="Path_1027534" data-name="Path 1027534" d="M45.662,38.5h8.606a1,1,0,0,0,1-1V22.616h5.295a1,1,0,0,0,.707-1.707L50.654,10.293a1,1,0,0,0-1.414,0L38.624,20.909a1,1,0,0,0,.707,1.707h5.331V37.5a1,1,0,0,0,1,1ZM41.745,20.616l8.2-8.2,8.2,8.2H54.269a1,1,0,0,0-1,1V36.5H46.662V21.616a1,1,0,0,0-1-1Z" fill="#4a4e3c"/>
      <path id="Path_1027535" data-name="Path 1027535" d="M31.493,26.052a1,1,0,0,0-1.052-.357l-14.5,3.886a1,1,0,0,0-.707,1.225l3.886,14.5a1,1,0,0,0,1.832.241l2.666-4.616,12.89,7.441a1,1,0,0,0,1.366-.366l4.3-7.453a1,1,0,0,0-.366-1.366l-12.89-7.442,2.647-4.585a1,1,0,0,0-.073-1.108ZM39.942,40.42l-3.3,5.721L23.75,38.7a1,1,0,0,0-1.366.366l-1.959,3.392-3-11.2,11.2-3-1.94,3.36a1,1,0,0,0,.366,1.366Z" fill="#4a4e3c"/>
      <path id="Path_1027536" data-name="Path 1027536" d="M42.31,60.266a1,1,0,0,0-.1-.759l-4.3-7.453a1,1,0,0,0-1.366-.366L23.65,59.129,21,54.544a1,1,0,0,0-1.832.241l-3.886,14.5a1,1,0,0,0,.707,1.225l14.5,3.886a.982.982,0,0,0,.259.034,1,1,0,0,0,.866-1.5l-2.665-4.616,12.89-7.442a1,1,0,0,0,.466-.607ZM27.088,67.083a1,1,0,0,0-.366,1.366l1.958,3.392-11.2-3,3-11.2L22.418,61a1,1,0,0,0,1.366.366l12.89-7.441,3.3,5.721Z" fill="#4a4e3c"/>
      <path id="Path_1027537" data-name="Path 1027537" d="M49.346,89.707a1,1,0,0,0,1.414,0L61.376,79.091a1,1,0,0,0-.707-1.707H55.338V62.5a1,1,0,0,0-1-1H45.731a1,1,0,0,0-1,1V77.384H39.437a1,1,0,0,0-.707,1.707ZM45.731,79.384a1,1,0,0,0,1-1V63.5h6.606V78.384a1,1,0,0,0,1,1h3.917l-8.2,8.2-8.2-8.2Z" fill="#4a4e3c"/>
      <path id="Path_1027538" data-name="Path 1027538" d="M68.507,73.948a1,1,0,0,0,.793.392.982.982,0,0,0,.259-.034l14.5-3.886a1,1,0,0,0,.707-1.225l-3.886-14.5a1,1,0,0,0-.835-.732.989.989,0,0,0-1,.491l-2.666,4.616-12.89-7.441a1,1,0,0,0-1.366.366l-4.3,7.453a1,1,0,0,0,.366,1.366l12.89,7.442L68.434,72.84a1,1,0,0,0,.073,1.108ZM60.058,59.58l3.3-5.721L76.25,61.3a1,1,0,0,0,1.366-.366l1.959-3.392,3,11.2-11.2,3,1.94-3.36a1,1,0,0,0-.366-1.366Z" fill="#4a4e3c"/>
      <path id="Path_1027539" data-name="Path 1027539" d="M57.69,39.734a1,1,0,0,0,.1.759l4.3,7.453a1,1,0,0,0,1.366.366l12.89-7.441L79,45.456a1,1,0,0,0,1.832-.241l3.886-14.5a1,1,0,0,0-.707-1.225L69.506,25.6a1,1,0,0,0-1.125,1.466l2.665,4.616-12.89,7.442a1,1,0,0,0-.466.607Zm15.222-6.817a1,1,0,0,0,.366-1.366L71.32,28.159l11.2,3-3,11.2L77.582,39a1,1,0,0,0-1.366-.366L63.326,46.08l-3.3-5.721Z" fill="#4a4e3c"/>
    </g>
  </g>
</svg>
