<svg xmlns="http://www.w3.org/2000/svg" width="150" height="150" viewBox="0 0 150 150">
  <g id="img15" transform="translate(-383.746 -8399.999)">
    <circle id="Ellipse_13609" data-name="Ellipse 13609" cx="75" cy="75" r="75" transform="translate(383.746 8399.999)" fill="#fff"/>
    <g id="Group_1200286" data-name="Group 1200286" transform="translate(418.618 8434.871)">
      <path id="Path_1027541" data-name="Path 1027541" d="M35.409,33.817A16.409,16.409,0,1,0,19,17.409,16.428,16.428,0,0,0,35.409,33.817Zm0-30.293A13.884,13.884,0,1,1,21.524,17.409,13.9,13.9,0,0,1,35.409,3.524Z" transform="translate(4.72)" fill="#4a4e3c"/>
      <path id="Path_1027542" data-name="Path 1027542" d="M17.409,37A16.409,16.409,0,1,0,33.817,53.409,16.428,16.428,0,0,0,17.409,37Zm0,30.293A13.884,13.884,0,1,1,31.293,53.409,13.9,13.9,0,0,1,17.409,67.293Z" transform="translate(0 9.439)" fill="#4a4e3c"/>
      <path id="Path_1027543" data-name="Path 1027543" d="M53.409,37A16.409,16.409,0,1,0,69.817,53.409,16.428,16.428,0,0,0,53.409,37Zm0,30.293A13.884,13.884,0,1,1,67.293,53.409,13.9,13.9,0,0,1,53.409,67.293Z" transform="translate(9.439 9.439)" fill="#4a4e3c"/>
      <path id="Path_1027544" data-name="Path 1027544" d="M50.787,47a3.787,3.787,0,1,0,3.787,3.787A3.791,3.791,0,0,0,50.787,47Zm0,5.049a1.262,1.262,0,1,1,1.262-1.262A1.263,1.263,0,0,1,50.787,52.049Z" transform="translate(12.062 12.062)" fill="#4a4e3c"/>
      <path id="Path_1027545" data-name="Path 1027545" d="M43.787,47a3.787,3.787,0,1,0,3.787,3.787A3.791,3.791,0,0,0,43.787,47Zm0,5.049a1.262,1.262,0,1,1,1.262-1.262A1.263,1.263,0,0,1,43.787,52.049Z" transform="translate(10.226 12.062)" fill="#4a4e3c"/>
      <path id="Path_1027546" data-name="Path 1027546" d="M54,50.787A3.787,3.787,0,1,0,57.787,47,3.791,3.791,0,0,0,54,50.787Zm5.049,0a1.262,1.262,0,1,1-1.262-1.262A1.263,1.263,0,0,1,59.049,50.787Z" transform="translate(13.897 12.062)" fill="#4a4e3c"/>
      <path id="Path_1027547" data-name="Path 1027547" d="M36.287,18.573A3.787,3.787,0,1,0,32.5,14.787,3.791,3.791,0,0,0,36.287,18.573Zm0-5.049a1.262,1.262,0,1,1-1.262,1.262A1.263,1.263,0,0,1,36.287,13.524Z" transform="translate(8.26 2.622)" fill="#4a4e3c"/>
      <path id="Path_1027548" data-name="Path 1027548" d="M29.287,18.573A3.787,3.787,0,1,0,25.5,14.787,3.791,3.791,0,0,0,29.287,18.573Zm0-5.049a1.262,1.262,0,1,1-1.262,1.262A1.263,1.263,0,0,1,29.287,13.524Z" transform="translate(6.424 2.622)" fill="#4a4e3c"/>
      <path id="Path_1027549" data-name="Path 1027549" d="M14.787,47a3.787,3.787,0,1,0,3.787,3.787A3.791,3.791,0,0,0,14.787,47Zm0,5.049a1.262,1.262,0,1,1,1.262-1.262A1.263,1.263,0,0,1,14.787,52.049Z" transform="translate(2.622 12.062)" fill="#4a4e3c"/>
      <path id="Path_1027550" data-name="Path 1027550" d="M20.64,16.22,19.124,14.2A32.567,32.567,0,0,0,6,40.454c0,.439.009.875.027,1.31l2.522-.1c-.015-.4-.024-.808-.024-1.214A30.061,30.061,0,0,1,20.64,16.22Z" transform="translate(1.311 3.461)" fill="#4a4e3c"/>
      <path id="Path_1027551" data-name="Path 1027551" d="M26.365,58.305l-.6,2.45a33.062,33.062,0,0,0,15.751,0l-.6-2.45A30.721,30.721,0,0,1,26.365,58.305Z" transform="translate(6.492 15.026)" fill="#4a4e3c"/>
      <path id="Path_1027552" data-name="Path 1027552" d="M61.015,41.764c.018-.435.027-.871.027-1.31A32.569,32.569,0,0,0,47.918,14.2L46.4,16.22A30.064,30.064,0,0,1,58.517,40.454c0,.406-.009.812-.024,1.214Z" transform="translate(11.905 3.461)" fill="#4a4e3c"/>
    </g>
  </g>
</svg>
