<svg xmlns="http://www.w3.org/2000/svg" xmlns:xlink="http://www.w3.org/1999/xlink" width="396" height="212" viewBox="0 0 396 212">
  <defs>
    <clipPath id="clip-path">
      <rect id="Rectangle_461848" data-name="Rectangle 461848" width="252.225" height="209.764" fill="none"/>
    </clipPath>
    <clipPath id="clip-path-2">
      <rect id="Rectangle_461847" data-name="Rectangle 461847" width="252.225" height="209.765" fill="none"/>
    </clipPath>
    <clipPath id="clip-path-3">
      <rect id="Rectangle_461829" data-name="Rectangle 461829" width="43.52" height="21.77" fill="none"/>
    </clipPath>
    <clipPath id="clip-path-4">
      <rect id="Rectangle_461830" data-name="Rectangle 461830" width="47.727" height="23.874" fill="none"/>
    </clipPath>
    <clipPath id="clip-path-5">
      <rect id="Rectangle_461831" data-name="Rectangle 461831" width="43.52" height="21.769" fill="none"/>
    </clipPath>
    <clipPath id="clip-path-7">
      <rect id="Rectangle_461833" data-name="Rectangle 461833" width="55.797" height="27.911" fill="none"/>
    </clipPath>
    <clipPath id="clip-path-8">
      <rect id="Rectangle_461835" data-name="Rectangle 461835" width="7.522" height="5.924" fill="none"/>
    </clipPath>
    <clipPath id="clip-path-10">
      <rect id="Rectangle_461836" data-name="Rectangle 461836" width="4.082" height="1.152" fill="none"/>
    </clipPath>
    <clipPath id="clip-path-11">
      <rect id="Rectangle_461837" data-name="Rectangle 461837" width="3.937" height="1.502" fill="none"/>
    </clipPath>
    <clipPath id="clip-path-12">
      <rect id="Rectangle_461838" data-name="Rectangle 461838" width="3.936" height="1.5" fill="none"/>
    </clipPath>
    <clipPath id="clip-path-13">
      <rect id="Rectangle_461840" data-name="Rectangle 461840" width="6.806" height="6.094" fill="none"/>
    </clipPath>
    <clipPath id="clip-path-15">
      <rect id="Rectangle_461841" data-name="Rectangle 461841" width="7.807" height="4.609" fill="none"/>
    </clipPath>
    <clipPath id="clip-path-16">
      <rect id="Rectangle_461842" data-name="Rectangle 461842" width="2.877" height="1.094" fill="none"/>
    </clipPath>
    <clipPath id="clip-path-17">
      <rect id="Rectangle_461843" data-name="Rectangle 461843" width="2.84" height="1.065" fill="none"/>
    </clipPath>
    <clipPath id="clip-path-18">
      <rect id="Rectangle_461844" data-name="Rectangle 461844" width="2.841" height="1.065" fill="none"/>
    </clipPath>
    <clipPath id="clip-path-19">
      <rect id="Rectangle_461846" data-name="Rectangle 461846" width="5.351" height="3.786" fill="none"/>
    </clipPath>
  </defs>
  <g id="img14" transform="translate(-185 -6074)">
    <rect id="Rectangle_461515" data-name="Rectangle 461515" width="396" height="212" rx="10" transform="translate(185 6074)" fill="#eaeddf"/>
    <g id="Group_1197697" data-name="Group 1197697" transform="translate(257.223 6076.118)">
      <g id="Group_1197696" data-name="Group 1197696" clip-path="url(#clip-path)">
        <g id="Group_1197695" data-name="Group 1197695" transform="translate(0 0)">
          <g id="Group_1197694" data-name="Group 1197694" clip-path="url(#clip-path-2)">
            <path id="Path_1020175" data-name="Path 1020175" d="M251.837,158.058c-2.6,23.934-17.669,43.241-37.709,51.7H36.343C6.707,202.507-2.8,173.19.687,140.928a64.938,64.938,0,0,1,8.488-25.877A61.92,61.92,0,0,1,37.686,89.527q1.373-.6,2.782-1.137A65.3,65.3,0,0,1,35.751,58.4c.048-.688.117-1.376.189-2.068A64.078,64.078,0,0,1,55.625,16.39,60.137,60.137,0,0,1,84.975,1.135,58.449,58.449,0,0,1,103.345.4,60.209,60.209,0,0,1,143.9,23.517a58.526,58.526,0,0,1,29.132-3.986c28.971,3.394,50.9,27.391,53.8,56.373a66.267,66.267,0,0,1-.057,13.761,65.081,65.081,0,0,1-1.524,8.634c18.261,12.779,29.213,35.438,26.58,59.758" transform="translate(0 0.004)" fill="#eae2da"/>
            <g id="Group_1197642" data-name="Group 1197642" transform="translate(23.585 46.986)" opacity="0.5">
              <g id="Group_1197641" data-name="Group 1197641">
                <g id="Group_1197640" data-name="Group 1197640" clip-path="url(#clip-path-3)">
                  <path id="Path_1020176" data-name="Path 1020176" d="M241.2,398.65a4.321,4.321,0,0,0-2.118.148c0-.072.006-.145.006-.218a7.869,7.869,0,0,0-7.973-7.76,8.094,8.094,0,0,0-4.7,1.487,9.529,9.529,0,0,0-18.66,1.058,9,9,0,0,0,.388,3.813,5.733,5.733,0,0,0-1.38-.17,5.511,5.511,0,0,0-5.6,5.38v.426a4.158,4.158,0,0,0,4.213,4.1l35.088.025a4.157,4.157,0,0,0,4.219-4.094,4.259,4.259,0,0,0-3.48-4.2" transform="translate(-201.163 -385.171)" fill="#fff"/>
                </g>
              </g>
            </g>
            <g id="Group_1197645" data-name="Group 1197645" transform="translate(83.006 10.685)" opacity="0.5">
              <g id="Group_1197644" data-name="Group 1197644">
                <g id="Group_1197643" data-name="Group 1197643" clip-path="url(#clip-path-4)">
                  <path id="Path_1020177" data-name="Path 1020177" d="M751.9,102.375a4.737,4.737,0,0,0-2.323.162c0-.079.006-.158.006-.238a8.63,8.63,0,0,0-8.744-8.51,8.877,8.877,0,0,0-5.158,1.631,10.45,10.45,0,0,0-20.464,1.16,9.874,9.874,0,0,0,.426,4.181,6.286,6.286,0,0,0-1.513-.186,6.043,6.043,0,0,0-6.14,5.9v.466a4.56,4.56,0,0,0,4.62,4.5l38.48.028a4.559,4.559,0,0,0,4.626-4.49,4.671,4.671,0,0,0-3.817-4.6" transform="translate(-707.994 -87.593)" fill="#fff"/>
                </g>
              </g>
            </g>
            <g id="Group_1197648" data-name="Group 1197648" transform="translate(166.017 38.182)" opacity="0.5">
              <g id="Group_1197647" data-name="Group 1197647">
                <g id="Group_1197646" data-name="Group 1197646" clip-path="url(#clip-path-5)">
                  <path id="Path_1020178" data-name="Path 1020178" d="M1456.066,326.476a4.32,4.32,0,0,0-2.118.148c0-.073.006-.144.006-.217a7.869,7.869,0,0,0-7.973-7.76,8.1,8.1,0,0,0-4.7,1.487,9.529,9.529,0,0,0-18.66,1.058,9.006,9.006,0,0,0,.388,3.813,5.726,5.726,0,0,0-1.38-.17,5.51,5.51,0,0,0-5.6,5.379v.426a4.158,4.158,0,0,0,4.213,4.1l35.088.025a4.157,4.157,0,0,0,4.219-4.094h0a4.259,4.259,0,0,0-3.48-4.2" transform="translate(-1416.027 -312.997)" fill="#fff"/>
                </g>
              </g>
            </g>
            <g id="Group_1197651" data-name="Group 1197651" transform="translate(203.303 143.173)" opacity="0.5">
              <g id="Group_1197650" data-name="Group 1197650">
                <g id="Group_1197649" data-name="Group 1197649" clip-path="url(#clip-path-5)">
                  <path id="Path_1020179" data-name="Path 1020179" d="M1774.1,1187.15a4.317,4.317,0,0,0-2.118.148c0-.073.006-.145.006-.218a7.869,7.869,0,0,0-7.974-7.76,8.1,8.1,0,0,0-4.7,1.488,9.529,9.529,0,0,0-18.66,1.058,9.006,9.006,0,0,0,.388,3.813,5.723,5.723,0,0,0-1.38-.17,5.51,5.51,0,0,0-5.6,5.379v.426a4.158,4.158,0,0,0,4.213,4.1l35.088.025a4.157,4.157,0,0,0,4.219-4.094h0a4.259,4.259,0,0,0-3.48-4.2" transform="translate(-1734.061 -1173.671)" fill="#fff"/>
                </g>
              </g>
            </g>
            <g id="Group_1197654" data-name="Group 1197654" transform="translate(179.928 107.611)" opacity="0.5">
              <g id="Group_1197653" data-name="Group 1197653">
                <g id="Group_1197652" data-name="Group 1197652" clip-path="url(#clip-path-7)">
                  <path id="Path_1020180" data-name="Path 1020180" d="M1586.012,899.432a5.538,5.538,0,0,0-2.715.189c0-.093.007-.185.007-.279a10.09,10.09,0,0,0-10.223-9.949,10.378,10.378,0,0,0-6.03,1.907,12.217,12.217,0,0,0-23.925,1.357,11.538,11.538,0,0,0,.5,4.888,7.347,7.347,0,0,0-1.769-.217,7.065,7.065,0,0,0-7.179,6.9v.545a5.331,5.331,0,0,0,5.4,5.257l44.987.033a5.33,5.33,0,0,0,5.409-5.249h0a5.461,5.461,0,0,0-4.462-5.379" transform="translate(-1534.677 -882.15)" fill="#fff"/>
                </g>
              </g>
            </g>
            <path id="Path_1020181" data-name="Path 1020181" d="M918.891,225.067A13.588,13.588,0,0,0,905.576,238.8l-.06-.019-.06.019a13.324,13.324,0,1,0-26.632.127,14.189,14.189,0,0,0,2.231,7.677h0c.529.826,24.46,30.495,24.46,30.495s23.931-29.669,24.46-30.495h0a14.189,14.189,0,0,0,2.231-7.677,13.6,13.6,0,0,0-13.318-13.856" transform="translate(-775.79 -197.611)" fill="#b6babf"/>
            <path id="Path_1020182" data-name="Path 1020182" d="M206.206,1052.327s-8.953-2.3-12.393-8.5c-4.735-8.536.613-12.338.613-12.338s-9.094-1.186-11.267-7.709,3.737-8.222,3.737-8.222-9.842-9.582-5.172-16.484,15.7,2.264,15.7,2.264a6.675,6.675,0,0,1,8.846-.5c4.982,3.557,9.127,13.938,9.127,13.938s4.645-6.388,8.519-.626-.295,39.426-.295,39.426Z" transform="translate(-159.309 -874.942)" fill="#7da1bb"/>
            <path id="Path_1020183" data-name="Path 1020183" d="M273.6,1118.056a.371.371,0,0,1-.091-.018c-9.3-3.209-14.388-10.418-16.013-22.687-1.264-9.546-4.776-17.1-17.811-22.915a.412.412,0,0,1-.206-.521.361.361,0,0,1,.487-.212c13.366,5.968,16.97,13.73,18.27,23.548,1.579,11.929,6.5,18.929,15.494,22.031a.409.409,0,0,1,.246.5.368.368,0,0,1-.376.273" transform="translate(-211.381 -940.941)" fill="#5c788d"/>
            <path id="Path_1020184" data-name="Path 1020184" d="M98.1,1307.393s-9.375-1.921-13.144-8.213c-5.188-8.662.251-12.918.251-12.918s-9.488-.753-11.949-7.45,3.626-8.786,3.626-8.786-10.528-9.482-5.89-16.939,16.384,1.528,16.384,1.528a6.977,6.977,0,0,1,9.176-.994c5.289,3.449,9.92,14.069,9.92,14.069s3.772-6.08,8.833-1.108c7.994,7.854,9.195,40.811,9.195,40.811Z" transform="translate(-61.63 -1097.627)" fill="#5c788d"/>
            <path id="Path_1020185" data-name="Path 1020185" d="M168.819,1374.86a.376.376,0,0,1-.1-.015c-9.765-2.855-15.278-10.112-17.35-22.84-1.612-9.9-5.5-17.6-19.225-22.981a.424.424,0,0,1-.23-.533.383.383,0,0,1,.5-.247c14.076,5.52,18.064,13.434,19.722,23.618,2.014,12.373,7.35,19.422,16.79,22.182a.42.42,0,0,1,.272.51.394.394,0,0,1-.383.306" transform="translate(-116.431 -1166.194)" fill="#7da1bb"/>
            <path id="Path_1020186" data-name="Path 1020186" d="M1669.528,1265.141s6.1-1.564,8.44-5.787c3.225-5.814-.417-8.4-.417-8.4s6.194-.807,7.673-5.25-2.545-5.6-2.545-5.6,6.7-6.526,3.523-11.226-10.691,1.542-10.691,1.542a4.546,4.546,0,0,0-6.024-.341c-3.393,2.422-6.216,9.492-6.216,9.492s-3.163-4.351-5.8-.426.2,26.851.2,26.851Z" transform="translate(-1462.154 -1077.429)" fill="#7da1bb"/>
            <path id="Path_1020187" data-name="Path 1020187" d="M1677.746,1309.906a.246.246,0,0,0,.062-.013c6.334-2.185,9.8-7.095,10.906-15.451.861-6.5,3.253-11.643,12.13-15.606a.281.281,0,0,0,.14-.355.246.246,0,0,0-.331-.144c-9.1,4.064-11.557,9.351-12.443,16.037-1.076,8.124-4.429,12.892-10.552,15a.279.279,0,0,0-.168.342.251.251,0,0,0,.256.186" transform="translate(-1480.809 -1122.378)" fill="#5c788d"/>
            <path id="Path_1020188" data-name="Path 1020188" d="M1693.961,1438.854s6.385-1.308,8.952-5.594c3.533-5.9-.171-8.8-.171-8.8s6.462-.513,8.138-5.074a4.345,4.345,0,0,0-2.47-5.983s7.17-6.458,4.012-11.536-11.158,1.041-11.158,1.041a4.751,4.751,0,0,0-6.25-.677c-3.6,2.349-6.756,9.582-6.756,9.582s-2.569-4.141-6.016-.755c-5.444,5.349-6.262,27.795-6.262,27.795Z" transform="translate(-1479.486 -1229.089)" fill="#5c788d"/>
            <path id="Path_1020189" data-name="Path 1020189" d="M1734.854,1484.805a.256.256,0,0,0,.065-.01c6.65-1.944,10.4-6.887,11.816-15.555,1.1-6.743,3.744-11.986,13.093-15.651a.289.289,0,0,0,.157-.363.261.261,0,0,0-.34-.168c-9.586,3.76-12.3,9.149-13.432,16.085-1.372,8.427-5.005,13.227-11.435,15.107a.285.285,0,0,0-.185.347.267.267,0,0,0,.26.208" transform="translate(-1531.219 -1275.788)" fill="#7da1bb"/>
            <path id="Path_1020190" data-name="Path 1020190" d="M643.634,344.43a4.848,4.848,0,1,1-4.844-5.04,4.945,4.945,0,0,1,4.844,5.04" transform="translate(-559.621 -297.988)" fill="#2f282e"/>
            <path id="Path_1020191" data-name="Path 1020191" d="M633.812,268.721a5.5,5.5,0,1,1-5.5-5.719,5.611,5.611,0,0,1,5.5,5.719" transform="translate(-549.8 -230.919)" fill="#2f282e"/>
            <path id="Path_1020192" data-name="Path 1020192" d="M443.9,1277.474a77.366,77.366,0,0,1,11.311-26.071l62.669.59a71.546,71.546,0,0,1,11.241,25.48c3.412,15.246,1.054,31.04,1.054,31.04H442.927s-2.436-15.793.976-31.04" transform="translate(-390.254 -1098.749)" fill="#2f282e"/>
            <path id="Path_1020193" data-name="Path 1020193" d="M463.467,599.144s-10.438-34.67-56.2-33.208-52.391,33.208-52.391,33.208l23.084,18.917-3.011,27.867s10.839,15.246,34.224,15.246a62.135,62.135,0,0,0,38.239-12.949l-4.416-30.164Z" transform="translate(-313.266 -496.86)" fill="#e86849"/>
            <path id="Path_1020194" data-name="Path 1020194" d="M350.516,857.475,329.581,868.2l-18.866-15.46s-20.388,34.915,2.867,45.671c26.406,12.213,47.164-30.925,47.164-30.925Z" transform="translate(-266.987 -748.716)" fill="#eb8b76"/>
            <path id="Path_1020195" data-name="Path 1020195" d="M721.6,421.611v7.211s-.433,8.595-9.033,8.766c-8.029.16-10.477-7.749-10.477-7.749V409.6Z" transform="translate(-619.78 -359.636)" fill="#eb8b76"/>
            <path id="Path_1020196" data-name="Path 1020196" d="M650.763,168.831a4.392,4.392,0,0,1,4.3-4.476,4.138,4.138,0,0,1,1.208.182,3.73,3.73,0,0,1-.106-.868,3.528,3.528,0,0,1,3.456-3.6,3.446,3.446,0,0,1,3.114,2.044,8.872,8.872,0,0,1,8.108-5.479,9.067,9.067,0,0,1,8.882,9.242c0,.055-.007.108-.008.163a7.541,7.541,0,0,1-.35,14.61v0l-.123.017c-.2.036-.411.066-.621.083l-25.019,3.364s-2.846-9.19-2.846-15.289" transform="translate(-574.467 -137.53)" fill="#2f282e"/>
            <path id="Path_1020197" data-name="Path 1020197" d="M684.255,267.965c-.976,9.128,11.916,18.111,11.916,18.111,7.556.874,14.4-.7,13.964-13.966-.446-13.453-1.636-18.693-10.431-19.089-7.6-.342-14.473,5.817-15.449,14.944" transform="translate(-603.986 -222.143)" fill="#eb8b76"/>
            <path id="Path_1020198" data-name="Path 1020198" d="M858.935,342.758c.054,0,2.8-1.661,2.8-1.661l-.326-.249a5.114,5.114,0,0,1-1.622-3.417,5.31,5.31,0,0,1,3.33-5.5.281.281,0,0,0,.161-.355.264.264,0,0,0-.341-.168,6.032,6.032,0,0,0-2.136,9.619l-1.976,1.215a.285.285,0,0,0-.094.381.266.266,0,0,0,.206.135" transform="translate(-758.018 -290.965)" fill="#2f282e"/>
            <path id="Path_1020199" data-name="Path 1020199" d="M807.976,328.06a.31.31,0,0,0,.173-.121.334.334,0,0,0-.065-.454,4.123,4.123,0,0,0-3.608-.492,3.473,3.473,0,0,0-2.356,1.967.329.329,0,0,0,.172.423.308.308,0,0,0,.406-.179,2.853,2.853,0,0,1,1.946-1.585l.092-.026a3.577,3.577,0,0,1,2.975.414.3.3,0,0,0,.264.054" transform="translate(-708.059 -286.929)" fill="#2f282e"/>
            <g id="Group_1197660" data-name="Group 1197660" transform="translate(87.724 48.606)" opacity="0.31">
              <g id="Group_1197659" data-name="Group 1197659">
                <g id="Group_1197658" data-name="Group 1197658" clip-path="url(#clip-path-8)">
                  <g id="Group_1197657" data-name="Group 1197657" opacity="0.6">
                    <g id="Group_1197656" data-name="Group 1197656">
                      <g id="Group_1197655" data-name="Group 1197655" clip-path="url(#clip-path-8)">
                        <path id="Path_1020200" data-name="Path 1020200" d="M748.362,399.9c-.541,1.406.646,3.223,2.651,4.058s4.069.371,4.609-1.036-.646-3.223-2.651-4.058-4.069-.371-4.609,1.036" transform="translate(-748.232 -398.45)" fill="#803b34"/>
                      </g>
                    </g>
                  </g>
                </g>
              </g>
            </g>
            <path id="Path_1020201" data-name="Path 1020201" d="M678.865,307.361s-2.262-2.646-7.147-2.977-6.133,3.542-8.207,2.167c-7.3-4.839.521-18.325.521-18.325-3.658-1.595-15.75,6.085-13.465,7.193l.021.009a5.648,5.648,0,0,0,.372,8.316,4.669,4.669,0,0,0-1.864,3.277,4.61,4.61,0,0,0,3.946,5.136,4.355,4.355,0,0,0,3.617-1.295v.278s1.578,13.776,12.909,14.914,9.3-18.694,9.3-18.694" transform="translate(-572.858 -252.876)" fill="#2f282e"/>
            <path id="Path_1020202" data-name="Path 1020202" d="M804.8,437.864l7.239,3.123a4.061,4.061,0,0,1-3.835,1.707c-2.582-.3-3.4-4.83-3.4-4.83" transform="translate(-710.449 -384.45)" fill="#fff"/>
            <path id="Path_1020203" data-name="Path 1020203" d="M683.612,348.3c.461,2.862,2.155,4.951,3.785,4.667s2.578-2.834,2.117-5.7-2.155-4.951-3.785-4.667-2.578,2.834-2.117,5.7" transform="translate(-603.361 -300.791)" fill="#eb8b76"/>
            <path id="Path_1020204" data-name="Path 1020204" d="M703.176,355.6a1.5,1.5,0,0,1,1.731-.712,3.74,3.74,0,0,0-1.534-2.1.341.341,0,0,1-.088-.463.313.313,0,0,1,.444-.091c1.712,1.195,2.311,3,1.831,5.529a.328.328,0,0,1-.226.256.308.308,0,0,1-.151.007.332.332,0,0,1-.252-.392,6.875,6.875,0,0,0,.11-2.013,1,1,0,0,0-1.287.271.316.316,0,0,1-.427.158.34.34,0,0,1-.152-.444" transform="translate(-620.707 -309.214)" fill="#803b34"/>
            <path id="Path_1020205" data-name="Path 1020205" d="M706.962,240.209s-.705,2.611-4.1,2.4-5.844-3.516-5.844-3.516-1.487,3.83-3.845,4.525-5.049-.905-5.049-.905l-6.524-.452,11.2-9.294,11.177.313Z" transform="translate(-601.688 -204.549)" fill="#2f282e"/>
            <path id="Path_1020206" data-name="Path 1020206" d="M684.542,589.7c-10.648,0-12.693-10.886-12.713-11a.419.419,0,0,1,.323-.488.406.406,0,0,1,.47.336c.075.421,1.951,10.308,11.919,10.308,10.015,0,13.655-11.087,13.691-11.2a.4.4,0,0,1,.509-.267.423.423,0,0,1,.257.53c-.037.118-3.852,11.775-14.457,11.775" transform="translate(-593.057 -506.941)" fill="#2f282e"/>
            <path id="Path_1020207" data-name="Path 1020207" d="M1091.467,832.019a.4.4,0,0,1-.3-.141.431.431,0,0,1,.033-.592l19.27-17.822a.392.392,0,0,1,.57.035.431.431,0,0,1-.034.592l-19.27,17.822a.393.393,0,0,1-.268.106" transform="translate(-963.146 -714.138)" fill="#2f282e"/>
            <path id="Path_1020208" data-name="Path 1020208" d="M400.132,830.627a.391.391,0,0,1-.251-.092l-19.762-16.43a.431.431,0,0,1-.063-.59.392.392,0,0,1,.567-.066l19.762,16.43a.431.431,0,0,1,.063.59.4.4,0,0,1-.315.158" transform="translate(-335.419 -714.139)" fill="#2f282e"/>
            <path id="Path_1020209" data-name="Path 1020209" d="M454.2,983.6a.437.437,0,0,0,.158-.03l7.9-3.063a.475.475,0,0,0,.265-.6.447.447,0,0,0-.581-.276l-7.9,3.063a.476.476,0,0,0-.265.6.453.453,0,0,0,.423.306" transform="translate(-400.546 -860.096)" fill="#803b34"/>
            <path id="Path_1020210" data-name="Path 1020210" d="M810.066,1516.126a.412.412,0,0,1-.4-.419v-15.943a.4.4,0,1,1,.806,0v15.943a.412.412,0,0,1-.4.419" transform="translate(-714.737 -1316.443)" fill="#fff"/>
            <path id="Path_1020211" data-name="Path 1020211" d="M819.511,360.809a.4.4,0,0,1-.381-.282.424.424,0,0,1,.249-.534l1.269-.458-1.366-.976a.43.43,0,0,1-.1-.583.393.393,0,0,1,.561-.108l2.683,1.916-2.779,1a.393.393,0,0,1-.132.023" transform="translate(-723.075 -314.148)" fill="#2f282e"/>
            <path id="Path_1020212" data-name="Path 1020212" d="M879,360.308a.388.388,0,0,1-.105-.014l-3.16-.886,2.377-2.216a.392.392,0,0,1,.569.033.432.432,0,0,1-.031.592L877.385,359l1.724.483a.422.422,0,0,1,.284.515.406.406,0,0,1-.389.31" transform="translate(-773.066 -313.524)" fill="#2f282e"/>
            <path id="Path_1020213" data-name="Path 1020213" d="M814.174,350.725a.015.015,0,0,0,.01,0c1.3.1,2.473-1.182,2.7-2.914h0l2.041.094c.031,1.673.978,3.045,2.23,3.152a.017.017,0,0,0,.014,0,2.189,2.189,0,0,0,1.852-.878,3.773,3.773,0,0,0,.666-1.242,4.451,4.451,0,0,0,.2-1.065,4.608,4.608,0,0,0,0-.643v-.011a4.032,4.032,0,0,0-.157-.893l0-.013a2.839,2.839,0,0,0-.223-.578l0-.006a2.342,2.342,0,0,0-1.833-1.433.016.016,0,0,0-.01,0c-1.337-.1-2.533,1.252-2.714,3.049l-2.025-.093h0c.019-1.733-.941-3.179-2.232-3.288l-.008,0c-1.365-.108-2.589,1.325-2.728,3.187s.86,3.461,2.222,3.577m5.3-3.2c.112-1.556,1.078-2.757,2.147-2.674l.008,0c1.067.088,1.843,1.422,1.731,2.978a3.489,3.489,0,0,1-.744,1.979,1.674,1.674,0,0,1-1.406.693s0,0-.01,0c-1.065-.092-1.841-1.426-1.725-2.98m-6.981-.332c.114-1.56,1.078-2.758,2.151-2.672,0,0,0,0,.01,0,1.065.092,1.841,1.426,1.725,2.98s-1.076,2.753-2.149,2.668a0,0,0,0,1-.006,0c-1.069-.094-1.841-1.426-1.731-2.978" transform="translate(-716.747 -301.996)" fill="#fff"/>
            <path id="Path_1020214" data-name="Path 1020214" d="M1125.081,852.739l-18.593,17.178,3.684,25.166s3.481,4.648,14.908,7.572,0-49.917,0-49.917" transform="translate(-976.762 -748.716)" fill="#eb8b76"/>
            <path id="Path_1020215" data-name="Path 1020215" d="M965.759,480.019a6.03,6.03,0,0,0-8.454-2.207,6.22,6.22,0,0,0-1.665,1.529,13.026,13.026,0,0,0-6.154,1.966,14.331,14.331,0,0,0-4.632,19.214,13.17,13.17,0,0,0,18.466,4.82c4.066-2.534,3.412-11.412,1.795-17.812a6.618,6.618,0,0,0,.645-7.51" transform="translate(-832.387 -418.725)" fill="#2f282e"/>
            <path id="Path_1020216" data-name="Path 1020216" d="M1256.428,529.846a9.965,9.965,0,1,1-9.957-10.36,10.165,10.165,0,0,1,9.957,10.36" transform="translate(-1091.542 -456.115)" fill="#513c2f"/>
            <path id="Path_1020217" data-name="Path 1020217" d="M1500.653,562.576c.034-.153.078-.3.121-.447a12.725,12.725,0,0,1-5.224-.146,13.758,13.758,0,0,1-10.271-14.613s15.986-12.361,16.181-12.315a13.688,13.688,0,0,1,10.31,12.951,11.887,11.887,0,0,1-.135,4.385,11.564,11.564,0,0,1-2.757,5.347,6.692,6.692,0,0,1,4.241,7.8,6.392,6.392,0,0,1-7.656,5,6.663,6.663,0,0,1-4.81-7.966" transform="translate(-1311.101 -469.785)" fill="#513c2f"/>
            <path id="Path_1020218" data-name="Path 1020218" d="M1155.787,614.949s16.487,4.972,22.58,15.663,5.5,25.358,5.5,25.358h-8.721l-3.823,34.06h-51.97l-4.779-59.294s13.739-15.953,25.328-15.787c9.444.135,15.89,0,15.89,0" transform="translate(-983.896 -539.932)" fill="#7da1bb"/>
            <path id="Path_1020219" data-name="Path 1020219" d="M1325.506,502.607V510.5a10.3,10.3,0,0,0,9.924,7.211,14.3,14.3,0,0,0,11.564-5.309l-4.553-2.242-.09-14.171Z" transform="translate(-1170.102 -435.484)" fill="#eb8b76"/>
            <path id="Path_1020220" data-name="Path 1020220" d="M1095.757,1230.443v5.221s11.621,11.2,12.56,26.667a226.175,226.175,0,0,1,0,27.778h-79.344s.423-19.592,4.659-34.681c4.659-16.595,10.155-24.985,10.155-24.985Z" transform="translate(-908.335 -1080.345)" fill="#e86849"/>
            <path id="Path_1020221" data-name="Path 1020221" d="M1265.841,285.086a12.88,12.88,0,0,1-11.066,14.321,12.618,12.618,0,0,1-13.764-11.514,12.88,12.88,0,0,1,11.066-14.321,12.617,12.617,0,0,1,13.764,11.514" transform="translate(-1095.448 -240.131)" fill="#513c2f"/>
            <path id="Path_1020222" data-name="Path 1020222" d="M1355.2,284.053c.889,8.51-5.021,16.159-13.2,17.084s-15.531-5.225-16.419-13.735,5.021-16.159,13.2-17.084,15.531,5.225,16.419,13.735" transform="translate(-1170.093 -237.261)" fill="#513c2f"/>
            <path id="Path_1020223" data-name="Path 1020223" d="M1505.759,430.521c.82,7.856-4.635,14.916-12.185,15.769s-10.521-27.594-2.971-28.447a13.893,13.893,0,0,1,15.156,12.678" transform="translate(-1311.967 -366.796)" fill="#513c2f"/>
            <path id="Path_1020224" data-name="Path 1020224" d="M1329.631,524.609s6.9,8.219,14-2.308c5.041-7.477-14,2.308-14,2.308" transform="translate(-1173.743 -456.115)" fill="#2f282e"/>
            <path id="Path_1020225" data-name="Path 1020225" d="M1290.384,318.929s-2.678,13.485-2.916,17.773.7,10.351,5.888,12.244c12.048,4.394,19.6-14.258,19.6-14.258l-14.814-15.294Z" transform="translate(-1136.494 -280.023)" fill="#eb8b76"/>
            <path id="Path_1020226" data-name="Path 1020226" d="M1308.462,398.313a.249.249,0,0,1-.144-.062l-2.228-1.963.344-.18a4.786,4.786,0,0,0,2.047-2.938,5.125,5.125,0,0,0-2.28-5.715.27.27,0,0,1-.1-.36.249.249,0,0,1,.346-.1,5.668,5.668,0,0,1,2.52,6.321,5.533,5.533,0,0,1-1.992,3.062l1.668,1.469a.272.272,0,0,1,.03.373.249.249,0,0,1-.214.093" transform="translate(-1152.947 -339.757)" fill="#2f282e"/>
            <g id="Group_1197663" data-name="Group 1197663" transform="translate(156.383 64.958)" opacity="0.2">
              <g id="Group_1197662" data-name="Group 1197662">
                <g id="Group_1197661" data-name="Group 1197661" clip-path="url(#clip-path-10)">
                  <path id="Path_1020227" data-name="Path 1020227" d="M1335.558,533.653a3.857,3.857,0,0,1-1.576-.363.226.226,0,0,1-.107-.293.21.21,0,0,1,.281-.111,3.336,3.336,0,0,0,3.443-.339.208.208,0,0,1,.3.044.228.228,0,0,1-.043.31,3.637,3.637,0,0,1-2.3.752" transform="translate(-1333.858 -532.502)" fill="#803b34"/>
                </g>
              </g>
            </g>
            <g id="Group_1197666" data-name="Group 1197666" transform="translate(158.603 50.985)" opacity="0.2">
              <g id="Group_1197665" data-name="Group 1197665">
                <g id="Group_1197664" data-name="Group 1197664" clip-path="url(#clip-path-11)">
                  <path id="Path_1020228" data-name="Path 1020228" d="M1354.21,418.2a3.909,3.909,0,0,0-1.351.875.225.225,0,0,0-.007.309.2.2,0,0,0,.3.007,3.307,3.307,0,0,1,3.309-.859.208.208,0,0,0,.263-.143.22.22,0,0,0-.137-.274,3.549,3.549,0,0,0-2.373.084" transform="translate(-1352.793 -417.954)" fill="#803b34"/>
                </g>
              </g>
            </g>
            <g id="Group_1197669" data-name="Group 1197669" transform="translate(151.154 50.516)" opacity="0.2">
              <g id="Group_1197668" data-name="Group 1197668">
                <g id="Group_1197667" data-name="Group 1197667" clip-path="url(#clip-path-12)">
                  <path id="Path_1020229" data-name="Path 1020229" d="M1290.677,414.36a3.906,3.906,0,0,0-1.351.875.225.225,0,0,0-.007.309.2.2,0,0,0,.3.007,3.308,3.308,0,0,1,3.309-.859.208.208,0,0,0,.263-.143.22.22,0,0,0-.137-.274,3.549,3.549,0,0,0-2.373.084" transform="translate(-1289.261 -414.111)" fill="#803b34"/>
                </g>
              </g>
            </g>
            <path id="Path_1020230" data-name="Path 1020230" d="M1363.77,427.614s-.325,1.005-2.557,1.071a1.64,1.64,0,0,1-.407-1.229c.1-.677.638-1.175,1.184-1.061a2.661,2.661,0,0,1,1.781,1.218" transform="translate(-1201.251 -374.367)" fill="#fff"/>
            <path id="Path_1020231" data-name="Path 1020231" d="M1278.476,279.2a7.018,7.018,0,0,1,2.067-1.863c5.384-3.278,7.624,1.048,10.277-.831s10.233-1.9,14.338,5,3.755,10.122,1.447,16.258a28.419,28.419,0,0,1-1.829,3.925l1.488,3.164,4.86,16.973s-9.209-13.767-12.457-20.393c-2.745-5.6-2.678-6.418-2.543-6.523-.573.062-4.621.3-7.245-4.935-1.924-3.841-2.325-6.118-2.384-7.182h-.061v0c-.176,0-.358.014-.545.029-3.664.3-5.374,4.408-6.042,6.67a13.935,13.935,0,0,0-.36,1.469,21.76,21.76,0,0,1-1.412-3.131c-1-2.814-1.414-6.131.4-8.629" transform="translate(-1127.478 -241.837)" fill="#513c2f"/>
            <path id="Path_1020232" data-name="Path 1020232" d="M1350.513,424.435a.226.226,0,0,1-.135-.074.244.244,0,0,1,.013-.335,3.027,3.027,0,0,1,2.583-.652,2.508,2.508,0,0,1,1.86,1.236.242.242,0,0,1-.093.321.224.224,0,0,1-.309-.1,2.061,2.061,0,0,0-1.533-.992l-.069-.011a2.626,2.626,0,0,0-2.129.544.221.221,0,0,1-.187.061" transform="translate(-1192.004 -371.679)" fill="#2f282e"/>
            <path id="Path_1020233" data-name="Path 1020233" d="M1360.274,425.528c-.109.71-.547,1.227-.978,1.155s-.692-.705-.583-1.415.547-1.227.978-1.155.692.705.583,1.415" transform="translate(-1199.395 -372.37)" fill="#2f282e"/>
            <path id="Path_1020234" data-name="Path 1020234" d="M1300.9,421.845a2.039,2.039,0,0,1-2.332,1.161c-.492-.093-.424-.694-.331-1.3s.573-1.056,1.063-.953a2.39,2.39,0,0,1,1.6,1.094" transform="translate(-1145.972 -369.412)" fill="#fff"/>
            <path id="Path_1020235" data-name="Path 1020235" d="M1289.56,420.666a.2.2,0,0,1-.121-.066.22.22,0,0,1,.011-.3,2.718,2.718,0,0,1,2.32-.586,2.253,2.253,0,0,1,1.67,1.11.217.217,0,0,1-.083.289.2.2,0,0,1-.277-.087,1.85,1.85,0,0,0-1.377-.891l-.062-.01a2.358,2.358,0,0,0-1.912.489.2.2,0,0,1-.168.054" transform="translate(-1138.216 -368.47)" fill="#2f282e"/>
            <path id="Path_1020236" data-name="Path 1020236" d="M1298.327,421.648c-.1.638-.491,1.1-.878,1.038s-.621-.633-.523-1.271.491-1.1.878-1.038.621.633.523,1.271" transform="translate(-1144.853 -369.091)" fill="#2f282e"/>
            <path id="Path_1020237" data-name="Path 1020237" d="M1351.25,393.008a.3.3,0,0,1-.14-.147.315.315,0,0,1,.143-.411,3.919,3.919,0,0,1,3.456.25,3.38,3.38,0,0,1,1.841,2.3.308.308,0,0,1-.237.361.3.3,0,0,1-.347-.247,2.776,2.776,0,0,0-1.528-1.862l-.082-.042a3.4,3.4,0,0,0-2.851-.2.286.286,0,0,1-.256,0" transform="translate(-1192.679 -344.318)" fill="#2f282e"/>
            <path id="Path_1020238" data-name="Path 1020238" d="M1279.391,404.232a2.2,2.2,0,0,0,.847.223c1.413.081,2.671-1.253,3-3.066l1.99.179a4.458,4.458,0,0,0,.634,2.274,2.818,2.818,0,0,0,1.126,1.061,2.2,2.2,0,0,0,.847.224c1.563.089,2.941-1.552,3.072-3.659a4.583,4.583,0,0,0-.626-2.7,2.516,2.516,0,0,0-1.974-1.285c-1.451-.083-2.739,1.325-3.023,3.211l-1.964-.177a4.5,4.5,0,0,0-.633-2.422,2.515,2.515,0,0,0-1.973-1.285,2.544,2.544,0,0,0-2.118,1.051,4.86,4.86,0,0,0-.328,5.306,2.819,2.819,0,0,0,1.126,1.061m7.174-.869a3.685,3.685,0,0,1-.493-2.17h0c.1-1.626,1.078-2.9,2.179-2.835a1.383,1.383,0,0,1,.533.142,1.988,1.988,0,0,1,.787.751,3.685,3.685,0,0,1,.493,2.17c-.1,1.626-1.078,2.9-2.179,2.835a1.713,1.713,0,0,1-1.321-.893m-7.594-.672a3.687,3.687,0,0,1-.493-2.17h0a3.712,3.712,0,0,1,.757-2.1,1.733,1.733,0,0,1,1.422-.737,1.386,1.386,0,0,1,.533.142,1.989,1.989,0,0,1,.787.751,3.687,3.687,0,0,1,.493,2.17c-.1,1.626-1.078,2.9-2.179,2.835a1.713,1.713,0,0,1-1.321-.893" transform="translate(-1127.838 -348.405)" fill="#fff"/>
            <path id="Path_1020239" data-name="Path 1020239" d="M1454.508,450.849c.759,7.271-4.253,14.165-11.241,14.955s-13.307-4.822-14.066-12.094a13.128,13.128,0,0,1,11.279-14.6,12.86,12.86,0,0,1,14.028,11.735" transform="translate(-1261.573 -385.479)" fill="#513c2f"/>
            <path id="Path_1020240" data-name="Path 1020240" d="M1422.422,425.068a4.445,4.445,0,0,0,3.808,4.949,4.352,4.352,0,0,0,4.756-3.962,4.445,4.445,0,0,0-3.808-4.949,4.353,4.353,0,0,0-4.757,3.962" transform="translate(-1255.632 -369.712)" fill="#eb8b76"/>
            <path id="Path_1020241" data-name="Path 1020241" d="M1442.132,434.129a1.532,1.532,0,0,0-1.6-1.011,3.7,3.7,0,0,1,1.864-1.819.341.341,0,0,0,.162-.444.318.318,0,0,0-.426-.168c-1.893.885-2.781,2.574-2.714,5.165a.336.336,0,0,0,.182.294.312.312,0,0,0,.148.033.33.33,0,0,0,.314-.345,6.924,6.924,0,0,1,.218-2.017,1.021,1.021,0,0,1,1.233.495.322.322,0,0,0,.4.232.338.338,0,0,0,.223-.414" transform="translate(-1270.654 -378.122)" fill="#803b34"/>
            <g id="Group_1197675" data-name="Group 1197675" transform="translate(161.204 55.564)" opacity="0.33">
              <g id="Group_1197674" data-name="Group 1197674">
                <g id="Group_1197673" data-name="Group 1197673" clip-path="url(#clip-path-13)">
                  <g id="Group_1197672" data-name="Group 1197672" opacity="0.6">
                    <g id="Group_1197671" data-name="Group 1197671">
                      <g id="Group_1197670" data-name="Group 1197670" clip-path="url(#clip-path-13)">
                        <path id="Path_1020242" data-name="Path 1020242" d="M1381.494,456.408c.761,1.205-.014,3.134-1.732,4.31s-3.728,1.151-4.489-.055.014-3.135,1.732-4.31,3.728-1.151,4.489.055" transform="translate(-1374.98 -455.488)" fill="#803b34"/>
                      </g>
                    </g>
                  </g>
                </g>
              </g>
            </g>
            <g id="Group_1197678" data-name="Group 1197678" transform="translate(154.75 60.322)" opacity="0.5">
              <g id="Group_1197677" data-name="Group 1197677">
                <g id="Group_1197676" data-name="Group 1197676" clip-path="url(#clip-path-15)">
                  <path id="Path_1020243" data-name="Path 1020243" d="M1321.292,494.521c1.333-.21,6.443.846,6.443.846s-2.348,3.644-4.969,3.733c-2.6.089-2.787-2.981-2.787-2.981s-.448-1.321,1.313-1.6" transform="translate(-1319.928 -494.493)" fill="#803b34"/>
                </g>
              </g>
            </g>
            <path id="Path_1020244" data-name="Path 1020244" d="M1320.363,502.407l7.756-.752s-3.468,2.11-5.253,2.124a2.946,2.946,0,0,1-2.5-1.372" transform="translate(-1165.562 -440.459)" fill="#fff"/>
            <path id="Path_1020245" data-name="Path 1020245" d="M1450.482,868.248a.388.388,0,0,1-.163-.036.426.426,0,0,1-.205-.553,22.5,22.5,0,0,0,1.312-9.712.416.416,0,0,1,.356-.463.405.405,0,0,1,.446.37A22.959,22.959,0,0,1,1450.85,868a.4.4,0,0,1-.369.249" transform="translate(-1280.07 -752.878)" fill="#2f282e"/>
            <path id="Path_1020246" data-name="Path 1020246" d="M1311.631,1535.791a.407.407,0,0,1-.393-.328l-4.861-22.623a.42.42,0,0,1,.306-.5.4.4,0,0,1,.482.318l4.861,22.624a.42.42,0,0,1-.306.5.394.394,0,0,1-.088.01" transform="translate(-1153.207 -1327.844)" fill="#2f282e"/>
            <path id="Path_1020247" data-name="Path 1020247" d="M1339.435,1270.642h-32.664a.42.42,0,0,1,0-.839h32.664a.42.42,0,0,1,0,.839" transform="translate(-1153.208 -1114.904)" fill="#2f282e"/>
            <path id="Path_1020248" data-name="Path 1020248" d="M913.97,983.579c-7.049,4.1-20.357.418-20.549-14.3-.2-15.414,10.155-22.126,10.155-22.126l20.788,5.469s16.726-9.323,23.894-1.367,5.3,19.64,5.3,19.64L936.192,991.41l-15.7-2.762.054-5.318Z" transform="translate(-788.673 -831.616)" fill="#faa91a"/>
            <path id="Path_1020249" data-name="Path 1020249" d="M1139.679,951.233h-26.164s-7.347,13.363-15.591,19.329a74.718,74.718,0,0,1-17.741,9.136l-11.469,7.458s4.122,3.356,7.885,3.356,8.96-2.424,8.96-2.424,21.325,3.356,37.1-8.764,17.025-28.093,17.025-28.093" transform="translate(-943.417 -835.195)" fill="#eb8b76"/>
            <path id="Path_1020250" data-name="Path 1020250" d="M1196.83,1291.62c-.715,1.288-3.9.77-7.1-1.157s-5.231-4.535-4.516-5.824,3.9-.77,7.105,1.157,5.23,4.535,4.515,5.824" transform="translate(-1046.127 -1127.308)" fill="#2f282e"/>
            <path id="Path_1020251" data-name="Path 1020251" d="M1131.1,1285.888c-.715,1.289-3.9.771-7.1-1.157s-5.23-4.535-4.515-5.823,3.9-.771,7.1,1.157,5.23,4.535,4.515,5.823" transform="translate(-988.107 -1122.275)" fill="#2f282e"/>
            <path id="Path_1020252" data-name="Path 1020252" d="M1062.259,671.158l-.853,9.672-9.956-1.72.844-8.749Z" transform="translate(-928.177 -588.585)" fill="#eb8b76"/>
            <path id="Path_1020253" data-name="Path 1020253" d="M1010.139,754.469l-7.185,14.667-2.093-3.046a50.478,50.478,0,0,1-9.375-.592c-.823-.143-1.645-.315-2.439-.524a17.885,17.885,0,0,1-2.282-.747c-5.5-2.24-6.689-3.608-6.689-3.608s4.419-7.581,5.254-12.3.359-12.867.359-12.867l3.226-.742a26.219,26.219,0,0,1,7.964,1.9,19.153,19.153,0,0,1,2.447,1.233,15.715,15.715,0,0,1,2.432,1.77c5.08,4.535,8.383,14.856,8.383,14.856" transform="translate(-865.17 -645.08)" fill="#fff"/>
            <path id="Path_1020254" data-name="Path 1020254" d="M1067.959,675.082l-.22,2.492a9.355,9.355,0,0,1-8.62-1.713c-5.131-3.85,8.84-.779,8.84-.779" transform="translate(-933.948 -591.711)" fill="#2f282e"/>
            <path id="Path_1020255" data-name="Path 1020255" d="M1033.506,532.944c-3.535,3.936-8.5,2.72-12.174.9a26.325,26.325,0,0,1-4.921-3.19l4.55-14.918,4.806-2.993s2.313,2.941,4.434,5.815c.024.027.036.049.044.056l0,0c1.3,1.746,2.51,3.463,3.089,4.462,1.527,2.655,2.875,6.853.17,9.863" transform="translate(-897.246 -450.196)" fill="#eb8b76"/>
            <path id="Path_1020256" data-name="Path 1020256" d="M1118.844,562.574a.189.189,0,0,0,.072-.089l.792-2.028-.277,0a3.278,3.278,0,0,1-2.251-1.164,3.745,3.745,0,0,1-.379-4.442.2.2,0,0,0-.054-.264.179.179,0,0,0-.253.056,4.142,4.142,0,0,0,.421,4.912,3.783,3.783,0,0,0,2.255,1.262l-.594,1.518a.194.194,0,0,0,.1.248.177.177,0,0,0,.167-.015" transform="translate(-985.053 -486.911)" fill="#2f282e"/>
            <g id="Group_1197681" data-name="Group 1197681" transform="translate(134.082 81.229)" opacity="0.2">
              <g id="Group_1197680" data-name="Group 1197680">
                <g id="Group_1197679" data-name="Group 1197679" clip-path="url(#clip-path-16)">
                  <path id="Path_1020257" data-name="Path 1020257" d="M1145.482,666.8a2.85,2.85,0,0,0,.988-.638.164.164,0,0,0,.006-.226.149.149,0,0,0-.217-.006,2.418,2.418,0,0,1-2.419.624.152.152,0,0,0-.193.1.161.161,0,0,0,.1.2,2.593,2.593,0,0,0,1.734-.059" transform="translate(-1143.64 -665.883)" fill="#803b34"/>
                </g>
              </g>
            </g>
            <g id="Group_1197684" data-name="Group 1197684" transform="translate(126.978 72.528)" opacity="0.2">
              <g id="Group_1197683" data-name="Group 1197683">
                <g id="Group_1197682" data-name="Group 1197682" clip-path="url(#clip-path-17)">
                  <path id="Path_1020258" data-name="Path 1020258" d="M1084.633,594.579a2.727,2.727,0,0,1,1.144.089.159.159,0,0,1,.1.195.151.151,0,0,1-.187.108,2.384,2.384,0,0,0-2.388.6.147.147,0,0,1-.214,0,.162.162,0,0,1,0-.223,2.614,2.614,0,0,1,1.542-.771" transform="translate(-1083.047 -594.554)" fill="#803b34"/>
                </g>
              </g>
            </g>
            <g id="Group_1197687" data-name="Group 1197687" transform="translate(131.583 69.639)" opacity="0.2">
              <g id="Group_1197686" data-name="Group 1197686">
                <g id="Group_1197685" data-name="Group 1197685" clip-path="url(#clip-path-18)">
                  <path id="Path_1020259" data-name="Path 1020259" d="M1123.92,570.9a2.727,2.727,0,0,1,1.144.089.159.159,0,0,1,.1.195.151.151,0,0,1-.187.108,2.384,2.384,0,0,0-2.389.6.147.147,0,0,1-.214,0,.162.162,0,0,1,0-.223,2.615,2.615,0,0,1,1.542-.771" transform="translate(-1122.333 -570.873)" fill="#803b34"/>
                </g>
              </g>
            </g>
            <path id="Path_1020260" data-name="Path 1020260" d="M1088.475,601.382s.53.529,1.977-.2a1.2,1.2,0,0,0-.135-.926.774.774,0,0,0-1.1-.266,2.018,2.018,0,0,0-.746,1.4" transform="translate(-960.861 -526.675)" fill="#fff"/>
            <path id="Path_1020261" data-name="Path 1020261" d="M1021.94,506.059c.068-.138-.318-.4-.653-.753-1.153-1.212-3.564-3.243-6-2.161-.121.054-.24.113-.354.17l-.043.023a13.927,13.927,0,0,1,.783,5.414c.01,4.258-2.654,5.514-3.041,5.673.12.02.425.517.472,5.046.005.557-.005,1.191-.03,1.874-2.852-1.413-6.019-2.9-6.019-2.9l3.583-15.709,8.686-4.232s3.742,5.258,2.618,7.552" transform="translate(-888.985 -437.695)" fill="#2f282e"/>
            <path id="Path_1020262" data-name="Path 1020262" d="M1088.621,595.824a.174.174,0,0,0-.053-.3,2.18,2.18,0,0,0-1.859.481,1.9,1.9,0,0,0-.791,1.436.164.164,0,1,0,.329,0,1.564,1.564,0,0,1,.66-1.167l.041-.031a1.89,1.89,0,0,1,1.534-.393.159.159,0,0,0,.139-.027" transform="translate(-958.603 -522.825)" fill="#2f282e"/>
            <path id="Path_1020263" data-name="Path 1020263" d="M1095.278,598.739c.3.415.743.594,1,.4s.215-.691-.082-1.106-.743-.594-1-.4-.215.691.082,1.106" transform="translate(-966.646 -524.659)" fill="#2f282e"/>
            <path id="Path_1020264" data-name="Path 1020264" d="M1127.595,576.611a1.44,1.44,0,0,0,1.862-.069c.284-.23.048-.591-.207-.947a.7.7,0,0,0-.985-.239,1.812,1.812,0,0,0-.67,1.255" transform="translate(-995.394 -505.063)" fill="#fff"/>
            <path id="Path_1020265" data-name="Path 1020265" d="M1128.183,572.744a.156.156,0,0,0-.048-.273,1.958,1.958,0,0,0-1.67.432,1.709,1.709,0,0,0-.71,1.289.148.148,0,1,0,.3,0,1.4,1.4,0,0,1,.593-1.048l.036-.028a1.7,1.7,0,0,1,1.378-.353.144.144,0,0,0,.125-.024" transform="translate(-993.77 -502.593)" fill="#2f282e"/>
            <path id="Path_1020266" data-name="Path 1020266" d="M1134.161,575.362c.267.373.667.533.894.357s.193-.62-.074-.993-.667-.533-.894-.357-.193.62.074.993" transform="translate(-1000.993 -504.24)" fill="#2f282e"/>
            <path id="Path_1020267" data-name="Path 1020267" d="M1076.238,574.747a.228.228,0,0,0,.042-.143.218.218,0,0,0-.223-.213,2.91,2.91,0,0,0-2.126,1.361,2.534,2.534,0,0,0-.438,2.107.213.213,0,0,0,.267.148.225.225,0,0,0,.142-.278,2.082,2.082,0,0,1,.378-1.72l.039-.055a2.523,2.523,0,0,1,1.757-1.117.212.212,0,0,0,.163-.09" transform="translate(-947.565 -504.323)" fill="#2f282e"/>
            <path id="Path_1020268" data-name="Path 1020268" d="M935.833,658.556c.146-.093.295-.18.447-.262l.113-.06c.084-.044.166-.091.253-.132a18.043,18.043,0,0,1,7.224-1.582l2.065,5.255c.021.047.037.1.057.145l.153.391-.005,0a7.575,7.575,0,0,1,.421,2.323,7.293,7.293,0,0,1-5.266,7.255,6.645,6.645,0,0,1,.269,1.717,6.528,6.528,0,0,1-1.779,4.647,5.647,5.647,0,0,1,.67,5,3.185,3.185,0,0,1,1.73,2.79,3.125,3.125,0,0,1-2.985,3.249,3.078,3.078,0,0,1-3.035-2.422,5.141,5.141,0,0,1-.559.045,5.37,5.37,0,0,1-5.389-5.359,5.614,5.614,0,0,1,.9-3.19,6.512,6.512,0,0,1-1.882-4.467,6.419,6.419,0,0,1,3.846-6.082,7.559,7.559,0,0,1-.62-2.849,7.407,7.407,0,0,1,3.187-6.294l0-.006c.06-.039.121-.076.182-.113" transform="translate(-820.294 -576.434)" fill="#2f282e"/>
            <path id="Path_1020269" data-name="Path 1020269" d="M1028.209,625.351a3.313,3.313,0,0,1-.843,4.484,3.031,3.031,0,0,1-4.31-.877,3.312,3.312,0,0,1,.843-4.484,3.031,3.031,0,0,1,4.31.877" transform="translate(-902.644 -547.813)" fill="#eb8b76"/>
            <path id="Path_1020270" data-name="Path 1020270" d="M1037.274,636.509a1.157,1.157,0,0,1,.7-1.2,2.543,2.543,0,0,0-1.774-.514.235.235,0,0,1-.246-.227.239.239,0,0,1,.218-.256c1.493-.093,2.6.677,3.392,2.355a.249.249,0,0,1-.022.251.234.234,0,0,1-.084.073.228.228,0,0,1-.311-.111,4.8,4.8,0,0,0-.787-1.212c-.439.139-.68.488-.629.745a.243.243,0,0,1-.18.286.233.233,0,0,1-.275-.187" transform="translate(-914.495 -556.925)" fill="#803b34"/>
            <g id="Group_1197693" data-name="Group 1197693" transform="translate(125.327 76.965)" opacity="0.33">
              <g id="Group_1197692" data-name="Group 1197692">
                <g id="Group_1197691" data-name="Group 1197691" clip-path="url(#clip-path-19)">
                  <g id="Group_1197690" data-name="Group 1197690" opacity="0.6">
                    <g id="Group_1197689" data-name="Group 1197689">
                      <g id="Group_1197688" data-name="Group 1197688" clip-path="url(#clip-path-19)">
                        <path id="Path_1020271" data-name="Path 1020271" d="M1068.976,632.542c-.1,1.034,1.015,2,2.49,2.15s2.75-.561,2.849-1.6-1.015-2-2.49-2.15-2.75.561-2.849,1.6" transform="translate(-1068.97 -630.927)" fill="#803b34"/>
                      </g>
                    </g>
                  </g>
                </g>
              </g>
            </g>
            <path id="Path_1020272" data-name="Path 1020272" d="M1115.233,635.969l-5.195,2.216s2.4,1.174,3.949.378a2.828,2.828,0,0,0,1.246-2.593" transform="translate(-979.896 -558.389)" fill="#fff"/>
            <path id="Path_1020273" data-name="Path 1020273" d="M1066.873,751.552a.409.409,0,0,1-.064.055c-7.975,5.84-7.754,27.11-7.75,27.324a1.619,1.619,0,0,1-.024.277c-.823-.143-1.645-.315-2.439-.524-.008-2.676.194-21.337,7.83-28.365a19.145,19.145,0,0,1,2.447,1.234" transform="translate(-932.719 -658.789)" fill="#faa91a"/>
            <path id="Path_1020274" data-name="Path 1020274" d="M1167.086,1139.592a.4.4,0,0,1-.339-.192.43.43,0,0,1,.12-.58c5.917-3.982,9.162-4.517,9.3-4.538a.408.408,0,0,1,.458.354.418.418,0,0,1-.34.477c-.031,0-3.233.546-8.978,4.412a.39.39,0,0,1-.218.067" transform="translate(-1029.899 -995.912)" fill="#2f282e"/>
            <path id="Path_1020275" data-name="Path 1020275" d="M1189.8,842.81l6.851-7.49,4.749,2.144s-1.641,13.518-7.527,18.18c-5.2,4.119-10.276-.172-10.276-.172Z" transform="translate(-1044.826 -733.422)" fill="#eb8b76"/>
            <path id="Path_1020276" data-name="Path 1020276" d="M1110.618,941.2a.4.4,0,0,1-.343-.2c-1.778-2.974-4.158-5.951-4.868-5.644a.4.4,0,0,1-.527-.226.426.426,0,0,1,.217-.549c1.688-.731,4.915,4.388,5.864,5.976a.429.429,0,0,1-.129.578.39.39,0,0,1-.213.063" transform="translate(-975.315 -820.511)" fill="#2f282e"/>
            <path id="Path_1020277" data-name="Path 1020277" d="M1574.439,652.285c-.921-.6-2.853-.425-4.517.508l2.48,3.632a8.083,8.083,0,0,0-.6,2.679c-.115,1.348.12,2.534.605,2.787a.3.3,0,0,0,.169.027c-1.294,2.653-.239,4.147.681,4.589a.921.921,0,0,0,.556.05,2.882,2.882,0,0,0,.983,2.191c1.028.809,2.552,0,3.544-.764.1,2.232,2.178,2.641,2.993,1.493a30.419,30.419,0,0,0,2.7-4.921c.183-.746-.452-1.644-1.644-1.744a3.516,3.516,0,0,0,.172-.474c.383-1.4-1.062-3.2-2.536-3.421a2.228,2.228,0,0,0,.061-.575,7.425,7.425,0,0,0-1.673-2.954,3.724,3.724,0,0,0-2.238-.486,7.713,7.713,0,0,0-1.739-2.616" transform="translate(-1385.863 -572.408)" fill="#eb8b76"/>
            <path id="Path_1020278" data-name="Path 1020278" d="M1586.656,725.952c-1.409-.329-1.832-2.6-1.85-2.7a.318.318,0,0,1,.244-.371.305.305,0,0,1,.356.253c.1.573.567,2.085,1.465,2.215,1.026.143,4.126-2.765,5.49-5.994a.3.3,0,0,1,.4-.164.322.322,0,0,1,.156.418c-1.346,3.188-4.613,6.581-6.132,6.37-.045-.006-.09-.015-.133-.025" transform="translate(-1398.997 -631.433)" fill="#803b34"/>
            <path id="Path_1020279" data-name="Path 1020279" d="M1603.5,748.973a2.533,2.533,0,0,1-1.866-1.872.319.319,0,0,1,.234-.378.3.3,0,0,1,.363.242,1.909,1.909,0,0,0,1.572,1.42c1.146.179,4.6-2.62,5.849-5.58a.3.3,0,0,1,.4-.164.322.322,0,0,1,.157.418c-1.307,3.094-4.99,6.19-6.5,5.954q-.109-.017-.21-.041" transform="translate(-1413.849 -652.025)" fill="#803b34"/>
            <path id="Path_1020280" data-name="Path 1020280" d="M1588.745,681.3a.311.311,0,0,1-.232-.245.319.319,0,0,1,.237-.376c2.224-.485,3.95-3.311,4.263-4.354a2.565,2.565,0,0,0-.648-2.1.327.327,0,0,1,.013-.449.3.3,0,0,1,.431.012,3.167,3.167,0,0,1,.787,2.725c-.355,1.183-2.217,4.242-4.723,4.788a.294.294,0,0,1-.129,0" transform="translate(-1402.268 -591.51)" fill="#803b34"/>
            <path id="Path_1020281" data-name="Path 1020281" d="M723.951,800.236c-.237-1.016-.926-.794-1.435-.868,1.4-.672,2.29-1.665,2.044-2.35-.154-.431-.732-.639-1.5-.63,1.534-.67,2.541-1.737,2.282-2.46-.158-.441-.759-.65-1.557-.63,0,0,6.94-1.706,6.769-3.441-.417-4.221-15.3,1.769-16.932,1.06-2.617-1.135.861-7.85-1.077-8.7s-8.415,9.026-9.526,11.625a16.251,16.251,0,0,0-1.181,5.3l7.713,7.905s15.018-4.174,14.4-6.813" transform="translate(-619.552 -686.755)" fill="#eb8b76"/>
            <path id="Path_1020282" data-name="Path 1020282" d="M763.806,795.23c-.03-.026-.047-.044-.051-.048a.273.273,0,0,1,0-.374.251.251,0,0,1,.36,0,.872.872,0,0,0,.7.227c.5-.059,1.038-.538,1.557-1.384a.249.249,0,0,1,.352-.081.27.27,0,0,1,.078.366c-.618,1.006-1.272,1.554-1.943,1.627a1.392,1.392,0,0,1-1.057-.336" transform="translate(-674.147 -696.731)" fill="#803b34"/>
            <path id="Path_1020283" data-name="Path 1020283" d="M836.141,923.451a.27.27,0,0,1,.1-.459l4.118-1.091a.253.253,0,0,1,.309.192.266.266,0,0,1-.184.322l-4.118,1.09a.246.246,0,0,1-.227-.054" transform="translate(-738.031 -809.434)" fill="#803b34"/>
            <path id="Path_1020284" data-name="Path 1020284" d="M841.516,898.827a.269.269,0,0,1,.1-.459l4.118-1.091a.253.253,0,0,1,.309.192.266.266,0,0,1-.184.322l-4.118,1.091a.246.246,0,0,1-.227-.055" transform="translate(-742.776 -787.814)" fill="#803b34"/>
            <path id="Path_1020285" data-name="Path 1020285" d="M849.43,873.36a.27.27,0,0,1,.1-.459l4.118-1.091a.253.253,0,0,1,.309.192.266.266,0,0,1-.184.322l-4.118,1.09a.247.247,0,0,1-.227-.054" transform="translate(-749.762 -765.453)" fill="#803b34"/>
            <path id="Path_1020286" data-name="Path 1020286" d="M1284.3,739.553c-.422-.385-.668-.053-.923.083.431-.774.531-1.526.208-1.756-.2-.145-.531-.047-.88.214.494-.819.624-1.643.282-1.886-.208-.148-.547-.043-.905.233,0,0,2.643-3.1,2.029-3.834-1.494-1.788-6.44,5.921-7.406,6.144-1.545.356-2.03-3.873-3.177-3.612s-1.056,6.935-.761,8.494a8.958,8.958,0,0,0,1.1,2.813l5.963,1.032s5.57-6.926,4.474-7.925" transform="translate(-1123.376 -643.002)" fill="#eb8b76"/>
            <path id="Path_1020287" data-name="Path 1020287" d="M1274.538,763.309l-.038,0a.148.148,0,0,1-.114-.172.145.145,0,0,1,.165-.119.484.484,0,0,0,.39-.13,1.5,1.5,0,0,0,.284-1.153.146.146,0,0,1,.136-.155.144.144,0,0,1,.148.141,1.733,1.733,0,0,1-.385,1.392.776.776,0,0,1-.587.2" transform="translate(-1124.973 -668.673)" fill="#803b34"/>
            <path id="Path_1020288" data-name="Path 1020288" d="M1348.512,795.108a.139.139,0,0,1-.08-.035.152.152,0,0,1-.016-.208l1.544-1.874a.138.138,0,0,1,.2-.016.152.152,0,0,1,.015.208l-1.544,1.875a.139.139,0,0,1-.12.051" transform="translate(-1190.296 -696.21)" fill="#803b34"/>
            <path id="Path_1020289" data-name="Path 1020289" d="M1343.055,782.136a.138.138,0,0,1-.08-.035.152.152,0,0,1-.015-.208l1.543-1.874a.138.138,0,0,1,.2-.016.152.152,0,0,1,.015.208l-1.543,1.875a.14.14,0,0,1-.121.051" transform="translate(-1185.479 -684.82)" fill="#803b34"/>
            <path id="Path_1020290" data-name="Path 1020290" d="M1338.489,767.962a.138.138,0,0,1-.08-.035.152.152,0,0,1-.016-.208l1.544-1.874a.138.138,0,0,1,.2-.016.152.152,0,0,1,.016.209l-1.544,1.874a.139.139,0,0,1-.12.051" transform="translate(-1181.449 -672.376)" fill="#803b34"/>
            <path id="Path_1020291" data-name="Path 1020291" d="M1204.1,685.086a4.53,4.53,0,0,0-4.439,4.577l-.02-.006-.02.006a4.442,4.442,0,1,0-8.879.042,4.728,4.728,0,0,0,.744,2.559h0c.176.275,8.155,10.167,8.155,10.167s7.979-9.892,8.155-10.167h0a4.729,4.729,0,0,0,.744-2.559,4.532,4.532,0,0,0-4.44-4.62" transform="translate(-1051.142 -601.514)" fill="#e86849"/>
          </g>
        </g>
      </g>
    </g>
  </g>
</svg>
