<svg xmlns="http://www.w3.org/2000/svg" width="150" height="150" viewBox="0 0 150 150">
  <g id="img17" transform="translate(-383.746 -8400)">
    <circle id="Ellipse_13609" data-name="Ellipse 13609" cx="75" cy="75" r="75" transform="translate(383.746 8400)" fill="#fff"/>
    <g id="Group_1200288" data-name="Group 1200288" transform="translate(413.347 8436.509)">
      <path id="Path_1027573" data-name="Path 1027573" d="M82.667,18.258V7.909a2.01,2.01,0,0,0-1.28-1.864l-6.71-2.586V1.89A1.893,1.893,0,0,0,72.786,0H20.572a1.892,1.892,0,0,0-1.89,1.89V13.055H10.02a1.893,1.893,0,0,0-1.89,1.89V29.362a1.128,1.128,0,0,0,2.255,0V15.311H57.749V74.727H25.095V62.655a2.64,2.64,0,0,0-2.637-2.637H10.386V34.624a1.128,1.128,0,1,0-2.255,0V61.146a1.137,1.137,0,0,0,.33.8L23.17,76.652a1.134,1.134,0,0,0,.8.33H58.114A1.893,1.893,0,0,0,60,75.092V67H72.786a1.893,1.893,0,0,0,1.891-1.89V51.84a1.128,1.128,0,0,0-2.255,0V64.748H60v-49.8a1.893,1.893,0,0,0-1.89-1.89H20.937V2.255H72.422V46.577a1.128,1.128,0,0,0,2.255,0V38.343l6.71-2.586a2.01,2.01,0,0,0,1.28-1.864V23.544a2.01,2.01,0,0,0-1.28-1.864L79.366,20.9l2.022-.779a2.01,2.01,0,0,0,1.28-1.864Zm-59.828,44.4V73.132L11.98,62.273H22.458A.382.382,0,0,1,22.839,62.655ZM80.412,23.721v10l-5.735,2.21V22.708l1.553-.6Zm0-5.64-5.735,2.21V5.876l5.735,2.21Z" fill="#4a4e3c"/>
      <path id="Path_1027574" data-name="Path 1027574" d="M165.649,416.023H143.416a1.128,1.128,0,1,0,0,2.255h22.233a1.128,1.128,0,0,0,0-2.255Z" transform="translate(-113.987 -353.471)" fill="#4a4e3c"/>
      <path id="Path_1027575" data-name="Path 1027575" d="M57.233,304.535h4.826a1.128,1.128,0,1,0,0-2.255H57.233a1.128,1.128,0,1,0,0,2.255Z" transform="translate(-40.762 -256.83)" fill="#4a4e3c"/>
      <path id="Path_1027576" data-name="Path 1027576" d="M142.288,303.408a1.128,1.128,0,0,0,1.128,1.128h22.233a1.128,1.128,0,1,0,0-2.255H143.416A1.128,1.128,0,0,0,142.288,303.408Z" transform="translate(-113.986 -256.83)" fill="#4a4e3c"/>
      <path id="Path_1027577" data-name="Path 1027577" d="M57.233,361.407h4.826a1.128,1.128,0,0,0,0-2.255H57.233a1.128,1.128,0,1,0,0,2.255Z" transform="translate(-40.762 -305.151)" fill="#4a4e3c"/>
      <path id="Path_1027578" data-name="Path 1027578" d="M165.649,359.152H143.416a1.128,1.128,0,1,0,0,2.255h22.233a1.128,1.128,0,0,0,0-2.255Z" transform="translate(-113.987 -305.151)" fill="#4a4e3c"/>
      <path id="Path_1027579" data-name="Path 1027579" d="M68.367,130.155H63.427a1.633,1.633,0,0,0-1.631,1.631v4.061H57.736a1.633,1.633,0,0,0-1.631,1.631v4.939a1.633,1.633,0,0,0,1.631,1.631H61.8v4.061a1.633,1.633,0,0,0,1.631,1.631h4.939A1.633,1.633,0,0,0,70,148.109v-4.061h4.061a1.633,1.633,0,0,0,1.631-1.631v-4.939a1.633,1.633,0,0,0-1.631-1.631H70v-4.061A1.633,1.633,0,0,0,68.367,130.155Zm5.067,7.947v3.69H69.205a1.465,1.465,0,0,0-1.463,1.463v4.228h-3.69v-4.228a1.465,1.465,0,0,0-1.463-1.463H58.36V138.1h4.228a1.465,1.465,0,0,0,1.463-1.463V132.41h3.69v4.229a1.465,1.465,0,0,0,1.463,1.463Z" transform="translate(-40.762 -110.585)" fill="#4a4e3c"/>
      <path id="Path_1027580" data-name="Path 1027580" d="M249.692,139.691a1.585,1.585,0,0,0,1.583-1.583v-6.368a1.585,1.585,0,0,0-1.583-1.583h-6.368a1.585,1.585,0,0,0-1.583,1.583v6.368a1.585,1.585,0,0,0,1.583,1.583Zm-5.7-7.28h5.024v5.024H244Z" transform="translate(-198.485 -110.586)" fill="#4a4e3c"/>
    </g>
  </g>
</svg>
