<svg xmlns="http://www.w3.org/2000/svg" width="128" height="128" viewBox="0 0 128 128">
  <g id="img11_1" transform="translate(-383.746 -8400)">
    <circle id="Ellipse_13609" data-name="Ellipse 13609" cx="64" cy="64" r="64" transform="translate(383.746 8400)" fill="#b9c296"/>
    <g id="Group_1200284" data-name="Group 1200284" transform="translate(415.746 8432.436)">
      <path id="Path_1027526" data-name="Path 1027526" d="M16,2a7,7,0,1,0,7,7,7,7,0,0,0-7-7Zm0,12a5,5,0,1,1,5-5A5,5,0,0,1,16,14Z" fill="#4a4e3c"/>
      <path id="Path_1027527" data-name="Path 1027527" d="M25.37,17.62a7.6,7.6,0,0,0-3-.62H9.66A7.65,7.65,0,0,0,2,24.66V36a4,4,0,0,0,4,4h.15A3.78,3.78,0,0,0,8,39.41V57.55a4.49,4.49,0,0,0,8,2.76,4.485,4.485,0,0,0,8-2.76V39.26a3.89,3.89,0,0,0,2.18.54,4.14,4.14,0,0,0,2.44-.88A3.63,3.63,0,0,0,30,36V24.66a7.669,7.669,0,0,0-4.628-7.039ZM14.11,30.29l1.35-7.35A4.69,4.69,0,0,0,16,23a4.69,4.69,0,0,0,.54-.06l1.34,7.34a1.48,1.48,0,0,1-.07.8L16,34.74l-1.79-3.62a1.54,1.54,0,0,1-.1-.83Zm2.77-9.5A2,2,0,0,1,14,19h4A2,2,0,0,1,16.88,20.79ZM28,36a1.66,1.66,0,0,1-.63,1.37,2.27,2.27,0,0,1-1.28.43,2,2,0,0,1-2.09-2V29a1,1,0,0,0-2,0V57.55a2.37,2.37,0,0,1-.74,1.73A2.44,2.44,0,0,1,19.5,60,2.48,2.48,0,0,1,17,57.55V41a1,1,0,0,0-2,0V57.55A2.48,2.48,0,0,1,12.5,60a2.45,2.45,0,0,1-1.77-.73A2.36,2.36,0,0,1,10,57.55V29a1,1,0,0,0-2,0v6.81A2.13,2.13,0,0,1,6.09,38,2.011,2.011,0,0,1,4,36V24.66a5.64,5.64,0,0,1,3.43-5.2A5.4,5.4,0,0,1,9.66,19H12a4,4,0,0,0,1.57,3.17L12.14,30a3.57,3.57,0,0,0,.25,2l2.71,5.48a1,1,0,0,0,1.8,0l2.73-5.52a3.52,3.52,0,0,0,.22-2L18.43,22.2A4,4,0,0,0,20,19h2.34a5.4,5.4,0,0,1,2.23.46A5.64,5.64,0,0,1,28,24.66Z" fill="#4a4e3c"/>
      <path id="Path_1027528" data-name="Path 1027528" d="M61,2H37a1,1,0,0,0-1,1V19a1,1,0,0,0,1,1H61a1,1,0,0,0,1-1V3A1,1,0,0,0,61,2ZM60,18H38V4H60Z" fill="#4a4e3c"/>
      <path id="Path_1027529" data-name="Path 1027529" d="M61,23H37a1,1,0,0,0-1,1V40a1,1,0,0,0,1,1H61a1,1,0,0,0,1-1V24A1,1,0,0,0,61,23ZM60,39H38V25H60Z" fill="#4a4e3c"/>
      <path id="Path_1027530" data-name="Path 1027530" d="M61,44H37a1,1,0,0,0-1,1V61a1,1,0,0,0,1,1H61a1,1,0,0,0,1-1V45A1,1,0,0,0,61,44ZM60,60H38V46H60Z" fill="#4a4e3c"/>
      <path id="Path_1027531" data-name="Path 1027531" d="M48.29,15.71A1,1,0,0,0,49,16h.21a1,1,0,0,0,.73-.63l3-8a1,1,0,0,0-1.88-.7l-2.45,6.54-1.9-1.9a1,1,0,0,0-1.42,1.42Z" fill="#4a4e3c"/>
      <path id="Path_1027532" data-name="Path 1027532" d="M48.29,36.71A1,1,0,0,0,49,37h.21a1,1,0,0,0,.73-.63l3-8a1,1,0,1,0-1.88-.7l-2.45,6.54-1.9-1.9a1,1,0,0,0-1.42,1.42Z" fill="#4a4e3c"/>
      <path id="Path_1027533" data-name="Path 1027533" d="M48.29,57.71A1,1,0,0,0,49,58h.21a1,1,0,0,0,.73-.63l3-8a1,1,0,1,0-1.88-.7l-2.45,6.54-1.9-1.9a1,1,0,0,0-1.42,1.42Z" fill="#4a4e3c"/>
    </g>
  </g>
</svg>
