<svg xmlns="http://www.w3.org/2000/svg" width="150" height="150" viewBox="0 0 150 150">
  <g id="img3" transform="translate(-383.746 -8400)">
    <circle id="Ellipse_13609" data-name="Ellipse 13609" cx="75" cy="75" r="75" transform="translate(383.746 8400)" fill="#b9c296"/>
    <g id="Page-1" transform="translate(416.747 8433.006)">
      <g id="_039---Positive-Interactions" data-name="039---Positive-Interactions" transform="translate(-0.001 -0.02)">
        <path id="Shape" d="M39.4,26.405,29.195,36.615l-1.81-1.81a1.4,1.4,0,0,0-1.979,1.979l2.8,2.8a1.4,1.4,0,0,0,1.979,0l11.2-11.2A1.4,1.4,0,0,0,39.4,26.405Z" transform="translate(8.604 9.031)" fill="#4a4e3c"/>
        <path id="Shape-2" data-name="Shape" d="M65.4,45.805H65.2a22.258,22.258,0,0,0-25-25v-.195A19.6,19.6,0,1,0,8.4,35.922c.022.024.055.036.078.059a19.571,19.571,0,0,0,5.943,3.22c.028.013.057.021.087.032a19.509,19.509,0,0,0,6.088.973h.195a22.258,22.258,0,0,0,25,25V65.4a19.564,19.564,0,0,0,7.4,15.315c.022.024.055.036.078.059A19.571,19.571,0,0,0,59.221,84c.028.013.057.021.087.032a19.4,19.4,0,0,0,12.179,0c.029-.011.059-.02.087-.032a19.547,19.547,0,0,0,5.941-3.22c.025-.022.057-.035.08-.059A19.58,19.58,0,0,0,65.4,45.805Zm0,22.4a6.965,6.965,0,0,1-6.58-9.363,22.46,22.46,0,0,0,2.892-3.567A6.892,6.892,0,0,1,65.4,54.2a7,7,0,0,1,0,14ZM3.8,20.607a16.8,16.8,0,0,1,33.6,0c0,.262-.008.5-.018.742a22.3,22.3,0,0,0-8.132,4.018,9.572,9.572,0,0,0-2.479-1.351,9.8,9.8,0,1,0-12.335,0,9.815,9.815,0,0,0-6.322,7.79A16.715,16.715,0,0,1,3.8,20.607Zm9.8-4.2a7,7,0,1,1,7,7A7,7,0,0,1,13.6,16.407Zm7,21a16.7,16.7,0,0,1-4.2-.553V33.206a1.4,1.4,0,1,0-2.8,0v2.66a16.8,16.8,0,0,1-2.8-1.635V33.206a7.008,7.008,0,0,1,7-7h5.6a6.892,6.892,0,0,1,3.683,1.063,22.38,22.38,0,0,0-5.74,10.118C21.1,37.4,20.859,37.406,20.6,37.406Zm2.8,5.6A19.6,19.6,0,1,1,43,62.6,19.6,19.6,0,0,1,23.4,43.005ZM48.6,65.4c0-.262.008-.5.018-.742a22.247,22.247,0,0,0,7-3.164,9.782,9.782,0,0,0,3.622,7.313A9.815,9.815,0,0,0,52.909,76.6,16.715,16.715,0,0,1,48.6,65.4ZM61.2,81.643V78a1.4,1.4,0,0,0-2.8,0v2.66a16.8,16.8,0,0,1-2.8-1.635V78a7.008,7.008,0,0,1,7-7h5.6a7.008,7.008,0,0,1,7,7v1.018a16.8,16.8,0,0,1-2.8,1.642V78a1.4,1.4,0,0,0-2.8,0v3.64a16.225,16.225,0,0,1-8.4,0ZM77.883,76.6a9.815,9.815,0,0,0-6.328-7.792A9.8,9.8,0,0,0,65.4,51.4a9.65,9.65,0,0,0-1.709.167,22.343,22.343,0,0,0,.967-2.948c.239-.01.482-.018.742-.018a16.771,16.771,0,0,1,12.487,28Z" transform="translate(-0.999 -0.98)" fill="#4a4e3c"/>
        <path id="Shape-3" data-name="Shape" d="M38.589,2.41a1.4,1.4,0,0,0-1.979,0l-4.2,4.2a1.4,1.4,0,0,0,0,1.979l4.2,4.2a1.4,1.4,0,0,0,1.979-1.979L36.848,9.068A33.637,33.637,0,0,1,68.4,42.6a1.4,1.4,0,0,0,2.8,0A36.442,36.442,0,0,0,36.727,6.251L38.589,4.39a1.4,1.4,0,0,0,0-1.979Z" transform="translate(11.398 -0.571)" fill="#4a4e3c"/>
        <path id="Shape-4" data-name="Shape" d="M4.8,31.4a1.4,1.4,0,0,0-2.8,0A36.442,36.442,0,0,0,36.47,67.746l-1.862,1.862a1.4,1.4,0,1,0,1.979,1.979l4.2-4.2a1.4,1.4,0,0,0,0-1.979l-4.2-4.2a1.4,1.4,0,0,0-1.979,1.979l1.741,1.741A33.637,33.637,0,0,1,4.8,31.4Z" transform="translate(-0.599 10.626)" fill="#4a4e3c"/>
      </g>
    </g>
  </g>
</svg>
