<svg xmlns="http://www.w3.org/2000/svg" width="369" height="200" viewBox="0 0 369 200">
  <g id="img6" transform="translate(-705 -1894)">
    <rect id="Rectangle_462131" data-name="Rectangle 462131" width="369" height="200" rx="20" transform="translate(705 1894)" fill="#b9c296"/>
    <g id="_8466199_3884865" data-name="8466199_3884865" transform="translate(764.452 1882.806)">
      <g id="OBJECTS" transform="translate(24.548 22.19)">
        <g id="Group_1199043" data-name="Group 1199043" transform="translate(0)">
          <g id="Group_1199028" data-name="Group 1199028">
            <path id="Path_1025278" data-name="Path 1025278" d="M209.14,216.591a49.215,49.215,0,0,1-13.07,8.969H41.249a49.681,49.681,0,0,1-14.86-8.137,40.316,40.316,0,0,1-4.134-3.867,43.59,43.59,0,0,1-11.306-24.65c-2.418-21.258,3.476-35.709,10.762-54.539,9.132-23.6,17.258-51.185,34.682-70.886,17.509-19.8,48.106-23.768,74.64-17.691a74.489,74.489,0,0,1,35.514,18.961c12.814,12.505,23.023,27.827,34.117,41.825,11.961,15.09,23.289,32.288,25.931,51.727,2.8,20.593-1.733,42.9-16.993,57.84Z" transform="translate(-10.398 -43.177)" fill="#71a0ff"/>
            <path id="Path_1025279" data-name="Path 1025279" d="M446.389,248.581c.335,1.749,1.481,3.183,2.451,4.659a26.339,26.339,0,0,1,3.973,10.229c.175,1.075.36,2.288,1.293,2.872a2.75,2.75,0,0,0,2.964-.335,4.882,4.882,0,0,0,1.657-2.623c.68-2.406.123-4.871-.547-7.18a43.805,43.805,0,0,0-3.2-8.258c-1.007-1.909-2.893-4.431-5.569-4.205C447.068,243.937,446.027,246.693,446.389,248.581Z" transform="translate(-248.94 -152.92)" fill="#88b6ff"/>
            <g id="Group_1199027" data-name="Group 1199027" transform="translate(49.287 8.943)">
              <path id="Path_1025280" data-name="Path 1025280" d="M119.738,86.528c-.546,1.636-.877,3.611.371,4.888a4.334,4.334,0,0,0,4.142.819,11.5,11.5,0,0,0,3.785-2.122c4.565-3.43,8.949-7.154,14.171-9.691,4.406-2.14,9.386-3.426,13.2-6.359a7.1,7.1,0,0,0,2.379-2.788c1.007-2.477-.724-5.382-3.3-6.591C140.51,58.127,123.208,76.132,119.738,86.528Z" transform="translate(-119.251 -63.122)" fill="#88b6ff"/>
              <path id="Path_1025281" data-name="Path 1025281" d="M216.723,68.3a3.851,3.851,0,0,0,3.167.226c3.022-1.223,1.857-5.272-1.179-5.581C215.368,62.607,213.719,66.706,216.723,68.3Z" transform="translate(-171.728 -62.928)" fill="#88b6ff"/>
            </g>
          </g>
          <g id="Group_1199041" data-name="Group 1199041" transform="translate(12.047 57.567)">
            <g id="Group_1199034" data-name="Group 1199034" transform="translate(158.847 2.964)">
              <path id="Path_1025282" data-name="Path 1025282" d="M424.263,233.037c2.184-2.276,4.446-4.608,7.333-5.879,1.214-.534,2.906-.734,3.627.38a2.159,2.159,0,0,1-.109,2.242,5.911,5.911,0,0,1-1.7,1.622c-5.776,4.131-11.89,7.435-17.216,12.181-.38-1.4,2.388-4.205,3.256-5.263C420.963,236.478,422.614,234.756,424.263,233.037Z" transform="translate(-403.332 -204.15)" fill="#ffb149"/>
              <g id="Group_1199033" data-name="Group 1199033">
                <path id="Path_1025283" data-name="Path 1025283" d="M438.482,180.355a9.057,9.057,0,0,1,3.817-3.349,1.333,1.333,0,0,1,1.152-.019c.632.391.371,1.356.031,2.017q-2.713,5.273-5.912,10.276-1.579,2.469-3.272,4.865c-.587.831-2.4,4.151-3.376,4.032C431.145,192.055,434.917,185.151,438.482,180.355Z" transform="translate(-411.409 -176.862)" fill="#ffb149"/>
                <path id="Path_1025284" data-name="Path 1025284" d="M419.609,298.154a2.524,2.524,0,0,1,2.214.13,1.77,1.77,0,0,1,.136,2.337,4.9,4.9,0,0,1-2.092,1.458,66.481,66.481,0,0,1-14.044,4.564c-.613.126-2.316.847-2.379-.1-.045-.689,1.958-1.561,2.46-1.878,2.008-1.265,4.052-2.479,6.171-3.55A39.4,39.4,0,0,1,419.609,298.154Z" transform="translate(-396.372 -243.132)" fill="#ffb149"/>
                <path id="Path_1025285" data-name="Path 1025285" d="M398.705,268.456s4.889-37.182,18.594-61.372" transform="translate(-393.78 -193.4)" fill="none" stroke="#0f0f3a" stroke-linecap="round" stroke-linejoin="round" stroke-miterlimit="10" stroke-width="0.75"/>
                <g id="Group_1199029" data-name="Group 1199029" transform="translate(10.668 12.876)">
                  <path id="Path_1025286" data-name="Path 1025286" d="M412.039,208.424c.2-1.293.675-2.835,1.951-3.124a4.771,4.771,0,0,1,.48,2.83q-.226,6.03-.453,12.06-.111,2.944-.221,5.887c-.046,1.223.389,4.713-.42,5.547-1.5-3.349-1.7-7.939-1.9-11.57a56.454,56.454,0,0,1-.015-5.9C411.551,212.284,412.091,210.279,412.039,208.424Z" transform="translate(-411.388 -205.3)" fill="#ffb149"/>
                  <path id="Path_1025287" data-name="Path 1025287" d="M414.788,216.394s-.344,15.877.794,20.415c0,0,10.5-10.471,14.587-13.274" transform="translate(-413.222 -211.371)" fill="none" stroke="#0f0f3a" stroke-linecap="round" stroke-linejoin="round" stroke-miterlimit="10" stroke-width="0.75"/>
                </g>
                <g id="Group_1199030" data-name="Group 1199030" transform="translate(2.69 24.88)">
                  <path id="Path_1025288" data-name="Path 1025288" d="M393.768,233.513c-.017-.7.17-1.633.871-1.7.666-.062,1.038.735,1.206,1.382q1.549,5.974,2.731,12.035c.755,3.877,1.844,8.07,1.929,12.022-1.659.328-4.469-9.581-4.88-11.086A52.8,52.8,0,0,1,393.768,233.513Z" transform="translate(-393.767 -231.81)" fill="#ffb149"/>
                  <path id="Path_1025289" data-name="Path 1025289" d="M397.453,239.822s3.93,14.69,5.068,21.815" transform="translate(-395.784 -236.194)" fill="none" stroke="#0f0f3a" stroke-linecap="round" stroke-linejoin="round" stroke-miterlimit="10" stroke-width="0.75"/>
                </g>
                <g id="Group_1199031" data-name="Group 1199031" transform="translate(9.76 41.716)">
                  <path id="Path_1025290" data-name="Path 1025290" d="M425.55,269.183a2.524,2.524,0,0,1,2.214.13,1.77,1.77,0,0,1,.136,2.337,4.9,4.9,0,0,1-2.092,1.458,66.5,66.5,0,0,1-14.044,4.564c-.613.126-2.316.847-2.378-.1-.045-.689,1.958-1.561,2.46-1.878,2.008-1.265,4.052-2.479,6.171-3.55A39.383,39.383,0,0,1,425.55,269.183Z" transform="translate(-409.383 -268.994)" fill="#ffb149"/>
                  <path id="Path_1025291" data-name="Path 1025291" d="M409.384,279.595s11.23-6.009,15.369-6.9" transform="translate(-409.384 -271.022)" fill="none" stroke="#0f0f3a" stroke-linecap="round" stroke-linejoin="round" stroke-miterlimit="10" stroke-width="0.75"/>
                </g>
                <g id="Group_1199032" data-name="Group 1199032" transform="translate(0 37.997)">
                  <path id="Path_1025292" data-name="Path 1025292" d="M387.828,262.483c-.017-.7.169-1.633.871-1.7.666-.063,1.038.735,1.206,1.382q1.549,5.974,2.731,12.035c.755,3.877,1.844,8.07,1.929,12.022-1.659.328-4.468-9.581-4.88-11.086A52.763,52.763,0,0,1,387.828,262.483Z" transform="translate(-387.827 -260.78)" fill="#ffb149"/>
                  <path id="Path_1025293" data-name="Path 1025293" d="M390.864,266.014s4.93,18.177,5.362,23.073" transform="translate(-389.489 -263.644)" fill="none" stroke="#0f0f3a" stroke-linecap="round" stroke-linejoin="round" stroke-miterlimit="10" stroke-width="0.75"/>
                </g>
                <path id="Path_1025294" data-name="Path 1025294" d="M403.443,308.369s9.35-5.815,15.217-7.058" transform="translate(-396.372 -244.963)" fill="none" stroke="#0f0f3a" stroke-linecap="round" stroke-linejoin="round" stroke-miterlimit="10" stroke-width="0.75"/>
              </g>
            </g>
            <g id="Group_1199040" data-name="Group 1199040">
              <path id="Path_1025295" data-name="Path 1025295" d="M48.144,226.719c-2.14-2.318-4.357-4.693-7.219-6.019-1.2-.558-2.892-.79-3.634.31a2.158,2.158,0,0,0,.066,2.243,5.919,5.919,0,0,0,1.67,1.654c5.7,4.241,11.745,7.662,16.979,12.51.407-1.391-2.307-4.25-3.154-5.324C51.377,230.221,49.759,228.468,48.144,226.719Z" transform="translate(-37.005 -197.631)" fill="#ffb149"/>
              <g id="Group_1199039" data-name="Group 1199039" transform="translate(0.183)">
                <path id="Path_1025296" data-name="Path 1025296" d="M42.712,173.9a9.058,9.058,0,0,0-3.751-3.422,1.333,1.333,0,0,0-1.151-.041c-.639.379-.4,1.349-.069,2.016q2.611,5.324,5.713,10.387,1.532,2.5,3.178,4.926c.571.842,2.318,4.2,3.3,4.1C49.822,185.734,46.184,178.759,42.712,173.9Z" transform="translate(-37.41 -170.316)" fill="#ffb149"/>
                <path id="Path_1025297" data-name="Path 1025297" d="M52.084,291.912a2.525,2.525,0,0,0-2.216.087,1.77,1.77,0,0,0-.181,2.334,4.9,4.9,0,0,0,2.064,1.5,66.513,66.513,0,0,0,13.954,4.833c.61.138,2.3.891,2.38-.058.059-.687-1.928-1.6-2.424-1.924-1.984-1.3-4-2.556-6.1-3.668A39.354,39.354,0,0,0,52.084,291.912Z" transform="translate(-43.937 -236.74)" fill="#ffb149"/>
                <path id="Path_1025298" data-name="Path 1025298" d="M73.946,262.592s-4.173-37.269-17.41-61.718" transform="translate(-47.876 -187.038)" fill="none" stroke="#0f0f3a" stroke-linecap="round" stroke-linejoin="round" stroke-miterlimit="10" stroke-width="0.75"/>
                <g id="Group_1199035" data-name="Group 1199035" transform="translate(4.346 13.226)">
                  <path id="Path_1025299" data-name="Path 1025299" d="M80.44,202.687c-.174-1.3-.62-2.848-1.89-3.161a4.771,4.771,0,0,0-.534,2.82q.111,6.034.221,12.067.054,2.945.108,5.89c.022,1.224-.479,4.705.313,5.554,1.562-3.32,1.856-7.9,2.125-11.531a56.57,56.57,0,0,0,.129-5.9C80.854,206.555,80.352,204.541,80.44,202.687Z" transform="translate(-63.973 -199.526)" fill="#ffb149"/>
                  <path id="Path_1025300" data-name="Path 1025300" d="M62.524,210.662s.038,15.881-1.186,20.4c0,0-10.292-10.671-14.329-13.551" transform="translate(-47.008 -205.62)" fill="none" stroke="#0f0f3a" stroke-linecap="round" stroke-linejoin="round" stroke-miterlimit="10" stroke-width="0.75"/>
                </g>
                <g id="Group_1199036" data-name="Group 1199036" transform="translate(22.045 25.412)">
                  <path id="Path_1025301" data-name="Path 1025301" d="M93.289,228.162c.03-.7-.138-1.636-.838-1.716-.664-.076-1.052.715-1.232,1.359q-1.664,5.943-2.961,11.981c-.83,3.862-2,8.033-2.16,11.982,1.653.359,4.652-9.493,5.092-10.99A52.807,52.807,0,0,0,93.289,228.162Z" transform="translate(-86.098 -226.441)" fill="#ffb149"/>
                  <path id="Path_1025302" data-name="Path 1025302" d="M91.584,234.42s-4.212,14.612-5.487,21.714" transform="translate(-86.097 -230.807)" fill="none" stroke="#0f0f3a" stroke-linecap="round" stroke-linejoin="round" stroke-miterlimit="10" stroke-width="0.75"/>
                </g>
                <g id="Group_1199037" data-name="Group 1199037" transform="translate(2.964 41.794)">
                  <path id="Path_1025303" data-name="Path 1025303" d="M46.7,262.832a2.525,2.525,0,0,0-2.216.087,1.77,1.77,0,0,0-.181,2.334,4.9,4.9,0,0,0,2.064,1.5,66.514,66.514,0,0,0,13.954,4.833c.61.138,2.3.891,2.38-.058.059-.687-1.928-1.6-2.424-1.924-1.984-1.3-4-2.556-6.1-3.668A39.356,39.356,0,0,0,46.7,262.832Z" transform="translate(-43.955 -262.621)" fill="#ffb149"/>
                  <path id="Path_1025304" data-name="Path 1025304" d="M66.951,273.6s-11.113-6.224-15.233-7.19" transform="translate(-48.203 -264.694)" fill="none" stroke="#0f0f3a" stroke-linecap="round" stroke-linejoin="round" stroke-miterlimit="10" stroke-width="0.75"/>
                </g>
                <g id="Group_1199038" data-name="Group 1199038" transform="translate(24.482 38.579)">
                  <path id="Path_1025305" data-name="Path 1025305" d="M98.672,257.241c.03-.7-.138-1.636-.838-1.716-.664-.076-1.052.715-1.232,1.359q-1.664,5.943-2.961,11.98c-.83,3.862-2,8.033-2.16,11.983,1.653.359,4.652-9.493,5.092-10.99A52.818,52.818,0,0,0,98.672,257.241Z" transform="translate(-91.481 -255.52)" fill="#ffb149"/>
                  <path id="Path_1025306" data-name="Path 1025306" d="M97.285,260.734s-5.279,18.078-5.8,22.966" transform="translate(-91.48 -258.373)" fill="none" stroke="#0f0f3a" stroke-linecap="round" stroke-linejoin="round" stroke-miterlimit="10" stroke-width="0.75"/>
                </g>
                <path id="Path_1025307" data-name="Path 1025307" d="M72.522,302.487s-9.236-5.993-15.079-7.35" transform="translate(-48.372 -238.62)" fill="none" stroke="#0f0f3a" stroke-linecap="round" stroke-linejoin="round" stroke-miterlimit="10" stroke-width="0.75"/>
              </g>
            </g>
          </g>
          <g id="Group_1199042" data-name="Group 1199042" transform="translate(13.932 20.086)">
            <path id="Path_1025308" data-name="Path 1025308" d="M212.348,120.66c-5.657-3.595-10.149-6.358-15.915-9.825L157.984,87.963a3.025,3.025,0,0,0-3.047-.027l-80.385,45.93H84.09V249.834l136.825-.329V133.866h10.835C225.374,129.334,218.951,124.856,212.348,120.66Z" transform="translate(-59.436 -87.538)" fill="#6692ff" stroke="#fff" stroke-linecap="round" stroke-linejoin="round" stroke-miterlimit="10" stroke-width="3"/>
            <line id="Line_3561" data-name="Line 3561" x2="189.113" transform="translate(0 162.296)" fill="#6692ff" stroke="#fff" stroke-linecap="round" stroke-linejoin="round" stroke-miterlimit="10" stroke-width="3"/>
          </g>
        </g>
        <g id="Group_1199145" data-name="Group 1199145" transform="translate(42.19 52.733)">
          <ellipse id="Ellipse_16240" data-name="Ellipse 16240" cx="65.086" cy="7.618" rx="65.086" ry="7.618" transform="translate(0 100.345)" fill="#547de2"/>
          <g id="Group_1199144" data-name="Group 1199144" transform="translate(3.134 0)">
            <g id="Group_1199066" data-name="Group 1199066">
              <g id="Group_1199060" data-name="Group 1199060" transform="translate(6.013)">
                <path id="Path_1025309" data-name="Path 1025309" d="M242.818,284.154l21.126,15.372,6.43-7.871-20.027-16.891Z" transform="translate(-188.919 -222.637)" fill="#f2a6a0"/>
                <g id="Group_1199047" data-name="Group 1199047" transform="translate(0 33.711)">
                  <path id="Path_1025310" data-name="Path 1025310" d="M172.548,239.159s-5.1-5.423-15.263-5.047-11.2.957-11.2.957-7.106.908-14.418,9.634c-.02.017-7.269,5.926-7.892,25.464l12.372-.457,3.246,18.114h29.662l1.938-27,.014-.225,1.86.913,3.675,1.8,9.791-12.213Z" transform="translate(-123.779 -234.093)" fill="#00ccbe"/>
                  <path id="Path_1025311" data-name="Path 1025311" d="M229.677,285.733l-1.86-.913-.014.225c0-.058,0-.117,0-.176-.01-1.02-.752-6.14.625-6.5.874-.234,1.357,5.369,1.357,6.214A2.939,2.939,0,0,1,229.677,285.733Z" transform="translate(-180.586 -258.317)" fill="#02baa8"/>
                  <path id="Path_1025312" data-name="Path 1025312" d="M163.421,288.021c-.074,1.383-.293,2.759-.285,4.144.012,2.176.58,4.364.211,6.508-.058.339-.2.738-.542.8q-1.049-3.966-1.726-8.019l1.225-.192c-.235,0-1.208-15.463-1.386-16.882C162.15,278.884,163.675,283.275,163.421,288.021Z" transform="translate(-144.101 -256.14)" fill="#02baa8"/>
                  <g id="Group_1199045" data-name="Group 1199045" transform="translate(0.127 0.019)">
                    <path id="Path_1025313" data-name="Path 1025313" d="M167.578,235.7s3.016,10.769,10.659,9.024,5.022-10.59,5.022-10.59" transform="translate(-147.873 -234.135)" fill="none" stroke="#0f0f3a" stroke-linecap="round" stroke-linejoin="round" stroke-miterlimit="10" stroke-width="0.539"/>
                    <g id="Group_1199044" data-name="Group 1199044" transform="translate(0 9.625)">
                      <path id="Path_1025314" data-name="Path 1025314" d="M143.059,255.392s5.525,1.17,8.1,8.771" transform="translate(-134.456 -255.392)" fill="none" stroke="#0f0f3a" stroke-linecap="round" stroke-linejoin="round" stroke-miterlimit="10" stroke-width="0.539"/>
                      <line id="Line_3562" data-name="Line 3562" y1="0.916" x2="17.787" transform="translate(0 22.895)" fill="none" stroke="#0f0f3a" stroke-linecap="round" stroke-linejoin="round" stroke-miterlimit="10" stroke-width="0.539"/>
                      <path id="Path_1025315" data-name="Path 1025315" d="M155.259,266.147l1.593,20.687-5.745.416" transform="translate(-138.86 -261.277)" fill="none" stroke="#0f0f3a" stroke-linecap="round" stroke-linejoin="round" stroke-miterlimit="10" stroke-width="0.539"/>
                    </g>
                  </g>
                  <g id="Group_1199046" data-name="Group 1199046" transform="translate(46.971 15.321)">
                    <line id="Line_3563" data-name="Line 3563" x2="0.154" y2="9.476" transform="translate(0 3.094)" fill="none" stroke="#0f0f3a" stroke-linecap="round" stroke-linejoin="round" stroke-miterlimit="10" stroke-width="0.539"/>
                    <line id="Line_3564" data-name="Line 3564" y1="12.917" x2="9.848" transform="translate(3.795)" fill="none" stroke="#0f0f3a" stroke-linecap="round" stroke-linejoin="round" stroke-miterlimit="10" stroke-width="0.539"/>
                    <line id="Line_3565" data-name="Line 3565" y1="5.483" x2="1.394" transform="translate(0.075 4.261)" fill="none" stroke="#0f0f3a" stroke-linecap="round" stroke-linejoin="round" stroke-miterlimit="10" stroke-width="0.539"/>
                  </g>
                </g>
                <g id="Group_1199059" data-name="Group 1199059" transform="translate(11.506)">
                  <g id="Group_1199048" data-name="Group 1199048" transform="translate(10.097 27.237)">
                    <path id="Path_1025316" data-name="Path 1025316" d="M179.768,235.833c-6.082,1-7.629-7.81-7.629-7.81a25.736,25.736,0,0,0-.171-5.94v-.005a16.738,16.738,0,0,0-.478-2.284l10.387,1.547.815.122c0,.176,0,.342.01.508a14.445,14.445,0,0,0,.693,4.315,5.252,5.252,0,0,0,.532,1.127,3.167,3.167,0,0,1,.5,1.45C184.6,230.84,184.4,235.076,179.768,235.833Z" transform="translate(-171.49 -219.794)" fill="#f2a6a0"/>
                    <path id="Path_1025317" data-name="Path 1025317" d="M183.395,226.286a1.367,1.367,0,0,1-.278.225,2.32,2.32,0,0,1-1.206.254,11.456,11.456,0,0,1-4.212-.952,15.56,15.56,0,0,1-5.73-3.729v-.005a16.738,16.738,0,0,0-.478-2.284l10.387,1.547a4.9,4.9,0,0,1,.825.63A14.433,14.433,0,0,0,183.395,226.286Z" transform="translate(-171.49 -219.794)" fill="#ff5776"/>
                  </g>
                  <g id="Group_1199058" data-name="Group 1199058">
                    <path id="Path_1025318" data-name="Path 1025318" d="M157.54,214.05s2.079,2.973,4.2,2.4l-.873-3.148Z" transform="translate(-153.759 -189.004)" fill="#000061"/>
                    <g id="Group_1199049" data-name="Group 1199049" transform="translate(5.02 2.563)">
                      <path id="Path_1025319" data-name="Path 1025319" d="M182.211,181.571a33.647,33.647,0,0,1-.664,7.268c-.044.205-.088.415-.137.615a7.218,7.218,0,0,1-1.8,3.6c-1.3,1.269-3.153,1.425-4.876,1.518a10.577,10.577,0,0,1-2.441-.049h0l-.029-.039s-7.229-.361-9.992-5.8a0,0,0,0,1,0,0c-.654-2.631-1.328-5.4-1.865-8.024,0,0-1.86-14.033,8.7-15.258,3.587-.42,7.244.449,9.689,3.363a12.441,12.441,0,0,1,2.284,4.31c.151.469.278.947.39,1.43.1.449.19.9.268,1.362.073.41.132.825.181,1.24.029.215.054.43.078.639.039.361.068.722.1,1.084.034.42.058.839.078,1.264.01.2.019.4.019.6C182.211,180.98,182.211,181.278,182.211,181.571Z" transform="translate(-160.276 -165.3)" fill="#f2a6a0"/>
                    </g>
                    <g id="Group_1199054" data-name="Group 1199054" transform="translate(9.087 11.396)">
                      <g id="Group_1199053" data-name="Group 1199053">
                        <g id="Group_1199052" data-name="Group 1199052" transform="translate(6.215 3.012)">
                          <path id="Path_1025320" data-name="Path 1025320" d="M197.766,191.46s-1.544,4.409-.239,7.064c0,0,.969,1.918-1.694,2.641" transform="translate(-190.016 -191.46)" fill="none" stroke="#0f0f3a" stroke-linecap="round" stroke-linejoin="round" stroke-miterlimit="10" stroke-width="0.631"/>
                          <g id="Group_1199051" data-name="Group 1199051" transform="translate(0 2.327)">
                            <g id="Group_1199050" data-name="Group 1199050">
                              <path id="Path_1025321" data-name="Path 1025321" d="M203.6,197.231a.7.7,0,1,1-.78-.625A.706.706,0,0,1,203.6,197.231Z" transform="translate(-193.506 -196.6)" fill="#0f0f3a"/>
                              <path id="Path_1025322" data-name="Path 1025322" d="M184.553,198.278a.822.822,0,0,1-.524,1.03.8.8,0,0,1-1.006-.548.823.823,0,0,1,.525-1.03A.8.8,0,0,1,184.553,198.278Z" transform="translate(-182.986 -197.198)" fill="#0f0f3a"/>
                            </g>
                          </g>
                        </g>
                        <path id="Path_1025323" data-name="Path 1025323" d="M170.281,188.458c-.45.1-.846.1-.98-.182a.594.594,0,0,1-.032-.336c.251-1.79,2.9-2.894,4.454-3.091a4.684,4.684,0,0,1,3.992,1.317.528.528,0,0,1,.179.347c-.006.309-.754.341-.96.378a44.433,44.433,0,0,0-5.044,1.008A15.4,15.4,0,0,1,170.281,188.458Z" transform="translate(-169.259 -184.808)" fill="#0f0f3a"/>
                      </g>
                    </g>
                    <path id="Path_1025324" data-name="Path 1025324" d="M154.389,196.892s-1.294-3.425-3.869-2.055-1.735,11.92,5.405,8.722l-.421-3.613Z" transform="translate(-149.19 -178.723)" fill="#f2a6a0"/>
                    <path id="Path_1025325" data-name="Path 1025325" d="M203.727,185.257c-.854-.014-1.708-.073-2.563-.166a.857.857,0,0,1-.605-.239c-.239-.3,0-.737.259-1.011a5.12,5.12,0,0,1,2.25-1.376c.151.469.278.947.39,1.43C203.561,184.345,203.649,184.8,203.727,185.257Z" transform="translate(-177.245 -172.13)" fill="#0f0f3a"/>
                    <path id="Path_1025326" data-name="Path 1025326" d="M169.259,202.177" transform="translate(-160.172 -182.917)" fill="none" stroke="#fff" stroke-miterlimit="10" stroke-width="0.539"/>
                    <g id="Group_1199055" data-name="Group 1199055" transform="translate(0.494)">
                      <path id="Path_1025327" data-name="Path 1025327" d="M154.986,187.393s1.448-5.3.7-7.833l-2.866-2.4s-3.866,1.867-2.058,8.453C150.762,185.607,153.206,183.673,154.986,187.393Z" transform="translate(-150.28 -169.224)" fill="#0f0f3a"/>
                      <path id="Path_1025328" data-name="Path 1025328" d="M158.51,169.975s4.528.939,6.4-1.055,3.8-3.116,5.857-2.368,5.67,4.237,7.851,2.929,1-7.477-5.483-9.284-12.372,1.184-15.5,3.24-1.987,4.133-1.987,4.133Z" transform="translate(-153.104 -159.639)" fill="#0f0f3a"/>
                    </g>
                    <path id="Path_1025329" data-name="Path 1025329" d="M159.307,191.229s.268,3.22.968,3.1.63-6.231,0-8.35-1.669-1.122-1.669-1.122l-.332,2.863Z" transform="translate(-154.161 -173.308)" fill="#0f0f3a"/>
                    <g id="Group_1199056" data-name="Group 1199056" transform="translate(2.598 15.753)">
                      <path id="Path_1025330" data-name="Path 1025330" d="M162.206,216.7a.184.184,0,0,1-.156.21,5.1,5.1,0,0,1-.669.044,7.411,7.411,0,0,1-3.617-1.113,3.115,3.115,0,0,0,.771,0,6.156,6.156,0,0,0,3.466.7A.189.189,0,0,1,162.206,216.7Z" transform="translate(-156.48 -206.146)" fill="#fff"/>
                      <path id="Path_1025331" data-name="Path 1025331" d="M167.549,204.024a8.471,8.471,0,0,0-.748,6.429c1,3.749,7.775,5.576,12.255,4.953s5.016-2.458,5.894-6.089a19.723,19.723,0,0,0,.69-5.75s-1.671-.963-5.861-.831C176.243,202.847,170.083,203.734,167.549,204.024Z" transform="translate(-161.257 -198.968)" fill="#fff"/>
                      <path id="Path_1025332" data-name="Path 1025332" d="M161.342,199.829a.171.171,0,0,1-.122.049.191.191,0,0,1-.137-.063L157.6,195.8a3.831,3.831,0,0,0-1.777-.981,2.172,2.172,0,0,0-.9-.264c1.376-.566,2.88.932,2.943,1l3.485,4.022A.178.178,0,0,1,161.342,199.829Z" transform="translate(-154.928 -194.43)" fill="#fff"/>
                    </g>
                    <g id="Group_1199057" data-name="Group 1199057" transform="translate(0.882 16.815)">
                      <path id="Path_1025333" data-name="Path 1025333" d="M154.7,198.129s-.791-1.929-2.493-1.182-1.645,7.513,2.16,7.127" transform="translate(-151.138 -196.775)" fill="none" stroke="#0f0f3a" stroke-linecap="round" stroke-linejoin="round" stroke-miterlimit="10" stroke-width="0.506"/>
                      <path id="Path_1025334" data-name="Path 1025334" d="M157.1,197.4a19.651,19.651,0,0,1,.3,7.033" transform="translate(-154.403 -197.115)" fill="none" stroke="#0f0f3a" stroke-linecap="round" stroke-linejoin="round" stroke-miterlimit="10" stroke-width="0.506"/>
                    </g>
                  </g>
                </g>
              </g>
              <g id="Group_1199065" data-name="Group 1199065" transform="translate(0 76.91)">
                <g id="Group_1199062" data-name="Group 1199062" transform="translate(20.69)">
                  <path id="Path_1025335" data-name="Path 1025335" d="M173.947,397.6c-7.573,2.03-16.795,3.941-17.377,2.529a8.763,8.763,0,0,1,0-5.068c.415-1.662,9.323-2.8,9.323-2.8l7.433-1.221Z" transform="translate(-156.194 -363.176)" fill="#ffb149"/>
                  <g id="Group_1199061" data-name="Group 1199061" transform="translate(22.29)">
                    <path id="Path_1025336" data-name="Path 1025336" d="M222.354,331.285s8.038-4.76,14.145,1.266-4.566,20.21-11.437,23.846-15.617,8.371-15.617,8.371l-4.023-12.674Z" transform="translate(-205.422 -329.5)" fill="#000061"/>
                    <path id="Path_1025337" data-name="Path 1025337" d="M243.81,340.49a9.454,9.454,0,0,1,.772,6.73,19.821,19.821,0,0,1-2.884,6.264,44.622,44.622,0,0,1-3.543,4.752c-1.389,1.625-3.125,3.258-5.262,3.316a2.22,2.22,0,0,1-1.808-.674,2.815,2.815,0,0,1-.484-1.371,26.822,26.822,0,0,1,2.747-16.353c.926-1.784,2.513-5.112,4.56-5.834C240.129,336.539,242.792,338.7,243.81,340.49Z" transform="translate(-219.035 -333.69)" fill="#000049"/>
                  </g>
                </g>
                <g id="Group_1199064" data-name="Group 1199064" transform="translate(0 1.82)">
                  <g id="Group_1199063" data-name="Group 1199063">
                    <path id="Path_1025338" data-name="Path 1025338" d="M110.654,346.508c-.871-4.967,1.969-11.013,6.983-12.587,3.241-1.017,6.771.044,9.826,1.531,10.831,5.27,18.441,15.578,28.936,21.49a16.949,16.949,0,0,1,2.4,1.571c-.045.548-.251,1.46-.335,2.016l-.964,6.438a29.605,29.605,0,0,1-8.137-.373,136.8,136.8,0,0,1-14.741-3.033,54.729,54.729,0,0,1-12.886-4.835c-4.842-2.712-9.181-6.9-11.082-12.218" transform="translate(-110.498 -333.519)" fill="#000061"/>
                    <path id="Path_1025339" data-name="Path 1025339" d="M153.688,359.4a20.351,20.351,0,0,0,5.283,7.111c5.145,4.923,11.565,9.206,18.686,9.23a3.511,3.511,0,0,0,1.41-.209,2.657,2.657,0,0,0,1.367-2.671,7.789,7.789,0,0,0-1.093-2.984,36.914,36.914,0,0,0-4.3-6.833,32.663,32.663,0,0,0-3.394-3.3q-4.313-3.768-8.919-7.183a12.99,12.99,0,0,0-4-2.26C153.159,348.692,152.219,355.572,153.688,359.4Z" transform="translate(-133.793 -342.57)" fill="#000049"/>
                  </g>
                  <path id="Path_1025340" data-name="Path 1025340" d="M219.722,398.174c8.239,2.209,18.273,4.288,18.906,2.752a9.537,9.537,0,0,0,0-5.514c-.452-1.808-10.143-3.042-10.143-3.042l-8.087-1.328Z" transform="translate(-170.267 -364.996)" fill="#ffb149"/>
                </g>
              </g>
            </g>
            <g id="Group_1199105" data-name="Group 1199105" transform="translate(8.431 33.429)">
              <g id="Group_1199102" data-name="Group 1199102" transform="translate(14.161)">
                <g id="Group_1199067" data-name="Group 1199067" transform="translate(11.604 55.547)">
                  <path id="Path_1025341" data-name="Path 1025341" d="M194.973,369.8s4.487.5,7.482-.728,5.322-12.922,5.322-12.922H186.022Z" transform="translate(-186.022 -356.149)" fill="#3c63c6"/>
                  <line id="Line_3566" data-name="Line 3566" x1="0.007" y2="10.273" transform="translate(10.871 0.445)" fill="none" stroke="#0f0f3a" stroke-linecap="round" stroke-linejoin="round" stroke-miterlimit="10" stroke-width="0.539"/>
                  <path id="Path_1025342" data-name="Path 1025342" d="M210.046,363.813s1.374-.44,1.408-7.664" transform="translate(-199.168 -356.149)" fill="none" stroke="#0f0f3a" stroke-linecap="round" stroke-linejoin="round" stroke-miterlimit="10" stroke-width="0.539"/>
                </g>
                <g id="Group_1199101" data-name="Group 1199101">
                  <path id="Path_1025343" data-name="Path 1025343" d="M182.824,292.382a14.637,14.637,0,0,0-11.318,7.705c-2.914,5.633-3.08,12.438-3.006,15.785.021.948,2.009,2.92,2.009,2.92s7.685,6.8,17.239,6.022,17.073-7.363,17.073-7.363.7-13.542-4.718-19.524-8.865-6.043-8.865-6.043Z" transform="translate(-164.823 -265.435)" fill="#ff954d"/>
                  <g id="Group_1199100" data-name="Group 1199100">
                    <g id="Group_1199071" data-name="Group 1199071" transform="translate(3.677 26.816)">
                      <path id="Path_1025344" data-name="Path 1025344" d="M196.219,293.135a9.682,9.682,0,0,0,6.913,2.245c4.154-.332,4.746-2.685,4.746-2.685" transform="translate(-183.675 -292.696)" fill="none" stroke="#0f0f3a" stroke-linecap="round" stroke-linejoin="round" stroke-miterlimit="10" stroke-width="0.539"/>
                      <g id="Group_1199069" data-name="Group 1199069" transform="translate(0 9.082)">
                        <g id="Group_1199068" data-name="Group 1199068" transform="translate(7.766 4.053)">
                          <path id="Path_1025345" data-name="Path 1025345" d="M186.824,323.137q.02,1.437.039,2.874a4.1,4.1,0,0,0,.457,2.226c.514.781,1.491,1.116,2.146,1.783a.668.668,0,0,1,.207.339c.048.288-.268.532-.56.525a1.513,1.513,0,0,1-.791-.348l-2.349-1.64a.771.771,0,0,1-.239-.224.763.763,0,0,1-.069-.387,38.26,38.26,0,0,1,.436-5.687c.043-.284.059-1.143.507-.825C186.9,321.979,186.82,322.833,186.824,323.137Z" transform="translate(-185.666 -321.704)" fill="#ea8039"/>
                        </g>
                        <path id="Path_1025346" data-name="Path 1025346" d="M177.723,312.754s-1.778,7.228-1.373,11.05l3.083,2.077s-1.951,5.151-2.107,6.9c0,0-7.785-1.745-8.812-5.483" transform="translate(-168.515 -312.754)" fill="none" stroke="#0f0f3a" stroke-linecap="round" stroke-linejoin="round" stroke-miterlimit="10" stroke-width="0.539"/>
                        <line id="Line_3567" data-name="Line 3567" y1="2.608" x2="1.457" transform="translate(8.419 1.204)" fill="none" stroke="#0f0f3a" stroke-linecap="round" stroke-linejoin="round" stroke-miterlimit="10" stroke-width="0.539"/>
                        <path id="Path_1025347" data-name="Path 1025347" d="M180.336,337.158a6.118,6.118,0,0,0-4.538,2.057" transform="translate(-172.5 -326.108)" fill="none" stroke="#0f0f3a" stroke-linecap="round" stroke-linejoin="round" stroke-miterlimit="10" stroke-width="0.539"/>
                      </g>
                      <g id="Group_1199070" data-name="Group 1199070" transform="translate(24.67 8.168)">
                        <path id="Path_1025348" data-name="Path 1025348" d="M226.244,318.006a3.169,3.169,0,0,0,.065,1.714,19.133,19.133,0,0,1,.4,4.279,3.145,3.145,0,0,1-.23,1.311,2.72,2.72,0,0,1-.652.808,17.6,17.6,0,0,1-2.205,1.573.755.755,0,0,0-.314.316.265.265,0,0,0,.158.362.384.384,0,0,0,.233-.065l3.648-1.928c.315-.166.7-.3.807-.643a1.259,1.259,0,0,0,0-.549,43.555,43.555,0,0,0-1.545-6.857C226.569,318.186,226.391,317.987,226.244,318.006Z" transform="translate(-223.159 -314.713)" fill="#ea8039"/>
                        <path id="Path_1025349" data-name="Path 1025349" d="M225.306,310.735s2.431,6.73,2.68,11.278L223,324.755a15.5,15.5,0,0,1,2.866,6.543s6.226-1.618,8.814-4.8" transform="translate(-223.001 -310.735)" fill="none" stroke="#0f0f3a" stroke-linecap="round" stroke-linejoin="round" stroke-miterlimit="10" stroke-width="0.539"/>
                        <path id="Path_1025350" data-name="Path 1025350" d="M234.01,335.465a5.037,5.037,0,0,1,3.988.685" transform="translate(-229.025 -324.186)" fill="none" stroke="#0f0f3a" stroke-linecap="round" stroke-linejoin="round" stroke-miterlimit="10" stroke-width="0.539"/>
                        <path id="Path_1025351" data-name="Path 1025351" d="M225.974,312.112c.211.125,2.235,3.419,2.235,3.419" transform="translate(-224.628 -311.488)" fill="none" stroke="#0f0f3a" stroke-linecap="round" stroke-linejoin="round" stroke-miterlimit="10" stroke-width="0.539"/>
                      </g>
                    </g>
                    <g id="Group_1199080" data-name="Group 1199080" transform="translate(12.201 46.114)">
                      <g id="Group_1199072" data-name="Group 1199072" transform="translate(1.251)">
                        <path id="Path_1025352" data-name="Path 1025352" d="M206.773,343.648a8.253,8.253,0,0,1-1.528,4.8,1.334,1.334,0,0,1-.142.2,8.3,8.3,0,0,1-6.663,3.334,1.349,1.349,0,0,1-.142,0c-.083,0-.161,0-.244-.005a8.317,8.317,0,0,1-6.16-3.163c-.054-.063-.1-.127-.151-.2a8.338,8.338,0,0,1,.81-10.87c.058-.058.122-.122.186-.181a8.313,8.313,0,0,1,5.316-2.24c.083,0,.161,0,.244,0a1.358,1.358,0,0,1,.142,0,8.307,8.307,0,0,1,5.618,2.177c.063.058.127.117.186.176A8.3,8.3,0,0,1,206.773,343.648Z" transform="translate(-190.104 -335.316)" fill="#ffe9e9"/>
                        <path id="Path_1025353" data-name="Path 1025353" d="M207.206,340.3a11.291,11.291,0,0,1-5.662,1.508c-.093,0-.191,0-.283,0s-.161,0-.244-.01a14.518,14.518,0,0,1-5.5-1.415c.058-.058.122-.122.186-.181a14.257,14.257,0,0,0,5.316,1.357c.083,0,.161,0,.244,0a11.064,11.064,0,0,0,5.76-1.435C207.084,340.183,207.148,340.242,207.206,340.3Z" transform="translate(-193.066 -337.948)" fill="#0f0f3a"/>
                        <path id="Path_1025354" data-name="Path 1025354" d="M207.228,362.037a1.334,1.334,0,0,1-.142.2,14.544,14.544,0,0,0-6.8-1.85c-.083,0-.161,0-.244,0a11.138,11.138,0,0,0-6.16,2.006c-.054-.063-.1-.127-.151-.2a11.377,11.377,0,0,1,6.311-2.055c.083,0,.166,0,.244,0A14.72,14.72,0,0,1,207.228,362.037Z" transform="translate(-192.087 -348.902)" fill="#0f0f3a"/>
                        <path id="Path_1025355" data-name="Path 1025355" d="M207.909,335.327v16.659c-.083,0-.161,0-.244-.005V335.332C207.748,335.327,207.826,335.327,207.909,335.327Z" transform="translate(-199.714 -335.322)" fill="#0f0f3a"/>
                      </g>
                      <g id="Group_1199079" data-name="Group 1199079" transform="translate(0 1.452)">
                        <g id="Group_1199075" data-name="Group 1199075" transform="translate(0 0.307)">
                          <path id="Path_1025356" data-name="Path 1025356" d="M194.289,349.629a3.025,3.025,0,0,0,2,.3,2.71,2.71,0,0,0,1.106-.745,2.748,2.748,0,0,0,.949-2.691,3.3,3.3,0,0,0-.769-1.083l-2.5-2.668c-.065-.069-.135-.157-.11-.249a.28.28,0,0,1,.153-.149c.464-.254.955-.461,1.392-.758a2.285,2.285,0,0,0,.97-1.214.548.548,0,0,0-.089-.556c-.193-.173-.5-.06-.727.061l-1.473.771a8.234,8.234,0,0,0-2.7,1.917,6.555,6.555,0,0,0-1.357,4.681C191.391,348.539,193.244,349.184,194.289,349.629Z" transform="translate(-189.384 -339.491)" fill="#e5cfcf" opacity="0.45"/>
                          <g id="Group_1199074" data-name="Group 1199074">
                            <g id="Group_1199073" data-name="Group 1199073">
                              <path id="Path_1025357" data-name="Path 1025357" d="M190.159,341.763s4.792,4.117,5.852,5.986c.579,1.021-3.135,3.509-3.978,3.112-1.56-.734-4.429-2.584-4.429-2.584C187.109,347.326,187,341.727,190.159,341.763Z" transform="translate(-187.341 -340.603)" fill="#f2a6a0"/>
                              <path id="Path_1025358" data-name="Path 1025358" d="M193.564,340.361s4.975-1.8,5.356-.915c.212.493-2.128,2.43-3.547,2.659Z" transform="translate(-190.746 -339.202)" fill="#f2a6a0"/>
                            </g>
                            <line id="Line_3568" data-name="Line 3568" x1="4.285" y1="4.186" transform="translate(3.902 4.199)" fill="none" stroke="#0f0f3a" stroke-linecap="round" stroke-linejoin="round" stroke-miterlimit="10" stroke-width="0.293"/>
                            <line id="Line_3569" data-name="Line 3569" x1="4.22" y1="3.874" transform="translate(2.818 5.484)" fill="none" stroke="#0f0f3a" stroke-linecap="round" stroke-linejoin="round" stroke-miterlimit="10" stroke-width="0.293"/>
                            <line id="Line_3570" data-name="Line 3570" x1="3.833" y1="3.146" transform="translate(1.669 7.031)" fill="none" stroke="#0f0f3a" stroke-linecap="round" stroke-linejoin="round" stroke-miterlimit="10" stroke-width="0.293"/>
                          </g>
                        </g>
                        <g id="Group_1199078" data-name="Group 1199078" transform="translate(11.236)">
                          <path id="Path_1025359" data-name="Path 1025359" d="M216.313,348.422a3.026,3.026,0,0,1-2,.3,2.7,2.7,0,0,1-1.106-.745,2.748,2.748,0,0,1-.949-2.691,3.294,3.294,0,0,1,.769-1.084l2.5-2.668c.065-.069.135-.157.11-.249a.279.279,0,0,0-.153-.149c-.464-.254-.955-.461-1.392-.758a2.287,2.287,0,0,1-.97-1.214.548.548,0,0,1,.089-.556c.193-.173.5-.06.727.061l1.473.771a8.233,8.233,0,0,1,2.7,1.917,6.555,6.555,0,0,1,1.357,4.681C219.211,347.331,217.358,347.978,216.313,348.422Z" transform="translate(-212.156 -338.524)" fill="#e5cfcf" opacity="0.45"/>
                          <g id="Group_1199077" data-name="Group 1199077" transform="translate(0.452 0.704)">
                            <g id="Group_1199076" data-name="Group 1199076">
                              <path id="Path_1025360" data-name="Path 1025360" d="M218.6,342.438s-4.413,3.791-5.389,5.512c-.533.94,2.887,3.231,3.663,2.866,1.437-.676,4.078-2.379,4.078-2.379C221.409,347.561,221.507,342.405,218.6,342.438Z" transform="translate(-213.155 -341.37)" fill="#f2a6a0"/>
                              <path id="Path_1025361" data-name="Path 1025361" d="M219.206,341.147s-4.582-1.657-4.932-.843c-.2.454,1.96,2.237,3.266,2.448Z" transform="translate(-213.76 -340.08)" fill="#f2a6a0"/>
                            </g>
                            <line id="Line_3571" data-name="Line 3571" y1="3.855" x2="3.946" transform="translate(0.501 3.866)" fill="none" stroke="#0f0f3a" stroke-linecap="round" stroke-linejoin="round" stroke-miterlimit="10" stroke-width="0.269"/>
                            <line id="Line_3572" data-name="Line 3572" y1="3.567" x2="3.886" transform="translate(1.559 5.05)" fill="none" stroke="#0f0f3a" stroke-linecap="round" stroke-linejoin="round" stroke-miterlimit="10" stroke-width="0.269"/>
                            <line id="Line_3573" data-name="Line 3573" y1="2.897" x2="3.529" transform="translate(2.973 6.475)" fill="none" stroke="#0f0f3a" stroke-linecap="round" stroke-linejoin="round" stroke-miterlimit="10" stroke-width="0.269"/>
                          </g>
                        </g>
                      </g>
                    </g>
                    <g id="Group_1199085" data-name="Group 1199085" transform="translate(0 50.547)">
                      <g id="Group_1199082" data-name="Group 1199082" transform="translate(19.063)">
                        <g id="Group_1199081" data-name="Group 1199081">
                          <path id="Path_1025362" data-name="Path 1025362" d="M216.949,351.477s5.736-7.477,10.887-6.231,4.736,7.906,1.246,13.092-12.43,13.743-12.43,13.743l-7.588-4.039Z" transform="translate(-206.09 -345.106)" fill="#4b69e2"/>
                          <path id="Path_1025363" data-name="Path 1025363" d="M207.322,397.939s-5.908,6.315-4.651,8.184,9.853-5.414,9.853-5.414Z" transform="translate(-202.496 -374.017)" fill="#edcccc"/>
                        </g>
                        <path id="Path_1025364" data-name="Path 1025364" d="M224.14,351.079s-8.357,8.681-11.81,17.126" transform="translate(-207.877 -348.374)" fill="none" stroke="#0f0f3a" stroke-linecap="round" stroke-linejoin="round" stroke-miterlimit="10" stroke-width="0.539"/>
                      </g>
                      <g id="Group_1199084" data-name="Group 1199084" transform="translate(0 1.525)">
                        <g id="Group_1199083" data-name="Group 1199083">
                          <path id="Path_1025365" data-name="Path 1025365" d="M161.14,358.135s-2.79-6.541,2.418-9.009,9,2.754,10.721,4.5,11.093,15.488,11.093,15.488l-6.611,4.169S164.692,365.868,161.14,358.135Z" transform="translate(-160.394 -348.475)" fill="#5d82f0"/>
                          <path id="Path_1025366" data-name="Path 1025366" d="M201.975,398.392s8.192,8.551,10.507,6.931-4.944-10.439-4.944-10.439Z" transform="translate(-183.148 -373.871)" fill="#ffe9e9"/>
                        </g>
                        <path id="Path_1025367" data-name="Path 1025367" d="M184.943,356.149s10.193,10.633,13.862,17.168" transform="translate(-173.827 -352.674)" fill="none" stroke="#0f0f3a" stroke-linecap="round" stroke-linejoin="round" stroke-miterlimit="10" stroke-width="0.539"/>
                      </g>
                    </g>
                    <g id="Group_1199099" data-name="Group 1199099" transform="translate(9.902)">
                      <g id="Group_1199086" data-name="Group 1199086" transform="translate(8.1 21.524)">
                        <path id="Path_1025368" data-name="Path 1025368" d="M208.567,285.931s-.434,1.621-3.675,1.87a5.918,5.918,0,0,1-4.739-1.371l.376-4.539.024-.3,7.307-.581.127.9Z" transform="translate(-200.152 -281.007)" fill="#f2a6a0"/>
                        <path id="Path_1025369" data-name="Path 1025369" d="M208.439,281.9a4.344,4.344,0,0,1-3.241,1.806,5.882,5.882,0,0,1-4.217-1.821l.024-.3,7.307-.581Z" transform="translate(-200.606 -281.007)" fill="#ff5776"/>
                      </g>
                      <g id="Group_1199098" data-name="Group 1199098">
                        <g id="Group_1199090" data-name="Group 1199090" transform="translate(0.131 2.474)">
                          <path id="Path_1025370" data-name="Path 1025370" d="M203.7,254.442a2.707,2.707,0,0,1-1.486-.307c-.057.1-.113.2-.175.3v0a11.253,11.253,0,0,1-1.445,1.977,9.618,9.618,0,0,1-.792.794,8.173,8.173,0,0,1-5.425,2.207,8.322,8.322,0,0,1-5.857-2.617c-.1-.1-.2-.195-.288-.3a11.491,11.491,0,0,1-1.666-2.32l-.015-.031a2.724,2.724,0,0,1-1.27.3c-2.432-.067-3.533-4.051-2.072-5.787.74-.881,1.4-.906,1.908-.64l.036.015c.01-.138.02-.277.036-.41a9.205,9.205,0,0,1,18.382,0c.01.149.021.292.031.441a1.324,1.324,0,0,1,.55-.184,1.7,1.7,0,0,1,1.45.778C207.026,250.36,206.013,254.191,203.7,254.442Z" transform="translate(-182.552 -238.935)" fill="#f2a6a0"/>
                          <g id="Group_1199089" data-name="Group 1199089" transform="translate(0.811 9.921)">
                            <g id="Group_1199087" data-name="Group 1199087" transform="translate(20.052)">
                              <path id="Path_1025371" data-name="Path 1025371" d="M229.2,265.37a1.635,1.635,0,0,1-.168-.009.065.065,0,0,1-.058-.071.069.069,0,0,1,.07-.057,1.128,1.128,0,0,0,1.043-.412,3.882,3.882,0,0,0,.363-3.04,1.331,1.331,0,0,0-.337-.613.585.585,0,0,0-.623-.158,1.467,1.467,0,0,0-.739,1.113.067.067,0,0,1-.071.056.065.065,0,0,1-.056-.072,1.583,1.583,0,0,1,.821-1.219.7.7,0,0,1,.754.183,1.448,1.448,0,0,1,.374.671,3.965,3.965,0,0,1-.387,3.16A1.224,1.224,0,0,1,229.2,265.37Z" transform="translate(-228.627 -260.847)" fill="#0f0f3a"/>
                              <path id="Path_1025372" data-name="Path 1025372" d="M230.236,265.413a.065.065,0,0,1-.055-.031,3.683,3.683,0,0,1,.363-4.266.064.064,0,0,1,.095.087,3.555,3.555,0,0,0-.348,4.114.065.065,0,0,1-.022.088A.066.066,0,0,1,230.236,265.413Z" transform="translate(-229.184 -260.983)" fill="#0f0f3a"/>
                            </g>
                            <g id="Group_1199088" data-name="Group 1199088" transform="translate(0 0.01)">
                              <path id="Path_1025373" data-name="Path 1025373" d="M185.872,265.392a1.225,1.225,0,0,1-.988-.467,3.965,3.965,0,0,1-.387-3.16,1.445,1.445,0,0,1,.374-.671.7.7,0,0,1,.754-.182,1.582,1.582,0,0,1,.821,1.218.064.064,0,0,1-.056.072.066.066,0,0,1-.071-.056,1.464,1.464,0,0,0-.738-1.113.582.582,0,0,0-.623.158,1.331,1.331,0,0,0-.336.613,3.883,3.883,0,0,0,.363,3.041,1.128,1.128,0,0,0,1.043.412.069.069,0,0,1,.07.057.065.065,0,0,1-.057.071C185.983,265.388,185.927,265.392,185.872,265.392Z" transform="translate(-184.342 -260.869)" fill="#0f0f3a"/>
                              <path id="Path_1025374" data-name="Path 1025374" d="M186.164,265.435a.064.064,0,0,1-.055-.1,3.556,3.556,0,0,0-.348-4.114.064.064,0,0,1,0-.091.065.065,0,0,1,.091,0,3.684,3.684,0,0,1,.363,4.266A.067.067,0,0,1,186.164,265.435Z" transform="translate(-185.11 -261.004)" fill="#0f0f3a"/>
                            </g>
                          </g>
                        </g>
                        <g id="Group_1199091" data-name="Group 1199091">
                          <path id="Path_1025375" data-name="Path 1025375" d="M184.993,250.682s1.03-.648,3.356-5.508l-3.1-1.412s-2.379.45-2.852,4.4c-.394,3.3.224,3.893.224,3.893A1.984,1.984,0,0,1,184.993,250.682Z" transform="translate(-182.262 -239.102)" fill="#0f0f3a"/>
                          <path id="Path_1025376" data-name="Path 1025376" d="M188.851,238.13s1.754-4.2,7.923-4.632,10.318,4.426,10.719,6.792a8.071,8.071,0,0,1-.445,4.791l-6.5-4.479-8.588-1.059Z" transform="translate(-185.868 -233.47)" fill="#0f0f3a"/>
                          <path id="Path_1025377" data-name="Path 1025377" d="M200.322,244.975a6.466,6.466,0,0,1,1.337,0c1.316.224,2.2,1.541,3.489,1.9.729.2,1.525.077,2.244.317a5.853,5.853,0,0,1,1.3.742,10.6,10.6,0,0,0,2.031,1.037c-.757-1.63-.858-3.551-1.872-5.034a7.128,7.128,0,0,0-5.014-2.663,11.467,11.467,0,0,0-5.249.452,9.157,9.157,0,0,0-2.344,1.185c-.326.231-.719.465-.341.844a3.963,3.963,0,0,0,1.244.656A7.627,7.627,0,0,0,200.322,244.975Z" transform="translate(-189.642 -237.675)" fill="#0f0f3a"/>
                          <path id="Path_1025378" data-name="Path 1025378" d="M188.017,250.806a2.416,2.416,0,0,0,.773-1.41,4.846,4.846,0,0,1,.527-1.544c.222-.335.543-.593.766-.926a1.97,1.97,0,0,0,.272-1.54,1.4,1.4,0,0,0-.721-.957,1.52,1.52,0,0,0-.642-.119,3.167,3.167,0,0,0-2.427,1.3,5.084,5.084,0,0,0-.94,2.651,3.9,3.9,0,0,0,.124,1.539C186.063,250.775,187.05,251.525,188.017,250.806Z" transform="translate(-184.09 -239.402)" fill="#0f0f3a"/>
                        </g>
                        <path id="Path_1025379" data-name="Path 1025379" d="M188.093,253.865a2.607,2.607,0,0,0-1.229,1.838.282.282,0,0,0,.3.245c.753.961.841,2.271,1.318,3.394.043.1.111.216.22.22s.178-.092.225-.184a2.78,2.78,0,0,0,.173-1.434q-.039-.693-.078-1.386-.033-.586-.066-1.172a1.813,1.813,0,0,0-.533-1.445" transform="translate(-184.78 -244.631)" fill="#0f0f3a"/>
                        <path id="Path_1025380" data-name="Path 1025380" d="M226.283,259.1c.011.164.058.372.221.4s.262-.126.326-.261a5.99,5.99,0,0,0,.434-1.768,5.51,5.51,0,0,0-.147-3.033.425.425,0,0,0-.1-.155.366.366,0,0,0-.2-.072.946.946,0,0,0-.953.639c-.078.311.146.583.2.88A27.547,27.547,0,0,1,226.283,259.1Z" transform="translate(-206.112 -244.815)" fill="#0f0f3a"/>
                        <g id="Group_1199094" data-name="Group 1199094" transform="translate(5.612 10.286)">
                          <g id="Group_1199093" data-name="Group 1199093">
                            <g id="Group_1199092" data-name="Group 1199092" transform="translate(1.565 2.235)">
                              <path id="Path_1025381" data-name="Path 1025381" d="M199.477,261.8a.683.683,0,1,1-.683-.676A.68.68,0,0,1,199.477,261.8Z" transform="translate(-198.111 -261.122)" fill="#0f0f3a"/>
                              <path id="Path_1025382" data-name="Path 1025382" d="M217.7,261.8a.683.683,0,1,1-.683-.676A.68.68,0,0,1,217.7,261.8Z" transform="translate(-208.081 -261.122)" fill="#0f0f3a"/>
                            </g>
                            <path id="Path_1025383" data-name="Path 1025383" d="M194.734,257.47a.287.287,0,0,0-.072.231c.037.129.213.146.345.122a4.707,4.707,0,0,0,.628-.186,8.007,8.007,0,0,1,2.186-.4,1.192,1.192,0,0,0,.451-.073.372.372,0,0,0,.236-.359.452.452,0,0,0-.215-.288C197.178,255.734,195.44,256.463,194.734,257.47Z" transform="translate(-194.656 -256.187)" fill="#0f0f3a"/>
                            <path id="Path_1025384" data-name="Path 1025384" d="M218.6,257.487a.261.261,0,0,1,.079.206c-.026.119-.184.145-.306.131a4.282,4.282,0,0,1-.58-.131,7.272,7.272,0,0,0-2-.233,1.085,1.085,0,0,1-.414-.039.338.338,0,0,1-.235-.311.411.411,0,0,1,.177-.274C216.285,256.061,217.9,256.617,218.6,257.487Z" transform="translate(-205.867 -256.34)" fill="#0f0f3a"/>
                          </g>
                          <path id="Path_1025385" data-name="Path 1025385" d="M207.839,264.625a1.022,1.022,0,0,0-.642.654,1.051,1.051,0,0,0,.185,1.033.814.814,0,0,0,1,.16" transform="translate(-201.485 -260.804)" fill="none" stroke="#0f0f3a" stroke-linecap="round" stroke-linejoin="round" stroke-miterlimit="10" stroke-width="0.539"/>
                        </g>
                        <g id="Group_1199097" data-name="Group 1199097" transform="translate(1.32 10.971)">
                          <g id="Group_1199096" data-name="Group 1199096">
                            <g id="Group_1199095" data-name="Group 1199095" transform="translate(0 0.111)">
                              <path id="Path_1025386" data-name="Path 1025386" d="M188.551,262.485a.13.13,0,0,1-.1.146h-.024a.116.116,0,0,1-.117-.1c-.21-1.069-.927-3.919-1.747-4.261a.8.8,0,0,0-.669-.014.972.972,0,0,0-.346.263,1.237,1.237,0,0,0-.181.019.615.615,0,0,0-.19.058,1.5,1.5,0,0,1,.62-.566,1.033,1.033,0,0,1,.859.01C187.765,258.507,188.516,262.324,188.551,262.485Z" transform="translate(-185.178 -257.944)" fill="#fff"/>
                              <path id="Path_1025387" data-name="Path 1025387" d="M190.122,273.434a.126.126,0,0,1-.073.156,1.38,1.38,0,0,1-.439.073,2.641,2.641,0,0,1-1.381-.508.272.272,0,0,0,.063,0,3.082,3.082,0,0,0,.376-.024,1.687,1.687,0,0,0,1.3.225A.121.121,0,0,1,190.122,273.434Z" transform="translate(-186.847 -266.258)" fill="#fff"/>
                            </g>
                            <path id="Path_1025388" data-name="Path 1025388" d="M227.487,258.281a1.183,1.183,0,0,0-.42-.122.686.686,0,0,0-.151-.112.694.694,0,0,0-.59-.058.886.886,0,0,0-.332.254,5.451,5.451,0,0,0-.869,1.664c-.063.161-.127.317-.186.464s-.132.307-.21.488c-.205.474-.435,1.01-.566,1.391a.12.12,0,0,1-.117.083.118.118,0,0,1-.039,0,.121.121,0,0,1-.073-.156c.132-.39.366-.932.571-1.41.078-.176.146-.342.21-.483s.117-.3.181-.459a5.771,5.771,0,0,1,.918-1.743,1.226,1.226,0,0,1,.42-.317.937.937,0,0,1,.8.073A1.25,1.25,0,0,1,227.487,258.281Z" transform="translate(-206.381 -257.699)" fill="#fff"/>
                            <path id="Path_1025389" data-name="Path 1025389" d="M227.458,272.961a1.928,1.928,0,0,1-1.152.356,2.491,2.491,0,0,1-.913-.171.118.118,0,0,1-.063-.161.127.127,0,0,1,.161-.063,2.157,2.157,0,0,0,1.245.107h0a.892.892,0,0,0,.361,0C227.239,273.009,227.356,272.985,227.458,272.961Z" transform="translate(-207.144 -266.024)" fill="#fff"/>
                          </g>
                          <path id="Path_1025390" data-name="Path 1025390" d="M192.156,266.881a63.887,63.887,0,0,1,8.016-.748,36.3,36.3,0,0,1,6.667.374l.63,2.5a7.578,7.578,0,0,1-6.923,5.285,9.1,9.1,0,0,1-8.389-4.393v-3.023Z" transform="translate(-188.996 -262.308)" fill="#fff"/>
                        </g>
                      </g>
                    </g>
                  </g>
                </g>
              </g>
              <g id="Group_1199104" data-name="Group 1199104" transform="translate(0 34.576)">
                <path id="Path_1025391" data-name="Path 1025391" d="M129.119,312.692s3.577,21.933,12.007,19.566l6.187-1.994-4.192-18.195Z" transform="translate(-129.119 -311.057)" fill="#f2a6a0"/>
                <path id="Path_1025392" data-name="Path 1025392" d="M152.119,324.858l22.1-5.514.875,5.18s-9.512,6.73-16.782,9.72-9.1.522-9.1.522Z" transform="translate(-140.114 -315.037)" fill="#f2a6a0"/>
                <path id="Path_1025393" data-name="Path 1025393" d="M152.927,330.82s1.475-.41,5.058-1.337" transform="translate(-142.147 -320.586)" fill="none" stroke="#0f0f3a" stroke-linecap="round" stroke-linejoin="round" stroke-miterlimit="10" stroke-width="0.539"/>
                <g id="Group_1199103" data-name="Group 1199103" transform="translate(34.101)">
                  <path id="Path_1025394" data-name="Path 1025394" d="M204.433,317.518a55.964,55.964,0,0,1,5.669-.241c2.549.063,8.71-1.994,9.164-1s-.385,4.773-1.033,5.735-12.35.807-12.889.682S204.433,317.518,204.433,317.518Z" transform="translate(-204.433 -313.211)" fill="#f2a6a0"/>
                  <path id="Path_1025395" data-name="Path 1025395" d="M207.214,314.033s7.054-4.5,7.687-4.185-2.234,4.04-2.234,4.04Z" transform="translate(-205.955 -309.833)" fill="#f2a6a0"/>
                  <path id="Path_1025396" data-name="Path 1025396" d="M219.9,320.408s6.792-.81,7.934-1.3" transform="translate(-212.897 -314.909)" fill="none" stroke="#0f0f3a" stroke-linecap="round" stroke-linejoin="round" stroke-miterlimit="10" stroke-width="0.539"/>
                  <path id="Path_1025397" data-name="Path 1025397" d="M219.9,324.007s5.416-.292,7.662-1.205" transform="translate(-212.897 -316.93)" fill="none" stroke="#0f0f3a" stroke-linecap="round" stroke-linejoin="round" stroke-miterlimit="10" stroke-width="0.539"/>
                  <path id="Path_1025398" data-name="Path 1025398" d="M221.044,327.81s5.689-.213,6.646-.792" transform="translate(-213.523 -319.237)" fill="none" stroke="#0f0f3a" stroke-linecap="round" stroke-linejoin="round" stroke-miterlimit="10" stroke-width="0.539"/>
                </g>
              </g>
            </g>
            <g id="Group_1199143" data-name="Group 1199143" transform="translate(57.873 13.095)">
              <path id="Path_1025399" data-name="Path 1025399" d="M295.046,191.478,287.4,226.754,273.35,231.5s-3.146-33.459,5.411-40.023,16.284,0,16.284,0,3.074-.608,5.317,2.966,2.575,23.686,2.575,23.686V229.22L292.6,226.349l.785-31.376Z" transform="translate(-257.177 -188.56)" fill="#ff5776"/>
              <g id="Group_1199128" data-name="Group 1199128" transform="translate(0 1.035)">
                <g id="Group_1199125" data-name="Group 1199125">
                  <g id="Group_1199111" data-name="Group 1199111" transform="translate(0 34.603)">
                    <path id="Path_1025400" data-name="Path 1025400" d="M291.719,286.035c-3.472-12.006-6.325-13.012-6.325-13.012h0a64.342,64.342,0,0,0-8.26-5.29c-3.727-1.646-15.655,1.6-15.655,1.6a13.526,13.526,0,0,0-4.186,2.019l-18.978,13.1,3.654,8.1,14.389-4.918a36.987,36.987,0,0,0,1.879,9.626l1,8.765s2.594,5.3,12.139,4.325a20.6,20.6,0,0,0,14.156-7.446l-2.987-5.643s.1-1.058.3-2.822l5.818,16.031s5.671-3.756,6.294-4.908S295.029,297.481,291.719,286.035Z" transform="translate(-238.314 -267.268)" fill="#ffe9e9"/>
                    <g id="Group_1199110" data-name="Group 1199110" transform="translate(18.001 10.044)">
                      <g id="Group_1199109" data-name="Group 1199109">
                        <path id="Path_1025401" data-name="Path 1025401" d="M327.375,333.075a8.815,8.815,0,0,1-6.345,4.486c-.361.054-.805.049-1.01-.254a.7.7,0,0,1,.063-.791,1.847,1.847,0,0,1,.674-.5c1.1-.566,2.289-.957,3.412-1.489a8.375,8.375,0,0,0,2.216-1.454,8.046,8.046,0,0,1,.878-.967Z" transform="translate(-300.973 -312.791)" fill="#f4dcdc"/>
                        <g id="Group_1199108" data-name="Group 1199108">
                          <path id="Path_1025402" data-name="Path 1025402" d="M336.084,298.695a.472.472,0,0,1,.414.207,4.638,4.638,0,0,1,.757,3.292l-.223,7.686a2.36,2.36,0,0,1-.615,1.838,1,1,0,0,1-.445-1.011q.02-3.829.04-7.657C336.016,302.411,334.706,298.931,336.084,298.695Z" transform="translate(-309.471 -294.507)" fill="#f4dcdc"/>
                          <g id="Group_1199106" data-name="Group 1199106">
                            <path id="Path_1025403" data-name="Path 1025403" d="M280.988,289.45s-2.983,8.641-2.918,10.551" transform="translate(-278.07 -289.45)" fill="none" stroke="#0f0f3a" stroke-linecap="round" stroke-linejoin="round" stroke-miterlimit="10" stroke-width="0.539"/>
                            <line id="Line_3574" data-name="Line 3574" y2="4.816" transform="translate(0.27 3.573)" fill="none" stroke="#0f0f3a" stroke-linecap="round" stroke-linejoin="round" stroke-miterlimit="10" stroke-width="0.539"/>
                          </g>
                          <g id="Group_1199107" data-name="Group 1199107" transform="translate(24.105)">
                            <path id="Path_1025404" data-name="Path 1025404" d="M331.306,289.45a35.94,35.94,0,0,1,2.123,9.373,89.428,89.428,0,0,1,0,10.58" transform="translate(-331.306 -289.45)" fill="none" stroke="#0f0f3a" stroke-linecap="round" stroke-linejoin="round" stroke-miterlimit="10" stroke-width="0.539"/>
                            <path id="Path_1025405" data-name="Path 1025405" d="M335.995,296.458a57.4,57.4,0,0,1,.04,6.8" transform="translate(-333.872 -293.285)" fill="none" stroke="#0f0f3a" stroke-linecap="round" stroke-linejoin="round" stroke-miterlimit="10" stroke-width="0.539"/>
                          </g>
                        </g>
                      </g>
                    </g>
                  </g>
                  <g id="Group_1199124" data-name="Group 1199124" transform="translate(21.233)">
                    <g id="Group_1199112" data-name="Group 1199112" transform="translate(1.932 22.778)">
                      <path id="Path_1025406" data-name="Path 1025406" d="M307.888,254.952a11.55,11.55,0,0,1-8.861,6.158c-6.4.747-9.552-6.067-9.552-6.067a14.367,14.367,0,0,0,4.4-2.714c.888-.918,1.22-3.1,1.347-4.837.1-1.352.063-2.431.063-2.431l8.225-3.91s-.254,1.25-.493,2.89c-.356,2.455-.683,5.784-.088,7.058.643,1.367,2.575,2.511,3.826,3.2C307.445,254.672,307.888,254.952,307.888,254.952Z" transform="translate(-289.474 -241.152)" fill="#f2a6a0"/>
                      <path id="Path_1025407" data-name="Path 1025407" d="M310.461,241.152s-.254,1.25-.493,2.89a10.525,10.525,0,0,1-5.711,3.69,3.165,3.165,0,0,1-2.084-.239c.1-1.352.063-2.431.063-2.431Z" transform="translate(-296.423 -241.152)" fill="#e24b73"/>
                    </g>
                    <g id="Group_1199123" data-name="Group 1199123">
                      <g id="Group_1199116" data-name="Group 1199116" transform="translate(0.105)">
                        <g id="Group_1199114" data-name="Group 1199114" transform="translate(0 1.883)">
                          <g id="Group_1199113" data-name="Group 1199113">
                            <path id="Path_1025408" data-name="Path 1025408" d="M285.44,208.82c0,2.772.319,6.092,1.933,8.438,3.682,5.351,13.265,3.4,15.224-2.575.117-.357.215-.72.3-1.086.239-1.051.408-2.116.613-3.174.152-.786.347-1.584.452-2.378,0,0,1.579-11.917-7.39-12.957a9.011,9.011,0,0,0-8.228,2.856,10.556,10.556,0,0,0-1.94,3.66c-.129.4-.236.8-.331,1.214-.087.381-.162.767-.228,1.156-.062.348-.112.7-.154,1.053-.025.182-.046.365-.067.543-.033.307-.058.614-.083.92-.029.356-.05.713-.066,1.074-.008.166-.017.336-.017.506C285.44,208.319,285.44,208.572,285.44,208.82Z" transform="translate(-285.44 -195.003)" fill="#f2a6a0"/>
                          </g>
                          <path id="Path_1025409" data-name="Path 1025409" d="M324.666,221.832s1.1-2.909,3.286-1.745,1.473,10.122-4.59,7.407l.357-3.068Z" transform="translate(-306.191 -208.579)" fill="#f2a6a0"/>
                        </g>
                        <g id="Group_1199115" data-name="Group 1199115" transform="translate(18.837 14.333)">
                          <path id="Path_1025410" data-name="Path 1025410" d="M327.046,225.294s.137-2.906,2.164-2.789c1.54.089,1.218,2.284.981,3.264a4.36,4.36,0,0,1-.724,1.728,2.038,2.038,0,0,1-2.423.562" transform="translate(-327.043 -222.501)" fill="none" stroke="#0f0f3a" stroke-linecap="round" stroke-linejoin="round" stroke-miterlimit="10" stroke-width="0.506"/>
                          <path id="Path_1025411" data-name="Path 1025411" d="M329.134,222.5s-1.714,3.054-1.248,5.717" transform="translate(-327.46 -222.501)" fill="none" stroke="#0f0f3a" stroke-linecap="round" stroke-linejoin="round" stroke-miterlimit="10" stroke-width="0.506"/>
                        </g>
                        <path id="Path_1025412" data-name="Path 1025412" d="M316.466,197.154s-.919,8.363,4.129,13.736c0,0,2.24-6.507,1.816-8.834S316.466,197.154,316.466,197.154Z" transform="translate(-302.382 -194.298)" fill="#ff5776"/>
                        <path id="Path_1025413" data-name="Path 1025413" d="M300.267,193.7s-10.494.721-13.454,6.841c0,0-.67-5.5,6.947-9.419C294.24,190.877,298.652,189.963,300.267,193.7Z" transform="translate(-286.184 -190.845)" fill="#ff5776"/>
                      </g>
                      <g id="Group_1199121" data-name="Group 1199121" transform="translate(0.391 10.387)">
                        <g id="Group_1199117" data-name="Group 1199117">
                          <path id="Path_1025414" data-name="Path 1025414" d="M290.211,214.926a2.812,2.812,0,0,1-.906.1c-1.082.014-2.164-.055-3.234.014.013-.388.025-.761.063-1.135a5.336,5.336,0,0,1,3.334.388A1.3,1.3,0,0,1,290.211,214.926Z" transform="translate(-286.071 -213.786)" fill="#0f0f3a"/>
                        </g>
                        <g id="Group_1199118" data-name="Group 1199118" transform="translate(8.924 1.072)">
                          <path id="Path_1025415" data-name="Path 1025415" d="M311.284,217.738a1.4,1.4,0,0,1,.57.868,3.791,3.791,0,0,1-.974-.225,30.4,30.4,0,0,0-4.715-1.434.523.523,0,0,1-.361-.157.2.2,0,0,1,.061-.251,1.55,1.55,0,0,1,1.015-.376A6.2,6.2,0,0,1,311.284,217.738Z" transform="translate(-305.779 -216.153)" fill="#0f0f3a"/>
                        </g>
                        <g id="Group_1199120" data-name="Group 1199120" transform="translate(1.541 1.815)">
                          <g id="Group_1199119" data-name="Group 1199119" transform="translate(0 1.682)">
                            <path id="Path_1025416" data-name="Path 1025416" d="M289.484,222.124a.7.7,0,1,0,.8-.6A.711.711,0,0,0,289.484,222.124Z" transform="translate(-289.475 -221.511)" fill="#0f0f3a"/>
                            <path id="Path_1025417" data-name="Path 1025417" d="M308.346,223.766a.828.828,0,0,0,.5,1.052.81.81,0,0,0,1.029-.52.828.828,0,0,0-.5-1.052A.81.81,0,0,0,308.346,223.766Z" transform="translate(-299.777 -222.436)" fill="#0f0f3a"/>
                          </g>
                          <path id="Path_1025418" data-name="Path 1025418" d="M294.774,217.795a16.407,16.407,0,0,1,.507,3.285,3.435,3.435,0,0,1-.7,2.665c-.216.215-.5.394-.592.684a.875.875,0,0,0,.331.9,2.569,2.569,0,0,0,.926.416" transform="translate(-291.929 -217.795)" fill="none" stroke="#0f0f3a" stroke-linecap="round" stroke-linejoin="round" stroke-miterlimit="10" stroke-width="0.459"/>
                        </g>
                      </g>
                      <g id="Group_1199122" data-name="Group 1199122" transform="translate(0 13.202)">
                        <path id="Path_1025419" data-name="Path 1025419" d="M285.313,229.01s1.887-1.17,6.186-.8a68.17,68.17,0,0,1,10.219,2.056s.5,3.6-1.246,5.631-3.781,3-7.811,2.952-5.639-2.066-6.734-5.356S285.313,229.01,285.313,229.01Z" transform="translate(-285.208 -224.455)" fill="#fff"/>
                        <path id="Path_1025420" data-name="Path 1025420" d="M324.873,220a2.17,2.17,0,0,0-.82.488c-1.913,1.1-3.285,5.5-3.3,5.55a.124.124,0,0,1-.117.088.071.071,0,0,1-.034-.01.119.119,0,0,1-.083-.151C320.588,225.713,322.364,220.046,324.873,220Z" transform="translate(-304.525 -220.002)" fill="#fff"/>
                        <path id="Path_1025421" data-name="Path 1025421" d="M324.616,237.869a13.7,13.7,0,0,1-3.139.371h0a.122.122,0,0,1,0-.244,16.475,16.475,0,0,0,1.7-.1c.186-.024.371-.049.561-.083A3.27,3.27,0,0,0,324.616,237.869Z" transform="translate(-304.985 -229.747)" fill="#fff"/>
                      </g>
                    </g>
                  </g>
                </g>
                <path id="Path_1025422" data-name="Path 1025422" d="M280.3,348.829s-1.582,18.559,9.864,20.459,18.671-8.983,19.008-15.217-.708-8.089-.708-8.089Z" transform="translate(-261.247 -275.739)" fill="#4978d6"/>
                <g id="Group_1199127" data-name="Group 1199127" transform="translate(11.633 71.296)">
                  <path id="Path_1025423" data-name="Path 1025423" d="M272.591,387.4a35.049,35.049,0,0,0-7.946.642,1.041,1.041,0,0,0-.5.24.643.643,0,0,0-.135.477,7.582,7.582,0,0,0,.857,2.888l1.891,4.211a2.113,2.113,0,0,0,.469.742,3.046,3.046,0,0,0,2.344.361,37.832,37.832,0,0,0,5.477-1.269l5.839-1.66a38.581,38.581,0,0,0,.1-4.157c-.028-.888.126-2.119-.782-2.68a4.661,4.661,0,0,0-2.733-.2C275.833,387.168,274.218,387.347,272.591,387.4Z" transform="translate(-264.006 -369.422)" fill="#f4dcdc"/>
                  <g id="Group_1199126" data-name="Group 1199126" transform="translate(14.048)">
                    <path id="Path_1025424" data-name="Path 1025424" d="M318.789,349.364s11.731-3.465,17.179,2.145-2.095,15.6-11.134,19.261-29.8,4.141-29.8,4.141l.079-7.091Z" transform="translate(-295.031 -348.306)" fill="#476bd1"/>
                    <path id="Path_1025425" data-name="Path 1025425" d="M343.812,353.861c.1-.056,12.808-2.157,12.683-.359s-7.148,2.447-14.229,4.865" transform="translate(-320.879 -350.752)" fill="none" stroke="#0f0f3a" stroke-linecap="round" stroke-linejoin="round" stroke-miterlimit="10" stroke-width="0.269"/>
                    <path id="Path_1025426" data-name="Path 1025426" d="M339.645,361.368s7.716-5.754,13.523-5.461" transform="translate(-319.444 -352.459)" fill="none" stroke="#0f0f3a" stroke-linecap="round" stroke-linejoin="round" stroke-miterlimit="10" stroke-width="0.539"/>
                  </g>
                </g>
              </g>
              <g id="Group_1199129" data-name="Group 1199129" transform="translate(5.716 57.974)">
                <path id="Path_1025427" data-name="Path 1025427" d="M297.159,410.2a23.477,23.477,0,0,1,2.092,5.93.691.691,0,0,1-.043.436.627.627,0,0,1-.373.242,8.528,8.528,0,0,1-2.818.254l-4.324-.094a2.3,2.3,0,0,1-.807-.115,2.257,2.257,0,0,1-1.1-1.582,24.661,24.661,0,0,1-.718-4.337l-.5-4.716q1.775-.746,3.612-1.324c.787-.248,1.816-.731,2.611-.245a3.312,3.312,0,0,1,1.086,1.914C296.278,407.791,296.66,409.011,297.159,410.2Z" transform="translate(-271.532 -364.667)" fill="#ffe9e9"/>
                <path id="Path_1025428" data-name="Path 1025428" d="M273.008,337.336s-9.27-22.542-16.4-20.621c-6.275,1.69-5.867,7.248-5.472,11.606s10.794,23.543,16,30.083l8.391-.844A65.5,65.5,0,0,0,273.008,337.336Z" transform="translate(-250.938 -316.599)" fill="#527de8"/>
                <path id="Path_1025429" data-name="Path 1025429" d="M266.718,316.71a42.308,42.308,0,0,1,5.916,5.525c2.934,3.309,6.721,8.63,8.083,15.185,2.582,12.413,3.358,19.934,3.383,20.2v0a.064.064,0,0,0,.063.054h0a.061.061,0,0,0,.054-.068c0-.01-.014-.137-.039-.376v-.01c-.19-1.684-1.059-8.844-3.343-19.832a28.408,28.408,0,0,0-2.216-6.463.6.6,0,0,0-.049-.1c-.386-.82-.811-1.606-1.25-2.353a.613.613,0,0,0-.053-.1,40.062,40.062,0,0,0-4.549-6.233,42.986,42.986,0,0,0-5.735-5.389Z" transform="translate(-259.573 -316.66)" fill="#0f0f3a"/>
              </g>
              <g id="Group_1199139" data-name="Group 1199139" transform="translate(19.696 51.133)">
                <path id="Path_1025430" data-name="Path 1025430" d="M300.2,355.2s-2.038-7.743-2.116-11.072q-.007-.256,0-.483v-.054l13.413-7.141s.034.029.1.078c.088.068.225.181.405.327,1.562,1.269,6.258,5.125,6.985,6.243C319.859,344.444,300.2,355.2,300.2,355.2Z" transform="translate(-290.715 -320.62)" fill="#f78d46"/>
                <g id="Group_1199130" data-name="Group 1199130" transform="translate(7.365 15.907)">
                  <path id="Path_1025431" data-name="Path 1025431" d="M299.88,353.5a2.793,2.793,0,0,0-.23,1.357,1.858,1.858,0,0,0,.621,1.222,1.793,1.793,0,0,0,1.739.293,1.368,1.368,0,0,0,.566-.383,1.741,1.741,0,0,0,.291-1.312,3.084,3.084,0,0,0-.479-1.46C301.527,351.959,300.39,352.273,299.88,353.5Z" transform="translate(-298.932 -345.263)" fill="#ffb149"/>
                  <path id="Path_1025432" data-name="Path 1025432" d="M312,336.931c-2.128,5.931-7.585,7.016-11.007,7.076-.107,0-.215,0-.317,0q-.542,0-1-.028a13.2,13.2,0,0,1-1.6-.171q-.007-.242,0-.457a.149.149,0,0,1,.063,0c.43.088,10.475,1.949,13.447-6.734C311.683,336.686,311.82,336.793,312,336.931Z" transform="translate(-298.081 -336.622)" fill="#0f0f3a"/>
                </g>
                <g id="Group_1199135" data-name="Group 1199135" transform="translate(1.219)">
                  <path id="Path_1025433" data-name="Path 1025433" d="M305.074,316.865s-.332,6.526-3.739,9.5-7.976,3-9.933,2.724-5.018-1.381-6.35-4.095-.039-5.8,1.747-8.132c.068-.093.137-.186.2-.283.918-1.338,1.391-3.075,2.279-4.476a4.781,4.781,0,0,1,3.09-2.26c3.656-.835,8.64,2.309,8.64,2.309A8.587,8.587,0,0,1,305.074,316.865Z" transform="translate(-284.506 -305.986)" fill="#ff954d"/>
                  <path id="Path_1025434" data-name="Path 1025434" d="M319.892,310.62s4.212-4.674,6.169-4.175-1.233,10.371-1.881,10.7S319.892,310.62,319.892,310.62Z" transform="translate(-303.87 -304.181)" fill="#ff954d"/>
                  <path id="Path_1025435" data-name="Path 1025435" d="M290.225,310.655s-1.965-8.238-1.008-8.957c1.657-1.246,7.155,3.528,7.155,3.528Z" transform="translate(-286.94 -301.49)" fill="#ff954d"/>
                  <g id="Group_1199134" data-name="Group 1199134" transform="translate(2.419 4.154)">
                    <g id="Group_1199131" data-name="Group 1199131" transform="translate(15.172 0.081)">
                      <path id="Path_1025436" data-name="Path 1025436" d="M326.014,311.227a1.678,1.678,0,0,1,.524-.345.592.592,0,0,1,.593.09.809.809,0,0,1,.148.71,8.721,8.721,0,0,1-.4,1.51l-.95,2.885a1.052,1.052,0,0,1-.286.513.727.727,0,0,1-.871-.061,2.42,2.42,0,0,1-.559-.751c-.506-.878-1.338-1.464-.5-2.36A29.458,29.458,0,0,1,326.014,311.227Z" transform="translate(-323.357 -310.843)" fill="#f2a6a0"/>
                      <path id="Path_1025437" data-name="Path 1025437" d="M324.951,318.6c.191-.245.553-.432.8-.247a.653.653,0,0,1,.182.613,1.651,1.651,0,0,0-.019.665,1.367,1.367,0,0,1,.517-.832c.179-.134.465-.208.6-.033a.524.524,0,0,1,.05.412,4.014,4.014,0,0,1-.941,2.342,1.105,1.105,0,0,1-1.806-.74A3.546,3.546,0,0,1,324.951,318.6Z" transform="translate(-323.885 -314.913)" fill="#ff954d"/>
                    </g>
                    <g id="Group_1199133" data-name="Group 1199133">
                      <path id="Path_1025438" data-name="Path 1025438" d="M295.244,331.835q.77,1,1.586,1.962a.759.759,0,0,0,.193.18.8.8,0,0,0,.591,0,11.437,11.437,0,0,1,2.842-.355c.241,0,.532-.02.642-.235a.508.508,0,0,0,.035-.294,1.571,1.571,0,0,0-.618-1.007,3.9,3.9,0,0,0-1.073-.552,15.287,15.287,0,0,0-2.578-.718C296.17,330.688,294.351,330.677,295.244,331.835Z" transform="translate(-292.669 -321.66)" fill="#0f0f3a"/>
                      <path id="Path_1025439" data-name="Path 1025439" d="M326.783,325.518a7.823,7.823,0,0,1,1.084,2.536" transform="translate(-310.06 -318.792)" fill="none" stroke="#0f0f3a" stroke-linecap="round" stroke-linejoin="round" stroke-miterlimit="10" stroke-width="0.269"/>
                      <path id="Path_1025440" data-name="Path 1025440" d="M295.775,316.744a4.241,4.241,0,0,1-.171,1.152c-.122.649-.078,1.323-.21,1.967a1.893,1.893,0,0,1-1.127,1.508,2.365,2.365,0,0,1-.669.073,5.156,5.156,0,0,1-2.309-.454,2.788,2.788,0,0,1-1.43-1.62c-.005-.015-.005-.034-.01-.049a26.153,26.153,0,0,1,2.649-4.3c.366-.234.416-.543.846-.509a2.769,2.769,0,0,1,1.547.8A2.341,2.341,0,0,1,295.775,316.744Z" transform="translate(-289.849 -312.766)" fill="#ffe9e9"/>
                      <path id="Path_1025441" data-name="Path 1025441" d="M291.761,315.675a12.009,12.009,0,0,1,4.2-5.011" transform="translate(-290.895 -310.664)" fill="none" stroke="#0f0f3a" stroke-linecap="round" stroke-linejoin="round" stroke-miterlimit="10" stroke-width="0.269"/>
                      <g id="Group_1199132" data-name="Group 1199132" transform="translate(2.615 5.816)">
                        <path id="Path_1025442" data-name="Path 1025442" d="M313.285,328.848a.665.665,0,1,1-.665-.665A.665.665,0,0,1,313.285,328.848Z" transform="translate(-304.562 -326.066)" fill="#0f0f3a"/>
                        <path id="Path_1025443" data-name="Path 1025443" d="M296.954,324.173a.665.665,0,1,1-.665-.665A.665.665,0,0,1,296.954,324.173Z" transform="translate(-295.625 -323.508)" fill="#0f0f3a"/>
                      </g>
                      <path id="Path_1025444" data-name="Path 1025444" d="M298.926,337.086s-.3.305-.832,4.538" transform="translate(-294.361 -325.122)" fill="none" stroke="#0f0f3a" stroke-linecap="round" stroke-linejoin="round" stroke-miterlimit="10" stroke-width="0.268"/>
                    </g>
                  </g>
                </g>
                <g id="Group_1199137" data-name="Group 1199137" transform="translate(10.542 25.305)">
                  <path id="Path_1025445" data-name="Path 1025445" d="M313.857,361.072s-1.635,10.162-2.006,11.763c-.2.84-1.445,1.162-2.758,1.22-.039,0-.083.005-.127.005a11.515,11.515,0,0,1-1.674-.078c-.049-.005-.1-.014-.142-.019v-.005a5.2,5.2,0,0,1-.986-.21c-.019,0-.034-.014-.053-.019a.779.779,0,0,1-.215-.132.31.31,0,0,1-.039-.044,2.744,2.744,0,0,1-.571-1.533c0-.01-.005-.02-.005-.034a20.794,20.794,0,0,1,.644-6.98,16.442,16.442,0,0,1,2.27-5.179.132.132,0,0,1,.02-.034A15.38,15.38,0,0,1,310,357.513Z" transform="translate(-305.148 -357.452)" fill="#f78d46"/>
                  <g id="Group_1199136" data-name="Group 1199136">
                    <path id="Path_1025446" data-name="Path 1025446" d="M306.057,373.716a.066.066,0,0,1-.039-.014c-1.112-.922-1.233-4.467-.289-8.429a28.4,28.4,0,0,1,3.691-7.869.061.061,0,0,1,.1.069,28.247,28.247,0,0,0-3.672,7.828c-.935,3.918-.83,7.411.248,8.305a.062.062,0,0,1,.008.087A.063.063,0,0,1,306.057,373.716Z" transform="translate(-305.096 -357.378)" fill="#0f0f3a"/>
                    <path id="Path_1025447" data-name="Path 1025447" d="M308.969,390.827v0a5.689,5.689,0,0,1-.449-2.431c0-.034.034-.063.063-.058a.058.058,0,0,1,.058.063,5.581,5.581,0,0,0,.469,2.451C309.062,390.842,309.013,390.832,308.969,390.827Z" transform="translate(-306.967 -374.317)" fill="#0f0f3a"/>
                    <path id="Path_1025448" data-name="Path 1025448" d="M313.138,391.168c-.039,0-.083.005-.127.005l-.073-.19c-.034-.078-.063-.161-.093-.249a4.532,4.532,0,0,1-.244-1.894.065.065,0,0,1,.068-.054.061.061,0,0,1,.054.068,4.447,4.447,0,0,0,.234,1.84c.029.083.063.166.093.244S313.109,391.089,313.138,391.168Z" transform="translate(-309.194 -374.565)" fill="#0f0f3a"/>
                  </g>
                </g>
                <g id="Group_1199138" data-name="Group 1199138" transform="translate(0 23.717)">
                  <path id="Path_1025449" data-name="Path 1025449" d="M288.973,370.24c-.249.7-1.542.8-2.875.669l-.132-.014a14.146,14.146,0,0,1-2.187-.405c-.049-.014-.093-.024-.137-.034a4.886,4.886,0,0,1-.61-.215c-.942-.439-1.86-2.807-.615-8.688a10.351,10.351,0,0,1,6.555-7.537l.63-.146.723,6.98C288.329,362.928,289.461,368.869,288.973,370.24Z" transform="translate(-281.814 -353.869)" fill="#ff954d"/>
                  <path id="Path_1025450" data-name="Path 1025450" d="M285.624,386.435c-.049-.014-.093-.024-.137-.034a11.763,11.763,0,0,1-.283-3.334.069.069,0,0,1,.068-.058.057.057,0,0,1,.054.063A11.44,11.44,0,0,0,285.624,386.435Z" transform="translate(-283.659 -369.814)" fill="#0f0f3a"/>
                  <path id="Path_1025451" data-name="Path 1025451" d="M290.592,387.61l-.132-.014a9.571,9.571,0,0,1-.43-3.148.056.056,0,0,1,.058-.058h0a.064.064,0,0,1,.058.063A9.492,9.492,0,0,0,290.592,387.61Z" transform="translate(-286.307 -370.57)" fill="#0f0f3a"/>
                </g>
              </g>
              <g id="Group_1199142" data-name="Group 1199142" transform="translate(26.065 64.328)">
                <path id="Path_1025452" data-name="Path 1025452" d="M331.632,331.446l-14.207,15.7,3.406,4.544s15.315-10.125,17.641-13.085l-3.268-7.973Z" transform="translate(-307.67 -330.632)" fill="#ffe9e9"/>
                <path id="Path_1025453" data-name="Path 1025453" d="M348.09,335.538a9.2,9.2,0,0,0-5.575,1.02,6.358,6.358,0,0,1,2.787-2.1" transform="translate(-321.4 -332.725)" fill="none" stroke="#0f0f3a" stroke-linecap="round" stroke-linejoin="round" stroke-miterlimit="10" stroke-width="0.268"/>
                <g id="Group_1199141" data-name="Group 1199141" transform="translate(0 17.122)">
                  <g id="Group_1199140" data-name="Group 1199140">
                    <path id="Path_1025454" data-name="Path 1025454" d="M306.091,368.447s-9.885,5.857-10.2,6.875,4.529,4.2,6.439,3.418,6.163-7.085,6.163-7.085Z" transform="translate(-295.88 -368.447)" fill="#f2a6a0"/>
                    <path id="Path_1025455" data-name="Path 1025455" d="M307.543,368.447s-8.161,1.328-8.93,2.056,4.234.82,4.234.82l3.334-.528Z" transform="translate(-297.332 -368.447)" fill="#f2a6a0"/>
                  </g>
                  <path id="Path_1025456" data-name="Path 1025456" d="M298.035,382.083s4.045-2.745,5.332-3.827" transform="translate(-297.059 -373.815)" fill="none" stroke="#0f0f3a" stroke-linecap="round" stroke-linejoin="round" stroke-miterlimit="10" stroke-width="0.268"/>
                  <line id="Line_3575" data-name="Line 3575" y1="3.865" x2="5.049" transform="translate(2.671 5.546)" fill="none" stroke="#0f0f3a" stroke-linecap="round" stroke-linejoin="round" stroke-miterlimit="10" stroke-width="0.268"/>
                  <line id="Line_3576" data-name="Line 3576" y1="3.529" x2="4.224" transform="translate(4.624 6.709)" fill="none" stroke="#0f0f3a" stroke-linecap="round" stroke-linejoin="round" stroke-miterlimit="10" stroke-width="0.268"/>
                </g>
              </g>
            </g>
          </g>
        </g>
        <g id="Group_1199176" data-name="Group 1199176" transform="translate(2.792 107.823)">
          <g id="Group_1199160" data-name="Group 1199160" transform="translate(167.373)">
            <path id="Path_1025457" data-name="Path 1025457" d="M431.409,388.408c0,.94-5.456,1.7-12.187,1.7s-12.187-.762-12.187-1.7,5.457-1.7,12.187-1.7S431.409,387.468,431.409,388.408Z" transform="translate(-397.609 -338.984)" fill="#000061"/>
            <g id="Group_1199155" data-name="Group 1199155" transform="translate(0 8.055)">
              <g id="Group_1199154" data-name="Group 1199154">
                <g id="Group_1199147" data-name="Group 1199147" transform="translate(23.917 32.12)">
                  <g id="Group_1199146" data-name="Group 1199146">
                    <path id="Path_1025458" data-name="Path 1025458" d="M439.5,381.21l-.462-.071a20.871,20.871,0,0,1,2.866-7.458A8.762,8.762,0,0,1,444.09,371a3.669,3.669,0,0,1,3.414-.637l-.167.436a3.211,3.211,0,0,0-2.969.577,8.332,8.332,0,0,0-2.062,2.543A20.415,20.415,0,0,0,439.5,381.21Z" transform="translate(-439.039 -370.113)" fill="#0f0f3a"/>
                    <path id="Path_1025459" data-name="Path 1025459" d="M457.761,375.365a9.69,9.69,0,0,0,1.57,4.626,3.64,3.64,0,0,0,4.358,1.287,3.454,3.454,0,0,0,1.6-3.341,7.1,7.1,0,0,0-1.554-3.544,15.531,15.531,0,0,0-3.4-3.332,5.351,5.351,0,0,0-1.781-.915c-1.428-.356-2.026.183-1.587,1.463A20.6,20.6,0,0,1,457.761,375.365Z" transform="translate(-448.772 -370.038)" fill="#00ccbe"/>
                  </g>
                  <path id="Path_1025460" data-name="Path 1025460" d="M465.5,382.53a.092.092,0,0,1-.093-.063,29.158,29.158,0,0,0-5.7-9.864.09.09,0,0,1,0-.129.089.089,0,0,1,.129,0,29.37,29.37,0,0,1,5.744,9.932.092.092,0,0,1-.059.115Z" transform="translate(-450.332 -371.357)" fill="#0f0f3a"/>
                </g>
                <g id="Group_1199149" data-name="Group 1199149" transform="translate(23.833 10.756)">
                  <g id="Group_1199148" data-name="Group 1199148">
                    <path id="Path_1025461" data-name="Path 1025461" d="M439.381,368.388l-.467.023a47.465,47.465,0,0,1,2.074-16.459,12.047,12.047,0,0,1,2.981-5.459l.315.344a11.47,11.47,0,0,0-2.85,5.253A47.016,47.016,0,0,0,439.381,368.388Z" transform="translate(-438.855 -335.789)" fill="#0f0f3a"/>
                    <path id="Path_1025462" data-name="Path 1025462" d="M450.952,329.744a15.519,15.519,0,0,1,2.03-3.208,12.658,12.658,0,0,1,3.886-2.735,8.9,8.9,0,0,1,2.313-.867,5.223,5.223,0,0,1,5.049,1.992,2.693,2.693,0,0,1,.614,1.81,3.183,3.183,0,0,1-.832,1.639c-3.159,3.826-8.244,5.5-13.161,6.172C446.934,335.081,450,331.571,450.952,329.744Z" transform="translate(-444.357 -322.853)" fill="#00ccbe"/>
                  </g>
                  <path id="Path_1025463" data-name="Path 1025463" d="M453.145,333.963a.088.088,0,0,1-.062-.019.091.091,0,0,1-.015-.128c.06-.076,6.029-7.543,12.735-8.229h0a.091.091,0,0,1,.016.182c-6.632.677-12.553,8.085-12.611,8.16A.087.087,0,0,1,453.145,333.963Z" transform="translate(-446.621 -324.348)" fill="#0f0f3a"/>
                </g>
                <g id="Group_1199151" data-name="Group 1199151" transform="translate(13.887)">
                  <g id="Group_1199150" data-name="Group 1199150" transform="translate(0 0.071)">
                    <path id="Path_1025464" data-name="Path 1025464" d="M434.416,365.988l-.466.033a180.854,180.854,0,0,0-3.241-23.858l.458-.094A181.3,181.3,0,0,1,434.416,365.988Z" transform="translate(-424.451 -322.683)" fill="#0f0f3a"/>
                    <path id="Path_1025465" data-name="Path 1025465" d="M417.055,306.521a11.723,11.723,0,0,1-.027-3.724,4.552,4.552,0,0,1,1.959-3.06c1.894-1.139,4.5-.13,5.8,1.66a11.3,11.3,0,0,1,1.654,6.317,29.207,29.207,0,0,1-.581,7.4,16.133,16.133,0,0,1-1.265,3.8c-.767,1.5-.916,1.566-2.192.456C418.857,316.291,417.611,310.971,417.055,306.521Z" transform="translate(-416.888 -299.255)" fill="#00ccbe"/>
                  </g>
                  <path id="Path_1025466" data-name="Path 1025466" d="M427.327,316.813a.091.091,0,0,1-.1-.076L424.338,299.2a.09.09,0,0,1,.075-.1h.009a.091.091,0,0,1,.1.077l2.893,17.532a.09.09,0,0,1-.075.1Z" transform="translate(-420.964 -299.098)" fill="#0f0f3a"/>
                </g>
                <g id="Group_1199153" data-name="Group 1199153" transform="translate(0 28.537)">
                  <g id="Group_1199152" data-name="Group 1199152">
                    <path id="Path_1025467" data-name="Path 1025467" d="M426.052,377.256c-4.317-14.557-8.814-14.641-8.859-14.64l-.017-.467c.2-.008,4.873-.031,9.324,14.974Z" transform="translate(-403.159 -362.138)" fill="#0f0f3a"/>
                    <path id="Path_1025468" data-name="Path 1025468" d="M391.769,365.907a18.467,18.467,0,0,0-5.214,8.564c-.42,1.452-.613,3.206.428,4.3a3.491,3.491,0,0,0,2.838.879,7.955,7.955,0,0,0,5.521-3.471,23.573,23.573,0,0,0,2.843-6.071l1.8-5.048c.542-1.52,1.789-3.179-.492-2.907A14.455,14.455,0,0,0,391.769,365.907Z" transform="translate(-386.218 -362.125)" fill="#00ccbe"/>
                  </g>
                  <path id="Path_1025469" data-name="Path 1025469" d="M387.805,380.663a.1.1,0,0,1-.042-.007.091.091,0,0,1-.048-.119c.05-.119,5.1-11.891,11.29-15.113a.094.094,0,0,1,.123.039.092.092,0,0,1-.039.124c-6.135,3.191-11.156,14.9-11.206,15.021A.093.093,0,0,1,387.805,380.663Z" transform="translate(-387.033 -363.925)" fill="#0f0f3a"/>
                </g>
              </g>
            </g>
            <g id="Group_1199157" data-name="Group 1199157" transform="translate(23.44)">
              <path id="Path_1025470" data-name="Path 1025470" d="M451.649,287.847a19.418,19.418,0,0,1,.219-3.946,3.786,3.786,0,0,1,1.261-2.457.622.622,0,0,1,.285-.133c.271-.031.473.239.58.488a6.349,6.349,0,0,1,.274,2.894q-.2,3.359-.407,6.719c-.107,1.774-.215,3.548-.458,5.309a34.672,34.672,0,0,1,1.7-7.131,12.735,12.735,0,0,1,1.328-2.842,5.68,5.68,0,0,1,2.317-2.075.7.7,0,0,1,.595-.061.59.59,0,0,1,.248.31,2.9,2.9,0,0,1-.425,2.326l-4.973,9.918c.67-.821,1.339-1.643,2.019-2.455,1.651-1.971,3.471-3.962,5.89-4.847.569-.208,1.337-.287,1.657.224a1.331,1.331,0,0,1-.247,1.388c-1.552,2.285-4.373,3.3-6.53,5.034a11.963,11.963,0,0,1-1.516,1.155,2.409,2.409,0,0,1-1.832.314,1.54,1.54,0,0,1-1.048-1.621,16.988,16.988,0,0,0-.426-2.6A41.02,41.02,0,0,1,451.649,287.847Z" transform="translate(-445.456 -281.31)" fill="#ffe9e9"/>
              <g id="Group_1199156" data-name="Group 1199156" transform="translate(0 14.77)">
                <path id="Path_1025471" data-name="Path 1025471" d="M438.349,357.261l-.363-.009c.007-.257.728-25.84,6.954-35.663l.307.194C439.074,331.522,438.355,357,438.349,357.261Z" transform="translate(-437.986 -318.121)" fill="#0f0f3a"/>
                <path id="Path_1025472" data-name="Path 1025472" d="M452.769,318.189l.052-4.259,3.639,1.827Z" transform="translate(-446.076 -313.93)" fill="#0f0f3a"/>
              </g>
              <path id="Path_1025473" data-name="Path 1025473" d="M440.547,325.55c-.035.229.935,1.368,1.084,1.649a10.855,10.855,0,0,1,.846,2.1,7.917,7.917,0,0,1,.273,4.3c-1.039-.472-1.673-2.648-1.951-3.69A10.691,10.691,0,0,1,440.547,325.55Z" transform="translate(-439.323 -305.519)" fill="#0f0f3a"/>
            </g>
            <g id="Group_1199159" data-name="Group 1199159" transform="translate(9.425 49.427)">
              <path id="Path_1025474" data-name="Path 1025474" d="M431.412,390.471l-2.757,11.9-.059.244-.077.34-1.82,7.906-.054.244-.829,3.559-.082.34H411.9l-.086-.448-.389-1.983-.059-.24-.833-4.211-1.277-6.47-.421-2.142-.059-.249-1.739-8.789Z" transform="translate(-407.034 -390.471)" fill="#ff5776"/>
              <g id="Group_1199158" data-name="Group 1199158">
                <path id="Path_1025475" data-name="Path 1025475" d="M409.565,401.6a2.056,2.056,0,0,1-.312.054l-.421-2.142-.059-.249-1.739-8.789h5.343a5.963,5.963,0,0,1,.878,1.843C414.057,395.1,412.934,400.79,409.565,401.6Z" transform="translate(-407.034 -390.471)" fill="#f2a6a0"/>
                <path id="Path_1025476" data-name="Path 1025476" d="M446.063,418.041l-1.82,7.906-.054.245-.829,3.559a4.09,4.09,0,0,1-4.111-2.7,4.894,4.894,0,0,1,0-2.427,8.41,8.41,0,0,1,3.092-4.836A11.139,11.139,0,0,1,446.063,418.041Z" transform="translate(-424.578 -405.558)" fill="#f2a6a0"/>
                <path id="Path_1025477" data-name="Path 1025477" d="M434.3,399.683a3.491,3.491,0,0,0,1.8,1.668,3.619,3.619,0,0,0,1.161.416,3.369,3.369,0,0,0,1.8-.369,4.273,4.273,0,0,0,1.586-1.132,4.038,4.038,0,0,0,.715-1.484c.578-2.093-.57-5.572-3.356-4.925C436.025,394.318,433.527,397.672,434.3,399.683Z" transform="translate(-421.877 -392.281)" fill="#f2a6a0"/>
                <path id="Path_1025478" data-name="Path 1025478" d="M419.83,433.022a2.938,2.938,0,0,1-.946.942,8.03,8.03,0,0,1-2.2,1.263,3.442,3.442,0,0,1-.647.145l-.389-1.983-.059-.24-.833-4.211a3.822,3.822,0,0,1,2.9-.24,3.726,3.726,0,0,1,2.368,3.179A2.144,2.144,0,0,1,419.83,433.022Z" transform="translate(-411.259 -411.289)" fill="#f2a6a0"/>
                <path id="Path_1025479" data-name="Path 1025479" d="M427.845,419.139a1.908,1.908,0,0,0,.663.486,2.624,2.624,0,0,0,2.646-.226,2.191,2.191,0,0,0,.734-2.489c-.4-.978-2.009-1.918-3.053-1.459C427.677,415.959,427.023,418.153,427.845,419.139Z" transform="translate(-418.221 -404.074)" fill="#f2a6a0"/>
              </g>
            </g>
          </g>
          <g id="Group_1199175" data-name="Group 1199175" transform="translate(0 0.403)">
            <path id="Path_1025480" data-name="Path 1025480" d="M39.818,389.3c0,.94,5.456,1.7,12.187,1.7s12.187-.762,12.187-1.7-5.457-1.7-12.187-1.7S39.818,388.357,39.818,389.3Z" transform="translate(-29.289 -339.873)" fill="#000061"/>
            <g id="Group_1199170" data-name="Group 1199170" transform="translate(0 8.055)">
              <g id="Group_1199169" data-name="Group 1199169">
                <g id="Group_1199162" data-name="Group 1199162" transform="translate(3.886 32.12)">
                  <g id="Group_1199161" data-name="Group 1199161">
                    <path id="Path_1025481" data-name="Path 1025481" d="M50.952,382.1l.462-.071a20.864,20.864,0,0,0-2.866-7.458,8.764,8.764,0,0,0-2.186-2.681,3.669,3.669,0,0,0-3.414-.638l.167.436a3.211,3.211,0,0,1,2.969.577,8.327,8.327,0,0,1,2.062,2.543A20.415,20.415,0,0,1,50.952,382.1Z" transform="translate(-34.889 -371.002)" fill="#0f0f3a"/>
                    <path id="Path_1025482" data-name="Path 1025482" d="M32.685,376.254a9.689,9.689,0,0,1-1.57,4.626,3.64,3.64,0,0,1-4.358,1.287,3.454,3.454,0,0,1-1.6-3.341,7.1,7.1,0,0,1,1.554-3.544,15.542,15.542,0,0,1,3.4-3.332,5.352,5.352,0,0,1,1.781-.915c1.428-.356,2.026.183,1.587,1.463A20.53,20.53,0,0,0,32.685,376.254Z" transform="translate(-25.148 -370.927)" fill="#00ccbe"/>
                  </g>
                  <path id="Path_1025483" data-name="Path 1025483" d="M28.05,383.419a.092.092,0,0,0,.093-.063,29.158,29.158,0,0,1,5.7-9.863.091.091,0,0,0,0-.129.089.089,0,0,0-.129,0,29.369,29.369,0,0,0-5.744,9.932.091.091,0,0,0,.059.115Z" transform="translate(-26.689 -372.246)" fill="#0f0f3a"/>
                </g>
                <g id="Group_1199164" data-name="Group 1199164" transform="translate(0 10.756)">
                  <g id="Group_1199163" data-name="Group 1199163">
                    <path id="Path_1025484" data-name="Path 1025484" d="M54.742,369.276l.467.023a47.464,47.464,0,0,0-2.074-16.459,12.047,12.047,0,0,0-2.981-5.459l-.315.344a11.471,11.471,0,0,1,2.85,5.253A47.006,47.006,0,0,1,54.742,369.276Z" transform="translate(-34.773 -336.678)" fill="#0f0f3a"/>
                    <path id="Path_1025485" data-name="Path 1025485" d="M30.465,330.632a15.522,15.522,0,0,0-2.03-3.208,12.659,12.659,0,0,0-3.886-2.735,8.9,8.9,0,0,0-2.313-.867,5.223,5.223,0,0,0-5.049,1.992,2.693,2.693,0,0,0-.614,1.81,3.182,3.182,0,0,0,.832,1.639c3.159,3.827,8.244,5.5,13.161,6.172C34.483,335.969,31.421,332.46,30.465,330.632Z" transform="translate(-16.565 -323.742)" fill="#00ccbe"/>
                  </g>
                  <path id="Path_1025486" data-name="Path 1025486" d="M32,334.852a.089.089,0,0,0,.062-.019.091.091,0,0,0,.015-.128c-.06-.076-6.029-7.543-12.735-8.229h0a.091.091,0,0,0-.015.182c6.631.677,12.553,8.085,12.611,8.16A.086.086,0,0,0,32,334.852Z" transform="translate(-18.032 -325.237)" fill="#0f0f3a"/>
                </g>
                <g id="Group_1199166" data-name="Group 1199166" transform="translate(20.477)">
                  <g id="Group_1199165" data-name="Group 1199165" transform="translate(0 0.071)">
                    <path id="Path_1025487" data-name="Path 1025487" d="M61.789,366.877l.466.033A180.774,180.774,0,0,1,65.5,343.052l-.458-.094A181.16,181.16,0,0,0,61.789,366.877Z" transform="translate(-61.789 -323.572)" fill="#0f0f3a"/>
                    <path id="Path_1025488" data-name="Path 1025488" d="M72.054,307.41a11.708,11.708,0,0,0,.026-3.724,4.55,4.55,0,0,0-1.959-3.06c-1.894-1.139-4.5-.13-5.8,1.66a11.3,11.3,0,0,0-1.654,6.317,29.226,29.226,0,0,0,.581,7.4,16.133,16.133,0,0,0,1.265,3.8c.767,1.5.916,1.566,2.192.456C70.251,317.18,71.5,311.86,72.054,307.41Z" transform="translate(-62.256 -300.144)" fill="#00ccbe"/>
                  </g>
                  <path id="Path_1025489" data-name="Path 1025489" d="M69.641,317.7a.091.091,0,0,0,.1-.077l2.893-17.532a.09.09,0,0,0-.075-.1h-.009a.092.092,0,0,0-.1.077L69.558,317.6a.09.09,0,0,0,.075.1Z" transform="translate(-66.039 -299.988)" fill="#0f0f3a"/>
                </g>
                <g id="Group_1199168" data-name="Group 1199168" transform="translate(20.987 28.537)">
                  <g id="Group_1199167" data-name="Group 1199167">
                    <path id="Path_1025490" data-name="Path 1025490" d="M63.365,378.145c4.317-14.557,8.813-14.641,8.859-14.64l.017-.467c-.2-.008-4.873-.031-9.324,14.974Z" transform="translate(-62.916 -363.027)" fill="#0f0f3a"/>
                    <path id="Path_1025491" data-name="Path 1025491" d="M91.272,366.8a18.467,18.467,0,0,1,5.214,8.564c.42,1.452.613,3.206-.428,4.3a3.491,3.491,0,0,1-2.838.879,7.955,7.955,0,0,1-5.521-3.471A23.573,23.573,0,0,1,84.856,371l-1.8-5.048c-.542-1.52-1.789-3.179.492-2.907A14.453,14.453,0,0,1,91.272,366.8Z" transform="translate(-73.482 -363.014)" fill="#00ccbe"/>
                  </g>
                  <path id="Path_1025492" data-name="Path 1025492" d="M99.065,381.552a.1.1,0,0,0,.042-.007.091.091,0,0,0,.048-.119c-.05-.119-5.1-11.891-11.29-15.113a.1.1,0,0,0-.123.039.092.092,0,0,0,.038.124c6.136,3.191,11.156,14.9,11.206,15.021A.093.093,0,0,0,99.065,381.552Z" transform="translate(-76.496 -364.814)" fill="#0f0f3a"/>
                </g>
              </g>
            </g>
            <g id="Group_1199172" data-name="Group 1199172" transform="translate(2.471)">
              <path id="Path_1025493" data-name="Path 1025493" d="M34.248,288.737a19.45,19.45,0,0,0-.219-3.946,3.787,3.787,0,0,0-1.261-2.457.622.622,0,0,0-.285-.133c-.27-.031-.473.239-.58.488a6.343,6.343,0,0,0-.273,2.894q.2,3.359.407,6.719c.107,1.774.215,3.548.458,5.309a34.672,34.672,0,0,0-1.7-7.131,12.735,12.735,0,0,0-1.328-2.842,5.673,5.673,0,0,0-2.317-2.075.7.7,0,0,0-.595-.061.587.587,0,0,0-.247.31,2.9,2.9,0,0,0,.425,2.326l4.973,9.918c-.67-.821-1.339-1.643-2.019-2.455-1.651-1.971-3.471-3.962-5.89-4.847-.569-.208-1.337-.287-1.657.224a1.332,1.332,0,0,0,.247,1.388c1.552,2.285,4.373,3.3,6.53,5.034a11.976,11.976,0,0,0,1.516,1.155,2.409,2.409,0,0,0,1.832.314,1.54,1.54,0,0,0,1.048-1.622,16.994,16.994,0,0,1,.426-2.6A41,41,0,0,0,34.248,288.737Z" transform="translate(-22.023 -282.199)" fill="#ffe9e9"/>
              <g id="Group_1199171" data-name="Group 1199171" transform="translate(8.033 14.77)">
                <path id="Path_1025494" data-name="Path 1025494" d="M53.56,358.15l.363-.01c-.007-.257-.728-25.84-6.954-35.663l-.307.194C52.835,332.411,53.554,357.894,53.56,358.15Z" transform="translate(-43.538 -319.01)" fill="#0f0f3a"/>
                <path id="Path_1025495" data-name="Path 1025495" d="M43.455,319.078l-.053-4.259-3.639,1.827Z" transform="translate(-39.763 -314.819)" fill="#0f0f3a"/>
              </g>
              <path id="Path_1025496" data-name="Path 1025496" d="M57.088,326.439c.035.229-.935,1.369-1.084,1.649a10.838,10.838,0,0,0-.846,2.1,7.917,7.917,0,0,0-.273,4.3c1.039-.472,1.673-2.648,1.951-3.69A10.691,10.691,0,0,0,57.088,326.439Z" transform="translate(-39.894 -306.408)" fill="#0f0f3a"/>
            </g>
            <g id="Group_1199174" data-name="Group 1199174" transform="translate(10.524 49.427)">
              <path id="Path_1025497" data-name="Path 1025497" d="M64.186,391.36l-1.738,8.789-.059.249-.421,2.142-.032.168-.38,1.924-.865,4.378-.833,4.211-.059.24-.217,1.109-.172.874-.086.448H45.486l-.082-.34-.312-1.349-.611-2.631L42.7,403.843l-.077-.34-.059-.244-2.757-11.9Z" transform="translate(-39.808 -391.36)" fill="#ff954d"/>
              <g id="Group_1199173" data-name="Group 1199173" transform="translate(2.941 1.517)">
                <path id="Path_1025498" data-name="Path 1025498" d="M68.783,410.594h0a.771.771,0,0,1-1.062-.235l-2.484-3.891a.772.772,0,0,1,.235-1.062h0a.771.771,0,0,1,1.062.235l2.484,3.891A.771.771,0,0,1,68.783,410.594Z" transform="translate(-56.599 -400.497)" fill="#faf4e8"/>
                <path id="Path_1025499" data-name="Path 1025499" d="M51,418.921h0a.772.772,0,0,1-1.062-.235L47.457,414.8a.771.771,0,0,1,.235-1.062h0a.771.771,0,0,1,1.062.235l2.484,3.891A.771.771,0,0,1,51,418.921Z" transform="translate(-46.869 -405.054)" fill="#faf4e8"/>
                <path id="Path_1025500" data-name="Path 1025500" d="M60.726,430.424h0a.771.771,0,0,1,.331-1.035l4.1-2.114a.771.771,0,0,1,1.036.331h0a.771.771,0,0,1-.331,1.035l-4.1,2.114A.771.771,0,0,1,60.726,430.424Z" transform="translate(-54.15 -412.484)" fill="#faf4e8"/>
                <path id="Path_1025501" data-name="Path 1025501" d="M84.753,416.42l-.38,1.924-1.748.9a.769.769,0,1,1-.7-1.367Z" transform="translate(-65.567 -406.59)" fill="#faf4e8"/>
                <path id="Path_1025502" data-name="Path 1025502" d="M79.395,438.968l-.172.874-.086.448h-.675l-2.3-3.12a.768.768,0,0,1,1.236-.91Z" transform="translate(-62.562 -417.275)" fill="#faf4e8"/>
                <path id="Path_1025503" data-name="Path 1025503" d="M53.8,440.292H51.985L50.74,438.6l-.611-2.631a.754.754,0,0,1,.8.29l2.735,3.717A.841.841,0,0,1,53.8,440.292Z" transform="translate(-48.397 -417.277)" fill="#faf4e8"/>
                <path id="Path_1025504" data-name="Path 1025504" d="M77.924,398.862h0a.771.771,0,0,1,.235-1.062l3.891-2.484a.771.771,0,0,1,1.062.235h0a.772.772,0,0,1-.235,1.062L78.986,399.1A.771.771,0,0,1,77.924,398.862Z" transform="translate(-63.541 -394.976)" fill="#faf4e8"/>
                <path id="Path_1025505" data-name="Path 1025505" d="M46.424,398.375h0a.771.771,0,0,1,.235-1.062l3.891-2.483a.771.771,0,0,1,1.062.234h0a.772.772,0,0,1-.235,1.062l-3.891,2.484A.772.772,0,0,1,46.424,398.375Z" transform="translate(-46.304 -394.71)" fill="#faf4e8"/>
              </g>
            </g>
          </g>
        </g>
      </g>
    </g>
  </g>
</svg>
