<svg xmlns="http://www.w3.org/2000/svg" width="1020" height="500" viewBox="0 0 1020 500">
  <g id="img15" transform="translate(-290 -5014)">
    <rect id="Rectangle_461455" data-name="Rectangle 461455" width="1020" height="500" rx="9" transform="translate(290 5014)" fill="#fff7ed"/>
    <g id="Group_1197758" data-name="Group 1197758" transform="translate(2695.581 14163.827)">
      <path id="Path_1020506" data-name="Path 1020506" d="M137.143.5h-85.5a8.4,8.4,0,0,0-7.275,4.2L1.626,78.742a8.4,8.4,0,0,0,0,8.4l42.747,74.04a8.4,8.4,0,0,0,7.275,4.2h85.5a8.4,8.4,0,0,0,7.275-4.2l42.748-74.04a8.4,8.4,0,0,0,0-8.4L144.418,4.7A8.4,8.4,0,0,0,137.143.5Z" transform="translate(-2197.081 -9049.154)" fill="#fff"/>
      <path id="Path_1020507" data-name="Path 1020507" d="M129.6,12.7H55.482a4.38,4.38,0,0,0-3.793,2.19L14.63,79.08a4.38,4.38,0,0,0,0,4.38l37.059,64.188a4.38,4.38,0,0,0,3.793,2.19H129.6a4.38,4.38,0,0,0,3.793-2.19L170.451,83.46a4.38,4.38,0,0,0,0-4.38L133.392,14.892A4.38,4.38,0,0,0,129.6,12.7" transform="translate(-2195.225 -9047.482)" fill="#959a79"/>
      <path id="Path_1020508" data-name="Path 1020508" d="M55.163,146.889a1.753,1.753,0,0,1-1.515-.876L16.591,81.826a1.747,1.747,0,0,1,0-1.749L53.649,15.889a1.754,1.754,0,0,1,1.515-.874h74.118a1.754,1.754,0,0,1,1.515.874l37.059,64.188a1.753,1.753,0,0,1,0,1.749L130.8,146.013a1.753,1.753,0,0,1-1.515.876Z" transform="translate(-2194.908 -9047.165)" fill="#bac197"/>
      <path id="Path_1020509" data-name="Path 1020509" d="M86.125,186.638h0a25.262,25.262,0,0,1-25.262-25.261V115.589h50.525v45.788a25.262,25.262,0,0,1-25.262,25.261" transform="translate(-2188.81 -9033.386)" fill="#bac197"/>
      <path id="Path_1020510" data-name="Path 1020510" d="M113.6,30.98H65.631A6.245,6.245,0,0,0,60.222,34.1L36.239,75.643a6.243,6.243,0,0,0,0,6.243l23.983,41.541a6.245,6.245,0,0,0,5.409,3.122H113.6A6.245,6.245,0,0,0,119,123.428l23.983-41.541a6.243,6.243,0,0,0,0-6.243L119,34.1A6.245,6.245,0,0,0,113.6,30.98Z" transform="translate(-2192.298 -9044.978)" fill="none" stroke="#fff" stroke-miterlimit="10" stroke-width="1.157"/>
      <g id="Group_1198966" data-name="Group 1198966" transform="translate(-2134.581 -8995.827)">
        <path id="Path_1025166" data-name="Path 1025166" d="M10,19a9,9,0,1,0-9-9,9,9,0,0,0,9,9Zm2.556-2.49a6.911,6.911,0,0,1-5.112,0V13a1,1,0,0,1,1-1h3.112a1,1,0,0,1,1,1ZM8.75,7.777A1.25,1.25,0,1,1,10,9.027a1.25,1.25,0,0,1-1.25-1.25ZM10,3a6.992,6.992,0,0,1,4.556,12.3V13a3,3,0,0,0-2.285-2.9,3.25,3.25,0,1,0-4.542,0A3,3,0,0,0,5.444,13v2.3A6.992,6.992,0,0,1,10,3Z" fill="#4a4e3c"/>
        <path id="Path_1025167" data-name="Path 1025167" d="M19,32a9,9,0,1,0-9,9A9,9,0,0,0,19,32ZM5.444,35v2.3a7,7,0,1,1,9.112,0V35a3,3,0,0,0-2.285-2.9,3.25,3.25,0,1,0-4.542,0A3,3,0,0,0,5.444,35Zm5.806-5.223A1.25,1.25,0,1,1,10,28.527,1.25,1.25,0,0,1,11.25,29.777ZM7.444,35a1,1,0,0,1,1-1h3.112a1,1,0,0,1,1,1v3.51a6.911,6.911,0,0,1-5.112,0Z" fill="#4a4e3c" opacity="0.3"/>
        <path id="Path_1025168" data-name="Path 1025168" d="M10,45a9,9,0,1,0,9,9,9,9,0,0,0-9-9Zm2.556,15.51a6.911,6.911,0,0,1-5.112,0V57a1,1,0,0,1,1-1h3.112a1,1,0,0,1,1,1ZM8.75,51.777A1.25,1.25,0,1,1,10,53.027,1.25,1.25,0,0,1,8.75,51.777ZM14.556,59.3V57a3,3,0,0,0-2.285-2.9,3.25,3.25,0,1,0-4.542,0A3,3,0,0,0,5.444,57v2.3a7,7,0,1,1,9.112,0Z" fill="#4a4e3c" opacity="0.3"/>
        <path id="Path_1025169" data-name="Path 1025169" d="M36.951,8.746a1,1,0,0,0-.807-.68L33.758,7.72,32.69,5.558a1.04,1.04,0,0,0-1.793,0L29.83,7.72l-2.386.346a1,1,0,0,0-.554,1.7l1.727,1.684-.408,2.376a1,1,0,0,0,1.45,1.054l2.135-1.121,2.135,1.121a1,1,0,0,0,1.452-1.054l-.407-2.376L36.7,9.771a1,1,0,0,0,.251-1.025ZM33.2,10.39a1,1,0,0,0-.287.884l.153.9-.806-.424a1,1,0,0,0-.93,0l-.807.423.155-.9a1,1,0,0,0-.287-.884l-.653-.636.9-.131a1,1,0,0,0,.753-.547l.4-.816.4.816a1,1,0,0,0,.753.547l.9.131Z" fill="#4a4e3c"/>
        <path id="Path_1025170" data-name="Path 1025170" d="M49.951,8.746a1,1,0,0,0-.807-.68L46.758,7.72,45.69,5.558a1.04,1.04,0,0,0-1.793,0L42.83,7.72l-2.386.346a1,1,0,0,0-.554,1.705l1.727,1.684-.408,2.376a1,1,0,0,0,1.45,1.054l2.135-1.121,2.135,1.121a1,1,0,0,0,1.452-1.054l-.407-2.376L49.7,9.771a1,1,0,0,0,.251-1.025ZM46.2,10.39a1,1,0,0,0-.287.884l.153.9-.806-.424a1,1,0,0,0-.93,0l-.807.423.155-.9a1,1,0,0,0-.287-.884l-.653-.636.9-.131a1,1,0,0,0,.753-.547l.4-.816.4.816a1,1,0,0,0,.753.547l.9.131Z" fill="#4a4e3c"/>
        <path id="Path_1025171" data-name="Path 1025171" d="M62.951,8.746a1,1,0,0,0-.807-.68L59.758,7.72,58.69,5.558a1.04,1.04,0,0,0-1.793,0L55.83,7.72l-2.386.346a1,1,0,0,0-.554,1.705l1.727,1.684-.408,2.376a1,1,0,0,0,1.45,1.054l2.135-1.121,2.135,1.121a1,1,0,0,0,1.452-1.054l-.407-2.376L62.7,9.771a1,1,0,0,0,.251-1.025ZM59.2,10.39a1,1,0,0,0-.287.884l.153.9-.806-.424a1,1,0,0,0-.93,0l-.807.423.155-.9a1,1,0,0,0-.287-.884l-.653-.636.9-.131a1,1,0,0,0,.753-.547l.4-.816.4.816a1,1,0,0,0,.753.547l.9.131Z" fill="#4a4e3c"/>
        <path id="Path_1025172" data-name="Path 1025172" d="M36.951,30.746a1,1,0,0,0-.807-.68l-2.386-.346L32.69,27.558a1.04,1.04,0,0,0-1.793,0L29.83,29.72l-2.386.346a1,1,0,0,0-.554,1.7l1.727,1.684-.408,2.376a1,1,0,0,0,1.45,1.054l2.135-1.121,2.135,1.121a1,1,0,0,0,1.452-1.054l-.407-2.376L36.7,31.771a1,1,0,0,0,.251-1.025ZM33.2,32.39a1,1,0,0,0-.287.884l.153.9-.806-.424a1,1,0,0,0-.93,0l-.807.423.155-.9a1,1,0,0,0-.287-.884l-.653-.636.9-.131a1,1,0,0,0,.753-.547l.4-.816.4.816a1,1,0,0,0,.753.547l.9.131Z" fill="#4a4e3c" opacity="0.3"/>
        <path id="Path_1025173" data-name="Path 1025173" d="M49.951,30.746a1,1,0,0,0-.807-.68l-2.386-.346L45.69,27.558a1.04,1.04,0,0,0-1.793,0L42.83,29.72l-2.386.346a1,1,0,0,0-.554,1.7l1.727,1.684-.408,2.376a1,1,0,0,0,1.45,1.054l2.135-1.121,2.135,1.121a1,1,0,0,0,1.452-1.054l-.407-2.376L49.7,31.771a1,1,0,0,0,.251-1.025ZM46.2,32.39a1,1,0,0,0-.287.884l.153.9-.806-.424a1,1,0,0,0-.93,0l-.807.423.155-.9a1,1,0,0,0-.287-.884l-.653-.636.9-.131a1,1,0,0,0,.753-.547l.4-.816.4.816a1,1,0,0,0,.753.547l.9.131Z" fill="#4a4e3c" opacity="0.3"/>
        <path id="Path_1025174" data-name="Path 1025174" d="M36.144,52.066l-2.386-.346L32.69,49.558a1.04,1.04,0,0,0-1.793,0L29.83,51.72l-2.386.346a1,1,0,0,0-.554,1.7l1.727,1.684-.408,2.376a1,1,0,0,0,1.45,1.054l2.135-1.121,2.135,1.121a1,1,0,0,0,1.452-1.054l-.407-2.376L36.7,53.771a1,1,0,0,0-.554-1.7ZM33.2,54.39a1,1,0,0,0-.287.884l.153.9-.806-.424a1,1,0,0,0-.93,0l-.807.423.155-.9a1,1,0,0,0-.287-.884l-.653-.636.9-.131a1,1,0,0,0,.753-.547l.4-.816.4.816a1,1,0,0,0,.753.547l.9.131Z" fill="#4a4e3c" opacity="0.3"/>
        <path id="Path_1025175" data-name="Path 1025175" d="M22,2h2V18H22Z" fill="#4a4e3c"/>
        <path id="Path_1025176" data-name="Path 1025176" d="M22,24h2V40H22Z" fill="#4a4e3c" opacity="0.3"/>
        <path id="Path_1025177" data-name="Path 1025177" d="M22,46h2V62H22Z" fill="#4a4e3c" opacity="0.3"/>
        <path id="Path_1025178" data-name="Path 1025178" d="M1,20H63v2H1Z" fill="#4a4e3c"/>
        <path id="Path_1025179" data-name="Path 1025179" d="M1,42H63v2H1Z" fill="#4a4e3c" opacity="0.3"/>
      </g>
    </g>
    <g id="Group_1198967" data-name="Group 1198967" transform="translate(2903.685 14163.827)">
      <path id="Path_1020506-2" data-name="Path 1020506" d="M137.143.5h-85.5a8.4,8.4,0,0,0-7.275,4.2L1.626,78.742a8.4,8.4,0,0,0,0,8.4l42.747,74.04a8.4,8.4,0,0,0,7.275,4.2h85.5a8.4,8.4,0,0,0,7.275-4.2l42.748-74.04a8.4,8.4,0,0,0,0-8.4L144.418,4.7A8.4,8.4,0,0,0,137.143.5Z" transform="translate(-2197.081 -9049.154)" fill="#fff"/>
      <path id="Path_1020507-2" data-name="Path 1020507" d="M129.6,12.7H55.482a4.38,4.38,0,0,0-3.793,2.19L14.63,79.08a4.38,4.38,0,0,0,0,4.38l37.059,64.188a4.38,4.38,0,0,0,3.793,2.19H129.6a4.38,4.38,0,0,0,3.793-2.19L170.451,83.46a4.38,4.38,0,0,0,0-4.38L133.392,14.892A4.38,4.38,0,0,0,129.6,12.7" transform="translate(-2195.225 -9047.482)" fill="#959a79"/>
      <path id="Path_1020508-2" data-name="Path 1020508" d="M55.163,146.889a1.753,1.753,0,0,1-1.515-.876L16.591,81.826a1.747,1.747,0,0,1,0-1.749L53.649,15.889a1.754,1.754,0,0,1,1.515-.874h74.118a1.754,1.754,0,0,1,1.515.874l37.059,64.188a1.753,1.753,0,0,1,0,1.749L130.8,146.013a1.753,1.753,0,0,1-1.515.876Z" transform="translate(-2194.908 -9047.165)" fill="#bac197"/>
      <path id="Path_1020509-2" data-name="Path 1020509" d="M86.125,186.638h0a25.262,25.262,0,0,1-25.262-25.261V115.589h50.525v45.788a25.262,25.262,0,0,1-25.262,25.261" transform="translate(-2188.81 -9033.386)" fill="#bac197"/>
      <path id="Path_1020510-2" data-name="Path 1020510" d="M113.6,30.98H65.631A6.245,6.245,0,0,0,60.222,34.1L36.239,75.643a6.243,6.243,0,0,0,0,6.243l23.983,41.541a6.245,6.245,0,0,0,5.409,3.122H113.6A6.245,6.245,0,0,0,119,123.428l23.983-41.541a6.243,6.243,0,0,0,0-6.243L119,34.1A6.245,6.245,0,0,0,113.6,30.98Z" transform="translate(-2192.298 -9044.978)" fill="none" stroke="#fff" stroke-miterlimit="10" stroke-width="1.157"/>
      <g id="Group_1198966-2" data-name="Group 1198966" transform="translate(-2134.581 -8995.827)">
        <path id="Path_1025166-2" data-name="Path 1025166" d="M10,19a9,9,0,1,0-9-9,9,9,0,0,0,9,9Zm2.556-2.49a6.911,6.911,0,0,1-5.112,0V13a1,1,0,0,1,1-1h3.112a1,1,0,0,1,1,1ZM8.75,7.777A1.25,1.25,0,1,1,10,9.027a1.25,1.25,0,0,1-1.25-1.25ZM10,3a6.992,6.992,0,0,1,4.556,12.3V13a3,3,0,0,0-2.285-2.9,3.25,3.25,0,1,0-4.542,0A3,3,0,0,0,5.444,13v2.3A6.992,6.992,0,0,1,10,3Z" fill="#4a4e3c" opacity="0.3"/>
        <path id="Path_1025167-2" data-name="Path 1025167" d="M19,32a9,9,0,1,0-9,9A9,9,0,0,0,19,32ZM5.444,35v2.3a7,7,0,1,1,9.112,0V35a3,3,0,0,0-2.285-2.9,3.25,3.25,0,1,0-4.542,0A3,3,0,0,0,5.444,35Zm5.806-5.223A1.25,1.25,0,1,1,10,28.527,1.25,1.25,0,0,1,11.25,29.777ZM7.444,35a1,1,0,0,1,1-1h3.112a1,1,0,0,1,1,1v3.51a6.911,6.911,0,0,1-5.112,0Z" fill="#4a4e3c"/>
        <path id="Path_1025168-2" data-name="Path 1025168" d="M10,45a9,9,0,1,0,9,9,9,9,0,0,0-9-9Zm2.556,15.51a6.911,6.911,0,0,1-5.112,0V57a1,1,0,0,1,1-1h3.112a1,1,0,0,1,1,1ZM8.75,51.777A1.25,1.25,0,1,1,10,53.027,1.25,1.25,0,0,1,8.75,51.777ZM14.556,59.3V57a3,3,0,0,0-2.285-2.9,3.25,3.25,0,1,0-4.542,0A3,3,0,0,0,5.444,57v2.3a7,7,0,1,1,9.112,0Z" fill="#4a4e3c" opacity="0.3"/>
        <path id="Path_1025169-2" data-name="Path 1025169" d="M36.951,8.746a1,1,0,0,0-.807-.68L33.758,7.72,32.69,5.558a1.04,1.04,0,0,0-1.793,0L29.83,7.72l-2.386.346a1,1,0,0,0-.554,1.7l1.727,1.684-.408,2.376a1,1,0,0,0,1.45,1.054l2.135-1.121,2.135,1.121a1,1,0,0,0,1.452-1.054l-.407-2.376L36.7,9.771a1,1,0,0,0,.251-1.025ZM33.2,10.39a1,1,0,0,0-.287.884l.153.9-.806-.424a1,1,0,0,0-.93,0l-.807.423.155-.9a1,1,0,0,0-.287-.884l-.653-.636.9-.131a1,1,0,0,0,.753-.547l.4-.816.4.816a1,1,0,0,0,.753.547l.9.131Z" fill="#4a4e3c" opacity="0.3"/>
        <path id="Path_1025170-2" data-name="Path 1025170" d="M49.951,8.746a1,1,0,0,0-.807-.68L46.758,7.72,45.69,5.558a1.04,1.04,0,0,0-1.793,0L42.83,7.72l-2.386.346a1,1,0,0,0-.554,1.705l1.727,1.684-.408,2.376a1,1,0,0,0,1.45,1.054l2.135-1.121,2.135,1.121a1,1,0,0,0,1.452-1.054l-.407-2.376L49.7,9.771a1,1,0,0,0,.251-1.025ZM46.2,10.39a1,1,0,0,0-.287.884l.153.9-.806-.424a1,1,0,0,0-.93,0l-.807.423.155-.9a1,1,0,0,0-.287-.884l-.653-.636.9-.131a1,1,0,0,0,.753-.547l.4-.816.4.816a1,1,0,0,0,.753.547l.9.131Z" fill="#4a4e3c" opacity="0.3"/>
        <path id="Path_1025171-2" data-name="Path 1025171" d="M62.951,8.746a1,1,0,0,0-.807-.68L59.758,7.72,58.69,5.558a1.04,1.04,0,0,0-1.793,0L55.83,7.72l-2.386.346a1,1,0,0,0-.554,1.705l1.727,1.684-.408,2.376a1,1,0,0,0,1.45,1.054l2.135-1.121,2.135,1.121a1,1,0,0,0,1.452-1.054l-.407-2.376L62.7,9.771a1,1,0,0,0,.251-1.025ZM59.2,10.39a1,1,0,0,0-.287.884l.153.9-.806-.424a1,1,0,0,0-.93,0l-.807.423.155-.9a1,1,0,0,0-.287-.884l-.653-.636.9-.131a1,1,0,0,0,.753-.547l.4-.816.4.816a1,1,0,0,0,.753.547l.9.131Z" fill="#4a4e3c" opacity="0.3"/>
        <path id="Path_1025172-2" data-name="Path 1025172" d="M36.951,30.746a1,1,0,0,0-.807-.68l-2.386-.346L32.69,27.558a1.04,1.04,0,0,0-1.793,0L29.83,29.72l-2.386.346a1,1,0,0,0-.554,1.7l1.727,1.684-.408,2.376a1,1,0,0,0,1.45,1.054l2.135-1.121,2.135,1.121a1,1,0,0,0,1.452-1.054l-.407-2.376L36.7,31.771a1,1,0,0,0,.251-1.025ZM33.2,32.39a1,1,0,0,0-.287.884l.153.9-.806-.424a1,1,0,0,0-.93,0l-.807.423.155-.9a1,1,0,0,0-.287-.884l-.653-.636.9-.131a1,1,0,0,0,.753-.547l.4-.816.4.816a1,1,0,0,0,.753.547l.9.131Z" fill="#4a4e3c"/>
        <path id="Path_1025173-2" data-name="Path 1025173" d="M49.951,30.746a1,1,0,0,0-.807-.68l-2.386-.346L45.69,27.558a1.04,1.04,0,0,0-1.793,0L42.83,29.72l-2.386.346a1,1,0,0,0-.554,1.7l1.727,1.684-.408,2.376a1,1,0,0,0,1.45,1.054l2.135-1.121,2.135,1.121a1,1,0,0,0,1.452-1.054l-.407-2.376L49.7,31.771a1,1,0,0,0,.251-1.025ZM46.2,32.39a1,1,0,0,0-.287.884l.153.9-.806-.424a1,1,0,0,0-.93,0l-.807.423.155-.9a1,1,0,0,0-.287-.884l-.653-.636.9-.131a1,1,0,0,0,.753-.547l.4-.816.4.816a1,1,0,0,0,.753.547l.9.131Z" fill="#4a4e3c"/>
        <path id="Path_1025174-2" data-name="Path 1025174" d="M36.144,52.066l-2.386-.346L32.69,49.558a1.04,1.04,0,0,0-1.793,0L29.83,51.72l-2.386.346a1,1,0,0,0-.554,1.7l1.727,1.684-.408,2.376a1,1,0,0,0,1.45,1.054l2.135-1.121,2.135,1.121a1,1,0,0,0,1.452-1.054l-.407-2.376L36.7,53.771a1,1,0,0,0-.554-1.7ZM33.2,54.39a1,1,0,0,0-.287.884l.153.9-.806-.424a1,1,0,0,0-.93,0l-.807.423.155-.9a1,1,0,0,0-.287-.884l-.653-.636.9-.131a1,1,0,0,0,.753-.547l.4-.816.4.816a1,1,0,0,0,.753.547l.9.131Z" fill="#4a4e3c" opacity="0.3"/>
        <path id="Path_1025175-2" data-name="Path 1025175" d="M22,2h2V18H22Z" fill="#4a4e3c" opacity="0.3"/>
        <path id="Path_1025176-2" data-name="Path 1025176" d="M22,24h2V40H22Z" fill="#4a4e3c"/>
        <path id="Path_1025177-2" data-name="Path 1025177" d="M22,46h2V62H22Z" fill="#4a4e3c" opacity="0.3"/>
        <path id="Path_1025178-2" data-name="Path 1025178" d="M1,20H63v2H1Z" fill="#4a4e3c"/>
        <path id="Path_1025179-2" data-name="Path 1025179" d="M1,42H63v2H1Z" fill="#4a4e3c"/>
      </g>
    </g>
    <g id="Group_1198968" data-name="Group 1198968" transform="translate(3110.789 14163.827)">
      <path id="Path_1020506-3" data-name="Path 1020506" d="M137.143.5h-85.5a8.4,8.4,0,0,0-7.275,4.2L1.626,78.742a8.4,8.4,0,0,0,0,8.4l42.747,74.04a8.4,8.4,0,0,0,7.275,4.2h85.5a8.4,8.4,0,0,0,7.275-4.2l42.748-74.04a8.4,8.4,0,0,0,0-8.4L144.418,4.7A8.4,8.4,0,0,0,137.143.5Z" transform="translate(-2197.081 -9049.154)" fill="#fff"/>
      <path id="Path_1020507-3" data-name="Path 1020507" d="M129.6,12.7H55.482a4.38,4.38,0,0,0-3.793,2.19L14.63,79.08a4.38,4.38,0,0,0,0,4.38l37.059,64.188a4.38,4.38,0,0,0,3.793,2.19H129.6a4.38,4.38,0,0,0,3.793-2.19L170.451,83.46a4.38,4.38,0,0,0,0-4.38L133.392,14.892A4.38,4.38,0,0,0,129.6,12.7" transform="translate(-2195.225 -9047.482)" fill="#959a79"/>
      <path id="Path_1020508-3" data-name="Path 1020508" d="M55.163,146.889a1.753,1.753,0,0,1-1.515-.876L16.591,81.826a1.747,1.747,0,0,1,0-1.749L53.649,15.889a1.754,1.754,0,0,1,1.515-.874h74.118a1.754,1.754,0,0,1,1.515.874l37.059,64.188a1.753,1.753,0,0,1,0,1.749L130.8,146.013a1.753,1.753,0,0,1-1.515.876Z" transform="translate(-2194.908 -9047.165)" fill="#bac197"/>
      <path id="Path_1020509-3" data-name="Path 1020509" d="M86.125,186.638h0a25.262,25.262,0,0,1-25.262-25.261V115.589h50.525v45.788a25.262,25.262,0,0,1-25.262,25.261" transform="translate(-2188.81 -9033.386)" fill="#bac197"/>
      <path id="Path_1020510-3" data-name="Path 1020510" d="M113.6,30.98H65.631A6.245,6.245,0,0,0,60.222,34.1L36.239,75.643a6.243,6.243,0,0,0,0,6.243l23.983,41.541a6.245,6.245,0,0,0,5.409,3.122H113.6A6.245,6.245,0,0,0,119,123.428l23.983-41.541a6.243,6.243,0,0,0,0-6.243L119,34.1A6.245,6.245,0,0,0,113.6,30.98Z" transform="translate(-2192.298 -9044.978)" fill="none" stroke="#fff" stroke-miterlimit="10" stroke-width="1.157"/>
      <g id="Group_1198966-3" data-name="Group 1198966" transform="translate(-2134.581 -8995.827)">
        <path id="Path_1025166-3" data-name="Path 1025166" d="M10,19a9,9,0,1,0-9-9,9,9,0,0,0,9,9Zm2.556-2.49a6.911,6.911,0,0,1-5.112,0V13a1,1,0,0,1,1-1h3.112a1,1,0,0,1,1,1ZM8.75,7.777A1.25,1.25,0,1,1,10,9.027a1.25,1.25,0,0,1-1.25-1.25ZM10,3a6.992,6.992,0,0,1,4.556,12.3V13a3,3,0,0,0-2.285-2.9,3.25,3.25,0,1,0-4.542,0A3,3,0,0,0,5.444,13v2.3A6.992,6.992,0,0,1,10,3Z" fill="#4a4e3c" opacity="0.3"/>
        <path id="Path_1025167-3" data-name="Path 1025167" d="M19,32a9,9,0,1,0-9,9A9,9,0,0,0,19,32ZM5.444,35v2.3a7,7,0,1,1,9.112,0V35a3,3,0,0,0-2.285-2.9,3.25,3.25,0,1,0-4.542,0A3,3,0,0,0,5.444,35Zm5.806-5.223A1.25,1.25,0,1,1,10,28.527,1.25,1.25,0,0,1,11.25,29.777ZM7.444,35a1,1,0,0,1,1-1h3.112a1,1,0,0,1,1,1v3.51a6.911,6.911,0,0,1-5.112,0Z" fill="#4a4e3c" opacity="0.3"/>
        <path id="Path_1025168-3" data-name="Path 1025168" d="M10,45a9,9,0,1,0,9,9,9,9,0,0,0-9-9Zm2.556,15.51a6.911,6.911,0,0,1-5.112,0V57a1,1,0,0,1,1-1h3.112a1,1,0,0,1,1,1ZM8.75,51.777A1.25,1.25,0,1,1,10,53.027,1.25,1.25,0,0,1,8.75,51.777ZM14.556,59.3V57a3,3,0,0,0-2.285-2.9,3.25,3.25,0,1,0-4.542,0A3,3,0,0,0,5.444,57v2.3a7,7,0,1,1,9.112,0Z" fill="#4a4e3c"/>
        <path id="Path_1025169-3" data-name="Path 1025169" d="M36.951,8.746a1,1,0,0,0-.807-.68L33.758,7.72,32.69,5.558a1.04,1.04,0,0,0-1.793,0L29.83,7.72l-2.386.346a1,1,0,0,0-.554,1.7l1.727,1.684-.408,2.376a1,1,0,0,0,1.45,1.054l2.135-1.121,2.135,1.121a1,1,0,0,0,1.452-1.054l-.407-2.376L36.7,9.771a1,1,0,0,0,.251-1.025ZM33.2,10.39a1,1,0,0,0-.287.884l.153.9-.806-.424a1,1,0,0,0-.93,0l-.807.423.155-.9a1,1,0,0,0-.287-.884l-.653-.636.9-.131a1,1,0,0,0,.753-.547l.4-.816.4.816a1,1,0,0,0,.753.547l.9.131Z" fill="#4a4e3c" opacity="0.3"/>
        <path id="Path_1025170-3" data-name="Path 1025170" d="M49.951,8.746a1,1,0,0,0-.807-.68L46.758,7.72,45.69,5.558a1.04,1.04,0,0,0-1.793,0L42.83,7.72l-2.386.346a1,1,0,0,0-.554,1.705l1.727,1.684-.408,2.376a1,1,0,0,0,1.45,1.054l2.135-1.121,2.135,1.121a1,1,0,0,0,1.452-1.054l-.407-2.376L49.7,9.771a1,1,0,0,0,.251-1.025ZM46.2,10.39a1,1,0,0,0-.287.884l.153.9-.806-.424a1,1,0,0,0-.93,0l-.807.423.155-.9a1,1,0,0,0-.287-.884l-.653-.636.9-.131a1,1,0,0,0,.753-.547l.4-.816.4.816a1,1,0,0,0,.753.547l.9.131Z" fill="#4a4e3c" opacity="0.3"/>
        <path id="Path_1025171-3" data-name="Path 1025171" d="M62.951,8.746a1,1,0,0,0-.807-.68L59.758,7.72,58.69,5.558a1.04,1.04,0,0,0-1.793,0L55.83,7.72l-2.386.346a1,1,0,0,0-.554,1.705l1.727,1.684-.408,2.376a1,1,0,0,0,1.45,1.054l2.135-1.121,2.135,1.121a1,1,0,0,0,1.452-1.054l-.407-2.376L62.7,9.771a1,1,0,0,0,.251-1.025ZM59.2,10.39a1,1,0,0,0-.287.884l.153.9-.806-.424a1,1,0,0,0-.93,0l-.807.423.155-.9a1,1,0,0,0-.287-.884l-.653-.636.9-.131a1,1,0,0,0,.753-.547l.4-.816.4.816a1,1,0,0,0,.753.547l.9.131Z" fill="#4a4e3c" opacity="0.3"/>
        <path id="Path_1025172-3" data-name="Path 1025172" d="M36.951,30.746a1,1,0,0,0-.807-.68l-2.386-.346L32.69,27.558a1.04,1.04,0,0,0-1.793,0L29.83,29.72l-2.386.346a1,1,0,0,0-.554,1.7l1.727,1.684-.408,2.376a1,1,0,0,0,1.45,1.054l2.135-1.121,2.135,1.121a1,1,0,0,0,1.452-1.054l-.407-2.376L36.7,31.771a1,1,0,0,0,.251-1.025ZM33.2,32.39a1,1,0,0,0-.287.884l.153.9-.806-.424a1,1,0,0,0-.93,0l-.807.423.155-.9a1,1,0,0,0-.287-.884l-.653-.636.9-.131a1,1,0,0,0,.753-.547l.4-.816.4.816a1,1,0,0,0,.753.547l.9.131Z" fill="#4a4e3c" opacity="0.3"/>
        <path id="Path_1025173-3" data-name="Path 1025173" d="M49.951,30.746a1,1,0,0,0-.807-.68l-2.386-.346L45.69,27.558a1.04,1.04,0,0,0-1.793,0L42.83,29.72l-2.386.346a1,1,0,0,0-.554,1.7l1.727,1.684-.408,2.376a1,1,0,0,0,1.45,1.054l2.135-1.121,2.135,1.121a1,1,0,0,0,1.452-1.054l-.407-2.376L49.7,31.771a1,1,0,0,0,.251-1.025ZM46.2,32.39a1,1,0,0,0-.287.884l.153.9-.806-.424a1,1,0,0,0-.93,0l-.807.423.155-.9a1,1,0,0,0-.287-.884l-.653-.636.9-.131a1,1,0,0,0,.753-.547l.4-.816.4.816a1,1,0,0,0,.753.547l.9.131Z" fill="#4a4e3c" opacity="0.3"/>
        <path id="Path_1025174-3" data-name="Path 1025174" d="M36.144,52.066l-2.386-.346L32.69,49.558a1.04,1.04,0,0,0-1.793,0L29.83,51.72l-2.386.346a1,1,0,0,0-.554,1.7l1.727,1.684-.408,2.376a1,1,0,0,0,1.45,1.054l2.135-1.121,2.135,1.121a1,1,0,0,0,1.452-1.054l-.407-2.376L36.7,53.771a1,1,0,0,0-.554-1.7ZM33.2,54.39a1,1,0,0,0-.287.884l.153.9-.806-.424a1,1,0,0,0-.93,0l-.807.423.155-.9a1,1,0,0,0-.287-.884l-.653-.636.9-.131a1,1,0,0,0,.753-.547l.4-.816.4.816a1,1,0,0,0,.753.547l.9.131Z" fill="#4a4e3c"/>
        <path id="Path_1025175-3" data-name="Path 1025175" d="M22,2h2V18H22Z" fill="#4a4e3c" opacity="0.3"/>
        <path id="Path_1025176-3" data-name="Path 1025176" d="M22,24h2V40H22Z" fill="#4a4e3c" opacity="0.3"/>
        <path id="Path_1025177-3" data-name="Path 1025177" d="M22,46h2V62H22Z" fill="#4a4e3c"/>
        <path id="Path_1025178-3" data-name="Path 1025178" d="M1,20H63v2H1Z" fill="#4a4e3c" opacity="0.3"/>
        <path id="Path_1025179-3" data-name="Path 1025179" d="M1,42H63v2H1Z" fill="#4a4e3c" opacity="0.3"/>
      </g>
    </g>
    <rect id="Rectangle_461898" data-name="Rectangle 461898" width="188" height="70" rx="10" transform="translate(499 5343)" fill="#ffe3c2"/>
    <rect id="Rectangle_461899" data-name="Rectangle 461899" width="188" height="70" rx="10" transform="translate(707 5342.827)" fill="#ffe3c2"/>
    <rect id="Rectangle_461900" data-name="Rectangle 461900" width="188" height="70" rx="10" transform="translate(915 5342.827)" fill="#ffe3c2"/>
    <path id="Path_1027714" data-name="Path 1027714" d="M57,14.656H52.9L52.114,17H49.622L53.857,5.625h2.172L60.286,17H57.794Zm-3.477-1.9h2.844L54.942,8.5Zm7.829,3.133a1.137,1.137,0,0,1,.363-.875,1.412,1.412,0,0,1,1.828,0,1.137,1.137,0,0,1,.363.875,1.121,1.121,0,0,1-.359.863,1.435,1.435,0,0,1-1.836,0A1.121,1.121,0,0,1,61.357,15.891Zm15.166-1.234H72.414L71.633,17H69.141L73.375,5.625h2.172L79.8,17H77.313Zm-3.477-1.9h2.844L74.461,8.5ZM83.142,17H80.876V5h2.266Zm4.6-10.531V8.547h1.445V10.2H87.744v4.219a1.007,1.007,0,0,0,.18.672.9.9,0,0,0,.688.2,3.6,3.6,0,0,0,.664-.055v1.711a4.648,4.648,0,0,1-1.367.2,2.156,2.156,0,0,1-2.422-2.4V10.2H84.252V8.547h1.234V6.469ZM89.9,12.7a5.013,5.013,0,0,1,.484-2.242A3.546,3.546,0,0,1,91.78,8.93a4.069,4.069,0,0,1,2.113-.539,3.849,3.849,0,0,1,2.793,1.047,4.2,4.2,0,0,1,1.207,2.844l.016.578a4.418,4.418,0,0,1-1.086,3.121,4.209,4.209,0,0,1-5.832,0A4.5,4.5,0,0,1,89.9,12.8Zm2.258.16a3.16,3.16,0,0,0,.453,1.843,1.628,1.628,0,0,0,2.578.008,3.457,3.457,0,0,0,.461-2.015,3.128,3.128,0,0,0-.461-1.831,1.5,1.5,0,0,0-1.3-.649,1.474,1.474,0,0,0-1.281.646A3.516,3.516,0,0,0,92.159,12.856ZM28.882,35.336a1.481,1.481,0,0,0,1.016-.344,1.2,1.2,0,0,0,.406-.914h2.117a2.9,2.9,0,0,1-.469,1.574,3.093,3.093,0,0,1-1.262,1.109,3.949,3.949,0,0,1-1.77.395A3.67,3.67,0,0,1,26.061,36a4.56,4.56,0,0,1-1.047-3.184v-.148a4.508,4.508,0,0,1,1.039-3.117A3.627,3.627,0,0,1,28.9,28.391a3.555,3.555,0,0,1,2.543.9,3.2,3.2,0,0,1,.973,2.4H30.3a1.551,1.551,0,0,0-.406-1.072,1.51,1.51,0,0,0-2.223.163,3.333,3.333,0,0,0-.4,1.866v.235a3.375,3.375,0,0,0,.4,1.878A1.377,1.377,0,0,0,28.882,35.336Zm9.931.8A2.831,2.831,0,0,1,36.5,37.156a2.67,2.67,0,0,1-2.074-.781,3.335,3.335,0,0,1-.73-2.289V28.547h2.258v5.467q0,1.322,1.2,1.322a1.63,1.63,0,0,0,1.578-.8V28.547H41V37H38.875Zm6.048-7.594.07.945a2.971,2.971,0,0,1,2.43-1.1A2.255,2.255,0,0,1,49.6,29.68a2.9,2.9,0,0,1,2.539-1.289,2.521,2.521,0,0,1,2.047.8,3.681,3.681,0,0,1,.672,2.41V37H52.594V31.609a1.61,1.61,0,0,0-.281-1.051,1.246,1.246,0,0,0-.992-.332,1.409,1.409,0,0,0-1.406.969l.008,5.8H47.665V31.617a1.59,1.59,0,0,0-.289-1.062,1.259,1.259,0,0,0-.984-.328,1.463,1.463,0,0,0-1.391.8V37H42.743V28.547Zm19.384,4.3a5.07,5.07,0,0,1-.887,3.129,2.843,2.843,0,0,1-2.395,1.176,2.633,2.633,0,0,1-2.07-.891V40.25H56.634v-11.7h2.094l.078.828a2.654,2.654,0,0,1,2.141-.984,2.862,2.862,0,0,1,2.43,1.156,5.207,5.207,0,0,1,.867,3.188Zm-2.258-.164a3.327,3.327,0,0,0-.418-1.82,1.361,1.361,0,0,0-1.215-.641,1.478,1.478,0,0,0-1.461.813V34.5a1.5,1.5,0,0,0,1.477.836Q61.986,35.336,61.986,32.688ZM68.065,37H65.8V25h2.266Zm4.282,0H70.082V28.547h2.266Zm-2.4-10.641a1.112,1.112,0,0,1,.34-.836,1.465,1.465,0,0,1,1.848,0,1.193,1.193,0,0,1,0,1.68,1.448,1.448,0,0,1-1.836,0A1.108,1.108,0,0,1,69.949,26.359Zm6.415,2.188.07.945a2.971,2.971,0,0,1,2.43-1.1,2.255,2.255,0,0,1,2.242,1.289,2.9,2.9,0,0,1,2.539-1.289,2.521,2.521,0,0,1,2.047.8,3.681,3.681,0,0,1,.672,2.41V37H84.1V31.609a1.61,1.61,0,0,0-.281-1.051,1.246,1.246,0,0,0-.992-.332,1.409,1.409,0,0,0-1.406.969l.008,5.8H79.168V31.617a1.59,1.59,0,0,0-.289-1.062,1.259,1.259,0,0,0-.984-.328,1.463,1.463,0,0,0-1.391.8V37H74.247V28.547ZM90.521,37H88.255V28.547h2.266Zm-2.4-10.641a1.112,1.112,0,0,1,.34-.836,1.465,1.465,0,0,1,1.848,0,1.193,1.193,0,0,1,0,1.68,1.448,1.448,0,0,1-1.836,0A1.108,1.108,0,0,1,88.122,26.359Zm8.188,10.8a4.15,4.15,0,0,1-3.027-1.141,4.054,4.054,0,0,1-1.168-3.039v-.219a5.106,5.106,0,0,1,.492-2.277A3.612,3.612,0,0,1,94,28.934a3.914,3.914,0,0,1,2.059-.543,3.508,3.508,0,0,1,2.73,1.094,4.444,4.444,0,0,1,1,3.1v.922H94.4a2.1,2.1,0,0,0,.66,1.328,2,2,0,0,0,1.395.5,2.437,2.437,0,0,0,2.039-.945l1.109,1.242a3.389,3.389,0,0,1-1.375,1.121A4.511,4.511,0,0,1,96.311,37.156Zm-.258-6.945a1.411,1.411,0,0,0-1.09.455,2.357,2.357,0,0,0-.535,1.3h3.141v-.181a1.681,1.681,0,0,0-.406-1.165A1.456,1.456,0,0,0,96.053,30.211Zm7.134-1.664.07.977a2.951,2.951,0,0,1,2.43-1.133,2.453,2.453,0,0,1,2,.789,3.682,3.682,0,0,1,.672,2.359V37H106.1V31.594a1.465,1.465,0,0,0-.312-1.043,1.4,1.4,0,0,0-1.039-.324,1.553,1.553,0,0,0-1.43.813V37h-2.258V28.547Zm9.626-2.078v2.078h1.445V30.2h-1.445v4.219a1.007,1.007,0,0,0,.18.672.9.9,0,0,0,.688.2,3.6,3.6,0,0,0,.664-.055v1.711a4.648,4.648,0,0,1-1.367.2,2.156,2.156,0,0,1-2.422-2.4V30.2h-1.234V28.547h1.234V26.469ZM114.97,32.7a5.013,5.013,0,0,1,.484-2.242,3.546,3.546,0,0,1,1.395-1.523,4.069,4.069,0,0,1,2.113-.539,3.849,3.849,0,0,1,2.793,1.047,4.2,4.2,0,0,1,1.207,2.844l.016.578a4.418,4.418,0,0,1-1.086,3.121,4.209,4.209,0,0,1-5.832,0,4.5,4.5,0,0,1-1.09-3.187Zm2.258.16a3.16,3.16,0,0,0,.453,1.843,1.628,1.628,0,0,0,2.578.008,3.457,3.457,0,0,0,.461-2.015,3.128,3.128,0,0,0-.461-1.831,1.5,1.5,0,0,0-1.3-.649,1.474,1.474,0,0,0-1.281.646A3.516,3.516,0,0,0,117.228,32.856Z" transform="translate(519 5359)" fill="#12263f"/>
    <path id="Path_1027715" data-name="Path 1027715" d="M14.97,17V5.625h3.984a5.232,5.232,0,0,1,3.141.793,2.712,2.712,0,0,1,1.07,2.324,2.57,2.57,0,0,1-.43,1.473,2.482,2.482,0,0,1-1.2.934,2.4,2.4,0,0,1,1.379.883,2.61,2.61,0,0,1,.5,1.625,3,3,0,0,1-1.047,2.484A4.713,4.713,0,0,1,19.392,17Zm2.344-4.953v3.07h2.008a1.938,1.938,0,0,0,1.293-.395,1.353,1.353,0,0,0,.465-1.09,1.428,1.428,0,0,0-1.617-1.586Zm0-1.656h1.734q1.773-.031,1.773-1.414a1.307,1.307,0,0,0-.449-1.113,2.363,2.363,0,0,0-1.418-.34H17.314Zm7.876,5.5a1.137,1.137,0,0,1,.363-.875,1.412,1.412,0,0,1,1.828,0,1.137,1.137,0,0,1,.363.875,1.121,1.121,0,0,1-.359.863,1.435,1.435,0,0,1-1.836,0A1.121,1.121,0,0,1,25.19,15.891Zm17.674-2.68A4.025,4.025,0,0,1,41.508,16.1a4.76,4.76,0,0,1-3.223,1.055,4.28,4.28,0,0,1-3.441-1.473,6.038,6.038,0,0,1-1.254-4.043v-.7a6.819,6.819,0,0,1,.578-2.891A4.332,4.332,0,0,1,35.82,6.137a5.164,5.164,0,0,1,5.668.387,4.326,4.326,0,0,1,1.391,2.961H40.535a2.376,2.376,0,0,0-.613-1.6,2.271,2.271,0,0,0-1.605-.5,1.991,1.991,0,0,0-1.754.84,4.707,4.707,0,0,0-.6,2.605V11.7a5.038,5.038,0,0,0,.559,2.7,1.954,1.954,0,0,0,1.762.852,2.314,2.314,0,0,0,1.621-.5,2.241,2.241,0,0,0,.613-1.535Zm6.493,2.93a2.831,2.831,0,0,1-2.312,1.016,2.67,2.67,0,0,1-2.074-.781,3.335,3.335,0,0,1-.73-2.289V8.547H46.5v5.467q0,1.322,1.2,1.322a1.63,1.63,0,0,0,1.578-.8V8.547h2.266V17H49.419ZM55.4,8.547l.07.945a2.971,2.971,0,0,1,2.43-1.1A2.255,2.255,0,0,1,60.147,9.68a2.9,2.9,0,0,1,2.539-1.289,2.521,2.521,0,0,1,2.047.8A3.681,3.681,0,0,1,65.4,11.6V17H63.139V11.609a1.61,1.61,0,0,0-.281-1.051,1.246,1.246,0,0,0-.992-.332,1.409,1.409,0,0,0-1.406.969l.008,5.8H58.209V11.617a1.59,1.59,0,0,0-.289-1.062,1.259,1.259,0,0,0-.984-.328,1.463,1.463,0,0,0-1.391.8V17H53.287V8.547Zm19.384,4.3A5.07,5.07,0,0,1,73.9,15.98a2.843,2.843,0,0,1-2.395,1.176,2.633,2.633,0,0,1-2.07-.891V20.25H67.179V8.547h2.094l.078.828a2.654,2.654,0,0,1,2.141-.984,2.862,2.862,0,0,1,2.43,1.156,5.207,5.207,0,0,1,.867,3.188Zm-2.258-.164a3.327,3.327,0,0,0-.418-1.82,1.361,1.361,0,0,0-1.215-.641,1.478,1.478,0,0,0-1.461.813V14.5a1.5,1.5,0,0,0,1.477.836Q72.53,15.336,72.53,12.688ZM78.609,17H76.344V5h2.266Zm4.282,0H80.626V8.547h2.266Zm-2.4-10.641a1.112,1.112,0,0,1,.34-.836,1.465,1.465,0,0,1,1.848,0,1.105,1.105,0,0,1,.344.836,1.108,1.108,0,0,1-.348.844,1.448,1.448,0,0,1-1.836,0A1.108,1.108,0,0,1,80.493,6.359Zm6.415,2.188.07.945a2.971,2.971,0,0,1,2.43-1.1A2.255,2.255,0,0,1,91.65,9.68a2.9,2.9,0,0,1,2.539-1.289,2.521,2.521,0,0,1,2.047.8,3.681,3.681,0,0,1,.672,2.41V17H94.643V11.609a1.61,1.61,0,0,0-.281-1.051,1.246,1.246,0,0,0-.992-.332,1.409,1.409,0,0,0-1.406.969l.008,5.8H89.713V11.617a1.59,1.59,0,0,0-.289-1.062,1.259,1.259,0,0,0-.984-.328,1.463,1.463,0,0,0-1.391.8V17H84.791V8.547ZM101.065,17H98.8V8.547h2.266Zm-2.4-10.641a1.112,1.112,0,0,1,.34-.836,1.465,1.465,0,0,1,1.848,0,1.105,1.105,0,0,1,.344.836,1.108,1.108,0,0,1-.348.844,1.448,1.448,0,0,1-1.836,0A1.108,1.108,0,0,1,98.667,6.359Zm8.188,10.8a4.15,4.15,0,0,1-3.027-1.141,4.054,4.054,0,0,1-1.168-3.039v-.219a5.106,5.106,0,0,1,.492-2.277,3.612,3.612,0,0,1,1.395-1.547,3.914,3.914,0,0,1,2.059-.543,3.508,3.508,0,0,1,2.73,1.094,4.444,4.444,0,0,1,1,3.1v.922h-5.383a2.1,2.1,0,0,0,.66,1.328,2,2,0,0,0,1.395.5,2.437,2.437,0,0,0,2.039-.945l1.109,1.242a3.389,3.389,0,0,1-1.375,1.121A4.511,4.511,0,0,1,106.855,17.156Zm-.258-6.945a1.411,1.411,0,0,0-1.09.455,2.357,2.357,0,0,0-.535,1.3h3.141v-.181a1.681,1.681,0,0,0-.406-1.165A1.456,1.456,0,0,0,106.6,10.211Zm7.134-1.664.07.977a2.951,2.951,0,0,1,2.43-1.133,2.453,2.453,0,0,1,2,.789,3.682,3.682,0,0,1,.672,2.359V17h-2.258V11.594a1.465,1.465,0,0,0-.312-1.043,1.4,1.4,0,0,0-1.039-.324,1.553,1.553,0,0,0-1.43.813V17h-2.258V8.547Zm9.626-2.078V8.547H124.8V10.2h-1.445v4.219a1.007,1.007,0,0,0,.18.672.9.9,0,0,0,.688.2,3.6,3.6,0,0,0,.664-.055v1.711a4.648,4.648,0,0,1-1.367.2,2.156,2.156,0,0,1-2.422-2.4V10.2h-1.234V8.547H121.1V6.469Zm2.157,6.227A5.013,5.013,0,0,1,126,10.453a3.546,3.546,0,0,1,1.395-1.523,4.069,4.069,0,0,1,2.113-.539A3.849,3.849,0,0,1,132.3,9.438a4.2,4.2,0,0,1,1.207,2.844l.016.578a4.418,4.418,0,0,1-1.086,3.121,4.209,4.209,0,0,1-5.832,0,4.5,4.5,0,0,1-1.09-3.187Zm2.258.16a3.16,3.16,0,0,0,.453,1.843,1.628,1.628,0,0,0,2.578.008,3.457,3.457,0,0,0,.461-2.015,3.128,3.128,0,0,0-.461-1.831,1.5,1.5,0,0,0-1.3-.649,1.474,1.474,0,0,0-1.281.646A3.516,3.516,0,0,0,127.772,12.856ZM54.5,28.547l.07.945a2.971,2.971,0,0,1,2.43-1.1,2.255,2.255,0,0,1,2.242,1.289,2.9,2.9,0,0,1,2.539-1.289,2.521,2.521,0,0,1,2.047.8A3.681,3.681,0,0,1,64.5,31.6V37H62.236V31.609a1.61,1.61,0,0,0-.281-1.051,1.246,1.246,0,0,0-.992-.332,1.409,1.409,0,0,0-1.406.969l.008,5.8H57.307V31.617a1.59,1.59,0,0,0-.289-1.062,1.259,1.259,0,0,0-.984-.328,1.463,1.463,0,0,0-1.391.8V37H52.385V28.547Zm15.665,8.609a4.15,4.15,0,0,1-3.027-1.141,4.054,4.054,0,0,1-1.168-3.039v-.219a5.106,5.106,0,0,1,.492-2.277,3.612,3.612,0,0,1,1.395-1.547,3.914,3.914,0,0,1,2.059-.543,3.508,3.508,0,0,1,2.73,1.094,4.444,4.444,0,0,1,1,3.1v.922H68.261a2.1,2.1,0,0,0,.66,1.328,2,2,0,0,0,1.395.5,2.437,2.437,0,0,0,2.039-.945l1.109,1.242a3.389,3.389,0,0,1-1.375,1.121A4.511,4.511,0,0,1,70.167,37.156Zm-.258-6.945a1.411,1.411,0,0,0-1.09.455,2.357,2.357,0,0,0-.535,1.3h3.141v-.181a1.681,1.681,0,0,0-.406-1.165A1.456,1.456,0,0,0,69.909,30.211Zm4.7,2.5a5.094,5.094,0,0,1,.887-3.148,2.877,2.877,0,0,1,2.426-1.172,2.589,2.589,0,0,1,2.039.922V25H82.23V37H80.191l-.109-.9a2.657,2.657,0,0,1-2.172,1.055,2.869,2.869,0,0,1-2.395-1.176A5.258,5.258,0,0,1,74.613,32.711Zm2.258.168a3.337,3.337,0,0,0,.414,1.823,1.349,1.349,0,0,0,1.2.634,1.511,1.511,0,0,0,1.477-.884V31.111a1.489,1.489,0,0,0-1.461-.884Q76.871,30.227,76.871,32.879ZM86.4,37H84.138V28.547H86.4ZM84,26.359a1.112,1.112,0,0,1,.34-.836,1.465,1.465,0,0,1,1.848,0,1.193,1.193,0,0,1,0,1.68,1.448,1.448,0,0,1-1.836,0A1.108,1.108,0,0,1,84,26.359ZM87.951,32.7a5.013,5.013,0,0,1,.484-2.242A3.546,3.546,0,0,1,89.83,28.93a4.069,4.069,0,0,1,2.113-.539,3.849,3.849,0,0,1,2.793,1.047,4.2,4.2,0,0,1,1.207,2.844l.016.578a4.418,4.418,0,0,1-1.086,3.121,4.209,4.209,0,0,1-5.832,0,4.5,4.5,0,0,1-1.09-3.187Zm2.258.16a3.16,3.16,0,0,0,.453,1.843,1.628,1.628,0,0,0,2.578.008,3.457,3.457,0,0,0,.461-2.015,3.128,3.128,0,0,0-.461-1.831,1.5,1.5,0,0,0-1.3-.649,1.474,1.474,0,0,0-1.281.646A3.516,3.516,0,0,0,90.209,32.856Z" transform="translate(727 5358.827)" fill="#12263f"/>
    <path id="Path_1027716" data-name="Path 1027716" d="M58.278,13.211A4.025,4.025,0,0,1,56.923,16.1,4.76,4.76,0,0,1,53.7,17.156a4.28,4.28,0,0,1-3.441-1.473A6.038,6.038,0,0,1,49,11.641v-.7a6.819,6.819,0,0,1,.578-2.891,4.332,4.332,0,0,1,1.652-1.918,5.164,5.164,0,0,1,5.668.387,4.326,4.326,0,0,1,1.391,2.961H55.95a2.376,2.376,0,0,0-.613-1.6,2.271,2.271,0,0,0-1.605-.5,1.991,1.991,0,0,0-1.754.84,4.707,4.707,0,0,0-.6,2.605V11.7a5.038,5.038,0,0,0,.559,2.7,1.954,1.954,0,0,0,1.762.852,2.314,2.314,0,0,0,1.621-.5,2.241,2.241,0,0,0,.613-1.535Zm1.548,2.68a1.137,1.137,0,0,1,.363-.875,1.412,1.412,0,0,1,1.828,0,1.137,1.137,0,0,1,.363.875,1.121,1.121,0,0,1-.359.863,1.435,1.435,0,0,1-1.836,0A1.121,1.121,0,0,1,59.826,15.891ZM68.57,17V5.625h3.984a5.232,5.232,0,0,1,3.141.793,2.712,2.712,0,0,1,1.07,2.324,2.57,2.57,0,0,1-.43,1.473,2.482,2.482,0,0,1-1.2.934,2.4,2.4,0,0,1,1.379.883,2.61,2.61,0,0,1,.5,1.625,3,3,0,0,1-1.047,2.484A4.713,4.713,0,0,1,72.992,17Zm2.344-4.953v3.07h2.008a1.938,1.938,0,0,0,1.293-.395,1.353,1.353,0,0,0,.465-1.09,1.428,1.428,0,0,0-1.617-1.586Zm0-1.656h1.734q1.773-.031,1.773-1.414a1.307,1.307,0,0,0-.449-1.113,2.363,2.363,0,0,0-1.418-.34H70.914ZM83.571,17a2.507,2.507,0,0,1-.227-.758,2.732,2.732,0,0,1-2.133.914,3,3,0,0,1-2.059-.719,2.312,2.312,0,0,1-.816-1.812,2.389,2.389,0,0,1,1-2.062,4.915,4.915,0,0,1,2.879-.727h1.039v-.484a1.393,1.393,0,0,0-.3-.937A1.183,1.183,0,0,0,82,10.063a1.345,1.345,0,0,0-.895.273.929.929,0,0,0-.324.75H78.524a2.268,2.268,0,0,1,.453-1.359,3,3,0,0,1,1.281-.98,4.669,4.669,0,0,1,1.859-.355,3.689,3.689,0,0,1,2.48.785,2.747,2.747,0,0,1,.918,2.207v3.664a4.041,4.041,0,0,0,.336,1.82V17ZM81.7,15.43a1.945,1.945,0,0,0,.922-.223,1.462,1.462,0,0,0,.625-.6V13.156h-.844q-1.7,0-1.8,1.172l-.008.133a.9.9,0,0,0,.3.7A1.153,1.153,0,0,0,81.7,15.43Zm7.978-6.883v8.914a3.024,3.024,0,0,1-.742,2.176,2.821,2.821,0,0,1-2.141.777,4.591,4.591,0,0,1-1.117-.133V18.492a4.238,4.238,0,0,0,.711.07q1.023,0,1.023-1.086V8.547ZM87.236,6.359a1.112,1.112,0,0,1,.34-.836,1.47,1.47,0,0,1,1.852,0,1.112,1.112,0,0,1,.34.836,1.108,1.108,0,0,1-.348.844,1.448,1.448,0,0,1-1.836,0A1.108,1.108,0,0,1,87.236,6.359Zm3.9,6.336a5.013,5.013,0,0,1,.484-2.242A3.546,3.546,0,0,1,93.015,8.93a4.069,4.069,0,0,1,2.113-.539,3.849,3.849,0,0,1,2.793,1.047,4.2,4.2,0,0,1,1.207,2.844l.016.578a4.418,4.418,0,0,1-1.086,3.121,4.209,4.209,0,0,1-5.832,0,4.5,4.5,0,0,1-1.09-3.187Zm2.258.16a3.16,3.16,0,0,0,.453,1.843,1.628,1.628,0,0,0,2.578.008,3.457,3.457,0,0,0,.461-2.015,3.128,3.128,0,0,0-.461-1.831,1.5,1.5,0,0,0-1.3-.649,1.474,1.474,0,0,0-1.281.646A3.516,3.516,0,0,0,93.393,12.856ZM28.882,35.336a1.481,1.481,0,0,0,1.016-.344,1.2,1.2,0,0,0,.406-.914h2.117a2.9,2.9,0,0,1-.469,1.574,3.093,3.093,0,0,1-1.262,1.109,3.949,3.949,0,0,1-1.77.395A3.67,3.67,0,0,1,26.061,36a4.56,4.56,0,0,1-1.047-3.184v-.148a4.508,4.508,0,0,1,1.039-3.117A3.627,3.627,0,0,1,28.9,28.391a3.555,3.555,0,0,1,2.543.9,3.2,3.2,0,0,1,.973,2.4H30.3a1.551,1.551,0,0,0-.406-1.072,1.51,1.51,0,0,0-2.223.163,3.333,3.333,0,0,0-.4,1.866v.235a3.375,3.375,0,0,0,.4,1.878A1.377,1.377,0,0,0,28.882,35.336Zm9.931.8A2.831,2.831,0,0,1,36.5,37.156a2.67,2.67,0,0,1-2.074-.781,3.335,3.335,0,0,1-.73-2.289V28.547h2.258v5.467q0,1.322,1.2,1.322a1.63,1.63,0,0,0,1.578-.8V28.547H41V37H38.875Zm6.048-7.594.07.945a2.971,2.971,0,0,1,2.43-1.1A2.255,2.255,0,0,1,49.6,29.68a2.9,2.9,0,0,1,2.539-1.289,2.521,2.521,0,0,1,2.047.8,3.681,3.681,0,0,1,.672,2.41V37H52.594V31.609a1.61,1.61,0,0,0-.281-1.051,1.246,1.246,0,0,0-.992-.332,1.409,1.409,0,0,0-1.406.969l.008,5.8H47.665V31.617a1.59,1.59,0,0,0-.289-1.062,1.259,1.259,0,0,0-.984-.328,1.463,1.463,0,0,0-1.391.8V37H42.743V28.547Zm19.384,4.3a5.07,5.07,0,0,1-.887,3.129,2.843,2.843,0,0,1-2.395,1.176,2.633,2.633,0,0,1-2.07-.891V40.25H56.634v-11.7h2.094l.078.828a2.654,2.654,0,0,1,2.141-.984,2.862,2.862,0,0,1,2.43,1.156,5.207,5.207,0,0,1,.867,3.188Zm-2.258-.164a3.327,3.327,0,0,0-.418-1.82,1.361,1.361,0,0,0-1.215-.641,1.478,1.478,0,0,0-1.461.813V34.5a1.5,1.5,0,0,0,1.477.836Q61.986,35.336,61.986,32.688ZM68.065,37H65.8V25h2.266Zm4.282,0H70.082V28.547h2.266Zm-2.4-10.641a1.112,1.112,0,0,1,.34-.836,1.465,1.465,0,0,1,1.848,0,1.193,1.193,0,0,1,0,1.68,1.448,1.448,0,0,1-1.836,0A1.108,1.108,0,0,1,69.949,26.359Zm6.415,2.188.07.945a2.971,2.971,0,0,1,2.43-1.1,2.255,2.255,0,0,1,2.242,1.289,2.9,2.9,0,0,1,2.539-1.289,2.521,2.521,0,0,1,2.047.8,3.681,3.681,0,0,1,.672,2.41V37H84.1V31.609a1.61,1.61,0,0,0-.281-1.051,1.246,1.246,0,0,0-.992-.332,1.409,1.409,0,0,0-1.406.969l.008,5.8H79.168V31.617a1.59,1.59,0,0,0-.289-1.062,1.259,1.259,0,0,0-.984-.328,1.463,1.463,0,0,0-1.391.8V37H74.247V28.547ZM90.521,37H88.255V28.547h2.266Zm-2.4-10.641a1.112,1.112,0,0,1,.34-.836,1.465,1.465,0,0,1,1.848,0,1.193,1.193,0,0,1,0,1.68,1.448,1.448,0,0,1-1.836,0A1.108,1.108,0,0,1,88.122,26.359Zm8.188,10.8a4.15,4.15,0,0,1-3.027-1.141,4.054,4.054,0,0,1-1.168-3.039v-.219a5.106,5.106,0,0,1,.492-2.277A3.612,3.612,0,0,1,94,28.934a3.914,3.914,0,0,1,2.059-.543,3.508,3.508,0,0,1,2.73,1.094,4.444,4.444,0,0,1,1,3.1v.922H94.4a2.1,2.1,0,0,0,.66,1.328,2,2,0,0,0,1.395.5,2.437,2.437,0,0,0,2.039-.945l1.109,1.242a3.389,3.389,0,0,1-1.375,1.121A4.511,4.511,0,0,1,96.311,37.156Zm-.258-6.945a1.411,1.411,0,0,0-1.09.455,2.357,2.357,0,0,0-.535,1.3h3.141v-.181a1.681,1.681,0,0,0-.406-1.165A1.456,1.456,0,0,0,96.053,30.211Zm7.134-1.664.07.977a2.951,2.951,0,0,1,2.43-1.133,2.453,2.453,0,0,1,2,.789,3.682,3.682,0,0,1,.672,2.359V37H106.1V31.594a1.465,1.465,0,0,0-.312-1.043,1.4,1.4,0,0,0-1.039-.324,1.553,1.553,0,0,0-1.43.813V37h-2.258V28.547Zm9.626-2.078v2.078h1.445V30.2h-1.445v4.219a1.007,1.007,0,0,0,.18.672.9.9,0,0,0,.688.2,3.6,3.6,0,0,0,.664-.055v1.711a4.648,4.648,0,0,1-1.367.2,2.156,2.156,0,0,1-2.422-2.4V30.2h-1.234V28.547h1.234V26.469ZM114.97,32.7a5.013,5.013,0,0,1,.484-2.242,3.546,3.546,0,0,1,1.395-1.523,4.069,4.069,0,0,1,2.113-.539,3.849,3.849,0,0,1,2.793,1.047,4.2,4.2,0,0,1,1.207,2.844l.016.578a4.418,4.418,0,0,1-1.086,3.121,4.209,4.209,0,0,1-5.832,0,4.5,4.5,0,0,1-1.09-3.187Zm2.258.16a3.16,3.16,0,0,0,.453,1.843,1.628,1.628,0,0,0,2.578.008,3.457,3.457,0,0,0,.461-2.015,3.128,3.128,0,0,0-.461-1.831,1.5,1.5,0,0,0-1.3-.649,1.474,1.474,0,0,0-1.281.646A3.516,3.516,0,0,0,117.228,32.856Z" transform="translate(935 5358.827)" fill="#12263f"/>
  </g>
</svg>
