<svg xmlns="http://www.w3.org/2000/svg" width="150" height="150" viewBox="0 0 150 150">
  <g id="img13" transform="translate(-383.746 -8400)">
    <circle id="Ellipse_13609" data-name="Ellipse 13609" cx="75" cy="75" r="75" transform="translate(383.746 8400)" fill="#b9c296"/>
    <g id="Outline" transform="translate(414.74 8431.13)">
      <g id="Group_1198964" data-name="Group 1198964" transform="translate(2.007 1.883)">
        <path id="Path_1025156" data-name="Path 1025156" d="M21.373,26.794A12.51,12.51,0,0,1,28.3,28.881a1.4,1.4,0,0,0,1.544-2.33A15.378,15.378,0,1,0,34.189,30.9a1.4,1.4,0,1,0-2.329,1.544,12.555,12.555,0,0,1-3.5,17.374V46.352a5.571,5.571,0,0,0-2.745-4.785,5.532,5.532,0,0,0,1.348-3.6,5.588,5.588,0,1,0-11.176,0,5.532,5.532,0,0,0,1.348,3.6,5.571,5.571,0,0,0-2.745,4.785,1.4,1.4,0,1,0,2.794,0,2.794,2.794,0,0,1,2.794-2.794H22.77a2.794,2.794,0,0,1,2.794,2.794v4.855a12.573,12.573,0,1,1-4.191-24.413Zm0,8.382a2.794,2.794,0,1,1-2.794,2.794A2.794,2.794,0,0,1,21.373,35.176Z" transform="translate(-0.428 6.897)" fill="#4a4e3c"/>
        <path id="Path_1025157" data-name="Path 1025157" d="M33.4,46.161h5.588a1.4,1.4,0,0,0,1.4-1.4V29.4a1.4,1.4,0,0,0-1.4-1.4H33.4A1.4,1.4,0,0,0,32,29.4V44.764A1.4,1.4,0,0,0,33.4,46.161Zm1.4-15.367h2.794V43.367H34.794Z" transform="translate(9.901 8.485)" fill="#4a4e3c"/>
        <path id="Path_1025158" data-name="Path 1025158" d="M80.049,10.116a4.286,4.286,0,1,0-2.077-1.869l-5.944,6.686a4.15,4.15,0,0,0-4.61,1l-5.381-2.39c.008-.108.032-.211.032-.32a4.191,4.191,0,1,0-8.382,0,4.148,4.148,0,0,0,.641,2.2l-6.261,7.823A4.138,4.138,0,0,0,46.7,23a4.191,4.191,0,0,0-4.191,4.191,4.146,4.146,0,0,0,.265,1.422l-5.356,4.41A20.928,20.928,0,0,0,6.188,60.683a1.4,1.4,0,1,0,2.235-1.676,18.218,18.218,0,1,1,3.67,3.67,1.4,1.4,0,1,0-1.676,2.235,20.861,20.861,0,0,0,24.08.7l5.542,5.542a4.191,4.191,0,0,0,.806,4.758l1.974,1.975h0l5.926,5.926a6.985,6.985,0,1,0,9.88-9.877L52.7,68.007h0l-1.975-1.974a4.3,4.3,0,0,0-4.75-.793l-5.554-5.554A20.864,20.864,0,0,0,39.3,35.08l5.24-4.315a4.169,4.169,0,0,0,5.711-5.774l6.261-7.823a4.079,4.079,0,0,0,4.4-1.066l5.381,2.39c-.008.108-.032.211-.032.32a4.191,4.191,0,1,0,8.382,0A4.135,4.135,0,0,0,74.1,16.8ZM57.877,78.881a4.191,4.191,0,0,1-7.155,2.963l-4.938-4.938,5.927-5.927,4.94,4.94a4.162,4.162,0,0,1,1.227,2.963ZM47.759,67.606a1.382,1.382,0,0,1,.988.409l.989.988-5.927,5.927-.988-.988a1.4,1.4,0,0,1,0-1.977l3.952-3.951a1.376,1.376,0,0,1,.986-.409Zm-3.951-.578L41.833,69l-5.1-5.1A21.259,21.259,0,0,0,38.7,61.923ZM46.7,28.589a1.4,1.4,0,1,1,1.4-1.4A1.4,1.4,0,0,1,46.7,28.589Zm11.176-13.97a1.4,1.4,0,1,1,1.4-1.4A1.4,1.4,0,0,1,57.877,14.619ZM81.626,4.84a1.4,1.4,0,1,1-1.4,1.4A1.4,1.4,0,0,1,81.626,4.84ZM70.45,20.207a1.4,1.4,0,1,1,1.4-1.4A1.4,1.4,0,0,1,70.45,20.207Z" transform="translate(-2.007 -1.883)" fill="#4a4e3c"/>
        <path id="Path_1025159" data-name="Path 1025159" d="M7.4,13.176h4.191v9.779a1.4,1.4,0,0,0,1.4,1.4h8.382a1.4,1.4,0,0,0,0-2.794H14.382V11.779a1.4,1.4,0,0,0-1.4-1.4h-.978L19.97,5.073l7.963,5.309h-.978a1.4,1.4,0,0,0-1.4,1.4V22.955a1.4,1.4,0,0,0,2.794,0V13.176h4.191a1.4,1.4,0,0,0,.775-2.559L20.745,2.235a1.4,1.4,0,0,0-1.551,0L6.622,10.617A1.4,1.4,0,0,0,7.4,13.176Z" transform="translate(-0.421 -1.837)" fill="#4a4e3c"/>
        <path id="Path_1025160" data-name="Path 1025160" d="M62.985,13H57.4A1.4,1.4,0,0,0,56,14.4V50.719a1.4,1.4,0,0,0,1.4,1.4h5.588a1.4,1.4,0,0,0,1.4-1.4V46.528a1.4,1.4,0,0,0-2.794,0v2.794H58.794V15.794h2.794V40.94a1.4,1.4,0,1,0,2.794,0V14.4A1.4,1.4,0,0,0,62.985,13Z" transform="translate(19.429 2.531)" fill="#4a4e3c"/>
        <path id="Path_1025161" data-name="Path 1025161" d="M54.985,23H49.4A1.4,1.4,0,0,0,48,24.4V46.749a1.4,1.4,0,0,0,1.4,1.4h5.588a1.4,1.4,0,0,0,1.4-1.4V43.955a1.4,1.4,0,1,0-2.794,0v1.4H50.794V25.794h2.794V38.367a1.4,1.4,0,0,0,2.794,0V24.4A1.4,1.4,0,0,0,54.985,23Z" transform="translate(16.253 6.5)" fill="#4a4e3c"/>
        <path id="Path_1025162" data-name="Path 1025162" d="M46.985,19H41.4A1.4,1.4,0,0,0,40,20.4v27.94a1.4,1.4,0,0,0,1.4,1.4h5.588a1.4,1.4,0,0,0,1.4-1.4V44.146a1.4,1.4,0,1,0-2.794,0V46.94H42.794V21.794h2.794V38.558a1.4,1.4,0,1,0,2.794,0V20.4A1.4,1.4,0,0,0,46.985,19Z" transform="translate(13.077 4.912)" fill="#4a4e3c"/>
      </g>
    </g>
  </g>
</svg>
