<svg xmlns="http://www.w3.org/2000/svg" width="84" height="84" viewBox="0 0 84 84">
  <g id="img18" transform="translate(-527 -8430)">
    <rect id="Rectangle_461386" data-name="Rectangle 461386" width="84" height="84" rx="10" transform="translate(527 8430)" fill="#b9c296"/>
    <g id="Group_1196532" data-name="Group 1196532" transform="translate(527.111 8440.999)">
      <path id="Path_1018608" data-name="Path 1018608" d="M315.926,38.671v9.172a7.617,7.617,0,0,1-10.77,6.929h0a7.617,7.617,0,0,1-4.385-5.884,2.456,2.456,0,1,1,2.547-4.054l.639-3.666.436-2.5Z" transform="translate(-252.044 -34.051)" fill="#fcd2be"/>
      <path id="Path_1018609" data-name="Path 1018609" d="M305.158,73.169a7.617,7.617,0,0,1-4.385-5.884,2.456,2.456,0,1,1,2.547-4.054l.639-3.666,2,.407C305.12,61.429,301.561,66.746,305.158,73.169Z" transform="translate(-252.045 -52.449)" fill="#fab998"/>
      <path id="Path_1018610" data-name="Path 1018610" d="M331.09,7.6a6.615,6.615,0,0,1-6.615,6.615h-6.909v.614a2.644,2.644,0,0,1-2.645,2.644,2.457,2.457,0,0,0-2.617-.556v-2.7A6.615,6.615,0,0,1,318.92,7.6Z" transform="translate(-263.649 -6.691)" fill="#50515b"/>
      <path id="Path_1018611" data-name="Path 1018611" d="M324.318,7.6h-5.4a6.615,6.615,0,0,0-6.615,6.615v2.7a2.457,2.457,0,0,1,2.617.556,2.644,2.644,0,0,0,2.645-2.644v-.614h.137A6.615,6.615,0,0,1,324.318,7.6Z" transform="translate(-263.649 -6.691)" fill="#393a42"/>
      <path id="Path_1018612" data-name="Path 1018612" d="M318.7,192.47a16.682,16.682,0,0,1-9.393,1.421,9.625,9.625,0,0,1-5.087-2.679s1.479-9.9,4.249-15.693a14.575,14.575,0,0,1,1.173-2.056l1.723.133,3.483.27c0,.484.062,1.433.189,2.669C315.465,180.763,316.649,188.378,318.7,192.47Z" transform="translate(-256.526 -152.74)" fill="#f9ce55"/>
      <path id="Path_1018613" data-name="Path 1018613" d="M309.3,193.891a9.625,9.625,0,0,1-5.087-2.679s1.9-12.713,5.423-17.75l1.723.133.5.493C310.571,176.737,307.551,186.985,309.3,193.891Z" transform="translate(-256.526 -152.74)" fill="#e2a11e"/>
      <path id="Path_1018614" data-name="Path 1018614" d="M185.028,14.1l-11.627,3.6-5.172,1.6c-2.852-7.146-.419-11.657,7.7-11.657S185.028,11.318,185.028,14.1Z" transform="translate(-135.774 -6.737)" fill="#f9ce55"/>
      <path id="Path_1018615" data-name="Path 1018615" d="M173.4,17.706l-5.172,1.6c-2.852-7.146-.419-11.657,7.7-11.657C173.042,8.474,171.214,14.5,173.4,17.706Z" transform="translate(-135.775 -6.737)" fill="#e2a11e"/>
      <path id="Path_1018616" data-name="Path 1018616" d="M193.472,47.646v6.427a7.613,7.613,0,0,1-15.155,1.044,2.456,2.456,0,1,1,2.546-4.056,5.125,5.125,0,0,1,.876-2.369C183.212,46.383,186.714,43.954,193.472,47.646Z" transform="translate(-144.217 -40.28)" fill="#fcd2be"/>
      <path id="Path_1018617" data-name="Path 1018617" d="M184.056,83.192a7.616,7.616,0,0,1-5.738-6.353,2.456,2.456,0,1,1,2.546-4.056,5.125,5.125,0,0,1,.876-2.369C181.049,74.777,181.156,81.312,184.056,83.192Z" transform="translate(-144.218 -62.003)" fill="#fab998"/>
      <path id="Path_1018618" data-name="Path 1018618" d="M189.487,195.986a37.054,37.054,0,0,1-12.886.687,23.885,23.885,0,0,1-4.431-.929c0-16.106,6.239-23.618,6.239-23.618l1.384.153,4.022.446C184.62,181.87,189.487,195.986,189.487,195.986Z" transform="translate(-140.254 -151.563)" fill="#00c7a9"/>
      <path id="Path_1018619" data-name="Path 1018619" d="M176.6,196.672a23.885,23.885,0,0,1-4.431-.929c0-16.106,6.239-23.618,6.239-23.618l1.384.153.3.475S174.478,184.784,176.6,196.672Z" transform="translate(-140.255 -151.563)" fill="#04af92"/>
      <path id="Path_1018620" data-name="Path 1018620" d="M40.749,14.1c.622-2.3.379-6.451-6.039-6.451s-12.715.517-14.048,9.963S25.527,35.9,25.527,35.9" transform="translate(-6.68 -6.738)" fill="#3facc9"/>
      <path id="Path_1018621" data-name="Path 1018621" d="M25.527,37.124l1.852-2.652c-.472-5.319-1.869-24.919,3.155-25.431-4.777.5-8.833,2.434-9.871,9.8C19.33,28.284,25.527,37.124,25.527,37.124Z" transform="translate(-6.68 -7.96)" fill="#369ab2"/>
      <path id="Path_1018622" data-name="Path 1018622" d="M50.28,59.615a2.457,2.457,0,0,0,.926.584,7.613,7.613,0,0,0,15.155-1.044V52.728s-3.375.121-4.707-1.211a6.875,6.875,0,0,1-6.113,2.751h0a7.232,7.232,0,0,1-1.787-.328v2.205h0a2.455,2.455,0,0,0-3.472,3.472Z" transform="translate(-32.291 -45.362)" fill="#fcd2be"/>
      <path id="Path_1018623" data-name="Path 1018623" d="M50.28,77.469a2.457,2.457,0,0,0,.926.584,7.616,7.616,0,0,0,5.738,6.353c-3.954-2.169-1.437-12.149-1.4-12.283h0a7.232,7.232,0,0,1-1.787-.328V74h0a2.455,2.455,0,0,0-3.472,3.472Z" transform="translate(-32.291 -63.216)" fill="#fab998"/>
      <path id="Path_1018624" data-name="Path 1018624" d="M62.371,195.986a37.054,37.054,0,0,1-12.886.687,23.885,23.885,0,0,1-4.431-.929c0-16.106,6.239-23.618,6.239-23.618l1.384.153,4.022.446C57.5,181.87,62.371,195.986,62.371,195.986Z" transform="translate(-28.323 -151.563)" fill="#ef4a6e"/>
      <path id="Path_1018625" data-name="Path 1018625" d="M49.485,196.672a23.885,23.885,0,0,1-4.431-.929c0-16.106,6.239-23.618,6.239-23.618l1.384.153.3.475S47.361,184.784,49.485,196.672Z" transform="translate(-28.323 -151.563)" fill="#d8254f"/>
      <path id="Path_1018626" data-name="Path 1018626" d="M321.833,3.756a.906.906,0,0,0,.642-.266,5.668,5.668,0,0,1,4.035-1.671H329A.908.908,0,0,0,329,0H326.51a7.473,7.473,0,0,0-5.319,2.2.908.908,0,0,0,.642,1.55Z" transform="translate(-271.239 -0.001)"/>
      <path id="Path_1018627" data-name="Path 1018627" d="M338.688,1.818h5.791a5.715,5.715,0,0,1-5.634,4.8h-6.909a.908.908,0,0,0-.908.908v.614a1.747,1.747,0,0,1-1.577,1.729.908.908,0,0,0,.08,1.813c.027,0,.055,0,.083,0a3.531,3.531,0,0,0,3.219-3.243h6.012A7.531,7.531,0,0,0,346.368.909.908.908,0,0,0,345.459,0h-6.772a.908.908,0,0,0,0,1.817Z" transform="translate(-278.018)"/>
      <path id="Path_1018628" data-name="Path 1018628" d="M379.588,84.586V83.326a.908.908,0,1,0-1.816,0v1.259a.908.908,0,0,0,1.816,0Z" transform="translate(-321.295 -72.572)"/>
      <path id="Path_1018629" data-name="Path 1018629" d="M406.993,84.586V83.326a.908.908,0,1,0-1.816,0v1.259a.908.908,0,0,0,1.816,0Z" transform="translate(-345.427 -72.572)"/>
      <path id="Path_1018630" data-name="Path 1018630" d="M356.277,126.223a.908.908,0,1,0-1.577.9,4.468,4.468,0,0,0,3.856,2.225h.049a.908.908,0,0,0,.047-1.815A2.7,2.7,0,0,1,356.277,126.223Z" transform="translate(-300.874 -110.741)"/>
      <path id="Path_1018631" data-name="Path 1018631" d="M334.026,77.2V72.923a.908.908,0,1,0-1.816,0V77.2a6.705,6.705,0,0,1-11.943,4.185.908.908,0,1,0-1.418,1.135,8.521,8.521,0,0,0,15.177-5.32Z" transform="translate(-269.235 -63.411)"/>
      <path id="Path_1018632" data-name="Path 1018632" d="M306.614,184.719a56.42,56.42,0,0,0-3.477,11.516.908.908,0,0,0,.7,1.074.92.92,0,0,0,.185.019.909.909,0,0,0,.888-.724,54.7,54.7,0,0,1,3.342-11.112.908.908,0,0,0-1.644-.773Z" transform="translate(-255.559 -162.193)"/>
      <path id="Path_1018633" data-name="Path 1018633" d="M338.463,195.251a2.63,2.63,0,0,0-.813-.042v-.974a.908.908,0,1,0-1.816,0v1.706a6.4,6.4,0,0,0-2,3.128,2.1,2.1,0,0,1-1.853,1.612,4.168,4.168,0,0,1-3.4-1.511c-.45-2.374-.784-4.773-.991-6.807a.908.908,0,1,0-1.807.184c.177,1.732,1.132,10.219,3.351,15.382-1.827.715-6.408,2.134-10.282.244a.908.908,0,0,0-.8,1.633c.2.1.4.185.6.268a21.859,21.859,0,0,1-1.092,18.412.908.908,0,0,0,.8,1.342h3.148a.908.908,0,1,0,0-1.816h-1.674a23.461,23.461,0,0,0,1.995-12.8,23.851,23.851,0,0,0-1-4.494,13.016,13.016,0,0,0,2.433.223,16.835,16.835,0,0,0,3.884-.481,21.883,21.883,0,0,1-1.247,18.025.908.908,0,0,0,.8,1.342h3.148a.908.908,0,1,0,0-1.816h-1.674a23.706,23.706,0,0,0,.729-18.056,15.8,15.8,0,0,0,1.856-.748.908.908,0,0,0,.406-1.219,29.42,29.42,0,0,1-2.01-6.108,5.879,5.879,0,0,0,2.557.631c.149,0,.3-.007.445-.021a3.9,3.9,0,0,0,3.4-2.835,6,6,0,0,1,.861-1.718l1.585.149a.909.909,0,0,0,.983-.766l.161-1.05A.909.909,0,0,0,338.463,195.251Z" transform="translate(-268.179 -168.663)"/>
      <path id="Path_1018634" data-name="Path 1018634" d="M257.133,84.587V83.328a.908.908,0,0,0-1.816,0v1.259a.908.908,0,0,0,1.816,0Z" transform="translate(-213.468 -72.574)"/>
      <path id="Path_1018635" data-name="Path 1018635" d="M284.538,84.587V83.328a.908.908,0,0,0-1.816,0v1.259a.908.908,0,0,0,1.816,0Z" transform="translate(-237.6 -72.574)"/>
      <path id="Path_1018636" data-name="Path 1018636" d="M233.822,126.224a.908.908,0,1,0-1.577.9,4.469,4.469,0,0,0,3.856,2.225h.049a.908.908,0,0,0,.047-1.815A2.669,2.669,0,0,1,233.822,126.224Z" transform="translate(-193.047 -110.742)"/>
      <path id="Path_1018637" data-name="Path 1018637" d="M204.365,224.931h-1.673a23.36,23.36,0,0,0,1.931-13.267,39.063,39.063,0,0,0,4.632-.771.908.908,0,0,0,.656-1.181c-.041-.119-4.127-12.032-5.375-20.881a.908.908,0,0,0-1.8.254,110.214,110.214,0,0,0,3.213,14.041c.79,2.731,1.517,4.991,1.918,6.208a36.144,36.144,0,0,1-11.588.46.908.908,0,0,0-.229,1.8c.26.033.534.064.819.094a21.568,21.568,0,0,1-2.371,13.716.908.908,0,0,0,.8,1.342h3.149a.908.908,0,1,0,0-1.816h-1.674a23.336,23.336,0,0,0,1.954-13.1c.588.029,1.211.046,1.867.046.7,0,1.443-.02,2.215-.065a21.562,21.562,0,0,1-2.389,13.594.908.908,0,0,0,.8,1.342h3.147a.908.908,0,0,0,0-1.816Z" transform="translate(-159.819 -165.585)"/>
      <path id="Path_1018638" data-name="Path 1018638" d="M193.738,2.407a13.739,13.739,0,0,1,4.1-.541c6.192,0,7.705,2.217,8.075,4.017A11.117,11.117,0,0,0,198.894,4.8a7.083,7.083,0,0,0-4.449,3.171,6,6,0,0,0-1.018,2.857.908.908,0,1,0,1.816,0,4.38,4.38,0,0,1,.733-1.88c1.119-1.754,3.9-4.163,10.06-.989v5.881A6.705,6.705,0,0,1,193.648,17.4a.908.908,0,1,0-1.538.966,8.522,8.522,0,0,0,15.742-4.527V7.409A6.589,6.589,0,0,0,206.077,2.5C204.434.851,201.74.05,197.84.05a15.528,15.528,0,0,0-4.651.626.908.908,0,0,0,.549,1.732Z" transform="translate(-157.689 -0.043)"/>
      <path id="Path_1018639" data-name="Path 1018639" d="M177.64,182.519a37.324,37.324,0,0,0-3.872,10.7.908.908,0,1,0,1.778.374,35.49,35.49,0,0,1,3.675-10.178.908.908,0,1,0-1.58-.9Z" transform="translate(-141.643 -160.31)"/>
      <path id="Path_1018640" data-name="Path 1018640" d="M47.22,182.178a.908.908,0,0,0-1.238.342,39.68,39.68,0,0,0-4.5,14.368.908.908,0,1,0,1.8.24,37.861,37.861,0,0,1,4.28-13.712A.908.908,0,0,0,47.22,182.178Z" transform="translate(-25.17 -160.31)"/>
      <path id="Path_1018641" data-name="Path 1018641" d="M56.469,210.449a.908.908,0,0,0,.065-.737c-.041-.119-4.126-12.028-5.375-20.881a.908.908,0,0,0-1.8.254,110.205,110.205,0,0,0,3.213,14.041c.79,2.731,1.516,4.991,1.918,6.208a34.266,34.266,0,0,1-15.221-.244c.013-1.179.061-2.349.143-3.487a.908.908,0,1,0-1.812-.13c-.1,1.4-.151,2.842-.151,4.293a.908.908,0,0,0,.608.857,25.729,25.729,0,0,0,5.437,1.075,21.568,21.568,0,0,1-2.372,13.708.908.908,0,0,0,.8,1.342h3.149a.908.908,0,1,0,0-1.816H43.395a23.335,23.335,0,0,0,1.955-13.092c.588.029,1.2.047,1.849.047.712,0,1.458-.021,2.233-.067a21.561,21.561,0,0,1-2.39,13.587.908.908,0,0,0,.8,1.342h3.147a.908.908,0,1,0,0-1.816H49.314a23.359,23.359,0,0,0,1.932-13.262,39.552,39.552,0,0,0,4.631-.776A.908.908,0,0,0,56.469,210.449Z" transform="translate(-21.626 -165.585)"/>
      <path id="Path_1018642" data-name="Path 1018642" d="M130.017,84.587V83.328a.908.908,0,0,0-1.816,0v1.259a.908.908,0,0,0,1.816,0Z" transform="translate(-101.537 -72.574)"/>
      <path id="Path_1018643" data-name="Path 1018643" d="M155.606,83.328v1.259a.908.908,0,0,0,1.816,0V83.328a.908.908,0,0,0-1.816,0Z" transform="translate(-125.668 -72.574)"/>
      <path id="Path_1018644" data-name="Path 1018644" d="M106.706,126.224a.908.908,0,1,0-1.577.9,4.469,4.469,0,0,0,3.856,2.225h.049a.908.908,0,0,0,.047-1.815A2.67,2.67,0,0,1,106.706,126.224Z" transform="translate(-81.115 -110.742)"/>
      <path id="Path_1018645" data-name="Path 1018645" d="M17.311,27.512a.909.909,0,0,0,.8-1.331c-1.58-3.009-4.1-8.976-3.232-15.133,1.2-8.505,6.432-9.181,13.148-9.181,2.28,0,3.855.546,4.679,1.623a4.036,4.036,0,0,1,.62,3c-1.042-.049-2.654-.266-3.325-.937a.908.908,0,0,0-1.362.088,6.242,6.242,0,0,1-6.875,2.121.908.908,0,0,0-1.215.855V9.3a3.362,3.362,0,0,0-2.034.118,3.363,3.363,0,0,0-1.174,5.519,3.361,3.361,0,0,0,.753.568,8.522,8.522,0,0,0,16.878-1.671V10.162a.908.908,0,1,0-1.816,0v3.675a6.705,6.705,0,0,1-13.346.921.908.908,0,0,0-.6-.734,1.547,1.547,0,0,1-.585-2.555,1.526,1.526,0,0,1,.538-.351,1.546,1.546,0,0,1,1.643.343.908.908,0,0,0,1.558-.634V9.777a8.011,8.011,0,0,0,7.138-2.351,10.064,10.064,0,0,0,4.594.891.909.909,0,0,0,.844-.671,6.159,6.159,0,0,0-.794-5.261C32.966.837,30.906.051,28.031.051c-3.217,0-6.588.119-9.347,1.54-3.122,1.608-4.953,4.619-5.6,9.2-.939,6.661,1.741,13.028,3.422,16.231A.908.908,0,0,0,17.311,27.512Z" transform="translate(0 -0.044)"/>
      <path id="Path_1018646" data-name="Path 1018646" d="M66.243,230.795a3.645,3.645,0,0,0,1.508.343,5.317,5.317,0,0,0,3.36-1.652c.485-.419,1.039-.894,1.331-.87a1.113,1.113,0,0,1,.58.443.908.908,0,0,0,1.4-1.163,2.667,2.667,0,0,0-1.827-1.09,3.787,3.787,0,0,0-2.667,1.305c-1.109.958-1.844,1.519-2.936,1.028a.818.818,0,0,1-.495-.583c-.456-1.675,1.682-5.557,3.137-7.61a.908.908,0,0,0-1.482-1.051c-.436.615-4.236,6.093-3.408,9.137A2.634,2.634,0,0,0,66.243,230.795Z" transform="translate(-45.553 -193.289)"/>
    </g>
  </g>
</svg>
