<svg xmlns="http://www.w3.org/2000/svg" width="150" height="150" viewBox="0 0 150 150">
  <g id="img14" transform="translate(-383.746 -8400)">
    <circle id="Ellipse_13609" data-name="Ellipse 13609" cx="75" cy="75" r="75" transform="translate(383.746 8400)" fill="#b9c296"/>
    <g id="Group_1198965" data-name="Group 1198965" transform="translate(419.767 8432.443)">
      <path id="Path_1025163" data-name="Path 1025163" d="M78.175,91.068c-3.911-3.894-8.433-.249-8.433-.249v-20.5a1.246,1.246,0,1,0-2.493,0V92.573s-5.945,4.687-8.5,5.832V61.5a3.115,3.115,0,0,1,3.111-3.111h2.278A3.115,3.115,0,0,1,67.249,61.5v3.719a1.246,1.246,0,1,0,2.493,0V61.5a5.61,5.61,0,0,0-5.6-5.6H61.86a5.611,5.611,0,0,0-5.6,5.6v37.9a13.1,13.1,0,0,1-2.282.425V73.533A5.639,5.639,0,0,0,48.341,67.9H46.118a5.639,5.639,0,0,0-5.632,5.633v12.7L38.2,87.448V83.221a5.077,5.077,0,0,0-5.07-5.071H29.787a5.076,5.076,0,0,0-5.07,5.071V94.607l-4.071,2.16L9.214,100.035a7.879,7.879,0,0,0-5.461,9.558l1.279,4.92a1.247,1.247,0,1,0,2.413-.628l-1.279-4.919A5.354,5.354,0,0,1,9.9,102.432l10.452-2.987,7.856,20.966a5.584,5.584,0,0,1-3.713,6.885l-7.9,1.794a5.17,5.17,0,0,1-6.176-3.758l-1.6-6.17a1.247,1.247,0,1,0-2.414.627l1.6,6.17a7.647,7.647,0,0,0,7.409,5.757c2.519,0,9.631-1.99,9.631-1.99a7.683,7.683,0,0,0,5.817-9.08l27.326-6.69a15.724,15.724,0,0,0,6.2-3.1l13.3-10.926a5.914,5.914,0,0,0,.484-8.858ZM46.118,70.394h2.223a3.143,3.143,0,0,1,3.138,3.139V99.881l-7.867,0c-.723-.006-.223-.484-.183-.516l2.266-1.835a11.851,11.851,0,0,0,4.1-7.077A4.944,4.944,0,0,0,42.98,84.93v-11.4a3.142,3.142,0,0,1,3.138-3.139ZM27.211,83.221a2.58,2.58,0,0,1,2.577-2.577h3.346a2.581,2.581,0,0,1,2.577,2.577v5.551l-8.5,4.512V83.221ZM76.108,98l-13.3,10.926a13.2,13.2,0,0,1-5.213,2.609l-27.527,6.74-7.4-19.756L43.8,87.3a2.45,2.45,0,0,1,3.55,2.652,9.426,9.426,0,0,1-3.229,5.637l-2.266,1.836a2.784,2.784,0,0,0,1.751,4.947l9.084,0H52.7a15.546,15.546,0,0,0,8.987-2.844l10.152-7.139a3.511,3.511,0,0,1,4.55.42c.7.714,2.068,2.837-.282,5.189Zm0,0" transform="translate(-2.5 -46.602)" fill="#4a4e3c"/>
      <path id="Path_1025164" data-name="Path 1025164" d="M74.144,424.151a4.912,4.912,0,1,0-4.912,4.912A4.918,4.918,0,0,0,74.144,424.151Zm-7.33,0a2.418,2.418,0,1,1,2.418,2.418A2.421,2.421,0,0,1,66.814,424.151Zm0,0" transform="translate(-53.212 -349.544)" fill="#4a4e3c"/>
      <path id="Path_1025165" data-name="Path 1025165" d="M7.054,39.146,25.178,20.883l4.077,2.109a3.834,3.834,0,0,0,4.422-.644l9.865-9.5s-.271,4.877,3.836,4.877a3.84,3.84,0,0,0,3.835-3.836V3.835c0-.012,0-.024,0-.036A3.63,3.63,0,0,0,47.379,0h-9.97a3.84,3.84,0,0,0-3.835,3.835c0,4.216,4.29,3.835,4.29,3.835l-7.526,7.244L26.2,12.776a3.821,3.821,0,0,0-4.485.7L1.61,33.743a3.84,3.84,0,0,0,.021,5.424,3.781,3.781,0,0,0,5.424-.021ZM3.379,35.5,23.487,15.237a1.134,1.134,0,0,1,1.57-.246l4.929,2.549a1.247,1.247,0,0,0,1.438-.209l10.4-10.009a1.247,1.247,0,0,0-.865-2.145H37.409a1.342,1.342,0,0,1,0-2.684h9.97A1.172,1.172,0,0,1,48.72,3.827c0,.011,0,.022,0,.034V13.893a1.342,1.342,0,0,1-2.684,0V9.92a1.246,1.246,0,0,0-2.111-.9L31.948,20.551a1.341,1.341,0,0,1-1.547.225l-4.89-2.529a1.248,1.248,0,0,0-1.458.229L5.285,37.39a1.286,1.286,0,0,1-1.9.007,1.344,1.344,0,0,1-.007-1.9Zm0,0" fill="#4a4e3c"/>
    </g>
  </g>
</svg>
