<svg xmlns="http://www.w3.org/2000/svg" width="84" height="84" viewBox="0 0 84 84">
  <g id="img2" transform="translate(-186 -711)">
    <rect id="Rectangle_461414" data-name="Rectangle 461414" width="84" height="84" rx="9" transform="translate(186 711)" fill="#9c3413"/>
    <g id="Group_1197547" data-name="Group 1197547" transform="translate(194.249 723)">
      <g id="Group_1197545" data-name="Group 1197545" transform="translate(5.623 0.871)">
        <g id="Group_1197543" data-name="Group 1197543" transform="translate(0)">
          <g id="Group_1197542" data-name="Group 1197542">
            <path id="Path_1019941" data-name="Path 1019941" d="M40.572,65.234C69.717,53.3,68.884,19.713,68.884,19.713,59.724,10.553,40.572,7.5,40.572,7.5S21.42,10.553,12.26,19.713c0,0-.833,33.586,28.312,45.521Z" transform="translate(-12.258 -7.5)" fill="#a2c6fe"/>
            <path id="Path_1019942" data-name="Path 1019942" d="M40.572,65.274C11.428,53.338,12.26,19.753,12.26,19.753,21.221,10.792,39.746,7.675,40.545,7.545c-.621.121-12.07,2.4-20.139,8.6a9.414,9.414,0,0,0-3.63,8.261C17.59,34.05,21.546,56.082,40.572,65.274Z" transform="translate(-12.258 -7.54)" fill="#7898d5"/>
            <path id="Path_1019943" data-name="Path 1019943" d="M88.515,106.31c-9.012-4.387-15.432-11.816-19.1-22.116A54.089,54.089,0,0,1,66.5,70.29c6.412-4.917,17.077-7.719,22.008-8.637,4.932.926,15.622,3.744,22.018,8.639a54.093,54.093,0,0,1-2.912,13.9C103.946,94.494,97.527,101.923,88.515,106.31Z" transform="translate(-60.201 -55.362)" fill="#f5f0f0"/>
            <path id="Path_1019944" data-name="Path 1019944" d="M88.515,106.31c-9.012-4.388-15.431-11.816-19.1-22.117a54.068,54.068,0,0,1-2.912-13.9c6.412-4.916,17.077-7.719,22.007-8.637a57.884,57.884,0,0,0-10.853,3.579,12.366,12.366,0,0,0-7.042,13.821c.343,1.632.777,3.364,1.327,5.142C75.125,94.494,80.7,101.923,88.515,106.31Z" transform="translate(-60.201 -55.361)" fill="#e8ded8"/>
          </g>
        </g>
        <g id="Group_1197544" data-name="Group 1197544" transform="translate(17.343 15.987)">
          <path id="Path_1019945" data-name="Path 1019945" d="M181.932,151.514q-1.719-.074-3.439-.12a1.3,1.3,0,0,1-1.267-1.267q-.047-1.719-.12-3.439a1.293,1.293,0,0,0-1.033-1.215,18.154,18.154,0,0,0-7.095,0,1.293,1.293,0,0,0-1.033,1.215q-.074,1.719-.12,3.439a1.3,1.3,0,0,1-1.267,1.267q-1.719.047-3.439.12a1.293,1.293,0,0,0-1.215,1.033,18.153,18.153,0,0,0,0,7.095,1.293,1.293,0,0,0,1.215,1.033q1.719.074,3.439.12a1.3,1.3,0,0,1,1.267,1.267q.047,1.719.12,3.439a1.293,1.293,0,0,0,1.033,1.215,18.153,18.153,0,0,0,7.095,0,1.293,1.293,0,0,0,1.033-1.215q.074-1.719.12-3.439a1.3,1.3,0,0,1,1.267-1.267q1.719-.047,3.439-.12a1.293,1.293,0,0,0,1.215-1.033,18.153,18.153,0,0,0,0-7.095,1.293,1.293,0,0,0-1.215-1.033Z" transform="translate(-161.555 -145.123)" fill="#dd636e"/>
        </g>
      </g>
      <g id="Group_1197546" data-name="Group 1197546" transform="translate(4.751 0)">
        <path id="Path_1019946" data-name="Path 1019946" d="M63.12,13.063a.872.872,0,0,0-.255-.594c-3.9-3.9-9.933-7.179-17.94-9.755A80.391,80.391,0,0,0,34.074.011a.869.869,0,0,0-.274,0,80.39,80.39,0,0,0-10.851,2.7C14.943,5.289,8.907,8.571,5.009,12.468a.872.872,0,0,0-.255.594A57.8,57.8,0,0,0,8.029,31.655a48.937,48.937,0,0,0,8.52,15.36,43.242,43.242,0,0,0,17.058,12.4.871.871,0,0,0,.661,0,43.245,43.245,0,0,0,17.058-12.4,48.938,48.938,0,0,0,8.52-15.36A57.8,57.8,0,0,0,63.12,13.063ZM58.18,31.139a47.167,47.167,0,0,1-8.216,14.788A41.471,41.471,0,0,1,33.937,57.662,41.472,41.472,0,0,1,17.91,45.927,47.17,47.17,0,0,1,9.694,31.139,58.089,58.089,0,0,1,6.5,13.451c8.542-8.264,25.728-11.4,27.442-11.7,1.714.3,18.9,3.432,27.442,11.7A58.094,58.094,0,0,1,58.18,31.139Z" transform="translate(-4.751 0)"/>
        <path id="Path_1019947" data-name="Path 1019947" d="M81.717,54.165c-1.473.274-14.618,2.851-22.378,8.8a.871.871,0,0,0-.339.755A54.612,54.612,0,0,0,61.96,77.855c3.745,10.511,10.32,18.117,19.54,22.607a.871.871,0,0,0,.763,0c9.221-4.489,15.8-12.1,19.54-22.607a54.615,54.615,0,0,0,2.961-14.132.871.871,0,0,0-.34-.755,32.765,32.765,0,0,0-5.207-3.185.871.871,0,0,0-.78,1.558,31.976,31.976,0,0,1,4.553,2.729,52.84,52.84,0,0,1-2.827,13.2c-3.535,9.92-9.684,17.131-18.28,21.436C73.285,94.4,67.136,87.191,63.6,77.271a53.693,53.693,0,0,1-2.827-13.2,42.171,42.171,0,0,1,10.942-5.405,73.337,73.337,0,0,1,10.159-2.754,73.112,73.112,0,0,1,13.451,4.016.871.871,0,1,0,.668-1.609,74.879,74.879,0,0,0-13.957-4.15.875.875,0,0,0-.32,0Z" transform="translate(-52.696 -47.86)"/>
        <path id="Path_1019948" data-name="Path 1019948" d="M175.272,153.189c-1.091.048-2.243.088-3.424.12a2.173,2.173,0,0,0-2.115,2.113c-.032,1.158-.072,2.31-.119,3.425a.423.423,0,0,1-.331.4,17.361,17.361,0,0,1-6.758,0,.423.423,0,0,1-.331-.4c-.048-1.115-.088-2.268-.119-3.425a2.174,2.174,0,0,0-2.115-2.114q-.845-.023-1.691-.052a.871.871,0,0,0-.061,1.741q.852.03,1.705.053a.431.431,0,0,1,.42.419c.032,1.166.072,2.328.12,3.452a2.156,2.156,0,0,0,1.734,2.032,19.092,19.092,0,0,0,7.433,0,2.156,2.156,0,0,0,1.734-2.033c.048-1.124.088-2.285.12-3.452a.431.431,0,0,1,.42-.419c1.191-.033,2.352-.073,3.452-.121a2.155,2.155,0,0,0,2.032-1.734,19.089,19.089,0,0,0,0-7.432,2.155,2.155,0,0,0-2.032-1.734c-1.124-.049-2.286-.089-3.452-.12a.433.433,0,0,1-.421-.42c-.032-1.166-.072-2.328-.12-3.452A2.156,2.156,0,0,0,169.62,138a19.1,19.1,0,0,0-7.433,0,2.156,2.156,0,0,0-1.734,2.033c-.048,1.124-.088,2.285-.12,3.452a.432.432,0,0,1-.419.42c-1.167.031-2.329.071-3.453.12a2.155,2.155,0,0,0-2.032,1.734,19.069,19.069,0,0,0-.036,7.242.871.871,0,1,0,1.713-.321,17.338,17.338,0,0,1,.033-6.584.423.423,0,0,1,.4-.331c1.115-.049,2.266-.089,3.425-.119a2.176,2.176,0,0,0,2.113-2.114c.032-1.158.072-2.31.119-3.425a.423.423,0,0,1,.331-.4,17.36,17.36,0,0,1,6.758,0,.423.423,0,0,1,.331.4c.048,1.115.088,2.268.119,3.425a2.176,2.176,0,0,0,2.115,2.115c1.157.03,2.309.071,3.424.119a.423.423,0,0,1,.4.331,17.35,17.35,0,0,1,0,6.757A.423.423,0,0,1,175.272,153.189Z" transform="translate(-136.718 -121.651)"/>
      </g>
    </g>
  </g>
</svg>
