<svg xmlns="http://www.w3.org/2000/svg" width="150" height="150" viewBox="0 0 150 150">
  <g id="img3" transform="translate(-383.746 -8400)">
    <circle id="Ellipse_13609" data-name="Ellipse 13609" cx="75" cy="75" r="75" transform="translate(383.746 8400)" fill="#b9c296"/>
    <g id="Group_1198959" data-name="Group 1198959" transform="translate(396.531 8433.745)">
      <g id="Group_1198958" data-name="Group 1198958" transform="translate(24.986 0)">
        <path id="Path_1025118" data-name="Path 1025118" d="M27.024,22.678h18.6a2.044,2.044,0,0,0,1.965-1.5H93.716a1.209,1.209,0,0,0,1.071-.648L99.306,11.9a1.208,1.208,0,0,0,0-1.121L94.787,2.139a1.208,1.208,0,0,0-1.071-.648H73.651a1.209,1.209,0,1,0,0,2.417H92.985l3.886,7.431-3.886,7.426H47.664V3.908H68a1.209,1.209,0,0,0,0-2.417H47.587A2.043,2.043,0,0,0,45.622,0h-18.6a2.04,2.04,0,0,0-2.037,2.037v18.6a2.042,2.042,0,0,0,2.037,2.042ZM27.4,2.417H45.246V20.261H27.4Z" transform="translate(-24.986 0)" fill="#4a4e3c"/>
        <path id="Path_1025119" data-name="Path 1025119" d="M94.787,187.763a1.208,1.208,0,0,0-1.071-.648H47.586a2.044,2.044,0,0,0-1.964-1.491h-18.6a2.042,2.042,0,0,0-2.037,2.042v18.6a2.04,2.04,0,0,0,2.037,2.037h18.6a2.043,2.043,0,0,0,1.965-1.491h46.13a1.209,1.209,0,0,0,1.071-.648l4.519-8.639a1.208,1.208,0,0,0,0-1.12ZM45.246,205.885H27.4V188.041H45.246Zm47.738-1.491H47.663V189.532H92.984l3.887,7.431Z" transform="translate(-24.986 -155.71)" fill="#4a4e3c"/>
        <path id="Path_1025120" data-name="Path 1025120" d="M85.039,35.251h-1.9a1.209,1.209,0,0,0,0,2.417h.694v7.685a1.209,1.209,0,0,0,2.417,0V36.46A1.209,1.209,0,0,0,85.039,35.251Z" transform="translate(-72.752 -29.57)" fill="#4a4e3c"/>
        <path id="Path_1025121" data-name="Path 1025121" d="M78.755,229.406c-.749.01-1.538.017-2.237.02.471-.635,1.086-1.483,1.876-2.613a6.986,6.986,0,0,0,1.136-2.348,1.214,1.214,0,0,0,.023-.132l.042-.347a1.2,1.2,0,0,0,.009-.144,3.485,3.485,0,0,0-6.9-.671,1.209,1.209,0,0,0,2.373.462,1.068,1.068,0,0,1,2.113.15l-.023.188a4.757,4.757,0,0,1-.748,1.456c-1.413,2.019-2.251,3.116-2.7,3.705-.559.731-.867,1.134-.668,1.79a1.252,1.252,0,0,0,.811.826,7.11,7.11,0,0,0,2.036.1c.684,0,1.616-.007,2.894-.024a1.209,1.209,0,0,0-.031-2.417Z" transform="translate(-64.992 -184.847)" fill="#4a4e3c"/>
        <path id="Path_1025122" data-name="Path 1025122" d="M77.2,405.869a3.5,3.5,0,0,0-3.421,2.811,1.209,1.209,0,0,0,2.371.472,1.068,1.068,0,1,1,1.051,1.273,1.209,1.209,0,1,0,0,2.417,1.067,1.067,0,1,1-1.056,1.228,1.225,1.225,0,0,1-.013-.164,1.209,1.209,0,1,0-2.417,0,3.593,3.593,0,0,0,.034.485,3.484,3.484,0,1,0,6.086-2.759,3.485,3.485,0,0,0-2.634-5.764Z" transform="translate(-65.86 -340.461)" fill="#4a4e3c"/>
        <path id="Path_1025123" data-name="Path 1025123" d="M193.026,47.437h7.454a1.209,1.209,0,0,0,0-2.417h-7.454a1.209,1.209,0,0,0,0,2.417Z" transform="translate(-164.931 -37.765)" fill="#4a4e3c"/>
        <path id="Path_1025124" data-name="Path 1025124" d="M193.026,84.269h15.153a1.209,1.209,0,0,0,0-2.417H193.026a1.209,1.209,0,1,0,0,2.417Z" transform="translate(-164.931 -68.661)" fill="#4a4e3c"/>
        <path id="Path_1025125" data-name="Path 1025125" d="M193.026,231.855h7.454a1.209,1.209,0,1,0,0-2.417h-7.454a1.209,1.209,0,1,0,0,2.417Z" transform="translate(-164.931 -192.463)" fill="#4a4e3c"/>
        <path id="Path_1025126" data-name="Path 1025126" d="M208.179,266.3H193.026a1.209,1.209,0,1,0,0,2.417h15.153a1.209,1.209,0,0,0,0-2.417Z" transform="translate(-164.931 -223.383)" fill="#4a4e3c"/>
        <path id="Path_1025127" data-name="Path 1025127" d="M193.026,418.657h7.454a1.209,1.209,0,0,0,0-2.417h-7.454a1.209,1.209,0,0,0,0,2.417Z" transform="translate(-164.931 -349.161)" fill="#4a4e3c"/>
        <path id="Path_1025128" data-name="Path 1025128" d="M193.026,455.489h15.153a1.209,1.209,0,0,0,0-2.417H193.026a1.209,1.209,0,1,0,0,2.417Z" transform="translate(-164.931 -380.057)" fill="#4a4e3c"/>
        <path id="Path_1025129" data-name="Path 1025129" d="M94.787,373.418a1.209,1.209,0,0,0-1.071-.648H73.651a1.209,1.209,0,1,0,0,2.417H92.985l3.886,7.431-3.886,7.426H47.663V375.187H68a1.209,1.209,0,1,0,0-2.417H47.587a2.043,2.043,0,0,0-1.965-1.491h-18.6a2.04,2.04,0,0,0-2.037,2.037v18.6a2.042,2.042,0,0,0,2.037,2.042h18.6a2.044,2.044,0,0,0,1.965-1.5H93.716a1.209,1.209,0,0,0,1.071-.648l4.519-8.635a1.208,1.208,0,0,0,0-1.121ZM45.246,391.539H27.4V373.7H45.246Z" transform="translate(-24.986 -311.446)" fill="#4a4e3c"/>
      </g>
    </g>
  </g>
</svg>
