<svg xmlns="http://www.w3.org/2000/svg" width="150" height="150" viewBox="0 0 150 150">
  <g id="img4" transform="translate(-383.746 -8400)">
    <circle id="Ellipse_13609" data-name="Ellipse 13609" cx="75" cy="75" r="75" transform="translate(383.746 8400)" fill="#b9c296"/>
    <g id="Group_1198961" data-name="Group 1198961" transform="translate(403.909 8433.157)">
      <g id="Group_1198960" data-name="Group 1198960" transform="translate(15.534 0)">
        <path id="Path_1025130" data-name="Path 1025130" d="M78.1,342.808a3.684,3.684,0,0,0-3.609,2.966,1.226,1.226,0,1,0,2.406.473,1.226,1.226,0,1,1,1.2,1.465,1.226,1.226,0,1,0,0,2.452,1.226,1.226,0,1,1-1.214,1.4,1.266,1.266,0,0,1-.012-.173,1.226,1.226,0,0,0-2.452,0,3.738,3.738,0,0,0,.035.511,3.678,3.678,0,1,0,6.381-2.963,3.675,3.675,0,0,0-2.738-6.129Z" transform="translate(-64.797 -286.777)" fill="#4a4e3c"/>
        <path id="Path_1025131" data-name="Path 1025131" d="M81.051,118.969a1.226,1.226,0,0,0,1.226-1.226v-9.807a1.226,1.226,0,0,0-1.226-1.226h-2.1a1.226,1.226,0,1,0,0,2.452h.87v8.581A1.226,1.226,0,0,0,81.051,118.969Z" transform="translate(-67.563 -89.268)" fill="#4a4e3c"/>
        <path id="Path_1025132" data-name="Path 1025132" d="M149.35,114.612h32.981a1.226,1.226,0,0,0,0-2.452H149.35a1.226,1.226,0,1,0,0,2.452Z" transform="translate(-126.452 -93.828)" fill="#4a4e3c"/>
        <path id="Path_1025133" data-name="Path 1025133" d="M149.35,163.713h32.981a1.226,1.226,0,1,0,0-2.452H149.35a1.226,1.226,0,1,0,0,2.452Z" transform="translate(-126.452 -134.903)" fill="#4a4e3c"/>
        <path id="Path_1025134" data-name="Path 1025134" d="M149.35,351.347h14.577a1.226,1.226,0,1,0,0-2.452H149.35a1.226,1.226,0,1,0,0,2.452Z" transform="translate(-126.452 -291.869)" fill="#4a4e3c"/>
        <path id="Path_1025135" data-name="Path 1025135" d="M149.35,400.448h12.907a1.226,1.226,0,0,0,0-2.452H149.35a1.226,1.226,0,0,0,0,2.452Z" transform="translate(-126.452 -332.944)" fill="#4a4e3c"/>
        <path id="Path_1025136" data-name="Path 1025136" d="M149.35,232.449h32.981a1.226,1.226,0,1,0,0-2.452H149.35a1.226,1.226,0,0,0,0,2.452Z" transform="translate(-126.452 -192.404)" fill="#4a4e3c"/>
        <path id="Path_1025137" data-name="Path 1025137" d="M149.35,281.551h19.586a1.226,1.226,0,0,0,0-2.452H149.35a1.226,1.226,0,1,0,0,2.452Z" transform="translate(-126.452 -233.481)" fill="#4a4e3c"/>
        <path id="Path_1025138" data-name="Path 1025138" d="M74.1,229.493a1.226,1.226,0,0,0,1.439-.967,1.236,1.236,0,0,1,2.446.176l-.027.214a5.3,5.3,0,0,1-.82,1.608c-1.522,2.174-2.43,3.363-2.918,4-.613.8-.92,1.2-.714,1.876a1.269,1.269,0,0,0,.824.836,7.934,7.934,0,0,0,2.2.1c.736,0,1.735-.007,3.1-.025a1.226,1.226,0,0,0-.031-2.452c-.87.011-1.789.018-2.584.021.52-.7,1.216-1.655,2.126-2.956a7.441,7.441,0,0,0,1.212-2.514,1.176,1.176,0,0,0,.022-.121l.048-.372a1.206,1.206,0,0,0,.01-.155,3.687,3.687,0,0,0-7.305-.713,1.227,1.227,0,0,0,.967,1.439Z" transform="translate(-63.698 -188.291)" fill="#4a4e3c"/>
        <path id="Path_1025139" data-name="Path 1025139" d="M312.537,356.75a3.9,3.9,0,0,0,5.514,0L328.23,346.57a2.114,2.114,0,0,0,0-2.989l-2.524-2.524a2.114,2.114,0,0,0-2.99,0l-7.422,7.423-4.252-4.252a2.116,2.116,0,0,0-2.989,0l-2.524,2.525a2.117,2.117,0,0,0,0,2.989Zm-2.99-10.55,4.88,4.88a1.226,1.226,0,0,0,1.734,0l8.05-8.05,2.047,2.047-9.94,9.941a1.447,1.447,0,0,1-2.047,0l-6.77-6.77Z" transform="translate(-257.612 -284.793)" fill="#4a4e3c"/>
        <path id="Path_1025140" data-name="Path 1025140" d="M82.983,46.824V5.312A5.318,5.318,0,0,0,77.671,0H71.246a1.226,1.226,0,1,0,0,2.452h6.425a2.864,2.864,0,0,1,2.86,2.86V9.935H18.008V5.312a2.864,2.864,0,0,1,2.86-2.86H65.526a1.226,1.226,0,1,0,0-2.452H20.869a5.318,5.318,0,0,0-5.312,5.312l0,33.643a1.226,1.226,0,0,0,1.226,1.226h0A1.226,1.226,0,0,0,18,38.955l0-26.568H80.531V45.872A19.357,19.357,0,0,0,63.6,48.578a1.226,1.226,0,1,0,1.422,2,16.893,16.893,0,1,1-3.807,3.738,1.226,1.226,0,1,0-1.971-1.458,19.322,19.322,0,0,0,.076,23.069H20.846a2.864,2.864,0,0,1-2.86-2.86L18,44.676a1.226,1.226,0,0,0-1.225-1.227h0a1.226,1.226,0,0,0-1.226,1.225l-.016,28.389a5.318,5.318,0,0,0,5.312,5.312H61.5A19.335,19.335,0,1,0,82.983,46.824Z" transform="translate(-15.534 0)" fill="#4a4e3c"/>
      </g>
    </g>
  </g>
</svg>
