<svg xmlns="http://www.w3.org/2000/svg" width="150" height="150" viewBox="0 0 150 150">
  <g id="img5" transform="translate(-383.746 -8400)">
    <circle id="Ellipse_13609" data-name="Ellipse 13609" cx="75" cy="75" r="75" transform="translate(383.746 8400)" fill="#b9c296"/>
    <g id="Group_1198962" data-name="Group 1198962" transform="translate(353.854 8427.087)">
      <path id="Path_1025141" data-name="Path 1025141" d="M196.572,66.321a1.4,1.4,0,0,0,1.9-.582,16.632,16.632,0,1,0-14.7,8.845,16.486,16.486,0,0,0,10.019-3.356,1.4,1.4,0,0,0-1.693-2.24,13.823,13.823,0,1,1-8.326-24.857A13.828,13.828,0,0,1,195.99,64.423a1.4,1.4,0,0,0,.582,1.9Z" transform="translate(-79.048 -33.589)" fill="#4a4e3c"/>
      <path id="Path_1025142" data-name="Path 1025142" d="M218.521,88.376a2.333,2.333,0,0,0-3.3,0l-4.459,4.459-2.423-2.423a2.333,2.333,0,0,0-3.3,0l-2.761,2.761a2.331,2.331,0,0,0,0,3.3l6.176,6.176a3.257,3.257,0,0,0,4.607,0l8.212-8.212a2.331,2.331,0,0,0,0-3.3Zm-7.437,12.283a.45.45,0,0,1-.636,0l-5.839-5.839,2.086-2.086,2.751,2.751a1.867,1.867,0,0,0,2.64,0l4.787-4.787,2.086,2.086Z" transform="translate(-107.061 -71.281)" fill="#4a4e3c"/>
      <path id="Path_1025143" data-name="Path 1025143" d="M136.963,52.982l-5.232-1.308a28.509,28.509,0,0,0-1.321-3.187l2.775-4.626a3.416,3.416,0,0,0-.515-4.18l-5-5a39.581,39.581,0,0,0,1.416-10.317A24.405,24.405,0,0,0,104.793,0h-.072A23.9,23.9,0,0,0,86.962,7.749a1.4,1.4,0,0,0,2.063,1.9,21.118,21.118,0,0,1,15.7-6.845h.064A21.593,21.593,0,0,1,126.28,24.365c0,17.828-14.224,33.281-20.34,39.1a1.762,1.762,0,0,1-2.429,0C97.655,57.9,83.955,43.085,83.2,25.828a22.694,22.694,0,0,1,2.329-11.1,1.4,1.4,0,0,0-2.512-1.254,25.509,25.509,0,0,0-2.622,12.479,40.228,40.228,0,0,0,1.384,8.728l-5,5a3.417,3.417,0,0,0-.514,4.18l2.775,4.626a28.523,28.523,0,0,0-1.321,3.187l-5.232,1.308A3.417,3.417,0,0,0,69.892,56.3v9.385A3.416,3.416,0,0,0,72.484,69l5.232,1.308A28.467,28.467,0,0,0,79.037,73.5l-2.775,4.626a3.417,3.417,0,0,0,.514,4.18l6.636,6.636a3.418,3.418,0,0,0,4.18.514l4.625-2.775A28.506,28.506,0,0,0,95.4,88l1.308,5.232a3.417,3.417,0,0,0,3.319,2.592h9.385a3.416,3.416,0,0,0,3.319-2.592L114.043,88a28.47,28.47,0,0,0,3.187-1.322l4.626,2.775a3.417,3.417,0,0,0,4.18-.514l6.636-6.636a3.416,3.416,0,0,0,.515-4.18L130.411,73.5a28.484,28.484,0,0,0,1.321-3.187L136.964,69a3.416,3.416,0,0,0,2.592-3.319V56.3A3.418,3.418,0,0,0,136.963,52.982Zm-.216,12.7a.613.613,0,0,1-.465.6l-5.982,1.5a1.4,1.4,0,0,0-1,.941,25.676,25.676,0,0,1-1.737,4.19,1.4,1.4,0,0,0,.04,1.372l3.173,5.289a.613.613,0,0,1-.092.75l-6.636,6.636a.613.613,0,0,1-.75.092l-5.289-3.173a1.4,1.4,0,0,0-1.372-.04,25.664,25.664,0,0,1-4.19,1.737,1.4,1.4,0,0,0-.941,1l-1.5,5.982a.613.613,0,0,1-.6.465h-9.385a.613.613,0,0,1-.6-.465l-1.5-5.982a1.4,1.4,0,0,0-.941-1,25.677,25.677,0,0,1-4.19-1.737,1.4,1.4,0,0,0-1.372.04l-5.289,3.173a.613.613,0,0,1-.75-.092L78.76,80.32a.613.613,0,0,1-.092-.75l3.173-5.289a1.4,1.4,0,0,0,.04-1.372,25.66,25.66,0,0,1-1.737-4.19,1.4,1.4,0,0,0-1-.941l-5.982-1.5a.613.613,0,0,1-.465-.6V56.3a.613.613,0,0,1,.465-.6l5.982-1.5a1.4,1.4,0,0,0,1-.941,25.679,25.679,0,0,1,1.737-4.19,1.4,1.4,0,0,0-.04-1.372l-3.173-5.289a.613.613,0,0,1,.092-.75l3.951-3.951A60.645,60.645,0,0,0,89.939,51.83a17.3,17.3,0,0,0-2.607,9.163q0,.2,0,.409a1.4,1.4,0,0,0,1.4,1.371h.034a1.4,1.4,0,0,0,1.371-1.436q0-.172,0-.344a14.517,14.517,0,0,1,1.592-6.633A87,87,0,0,0,101.575,65.5a4.567,4.567,0,0,0,6.3,0,87.071,87.071,0,0,0,9.842-11.133,14.587,14.587,0,1,1-26.21,12.8,1.4,1.4,0,0,0-2.543,1.19,17.394,17.394,0,1,0,30.545-16.524,60.531,60.531,0,0,0,7.229-14.115l3.948,3.948a.613.613,0,0,1,.092.75L127.6,47.706a1.4,1.4,0,0,0-.04,1.372,25.667,25.667,0,0,1,1.737,4.19,1.4,1.4,0,0,0,1,.941l5.982,1.5a.613.613,0,0,1,.465.6v9.385Z" fill="#4a4e3c"/>
    </g>
  </g>
</svg>
