<svg xmlns="http://www.w3.org/2000/svg" width="150" height="150" viewBox="0 0 150 150">
  <g id="img11" transform="translate(-383.746 -8400)">
    <circle id="Ellipse_13609" data-name="Ellipse 13609" cx="75" cy="75" r="75" transform="translate(383.746 8400)" fill="#b9c296"/>
    <path id="Path_1025761" data-name="Path 1025761" d="M27.739,17.77C33.03,11.652,41.913,8,51.5,8s18.47,3.652,23.761,9.77a1.4,1.4,0,1,1-2.123,1.836c-4.766-5.51-12.855-8.8-21.639-8.8s-16.873,3.29-21.639,8.8a1.4,1.4,0,0,1-2.123-1.836ZM45.767,79.817H11.817A3.821,3.821,0,0,1,8,76V31.6a3.821,3.821,0,0,1,3.817-3.817H18.1v-.055a1.4,1.4,0,0,1,1.4-1.4h4.318a5.511,5.511,0,0,1,9.947,0h4.318a1.4,1.4,0,0,1,1.4,1.4v.055h6.28A3.821,3.821,0,0,1,49.583,31.6V76A3.821,3.821,0,0,1,45.767,79.817ZM20.9,32.595H36.68V29.126h-3.9a1.4,1.4,0,0,1-1.364-1.074,2.7,2.7,0,0,0-5.248,0A1.4,1.4,0,0,1,24.8,29.126H20.9ZM11.817,77.011h33.95A1.011,1.011,0,0,0,46.777,76V31.6a1.011,1.011,0,0,0-1.01-1.01h-6.28V34a1.4,1.4,0,0,1-1.4,1.4H19.5A1.4,1.4,0,0,1,18.1,34V30.585h-6.28a1.011,1.011,0,0,0-1.01,1.01V76a1.011,1.011,0,0,0,1.01,1.01ZM28.792,29.034a1.085,1.085,0,1,0-1.085-1.085A1.088,1.088,0,0,0,28.792,29.034ZM42.174,57.216H27.985a1.4,1.4,0,1,0,0,2.806h14.19a1.4,1.4,0,0,0,0-2.806Zm0-4.826H27.985a1.4,1.4,0,1,0,0,2.806h14.19a1.4,1.4,0,0,0,0-2.806Zm0-12.586H27.985a1.4,1.4,0,0,0,0,2.806h14.19a1.4,1.4,0,0,0,0-2.806Zm0,4.826H27.985a1.4,1.4,0,1,0,0,2.806h14.19a1.4,1.4,0,0,0,0-2.806ZM23.568,41.585v4.07A2.749,2.749,0,0,1,20.822,48.4h-4.07a2.749,2.749,0,0,1-2.746-2.746v-4.07a2.749,2.749,0,0,1,2.746-2.746h4.07A2.749,2.749,0,0,1,23.568,41.585Zm-2.806.06H16.812v3.949h3.949Zm2.806,12.526v4.07a2.749,2.749,0,0,1-2.746,2.746h-4.07a2.749,2.749,0,0,1-2.746-2.746v-4.07a2.749,2.749,0,0,1,2.746-2.746h4.07A2.749,2.749,0,0,1,23.568,54.171Zm-2.806.06H16.812v3.949h3.949ZM42.174,64.975H27.985a1.4,1.4,0,1,0,0,2.806h14.19a1.4,1.4,0,1,0,0-2.806Zm0,4.826H27.985a1.4,1.4,0,1,0,0,2.806h14.19a1.4,1.4,0,1,0,0-2.806ZM23.568,66.757v4.07a2.749,2.749,0,0,1-2.746,2.746h-4.07a2.749,2.749,0,0,1-2.746-2.746v-4.07a2.749,2.749,0,0,1,2.746-2.746h4.07A2.749,2.749,0,0,1,23.568,66.757Zm-2.806.06H16.812v3.949h3.949ZM95,31.6V76a3.821,3.821,0,0,1-3.817,3.817H57.233A3.821,3.821,0,0,1,53.417,76V31.6a3.821,3.821,0,0,1,3.817-3.817h6.28v-.055a1.4,1.4,0,0,1,1.4-1.4h4.318a5.511,5.511,0,0,1,9.947,0H83.5a1.4,1.4,0,0,1,1.4,1.4v.055h6.28A3.821,3.821,0,0,1,95,31.6Zm-28.68,1H82.1V29.126H78.2a1.4,1.4,0,0,1-1.364-1.074,2.7,2.7,0,0,0-5.248,0,1.4,1.4,0,0,1-1.364,1.074h-3.9v3.468Zm25.873-1a1.011,1.011,0,0,0-1.01-1.01H84.9V34a1.4,1.4,0,0,1-1.4,1.4H64.917a1.4,1.4,0,0,1-1.4-1.4V30.585h-6.28a1.011,1.011,0,0,0-1.01,1.01V76a1.011,1.011,0,0,0,1.01,1.01h33.95A1.011,1.011,0,0,0,92.194,76ZM74.208,29.034a1.085,1.085,0,1,0-1.085-1.085A1.087,1.087,0,0,0,74.208,29.034ZM87.591,57.216H73.4a1.4,1.4,0,0,0,0,2.806h14.19a1.4,1.4,0,1,0,0-2.806Zm0-4.826H73.4a1.4,1.4,0,0,0,0,2.806h14.19a1.4,1.4,0,1,0,0-2.806Zm0-7.76H73.4a1.4,1.4,0,0,0,0,2.806h14.19a1.4,1.4,0,1,0,0-2.806Zm0-4.826H73.4a1.4,1.4,0,0,0,0,2.806h14.19a1.4,1.4,0,1,0,0-2.806ZM68.985,41.585v4.07A2.749,2.749,0,0,1,66.238,48.4h-4.07a2.749,2.749,0,0,1-2.746-2.746v-4.07a2.749,2.749,0,0,1,2.746-2.746h4.07A2.749,2.749,0,0,1,68.985,41.585Zm-2.806.06H62.229v3.949h3.949Zm2.806,12.526v4.07a2.749,2.749,0,0,1-2.746,2.746h-4.07a2.749,2.749,0,0,1-2.746-2.746v-4.07a2.749,2.749,0,0,1,2.746-2.746h4.07A2.749,2.749,0,0,1,68.985,54.171Zm-2.806.06H62.229v3.949h3.949ZM87.591,64.975H73.4a1.4,1.4,0,0,0,0,2.806h14.19a1.4,1.4,0,1,0,0-2.806Zm0,4.826H73.4a1.4,1.4,0,0,0,0,2.806h14.19a1.4,1.4,0,1,0,0-2.806ZM68.985,66.757v4.07a2.749,2.749,0,0,1-2.746,2.746h-4.07a2.749,2.749,0,0,1-2.746-2.746v-4.07a2.749,2.749,0,0,1,2.746-2.746h4.07A2.749,2.749,0,0,1,68.985,66.757Zm-2.806.06H62.229v3.949h3.949Zm8.94,16.434a1.4,1.4,0,0,0-1.979.143c-4.766,5.51-12.855,8.8-21.639,8.8s-16.873-3.29-21.639-8.8a1.4,1.4,0,0,0-2.123,1.836C33.03,91.348,41.913,95,51.5,95s18.47-3.652,23.761-9.77A1.4,1.4,0,0,0,75.118,83.251Z" transform="translate(407.746 8423.629)" fill="#4a4e3c"/>
  </g>
</svg>
