<svg xmlns="http://www.w3.org/2000/svg" width="150" height="150" viewBox="0 0 150 150">
  <g id="img14" transform="translate(-383.746 -8400)">
    <circle id="Ellipse_13609" data-name="Ellipse 13609" cx="75" cy="75" r="75" transform="translate(383.746 8400)" fill="#b9c296"/>
    <g id="Group_1199272" data-name="Group 1199272" transform="translate(423.365 8438.542)">
      <path id="Path_1025784" data-name="Path 1025784" d="M9.861,72.913H60.9a4.861,4.861,0,0,0,4.861-4.861V8.506A4.861,4.861,0,0,0,60.9,3.645H47.195A2.422,2.422,0,0,0,45.1,2.43H40.808a1.394,1.394,0,0,1-.972-.486,6.076,6.076,0,0,0-8.905,0,1.394,1.394,0,0,1-.972.486h-4.3a2.422,2.422,0,0,0-2.093,1.215H9.861A4.861,4.861,0,0,0,5,8.506V68.052A4.861,4.861,0,0,0,9.861,72.913ZM25.659,4.86h4.295a3.756,3.756,0,0,0,2.76-1.266,3.723,3.723,0,0,1,5.335,0,3.756,3.756,0,0,0,2.76,1.266H45.1V9.721H25.659ZM45.1,12.152a2.422,2.422,0,0,0,2.093-1.215H58.47V65.622H12.291V10.937H23.566a2.422,2.422,0,0,0,2.093,1.215ZM7.43,8.506a2.43,2.43,0,0,1,2.43-2.43H23.228v2.43H12.291a2.43,2.43,0,0,0-2.43,2.43V65.622a2.43,2.43,0,0,0,2.43,2.43H58.47a2.43,2.43,0,0,0,2.43-2.43V10.937a2.43,2.43,0,0,0-2.43-2.43H47.533V6.076H60.9a2.43,2.43,0,0,1,2.43,2.43V68.052a2.43,2.43,0,0,1-2.43,2.43H9.861a2.43,2.43,0,0,1-2.43-2.43Z" fill="#4a4e3c"/>
      <path id="Path_1025785" data-name="Path 1025785" d="M20.074,18.432a1.215,1.215,0,1,0-1.718,1.718l1.215,1.215a1.215,1.215,0,0,0,1.718,0l7.291-7.291a1.215,1.215,0,1,0-1.718-1.718L20.43,18.788Z" transform="translate(2.798 2.582)" fill="#4a4e3c"/>
      <path id="Path_1025786" data-name="Path 1025786" d="M14,15.646v7.291a3.646,3.646,0,0,0,3.646,3.646h7.291a3.646,3.646,0,0,0,3.646-3.646v-2.43a1.215,1.215,0,1,0-2.43,0v2.43a1.215,1.215,0,0,1-1.215,1.215H17.646a1.215,1.215,0,0,1-1.215-1.215V15.646a1.215,1.215,0,0,1,1.215-1.215h4.861a1.215,1.215,0,1,0,0-2.43H17.646A3.646,3.646,0,0,0,14,15.646Z" transform="translate(1.937 2.582)" fill="#4a4e3c"/>
      <path id="Path_1025787" data-name="Path 1025787" d="M26.863,26.356,20.43,32.788l-.356-.356a1.215,1.215,0,1,0-1.718,1.718l1.215,1.215a1.215,1.215,0,0,0,1.718,0l7.291-7.291a1.215,1.215,0,1,0-1.718-1.718Z" transform="translate(2.798 5.595)" fill="#4a4e3c"/>
      <path id="Path_1025788" data-name="Path 1025788" d="M17.646,40.583h7.291a3.646,3.646,0,0,0,3.646-3.646v-2.43a1.215,1.215,0,0,0-2.43,0v2.43a1.215,1.215,0,0,1-1.215,1.215H17.646a1.215,1.215,0,0,1-1.215-1.215V29.646a1.215,1.215,0,0,1,1.215-1.215h4.861a1.215,1.215,0,1,0,0-2.43H17.646A3.646,3.646,0,0,0,14,29.646v7.291A3.646,3.646,0,0,0,17.646,40.583Z" transform="translate(1.937 5.595)" fill="#4a4e3c"/>
      <path id="Path_1025789" data-name="Path 1025789" d="M26.863,40.356,20.43,46.788l-.356-.356a1.215,1.215,0,1,0-1.718,1.718l1.215,1.215a1.215,1.215,0,0,0,1.718,0l7.291-7.291a1.215,1.215,0,1,0-1.718-1.718Z" transform="translate(2.798 8.608)" fill="#4a4e3c"/>
      <path id="Path_1025790" data-name="Path 1025790" d="M27.367,47.291a1.215,1.215,0,0,0-1.215,1.215v2.43a1.215,1.215,0,0,1-1.215,1.215H17.646a1.215,1.215,0,0,1-1.215-1.215V43.646a1.215,1.215,0,0,1,1.215-1.215h4.861a1.215,1.215,0,1,0,0-2.43H17.646A3.646,3.646,0,0,0,14,43.646v7.291a3.646,3.646,0,0,0,3.646,3.646h7.291a3.646,3.646,0,0,0,3.646-3.646v-2.43A1.215,1.215,0,0,0,27.367,47.291Z" transform="translate(1.937 8.608)" fill="#4a4e3c"/>
      <path id="Path_1025791" data-name="Path 1025791" d="M31.215,17.43h3.646a1.215,1.215,0,1,0,0-2.43H31.215a1.215,1.215,0,1,0,0,2.43Z" transform="translate(5.381 3.228)" fill="#4a4e3c"/>
      <path id="Path_1025792" data-name="Path 1025792" d="M31.215,21.43H48.228a1.215,1.215,0,1,0,0-2.43H31.215a1.215,1.215,0,0,0,0,2.43Z" transform="translate(5.381 4.089)" fill="#4a4e3c"/>
      <path id="Path_1025793" data-name="Path 1025793" d="M31.215,31.43h3.646a1.215,1.215,0,1,0,0-2.43H31.215a1.215,1.215,0,0,0,0,2.43Z" transform="translate(5.381 6.241)" fill="#4a4e3c"/>
      <path id="Path_1025794" data-name="Path 1025794" d="M31.215,35.43H48.228a1.215,1.215,0,1,0,0-2.43H31.215a1.215,1.215,0,0,0,0,2.43Z" transform="translate(5.381 7.102)" fill="#4a4e3c"/>
      <path id="Path_1025795" data-name="Path 1025795" d="M31.215,45.43h3.646a1.215,1.215,0,1,0,0-2.43H31.215a1.215,1.215,0,1,0,0,2.43Z" transform="translate(5.381 9.254)" fill="#4a4e3c"/>
      <path id="Path_1025796" data-name="Path 1025796" d="M31.215,49.43H48.228a1.215,1.215,0,1,0,0-2.43H31.215a1.215,1.215,0,1,0,0,2.43Z" transform="translate(5.381 10.115)" fill="#4a4e3c"/>
      <path id="Path_1025797" data-name="Path 1025797" d="M31.625,4h-2.41a1.215,1.215,0,0,0,0,2.43h2.053c1.057,0,1.593-.408,1.593-1.215A1.235,1.235,0,0,0,31.625,4Z" transform="translate(4.95 0.86)" fill="#4a4e3c"/>
    </g>
  </g>
</svg>
