<svg xmlns="http://www.w3.org/2000/svg" width="84" height="84" viewBox="0 0 84 84">
  <g id="img1" transform="translate(-186 -405.5)">
    <rect id="Rectangle_461458" data-name="Rectangle 461458" width="84" height="84" rx="9" transform="translate(186 405.5)" fill="#ffe3c2"/>
    <g id="Layer_33" data-name="Layer 33" transform="translate(196 415)">
      <path id="Path_1018416" data-name="Path 1018416" d="M46,1A12,12,0,0,1,58,13V30a8,8,0,0,1-8,8H42a8,8,0,0,1-8-8V13A12,12,0,0,1,46,1Z" fill="#c67a60"/>
      <path id="Path_1018417" data-name="Path 1018417" d="M35,43.034V63H5a4,4,0,0,1-4-4V43.034a8,8,0,0,1,5.8-7.692L15,33h6l8.2,2.342A8,8,0,0,1,35,43.034Z" fill="#62b5e8"/>
      <path id="Path_1018418" data-name="Path 1018418" d="M4,59V43.034a8,8,0,0,1,5.8-7.692L18,33H15L6.8,35.342A8,8,0,0,0,1,43.034V59a4,4,0,0,0,4,4H8A4,4,0,0,1,4,59Z" fill="#44a7d8"/>
      <path id="Path_1018419" data-name="Path 1018419" d="M37,30V13A11.994,11.994,0,0,1,47.5,1.1,11.927,11.927,0,0,0,34,13V30a8,8,0,0,0,8,8h3A8,8,0,0,1,37,30Z" fill="#b26049"/>
      <path id="Path_1018420" data-name="Path 1018420" d="M63,43.034V59a4,4,0,0,1-4,4H29V43.034a8,8,0,0,1,5.8-7.692L43,33h6l8.2,2.342A8,8,0,0,1,63,43.034Z" fill="#f2a7b1"/>
      <path id="Path_1018421" data-name="Path 1018421" d="M43,28h6v5a3,3,0,0,1-6,0Z" fill="#ffddb0" stroke="#000" stroke-linecap="round" stroke-linejoin="round" stroke-width="2"/>
      <path id="Path_1018422" data-name="Path 1018422" d="M9,11H27V22A9,9,0,0,1,9,22Z" fill="#f7d1c6"/>
      <path id="Path_1018423" data-name="Path 1018423" d="M26.544,24.818l-2.451-1.949A4,4,0,0,0,21.6,22H14.4a4,4,0,0,0-2.489.869L9.456,24.818a9,9,0,0,0,17.088,0Z" fill="#c67a60"/>
      <path id="Path_1018424" data-name="Path 1018424" d="M9,15v6a3,3,0,1,1,0-6Z" fill="#f4b19f"/>
      <path id="Path_1018425" data-name="Path 1018425" d="M30,15v6a3,3,0,0,1,0-6Z" transform="translate(57 36) rotate(180)" fill="#f7d1c6"/>
      <path id="Path_1018426" data-name="Path 1018426" d="M46,31a9,9,0,0,1-9-9V15h4a8,8,0,0,0,6.4-3.2L48,11l.6.8A8,8,0,0,0,55,15v7A9,9,0,0,1,46,31Z" fill="#f7d1c6"/>
      <path id="Path_1018427" data-name="Path 1018427" d="M12,22V11H9V22a8.951,8.951,0,0,0,10.5,8.865A8.995,8.995,0,0,1,12,22Z" fill="#f4b19f"/>
      <path id="Path_1018428" data-name="Path 1018428" d="M37,15v6a3,3,0,0,1,0-6Z" fill="#f4b19f"/>
      <path id="Path_1018429" data-name="Path 1018429" d="M58,15v6a3,3,0,0,1,0-6Z" transform="translate(113 36) rotate(180)" fill="#f7d1c6"/>
      <path id="Path_1018430" data-name="Path 1018430" d="M24,3.988V3a2,2,0,0,0-2-2H14.314A8.314,8.314,0,0,0,6,9.314,5.686,5.686,0,0,0,11.686,15,18,18,0,0,0,22.93,11.056L23,11a4,4,0,0,0,4,4V5.988a2,2,0,0,0-2-2Z" fill="#c67a60"/>
      <path id="Path_1018431" data-name="Path 1018431" d="M57,49.012h6V59a4,4,0,0,1-4,4H57Z" fill="#f7d1c6"/>
      <path id="Path_1018432" data-name="Path 1018432" d="M23.969,53.031h-10a8,8,0,0,0-8,8V63h26V61.031A8,8,0,0,0,23.969,53.031Z" fill="#f96464"/>
      <path id="Path_1018433" data-name="Path 1018433" d="M17,53h4v1a2,2,0,0,1-4,0Z" fill="#f7d1c6"/>
      <path id="Path_1018434" data-name="Path 1018434" d="M11,37H27v8a8,8,0,0,1-16,0Z" fill="#f7d1c6"/>
      <path id="Path_1018435" data-name="Path 1018435" d="M14,45V37H11v8a7.985,7.985,0,0,0,9.5,7.855A8,8,0,0,1,14,45Z" fill="#f4b19f"/>
      <path id="Path_1018436" data-name="Path 1018436" d="M19.5,30.87A9.3,9.3,0,0,1,18,31a8.974,8.974,0,0,1-8.54-6.18l2.45-1.95a.6.6,0,0,1,.13-.09,8.987,8.987,0,0,0,7.46,8.09Z" fill="#b26049"/>
      <path id="Path_1018437" data-name="Path 1018437" d="M10,41h1v4H10a2,2,0,0,1,0-4Z" fill="#f4b19f"/>
      <path id="Path_1018438" data-name="Path 1018438" d="M29,41.034h1v4H29a2,2,0,1,1,0-4Z" transform="translate(57 86.069) rotate(180)" fill="#f7d1c6"/>
      <path id="Path_1018439" data-name="Path 1018439" d="M27,41H22.657a4,4,0,0,1-2.829-1.172L19,39l-.828.828A4,4,0,0,1,15.343,41H11V37a8,8,0,1,1,16,0Z" fill="#c67a60"/>
      <path id="Path_1018440" data-name="Path 1018440" d="M20.5,29.145A7.985,7.985,0,0,0,11,37v4h3V37a8,8,0,0,1,6.5-7.855Z" fill="#b26049"/>
      <path id="Path_1018441" data-name="Path 1018441" d="M55,43H35L33,53H57Z" fill="#c67a60"/>
      <path id="Path_1018442" data-name="Path 1018442" d="M37,37H53v8a8,8,0,0,1-16,0Z" fill="#f7d1c6"/>
      <g id="Group_1196473" data-name="Group 1196473">
        <path id="Path_1018443" data-name="Path 1018443" d="M40,45V37H37v8a7.985,7.985,0,0,0,9.5,7.855A8,8,0,0,1,40,45Z" fill="#f4b19f"/>
        <path id="Path_1018444" data-name="Path 1018444" d="M36,41h1v4H36a2,2,0,0,1,0-4Z" fill="#f4b19f"/>
        <path id="Path_1018445" data-name="Path 1018445" d="M40,22V15H37v7a8.951,8.951,0,0,0,10.5,8.865A8.995,8.995,0,0,1,40,22Z" fill="#f4b19f"/>
      </g>
      <path id="Path_1018446" data-name="Path 1018446" d="M55,41.034h1v4H55a2,2,0,0,1,0-4Z" transform="translate(109 86.069) rotate(180)" fill="#f7d1c6"/>
      <path id="Path_1018447" data-name="Path 1018447" d="M53,41H49l-2-2-2,2H37a2,2,0,0,1-2-2,10,10,0,0,1,20,0A2,2,0,0,1,53,41Z" fill="#c67a60"/>
      <path id="Path_1018448" data-name="Path 1018448" d="M38,39a9.993,9.993,0,0,1,8.5-9.875A9.928,9.928,0,0,0,35,39a2,2,0,0,0,2,2h3A2,2,0,0,1,38,39Z" fill="#b26049"/>
      <path id="Path_1018449" data-name="Path 1018449" d="M12,60V58a3,3,0,0,0-3-3c-.106,0-.207.021-.311.031a7.975,7.975,0,0,0-2.672,5.137A2.994,2.994,0,0,0,12,60Z" fill="#d34444"/>
      <path id="Path_1018450" data-name="Path 1018450" d="M49.969,53.031h-10a8,8,0,0,0-8,8V63h26V61.031A8,8,0,0,0,49.969,53.031Z" fill="#fcab68"/>
      <path id="Path_1018451" data-name="Path 1018451" d="M42.969,53.031h-3a8,8,0,0,0-8,8V63h3V61.031A8,8,0,0,1,42.969,53.031Z" fill="#ea8e49"/>
      <path id="Path_1018452" data-name="Path 1018452" d="M43,53h4v1a2,2,0,0,1-4,0Z" fill="#f7d1c6"/>
      <rect id="Rectangle_461806" data-name="Rectangle 461806" width="6" height="8" rx="3" transform="translate(4 55)" fill="#f7d1c6"/>
      <path id="Path_1018453" data-name="Path 1018453" d="M6.083,60V58a2.99,2.99,0,0,1,2-2.816,2.966,2.966,0,0,0-1-.184,3,3,0,0,0-3,3v2a3,3,0,0,0,3,3,2.966,2.966,0,0,0,1-.184,2.99,2.99,0,0,1-2-2.816Z" fill="#f4b19f"/>
      <rect id="Rectangle_461807" data-name="Rectangle 461807" width="6" height="8" rx="3" transform="translate(54 55)" fill="#f7d1c6"/>
      <path id="Path_1018454" data-name="Path 1018454" d="M9,9.314A8.314,8.314,0,0,1,17.314,1h-3A8.314,8.314,0,0,0,6,9.314,5.686,5.686,0,0,0,11.686,15a17.944,17.944,0,0,0,1.886-.111A5.686,5.686,0,0,1,9,9.314Z" fill="#b26049"/>
      <path id="Path_1018455" data-name="Path 1018455" d="M56,60V58a2.99,2.99,0,0,1,2-2.816A2.962,2.962,0,0,0,57,55a3,3,0,0,0-3,3v2a3,3,0,0,0,3,3,2.962,2.962,0,0,0,1-.184A2.99,2.99,0,0,1,56,60Z" fill="#f4b19f"/>
      <path id="Path_1018456" data-name="Path 1018456" d="M41,17a1,1,0,0,0-1,1v.951a1,1,0,0,0,2,0V18A1,1,0,0,0,41,17Z"/>
      <path id="Path_1018457" data-name="Path 1018457" d="M51,20a1,1,0,0,0,1-1V18a1,1,0,0,0-2,0v1A1,1,0,0,0,51,20Z"/>
      <path id="Path_1018458" data-name="Path 1018458" d="M47.293,25.293a1.536,1.536,0,0,1-2.586,0,1,1,0,1,0-1.414,1.414,3.484,3.484,0,0,0,5.414,0,1,1,0,1,0-1.414-1.414Z"/>
      <path id="Path_1018459" data-name="Path 1018459" d="M13,20a1,1,0,0,0,1-1V18a1,1,0,0,0-2,0v1A1,1,0,0,0,13,20Z"/>
      <path id="Path_1018460" data-name="Path 1018460" d="M23,20a1,1,0,0,0,1-1V18a1,1,0,0,0-2,0v1A1,1,0,0,0,23,20Z"/>
      <path id="Path_1018461" data-name="Path 1018461" d="M20.707,25.293a1,1,0,0,0-1.414,0,1.536,1.536,0,0,1-2.586,0,1,1,0,1,0-1.414,1.414A3.862,3.862,0,0,0,18,28a3.862,3.862,0,0,0,2.707-1.291,1,1,0,0,0,0-1.416Z"/>
      <path id="Path_1018462" data-name="Path 1018462" d="M57.8,34.488A9.027,9.027,0,0,0,59,30V13a13,13,0,1,0-26,0V30a9.037,9.037,0,0,0,1.209,4.5,8.962,8.962,0,0,0-2.2,1.068,8.93,8.93,0,0,0-2.534-1.183l-2.075-.6a9.029,9.029,0,0,0-3.091-4.041A10.049,10.049,0,0,0,28,22v-.142a3.981,3.981,0,0,0,0-7.716V5.988a3,3,0,0,0-3-3A3,3,0,0,0,22,0H14.314A9.324,9.324,0,0,0,5,9.314a6.669,6.669,0,0,0,2.331,5.062A3.982,3.982,0,0,0,8,21.858V22a9.982,9.982,0,0,0,4.767,8.523,9.039,9.039,0,0,0-1.883,2.613L6.528,34.381A9.037,9.037,0,0,0,0,43.034V59a5.006,5.006,0,0,0,5,5H59a5.006,5.006,0,0,0,5-5V43.034A9.034,9.034,0,0,0,57.8,34.488ZM62,43.034v4.978H57.022L56.381,44.8a2.967,2.967,0,0,0-.782-4.334A2.967,2.967,0,0,0,56,39a10.937,10.937,0,0,0-.449-3.088l1.372.392A7.029,7.029,0,0,1,62,43.034ZM59,60a2,2,0,1,1-4,0V58a2,2,0,0,1,4,0ZM30,54.356V45.22a2.951,2.951,0,0,0,.292-4.132,6.968,6.968,0,0,1,3.981-4.494A10.966,10.966,0,0,0,34,39a2.967,2.967,0,0,0,.4,1.471,2.967,2.967,0,0,0-.781,4.335l-1.593,8a1,1,0,0,0,.981,1.2h1.349a9.059,9.059,0,0,0-2.382,2.944A9.043,9.043,0,0,0,30,54.356ZM9,43a1,1,0,0,1,1-1v2A1,1,0,0,1,9,43Zm3-1h3.343a4.966,4.966,0,0,0,3.535-1.464L19,40.414l.122.122A4.966,4.966,0,0,0,22.657,42H26v3a7,7,0,1,1-14,0Zm17,1a1,1,0,0,1-1,1V42A1,1,0,0,1,29,43ZM20,54a1,1,0,1,1-2,0Zm7.941-8H28v6.974a8.9,8.9,0,0,0-3.4-.94A8.99,8.99,0,0,0,27.941,46ZM35,21.444a3.966,3.966,0,0,0,1,.414V22a9.924,9.924,0,0,0,3.436,7.527,11.07,11.07,0,0,0-3.7,3.564A6.925,6.925,0,0,1,35,30ZM57,18a2,2,0,0,1-1,1.731V16.269A2,2,0,0,1,57,18Zm0,3.444V30a6.9,6.9,0,0,1-1.215,3.9l-1.248-.357a11.064,11.064,0,0,0-2.9-3.294A10.046,10.046,0,0,0,56,22v-.142a3.966,3.966,0,0,0,1-.414ZM55.78,52H50.644a8.995,8.995,0,0,0,3.3-6H54a3.05,3.05,0,0,0,.569-.057ZM45,42a1,1,0,0,0,.707-.293L47,40.414l1.293,1.293A1,1,0,0,0,49,42h3v3a7,7,0,1,1-14,0V42Zm9,2V42a1,1,0,0,1,0,2ZM36,44a1,1,0,0,1,0-2Zm-.566,1.943A3.009,3.009,0,0,0,36,46h.059a8.995,8.995,0,0,0,3.3,6H34.227ZM53,40H49.414l-1.707-1.707a1,1,0,0,0-1.414,0L44.586,40H37a1,1,0,0,1-1-1,9,9,0,0,1,18,0A1,1,0,0,1,53,40Zm1-19v1a8.026,8.026,0,0,1-4.3,7.072,10.853,10.853,0,0,0-8.221-.486A7.942,7.942,0,0,1,38,22V16h3a9.044,9.044,0,0,0,7-3.344,9.049,9.049,0,0,0,6,3.287ZM36,19.731a2,2,0,0,1,0-3.462ZM46,54a1,1,0,1,1-2,0Zm10,0v.142c-.048.013-.1.03-.142.044-.072-.061-.139-.127-.212-.186ZM46,2A11.013,11.013,0,0,1,57,13v1.556A3.959,3.959,0,0,0,55,14a7.035,7.035,0,0,1-5.6-2.8l-.6-.8a1.036,1.036,0,0,0-1.6,0l-.6.8A7.035,7.035,0,0,1,41,14H37a3.959,3.959,0,0,0-2,.556V13A11.013,11.013,0,0,1,46,2ZM28.923,36.3a7,7,0,0,1,1.473.617,8.958,8.958,0,0,0-1.882,3.131A3.006,3.006,0,0,0,28,40V37a9.252,9.252,0,0,0-.055-.976ZM10,15.776A6.657,6.657,0,0,0,11.686,16a19.082,19.082,0,0,0,10.627-3.257A5.014,5.014,0,0,0,26,15.887s-.024,6.818-.071,7.165l-1.214-.966A5.019,5.019,0,0,0,21.6,21H14.4a5.019,5.019,0,0,0-3.111,1.086l-1.207.96c-.05-.346-.082-7.27-.082-7.27ZM29,18a2,2,0,0,1-1,1.731V16.269A2,2,0,0,1,29,18ZM14.314,2H22a1,1,0,0,1,1,1v.988a1,1,0,0,0,1,1h1a1,1,0,0,1,1,1v7.841A3.006,3.006,0,0,1,24,11a1,1,0,0,0-.6-.874,1.07,1.07,0,0,0-1.092.149A17.065,17.065,0,0,1,11.686,14,4.691,4.691,0,0,1,7,9.314,7.322,7.322,0,0,1,14.314,2ZM7,18a2,2,0,0,1,1-1.731v3.462A2,2,0,0,1,7,18Zm3.657,7.14,1.873-1.488A3,3,0,0,1,14.4,23h7.2a3.009,3.009,0,0,1,1.867.652l1.874,1.49a8.031,8.031,0,0,1-2.954,3.527,8.93,8.93,0,0,0-7.852.525,7.961,7.961,0,0,1-3.878-4.054ZM19,30a7.008,7.008,0,0,1,7,7v3H22.657a3.02,3.02,0,0,1-2.121-.878l-.829-.829a1,1,0,0,0-1.414,0l-.829.829A3.02,3.02,0,0,1,15.343,40H12V37a7.008,7.008,0,0,1,7-7ZM2,59V43.034A7.029,7.029,0,0,1,7.077,36.3l3.07-.877A8.96,8.96,0,0,0,10,37v3a3,3,0,0,0,0,6h.059a9,9,0,0,0,3.335,6.029,8.92,8.92,0,0,0-5.281,2.148c-.038-.011-.074-.025-.113-.035V47a1,1,0,0,0-2,0v7.142A4,4,0,0,0,3,58v2a3.966,3.966,0,0,0,.283,1.453A3,3,0,0,1,2,59Zm3,1V58a2,2,0,0,1,4,0v2a2,2,0,1,1-4,0Zm25.959,2H10.444A3.959,3.959,0,0,0,11,60V58a3.972,3.972,0,0,0-1.074-2.707A6.942,6.942,0,0,1,13.959,54H16a3,3,0,1,0,6,0h1.959a7.02,7.02,0,0,1,7,7.024ZM33,61a7.008,7.008,0,0,1,7-7h2a3,3,0,1,0,6,0h2a6.96,6.96,0,0,1,4.063,1.308A3.974,3.974,0,0,0,53,58v2a3.959,3.959,0,0,0,.556,2H33Zm29-2a3,3,0,0,1-1.283,2.453A3.966,3.966,0,0,0,61,60V58a4,4,0,0,0-3-3.858v-4.13h4Z"/>
      <path id="Path_1018463" data-name="Path 1018463" d="M15,45.809a1,1,0,0,0,1-1V44a1,1,0,0,0-2,0v.809A1,1,0,0,0,15,45.809Z"/>
      <path id="Path_1018464" data-name="Path 1018464" d="M23,45.809a1,1,0,0,0,1-1V44a1,1,0,0,0-2,0v.809A1,1,0,0,0,23,45.809Z"/>
      <path id="Path_1018465" data-name="Path 1018465" d="M16.293,49.707A3.862,3.862,0,0,0,19,51a3.862,3.862,0,0,0,2.707-1.291,1,1,0,1,0-1.414-1.414,1.536,1.536,0,0,1-2.586,0,1,1,0,1,0-1.414,1.414Z"/>
      <path id="Path_1018466" data-name="Path 1018466" d="M41,45.809a1,1,0,0,0,1-1V44a1,1,0,0,0-2,0v.809A1,1,0,0,0,41,45.809Z"/>
      <path id="Path_1018467" data-name="Path 1018467" d="M49,45.809a1,1,0,0,0,1-1V44a1,1,0,0,0-2,0v.809A1,1,0,0,0,49,45.809Z"/>
      <path id="Path_1018468" data-name="Path 1018468" d="M42.293,49.707a3.484,3.484,0,0,0,5.414,0,1,1,0,1,0-1.414-1.414,1.536,1.536,0,0,1-2.586,0,1,1,0,1,0-1.414,1.414Z"/>
    </g>
  </g>
</svg>
