<svg xmlns="http://www.w3.org/2000/svg" width="396" height="281" viewBox="0 0 396 281">
  <g id="img16" transform="translate(-1017 -5892)">
    <rect id="Rectangle_461781" data-name="Rectangle 461781" width="396" height="281" rx="10" transform="translate(1017 5892)" fill="#f5eae7"/>
    <g id="_12953772_Jan-Business_report_1" data-name="12953772_Jan-Business_report_1" transform="translate(853 5637.899)">
      <g id="OBJECTS" transform="translate(212.766 270.047)">
        <g id="Group_1199322" data-name="Group 1199322" transform="translate(0)">
          <g id="Group_1199288" data-name="Group 1199288" transform="translate(200.859)">
            <g id="Group_1199274" data-name="Group 1199274" transform="translate(13.904 2.798)">
              <circle id="Ellipse_16325" data-name="Ellipse 16325" cx="14.951" cy="14.951" r="14.951" transform="translate(0 21.144) rotate(-45)" fill="#d1d1ff"/>
              <g id="Group_1199273" data-name="Group 1199273" transform="translate(15.265 12.382)">
                <path id="Path_1025798" data-name="Path 1025798" d="M1528.049,371.809v2.069h-2.629V371.9a10.961,10.961,0,0,1-4.79-1.305l1.416-3.205a8.952,8.952,0,0,0,4.306,1.193c1.249,0,1.7-.261,1.7-.709,0-1.641-7.214-.317-7.214-5.181,0-2.107,1.528-3.878,4.585-4.306v-2.031h2.629v1.994a9.741,9.741,0,0,1,3.784,1.082l-1.323,3.187a8.051,8.051,0,0,0-3.635-.97c-1.287,0-1.7.373-1.7.821,0,1.565,7.214.261,7.214,5.069C1532.391,369.552,1530.937,371.3,1528.049,371.809Z" transform="translate(-1520.63 -356.356)" fill="#fff"/>
              </g>
            </g>
            <g id="Group_1199276" data-name="Group 1199276" transform="translate(0 35.195)">
              <circle id="Ellipse_16326" data-name="Ellipse 16326" cx="9.057" cy="9.057" r="9.057" fill="#d1d1ff"/>
              <g id="Group_1199275" data-name="Group 1199275" transform="translate(5.495 3.75)">
                <path id="Path_1025799" data-name="Path 1025799" d="M1390.522,500.838v1.253h-1.592v-1.2a6.64,6.64,0,0,1-2.9-.791l.858-1.942a5.423,5.423,0,0,0,2.608.723c.757,0,1.028-.158,1.028-.429,0-.994-4.37-.192-4.37-3.139,0-1.276.926-2.349,2.777-2.608v-1.231h1.592v1.208a5.9,5.9,0,0,1,2.292.656l-.8,1.931a4.877,4.877,0,0,0-2.2-.587c-.78,0-1.028.226-1.028.5,0,.948,4.37.158,4.37,3.071C1393.151,499.471,1392.272,500.533,1390.522,500.838Z" transform="translate(-1386.028 -491.477)" fill="#fff"/>
              </g>
            </g>
            <g id="Group_1199278" data-name="Group 1199278" transform="translate(24.834 41.688)">
              <circle id="Ellipse_16327" data-name="Ellipse 16327" cx="6.989" cy="6.989" r="6.989" transform="translate(0 13.616) rotate(-76.944)" fill="#d1d1ff"/>
              <g id="Group_1199277" data-name="Group 1199277" transform="translate(5.644 4.278)">
                <path id="Path_1025800" data-name="Path 1025800" d="M1531.542,538.617v.967h-1.229v-.924a5.126,5.126,0,0,1-2.239-.61l.662-1.5a4.185,4.185,0,0,0,2.013.558c.584,0,.793-.122.793-.331,0-.767-3.372-.148-3.372-2.422,0-.985.714-1.813,2.143-2.013v-.95h1.229v.932a4.555,4.555,0,0,1,1.769.506l-.619,1.49a3.765,3.765,0,0,0-1.7-.453c-.6,0-.793.174-.793.384,0,.732,3.372.122,3.372,2.37C1533.571,537.562,1532.893,538.382,1531.542,538.617Z" transform="translate(-1528.074 -531.394)" fill="#fff"/>
              </g>
            </g>
            <g id="Group_1199281" data-name="Group 1199281" transform="translate(0.921 19.602)">
              <g id="Group_1199279" data-name="Group 1199279" transform="translate(3.152)">
                <rect id="Rectangle_462609" data-name="Rectangle 462609" width="1.022" height="7.325" fill="#9192ff"/>
              </g>
              <g id="Group_1199280" data-name="Group 1199280" transform="translate(0 3.151)">
                <rect id="Rectangle_462610" data-name="Rectangle 462610" width="7.325" height="1.022" fill="#9192ff"/>
              </g>
            </g>
            <g id="Group_1199284" data-name="Group 1199284" transform="translate(7.942)">
              <g id="Group_1199282" data-name="Group 1199282" transform="translate(4.735)">
                <rect id="Rectangle_462611" data-name="Rectangle 462611" width="1.535" height="11.002" fill="#9192ff"/>
              </g>
              <g id="Group_1199283" data-name="Group 1199283" transform="translate(0 4.734)">
                <rect id="Rectangle_462612" data-name="Rectangle 462612" width="11.002" height="1.535" fill="#9192ff"/>
              </g>
            </g>
            <g id="Group_1199287" data-name="Group 1199287" transform="translate(43.97 56.264)">
              <g id="Group_1199285" data-name="Group 1199285" transform="translate(3.583)">
                <rect id="Rectangle_462613" data-name="Rectangle 462613" width="1.162" height="8.331" fill="#9192ff"/>
              </g>
              <g id="Group_1199286" data-name="Group 1199286" transform="translate(0 3.584)">
                <rect id="Rectangle_462614" data-name="Rectangle 462614" width="8.331" height="1.162" fill="#9192ff"/>
              </g>
            </g>
          </g>
          <g id="Group_1199289" data-name="Group 1199289" transform="translate(11.166 2.715)">
            <circle id="Ellipse_16328" data-name="Ellipse 16328" cx="13.563" cy="13.563" r="13.563" transform="translate(80.893 24.815) rotate(-45)" fill="#e5e5ff" opacity="0.4"/>
            <circle id="Ellipse_16329" data-name="Ellipse 16329" cx="15.265" cy="15.265" r="15.265" transform="translate(117.18 173.176)" fill="#e5e5ff" opacity="0.4"/>
            <path id="Path_1025801" data-name="Path 1025801" d="M731.361,1209.651q-.241,0-.48,0l.007-.44c.724.012,1.459,0,2.181-.046l.026.439C732.522,1209.633,731.939,1209.651,731.361,1209.651Zm-2.69-.121c-.734-.067-1.472-.162-2.2-.284l.073-.433c.712.12,1.44.214,2.162.279Zm6.627-.141-.059-.436c.718-.1,1.441-.222,2.149-.372l.091.43C736.761,1209.164,736.027,1209.29,735.3,1209.389Zm-10.99-.593c-.715-.177-1.431-.383-2.128-.613l.138-.418c.686.227,1.391.43,2.1.6Zm15.318-.327-.124-.422c.695-.2,1.39-.437,2.067-.693l.156.411C741.038,1208.024,740.331,1208.261,739.626,1208.469ZM720.1,1207.41c-.679-.283-1.356-.6-2.012-.929l.2-.392c.646.329,1.312.637,1.981.915Zm23.659-.506-.186-.4c.656-.307,1.307-.642,1.938-1l.216.383C745.09,1206.251,744.428,1206.592,743.763,1206.9Zm-27.606-1.5c-.627-.382-1.249-.793-1.848-1.222l.256-.357c.59.423,1.2.827,1.82,1.2Zm31.458-.67-.244-.365c.6-.4,1.2-.833,1.766-1.279l.271.346C748.83,1203.887,748.227,1204.323,747.615,1204.731Zm-35.056-1.91c-.564-.472-1.116-.972-1.643-1.485l.307-.315c.518.505,1.063,1,1.618,1.463Zm38.539-.816-.3-.325c.534-.487,1.058-1,1.555-1.529l.32.3C752.172,1200.987,751.641,1201.509,751.1,1202.005Zm-41.708-2.272c-.487-.551-.958-1.128-1.4-1.713l.35-.266c.437.577.9,1.145,1.381,1.688Zm44.745-.948-.342-.277c.457-.564.9-1.151,1.309-1.746l.361.25C755.046,1197.617,754.6,1198.213,754.135,1198.785Zm-47.415-2.578c-.4-.619-.778-1.259-1.128-1.9l.386-.21c.344.635.718,1.266,1.111,1.875Zm49.936-1.061-.379-.222c.366-.625.714-1.272,1.031-1.923l.4.193C757.379,1193.855,757.027,1194.511,756.656,1195.146Zm-52.044-2.826c-.3-.67-.579-1.361-.827-2.051l.414-.149c.245.68.519,1.36.815,2.02Zm53.986-1.152-.409-.162c.268-.673.513-1.365.728-2.058l.42.131C759.118,1189.78,758.87,1190.483,758.6,1191.167Zm-55.482-3.011c-.2-.708-.366-1.434-.507-2.155l.432-.084c.139.711.307,1.425.5,2.123Zm56.8-1.217-.429-.1c.162-.7.3-1.425.407-2.142l.435.066C760.219,1185.494,760.078,1186.225,759.915,1186.939Zm-57.648-3.124c-.086-.729-.145-1.471-.176-2.206l.439-.018c.03.724.089,1.455.173,2.173Zm58.309-1.25-.438-.033c.054-.72.081-1.453.081-2.179h.44C760.659,1181.091,760.631,1181.835,760.576,1182.565Zm-.359-2.5c-.007-.725-.042-1.458-.1-2.178l.438-.037c.062.731.1,1.475.1,2.211Zm-57.7-.652-.44-.014c.024-.736.075-1.479.154-2.208l.437.047C702.594,1177.952,702.543,1178.683,702.519,1179.408Zm57.329-3.69c-.115-.715-.26-1.435-.429-2.138l.428-.1c.172.714.318,1.444.436,2.171Zm-56.862-.642-.432-.08c.134-.724.3-1.45.485-2.16l.425.113C703.278,1173.648,703.117,1174.362,702.986,1175.076Zm55.842-3.595c-.222-.688-.474-1.377-.748-2.048l.407-.167c.278.681.534,1.381.76,2.079Zm-54.727-.617-.415-.145c.242-.7.514-1.39.808-2.064l.4.176C704.607,1169.5,704.339,1170.178,704.1,1170.864Zm53.077-3.416c-.323-.646-.676-1.289-1.049-1.91l.377-.226c.378.631.737,1.284,1.065,1.939Zm-51.334-.584-.389-.206c.344-.65.718-1.295,1.11-1.917l.372.235C706.551,1165.589,706.184,1166.224,705.844,1166.864Zm49.1-3.152c-.418-.592-.864-1.174-1.325-1.732l.339-.28c.468.566.92,1.157,1.345,1.758Zm-46.768-.536-.353-.262c.438-.59.9-1.172,1.386-1.727l.332.288C709.062,1162.022,708.6,1162.6,708.171,1163.176Zm43.992-2.823c-.5-.522-1.03-1.031-1.57-1.514l.293-.328c.548.49,1.084,1.007,1.594,1.537Zm-41.139-.473-.31-.312c.522-.518,1.07-1.023,1.628-1.5l.285.334C712.078,1158.872,711.538,1159.37,711.024,1159.88Zm37.889-2.434c-.574-.441-1.173-.865-1.78-1.262l.241-.368c.616.4,1.224.834,1.807,1.281Zm-34.575-.4-.26-.355c.593-.434,1.21-.851,1.834-1.239l.232.373C715.53,1156.211,714.922,1156.623,714.338,1157.05Zm30.926-1.991c-.635-.35-1.292-.679-1.95-.979l.182-.4c.669.3,1.335.64,1.98.995Zm-27.226-.31-.2-.39c.652-.34,1.325-.659,2-.948l.173.4C719.343,1154.1,718.681,1154.415,718.038,1154.75Zm23.257-1.5c-.68-.25-1.378-.476-2.074-.672l.12-.423c.707.2,1.416.429,2.106.682Zm-19.254-.216-.142-.416c.7-.237,1.409-.451,2.121-.634l.11.426C723.428,1152.592,722.725,1152.8,722.04,1153.035Zm15.061-.967c-.707-.143-1.431-.261-2.152-.35l.054-.436c.732.091,1.467.21,2.185.355Zm-10.841-.121-.077-.433c.721-.129,1.459-.232,2.192-.306l.044.437C727.7,1151.717,726.97,1151.819,726.26,1151.946Zm6.517-.415c-.725-.035-1.459-.043-2.181-.024l-.012-.44c.733-.019,1.478-.011,2.214.024Z" transform="translate(-627.185 -998.82)" fill="#9192ff"/>
            <path id="Path_1025802" data-name="Path 1025802" d="M645.679,322.506l0-.44a18.339,18.339,0,0,0,2.165-.148l.056.436A18.723,18.723,0,0,1,645.679,322.506Zm-2.22-.112a18.516,18.516,0,0,1-2.191-.376l.1-.428a18.091,18.091,0,0,0,2.139.367Zm6.62-.456-.108-.426a18,18,0,0,0,2.067-.66l.159.41A18.442,18.442,0,0,1,650.08,321.939Zm-10.942-.559a18.509,18.509,0,0,1-2.038-.891l.2-.392a18.035,18.035,0,0,0,1.989.869Zm15.081-1.045-.207-.388a18.161,18.161,0,0,0,1.849-1.135l.252.36A18.617,18.617,0,0,1,654.219,320.336Zm-19.035-.975a18.656,18.656,0,0,1-1.767-1.35l.287-.333A18.193,18.193,0,0,0,635.429,319Zm22.671-1.568-.293-.328a18.252,18.252,0,0,0,1.528-1.541l.33.29A18.641,18.641,0,0,1,657.854,317.793Zm-26.03-1.333a18.678,18.678,0,0,1-1.4-1.729l.358-.255a18.3,18.3,0,0,0,1.363,1.688Zm28.961-2-.362-.249a18.18,18.18,0,0,0,1.119-1.86l.39.2A18.617,18.617,0,0,1,660.785,314.46Zm-31.536-1.613a18.492,18.492,0,0,1-.945-2.011l.409-.163a18.039,18.039,0,0,0,.922,1.963Zm33.592-2.323-.411-.155a17.981,17.981,0,0,0,.642-2.074l.427.1A18.461,18.461,0,0,1,662.84,310.524Zm-35.232-1.8a18.487,18.487,0,0,1-.436-2.18l.436-.06a18,18,0,0,0,.425,2.128Zm36.285-2.513-.437-.052a18.317,18.317,0,0,0,.128-2.167c0-.218,0-.439-.012-.656l.439-.016c.008.223.012.449.012.672A18.8,18.8,0,0,1,663.894,306.212ZM627,304.329q0-.168,0-.336a18.777,18.777,0,0,1,.095-1.884l.437.044a18.35,18.35,0,0,0-.093,1.84q0,.165,0,.328Zm36.367-3.153a18.056,18.056,0,0,0-.464-2.12l.423-.12a18.464,18.464,0,0,1,.476,2.172Zm-35.49-1.166-.429-.1a18.412,18.412,0,0,1,.619-2.137l.414.148A17.968,17.968,0,0,0,627.878,300.011Zm34.309-3a18.054,18.054,0,0,0-.958-1.946l.382-.218a18.5,18.5,0,0,1,.981,1.993Zm-32.854-1.081-.393-.2a18.583,18.583,0,0,1,1.112-1.926l.367.242A18.135,18.135,0,0,0,629.332,295.928Zm30.712-2.683a18.25,18.25,0,0,0-1.394-1.663l.32-.3a18.679,18.679,0,0,1,1.427,1.7Zm-28.324-.934-.335-.284a18.754,18.754,0,0,1,1.536-1.607l.3.322A18.23,18.23,0,0,0,631.72,292.311Zm25.348-2.215a18.267,18.267,0,0,0-1.748-1.287l.239-.369a18.675,18.675,0,0,1,1.791,1.318Zm-22.172-.732-.259-.356a18.633,18.633,0,0,1,1.872-1.2l.214.384A18.161,18.161,0,0,0,634.9,289.364Zm18.534-1.622a18,18,0,0,0-2.005-.833l.144-.415a18.456,18.456,0,0,1,2.054.853Zm-14.751-.486-.166-.407a18.406,18.406,0,0,1,2.105-.715l.116.424A17.99,17.99,0,0,0,638.678,287.256Zm10.655-.931a18.157,18.157,0,0,0-2.145-.328l.04-.438a18.569,18.569,0,0,1,2.2.336Zm-6.477-.211-.064-.435a18.731,18.731,0,0,1,2.214-.192l.012.44A18.3,18.3,0,0,0,642.857,286.113Z" transform="translate(-565.308 -285.486)" fill="#9192ff"/>
            <path id="Path_1025803" data-name="Path 1025803" d="M282.626,973.941A6.376,6.376,0,1,1,289,967.566,6.383,6.383,0,0,1,282.626,973.941Zm0-11.872a5.5,5.5,0,1,0,5.5,5.5A5.5,5.5,0,0,0,282.626,962.069Z" transform="translate(-276.25 -842.347)" fill="#9192ff"/>
          </g>
          <g id="Group_1199292" data-name="Group 1199292" transform="translate(47.618 51.969)">
            <g id="Group_1199290" data-name="Group 1199290">
              <rect id="Rectangle_462615" data-name="Rectangle 462615" width="182.738" height="135.105" transform="translate(0.44 0.44)" fill="#fff"/>
              <path id="Path_1025804" data-name="Path 1025804" d="M667.125,701.511H483.506V565.526H667.125Zm-182.739-.879h181.86V566.405H484.385Z" transform="translate(-483.506 -565.526)" fill="#9192ff"/>
            </g>
            <g id="Group_1199291" data-name="Group 1199291" transform="translate(13.103 23.649)">
              <rect id="Rectangle_462616" data-name="Rectangle 462616" width="14.95" height="28.931" transform="translate(0 68.015)" fill="#d1d1ff"/>
              <rect id="Rectangle_462617" data-name="Rectangle 462617" width="14.95" height="43.358" transform="translate(23.744 53.588)" fill="#d1d1ff"/>
              <rect id="Rectangle_462618" data-name="Rectangle 462618" width="14.95" height="73.114" transform="translate(47.488 23.831)" fill="#d1d1ff"/>
              <rect id="Rectangle_462619" data-name="Rectangle 462619" width="14.95" height="51.989" transform="translate(71.232 44.957)" fill="#d1d1ff"/>
              <rect id="Rectangle_462620" data-name="Rectangle 462620" width="14.95" height="74.917" transform="translate(94.975 22.029)" fill="#d1d1ff"/>
              <rect id="Rectangle_462621" data-name="Rectangle 462621" width="14.95" height="71.003" transform="translate(118.719 25.942)" fill="#d1d1ff"/>
              <rect id="Rectangle_462622" data-name="Rectangle 462622" width="14.95" height="96.946" transform="translate(142.463)" fill="#d1d1ff"/>
              <path id="Path_1025805" data-name="Path 1025805" d="M581.765,846.9l-.4-.784,24.97-12.7,25.751-35.074,23.575,24.676L679.9,798.778l23.5,2.856,23.591-27.086.665.578-23.9,27.437-23.543-2.86-24.571,24.571L632.175,799.7l-25.254,34.4Z" transform="translate(-577.257 -761.435)" fill="#3335cf"/>
            </g>
            <rect id="Rectangle_462623" data-name="Rectangle 462623" width="73.577" height="0.879" transform="translate(55.021 17.119)" fill="#3335cf"/>
            <rect id="Rectangle_462624" data-name="Rectangle 462624" width="23.906" height="0.879" transform="translate(79.856 26.792)" fill="#3335cf"/>
          </g>
          <g id="Group_1199295" data-name="Group 1199295" transform="translate(19.555 174.389)">
            <g id="Group_1199293" data-name="Group 1199293">
              <path id="Path_1025806" data-name="Path 1025806" d="M387.468,1300.524a38.335,38.335,0,0,0-2.617-22.567,35.4,35.4,0,0,0-14.83-16.391c3.255,4.128,4.093,9.793,4.423,15.167s.306,10.922,2.256,15.893,6.552,9.273,11.586,8.65Z" transform="translate(-361.917 -1261.566)" fill="#3335cf"/>
              <path id="Path_1025807" data-name="Path 1025807" d="M465.993,1311.364a38.335,38.335,0,0,1,2.617-22.567,35.4,35.4,0,0,1,14.83-16.391c-3.255,4.128-4.093,9.793-4.423,15.167s-.306,10.922-2.256,15.893-6.552,9.273-11.586,8.65Z" transform="translate(-440.336 -1270.499)" fill="#3335cf"/>
              <path id="Path_1025808" data-name="Path 1025808" d="M421.781,1322.126a23.706,23.706,0,0,1-2.358-18.445,22.072,22.072,0,0,1,11.7-13.852c-1.165,7.74,4.587,15.215,3.559,22.977a12.747,12.747,0,0,1-9.086,10.582Z" transform="translate(-401.892 -1284.858)" fill="#d1d1ff"/>
              <path id="Path_1025809" data-name="Path 1025809" d="M445.574,1370.541a35.331,35.331,0,0,1,7.443-21.585,37.8,37.8,0,0,1,19.432-12.986c-4.373,3.37-6.438,8.751-7.892,13.952s-2.56,10.647-5.689,15.116-9,7.73-14.334,6.071Z" transform="translate(-423.325 -1322.884)" fill="#9192ff"/>
              <path id="Path_1025810" data-name="Path 1025810" d="M348.62,1372.891a37.4,37.4,0,0,0-6.833-21.585,34.706,34.706,0,0,0-17.84-12.986c4.015,3.37,5.911,8.751,7.246,13.952s2.35,10.647,5.223,15.116,8.263,7.73,13.16,6.07Z" transform="translate(-323.947 -1324.82)" fill="#9192ff"/>
            </g>
            <g id="Group_1199294" data-name="Group 1199294" transform="translate(4.577 45.054)">
              <path id="Path_1025811" data-name="Path 1025811" d="M384.824,1548.6H356.969l-4.789-29h37.433Z" transform="translate(-351.791 -1519.271)" fill="#fff"/>
              <path id="Path_1025812" data-name="Path 1025812" d="M383.282,1547.393H354.867l-4.9-29.664H388.18Zm-27.855-.66h27.3l4.68-28.345H350.747Z" transform="translate(-349.969 -1517.729)" fill="#9192ff"/>
            </g>
          </g>
          <g id="Group_1199305" data-name="Group 1199305" transform="translate(8.743 29.636)">
            <g id="Group_1199296" data-name="Group 1199296">
              <rect id="Rectangle_462625" data-name="Rectangle 462625" width="84.877" height="66.671" transform="translate(0.44 0.44)" fill="#fff"/>
              <path id="Path_1025813" data-name="Path 1025813" d="M348.234,506.1H262.478v-67.55h85.756Zm-84.877-.879h84V439.428h-84Z" transform="translate(-262.478 -438.549)" fill="#9192ff"/>
            </g>
            <g id="Group_1199304" data-name="Group 1199304" transform="translate(11.97 11.362)">
              <g id="Group_1199298" data-name="Group 1199298">
                <rect id="Rectangle_462626" data-name="Rectangle 462626" width="19.143" height="10.84" fill="#d1d1ff"/>
                <g id="Group_1199297" data-name="Group 1199297" transform="translate(27.216 1.045)">
                  <rect id="Rectangle_462627" data-name="Rectangle 462627" width="34.827" height="0.461" fill="#9192ff"/>
                  <rect id="Rectangle_462628" data-name="Rectangle 462628" width="34.827" height="0.461" transform="translate(0 4.144)" fill="#d1d1ff"/>
                  <rect id="Rectangle_462629" data-name="Rectangle 462629" width="34.827" height="0.461" transform="translate(0 8.288)" fill="#d1d1ff"/>
                </g>
              </g>
              <g id="Group_1199303" data-name="Group 1199303" transform="translate(8.997 21.219)">
                <g id="Group_1199299" data-name="Group 1199299" transform="translate(0 5.221)">
                  <rect id="Rectangle_462630" data-name="Rectangle 462630" width="3.998" height="12.385" transform="translate(0 6.027)" fill="#d1d1ff"/>
                  <rect id="Rectangle_462631" data-name="Rectangle 462631" width="3.998" height="18.412" transform="translate(3.998)" fill="#9192ff"/>
                </g>
                <g id="Group_1199300" data-name="Group 1199300" transform="translate(14.915 3.138)">
                  <rect id="Rectangle_462632" data-name="Rectangle 462632" width="3.998" height="20.418" fill="#d1d1ff"/>
                  <rect id="Rectangle_462633" data-name="Rectangle 462633" width="3.998" height="7.557" transform="translate(3.998 12.861)" fill="#9192ff"/>
                </g>
                <g id="Group_1199301" data-name="Group 1199301" transform="translate(29.83 6.351)">
                  <rect id="Rectangle_462634" data-name="Rectangle 462634" width="3.998" height="14.139" transform="translate(0 3.126)" fill="#d1d1ff"/>
                  <rect id="Rectangle_462635" data-name="Rectangle 462635" width="3.998" height="17.265" transform="translate(3.998)" fill="#9192ff"/>
                </g>
                <g id="Group_1199302" data-name="Group 1199302" transform="translate(44.744)">
                  <rect id="Rectangle_462636" data-name="Rectangle 462636" width="3.998" height="9.861" transform="translate(0 13.665)" fill="#d1d1ff"/>
                  <rect id="Rectangle_462637" data-name="Rectangle 462637" width="3.998" height="23.525" transform="translate(3.998)" fill="#9192ff"/>
                </g>
              </g>
              <path id="Path_1025814" data-name="Path 1025814" d="M393.184,642.507H331.641V617.675h.461v24.371h61.081Z" transform="translate(-331.447 -597.532)" fill="#9192ff"/>
            </g>
          </g>
          <g id="Group_1199321" data-name="Group 1199321" transform="translate(180.14 82.889)">
            <g id="Group_1199318" data-name="Group 1199318">
              <g id="Group_1199308" data-name="Group 1199308" transform="translate(24.952 60.655)">
                <g id="Group_1199306" data-name="Group 1199306" transform="translate(37.925 92.777)">
                  <path id="Path_1025815" data-name="Path 1025815" d="M1609.759,1614.24l2.638,11.795L1594.48,1626l7.475-6.451-.55-5.86Z" transform="translate(-1594.48 -1613.69)" fill="#1b1b43"/>
                  <rect id="Rectangle_462638" data-name="Rectangle 462638" width="0.66" height="3.877" transform="translate(7.256 6.094) rotate(-49.961)" fill="#ebebff"/>
                </g>
                <g id="Group_1199307" data-name="Group 1199307" transform="translate(0 92.702)">
                  <path id="Path_1025816" data-name="Path 1025816" d="M1396.769,1613.7l1.319,11.981H1378.85l8.794-6.485v-5.936Z" transform="translate(-1378.85 -1613.26)" fill="#1b1b43"/>
                  <rect id="Rectangle_462639" data-name="Rectangle 462639" width="0.66" height="3.877" transform="translate(8.577 6.171) rotate(-49.961)" fill="#ebebff"/>
                </g>
                <path id="Path_1025817" data-name="Path 1025817" d="M1526.415,1180.946l-2.858.04-8.482.114-4.709.066c-4.617-15.957-8.939-31.6-12.474-46.375q-1.042-4.347-1.983-8.587c-2.326-10.469-4.182-20.429-5.364-29.658q-.383-2.975-.668-5.844-.231-2.289-.4-4.511l21.106,3.518q.317,3,.673,6.024C1514.437,1122.979,1519.867,1151.618,1526.415,1180.946Z" transform="translate(-1470.022 -1086.19)" fill="#3335cf"/>
                <path id="Path_1025818" data-name="Path 1025818" d="M1431.734,1102.44l-.668,7.176-2.7,28.88-.1,1.1-5.109,54.743h-15.755c.312-31.667,1.346-61.769,5.5-84.005q.455-2.46.967-4.784l8.368-1.455Z" transform="translate(-1402.383 -1099.582)" fill="#3335cf"/>
                <rect id="Rectangle_462640" data-name="Rectangle 462640" width="0.44" height="31.504" transform="translate(22.007 19.683) rotate(-10.994)" fill="#1b1b43"/>
                <path id="Path_1025819" data-name="Path 1025819" d="M1469.368,1095.731l-12.553.493-8.161.321-10,.4q.455-2.46.967-4.784l8.368-1.455q-.231-2.289-.4-4.511l21.106,3.518Q1469.013,1092.707,1469.368,1095.731Z" transform="translate(-1428.132 -1086.19)" fill="#1b1b43" opacity="0.3"/>
              </g>
              <g id="Group_1199311" data-name="Group 1199311" transform="translate(25.723 28.557)">
                <path id="Path_1025820" data-name="Path 1025820" d="M1424.843,910.223l8.086-1.011,16.879,3.537.1,30.43a3.021,3.021,0,0,1-.947,2.205h0a3.02,3.02,0,0,1-2.064.825l-28.319.1-5.458-16.475,5.256-15.565Z" transform="translate(-1407.861 -908.241)" fill="#ffa121"/>
                <path id="Path_1025821" data-name="Path 1025821" d="M1514.844,942.987a6.877,6.877,0,0,1-4.756-1.861l.226-.24a7.085,7.085,0,0,0,9.384-.008l.208.256A8.074,8.074,0,0,1,1514.844,942.987Z" transform="translate(-1487.776 -934.337)" fill="#1b1b43"/>
                <g id="Group_1199309" data-name="Group 1199309" transform="translate(8.134 0.073)">
                  <path id="Path_1025822" data-name="Path 1025822" d="M1562.633,910.851a6.8,6.8,0,0,0-5.712-5.263l-10.776-1.481,6.522,11.139,2.015,6.971,10.155-1.432Z" transform="translate(-1525.626 -904.107)" fill="#ffa121"/>
                  <path id="Path_1025823" data-name="Path 1025823" d="M1470.865,1010.856c-.255,3.768-2.533,5.373-5.426,6.033-3.016.686-6.7.347-9.462.356-4.547.013-9.093-.185-13.635-.431l-11.542.11-1.319-2.053c1.5-2.124,5.571-4.907,12.677-3.223l18.432-4.177-2.053-7.1,10.157-1.429,2.08,9.379A12.508,12.508,0,0,1,1470.865,1010.856Z" transform="translate(-1429.48 -982.261)" fill="#ffbc96"/>
                </g>
                <g id="Group_1199310" data-name="Group 1199310">
                  <path id="Path_1025824" data-name="Path 1025824" d="M1383.23,1001.19l7.255,9.123,1.319.331,1.087-10.62-7.424-3.5Z" transform="translate(-1383.23 -980.193)" fill="#ffbc96"/>
                  <path id="Path_1025825" data-name="Path 1025825" d="M1417.9,903.69l-10.6,1.677a9.033,9.033,0,0,0-6.734,5.018l-4.616,9.632,7.424,3.5.781-7.629Z" transform="translate(-1393.715 -903.69)" fill="#ffa121"/>
                </g>
                <path id="Path_1025826" data-name="Path 1025826" d="M1635.009,1063.538c-.255,3.768-2.533,5.373-5.426,6.033a4.1,4.1,0,0,1,5.426-6.033Z" transform="translate(-1585.49 -1034.869)" fill="#fe5b52" opacity="0.2"/>
                <rect id="Rectangle_462641" data-name="Rectangle 462641" width="20.611" height="0.33" transform="translate(7.98 32.66) rotate(-83.541)" fill="#1b1b43"/>
                <rect id="Rectangle_462642" data-name="Rectangle 462642" width="0.33" height="14.646" transform="matrix(0.961, -0.278, 0.278, 0.961, 35.027, 11.261)" fill="#1b1b43"/>
              </g>
              <g id="Group_1199313" data-name="Group 1199313" transform="translate(41.595)">
                <path id="Path_1025827" data-name="Path 1025827" d="M1559.619,745.813a5.955,5.955,0,0,1,.207-2.236,3.176,3.176,0,0,1,1.371-1.8,3.221,3.221,0,0,1,1.088-.4,4.034,4.034,0,0,1,1.151-.023,5.037,5.037,0,0,1,2.138.782,4.251,4.251,0,0,1,1.534,1.69,3.171,3.171,0,0,1,.205,2.271,4.749,4.749,0,0,1-1.177,1.935,9.23,9.23,0,0,1-1.764,1.383l-.071-.108a9.789,9.789,0,0,0,1.666-1.432,4.49,4.49,0,0,0,1.068-1.853,2.924,2.924,0,0,0-.209-2.058,4.033,4.033,0,0,0-1.43-1.554,4.718,4.718,0,0,0-2-.748,3.358,3.358,0,0,0-2.062.352,2.942,2.942,0,0,0-1.3,1.632,5,5,0,0,0-.243,1.059,8.483,8.483,0,0,0-.047,1.1Z" transform="translate(-1544.448 -741.327)" fill="#1b1b43"/>
                <circle id="Ellipse_16330" data-name="Ellipse 16330" cx="3.526" cy="3.526" r="3.526" transform="translate(15.244 1.13)" fill="#1b1b43"/>
                <path id="Path_1025828" data-name="Path 1025828" d="M1494.914,782.79l-1.891-2.893.73,3.2-6.525,1.724-12.259.5.989-9.731c-3.131-1.539-5.351-11.459,6.534-13.13a12.051,12.051,0,0,1,6.38.739c6.112,2.585,8.178,9.44,8.741,18.881Z" transform="translate(-1473.473 -758.631)" fill="#1b1b43"/>
                <path id="Path_1025829" data-name="Path 1025829" d="M1515.01,866.152h0a4.789,4.789,0,0,1-4.789-4.789V850.982h9.578v10.381A4.789,4.789,0,0,1,1515.01,866.152Z" transform="translate(-1503.758 -831.696)" fill="#ffbc96"/>
                <path id="Path_1025830" data-name="Path 1025830" d="M1516.711,875.774c-1.025,3.022-3.427,4.437-6.486,5.2V876.47Z" transform="translate(-1503.761 -852.127)" fill="#1b1b43"/>
                <path id="Path_1025831" data-name="Path 1025831" d="M1497.744,793.69l-.309,13.448s-5.653,4.114-9.61,2.931c-1.328-.4-2.229-1.9-2.84-3.781a21.71,21.71,0,0,1-.69-2.858,45.206,45.206,0,0,1-.589-7.154Z" transform="translate(-1481.904 -784.48)" fill="#ffbc96"/>
                <path id="Path_1025832" data-name="Path 1025832" d="M1492.748,837.321c0,.4-.24.724-.536.724s-.536-.324-.536-.724.24-.724.536-.724S1492.748,836.921,1492.748,837.321Z" transform="translate(-1488.474 -819.841)" fill="#1b1b43"/>
                <ellipse id="Ellipse_16331" data-name="Ellipse 16331" cx="0.605" cy="0.838" rx="0.605" ry="0.838" transform="translate(7.202 16.323)" fill="#1b1b43"/>
                <path id="Path_1025833" data-name="Path 1025833" d="M1516.061,825.361c-.022.205-.709.253-1.472.119s-1.412-.094-1.29-.6c.1-.415.7-.379,1.466-.246S1516.081,825.181,1516.061,825.361Z" transform="translate(-1506.283 -809.906)" fill="#1b1b43"/>
                <path id="Path_1025834" data-name="Path 1025834" d="M1486.656,827.171c.027.2.612.194,1.254,0s1.2-.209,1.071-.7c-.1-.4-.612-.32-1.254-.125S1486.633,826.994,1486.656,827.171Z" transform="translate(-1484.337 -811.254)" fill="#1b1b43"/>
                <path id="Path_1025835" data-name="Path 1025835" d="M1529.331,841.507a1.566,1.566,0,1,1-1.566-1.566A1.566,1.566,0,0,1,1529.331,841.507Z" transform="translate(-1516.925 -822.597)" fill="#fe5b52" opacity="0.2"/>
                <path id="Path_1025836" data-name="Path 1025836" d="M1488.439,850.623a1.558,1.558,0,0,1-.7,1.3,21.73,21.73,0,0,1-.69-2.858A1.566,1.566,0,0,1,1488.439,850.623Z" transform="translate(-1484.662 -830.117)" fill="#fe5b52" opacity="0.2"/>
                <path id="Path_1025837" data-name="Path 1025837" d="M1499.943,844.294a.815.815,0,0,1-.069.409,1.8,1.8,0,0,1-.2.337,1.846,1.846,0,0,0-.321.535.482.482,0,0,0,.007.236.489.489,0,0,0,.124.216,1.429,1.429,0,0,0,.546.319l-.016.171a1.085,1.085,0,0,1-.783-.2.814.814,0,0,1-.279-.373.847.847,0,0,1-.024-.477,1.561,1.561,0,0,1,.458-.669,1.424,1.424,0,0,0,.385-.517Z" transform="translate(-1494.432 -826.174)" fill="#1b1b43"/>
                <path id="Path_1025838" data-name="Path 1025838" d="M1502.44,860.765c.577,1.841,3.051.907,3.243-.825Z" transform="translate(-1497.345 -839.078)" fill="#fff"/>
                <path id="Path_1025839" data-name="Path 1025839" d="M1479.494,792.235c4.138-.007,7.611-.388,10.883-1.979.352,2.7,1.512,4,3.078,4.727l3.3-2.748-1.7-5.551-8.959-.495-6.925,3.463Z" transform="translate(-1478.163 -778.299)" fill="#1b1b43"/>
                <g id="Group_1199312" data-name="Group 1199312" transform="translate(13.08 14.11)">
                  <ellipse id="Ellipse_16332" data-name="Ellipse 16332" cx="2.805" cy="1.952" rx="2.805" ry="1.952" transform="translate(0 4.588) rotate(-54.873)" fill="#ffbc96"/>
                  <path id="Path_1025840" data-name="Path 1025840" d="M1561.355,836.647a1.874,1.874,0,0,1-.055-.715,1.542,1.542,0,0,1,.26-.711,1.4,1.4,0,0,1,.6-.481,1.562,1.562,0,0,1,.716-.123l.03.169a4.682,4.682,0,0,0-.566.3,1.576,1.576,0,0,0-.42.391,1.78,1.78,0,0,0-.25.532c-.06.2-.1.41-.141.633Z" transform="translate(-1558.923 -832.317)" fill="#1b1b43"/>
                </g>
                <path id="Path_1025841" data-name="Path 1025841" d="M1564.756,770.3a10.848,10.848,0,0,1-1.234-.876l-1.115-.92c-.366-.3-.729-.6-1.1-.892s-.765-.566-1.2-.866a3.205,3.205,0,0,1,1.542.265,5.21,5.21,0,0,1,1.325.818,6.459,6.459,0,0,1,1.05,1.119A5.308,5.308,0,0,1,1564.756,770.3Z" transform="translate(-1544.866 -762.267)" fill="#ffa121"/>
              </g>
              <g id="Group_1199317" data-name="Group 1199317" transform="translate(0 41.656)">
                <g id="Group_1199314" data-name="Group 1199314">
                  <rect id="Rectangle_462643" data-name="Rectangle 462643" width="11.652" height="3.444" transform="translate(34.223 21.564)" fill="#1b1b43"/>
                  <path id="Path_1025842" data-name="Path 1025842" d="M1274.94,1003.176h-26.382l-11.578-25.009h26.382Z" transform="translate(-1236.98 -978.167)" fill="#ebebff"/>
                </g>
                <g id="Group_1199316" data-name="Group 1199316" transform="translate(18.84 20.056)">
                  <path id="Path_1025843" data-name="Path 1025843" d="M1353.454,1096.035a1.243,1.243,0,0,0-1.018,1.223v-2.727a1.1,1.1,0,0,0-.938-1.112,1.06,1.06,0,0,0-1.182,1v-1.1a1.1,1.1,0,0,0-.953-1.118,1.063,1.063,0,0,0-1.172,1.057v1.16a1.06,1.06,0,0,0-1.182-1,1.1,1.1,0,0,0-.938,1.112v2.164a1.368,1.368,0,0,0-1.026-1.292c-1.182-.11-.922,1.967-.922,1.967.344,2.1.965,2.332,2.224,2.422a42.851,42.851,0,0,0,5.967,0c1.266-.086,1.465-.222,2.018-2.106C1354.52,1096.874,1354.36,1095.871,1353.454,1096.035Z" transform="translate(-1344.099 -1092.201)" fill="#ffbc96"/>
                  <g id="Group_1199315" data-name="Group 1199315" transform="translate(1.806 2.219)">
                    <path id="Path_1025844" data-name="Path 1025844" d="M1354.559,1109.31a8.42,8.42,0,0,1,.136,1.335c.007.223.008.446,0,.669a5.292,5.292,0,0,1-.062.671l-.129,0a5.3,5.3,0,0,1-.1-.667c-.021-.222-.032-.445-.038-.668a8.436,8.436,0,0,1,.063-1.34Z" transform="translate(-1354.365 -1108.52)" fill="#d28572"/>
                    <path id="Path_1025845" data-name="Path 1025845" d="M1366.829,1104.83a9.478,9.478,0,0,1,.139,1.417c.008.237.009.473,0,.71a5.946,5.946,0,0,1-.061.712l-.129,0a5.9,5.9,0,0,1-.1-.708c-.021-.236-.033-.473-.039-.709a9.493,9.493,0,0,1,.06-1.422Z" transform="translate(-1364.479 -1104.828)" fill="#d28572"/>
                    <path id="Path_1025846" data-name="Path 1025846" d="M1378.971,1104.82a8.564,8.564,0,0,1,.157,1.342c.01.224.015.449.009.674a5.343,5.343,0,0,1-.052.677l-.129.005a5.365,5.365,0,0,1-.109-.67c-.024-.224-.039-.448-.048-.672a8.582,8.582,0,0,1,.042-1.351Z" transform="translate(-1374.496 -1104.82)" fill="#d28572"/>
                    <path id="Path_1025847" data-name="Path 1025847" d="M1390.93,1114.273a1.961,1.961,0,0,0-.235.44c-.065.159-.128.323-.189.488s-.124.331-.192.5a4.588,4.588,0,0,1-.229.492l-.124-.034a2.848,2.848,0,0,1,.077-.545,3.848,3.848,0,0,1,.161-.526,2.946,2.946,0,0,1,.246-.5,1.092,1.092,0,0,1,.411-.415Z" transform="translate(-1383.7 -1112.523)" fill="#d28572"/>
                  </g>
                </g>
              </g>
            </g>
            <g id="Group_1199320" data-name="Group 1199320" transform="translate(76.385 9.048)">
              <g id="Group_1199319" data-name="Group 1199319">
                <path id="Path_1025848" data-name="Path 1025848" d="M1680.768,794.02v12.075l-5.568,3.957h26.287V794.02Z" transform="translate(-1674.51 -793.8)" fill="#fff"/>
                <path id="Path_1025849" data-name="Path 1025849" d="M1698.474,809.242h-27.2l6.039-4.291V792.77h21.158Zm-25.819-.44h25.379V793.21h-20.279v11.969Z" transform="translate(-1671.277 -792.77)" fill="#9192ff"/>
              </g>
              <path id="Path_1025850" data-name="Path 1025850" d="M1748.3,819.826l-3.382-3.258.61-.633,2.552,2.458,4.341-7.959.772.421Z" transform="translate(-1731.968 -807.328)" fill="#9192ff"/>
            </g>
          </g>
          <rect id="Rectangle_462644" data-name="Rectangle 462644" width="284.234" height="0.66" transform="translate(0 248.448)" fill="#1b1b43"/>
        </g>
      </g>
    </g>
  </g>
</svg>
