<svg xmlns="http://www.w3.org/2000/svg" width="150" height="150" viewBox="0 0 150 150">
  <g id="img13" transform="translate(-383.746 -8400)">
    <circle id="Ellipse_13609" data-name="Ellipse 13609" cx="75" cy="75" r="75" transform="translate(383.746 8400)" fill="#b9c296"/>
    <g id="sharing_economy_x2C__interact_x2C__peer-to-peer_x2C__p2p" transform="translate(424.856 8440.599)">
      <g id="XMLID_1581_" transform="translate(1 1.5)">
        <g id="XMLID_2212_" transform="translate(0.088 0.011)">
          <g id="XMLID_5342_">
            <path id="Path_1025770" data-name="Path 1025770" d="M2.443,31.074A.99.99,0,0,1,1.9,30.92,1.1,1.1,0,0,1,1.347,30L1.04,15.79a1.122,1.122,0,0,1,.526-.965,1.089,1.089,0,0,1,1.1,0L6.105,16.8A32.853,32.853,0,0,1,39.522,2a1.126,1.126,0,0,1,.9,1.272,1.109,1.109,0,0,1-1.272.9A30.7,30.7,0,0,0,7.443,18.816a1.082,1.082,0,0,1-1.491.395L3.277,17.676,3.5,28.113,12.6,23l-2.544-1.447a1.092,1.092,0,0,1-.46-1.381c.175-.395,4.21-9.867,16.752-13.288.592-.175,1.206-.307,1.8-.439a1.085,1.085,0,0,1,1.294.855A1.113,1.113,0,0,1,28.58,8.6c-.548.11-1.118.241-1.666.395A23.944,23.944,0,0,0,12.047,20.154l3.333,1.908a1.1,1.1,0,0,1,.548.965,1.056,1.056,0,0,1-.57.943L2.97,30.92a.92.92,0,0,1-.526.153Z" transform="translate(-1.04 -1.505)" fill="#4a4e3c"/>
          </g>
        </g>
        <g id="XMLID_2211_" transform="translate(26.322 36.207)">
          <g id="XMLID_5341_">
            <path id="Path_1025771" data-name="Path 1025771" d="M19.573,47.608a32.882,32.882,0,0,1-5.657-.5,1.126,1.126,0,0,1-.9-1.272,1.109,1.109,0,0,1,1.272-.9A30.315,30.315,0,0,0,27.664,44.3,30.487,30.487,0,0,0,45.973,30.264a1.1,1.1,0,0,1,1.491-.395L50.139,31.4,49.92,20.967l-9.1,5.109,2.544,1.447a1.092,1.092,0,0,1,.46,1.381c-.175.395-4.21,9.867-16.752,13.288a28.259,28.259,0,0,1-4.1.811,1.091,1.091,0,0,1-1.228-.943,1.119,1.119,0,0,1,.943-1.228,27.621,27.621,0,0,0,3.793-.746A24.015,24.015,0,0,0,41.346,28.927l-3.333-1.908a1.1,1.1,0,0,1-.548-.965,1.056,1.056,0,0,1,.57-.943l12.389-6.951a1.049,1.049,0,0,1,1.074,0,1.1,1.1,0,0,1,.548.921l.307,14.209a1.122,1.122,0,0,1-.526.965,1.04,1.04,0,0,1-1.1,0l-3.443-1.973A32.713,32.713,0,0,1,28.212,46.4a31.365,31.365,0,0,1-8.639,1.206Z" transform="translate(-13.004 -18.012)" fill="#4a4e3c"/>
          </g>
        </g>
        <g id="XMLID_2210_" transform="translate(37.276)">
          <g id="XMLID_5340_">
            <path id="Path_1025772" data-name="Path 1025772" d="M44.378,21.98a.89.89,0,0,1-.417-.088,1.133,1.133,0,0,1-.592-1.447,12.063,12.063,0,1,0-23.177-4.692,11.933,11.933,0,0,0,.921,4.627,1.091,1.091,0,1,1-2.017.833,13.954,13.954,0,0,1-1.1-5.46,14.253,14.253,0,0,1,28.505,0A14.089,14.089,0,0,1,45.387,21.3a1.116,1.116,0,0,1-1.009.68Z" transform="translate(-18 -1.5)" fill="#4a4e3c"/>
          </g>
        </g>
        <g id="XMLID_2209_" transform="translate(41.184 18.638)">
          <g id="XMLID_5337_" transform="translate(0 0)">
            <path id="Path_1025773" data-name="Path 1025773" d="M30.127,19.867a14.025,14.025,0,0,1-10.021-4.144,1.072,1.072,0,0,1-.219-1.228A7.665,7.665,0,0,1,26.838,10h6.578a7.721,7.721,0,0,1,6.973,4.5,1.072,1.072,0,0,1-.219,1.228A14.113,14.113,0,0,1,30.127,19.867Zm-7.894-5.131a12.073,12.073,0,0,0,15.787,0,5.526,5.526,0,0,0-4.6-2.544H26.838A5.526,5.526,0,0,0,22.233,14.736Z" transform="translate(-19.782 -10)" fill="#4a4e3c"/>
          </g>
        </g>
        <g id="XMLID_2208_" transform="translate(46.047 5.482)">
          <g id="XMLID_5334_">
            <path id="Path_1025774" data-name="Path 1025774" d="M27.482,14.963a5.482,5.482,0,1,1,5.482-5.482A5.484,5.484,0,0,1,27.482,14.963Zm0-8.771a3.289,3.289,0,1,0,3.289,3.289A3.3,3.3,0,0,0,27.482,6.193Z" transform="translate(-22 -4)" fill="#4a4e3c"/>
          </g>
        </g>
        <g id="XMLID_2207_" transform="translate(0 37.276)">
          <g id="XMLID_5333_">
            <path id="Path_1025775" data-name="Path 1025775" d="M27.378,38.98a.89.89,0,0,1-.417-.088,1.133,1.133,0,0,1-.592-1.447A12.063,12.063,0,1,0,3.193,32.753a11.933,11.933,0,0,0,.921,4.627,1.091,1.091,0,0,1-2.017.833A13.954,13.954,0,0,1,1,32.753a14.253,14.253,0,1,1,28.505,0A14.089,14.089,0,0,1,28.387,38.3,1.116,1.116,0,0,1,27.378,38.98Z" transform="translate(-1 -18.5)" fill="#4a4e3c"/>
          </g>
        </g>
        <g id="XMLID_2206_" transform="translate(3.908 55.914)">
          <g id="XMLID_5330_">
            <path id="Path_1025776" data-name="Path 1025776" d="M13.127,36.867A14.025,14.025,0,0,1,3.106,32.723,1.072,1.072,0,0,1,2.887,31.5,7.665,7.665,0,0,1,9.838,27h6.578a7.721,7.721,0,0,1,6.973,4.5,1.072,1.072,0,0,1-.219,1.228A14.113,14.113,0,0,1,13.127,36.867ZM5.233,31.736a12.073,12.073,0,0,0,15.787,0,5.526,5.526,0,0,0-4.6-2.544H9.838A5.526,5.526,0,0,0,5.233,31.736Z" transform="translate(-2.782 -27)" fill="#4a4e3c"/>
          </g>
        </g>
        <g id="XMLID_2205_" transform="translate(8.771 42.758)">
          <g id="XMLID_5327_">
            <path id="Path_1025777" data-name="Path 1025777" d="M10.482,31.963a5.482,5.482,0,1,1,5.482-5.482A5.484,5.484,0,0,1,10.482,31.963Zm0-8.771a3.289,3.289,0,1,0,3.289,3.289A3.3,3.3,0,0,0,10.482,23.193Z" transform="translate(-5 -21)" fill="#4a4e3c"/>
          </g>
        </g>
        <g id="XMLID_2204_" transform="translate(30.478 59.203)">
          <g id="XMLID_5326_">
            <path id="Path_1025778" data-name="Path 1025778" d="M16.216,30.693H16A1.1,1.1,0,1,1,16,28.5h.219a1.1,1.1,0,0,1,0,2.193Z" transform="translate(-14.9 -28.5)" fill="#4a4e3c"/>
          </g>
        </g>
        <g id="XMLID_2144_" transform="translate(30.698 4.385)">
          <g id="XMLID_5325_">
            <path id="Path_1025779" data-name="Path 1025779" d="M16.316,5.693H16.1a1.1,1.1,0,1,1,0-2.193h.219a1.1,1.1,0,0,1,0,2.193Z" transform="translate(-15 -3.5)" fill="#4a4e3c"/>
          </g>
        </g>
        <g id="XMLID_2159_" transform="translate(20.831 20.853)">
          <g id="XMLID_5322_" transform="translate(0 0)">
            <path id="Path_1025780" data-name="Path 1025780" d="M23.963,35.108H21.157a1.1,1.1,0,0,1-1.074-.855l-.417-1.93a11.175,11.175,0,0,1-1.6-.658L16.4,32.74a1.065,1.065,0,0,1-1.359-.153l-2-2a1.127,1.127,0,0,1-.153-1.381l1.074-1.666a10.318,10.318,0,0,1-.68-1.6l-1.93-.417a1.084,1.084,0,0,1-.855-1.074V21.645a1.084,1.084,0,0,1,.855-1.074l1.93-.417a9.985,9.985,0,0,1,.658-1.579l-1.074-1.666A1.09,1.09,0,0,1,13,15.549l2-2.017a1.1,1.1,0,0,1,1.381-.153l1.666,1.074a7.7,7.7,0,0,1,1.6-.658l.417-1.93a1.084,1.084,0,0,1,1.074-.855h2.807a1.1,1.1,0,0,1,1.074.855l.417,1.93a11.175,11.175,0,0,1,1.6.658L28.7,13.378a1.065,1.065,0,0,1,1.359.153l2,2a1.127,1.127,0,0,1,.153,1.381l-1.074,1.666a8.28,8.28,0,0,1,.658,1.579l1.93.417a1.084,1.084,0,0,1,.855,1.074v2.807a1.1,1.1,0,0,1-.855,1.074l-1.93.417a9.227,9.227,0,0,1-.68,1.6l1.074,1.666a1.1,1.1,0,0,1-.153,1.381l-2,2a1.071,1.071,0,0,1-1.359.153l-1.666-1.074a11.175,11.175,0,0,1-1.6.658l-.417,1.93a1,1,0,0,1-1.031.855Zm-1.93-2.193h1.052l.373-1.71a1.12,1.12,0,0,1,.811-.833,7.907,7.907,0,0,0,2.237-.921,1.064,1.064,0,0,1,1.162.022l1.491.943.746-.746-.965-1.491a1.059,1.059,0,0,1,0-1.184,7.709,7.709,0,0,0,.943-2.237,1.056,1.056,0,0,1,.833-.811l1.71-.373V22.522l-1.71-.373a1.12,1.12,0,0,1-.833-.811,7.341,7.341,0,0,0-.943-2.215,1.059,1.059,0,0,1,0-1.184l.965-1.491L29.16,15.7l-1.491.943a1.064,1.064,0,0,1-1.162,0,7.2,7.2,0,0,0-2.215-.921,1.082,1.082,0,0,1-.833-.833l-.373-1.71H22.034l-.373,1.732a1.082,1.082,0,0,1-.833.833,7.2,7.2,0,0,0-2.215.921,1.148,1.148,0,0,1-1.184,0L15.938,15.7l-.746.746.965,1.491a1.059,1.059,0,0,1,0,1.184,6.869,6.869,0,0,0-.921,2.193,1.082,1.082,0,0,1-.833.833l-1.732.373v1.052l1.71.373a1.12,1.12,0,0,1,.833.811,7.709,7.709,0,0,0,.943,2.237,1.148,1.148,0,0,1,0,1.184l-.965,1.491.746.746,1.491-.943a1.109,1.109,0,0,1,1.162-.022,7.546,7.546,0,0,0,2.237.921,1.056,1.056,0,0,1,.811.833Z" transform="translate(-10.5 -11.01)" fill="#4a4e3c"/>
          </g>
        </g>
        <g id="XMLID_3404_" transform="translate(15.39 15.39)">
          <g id="XMLID_5321_">
            <path id="Path_1025781" data-name="Path 1025781" d="M9.118,25.844H9.03A1.1,1.1,0,0,1,8.022,24.66,17.593,17.593,0,0,1,24.335,8.522a1.107,1.107,0,0,1,1.184,1.031,1.087,1.087,0,0,1-1.031,1.162A15.385,15.385,0,0,0,10.214,24.835a1.1,1.1,0,0,1-1.1,1.009Z" transform="translate(-8.019 -8.519)" fill="#4a4e3c"/>
          </g>
        </g>
        <g id="XMLID_3402_" transform="translate(32.8 32.884)">
          <g id="XMLID_5320_">
            <path id="Path_1025782" data-name="Path 1025782" d="M17.058,34.023a1.1,1.1,0,0,1-1.1-1.031,1.087,1.087,0,0,1,1.031-1.162,15.351,15.351,0,0,0,14.384-14.3A1.073,1.073,0,0,1,32.538,16.5a1.115,1.115,0,0,1,1.031,1.162A17.544,17.544,0,0,1,17.146,34a.166.166,0,0,1-.088.022Z" transform="translate(-15.959 -16.497)" fill="#4a4e3c"/>
          </g>
        </g>
        <g id="XMLID_2145_" transform="translate(27.409 27.409)">
          <g id="XMLID_5317_" transform="translate(0 0)">
            <path id="Path_1025783" data-name="Path 1025783" d="M18.982,24.963a5.482,5.482,0,1,1,5.482-5.482A5.484,5.484,0,0,1,18.982,24.963Zm0-8.771a3.289,3.289,0,1,0,3.289,3.289A3.285,3.285,0,0,0,18.982,16.193Z" transform="translate(-13.5 -14)" fill="#4a4e3c"/>
          </g>
        </g>
      </g>
    </g>
  </g>
</svg>
