<svg xmlns="http://www.w3.org/2000/svg" width="150" height="150" viewBox="0 0 150 150">
  <g id="img12" transform="translate(-383.746 -8399.629)">
    <circle id="Ellipse_13609" data-name="Ellipse 13609" cx="75" cy="75" r="75" transform="translate(383.746 8399.629)" fill="#b9c296"/>
    <g id="Group_1199271" data-name="Group 1199271" transform="translate(417.727 8433.629)">
      <path id="Path_1025762" data-name="Path 1025762" d="M271.02,279.218H292.9V262.2H271.02Zm2.431-7.293h7.293v4.862h-7.293Zm9.724,4.862v-4.862h7.293v4.862Zm7.293-7.293h-7.293v-4.862h7.293Zm-9.724-4.862v4.862h-7.293v-4.862Z" transform="translate(-227.082 -219.708)" fill="#4a4e3c"/>
      <path id="Path_1025763" data-name="Path 1025763" d="M136.02,352.2h2.431v2.431H136.02Z" transform="translate(-113.96 -295.123)" fill="#4a4e3c"/>
      <path id="Path_1025764" data-name="Path 1025764" d="M79.789,75.689a6.045,6.045,0,0,0-1.411-3.272,6.937,6.937,0,0,0-3.664-2.37,8.389,8.389,0,0,0-1.606-3.958V36.977h4.862V31.133l-4.329-2.968c4.588-4.129,8.74-9.7,9.3-15.743C83.423,7.17,80.794,2.453,76.4.685c-4.23-1.7-8.94-.191-12.816,4.038C59.706.494,55-1.016,50.766.685A10.6,10.6,0,0,0,44.518,8.2L41.507,6.136,24.2,18l1.374,2L41.507,9.084l2.665,1.827a13.386,13.386,0,0,0,.054,1.512,16.4,16.4,0,0,0,.591,3.065l-3.309-2.3L10.74,34.546H7.474V32.414L23.568,21.381l-1.374-2L5.043,31.133v5.844H9.905V75.689H.019v7.293H69.625V80.551H2.45V78.12H80.564v2.431H76.917v2.431h6.077V75.689ZM76.5,73.958a3.888,3.888,0,0,1,.839,1.732H55.365a3.89,3.89,0,0,1,.839-1.732,4.18,4.18,0,0,1,2.93-1.618H60.35V71.125a6,6,0,1,1,12,0V72.34h1.215A4.179,4.179,0,0,1,76.5,73.958ZM75.54,32.414v2.133H72.274l-3.628-2.519c1-.659,2.037-1.407,3.074-2.233ZM51.673,2.941a7.1,7.1,0,0,1,2.637-.5c2.172,0,5.173.96,8.321,4.911l.951,1.193.951-1.193c4.8-6.027,9.263-5.093,10.958-4.411C78.829,4.283,80.9,8.09,80.517,12.2c-.777,8.417-10.334,16.948-16.936,19.9-6.6-2.95-16.159-11.482-16.936-19.9C46.266,8.09,48.334,4.283,51.673,2.941ZM12.336,36.4,41.507,16.15l5.063,3.514c3.968,7.236,11.9,12.951,16.545,14.88l.466.194.466-.194a23.525,23.525,0,0,0,2.322-1.136l4.308,2.99V63.891a8.427,8.427,0,0,0-12.69,6.157,6.936,6.936,0,0,0-3.664,2.37,6.046,6.046,0,0,0-1.411,3.272H39.077v-33.2H17.2v33.2H12.336V36.4ZM36.645,75.689H19.629V44.924H36.645Z" fill="#4a4e3c"/>
      <path id="Path_1025765" data-name="Path 1025765" d="M444.519,497.04h2.431v2.431h-2.431Z" transform="translate(-372.463 -416.489)" fill="#4a4e3c"/>
      <path id="Path_1025766" data-name="Path 1025766" d="M465,65.64h2.431v2.431H465Z" transform="translate(-389.626 -55.002)" fill="#4a4e3c"/>
      <path id="Path_1025767" data-name="Path 1025767" d="M233.519,150.52h2.431v2.431h-2.431Z" transform="translate(-195.659 -126.127)" fill="#4a4e3c"/>
      <path id="Path_1025768" data-name="Path 1025768" d="M450,35.64h2.431v2.431H450Z" transform="translate(-377.057 -29.864)" fill="#4a4e3c"/>
      <path id="Path_1025769" data-name="Path 1025769" d="M263.519,150.52h2.431v2.431h-2.431Z" transform="translate(-220.797 -126.127)" fill="#4a4e3c"/>
    </g>
  </g>
</svg>
