<svg xmlns="http://www.w3.org/2000/svg" width="150" height="150" viewBox="0 0 150 150">
  <g id="img21" transform="translate(-383.746 -8400)">
    <circle id="Ellipse_13609" data-name="Ellipse 13609" cx="75" cy="75" r="75" transform="translate(383.746 8400)" fill="#b9c296"/>
    <g id="Group_1199339" data-name="Group 1199339" transform="translate(396.746 8435.873)">
      <g id="Group_1199332" data-name="Group 1199332" transform="translate(27 61.288)">
        <g id="Group_1199331" data-name="Group 1199331" transform="translate(0)">
          <path id="Path_1025872" data-name="Path 1025872" d="M29.609,401.448a1.527,1.527,0,1,0,.448,1.081A1.54,1.54,0,0,0,29.609,401.448Z" transform="translate(-27 -401)" fill="#4a4e3c"/>
        </g>
      </g>
      <g id="Group_1199334" data-name="Group 1199334" transform="translate(27)">
        <g id="Group_1199333" data-name="Group 1199333" transform="translate(0)">
          <path id="Path_1025873" data-name="Path 1025873" d="M90.982,17.727l0,0L80.791,10.843a9.215,9.215,0,0,0-6.509-1.479,7.263,7.263,0,0,0,.152-1.475A7.151,7.151,0,0,0,72.326,2.8l-.691-.691A7.2,7.2,0,0,0,61.456,12.288l.691.691A7.16,7.16,0,0,0,65.2,14.8L54.92,22.544A4.257,4.257,0,0,0,53.511,24.4a4.247,4.247,0,0,0-2.275.16l-9.962,3.555a7.158,7.158,0,0,0,.565-2.8v-.977a7.2,7.2,0,1,0-14.4,0v.977A7.2,7.2,0,0,0,31.3,31.69,7.048,7.048,0,0,0,27,38.167V56.4a1.528,1.528,0,1,0,3.057,0V53.6h6.028a1.521,1.521,0,0,0,.858-.264l6.911-4.691a4.083,4.083,0,0,1,6.377,3.378V61.5l-4.279,1.713V55.557a1.528,1.528,0,0,0-2.313-1.312L35.9,58.878a3.219,3.219,0,0,0-1.559,2.749V75.2H30.057V68.78a1.528,1.528,0,0,0-3.057,0v7.945a1.528,1.528,0,0,0,1.528,1.528h7.336a1.528,1.528,0,0,0,1.528-1.528v-15.1a.148.148,0,0,1,.072-.126L42.9,58.252V76.725a1.528,1.528,0,0,0,1.528,1.528H95.472A1.528,1.528,0,0,0,97,76.725V28.844A13.231,13.231,0,0,0,90.982,17.727Zm-26.674-6.91-.691-.691A4.141,4.141,0,1,1,69.474,4.27l.691.691a4.141,4.141,0,0,1-5.856,5.857ZM56.759,24.985,71.922,13.561a6.165,6.165,0,0,1,7.158-.185L87.553,19.1l-7.478,6.015-5.864-3.961a1.528,1.528,0,0,0-1.435-.148L57.949,27.077a1.22,1.22,0,0,1-1.5-.5l0-.007A1.211,1.211,0,0,1,56.759,24.985ZM30.5,25.32v-.977a4.141,4.141,0,1,1,8.282,0v.977a4.141,4.141,0,1,1-8.282,0Zm8.726,14.775v8l-3.611,2.452H30.057V38.167a3.985,3.985,0,0,1,2.64-3.745l19.567-6.983a1.212,1.212,0,0,1,1.094,2.141L39.89,38.835A1.528,1.528,0,0,0,39.227,40.095Zm6.921,4.789a7.112,7.112,0,0,0-3.864,1.137V40.9l12.805-8.8a4.244,4.244,0,0,0,1.555-1.968,4.305,4.305,0,0,0,.864.089,4.214,4.214,0,0,0,1.6-.314l14.07-5.762,6.073,4.1a5.543,5.543,0,0,1,2.16,4.375V44.629H78.4a1.529,1.529,0,0,0-.935.319L62.278,56.688l-8.989,3.591V52.023A7.148,7.148,0,0,0,46.148,44.884ZM93.943,75.2H45.952V66.5L63.61,59.447a1.527,1.527,0,0,0,.368-.21L78.926,47.686H93.943Zm0-30.568H90.886V32.575a1.528,1.528,0,1,0-3.057,0V44.629H84.467V32.622a8.619,8.619,0,0,0-2.006-5.5l7.711-6.2a10.18,10.18,0,0,1,3.771,7.928Z" transform="translate(-27)" fill="#4a4e3c"/>
        </g>
      </g>
      <g id="Group_1199336" data-name="Group 1199336" transform="translate(83.041 53.85)">
        <g id="Group_1199335" data-name="Group 1199335">
          <path id="Path_1025874" data-name="Path 1025874" d="M398.762,352.333H395.2a1.528,1.528,0,0,0,0,3.057h2.038v5.91a1.528,1.528,0,0,0,3.057,0v-7.438A1.528,1.528,0,0,0,398.762,352.333Z" transform="translate(-393.667 -352.333)" fill="#4a4e3c"/>
        </g>
      </g>
      <g id="Group_1199338" data-name="Group 1199338" transform="translate(86.607 67.252)">
        <g id="Group_1199337" data-name="Group 1199337" transform="translate(0)">
          <path id="Path_1025875" data-name="Path 1025875" d="M419.609,440.468a1.527,1.527,0,1,0,.448,1.08A1.539,1.539,0,0,0,419.609,440.468Z" transform="translate(-417 -440.02)" fill="#4a4e3c"/>
        </g>
      </g>
    </g>
  </g>
</svg>
