<svg xmlns="http://www.w3.org/2000/svg" width="292" height="255" viewBox="0 0 292 255">
  <g id="Grupo_1188300" data-name="Grupo 1188300" transform="translate(-1121 -406)">
    <rect id="Rectángulo_461476" data-name="Rectángulo 461476" width="292" height="255" rx="20" transform="translate(1121 406)" fill="#e1c1b7"/>
    <g id="Grupo_1188295" data-name="Grupo 1188295" transform="translate(1202.648 414.006)">
      <g id="Grupo_1188286" data-name="Grupo 1188286" transform="translate(0 0)">
        <path id="Trazado_1012083" data-name="Trazado 1012083" d="M1321.055,222.244l.341.09.338.017h0l.258-.039.037-.083-.007-.012-1.4-1.553-.136-.112-2.843-1.76-.08-.051-.355-.346-.219-.17-.426-.2-.694-.316-.708-.407-.718-.494-.73-.579-.268-.178-.8-.355-.825-.277h0l-1.258-.268-1.307-.1-.375,0-.869.007-.6.1-.343.129-.09.134.078.141.092.02.725-.039.854.029.986.095,1.117.166.416.1.358.144.3.192.241.241h0l.071.093.017.024.182.36.139.475.132.445.18.292.324.241.463.156.618.114.9.173.633.175.46.2.3.236.557.526.623.4h0l.548.229.589.149,1.061.251.823.341.263.195.1.214-.007.119-.655-.3-.674-.224h0l-.248-.061-.248-.056-1.132-.287-.7-.309-.535-.382-.7-.582-.385-.261-.355-.112-2.159-.445-.343-.114-.295-.192-.168-.18-.151-.246-.224-.664-.163-.506-.122-.217-.148-.166-.409-.226-.7-.151-.149-.024-.944-.136-.9-.078-.862-.024-.818.034-.173-.027-.144-.1-.085-.153,0-.175h0l.034-.1.039-.075.163-.246.217-.2.258-.144.285-.078.752-.085.745-.034.737.022.728.075h0l1.224.251,1.2.406.835.453,1.093.779.959.674,1.107.655.034.01.071-.034.007-.078-.706-1.507-.764-1.307-.526-.876-.382-.815-.243-.781-.119-.764,0-.7.01-.584-.046-.494-.1-.448-.17-.424-.251-.4-.336-.382-.056-.095,0-.11.051-.1.093-.058.107,0,.436.219.034.015.095-.029.029-.093-.019-.119-.263-1.665-.114-1.215v-1.056l.124-.913.02-.061.083-.11.122-.061.136,0,.124.054.141.117h0l.248.309.175.392.463,1.534.492,1.555.2.477.207.375.565.8.643.92.4.752.75,1.531,1.346,2.451.124.168.161.134.582.426.557.506.531.591.5.674.029.022.056-.015.015-.058-.28-1.034-.166-1.093-.051-1.146.066-1.2-.007-.312-.078-.363-.017-.368.491-2.076.28-.876.3-.767.224-.428.258-.363.3-.29.333-.221.324-.139.131-.08,2.8-2.882.1-.073.158-.027.153.051.112.117.044.156.054,2.023.027.195.774,3.135.066.08h.1l.022-.015,2.58-2.093.09-.044.109,0,.1.056.054.1,0,.11-1.11,4.54.022.083.078.027h0l.034-.012,1.733-1.083.071-.061.606-.626.282-.212.27-.144.041-.012.139.046.049.139L1334,210.63l-.375,1.173h0l-.479,1.022-.611.971.027.054.02,0,1.633-.983,1.933-.942.6-.192.516-.012h.158l.146-.054.647-.426.38-.4.455-.752.84-1.3.326-.365.307-.236.107-.034.112.017.093.066.054.1.007.071-.109,1.757-.2,1.49-.3,1.246-.4,1-.015.027-.234.319-.353.29-.482.268-.738.316-.277.112-.2.114-.168.158-.3.472-.47.906-.336.565-.46.553-.56.484-.65.35-1.015.333-.9.29-.134.056-.708.4-.65.565-.618.742-.684,1.042-.007.073.054.051h0l.022,0,2.366.093.173.041.144.1.093.153.029.175-.051,1.288-.041.18-.107.153-.153.1-.183.039-.689.017-.112.044-.058.107-1.334,8.97.024.093.085.044h11.42l.166.068.068.163h0v3.629l-.085.207-.2.085h-5.793l-.09.034-.044.088-.913,9.525-.073.144-.151.058h-1.446l-.2-.078-.1-.19-.993-9.454-.039-.08-.085-.032H1290.1l-.066.024-.034.063-1.117,9.464-.08.175-.168.1-.7.051-.806-.134-.146-.066-.119-.107-.083-.136-.036-.156-.716-9.123-.049-.1-.1-.041h-6.029l-.173-.071-.071-.173v-3.68l.073-.18.18-.075h5.88l.112-.046.046-.11h0v-2.7l.046-.117.114-.051,1.268-.032h0l.093-.046.034-.1-.161-2.042v0l.056-.161.156-.071,1.538-.041.129-.056.058-.129.073-1.806.029-.131.078-.11.114-.073.132-.024,18.978.1.175.034.151.1.1.146.042.175-.02,1.772-.024.1-.187.129-.37.034-.224.085-.1.221h0v1.711l.063.161.158.071,1.383.056.107.049.041.112-.1,2.653.029.08.08.037h10.583l.061-.066v0l-1.7-8.977-.056-.107-.109-.054-.7-.1-.18-.061-.148-.122-.1-.163-.034-.19V222.91l.039-.2.109-.17.166-.119.2-.046,2.994-.131m-1.6-8.241-.552-1.154-.545-.871-.387-.618-.365-.8-.173-.4-.27-.484-.506-.7-.76-1.105-.445-.932-.015-.041-.881-3.009-.239-.387-.095-.037-.08.058-.01.044.024,1,.08,1.115.326,2.6.117.214.56.482,1.025.93.336.389.275.392.29.552.224.6.368,1.018.258.3.351.309.988.64.031.01.063-.032.007-.071m8.138-7.108.117.5.039.531-.034.56-.112.589.029.122.117.041.049-.017.316-.183.2-.2.071-.273-.114-.871-.343-1.1-.209-.638-.049-.6-.027-.487-.09-.253-.027-.112.173-.808v-.056l-.083-.1-.132.015-.638.472-.613.531-.591.587-.57.645-.151.268-.046.3.061,2.909-.012.1,0,0-.275,1.232-.022.445.044.392.146.462.071.061.09-.017.02-.02.75-1,.149-.153.757-.706.582-.72.085-.173.034-.19.083-2.081.017-.046.08-.032.066.056m-3.627,11.74-.007-.075h0l-.056-1.514.093-1.529.246-1.541.4-1.555.015-.158-.051-.151-.3-.592-.129-.521.02-.516.168-.645.129-.506.073-.565,0-1.492-.015-.786-.068-.136-.151-.012h0l-.058.044-.282.38h0l-.548.927-.424,1.015-.3,1.1-.171,1.19-.027,2.994.095,1.409.27,1.317.282.677.64,1.285.034.034.083,0,.037-.075m6.258-9.3.051-.032.051.032h0l.005.037-.178,1.207-.083,1.706-.044,1.042.007.044.073.058.088-.032,1.025-1.166.034-.022.071.017.022.071-.226.519-.068.168,0,.18-.034.4-.2.487-.387.582-.48.533-.036.017-.058-.029,0-.066,1.081-1.872,0-.136-.124-.054h0l-.075.041-.567.764-.385.747-.277.813,0,.054.078.107.131,0,1.923-1.11.141-.153.635-1.122.511-.871.314-.691.307-.915.117-.584-.024-.056-.061-.012-.019.01-2.215,1.538-.256.236-.367.46-.107.044-.09-.073-.007-.058.392-2.855.049-.331.156-.63.292-.837.071-.192,0-.034-.041-.056-.071.007-1.945,1.38-.212.117-.6.273-.591.355-.587.438-.582.521-1.117,1.122-.579.677-.1.2-.346,1.134-.256,1.137-.17,1.139-.08,1.142h0l0,.874.049.874.1.876.151.879.02.037.073.019.051-.056.168-.616.246-.577h0l.387-.628.492-.572.6-.521.7-.465,1.334-.694.19-.141.124-.2.711-1.913.041-.212.083-1.3.18-1.862.131-.779.207-.589m-5.953,12.9-.075-.587.027-.73-.032-.3-.465-1.256-.562-1.151-.662-1.047-.759-.944-.562-.548-.684-.533-.8-.521-.925-.509-.421-.243-.363-.28-.309-.314-.253-.346h0l-.2-.387-.144-.421-.329-.949-.463-.811-.37-.45-.428-.4-.516-.394-.63-.4-.078,0-.039.066.01.039.178.406.122.484.073.577.032.776.068.862.158.789.246.716.338.645,1.064,1.818.876,1.765.158.28.212.263.265.238.319.221.095.056,1.353.852.9.672.7.689.521.733.574.514.136.083.156.034,1.377.085h.017l.08-.046.017-.093m16.073-13.471-.711,1.127-.6,1-.492.7-.465.511-.46.348-.453.292-.409.326-.363.36-.316.392h0l-.144.209-.874,1.314-.852,1.159-.37.4-.428.338-1.494.927-.716.538-1.054.952-.292.343-.455.621-.484.567-.516.516-.548.465-.036.044.007.124.107.058h1.2l.251-.066.185-.183.82-1.246.392-.482.4-.414.419-.36.414-.28.433-.221.463-.163,1.609-.467.314-.134.292-.192.3-.268.277-.316.548-.835.526-1.1.139-.253.187-.219.226-.175.26-.127.3-.107.662-.248.436-.217.321-.243.209-.268.054-.1.282-.8.241-1.093.231-1.492.158-1.495-.032-.068-.076-.007-.029.022m-3.087,3.281-1.324.506-1.244.56-1.166.616-1.085.667-.6.358-.869.453-1.273.679-.859.579-1.643.983-.458.29-.409.324-.355.36-.3.394h0l-.251.416-.2.45-.368,1.159-.178,1.013.015.256.1.18.151.095.212.037,1.249.007.859-.049.192-.114.406-.458.769-.757.273-.285.6-.879.18-.295.173-.221.567-.543.6-.494.618-.441.647-.389.879-.523.506-.4.723-.9.845-1.307,1.195-1.636.161-.144.2-.071.214-.056.188-.1.168-.156.022-.044-.032-.093-.095-.017M1332.44,223.1l-.024-.124-.07-.105-.1-.071-.124-.025-13.849-.048-.124.024-.105.07-.071.1-.025.124,0,.949.024.124.07.105.1.071.124.025,13.849.048.124-.024.105-.07.07-.1.025-.124,0-.949m-11.478,10.8,0,.012.046.066.075.027,8.351-.044.117-.08.007-.024,1.631-9.038-.027-.1-.1-.046-11.69.061h0l-.1.046-.024.1,1.708,9.023m-12.231-7-.025-.125-.07-.106-.106-.071-.125-.025-18.474-.032-.125.025-.106.07-.071.106-.025.125,0,1.183.025.125.071.106.106.071.125.025,18.474.032.125-.025.106-.07.071-.106.025-.125,0-1.183m-.933,2.032-.062-.15-.15-.062-19.613.034-.15.062-.062.15,0,1.787.062.15.15.062,19.613-.034.15-.062.062-.15,0-1.787m1.694,2.632-.071-.17-.17-.071h-22.738l-.171.071-.071.17v2.147l.071.17.171.071h22.738l.17-.071.071-.17v-2.147m31.951,3.038-.073-.178-.178-.073H1280.25l-.178.073-.073.178v2.945l.073.178.178.073h60.941l.178-.073.073-.178V234.6m-9.126,3.515-.117.039-.066.1,0,.066.964,9.169.054.112.112.056h.942l.115-.039.066-.1.007-.032.879-9.169-.049-.144-.139-.061h-2.763m-45.751.049-.117.049-.042.119.72,9.177,0,.024.054.085.1.034,1.078.007.095-.032.056-.083,0-.022,1.083-9.16-.01-.075-.056-.071-.088-.029-2.882-.024Z" transform="translate(-1279.601 -202.841)" fill="#040403"/>
        <path id="Trazado_1012084" data-name="Trazado 1012084" d="M1513.621,217.546l-.989-.64-.35-.309-.258-.3-.368-1.018-.223-.6-.29-.552-.275-.392-.335-.389-1.025-.93-.56-.482-.118-.214-.326-2.6-.08-1.115-.024-1,.009-.044.082-.058.095.036.239.387.88,3.009.015.042.445.932.759,1.105.506.7.272.484.172.4.365.8.386.618.545.871.552,1.154-.006.071-.063.032-.032-.01Z" transform="translate(-1473.863 -206.293)" fill="#74a87e"/>
        <path id="Trazado_1012085" data-name="Trazado 1012085" d="M1580.852,210.839l-.066-.056-.08.032-.017.046-.083,2.081-.035.19-.084.173-.581.72-.758.706-.148.153-.75,1-.02.019-.089.017-.071-.061-.146-.463-.044-.392.023-.445.275-1.232,0,0,.012-.1-.06-2.909.047-.3.151-.268.569-.645.592-.587.613-.531.638-.472.131-.015.083.1v.056l-.173.808.027.112.091.253.026.487.05.6.208.638.344,1.1.113.871-.071.273-.2.2-.317.183-.048.017-.116-.041-.03-.122.113-.589.033-.56-.039-.531-.116-.5Z" transform="translate(-1532.855 -206.786)" fill="#74a87e"/>
        <path id="Trazado_1012086" data-name="Trazado 1012086" d="M1565.288,238.356l-.64-1.285-.282-.677-.27-1.317-.1-1.409.027-2.994.169-1.19.3-1.1.424-1.015.547-.927h0l.282-.38.059-.044.151.012.068.136.015.786,0,1.492-.073.565-.128.506-.169.645-.02.516.13.521.3.592.051.151-.015.158-.4,1.555-.245,1.541-.094,1.529.056,1.514h0l.008.076-.036.075-.083,0h0l-.033-.034Z" transform="translate(-1521.07 -222.517)" fill="#74a87e"/>
        <path id="Trazado_1012087" data-name="Trazado 1012087" d="M1581.03,234.19l-.207.589-.131.779-.181,1.862-.082,1.3-.042.212-.711,1.913-.124.2-.19.141-1.333.694-.7.465-.6.521-.492.572-.386.628h0l-.246.577-.167.616-.051.056-.072-.019-.02-.037-.151-.879-.1-.876-.05-.874,0-.874h0l.08-1.142.17-1.139.255-1.137.346-1.134.1-.2.58-.677,1.117-1.122.581-.521.587-.438.592-.355.6-.273.211-.117,1.944-1.38.071-.007.042.056,0,.034-.071.192-.291.837-.155.631-.05.331-.391,2.855.008.058.089.073.107-.044.368-.46.255-.236,2.214-1.538.02-.01.062.012.024.056-.118.584-.307.915-.314.691-.512.871-.634,1.122-.142.153-1.923,1.11-.131,0-.077-.107h0l0-.054.278-.813.385-.747.568-.764.076-.042.124.054,0,.136-1.081,1.872,0,.066.057.029h0l.038-.017.479-.533.388-.582.2-.487.035-.4,0-.18.068-.168.226-.518-.021-.071-.071-.017-.035.022L1581,238.252l-.089.032-.073-.058-.007-.044.044-1.042.083-1.706.178-1.207,0-.037-.051-.032-.051.032Z" transform="translate(-1530.401 -227.693)" fill="#74a87e"/>
        <path id="Trazado_1012088" data-name="Trazado 1012088" d="M1518.961,255.385l-1.378-.085-.155-.034-.136-.083-.575-.514-.521-.733-.7-.689-.9-.672-1.354-.852-.1-.056-.319-.221-.266-.239-.211-.263-.158-.28-.876-1.765-1.064-1.818-.338-.645-.246-.716-.158-.789-.068-.862-.032-.776-.073-.577-.122-.484-.178-.407-.009-.039.039-.066.077,0,.631.4.516.394.429.4.37.45.462.81.329.949.143.421.2.387h0l.254.346.309.314.362.28.421.243.924.509.8.521.684.533.562.548.759.945.663,1.047.562,1.151.465,1.256.032.3-.027.73.076.587-.017.093-.08.046h-.017Z" transform="translate(-1474.398 -235.853)" fill="#74a87e"/>
        <path id="Trazado_1012089" data-name="Trazado 1012089" d="M1611.57,241.953l.029-.022.075.007.032.068-.159,1.495-.231,1.492-.242,1.093-.282.8-.053.1-.21.268-.322.243-.435.217-.663.248-.3.107-.26.127-.226.175-.187.219-.139.253-.525,1.1-.548.835-.278.316-.3.268-.293.192-.314.134-1.609.467-.462.163-.433.222-.414.28-.42.36-.4.414-.392.482-.82,1.246-.186.182-.251.066h-1.2l-.107-.058-.006-.124.036-.044.548-.465.515-.516.484-.567.456-.621.291-.343,1.054-.952.717-.538,1.494-.927.427-.338.371-.4.851-1.159.874-1.314.143-.209h0l.317-.392.362-.36.409-.326.451-.292.46-.348.465-.511.492-.7.6-1,.711-1.127Z" transform="translate(-1550.821 -236.03)" fill="#74a87e"/>
        <path id="Trazado_1012090" data-name="Trazado 1012090" d="M1590.814,263.814l.1.017.032.093-.023.044-.167.156-.187.1-.214.056-.2.07-.16.144-1.2,1.636-.845,1.307-.723.9-.506.4-.878.523-.648.389-.617.441-.6.494-.568.543-.173.222-.18.295-.6.879-.272.285-.77.757-.406.458-.193.114-.859.049-1.248-.007-.211-.036-.151-.095-.1-.18-.015-.256.178-1.013.368-1.159.2-.45.25-.416h0l.3-.394.355-.36.409-.324.457-.29,1.642-.983.861-.579,1.272-.679.869-.453.6-.358,1.085-.667,1.167-.616,1.244-.56,1.324-.506Z" transform="translate(-1533.152 -254.61)" fill="#74a87e"/>
        <path id="Trazado_1012091" data-name="Trazado 1012091" d="M1475.031,290.923l.066-.321.007-.119-.1-.214-.263-.195-.823-.341-1.061-.251-.589-.149-.548-.229-.623-.4-.557-.526-.3-.236-.46-.2-.633-.175-.9-.173-.618-.114-.462-.156-.324-.241-.18-.292-.131-.445-.139-.475-.182-.36-.017-.024-.071-.093h0l-.241-.241-.3-.192-.358-.144-.416-.1-1.117-.166-.986-.095-.854-.029-.725.039-.093-.019-.078-.141.09-.134.343-.129.6-.1.869-.007.375,0,1.307.1,1.258.268h0l.825.277.8.355.268.178.73.579.718.494.708.407.694.316.426.2.219.17.355.346.08.051,2.843,1.76.136.112,1.4,1.553.007.012-.036.083-.258.039h0l-.338-.017-.341-.09m-4.752-3.991v-.065l-.047-.045-1.738-.688h-.065l-.046.047,0,0v.065l.047.045,1.738.688h.065l.045-.047,0,0Z" transform="translate(-1433.577 -271.52)" fill="#74a87e"/>
        <path id="Trazado_1012092" data-name="Trazado 1012092" d="M1512.076,300.45l-.045.047h-.065l-1.739-.688-.047-.045v-.07l.045-.047h.065l1.737.688.047.045v.07Z" transform="translate(-1475.375 -285.034)" fill="#040403"/>
        <path id="Trazado_1012093" data-name="Trazado 1012093" d="M1548.087,335.928l-.026.124-.069.1-.106.07-.124.024-13.849-.048-.124-.025-.106-.071-.069-.105-.024-.124,0-.949.026-.124.071-.1.1-.07.125-.024,13.848.048.124.025.106.07.069.105.024.124,0,.949Z" transform="translate(-1495.251 -314.716)" fill="#be9583"/>
        <path id="Trazado_1012094" data-name="Trazado 1012094" d="M1544,356.673l-1.709-9.023.027-.1.1-.046,11.691-.061.072.022.053.129-1.63,9.038-.035.066-.089.039-8.35.044-.081-.029-.044-.075Z" transform="translate(-1502.638 -325.613)" fill="#be9583"/>
        <path id="Trazado_1012095" data-name="Trazado 1012095" d="M1364.985,361.373l-.024.125-.071.106-.106.07-.125.025-18.473-.032-.125-.025-.106-.071-.071-.106-.024-.125,0-1.183.026-.125.071-.106.106-.07.125-.025,18.473.032.125.025.106.071.071.106.024.125,0,1.183Z" transform="translate(-1335.858 -336.134)" fill="#f1c1a2"/>
        <path id="Trazado_1012096" data-name="Trazado 1012096" d="M1353.708,376.271l-.062.15-.149.062-19.613.034-.149-.062-.062-.15,0-1.787.06-.15.151-.062,19.613-.034.149.062.062.15,0,1.787Z" transform="translate(-1325.509 -348.396)" fill="#83b9bc"/>
        <path id="Trazado_1012097" data-name="Trazado 1012097" d="M1347.01,393.9l-.071.17-.171.071h-22.737l-.171-.071-.071-.17v-2.147l.071-.17.171-.071h22.737l.171.071.071.17V393.9Z" transform="translate(-1317.12 -363.032)" fill="#df9c78"/>
        <path id="Trazado_1012098" data-name="Trazado 1012098" d="M1343.684,414.768l-.074.178-.178.073h-60.941l-.178-.073-.073-.178v-2.945l.073-.178.178-.073h60.941l.178.073.074.178v2.945Z" transform="translate(-1281.842 -380.064)" fill="#be9583"/>
        <path id="Trazado_1012099" data-name="Trazado 1012099" d="M1627.777,436.518h2.764l.137.061.05.144-.878,9.169-.051.112-.137.058h-.922l-.089-.024-.1-.144-.965-9.169.047-.146.14-.061Z" transform="translate(-1575.062 -401.245)" fill="#be9583"/>
        <path id="Trazado_1012100" data-name="Trazado 1012100" d="M1324.848,436.84l2.882.024.115.053.039.122-1.084,9.16-.032.078-.124.058-1.078-.007-.1-.044-.051-.1-.722-9.177V437l.047-.112.112-.044Z" transform="translate(-1317.884 -401.518)" fill="#be9583"/>
      </g>
      <g id="Grupo_1188287" data-name="Grupo 1188287" transform="translate(113.363 17.414)">
        <path id="Trazado_1012101" data-name="Trazado 1012101" d="M2073.6,352.066l-.083.2-.2.083H2030.89l-.2-.083-.083-.2V318.485l.083-.2.2-.083h42.429l.2.083.083.2v33.581m-.356-33.25-.075-.18-.18-.075h-41.743l-.18.075-.075.18v32.846l.075.18.18.075h41.743l.18-.075.075-.18V318.816Z" transform="translate(-2030.61 -318.205)" fill="#040403"/>
        <path id="Trazado_1012102" data-name="Trazado 1012102" d="M2075.373,353.661l-.076.18-.18.075h-41.743l-.18-.075-.075-.18V320.815l.075-.18.18-.075h41.743l.18.075.076.18v32.846m-1.916-31.149-.063-.063H2035.1l-.063.063v29.555l.063.063h38.291l.063-.063V322.511Z" transform="translate(-2032.74 -320.204)" fill="#be9583"/>
        <path id="Trazado_1012103" data-name="Trazado 1012103" d="M2084.26,362.691l-.063.063h-38.291l-.063-.063V333.136l.063-.063H2084.2l.063.063v29.555m-.42-29.206-.063-.063-37.478.065-.063.063.05,28.742.063.063,37.478-.065.063-.063-.05-28.742Z" transform="translate(-2043.543 -330.829)" fill="#040403"/>
        <path id="Trazado_1012104" data-name="Trazado 1012104" d="M2086.111,364.192l-.063.063-37.478.065-.063-.063-.05-28.742.063-.063,37.478-.065.063.063.05,28.742m-3.689-25.484-.049-.119-.119-.049h-30l-.119.049-.049.119v22.3l.049.119.119.049h30l.119-.049.049-.119v-22.3Z" transform="translate(-2045.762 -332.793)" fill="#fff"/>
        <path id="Trazado_1012105" data-name="Trazado 1012105" d="M2102.832,378.746l-.049.119-.119.049h-30l-.119-.049-.049-.119v-22.3l.049-.119.119-.049h30l.119.049.049.119v22.3m-29.776-11.586.117-.022,1.959-.947.961-.389.947-.329.728-.3.794-.436,3.232-2,.494-.195.212-.01.188.044,0,0,1.054.484,1.1.565,2.334,1.373.175.051.175-.051,3.663-2.234.6-.3.5-.1.5.051.562.2.613.248.674.2.691.146.752.1.786.046h.84l1.95-.146,1.351-.256,1.234-.238.112-.058.046-.119v-5.74l-.027-.068-.068-.027h-29.244l-.1.039-.039.1v10.187l.037.09.09.037h0m14.641-1.476-5.033-2.66-.224-.044-.341.075-.429.185-1.317.815-.952.621-1.249.725-1.091.5-4.006,1.653-.041.024-.073.149.073.151.031.022.2.056,1.232.044,1.916.08,1.3.11,1.158.183,1.078.27.314.1,1.531.482.132,0,.121-.051,1.385-.922,1.438-.828h0l1.5-.733,1.553-.633,4.038.759,1.422.324,1.319.348,1.3.4.115.012.109-.039,2.755-1.714.341-.175.341-.119.509-.083.567.017.655.117.91.243.1-.017.058-.09v-.017l-.012-2.792,0-.019-.063-.1-.117-.017-.922.253-.932.2h0l-1.093.163-1.108.093-1.12.022-1.132-.051-.248-.022h0l-.657-.1-.65-.158-.643-.219-.638-.275-.319-.129-.3-.066-.275,0-.251.058-.17.08-3.68,2.152-.239.18-.138.219h0l-.042.192m9.729,3.413-1.422-.667-1.548-.543-1.762-.458-2.495-.509-1.825-.36-.4-.024-.4.09-1.334.562-1.307.643-1.281.723-1.256.8-.024.022-.02.095.066.073,2.729,1.071,3.3,1.232.874.358,1.022.5,2.49,1.395.1.027.095-.029.348-.273.387-.4.382-.445,1.127-1.283.844-.837.83-.655.847-.489.182-.037.18.054.728.431,1.533.867.577.256.552.187.691.153.126-.032.063-.114v-.012l.044-4.8-.044-.119-.112-.063-2.12-.314-.29,0-.273.1-3.179,1.835-.024.02-.034.1.061.085,1.1.635.012.1-.08.061-.056-.012m-24.511-.633v9.917h0l.032.078.08.032h15.9l.124-.032.095-.088.122-.209.3-.443,3.021-3.116.056-.146-.075-.139h0l-.022-.015-1.865-.981-1.755-.835-1.672-.7-1.645-.584-2.341-.947-1.745-.686-1.4-.463-1.3-.324-1.263-.2-.794-.058-3.785-.132-.071.066h0m16.674,10.051h12.666l.09-.037.039-.09h0l.056-6.356v-.007l-.044-.09-.095-.032-.7-.032-.757-.212-.842-.389-1.217-.706-.7-.414-.234-.058-.231.071-.944.677-.677.633-2.68,2.906-3.31,3.391-.5.611,0,.078.058.054h0l.022,0h0Z" transform="translate(-2066.172 -350.53)" fill="#040403"/>
        <path id="Trazado_1012106" data-name="Trazado 1012106" d="M2075.5,369.6h0l-.091-.036-.036-.09V359.284l.039-.1.1-.039h29.245l.068.027.027.068v5.74l-.047.119-.112.058-1.235.239-1.351.256-1.949.146h-.839l-.787-.046-.753-.1-.69-.146-.675-.2-.613-.248-.563-.2-.5-.051-.5.1-.6.3-3.664,2.234-.131.049-.219-.049-2.334-1.373-1.1-.565-1.054-.484,0,0h0l-.187-.044-.211.01-.495.195-3.232,2-.794.436-.728.3-.947.329-.961.389-1.959.947-.116.022Z" transform="translate(-2068.614 -352.968)" fill="#cde7ee"/>
        <path id="Trazado_1012107" data-name="Trazado 1012107" d="M2173.407,402.767l-.207-.375.041-.192h0l.139-.219.239-.18,3.68-2.152.17-.08.25-.058.275,0,.3.066.319.129.637.275.643.219.65.158.656.1h0l.249.022,1.131.051,1.12-.022,1.108-.093,1.093-.163.931-.2.922-.253.117.017.064.1v.019l.012,2.792v.017l-.057.09-.106.017-.91-.243-.654-.117-.568-.017-.509.083-.341.119-.341.175-2.755,1.714-.11.039-.113-.012-1.3-.4-1.319-.348-1.42-.324-4.038-.759Z" transform="translate(-2151.676 -387.237)" fill="#fff"/>
        <path id="Trazado_1012108" data-name="Trazado 1012108" d="M2090.205,403.391l.207.375-1.553.633-1.5.733h0l-1.438.828-1.386.922-.121.051-.131,0-1.532-.482-.314-.1-1.078-.27-1.159-.183-1.3-.109-1.916-.08-1.23-.044-.2-.056-.032-.022-.073-.151.073-.149.042-.024,4.006-1.653,1.09-.5,1.248-.725.953-.621,1.316-.815.429-.185.341-.075.223.044,5.034,2.66Z" transform="translate(-2068.681 -388.236)" fill="#f3c288"/>
        <path id="Trazado_1012109" data-name="Trazado 1012109" d="M2152.988,424.577l-1.1-.635-.062-.085.035-.1.024-.019,3.179-1.835.272-.1.29,0,2.121.314.112.063.044.119-.044,4.8v.012l-.063.114-.127.032-.691-.153-.552-.187-.576-.256-1.534-.867-.728-.431-.18-.054-.183.036-.847.489-.83.655-.845.837-1.126,1.283-.382.445-.388.4-.347.273-.1.029-.1-.027-2.489-1.395-1.022-.5-.874-.358-3.3-1.232-2.729-1.071-.065-.073.02-.095h0l.024-.022,1.256-.8,1.28-.723,1.307-.643,1.333-.562.4-.09.4.024,1.825.36,2.5.509,1.761.458,1.549.543,1.422.667.056.012.08-.061-.012-.1Z" transform="translate(-2121.611 -406.158)" fill="#94c5cb"/>
        <path id="Trazado_1012110" data-name="Trazado 1012110" d="M2075.27,436.648h0l.071-.066,3.784.131.794.058,1.263.2,1.3.324,1.4.462,1.745.686,2.343.947,1.645.584,1.671.7,1.755.835,1.864.981.023.015.075.139-.056.146-3.021,3.116-.3.443-.122.209-.095.088-.124.032h-15.9l-.08-.032-.032-.078v-9.917Z" transform="translate(-2068.529 -418.713)" fill="#83b9bc"/>
        <path id="Trazado_1012111" data-name="Trazado 1012111" d="M2185.2,456.094l.5-.611,3.31-3.391,2.679-2.906.678-.633.944-.677.231-.07.234.058.7.414,1.218.706.841.389.758.212.7.032.095.032.044.09v.007l-.056,6.355h0l-.039.09-.089.037h-12.666l-.023,0-.059-.054.006-.078Z" transform="translate(-2161.856 -428.243)" fill="#f3c288"/>
      </g>
      <g id="Grupo_1188290" data-name="Grupo 1188290" transform="translate(12.021 26.495)">
        <path id="Trazado_1012362" data-name="Trazado 1012362" d="M1688.572,1619.163l-.1-.029-.078-.071-.081-.124-.313-.413-1.232-.975-1.256-.991-.879-.768-.727-.746-.541-.68a2.093,2.093,0,0,1-.424.167,2.53,2.53,0,0,1-1.406.022l-1.045.227-2.647.4-2.7.244-1.385.045a2.166,2.166,0,0,1-.527.12l-.549-.018c-.068-.011-.132-.029-.2-.045-.047.011-.093.024-.141.032l-.031.03-.036,1.652.039.142.113.1,1.339.491,2.076.573,1.062.31,1.117.407,1.205.508,1.638.758,2.8,1.254.439.146.442.086.444.03.441-.029.411-.083.4-.138.4-.194.385-.25,1.123-.871,1.337-1.125.025-.033-.008-.095-.082-.047-.846-.019Z" transform="translate(-1625.022 -1431.816)" fill="#dfddd8"/>
        <g id="Grupo_1188289" data-name="Grupo 1188289" transform="translate(0 0)">
          <path id="Trazado_1012363" data-name="Trazado 1012363" d="M1587.781,1204.988l.33.767a2.141,2.141,0,0,1,.319-.188l-1.584-4.461-.1-.187-.314-.616-.053-.263.017-.234,1.156-5.128.971-4.543.024-.052.109-.041.091.073.469,1.22.375,1.109.83,2.805,1.026,3.7.076.094.121,0,.016-.006.083-.047.065-.073.007-.1-.719-2.54-.743-2.423-.775-2.3-.8-2.183-.01-.091,2.179-12.068-.02-.17-.109-.134-.073-.048-.108-.018-.081.076-.006.027-.8,5.136-.416,2.421-1.261,6.219-.994,4.411-.605,2.639-.567,2.541-.569,2.11-1.434,4.573-.363.942-.191.383c.088.031.177.059.267.087l.062-.08.173-.293.07-.173.612-1.521.6-1.763.522-1.834.44-1.9.076-.083.106.026.032.049.939,2.808Z" transform="translate(-1549.528 -1059.211)" fill="#040403"/>
          <path id="Trazado_1012364" data-name="Trazado 1012364" d="M1678.946,1355.917l-.007.018-.109.218-.669,1.234-.3.4-.284.275-.158.143c-.079-.045-.161-.088-.241-.13l.6-.693.519-.866.279-.69.068-.083.108-.02.085.015.094.065.012.114Z" transform="translate(-1629.187 -1211.205)" fill="#040403"/>
          <path id="Trazado_1012365" data-name="Trazado 1012365" d="M1483.76,438.58l-.073-.391-.143-.406-.936-1.965-1-1.839-1.067-1.707-1.129-1.579-.551-.65-.517-.462-.511-.293-.5-.129-.335,0-.354.059-.35.119-.37.184-2.286,1.357-.1.024-.093-.051-.572-.69-.13-.119-.159-.08-.177-.037-.178.015-2.893.654-1.419.376-1.529.248-3.255.339-.246-.028-.211-.1-.217-.17-.47-.565-.5-.841-.388-.9-1.555-5.382-.487-1.513-.539-1.31-.59-1.109-.643-.907-.064-.14.018-.153.216-.335.149-.269.052-.269-.035-.253-.109-.239-.173-.225-.234-.2-2.256-1.689-1.677-1.4-.939-.867-2.827-2.73-2.6-2.508-1.874-1.705-1.868-1.573-.944-.7-.976-.6-1.014-.492-1.047-.383-1.4-.34-1.457-.165-.129-.04-.093-.094-.279-.477-.017-.114.065-.1.467-.394.416-.546.486-.9.381-1,.264-1.051.141-1.081.02-1.14-.1-1.133-.225-1.106-.338-1.061-.375-.861-.44-.807-.507-.746-.572-.688-.8-.777-.9-.687-1.007-.6-1.108-.51-.123-.094-.064-.141.017-.15.093-.123.137-.062.432-.045.651.057.654.205.845.366,1.443.608,1,.343.912.2.877.064.859-.071.872-.2.545-.192.508-.237.47-.278.432-.323.417-.391.372-.439.331-.489.287-.54,0-.134-.114-.071-.048,0-.571.1-.522.031-.505-.034-.464-.092-.7-.28-.674-.442-.681-.611-.918-.989-.422-.47-.763-.721-.866-.605-.947-.48-1-.331-.98-.167-.986-.01-.944.158-.866.315-.769.451-.675.572-.372.415-.31.433-.247.453-.188.47-.141.584-.056.608.029.636.117.663.011.046-.015.235-.112.211-.185.15-.234.064-1.443.165-1.362.3-1.285.441-1.208.577-1.061.669-.991.789-.921.913-.851,1.033-.569.841-.466.865-.363.888-.258.911-.187,1.255v1.295l.062.5.115.473.173.47.206.4.234.336.278.288.3.217.338.159.158.048.2-.036.1-.175v-.046l-.232-1.61.029-.085.088-.03.029.01.087.037.158.137.076.19.179.919.281.667,1.781,2.941.225.492.094.47-.008.345-.062.343-.313.749-.053.189.032.193.109.164.17.1.071.019.586.1.091.052,1.071,1.281.762.624.783.488.809.345.833.208.873.067.9-.077.922-.223.947-.369.707-.29.058.043-.008.018-.335.647-.906,2.987-.1.181-.173.114-7.888,2.843-.165.169-.146.387-.059.071-.091,0-.008,0-.689-.256-.675-.155-.658-.058-.643.043-.777.186-.754.339-.73.489-.708.639-.3.372-.214.406-.147.586.018.192.092.171.2.236.067.134v.147l-.067.6.035.251.076.217.129.19.146.077.132-.025.141-.1.27-.893.413-.809.361-.494.428-.456.056-.122-.046-.126-.062-.043-.077-.024-.076.027-1.488,1.185-.173.031-.12-.126,0-.074.089-.381.141-.36.209-.363.269-.335.326-.309.384-.282.584-.331.587-.242.592-.156.593-.067.54.019.543.091.548.162.548.236.1.126.891,3.54-.02.114-.094.064-.01,0-2.651.367-.259.083-.22.162-.449.6-.132.3-.073.3-.052.119-.1.076-.132.018-.118-.051-.08-.1-.079-.229-.081-.587.076-.627-.029-.08-.085-.012-.039.037-.379.761.09.547.1.207.144.165.355.183.479.046.182-.071.1-.165.146-.789.068-.193.126-.162.171-.117.2-.059,2.872-.4.2.036.41.177.448.122.5.071.572.024,1.294-.092,1.777-.3.2-.039.029,0,.083.049.012.1-.083.2-.193.3-.255.269-1.623,1.38-.669.546-.14.205.04.217.12,0,.143-.079,1.405-1.073,1.059-.94.073-.024.062.043.007.021.254.849.35.892.448.935.546.975.2.413.076.363-.065.495-.284.726-.041.094-.068.088-.1.048-2.171.4-.2-.045-.1-.174,0-.019-.065-.662-.137-.641-.372-1-.555-.951-.278-.3-.314-.155-.121-.022-1.682-.422-.69-.073-1.526.12-.648.125-.577.162-.543.214-.467.253-.419.3-.375.36-.431.583-.055.269.135.935.056.134.115.091.161.045.167-.015.176-.068.419-.445,0-.092-.083-.046-.053.019-.348.208h-.1l-.087-.045-.049-.083,0-.1.056-.086.458-.324.524-.26.593-.2.66-.135.153-.057.117-.11.065-.094.015-.028-.023-.086-.082-.033-.689.1-.636.158-.581.22-.531.284h-.108l-.05-.089.02-.058.364-.418.39-.329.5-.3.6-.233.725-.187,1.068-.193.487-.083.282,0,2.685.566.117.048.087.088.329.547.273.555.214.571.158.581.12.752-.04.214-.152.165-.621.308-.737.214-.8.112-.865.008h-.873l-1.13.074-.093-.016-.073-.059-.029-.086.017-.091.065-.071.217-.168.158-.2.127-.361,0-.428-.044-.085-.085-.036-.443.018-.4.107-.3.159-.278.223-.25.6-.012.028-.017.165.05.158.111.123.153.07.6.141.115.055.258.143.364.055.492-.07.373-.062.273.006.417.031.511-.027,1.3-.129.718-.207.954-.406.112-.027.114.022.317.08h.408l.476-.076.668-.169.408-.107.059.013.02.058-.012.024-8.278,10.747-.153.092-.4.109-.4.195-.367.275-.338.357-.307.44-.141.128-.188.031-.95-.088-.618-.018-7.066.232-7.421.257-.121-.048-.048-.119.053-1.335.056-.117.121-.044h0l1.029-.042,1.329-.21.613-.165.519-.229.422-.3.323-.36.214-.391.132-.449.049-.5-.035-.56-.431-3.153-.469-3.034.014-.119.074-.092.369-.256.749-.58.176-.23.073-.248-.033-.239-.147-.262-.25-.272-.372-.3-.382-.269-.889-.651-.6-.541-.446-.544-.3-.577-.627-1.476-.672-1.366-.716-1.255-.759-1.145-.036-.122.045-.119.346-.477.253-.5.191-.627.079-.644-.032-.687-.137-.682-.255-.718-.35-.688-.449-.663-.52-.6-.411-.376-.476-.358-.511-.3-.5-.233-.475-.158-.475-.091-.432-.015-.422.062-.129.074-.068.132-.376,2.056-.02.036-.065.015-.05-.051-.126-.489-.169-.455-.214-.427-.258-.4-.291-.355-.337-.324-.379-.3-.419-.266-.041-.019-.12-.019-.114.033-.093.079-.052.109-.211.806-.253.7-.31.608-.363.535-.725.825-.514.483-.554.449-.592.413-.631.375-1.45.711-2.29,1.134-.806.47-.663.453-.633.522-.56.564-.492.6-.419.642-.393.775-.3.828-.209.877-.12.931-.033,1.607.15,1.522.144.731.191.709.24.688.284.669.633,1.154.784,1.088.938,1.018,1.088.949,1.261.951,1.338,1.009.954.785.825.758.7.755.156.284.132.764-.015.913-.052.11-.112.055-.218-.028-.4-.037-.314.1-.334.233-1.011.987-.944,1.125-.891,1.285-.824,1.421-.769,1.58-.707,1.728-.663,1.9-.637,2.138-.669,2.535-.619,2.594-.561,2.658-.511,2.713-2.514,14.59-1.631,8.471-.391,2.333-.249,2.264.017.8.185.739.261.532.076.187,0,.2-.254,1.473-.038.421.017.467.209,1.082.144.232.247.122,2.327.41.1.059.039.112-.367,10.731-.478,10.79-.161,1.965-.328,2.816-.127.354-1.112,1.924-1.434,2.707-11.505,22.47-2.249,4.555-.02.205.115.172,1.136.838.058.1-.036.107-.009.009-.587.675-1.144,1.458-.348.525-.365.688-.167.409-.112.4-.053.4v.393l.056.375.112.367.161.367.217.36.633.871.919,1.128.863,1.061,4.28,5.475.493.523.68.555a5.382,5.382,0,0,0,.7.391h0l1.156.244,1.258.189,1.39.14,1.9.134,1.273.034,1.006-.074.469-.141.19-.12.141-.149.155-.343.014-.443-.126-.482-.258-.5-.74-.794,0,0-1.359-1.026-.578-.525-.489-.528-.134-.29-.287-1.3-.587-2.1-.269-1.2-.2-1.545.033-.094.093-.033.023,0,1.813.51.174.019.17-.04.149-.094.111-.135,9.527-17.485.059-.461s.662-1.2,1.629-2.979a.859.859,0,0,1-.224-.1,0,0,0,0,0,0,0l-.109.2c-.036.067-.073.132-.108.2-.052.1-.1.187-.152.278l-.13.236c-.023.042-.046.082-.067.123-.109.2-.213.387-.308.563l-.345.63c-.024.046-.048.091-.071.132-.071.129-.131.239-.179.328l-.073.135-.035.062-.027.052-9.682,17.761-.2.178-.271.015-1.155-.367-1.182-.43-2.388-1.03-2.5-1.283-2.708-1.594-1.531-1.036-1.256-1.055-.121-.229.041-.253,1.834-3.486.9-1.8,1.2-2.507,1.484-2.805,1.312-2.495,1.718-3.448,2.311-4.435,1.551-2.929,1.082-2.191,1.366-2.7,1.432-2.435.146-.32.053-.344.041-.647.115-.881.149-1.234.27-4.1.149-3.611.221-6.143.19-5.31.056-4.125V497l.065-.114.132-.03.038.006,1.965.349,1.514.218,1.384.141,1.281.055h0l.093.045.032.1-.146,1.693.036.109.1.052.073.007.08-.067.144-1.658.081-.158.168-.058,3.132.025,1.482-.058,1.426-.106,1.716-.25,2.514-.513,1.918-.482,2.218-.666,3.4-1.115,2.623-.922h0l.224.012.146.164.633,1.964.522,1.833,1.273,4.573,1.112,3.974.718,2.874.888,3.321.833,3.413.713,3.647.85,5.238.765,5.386,1.064,7.6.944,6.748.791,5.743.284,1.79.014.009c.149.088.29.183.428.282l-.288-1.781-2.238-16.325-1.551-10.933-.492-3.034-.593-3.1-.7-3.164-.8-3.235-2.359-8.588-1.37-4.87-1.1-3.682.008-.092.068-.067.842-.355.246-.2.1-.3.37-5.694.035-1.417-.1-1.46-.537-4.841-.366-4.279-.2-3.888-.045-3.549.088-7.254v-.019l.047-.079.087-.031.31,0,2.159-.043,2.237-.162,2.473-.287,3.252-.474,1.792-.336,1.584-.439,1.417-.552,1.306-.687,1.088-.737,1.015-.849,1.478-1.331.089-.126.018-.155-.129-.892.036-.205,2.135-3.978,1.1-2.115.877-1.878,2.2-5.242,2.288-5.81.044-.116.737-1.815.662-1.258.367-.546.385-.47.414-.415.46-.375.009-.007.12-.016.093.076.516.865.577.748.048.047.164.1.194.051.513-.033.675-.213.856-.4.03-.012.109.006.07.085,1.3,4.665,1.373,4.365.53,1.365.628,1.235.731,1.1.83.971,1.094,1.073,1.219,1.087,1.414,1.174,2.051,1.623,1.7,1.338.226.3.37.659.2.288.285.3.372.308.422.281.419.226.413.17.363.094.322.016.141.036.088.113.305,1.18.133,1.2-.041,1.243-.221,1.247-.1.4-.308,1.3-.086.968.029.384.088.354.133.285.2.247.153.128.355.2.354.1.355,0,.35-.076.354-.149.381-.238.385-.311.391-.391.847-1.049.977-1.433.928-1.536.886-1.635.842-1.739.215-.565.1-.516-.009-.47-.125-.418-.029-.064-.226-.367-.305-.372-.382-.372-.461-.375-1.61-1.3-.076-.137.024-.152.449-.821.033-.172-.068-.159-3.6-4.35-.02-.086.056-.067.026-.008,1.074-.169,1.117-.237,1.124-.3,1.164-.361,1.193-.428,1.224-.488,2.61-1.2,1.705-.706.587-.226.431-.213.294-.229.229-.285.247-.461.1-.208.093-.1.132-.025.564.073.531.117.883.3.882.452.916.6,1.272.966.652.505.549.338.572.187.558.016.492-.146.3-.186.252-.245.194-.3.134-.343.065-.367,0-.4ZM1374.521,570.134l.152.079.96.612.66.58.241.291.194.314.135.311.078.332,0,.012-.006.174-.065.162-.114.134-.156.088-.581.138-.683.027-3.236-.193-2.59-.3-.526-.115-.5-.174-.514-.263-.479-.333-.448-.409-.416-.479-3.27-4.176-2.969-3.7-.451-.671-.291-.712-.1-.461.014-.312.19-.607.278-.609.364-.619.451-.623.093-.047.1.036.012.015.137.232.217.349.633.764,1.1,1.335.719.957.268.384,1.168,1.864,1.394,2.493.531.9.536.708.569.551.62.416.161.082.648.222.786.11.939.008,1.346-.1.209-.019.411-.012.387.036.363.086.338.134Zm-12.12-13.362,2.256,1.488,2.3,1.335,2.353,1.18,2.4,1.026.1.079.036.122.044.913.152,1,.26,1.1.434,1.488.423,1.463.012.5-.008.143.021.1.067.082.666.494.039.083-.048.079-.039.012-1.721.126-1.4.048-.452-.021-.429-.071-.4-.119-.378-.168-.37-.226-.338-.275-.3-.317-.269-.363-1.519-2.569-.874-1.521-.671-1.081-.66-.951-.672-.844-1.331-1.625-.789-1.142-.035-.141.052-.132.983-1.277Z" transform="translate(-1359.234 -378.367)" fill="#040403"/>
          <path id="Trazado_1012366" data-name="Trazado 1012366" d="M1829.992,386.752l.1.017.08.066.041.095-.009.1-.047.073-.732.684-.767.548-.8.409-.83.273-.679.119-.7.034-.722-.051-.74-.136-.969-.331-1.528-.689-.563-.263-.492-.185-.506-.119h0l-.462-.046-.473.007-.481.063-.492.119-.27-.01-1.271-.475-.073-.02-.77-.146-.116-.056-.079-.1-.151-.487-.07-.48.009-.494.086-.482.165-.489.237-.465.314-.462.377-.428.442-.4.489-.35.524-.28.581-.217.643-.148.7-.083,1.064.015.509.078.48.122.515.187.489.241.477.292.5.368,1.005.927,1.348,1.487h0l.474.48.5.394.528.307.554.219h0l.755.158.8.012Z" transform="translate(-1746.568 -380.997)" fill="#78534b"/>
          <path id="Trazado_1012367" data-name="Trazado 1012367" d="M1815.063,420.626l.059-.1.112-.078.367-.085.506.019.568.12.543.2.436.255.263.268.053.126,0,.114-.059.1-.112.078-.365.085-.506-.019-.567-.12-.543-.2-.436-.255-.264-.268-.053-.126,0-.114Z" transform="translate(-1746.254 -414.025)" fill="#be9583"/>
          <path id="Trazado_1012368" data-name="Trazado 1012368" d="M1758.278,439.292l0,.027-.2-.085.572-.991.2-.394.134-.387.066-.382,0-.377h0l-.141-.608-.321-.594-.214-.248-.26-.207-.3-.163-.324-.11-.329-.051-.329.01-.3.071-.28.131-.146.1-.27.275-.251.38-.234.489-.246.664-.027.061-.1.107-.136.054-.149-.01-.129-.071-.789-.837-.679-.747-.572-.521-.565-.387-.589-.273-.431-.241-.321-.38-.122-.066-.1.037-.029.054.007.051.309.477.394.343h0l.535.231-.144.046-.078.078h0l0,.163-.168-.032-.007,0-.01,0-.078.134-.051.234-.058.134-.1.1-.453.275-.448.192-.446.107-.44.019h0l-.453-.068-.229-.1-.689-.521-.611-.555-.531-.592-.45-.623,0,0-.1-.063-.115.024-.058.039-.024.1.319.577.382.526h0l.691.7.832.582.051.085-.044.093h0l-.039.017-1.061.173-1.051.093-.952,0-.852-.078-.7-.156-.572-.236-.455-.324-.3-.389-.168-.448-.09-.095-.127.037h0l-.032.071.012.214.08.282.08.28.015.212.012.779.163.82,0,.054-.073.08-.107-.022-.528-.577-.341-.611-.219-.7-.129-1,.027-.986.182-1.02.348-1.083.519-1.178.63-1.105.755-1h0l.747-.769.842-.686.932-.608,1.025-.528.925-.4.852-.314.813-.244.806-.182,1.3-.175.134.015.119.068.65.465.7.309h0l.543.124.569.041.6-.041.623-.126.26.015.774.346h0l.611.353.579.411.871.755.759.808.652.867.54.923h0l.455,1.039.331,1.105.207,1.166.085,1.229-.024.871-.1.881-.17.835-.236.772-.292.7-.343.6-.409.523-.44.406-.131.037-.119-.063-.394-.385-.492-.336h0Zm-3.259-13.074-.049.061.007.08.219.494.166.5.112.5.056.5h0l0,.574-.071.579-.136.584-.207.587-1.037,1.847-.017.134.088.1h0l.012,0,.007,0,.161.007.131-.093.428-.638.365-.66.287-.647.214-.66.129-.625.054-.628-.024-.6-.107-.6-.231-.686-.358-.674-.09-.063-.107.015,0,0h0Zm-1.808,1.127.02.56-.083.421-.178.441-.282.462-.424.555-.029.124.078.1.032.012.015,0,.175-.007.148-.095.3-.37.236-.385.175-.394.115-.409h0l.056-.431-.01-.443-.041-.076-.18-.136-.071-.012-.048.054v.029h0Z" transform="translate(-1683.096 -417.609)" fill="#78534b"/>
          <path id="Trazado_1012369" data-name="Trazado 1012369" d="M1830.546,435.355l.358.674.231.686.107.6.024.6-.053.628-.13.626-.214.66-.287.648-.365.66-.429.638-.131.092-.16-.007-.007,0-.012,0-.088-.1.017-.134,1.037-1.847.207-.587.137-.584.069-.579v-.574h0l-.056-.5-.113-.5-.165-.5-.219-.494-.008-.08.048-.061,0,0,.107-.015.09.063Z" transform="translate(-1758.421 -426.699)" fill="#040403"/>
          <path id="Trazado_1012370" data-name="Trazado 1012370" d="M1818.245,442.406v-.029l.048-.054.071.012.18.136.042.075.009.443-.056.431h0l-.115.409-.175.394-.236.385-.3.37-.148.095-.175.007-.015,0-.032-.012-.077-.1.029-.124.423-.555.282-.463.178-.44.083-.421-.02-.56Z" transform="translate(-1748.13 -432.669)" fill="#040403"/>
          <path id="Trazado_1012371" data-name="Trazado 1012371" d="M1812.641,489.576l-.331.124-.324.068-.044,0-.165-.093-.032-.187.065-.122.087-.056.512-.275.394-.37.186-.277.139-.314.094-.348.05-.387-.03-.509-.145-.462-.258-.389-.358-.3-.389-.161-.451-.053-.347.053-.432.229-.37.411-.3.6-.189.706-.047.117-.085.09-.115.051-.124,0h0l-.382-.095-.329-.144-.4-.292-.4-.441-.595-.655-.657-.57h0l-.681-.46-.536-.231h0l-.394-.343-.309-.477-.008-.051.029-.054.106-.037.121.066.321.38.43.241.59.273.564.387.572.521.679.747.788.837.128.071.15.01.136-.054.1-.107.027-.061.245-.664.234-.489.251-.38.27-.275.146-.1.281-.131.3-.071.329-.01.329.051.323.11.3.163.261.207.214.248.321.594.141.609h0l0,.377-.065.382-.134.387-.2.394-.572.991Z" transform="translate(-1737.653 -467.951)" fill="#040403"/>
          <path id="Trazado_1012372" data-name="Trazado 1012372" d="M1764.962,491.78l.682.46h0l.657.57.594.655.4.441.4.292.329.144.382.095h0l.124,0,.115-.051.085-.09.046-.117.19-.706.3-.6.37-.411.431-.229.348-.054.45.054.39.161.358.3.258.389.146.462.029.509-.049.387-.095.348-.139.314-.185.277-.394.37-.511.275-.088.056-.066.122.032.188.166.092h0l.044,0,.324-.068.331-.124.2.085,0-.027.735,1.2.5,1.02.075.321h0l-.032.3-.129.3-1.813,3.035-1.92,2.984-.036.044-.416.382-.046-.231.11-.708.022-.706-.093-.854,0-.17.051-.122.007-.01.156-.085.1.032.041.02.131-.024.058-.119,0-.08.056-.163.107-.136.4-.467.331-.613,0-.01-.051-.076-.165-.019-.007,0-.312.611-.146.183-.139.1-.523.282-.64.421-.555.36-.562.3-.569.248-.574.19-.565.124-.567.068-.565,0-.56-.058-.757-.182-.742-.307-.7-.421-.682-.543-.511-.528-.64-.781-.243-.2-.489-.146-.039-.01-.126-.122.015-.178.282-.65.1-.652h0l-.027-.4-.093-.4-.158-.4-.226-.4-.511-.779-1.008-1.631-.287-.618-.2-.6-.09-.394,0-.027.049-.078.09-.01.506.156.521.1,1.163.08,1.309-.093,1.555-.273.227-.022.482-.01.463-.058.443-.1.421-.153h0l.577-.309.533-.409.112-.166h0l.007-.209-.107-.251,0-.163.078-.078.143-.046h0Zm-4.682,4.813-.1.145-.01.242.08.3.159.316.213.282.235.205.221.1.174-.026.1-.145.01-.242-.08-.3-.159-.316-.213-.282-.235-.205-.221-.1-.174.026h0Zm3.946,3.081-2.339,1.514-.09.088-.051.117v.124l.046.119.015.024.236.3.28.256.314.2.338.134.348.066.346-.007.329-.08.3-.148.027-.019.258-.212.207-.265.149-.312.085-.343.017-.365-.051-.368-.119-.36-.18-.338-.015-.024-.088-.09-.117-.051-.127,0-.117.046h0Z" transform="translate(-1696.438 -474.661)" fill="#f1b699"/>
          <path id="Trazado_1012373" data-name="Trazado 1012373" d="M1781.542,523.517l.174-.026.22.1.236.205.214.282.158.316.08.3-.01.242-.1.145-.174.026-.222-.1-.236-.205-.213-.282-.159-.316-.081-.3.012-.242.1-.145Z" transform="translate(-1717.7 -501.585)" fill="#040403"/>
          <path id="Trazado_1012374" data-name="Trazado 1012374" d="M1792.628,549.575l0-.107.015.049.146-.338.088-.326.024-.312-.034-.3-.148-.394v0l-.117-.136-.158-.08-.178-.015-.17.054-.594.363-.479.37-.613.645-3.994,4.727-.949,1.039-.638.54-.321.165-.307.1-.319.046-.3-.017-.467-.153-.414-.29-.385-.441-.312-.54,0-.095.068-.068,0,0,.957-.365.915-.414.893-.472.852-.521.823-.575.779-.621.759-.684.718-.733.694-.8.655-.842.633-.908.591-.954.365-.769.246-.864.127-.959.01-1.057-.049-.124-.114-.068-.136-.029-.1.022-.049.093v.022l.056,1.015-.115.915-.182.6-.282.621-.385.667-.65.983-.209.309-.927,1.232-.91.988-1.025.927-1.168.891-1.334.869-.93.518-1,.467-1.076.416-1.149.36-1.229.312-1.329.27-1.468.236-1.76.229-1.244.09-1.115-.046-.175-.046-.156-.093-.124-.134-.08-.165-.662-2.242-.139-.864-.09-.64-.127-.465.01-.221.163-.149h0l5.778-2.071,2.127-.854,1.611-.767.333-.122.243.034.1.095.071.151.054.049.068-.024.015-.036-.3-.477-.049-.166.051-.166,1-1.531.669-1.122.443-.708.528-.667.582-.594.64-.521.645-.409.679-.316.664-.2.679-.093.182-.085.075-.187v-.063l-.058-.134-.136-.051h-.01l-.935.18-.866.324h0l-.794.47-.723.613-.124,0-.049-.041v-.017l1.156-1.653.139-.428.022-.572.027-.073.068-.029h0l.9.066.874.134.849.2.823.27h0l.813.343.786.416.76.484.733.557,1.706,1.448,1.312,1.217,6.837,6.662,1.589,1.383,2.232,1.711.752.616.1.136.058.163,0,.173-.054.163-.767,1.356-.864,1.285-.988,1.246-1.09,1.171-1.193,1.1-1.295,1.022-2.12,1.473-2.147,1.334-2.169,1.2-2.193,1.057-.562.224-.475.129-.2-.02-.158-.127-.961-1.387-.034-.146.075-.131,1-.82.837-.755.682-.689.523-.621,1.49-1.852,1.151-1.3,1.2-1.249.47-.5.414-.516.353-.536.3-.548.107-.312.027-.309-.056-.253-.141-.2-.246-.117-.353,0-.424.151-.513.312-.6.47-.772.684-.295.265-.08.015-.049-.066.015-.049.616-.978.621-1.112.492-1,.363-.9.209-.716.08-.584-.051-.445-.075-.18-.117-.146-.151-.1-.195-.071-.521-.012h-.02l-.1-.049-.032-.11.036-.718-.054-.251-.117-.217-.241-.209-.38-.141-.309.024-.4.2-.46.355-.562.536-.085.085-.146.071-.18.078h0Zm-8.089-1.759-.036-.082-2.5-.966-.082.036-.089.232.036.082,2.5.966.082-.036.089-.232h0Z" transform="translate(-1708.549 -513.929)" fill="#f3c288"/>
          <path id="Trazado_1012375" data-name="Trazado 1012375" d="M1794.348,543.815l.117-.046.126,0,.117.051.088.09.015.024.18.338.119.36.051.368-.017.365-.085.343-.148.312-.207.265-.258.212-.027.019-.3.148-.329.08-.346.007-.348-.066-.338-.134-.314-.2-.28-.256-.236-.3-.015-.024-.049-.134.012-.139h0l.132-.175,2.339-1.514h0Zm-2.015,2.013.173.122.256.093.917.153.312.041.027,0,.219-.024.192-.11.131-.175.054-.214.051-1.29-.024-.124-.08-.1-.117-.049-.124.01h0l-.083.046-1.9,1.538,0,.078h0Z" transform="translate(-1726.561 -518.802)" fill="#040403"/>
          <path id="Trazado_1012376" data-name="Trazado 1012376" d="M1794.96,548.005h0l.006-.078,1.9-1.538.083-.046.124-.01.118.049.08.1.024.124-.051,1.29-.053.214-.131.175-.193.11-.219.024h0l-.027,0-.311-.041-.918-.153-.255-.093-.174-.122Z" transform="translate(-1729.188 -520.979)" fill="#dfddd8"/>
          <path id="Trazado_1012377" data-name="Trazado 1012377" d="M1828.851,576.26l.047.231-.134.472-.232.4h0l-.417.38-.563.265-.089-.015-.042-.083,0-.031,1.045-2.95.062-.051.072.027.017.036.231,1.322Z" transform="translate(-1756.748 -545.212)" fill="#f1c1a2"/>
          <path id="Trazado_1012378" data-name="Trazado 1012378" d="M1511.806,617.019l-.149.063-.145-.066-.008-.01-.954-1.054-1.04-.922-.963-.721-1.47-1.11-.977-.862-1.021-1.064-.8-.969-.629-.942-.5-.969-.309-.8-.243-.866-.223-1.2-.118-1.168v-1.149l.109-1.085.222-1.025.326-.94.445-.891.54-.8.211-.256.655-.638.889-.684,1.005-.643.948-.494,1.235-.6,1.82-.957.8-.494.758-.6.72-.718.679-.828.453-.774.53-1.283.151-.39.068-.068.1.007h0l.01,0,.211.151.512.482.429.6.371.747.346.959.036.212.038.326.16.095.168-.08h0l.032-.071.624-2.665.115-.163.195-.041.749.17.69.248.624.324.561.4h0l.448.424.4.487.349.545.3.608.313.964.077.482.03.484h0l-.051.73-.168.733-.163.394-.237.363-.311.353-.4.353-1.025.672-1.534.757-.334.153-.957.409-.968.338-.978.268-.993.195h0l-1.582.165-.118.066-.02.131h0l.018.034,1.26,2.079.448.876.359.837.281.818.2.791.121.806.044.784v.178l-.026.1-.074.078-.1.039-.1-.014-.068-.039-.916-.706-.8-.431-.362-.122-.367-.068-.337,0-.337.061-.172.058-.409.217-.326.287h0l-.195.268-.146.312-.151.55-.051.543.044.555.134.528.231.521.317.475.389.421.454.353.492.268.536.19.737.112.11.049.047.112.057,2.188-.02.173-.068.158-.109.134-.143.095-.767.409-.635.436-.015.012-.637.667Z" transform="translate(-1480.671 -557.993)" fill="#78534b"/>
          <path id="Trazado_1012379" data-name="Trazado 1012379" d="M1847.32,597.194l-.082.036-2.5-.966-.036-.082.089-.232.081-.036,2.5.966.036.082-.089.232Z" transform="translate(-1771.42 -563.076)" fill="#040403"/>
          <path id="Trazado_1012380" data-name="Trazado 1012380" d="M1791.133,606.826l-.015-.049.006.107-3.135,4.958-.018.122.082.09h0l.02.007.088.027.2-.01.156-.126,1.324-2.072,1.4-2.089.4-.531.439-.465.477-.4.515-.333.172-.051.178.027.148.1.091.156.017.085-.021.66-.074.29-.116.261-1.629,2.768-1.974,3.079-.017.034.023.112.1.051H1790l.275-.068.211-.19,1.664-2.553,1.586-2.639.175-.224.249-.175.314-.107.06-.007.143.029.116.085.071.129.011.146-.134.667-.192.662-.249.65-.307.645-.35.674-1.116,2.057-.438.687-.448.608-.148.183-.059.192.015.127.077.117.139,0,.042-.032,1.161-1.117,1.531-1.339.667-.482.593-.273.195.024.113.161v.024l-.017.2-.075.236-.337.6-.562.76-.679.759-1.811,1.916-.785.93-.711.91-.632.786-.723.786-.719.689-.611.489-1.375,1.005-.939.842-.385.433-.311.421-.257.431-.2.458-4.367,11.148-1.054,2.519-1.18,2.568-1.3,2.612-1.429,2.66-.014.017-.086-.029-.4-1.224-.462-1.186-.528-1.149-.595-1.112h0l-.722-1.171-.8-1.129-.881-1.083-.956-1.037-1.128-1.12-.057-.107.03-.119,5.165-7.159,2.7-3.8,2.86-4.272.287-.562.14-.577-.012-.628-.3-1.607-.282-1.1-.35-1.112-1.023-2.643-.006-.019-.02-.144.039-.139.089-.112.13-.068,1.508-.436.13-.01.121.039.1.083.059.114v0l.1.214.175.248.6.6.486.331.521.153.477-.022.513-.175.548-.339.59-.506,1.023-1.1,2.062-2.325,1.165-1.392.042-.056.629-.815.51-.543.489-.377.494-.226.139-.012.131.046.1.1.051.129,0,.042.044.983Z" transform="translate(-1707.045 -572.109)" fill="#f1b699"/>
          <path id="Trazado_1012381" data-name="Trazado 1012381" d="M1730.3,626.59l-.17-.019-.039.085-.024-.285.034-.282.1-.316.441-.75.2-.3.027-.093-.09-.146-.173.007-.231.18-.19.212h0l-.168.285-.112.326-.058.365,0,.409-.044.1-.11.024-.034-.015-.017-.012h0l-.088-.114-.041-.175.058-.536-.024-.08-.08-.022h0l-.036.022-.4.389-.151-.007.27-.913.414-.825h0l.36-.5.428-.465.056-.124-.046-.129-.061-.044-.078-.024-.075.027-1.49,1.21-.173.032-.119-.129h0l0-.075.09-.389.141-.368h0l.209-.37.268-.341.326-.316.385-.287.584-.338.587-.248.591-.158.594-.068h0l.54.02.543.092.548.166.548.241.1.129.891,3.612-.02.117-.095.066-.01,0-2.651.375-.26.085-.219.165-.45.613-.131.3-.073.3-.051.122-.1.078-.131.017-.119-.051-.08-.1-.078-.234h0l-.08-.6.076-.64-.029-.083-.085-.012h0l-.039.039-.38.776h0Zm1.585-.927-.155.046-.254.223-.2.269-.034.158.155-.046.254-.223.2-.269.034-.158h0Z" transform="translate(-1672.644 -585.131)" fill="#f1b699"/>
          <path id="Trazado_1012382" data-name="Trazado 1012382" d="M1729.355,641.014l-.008,0-.008,0-.012-.007h0l-.068-.122.014-.2.09-.251.154-.265.044-.061.195-.236.207-.17.184-.08.139.022.011.007v.015l-.943,1.351Z" transform="translate(-1673.405 -600.984)" fill="#f1b699"/>
          <path id="Trazado_1012383" data-name="Trazado 1012383" d="M1733.868,646.277l-.207.158-.187-.007-.217-.117-.14-.124h0l-.2-.314-.1-.4.4-.389.036-.022.08.022.024.08-.057.536.041.175.088.114h0l.017.012.035.015.11-.024.044-.1,0-.409.059-.365.112-.326.167-.285h0l.19-.212.231-.18.173-.007.089.146h0l-.026.093-.2.3-.439.75-.106.317-.033.282.024.285Z" transform="translate(-1676.419 -604.807)" fill="#040403"/>
          <path id="Trazado_1012384" data-name="Trazado 1012384" d="M1572.443,671.359l-.4.032-.363-.061-3.371-.971-3.354-.691-3.722-.694-.161-.1-.049-.183.041-.606-.017-.56-.073-.519-.131-.472v0l.007-.109.085-.071.389-.212.424-.411.312-.263.467-.26.6-.363.183-.168.146-.2.127-.358.024-.411-.078-1.142-.1-.63.012-.129.095-.085.341-.178.214-.222.007-.119-.093-.071-.051,0-.577.117-.543.032-.511-.051-.475-.139-.535-.282-.484-.409-.292-.35-.238-.389-.18-.419-.117-.436-.049-.438.024-.436.09-.4.161-.372.153-.229.185-.187h0l.36-.221.441-.122.3-.02.307.034.662.224.73.441.757.628.2.1.068.012.185,0,.168-.08.122-.136.058-.175,0-.027.01-.65-.054-.73-.115-.713-.18-.716-.251-.752-.319-.769-.392-.811-1.112-1.942-.007-.083.058-.058h0l.019,0,1.022-.156,1-.212.981-.268.959-.324h0l1.1-.45,1.069-.526,1.042-.6,1.012-.682,0,0,.122-.024.1.068.684,1.081.611,1.073.54,1.064.467,1.059.441.976.445.777.487.623.54.5.134.1.477.333.713.523.355.394.036.134-.027.158-.088.163-.139.146-1.146.82-.1.122-.015.158.377,1.865.3,1.774.219,1.684.144,1.594-.032.574-.19.5-.338.385-.5.3-.672.221-.869.149-2.208.217-.867.024-.793-.029-.75-.083-.691-.136-.657-.195-.645-.263-.058-.027-.041-.012-.1.041-.027.112.027.1.151.221,1.008.66,1.017.594,1.025.531,1.032.465.153.1.1.158.979,2.492,0,.085-.066.054-.01,0h0Zm-2.728-20.97-.438.392-.363.477-.163.411-.007.168.044.151.041.063.039.037.173.027.129-.124.168-.38.195-.324.224-.265.248-.209.285-.156.329-.11.372-.066.414-.017.166-.076.039-.17-.022-.049-.044-.063-.127-.095-.158-.056-.44,0-.577.163-.526.265h0Zm1.685,2.208-.162.144-.083.286.008.385.1.425.173.4.222.314.237.181.215.02.161-.144.083-.286-.008-.385-.1-.425-.173-.4-.222-.314-.237-.181-.215-.02h0Zm3.641,6.949-.19-.056-1.008-.022-1.032-.085-1.054-.144-1.078-.2-.054-.007-.168.022-.144.093-.092.141-.027.168.124.565.309.575.467.523.574.426.626.292.647.144.609-.032.513-.195.29-.219.255-.295.333-.579.2-.609.041-.226-.029-.163-.119-.112h0Z" transform="translate(-1529.662 -607.319)" fill="#f1b699"/>
          <path id="Trazado_1012385" data-name="Trazado 1012385" d="M1765.355,669.336l1.673-2.227,3.374-4.423,2.782-3.744.41-.606.338-.594.3-.643.269-.716.045-.348-.084-.338-1-1.833-.341-.7-.275-.762-.214-.818-.151-.874.036-.144.124-.08,1.884-.368h.008l.071.022.032.068,1.075,2.685.278.777.249.879.414,2.076.052.6-.056.472-.2.492-.426.677-.231.346-2.965,4.355-4.172,5.842-1.414,1.959-.015.017-.089.027-.079-.051-.62-.852-.724-.728h0l-.317-.256-.054-.085.015-.1Z" transform="translate(-1704.039 -610.022)" fill="#f1b699"/>
          <path id="Trazado_1012386" data-name="Trazado 1012386" d="M1748.066,651.941l-.035.158-.2.269-.255.223-.154.046.033-.158.2-.269.254-.223.155-.046Z" transform="translate(-1688.824 -611.481)" fill="#040403"/>
          <path id="Trazado_1012387" data-name="Trazado 1012387" d="M1939.2,668.5l.078,0,.1-.044.032-.1,0-.022-.2-.594.02-.183.148-.1h0l.032,0,1.387-.063,1.307-.127,1.227-.19,1.144-.251,1.821-.441.949-.241.818-.292.188-.044.192.022.173.088.132.141.6,1.017.509,1.086.375,1.059.236,1.02.088.925-.049.852-.195.784-.333.682-.112.129-.146.088-.784.309-1.377.567-3.181,1.409-3.334,1.28-1.219.368-1.429.309-1.373.2-1.136.056-.923-.083-.886-.221-.643-.265-.643-.358-.6-.433-.6-.533-.582-.618-.591-.728L1929,672.9l-1.714-2.7-1.7-2.9-.616-.983-.718-.964-.475-.428-.326-.268-.214-.248-.1-.054-.1.061-.015.054.024.3.1.4.068.095.112.039.268.029.241.085h0l.268.187.226.277,3.863,6.463.745,1.188.781,1.108.823,1.025.862.947.562.523.594.441.621.36.65.275h0l.545.163.562.11.582.056.6,0,.833-.019.148.073,3.588,4.425.08.188-.034.2-.64,1.154-.733,1.017-.828.886-.922.752h0l-.085.061-.906.545-.754.282-.26.024-.275-.034-.618-.236-.686-.467-.548-.562-.606-.9-.382-.426-6.083-5.1-.976-.94-1-1.159-.343-.48-.341-.579-.677-1.47-.65-1.687-.572-1.643-.5-1.6-.421-1.563-1.044-4.007.01-.166L1920,665l1.857-.991,1.83-1.069,1.806-1.144,1.781-1.219,1.531-1.193,1.38-1.293,1.229-1.39,1.081-1.487h0l.385-.616.11-.085.119.007.093.078.445.784h0l.482.957.431.986.38,1.013.329,1.039,1.6,5.445.236.606.3.562h0l.591.786.748.691.119.17.258.8.085.063h0Zm-1.763-1.107-.01-.136-.1-.089-.009,0-.136.01-.089.1-1.532,4.58.01.136.1.089.009,0,.135-.01.089-.1,1.532-4.58Zm8.415.519-.051.057-.028.145.025.456.115.442.072.13.066.039.052-.057.028-.145-.025-.456-.115-.442-.072-.13-.066-.039Zm1.229.292-.081-.045-.108.031-.045.081.934,3.237.081.045.108-.031.045-.081-.934-3.237h0Zm-8.882,2.007-.039-.1-.1-.047h-.01l-.1.039-.047.1-.064,1.605.039.1.1.047h.01l.1-.039.047-.1.064-1.605Zm-2.249,13.734-.3.214h0l-.625.387-.657.341-.1.1,0,.049,0,.019.085.093.129,0,.859-.441.791-.519.73-.6.674-.689.041-.122-.063-.107-.017-.012-.046-.01-.124.068-.521.526-.555.482-.294.226h0Z" transform="translate(-1835.247 -613.841)" fill="#697a93"/>
          <path id="Trazado_1012388" data-name="Trazado 1012388" d="M1790.82,662.686l.142-.263.119,0,.143-.08,1.4-1.1,1.058-.959.074-.024.063.044.008.022.252.866.352.91.447.954.545,1,.2.421.075.37-.066.506-.282.74-.041.095-.068.09-.106.049-2.171.411-.2-.046-.1-.178v-.019l-.066-.674-.136-.655h0l-.373-1.02-.554-.971-.278-.3-.314-.158h0l-.122-.022Z" transform="translate(-1725.673 -618.595)" fill="#f3c288"/>
          <path id="Trazado_1012389" data-name="Trazado 1012389" d="M1619.4,667.857l-.249.209-.223.265-.195.324-.169.38-.128.124-.172-.027-.039-.037-.042-.063-.044-.151.008-.168.163-.411.364-.477.438-.392.525-.265.577-.163.441,0,.158.056.127.095.044.063.021.049-.039.17-.165.075-.414.017-.373.066-.329.11-.284.156Z" transform="translate(-1579.059 -624.32)" fill="#040403"/>
          <path id="Trazado_1012390" data-name="Trazado 1012390" d="M1746.787,679.35l-.119.015,0-.029.122-.076.007-.007.034-.095-.046-.088-.075-.044h0l-.168-.017-.2.071-.428.2-.29.085-.054,0-.08-.088.032-.114.628-.518.689-.336h0l.4-.1.419-.051.075-.034.029-.076v-.075h0l-.049-.112-.112-.046-.679.075-.46.136-.443.2-.448.351-.438.355-.029-.178.419-.453,0-.095-.083-.046-.054.019-.348.212-.1,0-.087-.046-.049-.085,0-.1.056-.088.458-.331.523-.265.594-.2.66-.139.154-.058.117-.112.066-.095.015-.029-.022-.088-.083-.034-.689.1-.635.161-.582.224-.531.29-.107,0-.051-.093.02-.058.365-.426.389-.336.5-.307.6-.238.725-.19,1.069-.2.487-.085.282,0,2.685.577.117.049.088.09.329.557.273.567.214.582.158.594h0l.119.767-.039.219-.151.168-.621.314-.738.219-.8.114-.864.007h-.874l-1.129.076-.093-.017-.073-.061-.029-.088.017-.093.066-.073.217-.17.158-.2h0l.127-.368,0-.438-.044-.085-.085-.037-.443.017-.4.11-.3.163-.277.226h0Zm.922-2.6.08.219.144.178.192.131.63.219.178.071.151.114,1.217,1.183.168.073.173-.058.056-.044.027-.027.034-.148-.093-.124-.611-.433-.562-.63-.051-.061-.236-.156-.375-.1-.348-.09-.224-.131-.406-.333-.022,0-.1.049-.024.1h0Z" transform="translate(-1686.561 -631.628)" fill="#f1c1a2"/>
          <path id="Trazado_1012391" data-name="Trazado 1012391" d="M1764.473,682.418l.406.333.223.131.349.09.375.1.237.156.051.061.562.63.611.433.092.124-.033.149h0l-.027.027-.056.044-.174.058-.168-.073-1.217-1.183-.151-.114-.178-.071-.631-.219-.192-.131-.143-.178-.08-.219.024-.1.1-.049.023,0Z" transform="translate(-1703.182 -637.457)" fill="#040403"/>
          <path id="Trazado_1012392" data-name="Trazado 1012392" d="M1634.365,684.5l.216.02.237.181.222.315.172.4.1.425.009.385-.083.286-.161.144-.216-.02-.237-.181-.222-.315-.172-.4-.1-.425-.009-.385.083-.286.161-.144Z" transform="translate(-1592.626 -639.233)" fill="#040403"/>
          <path id="Trazado_1012393" data-name="Trazado 1012393" d="M1748.18,691.959l-.521.292-.257.063-.248.007h0l-.235-.046-.234-.1-.146-.18-.009-.231.112-.212.438-.355.448-.351.442-.2.46-.136.679-.076.112.046.048.112h0v.076l-.029.075-.075.034-.418.051-.4.1h0l-.688.336-.628.518-.032.114.08.088.054.005.288-.085.429-.2.2-.071.167.017.075.044.047.088-.035.095h0l-.006.007-.122.076Z" transform="translate(-1688.068 -644.284)" fill="#040403"/>
          <path id="Trazado_1012394" data-name="Trazado 1012394" d="M1760.359,699.78l.023.106-.059.156-.315.364-.411.254-.163.033-.1-.039-.023-.105.059-.156.315-.364.411-.254.163-.033.1.039Z" transform="translate(-1698.919 -652.213)" fill="#f1c1a2"/>
          <path id="Trazado_1012395" data-name="Trazado 1012395" d="M2117.449,726.162l2.62-1.516.506-.183.5-.024.439.124.447.278.454.441.487.626,1.1,1.645,1.037,1.755.975,1.86.913,1.969.035.083.087.5-.071.557-.105.309-.136.251-.175.2-.2.141-.384.1-.418-.039-.469-.18-.462-.295-.519-.4-1.542-1.159-1.156-.716-.572-.277-.548-.209-.55-.156-.572-.1-.374-.037h0l-.11-.056-.036-.119.012-.144-.008-1.149-.2-1.183-.389-1.263-.64-1.536.029-.1Z" transform="translate(-2002.973 -673.314)" fill="#f3c288"/>
          <path id="Trazado_1012396" data-name="Trazado 1012396" d="M1632.6,727.618l.119.112.029.163-.041.226h0l-.2.608-.333.579-.255.295-.29.219-.514.195-.608.032-.647-.144-.625-.292-.574-.426-.467-.523-.309-.574-.124-.565.027-.168.093-.141.143-.093.168-.022.054.007,1.078.2,1.054.144,1.032.085,1.008.022.19.056h0Zm-.525.348-.966.046-.954-.054-.83-.124-.823-.2-.153.032-.063.144.015.058.236.409.316.389.377.348.426.285.4.185.409.1.377.007.36-.088.248-.129.229-.187.195-.234.175-.29.212-.516v-.015l-.056-.124-.131-.044h0Z" transform="translate(-1587.225 -675.536)" fill="#040403"/>
          <path id="Trazado_1012397" data-name="Trazado 1012397" d="M1635.248,731.147l-.213.516-.175.29-.195.234-.228.187-.249.129-.359.088-.377-.007-.409-.1-.4-.185-.426-.285-.377-.348-.317-.389-.237-.409-.014-.058.063-.144.152-.032.823.2.83.124h0l.954.054.968-.046.13.044.057.124v.015Z" transform="translate(-1590.207 -678.54)" fill="#fff"/>
          <path id="Trazado_1012398" data-name="Trazado 1012398" d="M2024.147,743.121l-.089.1-.136.01-.009,0-.1-.089-.011-.136,1.532-4.58.091-.1.134-.01.011,0,.1.089.009.136-1.532,4.58Z" transform="translate(-1923.485 -685.103)" fill="#040403"/>
          <path id="Trazado_1012399" data-name="Trazado 1012399" d="M2091.55,743.26l.067.039.071.13.115.442.026.456-.029.146-.051.057-.066-.039-.071-.13-.115-.442-.026-.456.029-.145.051-.058Z" transform="translate(-1980.94 -689.298)" fill="#040403"/>
          <path id="Trazado_1012400" data-name="Trazado 1012400" d="M2099.758,748.181l-.045.081-.107.031-.082-.045-.934-3.237.045-.081.107-.031.081.045.934,3.237Z" transform="translate(-1986.985 -690.707)" fill="#040403"/>
          <path id="Trazado_1012401" data-name="Trazado 1012401" d="M2039.18,759.241l-.047.1-.1.038h-.011l-.1-.047-.038-.1.063-1.605.047-.1.106-.039h.009l.1.047.038.1-.065,1.605Z" transform="translate(-1936.289 -701.422)" fill="#040403"/>
          <path id="Trazado_1012402" data-name="Trazado 1012402" d="M1656.107,784.1l-.122.19-.119.1-.221.063-.231.056-.127.063-.231.112-.29.073-.745.029-.465,0-1.108,0-2.75-.158-2.726-.1-2.7-.054-2.677,0-.277-.083-.18-.224-.735-1.877-.007-.027.032-.139.129-.068,5.963-.229,9.463-.239.28.044.282.144h0l.124.054.134,0,.127-.051.1-.095.141-.212.414-.589.338-.375.343-.241.331-.088.207.015.221.068.431.29.63.64.625.8.058.188-.066.188-1.207,1.6-.127.078-.146-.032-.122-.083-.54-.353-.424-.2-.368-.073-.285.058-.156.112-.131.175-.494.937-.144.146-.178.037-.168-.061-.115-.141-.022-.178.046-.295-.015-.012,0,0h0Zm.374-2.2-.119.161-.049.166.01.122.012.034.095.083.19.039.032,0,.049-.056-.017-.073-.063-.093-.046-.151.007-.175,0-.029-.041-.039-.056.017h0Z" transform="translate(-1597.954 -720.784)" fill="#83b9bc"/>
          <path id="Trazado_1012403" data-name="Trazado 1012403" d="M1746.117,791.508l-.008.175.047.151h0l.063.093.017.073-.048.056h0l-.032,0-.19-.039-.1-.083-.012-.034-.009-.122.048-.165.119-.161.056-.017.042.039,0,.029Z" transform="translate(-1687.491 -730.349)" fill="#040403"/>
          <path id="Trazado_1012404" data-name="Trazado 1012404" d="M1498.8,814.006l.134.024.112.073.076.11.027.131v.012l-.1,3.145-.041,2.984.015,2.821.075,2.66.282,4.523.587,6.268.227,2.283.039.942-.027,1.356L1499.86,847l-.066.2-.158.144-1.178.555-1.475.6-2.234.8-2.307.735-2.378.667-2.448.6-2.8.555-1.232.168-1.207.107-.988.044-2.159,0-2.2-.095-2.234-.2-2.271-.295-2.088-.419-1.278-.275-.888-.139-.175-.071-.114-.153-.156-.472-.088-.46-.017-.443.049-.428.085-.4.158-.969L1468,847l-.08-.314-.095-.207-.219-.545-.1-.635,0-.759.107-1.017.032-.241.246-1.787.255-1.451.767-3.912.764-4.153,1.514-9.028.6-3.646.635-3.522.664-3.4.7-3.272.552-2.256.662-2.264.767-2.266.874-2.273.492-1.107.55-1.064.609-1.017.672-.976h0l.9-1.137,1-1.071.27-.219.224-.08.185.01.251.08.363.112,4.369.881,2.653.5,1.648.363.672.234.684.351.229.073,1.085.049,1.463,0h1.9l9.468.3.76-.012,1.017-.083.239-.051.221-.1.329-.19.115-.027.109.044.182.166.161.114.192.036.19-.049.153-.122.039-.058.358-.538.365-.348.319-.18.119-.022.141.027.348.207,1.468,1.241,1.363,1.373,1.219,1.47,1.086,1.568.922,1.633.742,1.658.572,1.714.38,1.706-.015.173-.092.148-1.482,1.412-.845.689-.879.606-.915.523-.947.438h0l-.579.219-2.091.645-1.044.258-1.083.161-3.636.448-2.444.234-3.422.131-1.687.049-1.738.034-1.969-.019-5.046-.217-1.39-.073-.127.041-.068.114,0,.017.034.131.114.066h.01l3.1.165,2.818.1,2.534.036,2.256-.027h0Zm-6.811-18.012,0,0,0-.015-.024-.039h0l-1.4.027-1.344.1-1.28.173-1.219.244-.613.17-.586.212-.558.255-.533.3h0l-.555.382-.523.438-.053.114.041.122h0l.012.012,0,0,.134.054.136-.054.638-.513.686-.428h0l.842-.387.905-.275,2.419-.47,2.845-.385.024-.039h0Zm16.6,5.294.141,1.361-.012,1.349-.08.789.039.221.088.068.119.01.073-.036.034-.076.107-1,.039-.959-.034-.918-.1-.876-.178-.864-.256-.881-.338-.9-.414-.915-.058-.058-.08-.015-.109.049-.063.093.034.222.324.723h0l.438,1.276.292,1.336h0Zm4.442.706.694,1.621h0l.358,1.086.282,1.11.08.068.119-.027.095-.178-.041-.567-.236-.847-.436-1.144-.584-1.285-.66-1.239-.635-1.039-.533-.711-.428-.38-.2-.034-.095.078,0,.1.708.9.642.944.862,1.538h0Zm-38.86,32.88.124.066.139-.029,1.682-1.09,1.553-1.183,1.132-.966,1.1-1,1.069-1.042,1.037-1.081,1.008-1.12.974-1.159,1.855-2.432,1.271-1.928,1.141-2.04,1.013-2.154.883-2.264,0-.01-.019-.19-.153-.119-.015,0h0l-.192.029-.112.156-.414,1.409-.582,1.426-.879,1.765-1,1.765-1.11,1.728-1.2,1.675-1.317,1.655-1.395,1.587-1.487,1.534-1.55,1.456-1.015.862-1.093.847-1.176.83-1.253.815-.061.093.027.1.007.01,0,0h0Zm8.461-2.4-.974,1.241-1.052,1.249-1.129,1.258-1.2,1.266-.044.139.083.112h0l.049.015h.012l.109-.027.11-.085,2.354-2.536,1.034-1.224.94-1.19.893-1.227.9-1.326,1.808-2.95.051-.129,0-.112,0-.012-.027-.044-.131-.049-.122.078-.893,1.5-.908,1.426-.918,1.348-.932,1.275h0Zm10.707,7.38-1.02,1.884-.718,1.2-.759,1.171-.806,1.146-.847,1.122-.027.046.017.185.163.1.09-.007.09-.071,1.151-1.558,1.078-1.619,1.005-1.68.932-1.74.849-1.782.757-1.806.662-1.828.572-1.85,0-.114-.046-.078-.18-.068-.158.093-.022.051-.4,1.348-.445,1.327-.492,1.307-.536,1.288h0l-.913,1.935h0Z" transform="translate(-1451.156 -732.524)" fill="#78bdb8"/>
          <path id="Trazado_1012405" data-name="Trazado 1012405" d="M1580.833,810.435l-2.845.385-2.42.47-.906.275-.842.387h0l-.685.428-.639.513-.136.054-.134-.054,0,0-.051-.1.051-.151.524-.438.554-.382h0l.534-.3.557-.256.586-.212.615-.17,1.22-.244,1.28-.173,1.343-.1,1.4-.027h0l.024.039v.014l0,0-.024.039Z" transform="translate(-1540.028 -746.467)" fill="#040403"/>
          <path id="Trazado_1012406" data-name="Trazado 1012406" d="M1733.966,824.921l.106.876.033.918-.039.959-.107,1-.033.076-.074.036-.119-.01-.087-.068-.038-.221.08-.789.012-1.348-.142-1.361-.291-1.336-.438-1.275h0l-.325-.723-.033-.222.063-.093.109-.049.08.015.059.058.414.915.338.9.255.881.178.864Z" transform="translate(-1676.131 -755.832)" fill="#040403"/>
          <path id="Trazado_1012407" data-name="Trazado 1012407" d="M1756.958,830.239l.583,1.278.435,1.139.239.854.042.572-.1.178-.119.027-.08-.068-.282-1.11-.358-1.085-.694-1.621-.862-1.539h0l-.641-.944-.709-.9,0-.1.1-.078.2.034.423.377.531.7.64,1.042.661,1.246Z" transform="translate(-1694.759 -760.559)" fill="#040403"/>
          <path id="Trazado_1012408" data-name="Trazado 1012408" d="M2016.882,842.151l.294-.226.556-.482.521-.526.124-.068.047.01.017.012.063.107-.042.122-.673.689-.731.6-.791.518-.859.441-.13,0-.084-.093,0-.019,0-.049.1-.1.657-.341.625-.387h0l.3-.214Z" transform="translate(-1916.174 -772.464)" fill="#040403"/>
          <path id="Trazado_1012409" data-name="Trazado 1012409" d="M2026.99,858.725l.936-.477.859-.577.635-.535.584-.6.537-.665.488-.728.08-.056.092.019.008,0,2.263,1.879.427.482.236.531h0l.051.343-.017.36-.086.38-.153.4-.77,1.594-.774,1.487-.781,1.373-.786,1.266-.958,1.344-.924,1.027-.4.292-.451.158-.454.007-.418-.151-.3-.268-.222-.4-.054-.234-.012-.287.107-.73.646-2.9.1-.961-.044-1.015-.183-1.066-.326-1.12,0-.1.069-.071Z" transform="translate(-1925.879 -784.68)" fill="#f3c288"/>
          <path id="Trazado_1012410" data-name="Trazado 1012410" d="M1511.439,957.2h0l-.008-.01-.027-.1.06-.092,1.254-.817,1.176-.829,1.093-.848,1.014-.86,1.55-1.457,1.487-1.534,1.395-1.586,1.316-1.656,1.2-1.674,1.109-1.728,1-1.765.879-1.765.581-1.426.414-1.409.113-.156.192-.029h0l.014,0,.154.119.02.19,0,.01-.883,2.264-1.013,2.154-1.141,2.04-1.271,1.928-1.855,2.431-.974,1.159-1.007,1.12-1.037,1.081L1517.171,953l-1.1,1-1.132.966-1.553,1.183-1.682,1.091-.139.029-.124-.067Z" transform="translate(-1488.431 -854.953)" fill="#040403"/>
          <path id="Trazado_1012411" data-name="Trazado 1012411" d="M1543.23,1020.938l-.939,1.191-1.036,1.224-2.353,2.536-.11.086-.109.027h-.012l-.05-.015-.082-.112.044-.139,1.2-1.266,1.129-1.257,1.052-1.25.974-1.241.931-1.276.918-1.348.907-1.426.894-1.505.122-.077.131.048.027.044v.012l.006.112-.051.13-1.808,2.95-.9,1.327-.894,1.226Z" transform="translate(-1511.474 -921.028)" fill="#040403"/>
          <path id="Trazado_1012412" data-name="Trazado 1012412" d="M1615.5,1060.136l-.933,1.74-1.005,1.68-1.078,1.618-1.152,1.558-.089.071-.091.008-.163-.1-.017-.186.027-.045.847-1.123.8-1.146.761-1.171.717-1.2h0l1.021-1.884.912-1.935.536-1.288.492-1.307.445-1.327.4-1.348.021-.051.158-.092.181.068.045.078v.113l-.572,1.851-.663,1.828-.756,1.807-.85,1.781Z" transform="translate(-1572.971 -953.044)" fill="#040403"/>
          <path id="Trazado_1012413" data-name="Trazado 1012413" d="M1518.949,1220.535l-.074.057-.178-.02-.057-.072,1.955-17.161.072-.059.18.021.057.073-1.955,17.161Z" transform="translate(-1494.578 -1081.511)" fill="#040403"/>
          <path id="Trazado_1012414" data-name="Trazado 1012414" d="M1671.188,1342.342l0,0-.088.006-.095-.075-.091-.1-.012-.071h0l3.1-3.923.073,0,.115.065.1.076.009.09-3.1,3.931Z" transform="translate(-1623.855 -1196.282)" fill="#040403"/>
          <path id="Trazado_1012415" data-name="Trazado 1012415" d="M1644.421,1342.037l-.014.115-.089.073-.013,0-.115-.012-.073-.091-.788-2.675.012-.116.089-.072.015,0,.115.012.073.089.788,2.676Z" transform="translate(-1600.446 -1197.184)" fill="#040403"/>
          <path id="Trazado_1012416" data-name="Trazado 1012416" d="M1495.294,1363.276l-.193-.1-.2-.207-.62-.921h0l.03-.112.057-.032h0l.042.018.37.646.557.614.015.048-.032.036-.027,0Z" transform="translate(-1473.895 -1216.461)" fill="#040403"/>
          <path id="Trazado_1012417" data-name="Trazado 1012417" d="M1500.37,1369.681l.807-3.3.074-.068.071-.011h.024l.128.056.041.134-.069.6.024.133.29.454.323.4.361.343.394.282h0l.086.051.118.1.079.137.017.386-.044.063h-.075l-.021-.017-1.59-1.663-.029-.024-.125-.009-.081.092-.552,1.916-.018.015-.163.012h-.009l-.059-.08Z" transform="translate(-1479.066 -1220.234)" fill="#040403"/>
          <path id="Trazado_1012418" data-name="Trazado 1012418" d="M1486.751,1388.382l.012.1-.065.081-.009,0-.1.012-.081-.066-2.482-4.5-.012-.1.065-.082.009,0,.1-.012.081.065,2.482,4.5Z" transform="translate(-1465.175 -1235.184)" fill="#040403"/>
          <path id="Trazado_1012419" data-name="Trazado 1012419" d="M1490.625,1409.58l.018.154-.092.32-.146.3-.116.1-.018-.156.091-.32.146-.3.118-.1Z" transform="translate(-1470.49 -1257.073)" fill="#040403"/>
          <path id="Trazado_1012420" data-name="Trazado 1012420" d="M1407.226,1445.638l-.063,0-.133-.094v-.161l2.5-4.735,2.329-4.764,1.881-3.879.814-1.636,1.407-2.981,1.816-4.065.664-1.506.131-.136.187-.014.015.006.012,0,.115.109,0,.159-1.435,3.048-1.4,2.953-2.719,5.822-1.666,3.36-1.327,2.572-1.431,2.945-.7,1.369-.9,1.532-.086.089Z" transform="translate(-1399.815 -1268.208)" fill="#040403"/>
          <path id="Trazado_1012421" data-name="Trazado 1012421" d="M1385.293,1597.535l-1.721.128-1.4.048-.453-.021-.429-.074-.4-.121-.377-.171-.37-.231-.338-.281-.305-.323-.267-.37-1.519-2.622-.874-1.553-.672-1.1-.66-.972-.672-.862-1.331-1.657-.788-1.165-.035-.143.051-.137.983-1.3.106-.015,2.255,1.518,2.3,1.363,2.353,1.206,2.4,1.046.1.08.036.124.044.933.151,1.017.26,1.122.433,1.52.424,1.491.012.512-.008.145.023.1.065.083.667.5.039.084-.048.082h0l-.039.012Z" transform="translate(-1370.651 -1406.535)" fill="#dfddd8"/>
          <path id="Trazado_1012422" data-name="Trazado 1012422" d="M1362.807,1596.881l.136.235.217.358.633.779,1.1,1.363.72.977.267.392,1.168,1.9,1.395,2.544.531.918.534.723.571.562.62.426.16.083.648.226.786.112.939.008,1.346-.1.21-.02.411-.012.388.036.362.088.338.137.151.08.962.625.66.592.24.3.2.322.133.316.078.338,0,.012-.006.178-.065.166-.115.136-.155.091-.583.14-.681.027-3.238-.2-2.589-.307-.527-.116-.5-.178h0l-.513-.267-.48-.341-.448-.417-.417-.489-3.268-4.263-2.969-3.777-.45-.684-.293-.728-.1-.471.012-.319.19-.617.278-.624.365-.631.45-.635.092-.048.1.036.012.015Z" transform="translate(-1360.997 -1416.927)" fill="#83b9bc"/>
        </g>
        <path id="Trazado_1012423" data-name="Trazado 1012423" d="M1534.02,1383.21v.26a.013.013,0,0,1,0,0c-.068.158-2.232,5.259-2.977,6.749-.757,1.514-6.093,11.249-6.093,11.249l-.141-.612.027-.053.035-.064.073-.138c.048-.091.108-.2.179-.335.182-.343.434-.815.724-1.354.021-.042.044-.083.067-.126l.13-.241c.048-.093.1-.187.152-.284l.218-.407c.727-1.346,1.552-2.855,2.141-3.878,1.3-2.253,5.092-10.44,5.092-10.44l.262-.238.112-.093Z" transform="translate(-1499.814 -1236.677)" fill="#040403"/>
        <path id="Trazado_1012424" data-name="Trazado 1012424" d="M1429.361,1216.972l-.013-.009-.284-1.827-.791-5.861-.944-6.887-1.064-7.752-.765-5.5-.85-5.345-.713-3.722-.833-3.484-.888-3.39-.718-2.933-1.112-4.056-1.273-4.667-.522-1.871-.633-2-.146-.167-.224-.012h0l-2.624.941-3.4,1.138-2.218.68-1.918.492-2.514.523-1.716.255-1.426.108-1.482.059-3.132-.026-.169.059-.08.161-.144,1.692-.081.068-.073-.008-.1-.053-.036-.111.146-1.728-.032-.1-.093-.046h0l-1.281-.056-1.384-.144-1.514-.223-1.965-.357-.038-.006-.132.031-.065.117v.015l-.056,4.21-.189,5.42-.221,6.269-.149,3.685-.27,4.182-.149,1.259-.115.9-.041.66-.053.35-.146.326-1.432,2.485-1.365,2.751-1.082,2.236-1.551,2.989-2.311,4.526-1.718,3.519-1.312,2.546-1.484,2.863-1.2,2.558-.9,1.84-1.834,3.558-.041.258.121.234,1.256,1.077,1.531,1.058,2.708,1.627,2.5,1.309,2.388,1.051,1.182.439,1.155.375.271-.015.2-.182,9.682-18.127.027-.053.035-.064c.02-.036.044-.083.073-.138.048-.091.108-.2.179-.335l.071-.135.079-.147.266-.5c.1-.18.2-.373.308-.575.021-.042.044-.083.067-.126l.131-.241c.048-.093.1-.187.152-.284.035-.067.071-.133.108-.2l.109-.206a0,0,0,0,1,0,0c.727-1.346,1.552-2.855,2.141-3.878,1.3-2.253,5.092-10.44,5.092-10.44l.191-.384.363-.942,1.434-4.573.569-2.11.568-2.541.605-2.639.994-4.411,1.261-6.219.416-2.422.8-5.136.006-.027.08-.076.108.018.073.049.109.134.02.17-2.179,12.068.01.091.8,2.183.775,2.3.743,2.423.719,2.54-.007.1-.065.073-.083.047-.017.006-.121,0-.076-.094-1.026-3.7-.83-2.805-.375-1.109-.469-1.22-.091-.073-.109.041-.024.052-.971,4.543-1.156,5.128-.017.234.053.262.314.616.1.187,1.584,4.461s5.558,16.984,5.855,21.445c.243,1.947,2.054,16.792,2.054,16.792l5.9-.463,7.24-1.267-1.074-8.661ZM1396.5,1164.46l.073-.058.179.02.058.073-1.956,17.162-.073.058-.179-.021-.058-.073,1.956-17.16Zm-5.6,23.918.056-.032h0l.041.017.37.648.557.613.015.049-.032.038h-.027l-.191-.094-.2-.208-.621-.919.03-.112Zm-1.334,9.268-1.437,3.047-1.4,2.953-2.719,5.822-1.667,3.359-1.326,2.573-1.431,2.945-.7,1.369-.9,1.534-.085.086-.062.006-.135-.093v-.164l2.5-4.734,2.329-4.764,1.881-3.88.813-1.635,1.406-2.981,1.816-4.065.665-1.508.132-.135.187-.012.015,0,.012,0,.114.109Zm.98-1.63-.146.3-.117.1-.018-.155.091-.32.147-.3.117-.1.018.155-.093.32Zm1.463.385-.009,0-.1.012-.082-.065-2.482-4.5-.01-.1.064-.08.009-.006.1-.011.082.065,2.482,4.5.012.1-.065.082Zm.79-5.957-.124-.009-.082.093-.552,1.915-.018.015-.162.012h-.01l-.058-.08.807-3.3.074-.067.07-.01h.024l.129.055.041.135-.07.6.024.132.29.455.323.4.361.343.395.282.085.052.118.1.079.137.017.387-.044.064h-.076l-.021-.017-1.59-1.663-.029-.024Zm21.649-2.625-.089.073-.014,0-.115-.012-.073-.089-.787-2.677.012-.114.091-.073.014,0,.115.012.072.089.787,2.676-.012.115Zm5.791-.195-.109.218-.669,1.234-.3.4-.283.275-.158.143c-.079-.045-.161-.088-.241-.13l.6-.693.519-.866.279-.69.068-.083.108-.02.085.015.094.065.012.114-.008.018Zm.684-2.63-3.1,3.931-.09.009-.1-.074-.09-.1-.012-.07,3.1-3.924.073,0,.114.065.1.076.024.061Z" transform="translate(-1370.481 -1043.904)" fill="#5a667a"/>
        <path id="Trazado_1012425" data-name="Trazado 1012425" d="M1634.569,1400.017a4.971,4.971,0,0,1-1.479.564c-.147.038-.3.076-.464.112a108.521,108.521,0,0,1-11.189,1.378l-.35.035a4.765,4.765,0,0,0-.868.121c-.215.193-.5-9.494-1.514-16.417s-5.966-22.419-5.966-22.419l-.285-.661,0-.011-.083-.2.692.689s5.558,16.984,5.855,21.445c.243,1.947,2.054,16.792,2.054,16.792l5.9-.463,7.24-1.267-1.074-8.66-.062-.507.49.8S1634.5,1398,1634.569,1400.017Z" transform="translate(-1574.155 -1217.982)" fill="#040403"/>
        <path id="Trazado_1012426" data-name="Trazado 1012426" d="M1687.164,1615.86l2.647-.4,1.045-.227c-.07-.02-.14-.044-.211-.072a1.674,1.674,0,0,1-.33-.177l-.7.149-2.828.4-3.078.259c-.032.025-.062.051-.1.073l-.011.008a2.153,2.153,0,0,1-.525.277l1.387-.045,2.7-.245Z" transform="translate(-1634.193 -1432.338)" fill="#040403"/>
        <path id="Trazado_1012427" data-name="Trazado 1012427" d="M1691.354,1618.166l-.517-.27-1.088-.227-.005,0-1.737-.055-.792-.1-.721-.153-.285-.164-1.02-.919-1.752-1.412-.946-.847-1.1-1.175-.029-.1.02-.029c-.139.088-.28.174-.426.249l.541.68.728.747.877.768,1.256.991,1.232.976.313.413.08.124.078.071.1.029.846.019.083.046.008.095-.025.033-1.338,1.125-1.123.87-.384.25-.4.194-.4.137-.412.083-.441.03-.444-.03-.441-.086-.44-.145-2.8-1.254-1.638-.758-1.2-.509-1.117-.407-1.063-.31-2.076-.574-1.339-.49-.114-.1-.037-.142.036-1.653.032-.03q-.075.013-.151.021l-.062,0c-.05.012-.1.025-.149.034v0l0,.013-.074.914-.058,1.9.032.646.116.794.11.442.151.4.2.366.239.328.273.281.314.241.354.212.4.173,1.047.356,1.438.4,1.351.379,6.827,2.055.722.147.894.062a5.466,5.466,0,0,0,.815-.089l0,0,1.1-.481,1.148-.587,1.226-.706,1.64-1.012,1.066-.726.782-.658.3-.4.083-.213.026-.208-.081-.38-.257-.38-.395-.329Zm.282.815.044.175-.013.18-.076.166-.394.46-.545.427-2.776,1.755-2.31,1.282-.5.216-.514.149-.582.084-.6,0-.615-.078-.631-.155-5.211-1.564-4.677-1.345-.776-.3-.67-.425-.363-.325-.178-.27-.211-.621-.14-.676-.075-.734-.007-.789.047-.094.1-.028.019.005.252.114.39.165.982.266,1.707.47,1.17.377.453.163,2.087.871,2.653,1.264.98.44.868.276.8.126.762-.019.182-.027.666-.2.712-.373.776-.55,1.046-.88.16-.14.331-.253.34-.2.35-.143.359-.088.172-.024,1.159-.055.893.095.374.1.349.148.3.181.264.232.01.008.1.149Z" transform="translate(-1622.614 -1430.417)" fill="#040403"/>
        <path id="Trazado_1012428" data-name="Trazado 1012428" d="M1672.138,1637.646l.252.113.389.165.983.266,1.707.471,1.17.376.453.163,2.086.871,2.654,1.264.98.441.868.276.8.125.762-.018.181-.027.666-.2.713-.374.776-.551,1.046-.879.161-.14.331-.254.34-.2.35-.142.358-.089.172-.024,1.161-.054.892.1.373.1.352.148.3.181.264.231.009.009.1.15.044.175-.014.18-.074.166-.394.46-.545.426-2.776,1.755-2.31,1.283-.5.214-.515.149h0l-.581.084-.6,0-.614-.077-.631-.156-5.211-1.565-4.678-1.344-.776-.3-.67-.426-.362-.324-.18-.269-.21-.621-.142-.676-.072-.735-.008-.788.048-.1.1-.029.018.006Z" transform="translate(-1624.763 -1451.577)" fill="#83b9bc"/>
      </g>
    </g>
  </g>
</svg>
