<svg xmlns="http://www.w3.org/2000/svg" width="150" height="150" viewBox="0 0 150 150">
  <g id="img4" transform="translate(-383.746 -8400)">
    <circle id="Ellipse_13609" data-name="Ellipse 13609" cx="75" cy="75" r="75" transform="translate(383.746 8400)" fill="#b9c296"/>
    <g id="Group_1199268" data-name="Group 1199268" transform="translate(420.746 8437)">
      <path id="Path_1025733" data-name="Path 1025733" d="M75.421,16.454a1.22,1.22,0,0,0-.065-.327c-.014-.041-.024-.08-.042-.12a1.277,1.277,0,0,0-.255-.373L59.8.373a1.251,1.251,0,0,0-.374-.255C59.385.1,59.346.09,59.307.076A1.252,1.252,0,0,0,58.974.01c-.022,0-.045-.01-.071-.01H20.746a6.367,6.367,0,0,0-6.359,6.359V15.72a24.118,24.118,0,0,0,0,44.134v10.1a6.367,6.367,0,0,0,6.359,6.359H69.077a6.366,6.366,0,0,0,6.359-6.359V16.534c0-.028-.014-.052-.016-.08Zm-4.326-1.192H61.446a1.272,1.272,0,0,1-1.272-1.272V4.342ZM2.571,37.787A21.594,21.594,0,0,1,24.193,16.165q1.084,0,2.148.1a21.563,21.563,0,0,1,19.207,18.28,21.834,21.834,0,0,1,.266,3.238,21.621,21.621,0,0,1-43.243,0ZM38.965,56.894c.174-.135.346-.268.516-.407a23.8,23.8,0,0,0,1.8-1.609,23.9,23.9,0,0,0,1.609-1.8c.138-.17.272-.343.407-.517.154-.2.321-.392.468-.6L54.61,62.818a3.787,3.787,0,0,1,0,5.381,3.874,3.874,0,0,1-5.385,0L38.368,57.362c.2-.149.4-.314.6-.468ZM69.077,73.769H20.746a3.816,3.816,0,0,1-3.816-3.816V60.848c.079.025.161.042.242.066.2.062.41.112.616.169.476.127.955.255,1.44.35.238.05.476.1.716.138.484.085.973.152,1.464.209.219.025.435.056.655.075.7.06,1.414.1,2.13.1a24.007,24.007,0,0,0,11.98-3.192L47.419,70a6.359,6.359,0,1,0,8.988-8.981L45.166,49.767a24,24,0,0,0,3.192-11.98q0-1.208-.117-2.4A24.16,24.16,0,0,0,24.193,13.622c-.716,0-1.425.04-2.13.1-.22.019-.438.05-.656.075q-.734.082-1.46.209-.362.063-.722.138c-.478.1-.953.216-1.423.346-.211.057-.422.108-.636.171-.079.024-.159.041-.238.066V6.359a3.816,3.816,0,0,1,3.816-3.816H57.63V13.991a3.816,3.816,0,0,0,3.816,3.816H72.893V69.953a3.815,3.815,0,0,1-3.816,3.816Zm0,0" fill="#4a4e3c"/>
      <path id="Path_1025734" data-name="Path 1025734" d="M169.013,49.272A1.272,1.272,0,0,0,167.741,48H139.76a1.272,1.272,0,1,0,0,2.544h27.981A1.272,1.272,0,0,0,169.013,49.272Zm0,0" transform="translate(-116.47 -40.369)" fill="#4a4e3c"/>
      <path id="Path_1025735" data-name="Path 1025735" d="M331.022,192H315.76a1.272,1.272,0,0,0,0,2.544h15.263a1.272,1.272,0,1,0,0-2.544Zm0,0" transform="translate(-264.489 -161.475)" fill="#4a4e3c"/>
      <path id="Path_1025736" data-name="Path 1025736" d="M331.022,240H315.76a1.272,1.272,0,0,0,0,2.544h15.263a1.272,1.272,0,1,0,0-2.544Zm0,0" transform="translate(-264.489 -201.844)" fill="#4a4e3c"/>
      <path id="Path_1025737" data-name="Path 1025737" d="M325.566,289.272A1.272,1.272,0,0,0,324.294,288H307.76a1.272,1.272,0,0,0,0,2.544h16.534A1.272,1.272,0,0,0,325.566,289.272Zm0,0" transform="translate(-257.761 -242.212)" fill="#4a4e3c"/>
      <path id="Path_1025738" data-name="Path 1025738" d="M352.479,337.272A1.272,1.272,0,0,0,351.207,336H339.76a1.272,1.272,0,0,0,0,2.544h11.447A1.272,1.272,0,0,0,352.479,337.272Zm0,0" transform="translate(-284.673 -282.581)" fill="#4a4e3c"/>
      <path id="Path_1025739" data-name="Path 1025739" d="M263.207,97.272A1.272,1.272,0,0,0,261.935,96H251.76a1.272,1.272,0,0,0,0,2.544h10.175A1.272,1.272,0,0,0,263.207,97.272Zm0,0" transform="translate(-210.664 -80.738)" fill="#4a4e3c"/>
      <path id="Path_1025740" data-name="Path 1025740" d="M312.11,145.272A1.272,1.272,0,0,0,310.838,144H291.76a1.272,1.272,0,0,0,0,2.544h19.078A1.272,1.272,0,0,0,312.11,145.272Zm0,0" transform="translate(-244.305 -121.106)" fill="#4a4e3c"/>
      <path id="Path_1025741" data-name="Path 1025741" d="M115.76,186.544h8.9a1.272,1.272,0,0,0,0-2.544h-8.9a1.272,1.272,0,0,0,0,2.544Zm0,0" transform="translate(-96.286 -154.747)" fill="#4a4e3c"/>
      <path id="Path_1025742" data-name="Path 1025742" d="M104.11,233.272A1.272,1.272,0,0,0,102.838,232H83.76a1.272,1.272,0,1,0,0,2.544h19.078A1.272,1.272,0,0,0,104.11,233.272Zm0,0" transform="translate(-69.373 -195.116)" fill="#4a4e3c"/>
      <path id="Path_1025743" data-name="Path 1025743" d="M124.663,280h-8.9a1.272,1.272,0,0,0,0,2.544h8.9a1.272,1.272,0,0,0,0-2.544Zm0,0" transform="translate(-96.286 -235.484)" fill="#4a4e3c"/>
      <path id="Path_1025744" data-name="Path 1025744" d="M60.286,153.565a18.652,18.652,0,0,0,7.42-7.2c.1-.176.21-.346.3-.524.049-.092.088-.187.135-.279.193-.371.381-.743.548-1.123s.3-.742.434-1.115c.039-.108.089-.214.127-.323a19.088,19.088,0,1,0-8.968,10.569ZM43.306,151.3a16.41,16.41,0,0,1-3.766-2.821,16.746,16.746,0,0,1-2.076-2.525q-.451-.674-.831-1.385a16.536,16.536,0,1,1,29.136.073v.011a16.254,16.254,0,0,1-6.68,6.676,16.487,16.487,0,0,1-15.784-.024Zm0,0" transform="translate(-27.04 -99.001)" fill="#4a4e3c"/>
      <path id="Path_1025745" data-name="Path 1025745" d="M387.391,384a1.272,1.272,0,0,0-1.272,1.272v5.088a1.272,1.272,0,0,1-1.272,1.272H379.76a1.272,1.272,0,1,0,0,2.544h5.087a3.815,3.815,0,0,0,3.816-3.816v-5.088A1.272,1.272,0,0,0,387.391,384Zm0,0" transform="translate(-318.314 -322.95)" fill="#4a4e3c"/>
    </g>
  </g>
</svg>
