<svg xmlns="http://www.w3.org/2000/svg" width="150" height="150" viewBox="0 0 150 150">
  <g id="img5" transform="translate(-383.746 -8400)">
    <circle id="Ellipse_13609" data-name="Ellipse 13609" cx="75" cy="75" r="75" transform="translate(383.746 8400)" fill="#b9c296"/>
    <g id="Group_1199269" data-name="Group 1199269" transform="translate(368.522 8429.919)">
      <path id="Path_1025746" data-name="Path 1025746" d="M124.335,8.3a1.32,1.32,0,0,0,1.321-1.321v-3.7A3.279,3.279,0,0,0,122.38,0H66.887a3.279,3.279,0,0,0-3.276,3.276V9.625H58.068A3.279,3.279,0,0,0,54.793,12.9V86.884a3.279,3.279,0,0,0,3.276,3.276h6.945a1.321,1.321,0,0,0,0-2.641H58.068a.635.635,0,0,1-.634-.634V12.9a.635.635,0,0,1,.634-.634h46.939c.821,2.148.51,4.517-.956,7.383a2.68,2.68,0,0,0-.032,2.4,2.652,2.652,0,0,0,1.867,1.462,19.932,19.932,0,0,0,4.021.451,11.161,11.161,0,0,0,4.288-.774v63.7a.635.635,0,0,1-.634.634H70.12a1.321,1.321,0,1,0,0,2.641h43.441a3.279,3.279,0,0,0,3.276-3.276V80.535h5.543a3.279,3.279,0,0,0,3.275-3.275V12.084a1.321,1.321,0,1,0-2.641,0V77.26a.635.635,0,0,1-.634.634h-5.543V19.058A9.445,9.445,0,0,0,107.4,9.624H66.253V3.276a.635.635,0,0,1,.634-.634H122.38a.635.635,0,0,1,.634.634v3.7A1.32,1.32,0,0,0,124.335,8.3ZM114.2,19.058v1.157c-1.83,1.178-4.382,1.408-7.773.707-.01,0-.014,0-.021-.017a.054.054,0,0,1,0-.053c1.613-3.155,2.072-5.98,1.382-8.575A6.8,6.8,0,0,1,114.2,19.058Z" fill="#4a4e3c"/>
      <path id="Path_1025747" data-name="Path 1025747" d="M213.166,132.077a2.27,2.27,0,0,1-1.678-.433,1.321,1.321,0,0,0-1.446,2.211,4.724,4.724,0,0,0,1.812.777v.1a1.321,1.321,0,0,0,2.641,0v-.249a3.855,3.855,0,0,0,2.474-2.984,3.468,3.468,0,0,0-2.353-3.927,8.854,8.854,0,0,1-2.21-1.018.5.5,0,0,1-.039-.37.688.688,0,0,1,.436-.545,3.329,3.329,0,0,1,2.148.224,1.321,1.321,0,0,0,1.2-2.353,6.064,6.064,0,0,0-1.658-.527,1.321,1.321,0,0,0-2.641.024v.166a3.313,3.313,0,0,0-2.082,2.521,2.986,2.986,0,0,0,1,2.938,10.717,10.717,0,0,0,2.959,1.43.829.829,0,0,1,.628,1A1.2,1.2,0,0,1,213.166,132.077Z" transform="translate(-127.418 -100.257)" fill="#4a4e3c"/>
      <path id="Path_1025748" data-name="Path 1025748" d="M164.553,98.6a1.321,1.321,0,0,0-1.794.519,12.28,12.28,0,1,0,3.848-4.232,1.321,1.321,0,1,0,1.489,2.182,9.632,9.632,0,1,1-3.023,3.325,1.321,1.321,0,0,0-.52-1.794Z" transform="translate(-87.703 -76.422)" fill="#4a4e3c"/>
      <path id="Path_1025749" data-name="Path 1025749" d="M108.949,226.8l-1.237,1.573a2.861,2.861,0,0,0-1.2-.262h-5.649a2.882,2.882,0,0,0-2.878,2.878v5.649a2.882,2.882,0,0,0,2.878,2.878h5.649a2.882,2.882,0,0,0,2.878-2.878v-5.649a2.875,2.875,0,0,0-.033-.438l1.666-2.119a1.321,1.321,0,0,0-2.076-1.633Zm-2.2,9.838a.237.237,0,0,1-.237.237h-5.649a.237.237,0,0,1-.237-.237v-5.649a.237.237,0,0,1,.237-.237h4.976l-1.513,1.923-.723-.508a1.321,1.321,0,1,0-1.518,2.162l1.747,1.227a1.321,1.321,0,0,0,1.8-.264l1.12-1.425Z" transform="translate(-35.587 -186.45)" fill="#4a4e3c"/>
      <path id="Path_1025750" data-name="Path 1025750" d="M209.368,261.495H179.257a1.321,1.321,0,0,0,0,2.641h30.112a1.321,1.321,0,0,0,0-2.641Z" transform="translate(-101.458 -215.448)" fill="#4a4e3c"/>
      <path id="Path_1025751" data-name="Path 1025751" d="M97.986,323.707a2.882,2.882,0,0,0,2.878,2.878h5.649a2.882,2.882,0,0,0,2.878-2.878v-5.649a2.873,2.873,0,0,0-.033-.438l1.666-2.119a1.321,1.321,0,1,0-2.076-1.633l-1.237,1.573a2.861,2.861,0,0,0-1.2-.262h-5.649a2.881,2.881,0,0,0-2.878,2.878Zm2.641-5.649a.237.237,0,0,1,.237-.237h4.975l-1.513,1.923-.723-.508a1.321,1.321,0,1,0-1.518,2.162l1.747,1.227a1.321,1.321,0,0,0,1.8-.264l1.12-1.425v2.771a.237.237,0,0,1-.237.237h-5.649a.237.237,0,0,1-.237-.237Z" transform="translate(-35.587 -258.183)" fill="#4a4e3c"/>
      <path id="Path_1025752" data-name="Path 1025752" d="M209.368,348.559H179.257a1.321,1.321,0,1,0,0,2.641h30.112a1.321,1.321,0,1,0,0-2.641Z" transform="translate(-101.458 -287.18)" fill="#4a4e3c"/>
      <path id="Path_1025753" data-name="Path 1025753" d="M97.986,410.77a2.882,2.882,0,0,0,2.878,2.878h5.649a2.882,2.882,0,0,0,2.878-2.878v-5.649a2.873,2.873,0,0,0-.033-.438l1.666-2.119a1.321,1.321,0,1,0-2.076-1.633l-1.237,1.573a2.862,2.862,0,0,0-1.2-.261h-5.649a2.881,2.881,0,0,0-2.878,2.878Zm2.641-5.649a.237.237,0,0,1,.237-.237h4.975l-1.513,1.923-.723-.508a1.321,1.321,0,0,0-1.518,2.162l1.747,1.227a1.321,1.321,0,0,0,1.8-.264L106.75,408v2.771a.237.237,0,0,1-.237.237h-5.649a.237.237,0,0,1-.237-.237Z" transform="translate(-35.587 -329.915)" fill="#4a4e3c"/>
      <path id="Path_1025754" data-name="Path 1025754" d="M209.368,435.622H179.257a1.321,1.321,0,1,0,0,2.641h30.112a1.321,1.321,0,1,0,0-2.641Z" transform="translate(-101.458 -358.912)" fill="#4a4e3c"/>
    </g>
  </g>
</svg>
