<svg xmlns="http://www.w3.org/2000/svg" width="150" height="150" viewBox="0 0 150 150">
  <g id="img6" transform="translate(-383.746 -8400)">
    <circle id="Ellipse_13609" data-name="Ellipse 13609" cx="75" cy="75" r="75" transform="translate(383.746 8400)" fill="#b9c296"/>
    <g id="Group_1199270" data-name="Group 1199270" transform="translate(414.916 8427.452)">
      <path id="Path_1025755" data-name="Path 1025755" d="M85.228,31.981,74.873,21.625a5.471,5.471,0,1,0-7.738,7.738L68.374,30.6A33.757,33.757,0,0,0,49.3,39.334V18.673L50.324,19.7a5.472,5.472,0,1,0,7.738-7.739L47.708,1.6a5.5,5.5,0,0,0-7.756,0L29.611,11.941a5.294,5.294,0,0,0-1.164,5.951A5.311,5.311,0,0,0,33.489,21.3a5.442,5.442,0,0,0,3.847-1.6l1.022-1.023v5.218a1.264,1.264,0,0,0,2.528,0V15.62a1.264,1.264,0,0,0-2.158-.893l-3.179,3.18a2.93,2.93,0,0,1-2.083.862h-.045a2.8,2.8,0,0,1-2.639-1.846,2.774,2.774,0,0,1,.57-3.15l.032-.031L41.747,3.38l.017-.018a2.972,2.972,0,0,1,4.13,0l.017.018L56.274,13.744a2.944,2.944,0,0,1-4.163,4.165l-3.18-3.182a1.264,1.264,0,0,0-2.158.893V51.385a33.771,33.771,0,0,0-5.888-9.464V29.808a1.264,1.264,0,1,0-2.528,0v9.527A33.614,33.614,0,0,0,19.285,30.6l1.239-1.239a5.472,5.472,0,0,0-7.738-7.738L2.431,31.981a5.5,5.5,0,0,0,0,7.754L12.786,50.091l.015.015a5.321,5.321,0,0,0,7.68-.057,5.321,5.321,0,0,0,.058-7.681l-.015-.016-.581-.581A22.95,22.95,0,0,1,38.358,64.231s0,0,0,0V80.809a5.472,5.472,0,0,0,10.943,0V64.233A22.95,22.95,0,0,1,67.715,41.772l-.581.581-.016.016a5.472,5.472,0,0,0,7.738,7.737A1.264,1.264,0,1,0,73.1,48.288a2.944,2.944,0,0,1-4.17-4.156l3.15-3.149a1.264,1.264,0,0,0-.946-2.156A25.521,25.521,0,0,0,49.3,53.178V42.9A31.229,31.229,0,0,1,71.263,32.93a1.264,1.264,0,0,0,.856-2.157l-3.2-3.2a2.944,2.944,0,0,1,4.163-4.163L83.449,33.777l.018.018a2.968,2.968,0,0,1,0,4.128l-.018.018-6.173,6.174A1.264,1.264,0,0,0,79.063,45.9l6.165-6.166a5.494,5.494,0,0,0,0-7.755Zm-68.7,6.845h-.053a1.264,1.264,0,0,0-.893,2.157l3.149,3.149a2.8,2.8,0,0,1-.034,4.129,2.8,2.8,0,0,1-4.129.034L4.21,37.94l-.018-.018a2.97,2.97,0,0,1,0-4.128l.018-.017L14.574,23.413a2.944,2.944,0,0,1,4.163,4.163l-3.2,3.2A1.264,1.264,0,0,0,16.4,32.93a31.357,31.357,0,0,1,30.377,31.3V80.808a2.944,2.944,0,1,1-5.888,0V64.233a25.46,25.46,0,0,0-24.36-25.407Z" fill="#4a4e3c"/>
      <path id="Path_1025756" data-name="Path 1025756" d="M65.4,360.854a8.228,8.228,0,1,0,8.228,8.228A8.237,8.237,0,0,0,65.4,360.854Zm0,13.928a5.7,5.7,0,1,1,5.7-5.7A5.707,5.707,0,0,1,65.4,374.782Z" transform="translate(-46.845 -300.045)" fill="#4a4e3c"/>
      <path id="Path_1025757" data-name="Path 1025757" d="M90.933,397.755l-1.944,1.666-.713-.713a1.264,1.264,0,1,0-1.787,1.787l1.541,1.541a1.264,1.264,0,0,0,1.716.066l2.833-2.428a1.264,1.264,0,0,0-1.645-1.919Z" transform="translate(-70.916 -330.475)" fill="#4a4e3c"/>
      <path id="Path_1025758" data-name="Path 1025758" d="M365.411,360.854a8.228,8.228,0,1,0,8.228,8.228A8.237,8.237,0,0,0,365.411,360.854Zm0,13.928a5.7,5.7,0,1,1,5.7-5.7A5.706,5.706,0,0,1,365.411,374.782Z" transform="translate(-296.302 -300.045)" fill="#4a4e3c"/>
      <path id="Path_1025759" data-name="Path 1025759" d="M394.223,392.834a1.264,1.264,0,0,0-1.787,0l-.744.743-.744-.743a1.264,1.264,0,1,0-1.787,1.787l.743.743-.743.743a1.264,1.264,0,0,0,1.787,1.787l.744-.743.744.743a1.264,1.264,0,1,0,1.787-1.787l-.743-.743.743-.743A1.264,1.264,0,0,0,394.223,392.834Z" transform="translate(-322.584 -326.328)" fill="#4a4e3c"/>
    </g>
  </g>
</svg>
