<svg xmlns="http://www.w3.org/2000/svg" width="150" height="150" viewBox="0 0 150 150">
  <g id="img7" transform="translate(-383.746 -8400)">
    <circle id="Ellipse_13609" data-name="Ellipse 13609" cx="75" cy="75" r="75" transform="translate(383.746 8400)" fill="#b9c296"/>
    <path id="Path_1025760" data-name="Path 1025760" d="M130.854,76.211V71.2a1.544,1.544,0,0,0-.99-1.441l-2.329-.9a17.3,17.3,0,0,0-1.477-3.563l1.014-2.282a1.544,1.544,0,0,0-.32-1.719l-3.542-3.542a1.545,1.545,0,0,0-1.719-.319l-2.283,1.014a17.3,17.3,0,0,0-3.562-1.477l-.9-2.329a1.544,1.544,0,0,0-1.441-.99H108.3a1.544,1.544,0,0,0-1.441.99l-.9,2.329a17.309,17.309,0,0,0-3.562,1.477l-2.283-1.014a1.544,1.544,0,0,0-1.719.319L94.858,61.3a1.545,1.545,0,0,0-.32,1.719L95.552,65.3a17.294,17.294,0,0,0-1.477,3.562l-2.329.9a1.544,1.544,0,0,0-.99,1.441v5.008a1.544,1.544,0,0,0,.99,1.441l2.329.9a17.294,17.294,0,0,0,1.477,3.563l-1.014,2.282a1.544,1.544,0,0,0,.319,1.719L98.4,89.654a1.544,1.544,0,0,0,1.719.32l2.283-1.014a17.294,17.294,0,0,0,3.562,1.477l.9,2.329a1.544,1.544,0,0,0,1.441.99h5.008a1.544,1.544,0,0,0,1.441-.99l.9-2.329a17.293,17.293,0,0,0,3.563-1.477l2.282,1.014a1.544,1.544,0,0,0,1.719-.319l3.541-3.542a1.544,1.544,0,0,0,.319-1.719l-1.014-2.283a17.287,17.287,0,0,0,1.477-3.562l2.329-.9a1.544,1.544,0,0,0,.99-1.441Zm-3.089-1.06-2.077.8a1.545,1.545,0,0,0-.948,1.084,14.225,14.225,0,0,1-1.73,4.172,1.545,1.545,0,0,0-.1,1.437l.9,2.036-2.042,2.042-2.035-.9a1.543,1.543,0,0,0-1.437.1,14.224,14.224,0,0,1-4.173,1.73,1.544,1.544,0,0,0-1.084.948l-.8,2.076h-2.888l-.8-2.077a1.544,1.544,0,0,0-1.084-.948,14.226,14.226,0,0,1-4.172-1.73,1.544,1.544,0,0,0-1.437-.1l-2.036.9-2.042-2.042.9-2.035a1.544,1.544,0,0,0-.1-1.437,14.227,14.227,0,0,1-1.73-4.173,1.545,1.545,0,0,0-.948-1.084l-2.076-.8V72.263l2.077-.8a1.544,1.544,0,0,0,.948-1.084,14.22,14.22,0,0,1,1.73-4.172,1.545,1.545,0,0,0,.1-1.437l-.9-2.035,2.042-2.042,2.036.9a1.544,1.544,0,0,0,1.437-.1,14.23,14.23,0,0,1,4.172-1.73,1.544,1.544,0,0,0,1.084-.948l.8-2.077h2.888l.8,2.077a1.544,1.544,0,0,0,1.084.948A14.234,14.234,0,0,1,118.3,61.5a1.545,1.545,0,0,0,1.437.1l2.036-.9,2.042,2.042-.9,2.035a1.544,1.544,0,0,0,.1,1.437,14.227,14.227,0,0,1,1.73,4.173,1.544,1.544,0,0,0,.948,1.084l2.076.8v2.888Zm-16.96-11.723a10.279,10.279,0,1,0,10.279,10.279A10.291,10.291,0,0,0,110.805,63.428Zm0,17.469a7.19,7.19,0,1,1,7.19-7.19A7.2,7.2,0,0,1,110.805,80.9Zm15.652,16.674a1.545,1.545,0,0,1-.558,2.112,29.762,29.762,0,0,1-15.04,4.071,30.534,30.534,0,0,1-3.2-.169A30.049,30.049,0,0,1,85.606,57.342l-.553.158a1.544,1.544,0,1,1-.848-2.97l5.056-1.443a1.544,1.544,0,0,1,1.967,1.43l.189,5.254a1.544,1.544,0,0,1-1.488,1.6h-.056a1.544,1.544,0,0,1-1.542-1.489l-.036-1a26.955,26.955,0,0,0,36.052,38.135,1.544,1.544,0,0,1,2.112.558Zm18.548-69.109L135.445,17.2a2.239,2.239,0,0,0-3.413,0l-9.561,11.261a2.238,2.238,0,0,0,1.707,3.688h2.909V48.44a29.76,29.76,0,0,0-9.628-4.034V23.735h2.908a2.238,2.238,0,0,0,1.707-3.688L112.512,8.787a2.239,2.239,0,0,0-3.413,0L99.538,20.047a2.238,2.238,0,0,0,1.707,3.688h2.909v20.67a29.913,29.913,0,0,0-7.635,2.872,1.545,1.545,0,0,0,1.471,2.716,26.957,26.957,0,0,1,35.327,38.543l-.036-1a1.544,1.544,0,1,0-3.087.111l.189,5.254a1.544,1.544,0,0,0,1.967,1.43l5.056-1.443a1.544,1.544,0,0,0-.848-2.97l-.558.159a30.13,30.13,0,0,0,3.395-25.651,2.924,2.924,0,0,0,1-2.2V32.151H143.3a2.238,2.238,0,0,0,1.707-3.688ZM107.242,43.87V22.191a1.545,1.545,0,0,0-1.544-1.544h-2.616l7.724-9.1,7.724,9.1h-2.616a1.545,1.545,0,0,0-1.544,1.544V43.878c-.139-.017-.278-.035-.418-.049A30.185,30.185,0,0,0,107.242,43.87Zm31.6-14.808a1.545,1.545,0,0,0-1.544,1.544V59.531a30.425,30.425,0,0,0-7.127-8.8V30.606a1.545,1.545,0,0,0-1.544-1.544h-2.616l7.724-9.1,7.724,9.1ZM81.22,40.566H78.311A2.238,2.238,0,0,1,76.6,36.878l9.561-11.261a2.239,2.239,0,0,1,3.413,0L99.14,36.878a2.238,2.238,0,0,1-1.707,3.688H94.525v10.17a1.544,1.544,0,0,1-3.089,0V39.022a1.545,1.545,0,0,1,1.544-1.544H95.6l-7.724-9.1-7.724,9.1h2.616a1.545,1.545,0,0,1,1.544,1.544V50.736a1.544,1.544,0,1,1-3.089,0V40.566Z" transform="translate(347.462 8419.598)" fill="#4a4e3c"/>
  </g>
</svg>
