<svg xmlns="http://www.w3.org/2000/svg" width="84" height="84" viewBox="0 0 84 84">
  <g id="img9" transform="translate(-528 -3781)">
    <rect id="Rectangle_461468" data-name="Rectangle 461468" width="84" height="84" rx="10" transform="translate(528 3781)" fill="#b9c296"/>
    <g id="Group_1196276" data-name="Group 1196276" transform="translate(530.019 3783.002)">
      <g id="Group_1196275" data-name="Group 1196275" transform="translate(9.936 9.998)">
        <g id="Group_1196272" data-name="Group 1196272" transform="translate(17.421 0)">
          <g id="Group_1196269" data-name="Group 1196269">
            <path id="Path_1018233" data-name="Path 1018233" d="M174.357,116.306c0,5.232-18.947,5.232-18.947,0a9.473,9.473,0,0,1,18.947,0Z" transform="translate(-155.41 -95.554)" fill="#66d4f1" fill-rule="evenodd"/>
            <path id="Path_1018234" data-name="Path 1018234" d="M196.011,21.332a4.378,4.378,0,1,0,4.378-4.378A4.378,4.378,0,0,0,196.011,21.332Z" transform="translate(-190.916 -16.954)" fill="#efc7a4" fill-rule="evenodd"/>
          </g>
          <g id="Group_1196270" data-name="Group 1196270" transform="translate(23.722)">
            <path id="Path_1018235" data-name="Path 1018235" d="M363.38,116.306c0,5.232-18.947,5.232-18.947,0a9.473,9.473,0,0,1,18.947,0Z" transform="translate(-344.433 -95.554)" fill="#b3a4ee" fill-rule="evenodd"/>
            <path id="Path_1018236" data-name="Path 1018236" d="M385.033,21.332a4.379,4.379,0,1,0,4.378-4.378A4.378,4.378,0,0,0,385.033,21.332Z" transform="translate(-379.938 -16.954)" fill="#efc7a4" fill-rule="evenodd"/>
          </g>
          <g id="Group_1196271" data-name="Group 1196271" transform="translate(11.861 3.279)">
            <path id="Path_1018237" data-name="Path 1018237" d="M290.522,47.459a4.378,4.378,0,1,0,4.378-4.378A4.378,4.378,0,0,0,290.522,47.459Z" transform="translate(-285.427 -43.081)" fill="#efc7a4" fill-rule="evenodd"/>
            <path id="Path_1018238" data-name="Path 1018238" d="M268.869,142.433c0,5.232-18.947,5.232-18.947,0a9.473,9.473,0,0,1,18.947,0Z" transform="translate(-249.922 -121.681)" fill="#f76c82" fill-rule="evenodd"/>
          </g>
        </g>
        <g id="Group_1196274" data-name="Group 1196274" transform="translate(0 34.766)">
          <g id="Group_1196273" data-name="Group 1196273" transform="translate(4.205 0)">
            <path id="Path_1018239" data-name="Path 1018239" d="M62.208,295.914c-4.015,1.967-8.068,3.857-12.108,5.77l5.7,13.664,8.387-4.086a5.046,5.046,0,0,1,3.747-.322l8.9,2.576c2.82.816,6.311-.684,8.935-1.7l16.692-6.446c4.4-1.7,5.454-10.519-4.927-7.471l-11.909,3.5a3.793,3.793,0,0,0-2.672-2.661l-8.068-2.155C69.387,292.688,66.589,293.767,62.208,295.914Z" transform="translate(-50.1 -293.98)" fill="#efc7a4" fill-rule="evenodd"/>
            <path id="Path_1018240" data-name="Path 1018240" d="M206.67,335.238l-18.037-4.819a3.8,3.8,0,0,0,2.68,4.635l10.722,2.864A3.8,3.8,0,0,0,206.67,335.238Z" transform="translate(-171.136 -325.846)" fill="#d5a889" fill-rule="evenodd"/>
          </g>
          <path id="Path_1018241" data-name="Path 1018241" d="M30.542,334.042l-4.287,1.752a1.829,1.829,0,0,1-2.38-1l-7.145-17.432a1.817,1.817,0,0,1,1-2.382l4.287-1.752a1.829,1.829,0,0,1,2.38,1l7.145,17.432a1.817,1.817,0,0,1-1,2.382Z" transform="translate(-16.593 -310.696)" fill="#cad0d7" fill-rule="evenodd"/>
        </g>
      </g>
      <path id="Path_1018242" data-name="Path 1018242" d="M48.765,14.036a3.5,3.5,0,1,1-3.5,3.5,3.5,3.5,0,0,1,3.5-3.5Zm0,8.756a5.257,5.257,0,1,0-5.257-5.257A5.263,5.263,0,0,0,48.765,22.792ZM36.9,10.757a3.5,3.5,0,1,1-3.5,3.5A3.5,3.5,0,0,1,36.9,10.757Zm0,8.756a5.257,5.257,0,1,0-5.257-5.257A5.263,5.263,0,0,0,36.9,19.513Zm0,2.523a8.591,8.591,0,0,1,6.528,3,10.354,10.354,0,0,0-5.012,8.587c-4.029.254-8.02-.514-9.526-1.877a1.505,1.505,0,0,1-.585-1.121,8.6,8.6,0,0,1,8.6-8.594ZM57.359,33.91a8.595,8.595,0,0,0-17.19,0c0,1.708,3.775,3.045,8.595,3.045S57.359,35.618,57.359,33.91Zm3.266-11.874A8.6,8.6,0,0,1,69.22,30.63a1.505,1.505,0,0,1-.585,1.121c-1.505,1.363-5.5,2.131-9.526,1.877A10.355,10.355,0,0,0,54.1,25.041,8.591,8.591,0,0,1,60.626,22.036ZM27.715,33.054c1.872,1.7,5.692,2.377,9.2,2.377.64,0,1.27-.024,1.875-.067a5.561,5.561,0,0,0,3.159,2.313,20.462,20.462,0,0,0,6.816,1.035c4.327,0,8.687-1.048,9.973-3.349.606.044,1.236.067,1.877.067,3.507,0,7.328-.681,9.2-2.377a3.245,3.245,0,0,0,1.163-2.424,10.351,10.351,0,0,0-18.5-6.381,10.321,10.321,0,0,0-7.422,0,10.351,10.351,0,0,0-18.5,6.381A3.246,3.246,0,0,0,27.715,33.054Zm32.911-22.3a3.5,3.5,0,1,1-3.5,3.5A3.5,3.5,0,0,1,60.626,10.757Zm0,8.756a5.257,5.257,0,1,0-5.257-5.257A5.263,5.263,0,0,0,60.626,19.513ZM66.55,55.264,49.563,61.81l-.555.216c-2.489.968-5.587,2.174-7.975,1.48l-9.051-2.628a6.032,6.032,0,0,0-4.442.378L24.8,62.592,19.71,50.38c2.11-1,4.344-2.061,6.6-3.161,4.33-2.117,6.831-3.052,12,.617a.881.881,0,0,0,.281.132l8.206,2.2a2.973,2.973,0,0,1-1.539,5.744L34.351,52.987a.878.878,0,1,0-.455,1.7L44.8,57.607a4.732,4.732,0,0,0,5.939-4.951l11.364-3.335c3.755-1.1,6.362-.678,6.975,1.13a4.248,4.248,0,0,1-2.532,4.813Zm-42.2,11.564a.974.974,0,0,0,0-.751L16.975,48.383a.982.982,0,0,0-1.279-.529l-4.351,1.808a.97.97,0,0,0-.528,1.28l7.369,17.694a.981.981,0,0,0,1.279.528l4.351-1.808a.975.975,0,0,0,.533-.529Zm46.4-16.94a4.2,4.2,0,0,0-2.981-2.677,11.435,11.435,0,0,0-6.152.426L50.273,50.963c-.047-.1-.1-.193-.153-.287a4.7,4.7,0,0,0-2.868-2.207L39.2,46.311c-5.879-4.12-9.029-2.937-13.662-.671-2.216,1.085-4.418,2.132-6.5,3.116L18.6,47.708a2.74,2.74,0,0,0-3.575-1.476L10.671,48.04a2.727,2.727,0,0,0-1.476,3.578l7.368,17.694a2.738,2.738,0,0,0,3.575,1.475l4.351-1.807A2.727,2.727,0,0,0,25.966,65.4l-.494-1.186,2.836-1.379a4.267,4.267,0,0,1,3.183-.271l9.051,2.628a7.286,7.286,0,0,0,2.054.276,20.461,20.461,0,0,0,7.049-1.806l.55-.213L67.182,56.9c2.75-1.061,4.449-4.4,3.564-7.017Z" fill-rule="evenodd"/>
    </g>
  </g>
</svg>
