<svg xmlns="http://www.w3.org/2000/svg" width="292" height="163" viewBox="0 0 292 163">
  <g id="img18" transform="translate(-185 -6146)">
    <rect id="Rectangle_462037" data-name="Rectangle 462037" width="292" height="163" transform="translate(185 6146)" fill="#f8f9f4"/>
    <g id="_3226334_43279" data-name="3226334_43279" transform="translate(97.737 5948.173)">
      <g id="shadow" transform="translate(123 326.411)">
        <g id="Group_1198357" data-name="Group 1198357" transform="translate(0 0)" opacity="0.12">
          <path id="Path_1023243" data-name="Path 1023243" d="M333.945,880.8H151.74c-5.269,0-9.58,2.612-9.58,5.8h0c0,2.211,2.068,4.142,5.089,5.122H132.58c-5.269,0-9.58,2.612-9.58,5.8h0c0,3.192,4.311,5.8,9.58,5.8h5.111a4.751,4.751,0,0,0-2.294,3.756v2.322c0,3.192,4.311,5.8,9.58,5.8H324.7c5.269,0,9.58-2.612,9.58-5.8v-2.322c0-3.192-4.311-5.8-9.58-5.8l-11.158.129a5.305,5.305,0,0,0,3.156-1.223,4.568,4.568,0,0,0,.9-5.416,3.954,3.954,0,0,0-3.381-2.446l19.723.078c5.269,0,9.58-2.612,9.58-5.8h0C343.525,883.409,339.213,880.8,333.945,880.8Z" transform="translate(-123 -880.797)" fill="#606060"/>
        </g>
      </g>
      <g id="object" transform="translate(135.849 209.919)">
        <g id="Group_1198471" data-name="Group 1198471" transform="translate(0 0)">
          <g id="Group_1198358" data-name="Group 1198358" transform="translate(0 22.224)">
            <path id="Path_1023244" data-name="Path 1023244" d="M209.984,337.9l-4.508,3.607L197,364.593l3.967,4.508,5.531-3.924,4.928-24.747Z" transform="translate(-197 -337.905)" fill="#7db5db"/>
          </g>
          <g id="Group_1198359" data-name="Group 1198359" transform="translate(177.889 130.425)">
            <path id="Path_1023245" data-name="Path 1023245" d="M1229.057,963.568l.087,2.533-5.034,2.682-2.65-2.458,2.473-2.607,5.036-2.682Z" transform="translate(-1221.46 -961.035)" fill="#211c18"/>
          </g>
          <g id="Group_1198360" data-name="Group 1198360" transform="translate(167.402 70.188)">
            <path id="Path_1023246" data-name="Path 1023246" d="M1171.709,614.133l9.655,1.741-5.77,25.668,3.8,34.537-5.048,1.153-13.238-41.683-.036-12.458.986-7.374Z" transform="translate(-1161.07 -614.133)" fill="#305399"/>
          </g>
          <g id="Group_1198361" data-name="Group 1198361" transform="translate(153.469 55.113)">
            <path id="Path_1023247" data-name="Path 1023247" d="M1081.156,530.255l-.326,32.324,6.235,41.666,4.744-.008,2.933-38.46,6.428-38.465Z" transform="translate(-1080.83 -527.312)" fill="#305399"/>
          </g>
          <g id="Group_1198362" data-name="Group 1198362" transform="translate(156.73 131.48)">
            <path id="Path_1023248" data-name="Path 1023248" d="M1107.3,967.114l.005,2.532-5.126,2.541-2.568-2.528,2.561-2.537Z" transform="translate(-1099.61 -967.114)" fill="#211c18"/>
          </g>
          <g id="Group_1198363" data-name="Group 1198363" transform="translate(148.786 22.889)">
            <path id="Path_1023249" data-name="Path 1023249" d="M1095.8,391.825c-.065,1.436-2.114,10.778-1.676,11.035q-3.229-1.132-6.545-1.995a84.057,84.057,0,0,0-17.782-2.637,38.188,38.188,0,0,0-8.264.2c-1.317.239-2.607.605-3.9.938-.333.085-3.768.709-3.776.761.615-4.138.44-8.283.719-12.459a111.8,111.8,0,0,1,1.561-12.592c1.188-6.523,4.479-11.934,7.109-17.983a75.992,75.992,0,0,1,4.206-8.884c1.321-2.205,3.626-5.4,6.2-6.239a7.816,7.816,0,0,1,2.724-.216l8.33.321a6.743,6.743,0,0,1,2.957.567c1.338.717,2.021,2.219,2.612,3.617a66.506,66.506,0,0,1,4.8,19.754c.333,3.559.623,7.121.8,10.689.192,3.982.239,7.972.038,11.951C1095.882,389.1,1095.868,390.341,1095.8,391.825Z" transform="translate(-1053.855 -341.735)" fill="#587bc9"/>
          </g>
          <g id="Group_1198364" data-name="Group 1198364" transform="translate(152.99 22.685)">
            <path id="Path_1023250" data-name="Path 1023250" d="M1099.173,357.966a29.505,29.505,0,0,0-.018,5.387c.631,10.923,3.389,24.319,4.02,35.242a85.309,85.309,0,0,0-25.1-.311c.543-4.04,1.754-11.968,2.3-16.008a65.4,65.4,0,0,1,1.351-7.71,63.434,63.434,0,0,1,4.677-11.573l10.006-20.706a2.966,2.966,0,0,1,.666-1,2.364,2.364,0,0,1,1.273-.441,19.285,19.285,0,0,1,6.7.029c.385,2.256-1.846,5.984-2.716,8C1101.055,351.806,1099.584,354.7,1099.173,357.966Z" transform="translate(-1078.07 -340.561)" fill="#bcbec0"/>
          </g>
          <g id="Group_1198365" data-name="Group 1198365" transform="translate(163.843 5.193)">
            <path id="Path_1023251" data-name="Path 1023251" d="M1143.365,243.5a9.422,9.422,0,0,0-.261,4.4,1.349,1.349,0,0,1-.134,1.133c-.283.313.122.787-.2.514a7.266,7.266,0,0,1-1.546-1.629,15.57,15.57,0,0,1-.6-2.9,4.254,4.254,0,0,1,.31-2.521,4.824,4.824,0,0,1,1-1.151,6.2,6.2,0,0,1,1.786-1.3c1.179-.485,2.024-.2,1.12.88A7.629,7.629,0,0,0,1143.365,243.5Z" transform="translate(-1140.569 -239.823)" fill="#bfbebe"/>
          </g>
          <g id="Group_1198367" data-name="Group 1198367" transform="translate(165.068 4.576)">
            <g id="Group_1198366" data-name="Group 1198366">
              <path id="Path_1023252" data-name="Path 1023252" d="M1160.257,255.443l-3.95,1.218a1.132,1.132,0,0,1-1.4-.695,31.283,31.283,0,0,1-.991-3.324c-1.523.055-3.352-.06-4.176-1.5a5.158,5.158,0,0,1-.487-1.494l-1.384-6.392a6.316,6.316,0,0,1-.21-2.235,4.537,4.537,0,0,1,2.181-2.928,9.814,9.814,0,0,1,8.821-1.287,4.856,4.856,0,0,1,2.112,1.391,7.624,7.624,0,0,1,1.272,3.88l.517,3.8c.2,1.457.328,3.155-.629,4.147-.508.526-1.258.76-1.659,1.388C1159.567,252.525,1160.319,254.074,1160.257,255.443Z" transform="translate(-1147.623 -236.273)" fill="#eacdb0"/>
            </g>
          </g>
          <g id="Group_1198368" data-name="Group 1198368" transform="translate(165.969 13.961)">
            <path id="Path_1023253" data-name="Path 1023253" d="M1153.419,295.639a5.338,5.338,0,0,0,2.685,2.928,7.716,7.716,0,0,0,4.414.06l2.4-.442c2.023-.373,3.972-1.051,4.565-3.388a6.572,6.572,0,0,0-.113-3.333,2.141,2.141,0,0,0-.384-.834.749.749,0,0,0-.782-.277c-.346.125-.48.554-.648.9a1.821,1.821,0,0,1-1.963,1.106,2.838,2.838,0,0,1-.665-.3c-.088-.049-.176-.1-.265-.144a5.259,5.259,0,0,0-2.821-.465c-.826.063-2.07.014-2.524.823l-.792,1.412a1.99,1.99,0,0,1-.383.535,1.324,1.324,0,0,1-.593.278,1.358,1.358,0,0,1-1.5-.51,2.748,2.748,0,0,1-.235-.737,1.217,1.217,0,0,0-.353-.671c-.747-.6-.678.591-.619.992A8.432,8.432,0,0,0,1153.419,295.639Zm5.562-.778a2.287,2.287,0,0,0,2.06-.2c.341-.185.622.392.282.577a2.847,2.847,0,0,1-2.524.229C1158.433,295.32,1158.614,294.713,1158.981,294.861Z" transform="translate(-1152.813 -290.322)" fill="#bfbebe"/>
          </g>
          <g id="Group_1198369" data-name="Group 1198369" transform="translate(162.467 0.866)">
            <path id="Path_1023254" data-name="Path 1023254" d="M1133.464,219.753a11.589,11.589,0,0,1-.64-1.511,3.189,3.189,0,0,0,1.571-.19l-.189-.921c-.051-.256,3.364-1.155,3.64-1.237,2.581-.764,4.941-1.47,7.61-.557a7.306,7.306,0,0,1,4.756,4.582,11.174,11.174,0,0,1-.263,7.372,15.61,15.61,0,0,0-.326-2.609,5.158,5.158,0,0,0-.89-1.5,6.814,6.814,0,0,0-2.855-1.972,13.249,13.249,0,0,0-5.477-.656,14.313,14.313,0,0,0-5.253,1.092c-.734.371-.823.593-1.457-.094a13.623,13.623,0,0,1-1.044-1.614Z" transform="translate(-1132.646 -214.906)" fill="#bfbebe"/>
          </g>
          <g id="Group_1198370" data-name="Group 1198370" transform="translate(148.408 23.125)">
            <path id="Path_1023255" data-name="Path 1023255" d="M1071.876,343.1l-5.409,1.8-14.787,21.459,1.082,4.148h5.411Z" transform="translate(-1051.68 -343.097)" fill="#587bc9"/>
          </g>
          <g id="Group_1198371" data-name="Group 1198371" transform="translate(77.004 23.965)">
            <path id="Path_1023256" data-name="Path 1023256" d="M642.6,347.931,647.172,350l12.878,26.285-1.411,5.645-7.233-1.941-10.937-22.934Z" transform="translate(-640.468 -347.931)" fill="#305399"/>
          </g>
          <g id="Group_1198372" data-name="Group 1198372" transform="translate(61.672 129.818)">
            <path id="Path_1023257" data-name="Path 1023257" d="M552.166,958.995v4.358l2.905,2.905h2.254a1.3,1.3,0,0,0,1.163-1.882l-.512-1.024-1.453-2.905-1.453-2.905Z" transform="translate(-552.166 -957.542)" fill="#211c18"/>
          </g>
          <g id="Group_1198373" data-name="Group 1198373" transform="translate(76.098 129.131)">
            <path id="Path_1023258" data-name="Path 1023258" d="M635.246,955.036v4.358l2.905,2.905,2.409-.8a1.27,1.27,0,0,0,.5-2.1h0l-1.453-2.905-1.453-2.905Z" transform="translate(-635.246 -953.583)" fill="#211c18"/>
          </g>
          <g id="Group_1198374" data-name="Group 1198374" transform="translate(52.039 76.215)">
            <path id="Path_1023259" data-name="Path 1023259" d="M496.694,652.9l5.1,26.4,3.4,25.189h5.459l2.9-25.561,2.331-30.087Z" transform="translate(-496.694 -648.839)" fill="#7db5db"/>
          </g>
          <g id="Group_1198375" data-name="Group 1198375" transform="translate(68.071 77.95)">
            <path id="Path_1023260" data-name="Path 1023260" d="M604.625,658.833l1.262,26.182-3.8,27.386-5.418.283-2.221-27.254-5.432-24.272Z" transform="translate(-589.019 -658.833)" fill="#7db5db"/>
          </g>
          <g id="Group_1198380" data-name="Group 1198380" transform="translate(64.384 0.967)">
            <g id="Group_1198377" data-name="Group 1198377" transform="translate(3.58 4.011)">
              <g id="Group_1198376" data-name="Group 1198376">
                <path id="Path_1023261" data-name="Path 1023261" d="M590.854,258.076l4.945,1.5a32.359,32.359,0,0,0,1.358-4.408c1.516.04,3.335-.095,4.152-1.559a5.349,5.349,0,0,0,.482-1.52l1.364-6.5a6.536,6.536,0,0,0,.2-2.269,4.543,4.543,0,0,0-2.176-2.947,9.581,9.581,0,0,0-8.78-1.215,4.88,4.88,0,0,0-2.1,1.433,7.89,7.89,0,0,0-1.257,3.948l-.507,3.861c-.194,1.48-.32,3.2.635,4.2.507.529,1.253.758,1.654,1.391C591.536,255.109,590.79,256.688,590.854,258.076Z" transform="translate(-588.404 -238.584)" fill="#eacdb0"/>
              </g>
            </g>
            <g id="Group_1198378" data-name="Group 1198378" transform="translate(0)">
              <path id="Path_1023262" data-name="Path 1023262" d="M578.673,224.322a12.959,12.959,0,0,1-4.412,2.819c-1.035.362-2.05.41-2.343,1.679a3.958,3.958,0,0,0,1.126,3.51,1.473,1.473,0,0,1,.4.463.827.827,0,0,1-.472,1,1.66,1.66,0,0,1-1.178-.014,5.282,5.282,0,0,1-2.759-2.306,9.138,9.138,0,0,1-.772-7.555,11.757,11.757,0,0,1,4.616-6.093c1.96-1.291,3.912-2.649,6.376-2.279,1.388.208,3.644,1.485,3.364,3.234C582.32,220.618,579.939,223.091,578.673,224.322Z" transform="translate(-567.786 -215.485)" fill="#bfbebe"/>
            </g>
            <g id="Group_1198379" data-name="Group 1198379" transform="translate(12.304 2.009)">
              <path id="Path_1023263" data-name="Path 1023263" d="M641.451,234.185c.816.918,1.8,1.822,1.983,3.012a4.532,4.532,0,0,1-.116,1.563q-.279,1.381-.7,2.729a5.15,5.15,0,0,1-1.5,2.614c-.328.256-2.486,1.192-.909,1.748a1.793,1.793,0,0,0,1.387-.268,11.469,11.469,0,0,0,6.224-8.825,9.65,9.65,0,0,0-1.8-6.4c-1.218-1.7-3.775-3.946-6.111-3.127C636.8,228.32,640.227,232.808,641.451,234.185Z" transform="translate(-638.642 -227.055)" fill="#bfbebe"/>
            </g>
          </g>
          <g id="Group_1198382" data-name="Group 1198382" transform="translate(47.681 23.306)">
            <g id="Group_1198381" data-name="Group 1198381">
              <path id="Path_1023264" data-name="Path 1023264" d="M508.506,356.036c.356-3.206-.087-8-3.035-9.989-2.546-1.72-4.61-1.912-7.634-1.912H492.09l-1.226.081s-9.879,6.527-14.466,24.7c-4.276,16.941-6.88,40.575-2.646,41.1a.554.554,0,0,0,.219-.02c.636.087,2.436.323,5.032.594h0c3.321.189,6.655.249,9.98.231,5.73-.032,11.7.3,16.989-2.286,4.015-1.962,9.1-4.613,7.226-9.866-1.055-2.751-2.278-6.051-3.458-10C505.154,373.325,507.8,362.387,508.506,356.036Z" transform="translate(-471.597 -344.136)" fill="#305399"/>
            </g>
          </g>
          <g id="Group_1198383" data-name="Group 1198383" transform="translate(47.606 23.387)">
            <path id="Path_1023265" data-name="Path 1023265" d="M490.506,344.6l-4.41,1.764L471.163,369.88l1.059,5.469,17.049,10.357,3-4.41L477.8,367.536l11.467-11.643Z" transform="translate(-471.163 -344.602)" fill="#145566"/>
          </g>
          <g id="Group_1198384" data-name="Group 1198384" transform="translate(52.274 23.844)">
            <path id="Path_1023266" data-name="Path 1023266" d="M537.079,360.205c-3.3-2.456-8.9-3.194-11.9-.682.909-3.806-3.229-9.055-6.9-10.909-9.681-4.892-19.529,4.069-20.164,13.8a48.78,48.78,0,0,0,1.912,15.676c1.15,4.294,4.85,14.183,4.883,14.178.01.032,10.511-1.067,14.867-1.954a48.783,48.783,0,0,0,14.883-5.281C543.09,380.124,545.776,366.687,537.079,360.205Z" transform="translate(-498.045 -347.235)" fill="#eac5b0"/>
          </g>
          <g id="Group_1198385" data-name="Group 1198385" transform="translate(55.979 58.324)" opacity="0.12">
            <path id="Path_1023267" data-name="Path 1023267" d="M549.837,548.659a60.565,60.565,0,0,1-12.814,3.227c-4.2.568-8.7.545-12.7-1.01a13.961,13.961,0,0,1-4.94-3.216c1.443,4.217,3.108,8.645,3.13,8.642.01.032,10.511-1.067,14.867-1.954a48.782,48.782,0,0,0,14.883-5.281,14.821,14.821,0,0,0,3.85-3.259A45.366,45.366,0,0,1,549.837,548.659Z" transform="translate(-519.381 -545.807)"/>
          </g>
          <g id="Group_1198386" data-name="Group 1198386" transform="translate(54.107 38.626)">
            <path id="Path_1023268" data-name="Path 1023268" d="M542.792,452.01l-7.339-4.273,3.619-11.684a.583.583,0,0,0-.947-.586L521.69,449.532l-.952.815,3.34-13.888.536-2.227c.108-.447-.379-.952-.825-.673l-6.231,3.895-8.078-5a.578.578,0,0,0-.608.983l8.382,5.188a.572.572,0,0,0,.575.019l5.34-3.338-3.427,14.248-.536,2.227a.583.583,0,0,0,.948.586L536.588,438.3l.786-.673-3.163,10.213a.586.586,0,0,0,.251.654l7.722,4.5C542.825,453.366,543.436,452.385,542.792,452.01Z" transform="translate(-508.604 -432.363)" fill="#fff"/>
          </g>
          <g id="Group_1198387" data-name="Group 1198387" transform="translate(47.606 43.502)">
            <path id="Path_1023269" data-name="Path 1023269" d="M471.163,465.677l3.246-5.23,24.325,18.742-4.41,4.41-22.079-12.513Z" transform="translate(-471.163 -460.447)" fill="#305399"/>
          </g>
          <g id="Group_1198388" data-name="Group 1198388" transform="translate(74.182 41.028)">
            <path id="Path_1023270" data-name="Path 1023270" d="M646.616,457.488l-3.728-5.451L626.329,446.2l-2.117,3.7,16.844,12.118,4.149,1.113Z" transform="translate(-624.212 -446.198)" fill="#305399"/>
          </g>
          <g id="Group_1198389" data-name="Group 1198389" transform="translate(66.596 39.087)">
            <path id="Path_1023271" data-name="Path 1023271" d="M589.826,437.668l-3.831-2.646-5.469.529.176,2.117,5.821,2.117,2.042.088Z" transform="translate(-580.526 -435.022)" fill="#e2b893"/>
          </g>
          <g id="Group_1198390" data-name="Group 1198390" transform="translate(21.779 59.686)">
            <path id="Path_1023272" data-name="Path 1023272" d="M341.044,556.167l.712,30.383L336.495,625.8l-4.4.052-3.21-36.118-6.454-36.08Z" transform="translate(-322.428 -553.651)" fill="#3b455a"/>
          </g>
          <g id="Group_1198391" data-name="Group 1198391" transform="translate(31.462 131.303)">
            <path id="Path_1023273" data-name="Path 1023273" d="M378.192,966.148l.028,2.381,4.79,2.324,2.353-2.409-2.409-2.352Z" transform="translate(-378.192 -966.092)" fill="#211c18"/>
          </g>
          <g id="Group_1198392" data-name="Group 1198392" transform="translate(12.315 132.507)">
            <path id="Path_1023274" data-name="Path 1023274" d="M272.086,973.023l3.786,3.218-.947,1.894-7-1.515v-3.6Z" transform="translate(-267.921 -973.023)" fill="#211c18"/>
          </g>
          <g id="Group_1198393" data-name="Group 1198393" transform="translate(8.557 70.08)">
            <path id="Path_1023275" data-name="Path 1023275" d="M262.85,617.582,259.7,647.031l-4.152,29.354-5.922-.282.216-30.452-3.565-28.244,8.372-3.9Z" transform="translate(-246.28 -613.508)" fill="#3b455a"/>
          </g>
          <g id="Group_1198394" data-name="Group 1198394" transform="translate(6.681 19.983)">
            <path id="Path_1023276" data-name="Path 1023276" d="M241.777,327.241,253.356,325s7.829,5.037,13.765,20.28c6.045,15.522,5.191,39.3,5.191,39.3s-31.654.506-36.838.628l3.018-32.883Z" transform="translate(-235.474 -325)" fill="#7db5db"/>
          </g>
          <g id="Group_1198395" data-name="Group 1198395" transform="translate(13.946 7.706)">
            <path id="Path_1023277" data-name="Path 1023277" d="M283.679,268.86c-1.017.011-2.161.121-3.189.14a.7.7,0,0,1-.711-.743c.06-.931.3-1.962.37-2.818-1.161-.327-2.512-.844-2.785-2.019a3.4,3.4,0,0,1,0-1.134l.508-4.686a4.15,4.15,0,0,1,.384-1.573,3.486,3.486,0,0,1,2.354-1.472,8.482,8.482,0,0,1,6.961,1.236,3.718,3.718,0,0,1,1.254,1.454,5.04,5.04,0,0,1,.017,2.948l-.532,2.713c-.2,1.04-.518,2.228-1.48,2.674-.511.237-1.132.216-1.587.548-.634.462-.648,1.331-.812,2.127A.765.765,0,0,1,283.679,268.86Z" transform="translate(-277.313 -254.299)" fill="#eacdb0"/>
          </g>
          <g id="Group_1198396" data-name="Group 1198396" transform="translate(8.462)">
            <path id="Path_1023278" data-name="Path 1023278" d="M270.517,215.92a13.176,13.176,0,0,0-.526-3.077c-.467-1.638-2.471-2.263-4.174-2.275-3.678-.027-7.315-1.469-10.812.034-2,.859-4.733,1.2-6.519,2.352a5.472,5.472,0,0,0-1.754,1.963,8.245,8.245,0,0,0,.528,8.7,11.791,11.791,0,0,0,1.383,1.533c1.031.985,2.267,2.2,3.619,2.508-.043-1.189-1.362-4.865-.512-5.9,1.349-1.636,4.655-1.3,6.474-1.037,1.984.291,3.817,1.567,5.777,1.741a7.333,7.333,0,0,0,4.292-1.47A5.565,5.565,0,0,0,270.517,215.92Z" transform="translate(-245.735 -209.919)" fill="#3b455a"/>
          </g>
          <g id="Group_1198397" data-name="Group 1198397" transform="translate(15.91 22.151)">
            <path id="Path_1023279" data-name="Path 1023279" d="M294.1,337.489l11.222,25.62,4.344,31.8-16.073.337s1.847-23.561,1.183-26.637-1.981-9.464-3.409-16.65c-.329-1.655-2.729-14.343-2.746-14.267Z" transform="translate(-288.625 -337.489)" fill="#fff"/>
          </g>
          <g id="Group_1198398" data-name="Group 1198398" transform="translate(102.065 27.363)">
            <path id="Path_1023280" data-name="Path 1023280" d="M802.118,367.966l-1.8-.465-3.445,1.971L784.789,389.05l.9,5.41,12.816-8.428Z" transform="translate(-784.789 -367.501)" fill="#3b455a"/>
          </g>
          <g id="Group_1198401" data-name="Group 1198401" transform="translate(120.365 75.551)">
            <g id="Group_1198399" data-name="Group 1198399" transform="translate(8.862 56.383)">
              <path id="Path_1023281" data-name="Path 1023281" d="M946.445,971.609l.191,1.885-3.42,2.351-2-1.653,1.615-2.118,3.419-2.351Z" transform="translate(-941.22 -969.724)" fill="#211c18"/>
            </g>
            <g id="Group_1198400" data-name="Group 1198400">
              <path id="Path_1023282" data-name="Path 1023282" d="M904.185,645.643l.579,5.726-5.128,19.672,4.762,31.611-3.505,1.21L891.65,673l-1.467-8.978.054-19.006Z" transform="translate(-890.183 -645.015)" fill="#cab5a1"/>
            </g>
          </g>
          <g id="Group_1198404" data-name="Group 1198404" transform="translate(107.409 77.745)">
            <g id="Group_1198402" data-name="Group 1198402">
              <path id="Path_1023283" data-name="Path 1023283" d="M815.566,662.468l7.373,52.968h3.351l.6-33.953,6.1-23.831Z" transform="translate(-815.566 -657.653)" fill="#cab5a1"/>
            </g>
            <g id="Group_1198403" data-name="Group 1198403" transform="translate(5.269 57.365)">
              <path id="Path_1023284" data-name="Path 1023284" d="M851.344,988.017v1.9l-3.624,1.9-1.812-1.9,1.812-1.9Z" transform="translate(-845.908 -988.017)" fill="#211c18"/>
            </g>
          </g>
          <g id="Group_1198405" data-name="Group 1198405" transform="translate(98.813 26.104)">
            <path id="Path_1023285" data-name="Path 1023285" d="M802.386,394.074c-1.906-11.054-4.858-21.785-5.926-33.044-2.82,0-6.713-1.309-9.649-.53h0s-.05.011-.141.042a4.684,4.684,0,0,0-2.7,1.969l-.023.036a18.961,18.961,0,0,0-3.367,5.638c-2.862,6.951-14.311,47.84-14.515,58.471l.106.025a53.392,53.392,0,0,0,7.774,1.729h.009c8.007,1.219,16.965,1.207,24.253,1.084.962-.016,11.16.316,11.016-.343Q805.425,411.691,802.386,394.074Z" transform="translate(-766.065 -360.253)" fill="#3b455a"/>
          </g>
          <g id="Group_1198406" data-name="Group 1198406" transform="translate(126.72 27.392)">
            <path id="Path_1023286" data-name="Path 1023286" d="M928.823,367.669l2.9,1.783L940,391.69l-.91,5.253-5.049-.361L926.778,373.6Z" transform="translate(-926.778 -367.669)" fill="#3b455a"/>
          </g>
          <g id="Group_1198407" data-name="Group 1198407" transform="translate(114.364 10.761)">
            <path id="Path_1023287" data-name="Path 1023287" d="M856.895,271.948s-1.942,1.589-1.028,7.439a36.077,36.077,0,0,1,.366,9.689s2.011.914,3.474,0,2.011-1.1,1.463-3.474-1.645-13.711-1.645-13.711Z" transform="translate(-855.622 -271.891)" fill="#3b455a"/>
          </g>
          <g id="Group_1198408" data-name="Group 1198408" transform="translate(114.948 9.314)">
            <path id="Path_1023288" data-name="Path 1023288" d="M864.854,267.039a5.921,5.921,0,0,0-4.213,4.96,5.218,5.218,0,0,1,1.146-8.44,6.034,6.034,0,0,1,2.9,3.519Z" transform="translate(-858.987 -263.559)" fill="#3b455a"/>
          </g>
          <g id="Group_1198409" data-name="Group 1198409" transform="translate(115.637 11.596)">
            <path id="Path_1023289" data-name="Path 1023289" d="M863.253,280.879c1.147-6.068,8.716-5.019,10.888-.106,1.235,2.794.946,8.255-2.529,9.169-.053.537-.123,1.544-.533,1.9-.444.389-1.843.018-2.391-.109a.844.844,0,0,1-.421-.19,1.584,1.584,0,0,1-.164-.92,5.031,5.031,0,0,1-1.234-.244,5.87,5.87,0,0,1-3.563-3.99A11.783,11.783,0,0,1,863.253,280.879Z" transform="translate(-862.952 -276.7)" fill="#eacdb0"/>
          </g>
          <g id="Group_1198410" data-name="Group 1198410" transform="translate(117.485 6.352)">
            <path id="Path_1023290" data-name="Path 1023290" d="M873.644,249.447s-.731,3.291,3.474,4.2,6.936,4.2,6.21,7.678-3.833,6.033-2.188,6.947,7.678,0,7.678,0,3.656-12.249-1.28-17.551S875.473,245.242,873.644,249.447Z" transform="translate(-873.596 -246.501)" fill="#3b455a"/>
          </g>
          <g id="Group_1198411" data-name="Group 1198411" transform="translate(79.668 71.545)">
            <path id="Path_1023291" data-name="Path 1023291" d="M670.118,630.736l-7.973-1.635-4.293-7.155-2.044,1.635,3.067,9.609,6.747,4.089Z" transform="translate(-655.807 -621.945)" fill="#587bc9"/>
          </g>
          <g id="Group_1198412" data-name="Group 1198412" transform="translate(87.028 112.433)">
            <path id="Path_1023292" data-name="Path 1023292" d="M698.193,858.852v21.671h3.271l2.044-13.084,1.84-10.018Z" transform="translate(-698.193 -857.421)" fill="#3b455a"/>
          </g>
          <g id="Group_1198413" data-name="Group 1198413" transform="translate(94.183 111.616)">
            <path id="Path_1023293" data-name="Path 1023293" d="M739.4,852.712l1.227,9.4,1.636,15.129,3.271-.2V865.387l1.635-11.858Z" transform="translate(-739.401 -852.712)" fill="#3b455a"/>
          </g>
          <g id="Group_1198414" data-name="Group 1198414" transform="translate(82.218 80.008)">
            <path id="Path_1023294" data-name="Path 1023294" d="M680.924,670.7s-3.476-.613-4.907,4.7-5.315,20.853-5.52,29.031,5.111,2.862,11.449,3.884,11.551,1.125,11.551-2.555S695.746,670.806,680.924,670.7Z" transform="translate(-670.492 -670.682)" fill="#587bc9"/>
          </g>
          <g id="Group_1198416" data-name="Group 1198416" transform="translate(89.005 66.899)">
            <g id="Group_1198415" data-name="Group 1198415">
              <path id="Path_1023295" data-name="Path 1023295" d="M711.23,597.754c2.895-5.1,9.38-1.839,9.824,3.247.253,2.892-1.683,7.715-5.089,7.47-.213.467-.584,1.351-1.063,1.548-.519.214-1.663-.549-2.117-.832a.8.8,0,0,1-.321-.3,1.5,1.5,0,0,1,.135-.878,4.785,4.785,0,0,1-1.035-.6,5.578,5.578,0,0,1-1.979-4.683A11.2,11.2,0,0,1,711.23,597.754Z" transform="translate(-709.581 -595.189)" fill="#eacdb0"/>
            </g>
          </g>
          <g id="Group_1198417" data-name="Group 1198417" transform="translate(88.326 63.698)">
            <path id="Path_1023296" data-name="Path 1023296" d="M712.038,581.2s4.632,1.158,4.632,3.088c0,2.9.193,4.848,0,6.574l3.281-1.942,1.93-5.4s-.386-4.439-2.7-5.211a63,63,0,0,0-7.141-1.544l-3.667,1.158-2.7-.193.934,8.106S707.792,580.039,712.038,581.2Z" transform="translate(-705.669 -576.758)" fill="#305399"/>
          </g>
          <g id="Group_1198418" data-name="Group 1198418" transform="translate(96.228 80.745)">
            <path id="Path_1023297" data-name="Path 1023297" d="M751.175,674.927l5.724,2.044,5.111,12.675,4.089,9.2-2.249,1.431-6.542-9.2Z" transform="translate(-751.175 -674.927)" fill="#587bc9"/>
          </g>
          <g id="Group_1198419" data-name="Group 1198419" transform="translate(108.903 104.665)">
            <path id="Path_1023298" data-name="Path 1023298" d="M824.173,814.112l1.431,2.044.818-.818h2.453l-2.453-2.658Z" transform="translate(-824.173 -812.681)" fill="#eacdb0"/>
          </g>
          <g id="Group_1198420" data-name="Group 1198420" transform="translate(85.188 135.535)">
            <path id="Path_1023299" data-name="Path 1023299" d="M689.437,990.466l-1.84,1.84.818,1.228,3.68-1.228v-1.84Z" transform="translate(-687.597 -990.466)" fill="#242728"/>
          </g>
          <g id="Group_1198421" data-name="Group 1198421" transform="translate(97.591 135.974)">
            <path id="Path_1023300" data-name="Path 1023300" d="M759.025,993.132l.681,2.691,2.249.818,1.227-.613-1.9-3.037Z" transform="translate(-759.025 -992.991)" fill="#242728"/>
          </g>
          <g id="Group_1198422" data-name="Group 1198422" transform="translate(75.932 67.427)">
            <path id="Path_1023301" data-name="Path 1023301" d="M639.534,602.716l.155-3.18-3.722-1.3-1.675,1.675,1.117,1.3,2.895,2.49Z" transform="translate(-634.291 -598.233)" fill="#eacdb0"/>
          </g>
          <g id="Group_1198423" data-name="Group 1198423" transform="translate(115.535 54.925)">
            <path id="Path_1023302" data-name="Path 1023302" d="M863.682,526.229l-1.314,2.991v11.11l2.02.168,2.862-9.595Z" transform="translate(-862.368 -526.229)" fill="#eacdb0"/>
          </g>
          <g id="Group_1198424" data-name="Group 1198424" transform="translate(107.838 53.235)">
            <path id="Path_1023303" data-name="Path 1023303" d="M822.731,516.5l-2.065,1.877-2.628,10.889,1.69.939,4.318-8.636,3-2.441-.563-2.628Z" transform="translate(-818.037 -516.498)" fill="#eacdb0"/>
          </g>
          <g id="Group_1198425" data-name="Group 1198425" transform="translate(111.405 35.715)">
            <path id="Path_1023304" data-name="Path 1023304" d="M856.254,416.728a4.007,4.007,0,0,1,2.161,1.794c.658,1.316,2.412,7.018,1.535,10.965s-1.316,8.992-9.869,10.746c-4.167.439-3.509-3.07-6.579-3.948s-5.994-.366-4.532-5.117,4.752-5.19,7.6-10.234S852.558,414.276,856.254,416.728Z" transform="translate(-838.581 -415.601)" fill="#7db5db"/>
          </g>
          <g id="Group_1198426" data-name="Group 1198426" transform="translate(130.135 37.394)">
            <path id="Path_1023305" data-name="Path 1023305" d="M946.449,425.27l6.428,3.825,5.069,1.877-.563,2.253-5.257-.376-5.257-2.253Z" transform="translate(-946.449 -425.27)" fill="#7db5db"/>
          </g>
          <g id="Group_1198427" data-name="Group 1198427" transform="translate(141.132 43.454)">
            <path id="Path_1023306" data-name="Path 1023306" d="M1010.192,460.169l2.9.229v.541l-1.443.721.181.361-2.047-.211Z" transform="translate(-1009.78 -460.169)" fill="#eacdb0"/>
          </g>
          <g id="Group_1198428" data-name="Group 1198428" transform="translate(113.47 33.744)">
            <path id="Path_1023307" data-name="Path 1023307" d="M860.8,405.9l-5.445.751-3.919-2.406-.962,1.28,3.38,3.755,3.943,1.127Z" transform="translate(-850.474 -404.248)" fill="#7db5db"/>
          </g>
          <g id="Group_1198429" data-name="Group 1198429" transform="translate(122.294 23.963)">
            <path id="Path_1023308" data-name="Path 1023308" d="M906.161,349.892s-3.61,1.409-4,4.621a3.762,3.762,0,0,1-.335-4.234c1.384-2.127,2.173-2.913,4.261-1.955S906.161,349.892,906.161,349.892Z" transform="translate(-901.292 -347.92)" fill="#305399"/>
          </g>
          <g id="Group_1198430" data-name="Group 1198430" transform="translate(123.059 25.934)">
            <path id="Path_1023309" data-name="Path 1023309" d="M906.212,362.147c1.387-4.61,7.169-3.177,8.45.811.728,2.268.057,6.478-2.712,6.9-.085.412-.222,1.187-.569,1.432-.376.265-1.43-.137-1.845-.28a.656.656,0,0,1-.311-.181,1.236,1.236,0,0,1-.052-.727,3.931,3.931,0,0,1-.937-.29,4.577,4.577,0,0,1-2.435-3.386A9.191,9.191,0,0,1,906.212,362.147Z" transform="translate(-905.695 -359.274)" fill="#eacdb0"/>
          </g>
          <g id="Group_1198431" data-name="Group 1198431" transform="translate(125.592 22.519)">
            <path id="Path_1023310" data-name="Path 1023310" d="M920.852,344.1c1.265,2.06,3.828,2.723,5.027,4.716,0,0,.783,1.3-.031,3.838A4.353,4.353,0,0,0,930.3,350.9c1.767-2.449.168-8.36.168-8.36a9.941,9.941,0,0,0-7.132-2.93c-1.5.03-3.016.832-3.053,2.525A3.569,3.569,0,0,0,920.852,344.1Z" transform="translate(-920.285 -339.607)" fill="#305399"/>
          </g>
          <g id="Group_1198432" data-name="Group 1198432" transform="translate(119.879 35.399)">
            <path id="Path_1023311" data-name="Path 1023311" d="M897.682,415.845s-.188,2.441-1.5,2.441a9.4,9.4,0,0,1-4.506-1.69c-.563-.751.5-2.349.5-2.349l-.876-.468s-6.2,7.885-3,9.951,7.51,3.379,8.824.751,1.4-8.061,1.4-8.061Z" transform="translate(-887.381 -413.78)" fill="#bcbec0"/>
          </g>
          <g id="Group_1198433" data-name="Group 1198433" transform="translate(113.658 68.818)">
            <path id="Path_1023312" data-name="Path 1023312" d="M853.245,606.241l-1.69,1.314.563.751,3-.563.375-1.314Z" transform="translate(-851.555 -606.241)" fill="#211c18"/>
          </g>
          <g id="Group_1198434" data-name="Group 1198434" transform="translate(106.148 65.251)">
            <path id="Path_1023313" data-name="Path 1023313" d="M811.873,587.011l-1.69-1.22-1.5-.094-.375,1.127,3.192,1.126Z" transform="translate(-808.306 -585.697)" fill="#211c18"/>
          </g>
          <g id="Group_1198435" data-name="Group 1198435" transform="translate(141.151 43.284)">
            <path id="Path_1023314" data-name="Path 1023314" d="M1010.31,459.247l2.69-.055v.563l-2.066,1.126.377.376-.377.188-1.044-.519Z" transform="translate(-1009.89 -459.192)" fill="#eacdb0"/>
          </g>
          <g id="Group_1198436" data-name="Group 1198436" transform="translate(111.968 32.77)">
            <path id="Path_1023315" data-name="Path 1023315" d="M844.187,399.787l-.485-.956-1.314-.188-.563.939.376,1.126,1.146.119Z" transform="translate(-841.824 -398.643)" fill="#eacdb0"/>
          </g>
          <g id="Group_1198437" data-name="Group 1198437" transform="translate(141.128 27.395)">
            <path id="Path_1023316" data-name="Path 1023316" d="M1048.2,367.685c-11.233,6.941-19.411,3.476-20.538,2.936,0,0-.047-.077-.067-.033-.044-.022-.032.068-.032.068-.537,1.129-4.711,8.968-17.81,10.642,0,0,5.882,22.549,16.135,28.967,10.951,6.855,18.365,7.475,18.388,7.439.041.013,5.487-5.1,9.611-17.353C1057.746,388.886,1048.2,367.685,1048.2,367.685Z" transform="translate(-1009.754 -367.685)" fill="#3b455a"/>
          </g>
          <g id="Group_1198438" data-name="Group 1198438" transform="translate(143.704 30.276)">
            <path id="Path_1023317" data-name="Path 1023317" d="M1059.478,384.28c-10.21,6.253-17.6,3.206-18.614,2.73,0,0-.042-.069-.061-.029-.04-.019-.029.06-.029.06-.492,1.01-4.315,8.027-16.185,9.591,0,0,5.2,20.086,14.455,25.757,9.88,6.057,16.768,7.093,16.79,7.061.037.012,4.818-5.1,8.618-16.057C1068.007,403.144,1059.478,384.28,1059.478,384.28Z" transform="translate(-1024.59 -384.28)" fill="#576682"/>
          </g>
          <g id="Group_1198440" data-name="Group 1198440" transform="translate(143.343 29.265)">
            <g id="Group_1198439" data-name="Group 1198439">
              <path id="Path_1023318" data-name="Path 1023318" d="M1039.735,384.151s-.011-.084.03-.063c.02-.042.063.03.063.03,1.046.488,8.5,3.566,18.875-2.489-.757-1.967-1.3-3.173-1.3-3.173-10.21,6.253-17.6,3.206-18.614,2.73,0,0-.042-.069-.061-.029-.04-.019-.029.06-.029.06-.492,1.01-4.315,8.027-16.185,9.591,0,0,.332,1.281.977,3.286C1035.368,392.277,1039.228,385.189,1039.735,384.151Z" transform="translate(-1022.514 -378.456)" fill="#637493"/>
            </g>
          </g>
          <g id="Group_1198441" data-name="Group 1198441" transform="translate(148.94 36.85)" opacity="0.34">
            <path id="Path_1023319" data-name="Path 1023319" d="M1083.038,422.136c-7.7,4.759-14.372,2.535-15.145,2.165,0,0-.032-.053-.046-.022-.03-.015-.022.046-.022.046-.368.774-4.1,6.67-13.084,7.818,0,0,4.906,14.938,11.936,19.338,7.508,4.7,12.591,5.125,12.607,5.1.028.009,3.762-3.5,6.589-11.9C1088.518,436.824,1083.038,422.136,1083.038,422.136Z" transform="translate(-1054.742 -422.136)" fill="#fff"/>
          </g>
          <g id="Group_1198442" data-name="Group 1198442" transform="translate(71.229 63.39)">
            <path id="Path_1023320" data-name="Path 1023320" d="M609.987,574.981l4.131,2.42,1.317,5.267-2.445.564-3.2-3.574-2.585-1.929Z" transform="translate(-607.206 -574.981)" fill="#e2b893"/>
          </g>
          <g id="Group_1198443" data-name="Group 1198443" transform="translate(102.08 46.861)">
            <path id="Path_1023321" data-name="Path 1023321" d="M784.878,481.845l5.517-2.055,18.238,9.446-2.068,3.563-20.748-5.49Z" transform="translate(-784.878 -479.791)" fill="#3b455a"/>
          </g>
          <g id="Group_1198444" data-name="Group 1198444" transform="translate(124.036 56.886)">
            <path id="Path_1023322" data-name="Path 1023322" d="M912.63,537.751l1.7-.228,1.345.168v.622l1.521-.589-1.017,2.32-2.858.5-2-.54Z" transform="translate(-911.32 -537.523)" fill="#eacdb0"/>
          </g>
          <g id="Group_1198445" data-name="Group 1198445" transform="translate(115.589 42.961)">
            <path id="Path_1023323" data-name="Path 1023323" d="M887.019,465.807l-6.311-4.328-16.41-4.147-1.623,3.426,18.393,9.918,5,.341Z" transform="translate(-862.676 -457.332)" fill="#3b455a"/>
          </g>
          <g id="Group_1198446" data-name="Group 1198446" transform="translate(112.884 43.309)">
            <path id="Path_1023324" data-name="Path 1023324" d="M851.246,459.336l-3.062.884-1.086,1.737.53,2.233.99-1.364,1.495-1.062Z" transform="translate(-847.099 -459.336)" fill="#eacdb0"/>
          </g>
          <rect id="Rectangle_462472" data-name="Rectangle 462472" width="35.539" height="47.303" transform="translate(15.295 24.485) rotate(14.916)" fill="#305399"/>
          <g id="Group_1198447" data-name="Group 1198447" transform="translate(6.211 34.625)" opacity="0.26">
            <path id="Path_1023325" data-name="Path 1023325" d="M232.767,443.612l.514.137,30.077,9.015,10.719-43.44-1.517.029Z" transform="translate(-232.767 -409.324)"/>
          </g>
          <g id="Group_1198448" data-name="Group 1198448" transform="translate(5.375 26.403)">
            <rect id="Rectangle_462473" data-name="Rectangle 462473" width="31.954" height="43.765" transform="translate(11.265 0) rotate(14.916)" fill="#fffff1"/>
          </g>
          <g id="Group_1198449" data-name="Group 1198449" transform="translate(11.515 26.195)" opacity="0.05">
            <path id="Path_1023326" data-name="Path 1023326" d="M268.319,360.777l22.209,5.915-27.213,12.724Z" transform="translate(-263.316 -360.777)"/>
          </g>
          <g id="Group_1198453" data-name="Group 1198453" transform="translate(25.098 23.588)">
            <g id="Group_1198450" data-name="Group 1198450" transform="translate(0 4.917)" opacity="0.12">
              <rect id="Rectangle_462474" data-name="Rectangle 462474" width="13.878" height="1.299" transform="translate(0.334 0) rotate(14.916)"/>
            </g>
            <g id="Group_1198452" data-name="Group 1198452" transform="translate(0.004)">
              <g id="Group_1198451" data-name="Group 1198451">
                <path id="Path_1023327" data-name="Path 1023327" d="M353.571,349.721l-.208-.055.037-.14a2.677,2.677,0,0,0-2.113-3.119l-2-.533a2.677,2.677,0,0,0-3.384,1.655l-.037.14-.208-.055a2.677,2.677,0,0,0-3.384,1.655l-.71,2.667,13.41,3.571.71-2.667A2.677,2.677,0,0,0,353.571,349.721Zm-2.2-.528-3.533-.941a.678.678,0,1,1,.349-1.31l3.533.941a.678.678,0,1,1-.349,1.31Z" transform="translate(-341.563 -345.763)" fill="#c4d3d3"/>
              </g>
            </g>
          </g>
          <g id="Group_1198457" data-name="Group 1198457" transform="translate(11.625 39.305)" opacity="0.47">
            <g id="Group_1198454" data-name="Group 1198454" transform="translate(4.453)">
              <path id="Path_1023328" data-name="Path 1023328" d="M295.638,437.492l-4.533-1.207a.248.248,0,0,0-.3.173l-1.2,4.522a.248.248,0,0,0,.173.3l4.533,1.207a.226.226,0,0,0,.176-.021l.01-.005.006,0a.225.225,0,0,0,.107-.143l1.2-4.522A.248.248,0,0,0,295.638,437.492Zm-1.44,4.459-4.061-1.082,1.079-4.051,4.061,1.082Z" transform="translate(-289.594 -436.276)" fill="#242728"/>
            </g>
            <g id="Group_1198455" data-name="Group 1198455" transform="translate(2.227 8.36)">
              <path id="Path_1023329" data-name="Path 1023329" d="M282.815,485.64l-4.533-1.207a.248.248,0,0,0-.3.173l-1.2,4.522a.248.248,0,0,0,.173.3l4.533,1.207a.225.225,0,0,0,.176-.021l.01-.005.006,0a.225.225,0,0,0,.107-.143l1.2-4.522A.247.247,0,0,0,282.815,485.64Zm-1.44,4.459-4.061-1.082,1.079-4.051,4.061,1.082Z" transform="translate(-276.771 -484.424)" fill="#242728"/>
            </g>
            <g id="Group_1198456" data-name="Group 1198456" transform="translate(0 16.721)">
              <path id="Path_1023330" data-name="Path 1023330" d="M269.992,533.789l-4.533-1.207a.248.248,0,0,0-.3.173l-1.2,4.522a.247.247,0,0,0,.173.3l4.533,1.207a.226.226,0,0,0,.176-.02l.01-.005.006,0a.225.225,0,0,0,.107-.143l1.2-4.522A.248.248,0,0,0,269.992,533.789Zm-1.44,4.459-4.061-1.082,1.079-4.051,4.061,1.082Z" transform="translate(-263.948 -532.573)" fill="#242728"/>
            </g>
          </g>
          <g id="Group_1198458" data-name="Group 1198458" transform="translate(18.66 40.301)">
            <path id="Path_1023331" data-name="Path 1023331" d="M304.464,443.142l1.134-.069.3,1.193,5.932-2.254.548.27-7.05,3.193Z" transform="translate(-304.464 -442.012)" fill="#6bac8f"/>
          </g>
          <g id="Group_1198459" data-name="Group 1198459" transform="translate(15.999 48.773)">
            <path id="Path_1023332" data-name="Path 1023332" d="M289.141,491.931l1.134-.069.3,1.193,5.932-2.254.548.27-7.049,3.193Z" transform="translate(-289.141 -490.802)" fill="#6bac8f"/>
          </g>
          <g id="Group_1198460" data-name="Group 1198460" transform="translate(13.798 56.661)">
            <path id="Path_1023333" data-name="Path 1023333" d="M276.46,537.358l1.134-.069.3,1.193,5.932-2.254.548.269-7.049,3.193Z" transform="translate(-276.46 -536.229)" fill="#6bac8f"/>
          </g>
          <g id="Group_1198461" data-name="Group 1198461" transform="translate(19.484 59.855)" opacity="0.32">
            <rect id="Rectangle_462475" data-name="Rectangle 462475" width="16.55" height="2.34" transform="translate(0.602 0) rotate(14.916)" fill="#242728"/>
          </g>
          <g id="Group_1198462" data-name="Group 1198462" transform="translate(21.843 51)" opacity="0.32">
            <rect id="Rectangle_462476" data-name="Rectangle 462476" width="16.55" height="2.34" transform="translate(0.602 0) rotate(14.916)" fill="#242728"/>
          </g>
          <g id="Group_1198463" data-name="Group 1198463" transform="translate(24.202 42.145)" opacity="0.32">
            <rect id="Rectangle_462477" data-name="Rectangle 462477" width="16.55" height="2.34" transform="translate(0.602 0) rotate(14.916)" fill="#242728"/>
          </g>
          <g id="Group_1198464" data-name="Group 1198464" transform="translate(182.671 23.847)">
            <path id="Path_1023334" data-name="Path 1023334" d="M1249,347.251l3.426,2.344,10.639,24.344-3.606,5.41-5.411-3.066Z" transform="translate(-1249 -347.251)" fill="#587bc9"/>
          </g>
          <g id="Group_1198465" data-name="Group 1198465" transform="translate(167.342 46.387)">
            <path id="Path_1023335" data-name="Path 1023335" d="M1190.114,481.211l-7.032-4.148L1160.72,484.1l1.083,5.229,24.7-2.7Z" transform="translate(-1160.72 -477.063)" fill="#587bc9"/>
          </g>
          <g id="Group_1198466" data-name="Group 1198466" transform="translate(158.326 54.502)">
            <path id="Path_1023336" data-name="Path 1023336" d="M1118,523.8l-5.409.361-3.787,2.885,1.8,1.8,4.688-.721,3.275-1.242Z" transform="translate(-1108.8 -523.796)" fill="#eacdb0"/>
          </g>
          <g id="Group_1198467" data-name="Group 1198467" transform="translate(145.883 36.886)">
            <path id="Path_1023337" data-name="Path 1023337" d="M1043.143,422.988l-2.313-.641-3.278,1.435-.411,4.1h2.665l2.042-4.159Z" transform="translate(-1037.14 -422.347)" fill="#eacdb0"/>
          </g>
          <g id="Group_1198468" data-name="Group 1198468" transform="translate(0 42.961)">
            <path id="Path_1023338" data-name="Path 1023338" d="M197,463.283l5.59-3.426,22.541-2.525.721,3.967L206.1,468.254l-5.128-.463Z" transform="translate(-197 -457.332)" fill="#7db5db"/>
          </g>
          <g id="Group_1198469" data-name="Group 1198469" transform="translate(28.229 42.059)">
            <path id="Path_1023339" data-name="Path 1023339" d="M359.572,453.582l4.229-1.443,4.148,1.443-.541,1.984H363.8l-1.015.846-2.764-.356Z" transform="translate(-359.572 -452.139)" fill="#eacdb0"/>
          </g>
          <g id="Group_1198470" data-name="Group 1198470" transform="translate(40.621 30.366)">
            <path id="Path_1023340" data-name="Path 1023340" d="M430.934,385.635l1.937-.837,3.525,1.692.282,4.231h-2.115l-2.679-4.842Z" transform="translate(-430.934 -384.798)" fill="#eacdb0"/>
          </g>
        </g>
      </g>
    </g>
  </g>
</svg>
