<svg xmlns="http://www.w3.org/2000/svg" width="84" height="84" viewBox="0 0 84 84">
  <g id="img12" transform="translate(-185 -3232)">
    <rect id="Rectangle_461427" data-name="Rectangle 461427" width="84" height="84" rx="9" transform="translate(185 3232)" fill="#9c3413"/>
    <g id="Group_1199267" data-name="Group 1199267" transform="translate(197.072 3244.071)">
      <g id="Group_1199266" data-name="Group 1199266" transform="translate(0 0.002)">
        <g id="Group_1199265" data-name="Group 1199265" transform="translate(0 0)">
          <path id="Path_1025731" data-name="Path 1025731" d="M283.52,166.623v0Z" transform="translate(-250.375 -147.137)" fill="#fff"/>
          <path id="Path_1025732" data-name="Path 1025732" d="M59.83,54.962c0-.007,0-.015,0-.022-2.1-18.755-1.985-17.96-2.145-18.738a6.319,6.319,0,0,0-4.788-4.751l-5.614-1.4v-.27h5.275a2.289,2.289,0,0,0,2.287-2.258L55.5,16.4a.877.877,0,0,0-1.751-.1c-.686,11.645-.659,11.147-.659,11.2a.54.54,0,0,1-.533.533H47.28V27.8a9.325,9.325,0,0,0,.891-.511,9.759,9.759,0,0,0,3.523-4.013c1.285-2.706.856-4.822.94-6.21a1.74,1.74,0,0,0-1.669-1.743h0a14.034,14.034,0,0,1-10.6-5.023,1.5,1.5,0,0,0-2.3-.079,6.274,6.274,0,0,1-3.475,2.016A1.79,1.79,0,0,0,33.137,14c0,5.344-.007,5.083.008,5.484.01.264.036.6.073.882a9.749,9.749,0,0,0,4.418,6.949,9.307,9.307,0,0,0,.821.471v.244h-5.12A.54.54,0,0,1,32.8,27.5c0-.048-.707-12.017-.711-12.046-.01-.091-.979-9.124,4.093-10.239a.864.864,0,0,0,.589-.45c.089-.167,2.258-4.072,9.165-2.727.034.007.335.1.361.113a10.817,10.817,0,0,1,7.488,10.126.877.877,0,1,0,1.754-.031,12.47,12.47,0,0,0-.326-2.649A12.623,12.623,0,0,0,46.864.487a5.191,5.191,0,0,0-.589-.174c-5.413-1.054-9.119.751-10.834,3.278-2.587.735-4.282,3.042-4.913,6.7a21.047,21.047,0,0,0-.179,5.333c.821,12.688.54,12.209,1.015,13.021a8.46,8.46,0,0,0-1.655-.1H29.7a8.65,8.65,0,0,0-5.465,2.215l-.7-.174L21.4,29.562v-1.78a9.837,9.837,0,0,0,5.316-8.692c2.4-.523,3.513-2.953,2.209-4.78,0-.02,0-1.968-.011-2.867A11.96,11.96,0,0,0,12.948.694,12.122,12.122,0,0,0,5.222,9.709c-.018.095-.065.357-.072.413a23.967,23.967,0,0,0-.14,4.189c-1.3,1.829-.189,4.258,2.209,4.78A9.724,9.724,0,0,0,12.577,27.8v1.739l-2.22,1.063c-2.579.761-4.572.711-6.556,2.605-.14.135-.281.292-.267.277a6.161,6.161,0,0,0-1.516,3.674L.029,54.94c0,.007,0,.015,0,.023a7.01,7.01,0,0,0-.025.71,3.993,3.993,0,0,0,4.121,4.184H12.1a.877.877,0,0,0,0-1.754H8.493l.869-16.446a.877.877,0,1,0-1.751-.092l-.183,3.459-4.473-.469c0-.013.826-7.567.976-8.171.813-3.2,4.284-3.339,6.435-3.973l2.7,3.451a1.742,1.742,0,0,0,1.269.666c.034,0,.069,0,.1,0a2.289,2.289,0,0,0,1.656-.938v4.243a.877.877,0,1,0,1.754,0V35.591a2.228,2.228,0,0,0,1.759.935c1.156-.068,1.495-1.09,2.124-1.76a9.754,9.754,0,0,0-.335,3.126,2.83,2.83,0,0,0-.439,3.415,11.444,11.444,0,0,0-1.592,2.9c-.35.892-.664,1.632-.185,2.455.608,1.044,1.684.88,2.646,1.171a1.519,1.519,0,0,0,1.149-.216c1.243-.808.362-1.853.755-3.625a6.753,6.753,0,0,0,2.857,3.324h0c.014.008.054.034.188.108v1.093c-3.118.777-4.172.95-5.068,1.572a5.937,5.937,0,0,0-.553.44A3.96,3.96,0,0,0,20,52.318h0c-.317,1.029-.222,1.676-.749,5.784h-3.06a.877.877,0,1,0,0,1.754H43.83a.877.877,0,1,0,0-1.754h-3.1c-.542-4.8-.473-5.615-1.212-6.76-1.247-1.917-3.307-2.074-6.308-2.821V47.441c.133-.072.2-.113.211-.12h0a7.174,7.174,0,0,0,1.508-1.205A6.733,6.733,0,0,0,36.279,44a7.641,7.641,0,0,1,.051,2.238,1.544,1.544,0,0,0,.993,1.535c.576.22.913.045,2.291-.23a1.837,1.837,0,0,0,1.371-1.226,2.061,2.061,0,0,0-.1-1.445,12.532,12.532,0,0,0-1.834-3.563,2.787,2.787,0,0,0,.035-2.765,10.938,10.938,0,0,0,3.78-2.241c4.6,3.993,8.492,3.206,8.81-3.347.18.083,3.646.493,4.288,3.6.189.913.185,1.5.936,8l-4.438.466-.182-3.453a.877.877,0,0,0-1.751.092L51.4,58.1H47.923a.877.877,0,0,0,0,1.754h7.812C58.157,59.857,60.1,58.1,59.83,54.962ZM7.282,46.771,6.713,58.1c-2.074-.112-3.345.322-4.275-.62a2.576,2.576,0,0,1-.683-1.827c-.011-.619.025-.433,1.006-9.359ZM34.891,19.1V14a.035.035,0,0,1,.027-.036,8.012,8.012,0,0,0,4.252-2.35,15.678,15.678,0,0,0,11.71,5.464,19.854,19.854,0,0,1-.118,3.4,7.944,7.944,0,0,1-1.886,3.916A7.993,7.993,0,0,1,34.891,19.1Zm3.566,10.683v.27h0l-2.715.676a8.636,8.636,0,0,0-1.279-.946h3.993ZM26.715,17.26V14.732A1.3,1.3,0,0,1,26.715,17.26Zm-19.5,0a1.3,1.3,0,0,1,0-2.529Zm.758-4.45a4.059,4.059,0,0,0-1.214.22,10.647,10.647,0,0,1,3.432-8.7l.012-.011a10.2,10.2,0,0,1,16.934,6.858c.041.55.028.963.03,1.857a4.056,4.056,0,0,0-1.213-.22,2.544,2.544,0,0,1-1.214-1.746c-.14-.677.053-1.5-.84-2.246-1.541-1.286-3.02.54-10.5-.257l-1.66-.217a2.142,2.142,0,0,0-2.477,2.1c0,.05-.007.142-.014.217A2.567,2.567,0,0,1,7.977,12.81ZM9.21,21.042c-.424-1.863-.139-2.264-.237-6.785a4.432,4.432,0,0,0,2.047-3.818c.028-1.123,2.034.887,11.444-.363a.387.387,0,0,1,.452.363,4.47,4.47,0,0,0,1.412,3.333,4.146,4.146,0,0,0,.635.486,54.105,54.105,0,0,1-.066,5.881A8,8,0,0,1,14.5,26.7,8.156,8.156,0,0,1,9.21,21.042ZM14.435,34.77l-2.361-3.022,1.188-.568,2.449,2.305Zm2.532-2.511L14.33,29.776V28.485a9.778,9.778,0,0,0,5.295-.006v1.277ZM19.5,34.77l-1.275-1.285,2.463-2.319,1.185.567ZM21.9,46.064c-1.141-.246-1.225-.217-1.224-.32a11.861,11.861,0,0,1,1.548-3.213l.114.06A6.872,6.872,0,0,0,21.9,46.064Zm1.341-4.987a1.224,1.224,0,0,1,0-2.371Zm10.794,9.458a10.983,10.983,0,0,1,3.3,1.042c1.3.991,1.066,1.524,1.629,6.525H36.617l-.092-1.735a.877.877,0,0,0-.875-.831H35.6a.877.877,0,0,0-.829.922l.087,1.643H25.144l.087-1.643a.877.877,0,0,0-1.751-.092L23.388,58.1H21.016c.636-5.641.464-4.264.581-4.968.451-2.068,2.589-2.086,4.368-2.605a4.49,4.49,0,0,0,.087.541,4.2,4.2,0,0,0,.5,1.234,4.1,4.1,0,0,0,4.969,1.583l.011,0A4.034,4.034,0,0,0,34.039,50.535Zm-3.954-2.287a6.512,6.512,0,0,0,1.373-.156c.037.215-.237,1.693.849,2.01a2.3,2.3,0,0,1-1.858,2.282,2.442,2.442,0,0,1-.556.04,2.25,2.25,0,0,1-.572-.1,2.308,2.308,0,0,1-.454-.2l-.01-.006,0,0h0a2.332,2.332,0,0,1-1.1-1.477A2.937,2.937,0,0,1,27.7,50.1a1.326,1.326,0,0,0,.826-1.3v-.707A6.763,6.763,0,0,0,30.084,48.249Zm4.88-6.1a5.013,5.013,0,0,1-2.281,3.573,4.714,4.714,0,0,1-1.232.565,5.018,5.018,0,0,1-3.316-.147l-.011,0a4.977,4.977,0,0,1-3.039-3.712,33.8,33.8,0,0,1-.087-4.1,5.5,5.5,0,0,0,5-1.673,5.5,5.5,0,0,0,5,1.673A38.107,38.107,0,0,1,34.964,42.144Zm.385-5.649c-2.768.56-3.853-.687-4.191-1.249a1.349,1.349,0,0,0-2.313,0c-.338.562-1.422,1.808-4.191,1.249a1.168,1.168,0,0,0-1.053.312,3.959,3.959,0,0,0-.451.085,6.4,6.4,0,0,1,.142-1.159,6.856,6.856,0,0,1,13.561,1.159,3.939,3.939,0,0,0-.451-.086A1.168,1.168,0,0,0,35.349,36.5Zm1.41,4.582V38.706A1.224,1.224,0,0,1,36.76,41.077ZM39.32,45.72c0,.008-.1.1-1.22.343a6.991,6.991,0,0,0-.437-3.472l.114-.06A11.481,11.481,0,0,1,39.32,45.72Zm-.713-8.864a8.6,8.6,0,0,0-.425-2.4A8,8,0,0,0,40.792,35.7,7.767,7.767,0,0,1,38.608,36.857Zm-.528-4.9a11.747,11.747,0,0,0,1.288-.335,1.605,1.605,0,0,0,.843-1.5V28.474a9.782,9.782,0,0,0,5.316.01v1.631a1.536,1.536,0,0,0,.993,1.555l.017,0,1.118.278A6.2,6.2,0,0,1,38.08,31.954Zm8.448-.281h0Zm1.922,5.2c-1.02.426-2.625-.534-3.521-1.182a8.235,8.235,0,0,0,4.583-3.276l.428.106C49.866,34.965,49.344,36.5,48.45,36.873Zm8.969,20.609c-.93.942-2.193.508-4.264.62l-.6-11.332,4.54-.476c1.079,10.022.986,8.31,1.006,9.4A2.594,2.594,0,0,1,57.418,57.482Z" transform="translate(0 -0.002)" fill="#fff"/>
        </g>
      </g>
    </g>
  </g>
</svg>
