<svg xmlns="http://www.w3.org/2000/svg" width="369" height="186" viewBox="0 0 369 186">
  <g id="img24" transform="translate(-913 -7090)">
    <rect id="Rectangle_462044" data-name="Rectangle 462044" width="369" height="186" rx="20" transform="translate(913 7090)" fill="#e1c1b7"/>
    <g id="_13529870_5282457" data-name="13529870_5282457" transform="translate(930 7058.162)">
      <g id="OBJECTS" transform="translate(18.469 53.889)">
        <g id="Group_1198473" data-name="Group 1198473" transform="translate(12.561)">
          <rect id="Rectangle_462479" data-name="Rectangle 462479" width="50.126" height="144.075" transform="translate(0 19.154)" fill="#d4d6f9"/>
          <rect id="Rectangle_462480" data-name="Rectangle 462480" width="50.126" height="163.23" transform="translate(147.786)" fill="#d4d6f9"/>
          <rect id="Rectangle_462481" data-name="Rectangle 462481" width="50.126" height="124.901" transform="translate(77.914 38.329)" fill="#d4d6f9"/>
          <rect id="Rectangle_462482" data-name="Rectangle 462482" width="50.126" height="101.969" transform="translate(222.812 61.261)" fill="#d4d6f9"/>
        </g>
        <g id="Group_1198514" data-name="Group 1198514" transform="translate(0 45.412)">
          <path id="Path_1023341" data-name="Path 1023341" d="M51.709,164.692s16.068-1.735,14.926,18.827,1.032,22.8,1.032,22.8-32.156,1.554-36.26-11.452S35.068,162.962,51.709,164.692Z" transform="translate(-25.37 -163.723)" fill="#222221"/>
          <path id="Path_1023342" data-name="Path 1023342" d="M181.933,162.6s16.433-1.868,19.629,13.566,14.1,23.392,3.1,33.283-30.178,9.074-30.178,9.074h0a24.9,24.9,0,0,1-9.209-26.612,78.7,78.7,0,0,0,2.024-9.31C167.938,178.181,162.2,163.749,181.933,162.6Z" transform="translate(-103.39 -162.529)" fill="#271e6d"/>
          <path id="Path_1023343" data-name="Path 1023343" d="M167.962,321.084l7.319-3.42,2.566,8.092s-2.5,1.6-7.461.994Z" transform="translate(-105.474 -252.817)" fill="#bc6f63"/>
          <g id="Group_1198479" data-name="Group 1198479" transform="translate(9.538 17.237)">
            <path id="Path_1023344" data-name="Path 1023344" d="M48.864,206.989s-4.772-5.917-7-1.718,2.291,9.862,8.208,7Z" transform="translate(-41.286 -203.765)" fill="#e8af8e"/>
            <path id="Path_1023345" data-name="Path 1023345" d="M42.035,212.363a3.029,3.029,0,0,0,2.192,1.724c2.493.381,3.894-2.865,3.407-5.718a14.007,14.007,0,0,1,1.234,1.3l1.209,5.281c-5.044,2.441-9.068-1.314-8.767-5.076A9.359,9.359,0,0,0,42.035,212.363Z" transform="translate(-41.29 -206.445)" fill="#cf866b"/>
            <g id="Group_1198478" data-name="Group 1198478" transform="translate(1.969 3.195)">
              <g id="Group_1198475" data-name="Group 1198475">
                <g id="Group_1198474" data-name="Group 1198474">
                  <path id="Path_1023346" data-name="Path 1023346" d="M48.3,214.2a3.17,3.17,0,0,0-.935-2.143,3.043,3.043,0,0,0-1.015-.635.276.276,0,0,0-.337.191.281.281,0,0,0,.191.337,2.366,2.366,0,0,1,.73.454,2.174,2.174,0,0,1,.462.585c.027.048.053.1.077.145.013.025.025.051.037.078s.041.094.02.044q.059.144.1.293c.048.16.074.321.107.485-.016-.08,0-.007,0,.034,0,.023,0,.047.006.071s0,.041,0,.062a.274.274,0,0,0,.548,0Z" transform="translate(-45.998 -211.408)" fill="#222221"/>
                </g>
              </g>
              <g id="Group_1198477" data-name="Group 1198477" transform="translate(0.33 1.161)">
                <g id="Group_1198476" data-name="Group 1198476">
                  <path id="Path_1023347" data-name="Path 1023347" d="M48.009,214.193a1.459,1.459,0,0,0-.436.191,1.66,1.66,0,0,0-.667.805,1.918,1.918,0,0,0-.118.777.274.274,0,0,0,.548,0c0-.055,0-.11,0-.166,0-.028,0-.056.005-.084,0-.01,0-.02,0-.031,0-.026-.007-.066,0-.006a.44.44,0,0,1,.024-.13,1.457,1.457,0,0,1,.041-.145c.006-.019.013-.037.02-.056.026-.069-.016.031,0-.01s.036-.075.057-.111.038-.064.06-.094c.006-.008.048-.065.017-.024s.014-.016.023-.026a1.286,1.286,0,0,1,.143-.143l.033-.028c.027-.023-.058.042-.008.006l.075-.052a1.507,1.507,0,0,1,.14-.08l.056-.026.015-.007c.032-.015-.051.021-.044.018l.031-.012a.894.894,0,0,1,.125-.041.276.276,0,0,0,.191-.337.281.281,0,0,0-.338-.191Z" transform="translate(-46.787 -214.185)" fill="#222221"/>
                </g>
              </g>
            </g>
          </g>
          <path id="Path_1023348" data-name="Path 1023348" d="M57.627,231.35l-.321,7.13a3.529,3.529,0,0,1-1.262,2.548l-3.181,2.659s6.069,8.419,11.963,8.473c2.888.027,5.923-4.871,7.75-8.146l-3.092-2.857a3.528,3.528,0,0,1-1.129-2.778l.238-4.482Z" transform="translate(-38.486 -202.583)" fill="#e8af8e"/>
          <path id="Path_1023349" data-name="Path 1023349" d="M63.97,234.048l.122-2.7L75.058,233.9l-.22,4.137C73.706,238.921,66.793,242.642,63.97,234.048Z" transform="translate(-44.951 -202.583)" fill="#a8624b"/>
          <path id="Path_1023350" data-name="Path 1023350" d="M66.093,170.4s11.449,3.171,7.614,16.582a3.3,3.3,0,0,0-.025,1.669c.538,2.276,1.92,9.222-8.963,12.038a3.1,3.1,0,0,1-1.275.054C60.687,200.3,50.6,197.8,50.232,185.22,49.8,170.646,66.093,170.4,66.093,170.4Z" transform="translate(-36.951 -167.111)" fill="#e8af8e"/>
          <g id="Group_1198481" data-name="Group 1198481" transform="translate(28.054 17.703)">
            <g id="Group_1198480" data-name="Group 1198480">
              <path id="Path_1023351" data-name="Path 1023351" d="M86.617,210.986a2.67,2.67,0,0,0,1.035-.818,1.175,1.175,0,0,0-.108-1.449,10.917,10.917,0,0,1-.85-1.281,4.562,4.562,0,0,1-.432-2.234c.015-.433-.659-.433-.673,0a5.308,5.308,0,0,0,.361,2.214,6.4,6.4,0,0,0,.807,1.357c.193.26.573.627.374.964a1.942,1.942,0,0,1-.852.665c-.392.184-.051.765.34.581Z" transform="translate(-85.584 -204.88)" fill="#222221"/>
            </g>
          </g>
          <path id="Path_1023352" data-name="Path 1023352" d="M68.662,218.329c0,1.12-1.231,2.027-2.75,2.027s-2.75-.908-2.75-2.027,1.231-2.027,2.75-2.027S68.662,217.21,68.662,218.329Z" transform="translate(-44.481 -193.825)" fill="#d46a55"/>
          <path id="Path_1023353" data-name="Path 1023353" d="M97.621,218.041c0,1.12-1.231,2.027-2.75,2.027s-2.75-.907-2.75-2.027,1.231-2.027,2.75-2.027S97.621,216.922,97.621,218.041Z" transform="translate(-61.335 -193.657)" fill="#d46a55"/>
          <g id="Group_1198483" data-name="Group 1198483" transform="translate(23.989 25.642)">
            <g id="Group_1198482" data-name="Group 1198482">
              <path id="Path_1023354" data-name="Path 1023354" d="M75.916,224.366a4.395,4.395,0,0,0,3.3,2.112,5.225,5.225,0,0,0,3.881-1.3c.324-.289-.153-.764-.476-.476a4.555,4.555,0,0,1-3.325,1.109,3.676,3.676,0,0,1-2.8-1.784c-.239-.36-.822-.023-.581.339Z" transform="translate(-75.859 -223.873)" fill="#222221"/>
            </g>
          </g>
          <path id="Path_1023355" data-name="Path 1023355" d="M74.531,197.891c.077.645-.741.38-1.951.524s-2.353.645-2.43,0,.841-1.285,2.051-1.43S74.454,197.246,74.531,197.891Z" transform="translate(-48.545 -182.566)" fill="#222221"/>
          <path id="Path_1023356" data-name="Path 1023356" d="M92.6,198.221c-.077.645.741.38,1.951.524s2.353.645,2.43,0-.841-1.285-2.051-1.43S92.682,197.576,92.6,198.221Z" transform="translate(-61.613 -182.758)" fill="#222221"/>
          <path id="Path_1023357" data-name="Path 1023357" d="M83.531,235.188c0,.289-.459.524-1.025.524s-1.025-.234-1.025-.524.459-.159,1.025-.159S83.531,234.9,83.531,235.188Z" transform="translate(-55.142 -204.707)" fill="#cf866b"/>
          <path id="Path_1023358" data-name="Path 1023358" d="M37.148,260.864s8.761,4.572,12.988,4.462,6.725-4.136,6.725-4.136,8.717,8.051,9.191,15.323-2.491,20.057-2.491,20.057,5.4,29.358,4.346,41.727H27.668s-7.115-24.083,6.9-40.392l-6.9-31.2Z" transform="translate(-22.772 -219.76)" fill="#69ba9f"/>
          <path id="Path_1023359" data-name="Path 1023359" d="M33.7,380.558a18.08,18.08,0,0,1-5.058-7.112c-5.613,14.644-.969,30.374-.969,30.374H67.91c.431-5.068-.221-12.989-1.141-20.573C56.128,387.788,43.794,388.207,33.7,380.558Z" transform="translate(-22.774 -285.283)" fill="#417164"/>
          <path id="Path_1023360" data-name="Path 1023360" d="M188.312,342.885v5.2s17.132,4.418,29.049-2.6l-1.279-4.28Z" transform="translate(-117.318 -266.519)" fill="#583c80"/>
          <path id="Path_1023361" data-name="Path 1023361" d="M176.754,353.81s-9.489,17.85-6.059,37.817h19l-2.547-24.448h2.215l1.572,24.448H209.87s5.049-23.869-3.787-39.131C206.083,352.5,191.72,356.041,176.754,353.81Z" transform="translate(-106.63 -273.09)" fill="#7a5fa0"/>
          <path id="Path_1023362" data-name="Path 1023362" d="M32.174,307.65l8.976,13,20.241-5.157-2.056,5.157s-14.464,11.147-20.594,10.233-15.106-19.713-15.106-19.713S26.92,306.57,32.174,307.65Z" transform="translate(-21.476 -246.894)" fill="#e8af8e"/>
          <path id="Path_1023363" data-name="Path 1023363" d="M207.336,224.712l.337,7.474A3.7,3.7,0,0,0,209,234.858l3.335,2.788S207.217,251,201.038,251.061c-3.028.028-10.118,1.582-9.373-13.074l3.241-3a3.7,3.7,0,0,0,1.183-2.913l-.25-4.7Z" transform="translate(-119.237 -198.72)" fill="#bc6f63"/>
          <path id="Path_1023364" data-name="Path 1023364" d="M213.352,227.54l-.127-2.829-11.5,2.669.231,4.337C203.145,232.648,210.393,236.55,213.352,227.54Z" transform="translate(-125.126 -198.719)" fill="#863b39"/>
          <path id="Path_1023365" data-name="Path 1023365" d="M194.406,167.674s-10.922,3.025-7.264,15.82a3.152,3.152,0,0,1,.024,1.592c-.513,2.171-1.832,8.8,8.551,11.485a2.956,2.956,0,0,0,1.217.051c2.629-.428,12.25-2.811,12.6-14.811C209.945,167.908,194.406,167.674,194.406,167.674Z" transform="translate(-116.2 -165.523)" fill="#bc6f63"/>
          <path id="Path_1023366" data-name="Path 1023366" d="M217.047,201.77a1.015,1.015,0,1,0,.976-1.29A1.167,1.167,0,0,0,217.047,201.77Z" transform="translate(-134.041 -184.617)" fill="#222221"/>
          <path id="Path_1023367" data-name="Path 1023367" d="M196.84,202.453a1.015,1.015,0,1,0,.976-1.29A1.167,1.167,0,0,0,196.84,202.453Z" transform="translate(-122.281 -185.014)" fill="#222221"/>
          <g id="Group_1198485" data-name="Group 1198485" transform="translate(77.857 16.67)">
            <g id="Group_1198484" data-name="Group 1198484">
              <path id="Path_1023368" data-name="Path 1023368" d="M206.02,206.923a1.586,1.586,0,0,1-.7-.543c-.163-.275.148-.575.305-.788a5.231,5.231,0,0,0,.659-1.109,4.329,4.329,0,0,0,.295-1.809c-.012-.353-.562-.354-.55,0a3.727,3.727,0,0,1-.353,1.825,8.883,8.883,0,0,1-.694,1.046.959.959,0,0,0-.088,1.184,2.174,2.174,0,0,0,.845.668c.318.149.6-.325.277-.475Z" transform="translate(-204.73 -202.409)" fill="#222221"/>
            </g>
          </g>
          <path id="Path_1023369" data-name="Path 1023369" d="M217.431,213.123c0,1.068,1.174,1.934,2.623,1.934s2.623-.866,2.623-1.934-1.175-1.934-2.623-1.934S217.431,212.055,217.431,213.123Z" transform="translate(-134.265 -190.849)" fill="#d46a55"/>
          <path id="Path_1023370" data-name="Path 1023370" d="M189.844,213.984c0,1.068,1.175,1.934,2.623,1.934s2.623-.866,2.623-1.934-1.175-1.934-2.623-1.934S189.844,212.916,189.844,213.984Z" transform="translate(-118.209 -191.35)" fill="#d46a55"/>
          <path id="Path_1023371" data-name="Path 1023371" d="M215.636,192.179c-.074.615.707.362,1.861.5s2.244.615,2.318,0-.8-1.226-1.956-1.364S215.71,191.564,215.636,192.179Z" transform="translate(-133.218 -179.267)" fill="#222221"/>
          <path id="Path_1023372" data-name="Path 1023372" d="M195.727,193.2c.221.579-.6.523-1.684.937s-2.028,1.141-2.249.562.481-1.384,1.567-1.8S195.507,192.616,195.727,193.2Z" transform="translate(-119.321 -180.063)" fill="#222221"/>
          <path id="Path_1023373" data-name="Path 1023373" d="M208.516,229.481c0,.276.438.5.978.5s.978-.224.978-.5-.438-.152-.978-.152S208.516,229.2,208.516,229.481Z" transform="translate(-129.076 -201.39)" fill="#863b39"/>
          <path id="Path_1023374" data-name="Path 1023374" d="M205.03,217.639a.825.825,0,0,0,1.185-.093c.486-.593,1.224-1.207,1.918-.652,1.107.886-.4,3.125-2.513,3.255s-3.206-2.2-2.656-2.838C203.574,216.609,204.438,217.105,205.03,217.639Z" transform="translate(-125.763 -194.043)" fill="#fff"/>
          <path id="Path_1023375" data-name="Path 1023375" d="M245.1,256.3s-4.361,11.789-2.869,18.024l7.735,43.282H255.2s-3.328-35.412-3.557-47.533S245.1,256.3,245.1,256.3Z" transform="translate(-148.52 -217.105)" fill="#bc6f63"/>
          <path id="Path_1023376" data-name="Path 1023376" d="M181.457,254.443a9.131,9.131,0,0,0-2.739.079c-.6.141-2.312.754-2.312.754s-3.434,16.6-1.974,23.479,3.308,12.613,3.308,12.613,7.927,5.049,28.572,0L202.435,269.1s1.821-11.839,3.877-14.437a8.79,8.79,0,0,0-5.522-1.675s-5.059,9.635-12.627,9.406S181.457,254.443,181.457,254.443Z" transform="translate(-109.029 -215.176)" fill="#e79e9e"/>
          <g id="Group_1198513" data-name="Group 1198513" transform="translate(32.408 34.104)">
            <g id="Group_1198490" data-name="Group 1198490" transform="translate(3.684 34.184)">
              <path id="Path_1023377" data-name="Path 1023377" d="M104.817,330.254c3.125-7.425,10.4-3.558,11.288-1.494,1.407,3.281.326,7.21-1.219,6.833s-.363-2.88-.947-3.841a5.294,5.294,0,0,1,.043,3.216.9.9,0,0,1-.568.627c-.422.148-1.045.284-1.382-.034-.542-.512.444-2.708-.465-3.814a3.367,3.367,0,0,1,.226,3.045,1.252,1.252,0,0,1-1.467.858c-.328-.077-.6-.238-.589-.56.026-.8-.135-3.434-1.093-3.428s-3.805,1.076-3.826-1.336A.181.181,0,0,1,104.817,330.254Z" transform="translate(-104.813 -325.896)" fill="#e8af8e"/>
              <g id="Group_1198487" data-name="Group 1198487" transform="translate(8.446 4.75)">
                <g id="Group_1198486" data-name="Group 1198486">
                  <path id="Path_1023378" data-name="Path 1023378" d="M126.112,340.932a9.558,9.558,0,0,0,.005-1.484,3.23,3.23,0,0,0-.694-2.123c-.219-.207-.552.124-.332.332a1.664,1.664,0,0,1,.41.817,5.634,5.634,0,0,1,.154,1.086,9.629,9.629,0,0,1-.012,1.371c-.026.3.443.3.469,0Z" transform="translate(-125.018 -337.26)" fill="#222221"/>
                </g>
              </g>
              <g id="Group_1198489" data-name="Group 1198489" transform="translate(6.245 5.218)">
                <g id="Group_1198488" data-name="Group 1198488">
                  <path id="Path_1023379" data-name="Path 1023379" d="M120.784,341.837a4.425,4.425,0,0,0-.068-2.6,1.821,1.821,0,0,0-.623-.809c-.245-.177-.48.23-.237.405a2.063,2.063,0,0,1,.607,1.724,4.869,4.869,0,0,1-.131,1.16c-.071.293.382.418.453.125Z" transform="translate(-119.753 -338.379)" fill="#222221"/>
                </g>
              </g>
            </g>
            <path id="Path_1023380" data-name="Path 1023380" d="M140.839,409.449a23.578,23.578,0,0,1,2.134,15.325H129.126l-.438-4h-.876v4H112.561s-1.715-7.827.748-14.34Z" transform="translate(-105.3 -340.34)" fill="#274256"/>
            <path id="Path_1023381" data-name="Path 1023381" d="M133.313,339.858s6.527,5.555,6.379,13.984,0,13.245,0,13.245,2.7,1.97,2.039,3.393-18.36,6.677-32.714,0c0,0-.307-2.408,1.81-2.572,0,0,.237-10.563,0-15.38s2.718-10.789,2.718-10.789Z" transform="translate(-103.568 -299.838)" fill="#dd4d61"/>
            <path id="Path_1023382" data-name="Path 1023382" d="M139.864,316.7l.439,5.418,4.023,4.023a16.127,16.127,0,0,1-16.4,1.067l2.087-3.7V316.29Z" transform="translate(-114.581 -286.121)" fill="#e9a585"/>
            <path id="Path_1023383" data-name="Path 1023383" d="M143.133,321.179l-.363-4.478-9.85-.41v4.5C136.22,324.166,140.309,323.839,143.133,321.179Z" transform="translate(-117.487 -286.121)" fill="#a8624b"/>
            <path id="Path_1023384" data-name="Path 1023384" d="M103.387,344.357s-.037.138-.1.388c-.562,2.313-3.2,14.261,1.638,16.81,5.363,2.824,26.333-1.652,26.333-1.652l0-3.356-21.324-2.105-.94-7.589" transform="translate(-99.53 -302.456)" fill="#cf866b"/>
            <path id="Path_1023385" data-name="Path 1023385" d="M101.53,357.539a4.482,4.482,0,0,0-3.4,3.433,3.875,3.875,0,0,0,.8,3.632c2.189,2.353,4-.3,3.257-1.779s2.627-3.848,2.627-3.848A2.794,2.794,0,0,0,101.53,357.539Z" transform="translate(-97.158 -310.079)" fill="#e3e3e3"/>
            <g id="Group_1198496" data-name="Group 1198496" transform="translate(27.712 16.663)">
              <path id="Path_1023386" data-name="Path 1023386" d="M163.5,287.2s4.772-5.917,7-1.718-2.291,9.862-8.208,7Z" transform="translate(-162.296 -283.981)" fill="#e9a585"/>
              <path id="Path_1023387" data-name="Path 1023387" d="M170.338,292.579a3.028,3.028,0,0,1-2.192,1.724c-2.493.381-3.894-2.865-3.407-5.718a14.01,14.01,0,0,0-1.234,1.3l-1.209,5.281c5.044,2.441,9.068-1.314,8.767-5.076A9.39,9.39,0,0,1,170.338,292.579Z" transform="translate(-162.297 -286.661)" fill="#cf866b"/>
              <g id="Group_1198495" data-name="Group 1198495" transform="translate(4.519 3.195)">
                <g id="Group_1198492" data-name="Group 1198492">
                  <g id="Group_1198491" data-name="Group 1198491">
                    <path id="Path_1023388" data-name="Path 1023388" d="M173.655,294.416c0-.059.008-.118.014-.177,0-.044,0-.017,0,.017,0-.016,0-.032.007-.048.006-.036.012-.071.018-.107q.024-.13.06-.258.04-.145.093-.285l.03-.075c.012-.029,0,.008-.005.011l.019-.044c.024-.052.048-.1.075-.155a2.276,2.276,0,0,1,.426-.592,2.323,2.323,0,0,1,.815-.535.282.282,0,0,0,.191-.337.276.276,0,0,0-.337-.191,2.962,2.962,0,0,0-1.494,1.245,3.338,3.338,0,0,0-.425,1.22,2.533,2.533,0,0,0-.032.312.274.274,0,0,0,.547,0Z" transform="translate(-173.108 -291.624)" fill="#222221"/>
                  </g>
                </g>
                <g id="Group_1198494" data-name="Group 1198494" transform="translate(0.402 1.162)">
                  <g id="Group_1198493" data-name="Group 1198493">
                    <path id="Path_1023389" data-name="Path 1023389" d="M174.268,294.938a.851.851,0,0,1,.1.031l.048.019c.035.013-.077-.034-.029-.012l.031.014a1.37,1.37,0,0,1,.136.073c.022.013.043.027.064.041l.038.026.019.014c.034.025-.046-.038-.022-.017a1.833,1.833,0,0,1,.145.134c.023.025.045.052.067.078s-.036-.05-.017-.022l.017.023c.013.018.025.036.037.055s.037.061.054.092.019.037.028.056a.157.157,0,0,0,.013.029c-.013-.015-.022-.055-.005-.013a1.649,1.649,0,0,1,.082.3.179.179,0,0,1,.006.038c0-.029-.005-.046,0,0s.006.061.008.092c0,.066,0,.132,0,.2a.276.276,0,0,0,.274.274.28.28,0,0,0,.274-.274,1.822,1.822,0,0,0-.4-1.248,1.681,1.681,0,0,0-.683-.478.966.966,0,0,0-.142-.047.274.274,0,0,0-.147.528Z" transform="translate(-174.07 -294.404)" fill="#222221"/>
                  </g>
                </g>
              </g>
            </g>
            <g id="Group_1198502" data-name="Group 1198502" transform="translate(5.264 16.663)">
              <path id="Path_1023390" data-name="Path 1023390" d="M116.169,287.2s-4.772-5.917-7-1.718,2.291,9.862,8.208,7Z" transform="translate(-108.591 -283.981)" fill="#e9a585"/>
              <path id="Path_1023391" data-name="Path 1023391" d="M109.34,292.579a3.028,3.028,0,0,0,2.192,1.724c2.493.381,3.894-2.865,3.407-5.718a14.009,14.009,0,0,1,1.234,1.3l1.209,5.281c-5.044,2.441-9.067-1.314-8.767-5.076A9.39,9.39,0,0,0,109.34,292.579Z" transform="translate(-108.595 -286.661)" fill="#cf866b"/>
              <g id="Group_1198501" data-name="Group 1198501" transform="translate(1.97 3.195)">
                <g id="Group_1198498" data-name="Group 1198498">
                  <g id="Group_1198497" data-name="Group 1198497">
                    <path id="Path_1023392" data-name="Path 1023392" d="M115.6,294.416a3.17,3.17,0,0,0-.935-2.143,3.048,3.048,0,0,0-1.015-.635.276.276,0,0,0-.337.191.281.281,0,0,0,.191.337,2.359,2.359,0,0,1,.73.454,2.174,2.174,0,0,1,.462.585c.027.048.053.1.077.145.013.025.025.051.037.078s.04.094.02.044q.059.144.1.293c.048.16.074.321.107.485-.016-.08,0-.007,0,.034,0,.023,0,.047.006.071s0,.041,0,.062a.274.274,0,0,0,.548,0Z" transform="translate(-113.304 -291.624)" fill="#222221"/>
                  </g>
                </g>
                <g id="Group_1198500" data-name="Group 1198500" transform="translate(0.33 1.161)">
                  <g id="Group_1198499" data-name="Group 1198499">
                    <path id="Path_1023393" data-name="Path 1023393" d="M115.315,294.409a1.459,1.459,0,0,0-.436.191,1.66,1.66,0,0,0-.667.806,1.918,1.918,0,0,0-.118.777.274.274,0,1,0,.548,0c0-.055,0-.11,0-.166,0-.028,0-.056.005-.083,0-.01,0-.02,0-.031,0-.027-.007-.066,0-.006a.441.441,0,0,1,.024-.13,1.425,1.425,0,0,1,.041-.145c.006-.019.013-.037.02-.056.026-.069-.016.031,0-.01s.036-.075.057-.111.038-.064.06-.094c.006-.008.048-.065.017-.024s.014-.016.023-.026a1.286,1.286,0,0,1,.143-.143l.033-.028c.027-.023-.058.042-.008.006l.075-.052a1.5,1.5,0,0,1,.14-.08l.056-.026.015-.007c.032-.015-.05.02-.044.018l.031-.012a.954.954,0,0,1,.125-.041.276.276,0,0,0,.191-.337.282.282,0,0,0-.338-.191Z" transform="translate(-114.093 -294.401)" fill="#222221"/>
                  </g>
                </g>
              </g>
            </g>
            <path id="Path_1023394" data-name="Path 1023394" d="M119.334,258.647s-1.265,17.388,2.1,21.232c4.136,4.725,15.271,3.648,18.2,0,2-2.5,2.863-13.038.636-21.232C140.268,258.647,130.724,249.317,119.334,258.647Z" transform="translate(-109.445 -250.16)" fill="#e9a585"/>
            <ellipse id="Ellipse_16210" data-name="Ellipse 16210" cx="1.024" cy="1.353" rx="1.024" ry="1.353" transform="translate(23.939 18.165)" fill="#222221"/>
            <ellipse id="Ellipse_16211" data-name="Ellipse 16211" cx="1.024" cy="1.353" rx="1.024" ry="1.353" transform="translate(15.086 18.165)" fill="#222221"/>
            <g id="Group_1198504" data-name="Group 1198504" transform="translate(18.879 18.302)">
              <g id="Group_1198503" data-name="Group 1198503">
                <path id="Path_1023395" data-name="Path 1023395" d="M142.35,292.046a1.46,1.46,0,0,1-.64-.5c-.15-.253.136-.528.28-.723a4.8,4.8,0,0,0,.605-1.018,3.981,3.981,0,0,0,.271-1.662c-.011-.324-.516-.326-.505,0a3.423,3.423,0,0,1-.324,1.676,8.167,8.167,0,0,1-.638.961.88.88,0,0,0-.081,1.087,2,2,0,0,0,.776.614c.293.137.549-.3.255-.437Z" transform="translate(-141.164 -287.901)" fill="#222221"/>
              </g>
            </g>
            <path id="Path_1023396" data-name="Path 1023396" d="M154.806,298.513c0,1.12,1.231,2.027,2.75,2.027s2.75-.908,2.75-2.027-1.231-2.027-2.75-2.027S154.806,297.394,154.806,298.513Z" transform="translate(-130.225 -274.595)" fill="#d46a55"/>
            <path id="Path_1023397" data-name="Path 1023397" d="M123.188,298.513c0,1.12,1.231,2.027,2.75,2.027s2.75-.908,2.75-2.027-1.231-2.027-2.75-2.027S123.188,297.394,123.188,298.513Z" transform="translate(-111.823 -274.595)" fill="#d46a55"/>
            <path id="Path_1023398" data-name="Path 1023398" d="M150.473,279.477c-.077.645.741.38,1.951.524s2.353.645,2.43,0-.841-1.285-2.051-1.43S150.55,278.832,150.473,279.477Z" transform="translate(-127.7 -264.152)" fill="#222221"/>
            <path id="Path_1023399" data-name="Path 1023399" d="M132.231,278.691c.077.645-.741.38-1.951.524s-2.353.645-2.43,0,.841-1.285,2.051-1.43S132.154,278.046,132.231,278.691Z" transform="translate(-114.534 -263.695)" fill="#222221"/>
            <g id="Group_1198506" data-name="Group 1198506" transform="translate(17.646 24.027)">
              <g id="Group_1198505" data-name="Group 1198505">
                <path id="Path_1023400" data-name="Path 1023400" d="M138.215,301.856a2.964,2.964,0,0,0,1.415,2.335,2.8,2.8,0,0,0,2.3.113,2.551,2.551,0,0,0,1.34-1.321,3.44,3.44,0,0,0,.316-1.127c.03-.346-.51-.344-.539,0,0,.018,0,.036-.006.053.015-.109-.015.083-.022.117a3.419,3.419,0,0,1-.143.511,2.184,2.184,0,0,1-.887,1.141,2.245,2.245,0,0,1-1.953.114,2.086,2.086,0,0,1-1.054-1.115,3.178,3.178,0,0,1-.19-.6c-.014-.065-.025-.13-.036-.2,0,0,0,.045,0-.02-.031-.343-.57-.347-.54,0Z" transform="translate(-138.214 -301.598)" fill="#222221"/>
              </g>
            </g>
            <path id="Path_1023401" data-name="Path 1023401" d="M122.258,344.394s2.217-8.579,12.438-6.4,11.493,12.15,4.844,13.71-20.976-3.53-20.976-3.53Z" transform="translate(-109.132 -298.546)" fill="#fff"/>
            <path id="Path_1023402" data-name="Path 1023402" d="M98.265,335.792s-3.327-2.509-1.919-6.188c0,0,4.169-.822,5.928,2.5Z" transform="translate(-95.999 -293.817)" fill="#fff"/>
            <path id="Path_1023403" data-name="Path 1023403" d="M124.171,335.785s3.243-2.617,1.715-6.248c0,0-4.194-.685-5.843,2.692Z" transform="translate(-109.993 -293.798)" fill="#fff"/>
            <path id="Path_1023404" data-name="Path 1023404" d="M106.723,332.519s5.967-.1,6.823,5.989c1.024,7.278-4.74,7.06-7.545,6.833s-6.9-.389-6.215-6.643S106.122,332.316,106.723,332.519Z" transform="translate(-98.159 -295.538)" fill="#fff"/>
            <ellipse id="Ellipse_16212" data-name="Ellipse 16212" cx="0.787" cy="0.841" rx="0.787" ry="0.841" transform="translate(4.665 43.059)" fill="#222221"/>
            <ellipse id="Ellipse_16213" data-name="Ellipse 16213" cx="0.787" cy="0.841" rx="0.787" ry="0.841" transform="translate(10.613 43.059)" fill="#222221"/>
            <path id="Path_1023405" data-name="Path 1023405" d="M114.4,350.126a.763.763,0,0,0,1.466,0c0-.139-.328-.251-.733-.251S114.4,349.987,114.4,350.126Z" transform="translate(-106.711 -305.668)" fill="#d46a55"/>
            <path id="Path_1023406" data-name="Path 1023406" d="M143.023,353.465l-2.707,7.152L119.1,357.625l-.8,3.26s19.32,9.3,25.2,7.826c5.3-1.333,5.335-12.253,5.335-14.633" transform="translate(-108.98 -307.757)" fill="#e9a585"/>
            <path id="Path_1023407" data-name="Path 1023407" d="M119.395,360.994s-2.353,3.612-.164,5.966,4-.3,3.257-1.779,2.627-3.848,2.627-3.848S123.745,358.148,119.395,360.994Z" transform="translate(-108.977 -311.451)" fill="#fff"/>
            <path id="Path_1023408" data-name="Path 1023408" d="M135.642,257.209s-1.027,7.437.861,7.043,3.58-3.337,3.58-3.337,1.756.364,1.592-1.754a2.16,2.16,0,0,0-1.519-.89s4.682-9.56-4.514-11.817c0,0,.45-3.01-2.506-.383,0,0-1.2-3.41-2.408-1.076,0,0-10.667-3.344-15.91,3.019s-.222,10.96-.222,10.96-1.6.875-1.054,1.806l1.779.616s.711,2.764,1.15,2.654.9-7.307.9-7.307,6.814,1.738,10.344-6.349c0,0-.78,3.694,3.284,1.272C131,251.667,135.931,249.985,135.642,257.209Z" transform="translate(-105.562 -244.116)" fill="#7a5fa0"/>
            <path id="Path_1023409" data-name="Path 1023409" d="M165.028,339.6s2.235-1.774,6.7-.762,5,11.028,5,11.028l-8.083-.92a7.071,7.071,0,0,0-3.427-9.259Z" transform="translate(-136.174 -299.06)" fill="#dd4d61"/>
            <path id="Path_1023410" data-name="Path 1023410" d="M152.847,360.556s-1.918-2.3,1.7-5.433c0,0-2.6,3.481-.955,5.539Z" transform="translate(-128.789 -308.722)" fill="#e3e3e3"/>
            <g id="Group_1198507" data-name="Group 1198507" transform="translate(24.963 29.401)">
              <path id="Path_1023411" data-name="Path 1023411" d="M156.517,331.454c2.8.49,6.12.336,8.6-1.155a6.825,6.825,0,0,0,3.209-5.713c.118-2.477.315-5.265,2.226-7.1a2.644,2.644,0,0,1,2.2-.852,2.963,2.963,0,0,1,.988.372,4.06,4.06,0,0,1,1.083,1.029c.823,1.113,2.694,0,1.86-1.123-1.286-1.737-3.295-2.946-5.5-2.269-2.321.712-3.721,2.98-4.4,5.178a17.171,17.171,0,0,0-.622,4.59,5.1,5.1,0,0,1-.926,2.947,6.508,6.508,0,0,1-4.636,2.08,15.953,15.953,0,0,1-2.6.014c-.162-.012-.324-.028-.485-.043-.256-.024-.273-.034-.143-.015-.1-.015-.2-.028-.305-.046-1.369-.239-1.924,1.862-.546,2.1Z" transform="translate(-155.72 -314.454)" fill="#fff"/>
            </g>
            <path id="Path_1023412" data-name="Path 1023412" d="M162.823,330.272a2.057,2.057,0,0,0,.118-.7.173.173,0,0,0,0-.072c-3.125-7.424-10.4-3.558-11.288-1.493-1.407,3.281-.326,7.21,1.219,6.833a1.072,1.072,0,0,0,.815-1.059c.028.144.05.284.09.436a.9.9,0,0,0,.566.623c.422.148,1.046.285,1.384-.033.2-.186.191-.6.148-1.1.025.1.054.21.088.32a1.258,1.258,0,0,0,1.47.868c.328-.077.6-.238.588-.56-.026-.8.135-3.434,1.093-3.428h.007a1.3,1.3,0,0,1,1.188.877c.3.829.881,2.033,1.71,1.979S163.131,331.828,162.823,330.272Zm-9.166,1.317a1.383,1.383,0,0,1,.163-.6A3.466,3.466,0,0,0,153.658,331.588Zm2.193.166a1.786,1.786,0,0,1,.285-.683A2.469,2.469,0,0,0,155.851,331.754Z" transform="translate(-128.01 -291.27)" fill="#bc6f63"/>
            <g id="Group_1198512" data-name="Group 1198512" transform="translate(25.338 38.913)">
              <g id="Group_1198509" data-name="Group 1198509">
                <g id="Group_1198508" data-name="Group 1198508">
                  <path id="Path_1023413" data-name="Path 1023413" d="M157.118,340.882a9.631,9.631,0,0,1-.012-1.371,5.635,5.635,0,0,1,.154-1.086,1.664,1.664,0,0,1,.41-.817c.22-.208-.112-.539-.332-.332a3.232,3.232,0,0,0-.694,2.123,9.559,9.559,0,0,0,.005,1.484c.025.3.495.3.469,0Z" transform="translate(-156.617 -337.21)" fill="#222221"/>
                </g>
              </g>
              <g id="Group_1198511" data-name="Group 1198511" transform="translate(2.143 0.468)">
                <g id="Group_1198510" data-name="Group 1198510">
                  <path id="Path_1023414" data-name="Path 1023414" d="M162.348,341.662a4.846,4.846,0,0,1-.131-1.16,2.063,2.063,0,0,1,.607-1.724c.242-.175.008-.583-.237-.405-.944.683-.92,2.049-.754,3.084.018.11.037.221.063.329.07.294.523.169.452-.125Z" transform="translate(-161.744 -338.329)" fill="#222221"/>
                </g>
              </g>
            </g>
          </g>
          <path id="Path_1023415" data-name="Path 1023415" d="M253.76,393.267a3.08,3.08,0,0,0-3.438,1.8c-.988,2.326-3.6,3.109-3.543,4.364.046,1.037,1.752.642,2.812-.147.776-.577,1.325-1.677,1.429-1.443a5.884,5.884,0,0,1,.229,2.634c-.265.973-1.991,5.727-2.064,5.948l-.006.018a.88.88,0,0,0,1.5.811,8.9,8.9,0,0,0,1.351-2.4c.55-1.3,1.3-3.529,1.3-3.529l.213.031s-.1,7.589-.1,7.983a.783.783,0,0,0,.645.88c.3.018.746-.184.945-1.028a45.009,45.009,0,0,0,1.06-7.639,56.259,56.259,0,0,1,.116,5.89c-.048.564.224,1.4.849,1.217.713-.206.818-1.511.8-1.711-.092-1.367-.024-4.431-.029-5.948l.223-.153s-.217,3.794.536,4.626c.073.08.464.552.835.257.209-.166.148-.951.153-1.1.032-.9-.083-5.623-.125-6.111-.1-1.148-2.722-6.815-4.072-8.063C253.459,388.689,253.76,393.267,253.76,393.267Z" transform="translate(-151.344 -294.948)" fill="#bc6f63"/>
          <path id="Path_1023416" data-name="Path 1023416" d="M19.425,292.087s-4.544-16.349,6.184-20.548l6.869,15.832S29.359,295.161,19.425,292.087Z" transform="translate(-18.469 -225.973)" fill="#69ba9f"/>
          <path id="Path_1023417" data-name="Path 1023417" d="M49.972,186.752s5.982-2.931,8.946-13.193c0,0,1.815,3.861,8.957,3.613l-4.287-5.255s4.369,5.869,10.855,6.506c0,0-1.282-13.237-11.88-11.924S46.617,180.45,49.972,186.752Z" transform="translate(-36.224 -164.786)" fill="#222221"/>
          <path id="Path_1023418" data-name="Path 1023418" d="M61.137,182.077s1.07,6.357-9.153,13.25" transform="translate(-37.975 -173.906)" fill="none" stroke="#222221" stroke-miterlimit="10" stroke-width="1.386"/>
          <path id="Path_1023419" data-name="Path 1023419" d="M182.509,174.842s5.108,2.737,10.572-5.145c0,0-2.6,4.2-5.92,5.6,0,0,7.981.2,10.011-6.7,0,0,7.831,2.662,8.6,10.006s-.11,11.373-.11,11.373L209,178.676a7.3,7.3,0,0,0-1.621-7.027,19.4,19.4,0,0,0-16.007-6.548C178.788,166.085,182.509,174.842,182.509,174.842Z" transform="translate(-113.641 -163.99)" fill="#271e6d"/>
          <path id="Path_1023420" data-name="Path 1023420" d="M70.108,208.867a.218.218,0,0,1-.344-.253c.395-.831,1.052-1.762,1.968-1.57.87.183,1.276,1.137,1.466,1.97a.218.218,0,0,1-.4.169A1.572,1.572,0,0,0,70.108,208.867Z" transform="translate(-48.31 -188.422)" fill="#222221"/>
          <path id="Path_1023421" data-name="Path 1023421" d="M96.056,208.867a.218.218,0,0,0,.344-.253c-.395-.831-1.052-1.762-1.968-1.57-.87.183-1.276,1.137-1.466,1.97a.218.218,0,0,0,.4.169A1.572,1.572,0,0,1,96.056,208.867Z" transform="translate(-61.823 -188.422)" fill="#222221"/>
        </g>
        <g id="Group_1198571" data-name="Group 1198571" transform="translate(109.968 10.24)">
          <g id="Group_1198515" data-name="Group 1198515" transform="translate(0 77.277)">
            <path id="Path_1023422" data-name="Path 1023422" d="M305.726,405.406V395.367h2.065l-.2,10.039h14.1l1.453-27.619-38.88-1.616c-1.284,6.959-.389,20.957.947,29.235Z" transform="translate(-282.769 -328.974)" fill="#274256"/>
            <path id="Path_1023423" data-name="Path 1023423" d="M322.283,307.853v-43.22l-4.329-1.353-.062-.02c-12.522,8.766-22.619.317-22.973.014l-.017-.014-2.559.534-6.722,18.079-4.068,28.015s3.711,8.261,19,9.1S323.1,313.6,323.1,313.6Z" transform="translate(-281.552 -263.26)" fill="#487fd2"/>
            <path id="Path_1023424" data-name="Path 1023424" d="M322.282,338.037a24.84,24.84,0,0,1-7.688,3.382c-10.95,2.472-21.9-1.025-30.578-7.212l-2.465,16.972s3.711,8.261,19,9.1,22.545-5.388,22.545-5.388l-.815-5.747V338.037Z" transform="translate(-281.551 -304.551)" fill="#3b699f"/>
          </g>
          <path id="Path_1023425" data-name="Path 1023425" d="M480.524,118.837l-2.268-6.353c-4.741-7.239,4.036-10.7,5.87-7.261,2.216,4.155.5,5.477.5,5.477l2.759,5.927Z" transform="translate(-395.225 -93.227)" fill="#e9a585"/>
          <path id="Path_1023426" data-name="Path 1023426" d="M394.848,78.452s9.788-.539,11.853,10.147c0,0,5.208,6.061,3.188,8.755s-3.8,2.608-3.8,2.608l.229-2.354L405.1,99.962s-11.372,3.543-19.453-.9V96.95l-.584,1.841s-2.335.268-2.783-2.829,2.783-4.341,3.322-9.78S390.224,77.914,394.848,78.452Z" transform="translate(-340.149 -78.387)" fill="#271e6d"/>
          <path id="Path_1023427" data-name="Path 1023427" d="M399.388,134.372s4.3,2.954,13.014,0l.943,2s-6.54,8.922-14.988-.147Z" transform="translate(-349.533 -110.97)" fill="#bb334c"/>
          <g id="Group_1198521" data-name="Group 1198521" transform="translate(61.834 10.789)">
            <path id="Path_1023428" data-name="Path 1023428" d="M430.146,105.976s2.632-3.264,3.86-.948-1.263,5.439-4.527,3.86Z" transform="translate(-429.479 -104.198)" fill="#e8af8e"/>
            <path id="Path_1023429" data-name="Path 1023429" d="M433.914,108.941a1.671,1.671,0,0,1-1.209.951c-1.375.21-2.148-1.58-1.879-3.153a7.7,7.7,0,0,0-.681.716l-.667,2.913c2.782,1.346,5-.724,4.835-2.8A5.173,5.173,0,0,1,433.914,108.941Z" transform="translate(-429.479 -105.677)" fill="#cf866b"/>
            <g id="Group_1198520" data-name="Group 1198520" transform="translate(2.492 1.762)">
              <g id="Group_1198517" data-name="Group 1198517">
                <g id="Group_1198516" data-name="Group 1198516">
                  <path id="Path_1023430" data-name="Path 1023430" d="M435.743,109.954c0-.033,0-.065.008-.1s0-.009,0,.009l0-.026q0-.029.01-.059c.009-.048.02-.1.033-.143s.032-.106.051-.158l.016-.041,0,.006.01-.024c.013-.029.027-.058.041-.086a1.248,1.248,0,0,1,.235-.327,1.279,1.279,0,0,1,.45-.3.155.155,0,0,0,.105-.186.152.152,0,0,0-.186-.105,1.635,1.635,0,0,0-.824.687,1.839,1.839,0,0,0-.234.673,1.4,1.4,0,0,0-.018.172.151.151,0,0,0,.3,0Z" transform="translate(-435.441 -108.414)" fill="#222221"/>
                </g>
              </g>
              <g id="Group_1198519" data-name="Group 1198519" transform="translate(0.222 0.641)">
                <g id="Group_1198518" data-name="Group 1198518">
                  <path id="Path_1023431" data-name="Path 1023431" d="M436.082,110.242a.429.429,0,0,1,.056.017l.027.01c.019.007-.043-.019-.016-.007l.017.008a.812.812,0,0,1,.075.04l.036.023.02.015.01.008c.019.013-.025-.021-.012-.01a.961.961,0,0,1,.08.074c.013.014.025.029.037.043s-.02-.027-.009-.012l.009.013.02.03c.01.016.021.033.029.051l.015.031a.1.1,0,0,0,.008.016c-.007-.008-.012-.031,0-.007a.878.878,0,0,1,.045.165.132.132,0,0,1,0,.021c0-.016,0-.025,0,0s0,.034,0,.051a1.049,1.049,0,0,1,0,.109.152.152,0,0,0,.151.151.154.154,0,0,0,.151-.151,1,1,0,0,0-.218-.688.928.928,0,0,0-.377-.264.523.523,0,0,0-.079-.026.151.151,0,1,0-.08.291Z" transform="translate(-435.972 -109.947)" fill="#222221"/>
                </g>
              </g>
            </g>
          </g>
          <path id="Path_1023432" data-name="Path 1023432" d="M410.9,121.829l.224,4.961c.031.688,2.085.074,2.614.516l1.82.262s-5.565,8.7-9.666,8.742c-2.009.018-3.362-4.07-5.393-5.669l.135-3.569c.833-.065,2.841.377,2.8-.353l-.166-3.119Z" transform="translate(-350.78 -103.67)" fill="#e8af8e"/>
          <path id="Path_1023433" data-name="Path 1023433" d="M414.844,123.707l-.085-1.878-7.631,1.771.153,2.878C408.07,127.1,412.881,129.687,414.844,123.707Z" transform="translate(-354.637 -103.67)" fill="#a8624b"/>
          <path id="Path_1023434" data-name="Path 1023434" d="M400.6,79.418s-7.967,2.206-5.3,11.539a2.3,2.3,0,0,1,.018,1.162c-.375,1.583-1.336,6.417,6.237,8.377a2.161,2.161,0,0,0,.887.038c1.918-.312,8.935-2.05,9.193-10.8C411.932,79.589,400.6,79.418,400.6,79.418Z" transform="translate(-347.434 -78.987)" fill="#e8af8e"/>
          <path id="Path_1023435" data-name="Path 1023435" d="M417.65,105.14a.74.74,0,1,0,.712-.941A.851.851,0,0,0,417.65,105.14Z" transform="translate(-360.76 -93.41)" fill="#222221"/>
          <path id="Path_1023436" data-name="Path 1023436" d="M403.394,105.428a.74.74,0,1,0,.712-.941A.851.851,0,0,0,403.394,105.428Z" transform="translate(-352.464 -93.577)" fill="#222221"/>
          <g id="Group_1198523" data-name="Group 1198523" transform="translate(53.678 11.703)">
            <g id="Group_1198522" data-name="Group 1198522">
              <path id="Path_1023437" data-name="Path 1023437" d="M410.688,108.908a.887.887,0,0,1-.389-.3c-.091-.154.083-.321.171-.44a2.922,2.922,0,0,0,.369-.62,2.421,2.421,0,0,0,.165-1.012c-.007-.2-.314-.2-.308,0a2.086,2.086,0,0,1-.2,1.02,5,5,0,0,1-.388.585.537.537,0,0,0-.049.662,1.215,1.215,0,0,0,.473.374c.178.083.334-.182.155-.266Z" transform="translate(-409.966 -106.385)" fill="#222221"/>
            </g>
          </g>
          <path id="Path_1023438" data-name="Path 1023438" d="M417.393,112.569c0,.779.857,1.411,1.913,1.411s1.913-.632,1.913-1.411-.857-1.411-1.913-1.411S417.393,111.79,417.393,112.569Z" transform="translate(-360.611 -97.46)" fill="#d46a55"/>
          <path id="Path_1023439" data-name="Path 1023439" d="M397.894,112.712c0,.779.856,1.411,1.913,1.411s1.913-.632,1.913-1.411-.856-1.411-1.913-1.411S397.894,111.933,397.894,112.712Z" transform="translate(-349.263 -97.543)" fill="#d46a55"/>
          <g id="Group_1198525" data-name="Group 1198525" transform="translate(52.217 15.612)">
            <g id="Group_1198524" data-name="Group 1198524">
              <path id="Path_1023440" data-name="Path 1023440" d="M411.138,115.844a2.559,2.559,0,0,1-1.945,1.242,3.168,3.168,0,0,1-2.314-.771c-.224-.2-.557.13-.331.331a3.632,3.632,0,0,0,2.7.9,3.059,3.059,0,0,0,2.294-1.47c.168-.252-.238-.487-.4-.237Z" transform="translate(-406.472 -115.737)" fill="#222221"/>
            </g>
          </g>
          <path id="Path_1023441" data-name="Path 1023441" d="M416.393,98.421c-.053.449.516.264,1.358.365s1.637.449,1.691,0-.585-.894-1.427-.995S416.447,97.972,416.393,98.421Z" transform="translate(-360.027 -89.668)" fill="#222221"/>
          <path id="Path_1023442" data-name="Path 1023442" d="M402.791,99.165c.054.449-.516.264-1.358.365s-1.637.449-1.691,0,.585-.894,1.427-.995S402.738,98.717,402.791,99.165Z" transform="translate(-350.337 -90.102)" fill="#222221"/>
          <path id="Path_1023443" data-name="Path 1023443" d="M409.989,124.5c0,.2.319.365.714.365s.714-.163.714-.365-.319-.111-.714-.111S409.989,124.3,409.989,124.5Z" transform="translate(-356.302 -105.149)" fill="#cf866b"/>
          <path id="Path_1023444" data-name="Path 1023444" d="M405.72,116.327c-5.853,8.141-17.12,7.542-17.12,7.542a5.764,5.764,0,0,1-2.371,3.949,7.009,7.009,0,0,1-8.178.039,5.735,5.735,0,0,1-2.465-3.989,14.884,14.884,0,0,1-14.234-6.519l-3.891,2.2s4.032,20.336,25.183,15.634l-.006-.133c20.946,4.484,26.679-16.094,26.679-16.094Z" transform="translate(-325.73 -100.468)" fill="#dd4d61"/>
          <path id="Path_1023445" data-name="Path 1023445" d="M409.948,150.829l5.842,29.434s-9.092,9.071-32.352-.162l2.964-28.793S399.873,152.655,409.948,150.829Z" transform="translate(-340.849 -120.548)" fill="#dd4d61"/>
          <path id="Path_1023446" data-name="Path 1023446" d="M421,397.264h17.379c1.091-9.446,1.344-25.521-1.789-35.083h-20.61v22.593h3.985Z" transform="translate(-359.79 -243.555)" fill="#211e1d"/>
          <path id="Path_1023447" data-name="Path 1023447" d="M394.239,397.264l1.035-12.49h3.985V362.181h-20.61c-3.133,9.562-2.88,25.637-1.789,35.083Z" transform="translate(-336.588 -243.555)" fill="#211e1d"/>
          <path id="Path_1023448" data-name="Path 1023448" d="M367.067,176.725a2.163,2.163,0,1,0,2.163-2.163A2.163,2.163,0,0,0,367.067,176.725Z" transform="translate(-331.321 -134.361)" fill="#271e6d"/>
          <path id="Path_1023449" data-name="Path 1023449" d="M370.6,206.24a2.163,2.163,0,1,0,2.163-2.163A2.163,2.163,0,0,0,370.6,206.24Z" transform="translate(-333.374 -151.539)" fill="#271e6d"/>
          <g id="Group_1198531" data-name="Group 1198531" transform="translate(64.78 45.099)">
            <path id="Path_1023450" data-name="Path 1023450" d="M437.717,189.45s4.694-5.82,6.884-1.69-2.253,9.7-8.073,6.884Z" transform="translate(-436.528 -186.28)" fill="#e9a585"/>
            <path id="Path_1023451" data-name="Path 1023451" d="M444.436,194.737a2.98,2.98,0,0,1-2.156,1.7c-2.452.375-3.83-2.817-3.351-5.624a13.792,13.792,0,0,0-1.214,1.277l-1.189,5.194c4.961,2.4,8.918-1.292,8.623-4.993A9.2,9.2,0,0,1,444.436,194.737Z" transform="translate(-436.527 -188.916)" fill="#cf866b"/>
            <g id="Group_1198530" data-name="Group 1198530" transform="translate(4.445 3.143)">
              <g id="Group_1198527" data-name="Group 1198527">
                <g id="Group_1198526" data-name="Group 1198526">
                  <path id="Path_1023452" data-name="Path 1023452" d="M447.7,196.544c0-.058.008-.116.014-.174s0-.017,0,.016c0-.015,0-.031.007-.047.005-.035.011-.07.018-.1q.024-.128.059-.254c.026-.095.056-.189.091-.281.009-.025.019-.049.029-.074s0,.008,0,.011l.019-.043c.023-.051.048-.1.074-.153a2.247,2.247,0,0,1,.419-.583,2.282,2.282,0,0,1,.8-.527.277.277,0,0,0,.188-.331.271.271,0,0,0-.331-.188,2.913,2.913,0,0,0-1.469,1.225,3.274,3.274,0,0,0-.418,1.2,2.538,2.538,0,0,0-.031.307.269.269,0,0,0,.538,0Z" transform="translate(-447.162 -193.798)" fill="#222221"/>
                </g>
              </g>
              <g id="Group_1198529" data-name="Group 1198529" transform="translate(0.394 1.144)">
                <g id="Group_1198528" data-name="Group 1198528">
                  <path id="Path_1023453" data-name="Path 1023453" d="M448.3,197.059a.8.8,0,0,1,.1.031l.048.018c.034.013-.076-.034-.029-.012l.03.014a1.474,1.474,0,0,1,.134.072c.021.013.043.026.063.041l.037.026.018.014c.034.024-.046-.038-.022-.017a1.7,1.7,0,0,1,.143.132c.023.025.044.051.066.076s-.035-.049-.017-.021c.005.008.011.015.017.023s.025.036.036.054.036.059.053.09l.028.055a.167.167,0,0,0,.013.029c-.013-.015-.021-.054-.005-.012a1.6,1.6,0,0,1,.081.295.175.175,0,0,1,.006.038c0-.028-.005-.045,0,0s.005.06.007.091c0,.065,0,.13,0,.194a.271.271,0,0,0,.269.269.275.275,0,0,0,.269-.269,1.794,1.794,0,0,0-.388-1.227,1.649,1.649,0,0,0-.672-.471.965.965,0,0,0-.14-.046.269.269,0,1,0-.143.518Z" transform="translate(-448.106 -196.534)" fill="#222221"/>
                </g>
              </g>
            </g>
          </g>
          <g id="Group_1198537" data-name="Group 1198537" transform="translate(42.701 45.099)">
            <path id="Path_1023454" data-name="Path 1023454" d="M391.159,189.45s-4.694-5.82-6.884-1.69,2.253,9.7,8.073,6.884Z" transform="translate(-383.706 -186.28)" fill="#e9a585"/>
            <path id="Path_1023455" data-name="Path 1023455" d="M384.444,194.737a2.98,2.98,0,0,0,2.156,1.7c2.452.375,3.83-2.817,3.351-5.624a13.792,13.792,0,0,1,1.214,1.277l1.189,5.194c-4.961,2.4-8.918-1.292-8.623-4.993A9.2,9.2,0,0,0,384.444,194.737Z" transform="translate(-383.711 -188.916)" fill="#cf866b"/>
            <g id="Group_1198536" data-name="Group 1198536" transform="translate(1.938 3.143)">
              <g id="Group_1198533" data-name="Group 1198533">
                <g id="Group_1198532" data-name="Group 1198532">
                  <path id="Path_1023456" data-name="Path 1023456" d="M390.6,196.544a3.116,3.116,0,0,0-.92-2.108,2.994,2.994,0,0,0-1-.624.271.271,0,0,0-.331.188.276.276,0,0,0,.188.331,2.334,2.334,0,0,1,.718.446,2.147,2.147,0,0,1,.455.576c.027.047.052.094.076.143q.019.038.036.076c.008.017.04.092.02.043q.058.142.1.288c.047.158.073.316.1.477-.015-.079,0-.007,0,.033,0,.023,0,.046.006.069s0,.041,0,.061a.269.269,0,0,0,.538,0Z" transform="translate(-388.342 -193.798)" fill="#222221"/>
                </g>
              </g>
              <g id="Group_1198535" data-name="Group 1198535" transform="translate(0.324 1.142)">
                <g id="Group_1198534" data-name="Group 1198534">
                  <path id="Path_1023457" data-name="Path 1023457" d="M390.319,196.537a1.427,1.427,0,0,0-.428.188,1.633,1.633,0,0,0-.656.792,1.884,1.884,0,0,0-.116.764.269.269,0,1,0,.538,0c0-.054,0-.109,0-.163,0-.027,0-.055.005-.082l0-.03c0-.026-.007-.065,0-.006a.43.43,0,0,1,.024-.128,1.388,1.388,0,0,1,.04-.142l.02-.055c.026-.067-.015.03,0-.01s.036-.074.056-.109.038-.063.059-.093c.005-.008.048-.064.016-.024s.014-.016.022-.026a1.361,1.361,0,0,1,.141-.141l.033-.027c.026-.023-.057.042-.008.006.024-.018.049-.035.074-.051a1.46,1.46,0,0,1,.138-.079l.055-.026.015-.007c.031-.015-.05.02-.043.018l.03-.012a.912.912,0,0,1,.124-.04.271.271,0,0,0,.188-.331.276.276,0,0,0-.331-.187Z" transform="translate(-389.117 -196.529)" fill="#222221"/>
                </g>
              </g>
            </g>
          </g>
          <path id="Path_1023458" data-name="Path 1023458" d="M409.879,222.4v4.065a4.742,4.742,0,0,0,2.253,4.036l4.975,3.069s.188,15.254-13.471,15.254-13.611-15.16-13.611-15.16l4.631-3.142a4.742,4.742,0,0,0,2.08-3.925v-4.621Z" transform="translate(-344.683 -161.954)" fill="#e9a585"/>
          <path id="Path_1023459" data-name="Path 1023459" d="M419.225,225.289V222.4l-13.142-.422v3.986C408.14,231.221,417.014,230.886,419.225,225.289Z" transform="translate(-354.028 -161.955)" fill="#a8624b"/>
          <path id="Path_1023460" data-name="Path 1023460" d="M394.273,161.624s-1.244,18.194,2.065,22.216c4.068,4.944,15.02,3.818,17.9,0,1.972-2.615,2.816-13.643.626-22.216C414.862,161.624,405.475,151.861,394.273,161.624Z" transform="translate(-347.022 -124.305)" fill="#e9a585"/>
          <ellipse id="Ellipse_16214" data-name="Ellipse 16214" cx="1.007" cy="1.33" rx="1.007" ry="1.33" transform="translate(61.08 45.662)" fill="#222221"/>
          <path id="Path_1023461" data-name="Path 1023461" d="M406.841,188.957a1.046,1.046,0,1,0,1.007-1.331A1.2,1.2,0,0,0,406.841,188.957Z" transform="translate(-354.47 -141.964)" fill="#222221"/>
          <g id="Group_1198539" data-name="Group 1198539" transform="translate(55.403 46.26)">
            <g id="Group_1198538" data-name="Group 1198538">
              <path id="Path_1023462" data-name="Path 1023462" d="M415.466,193.851a1.685,1.685,0,0,1-.739-.577c-.173-.293.157-.611.324-.836a5.549,5.549,0,0,0,.7-1.178,4.6,4.6,0,0,0,.313-1.921c-.013-.375-.6-.377-.584,0a3.958,3.958,0,0,1-.375,1.938,9.449,9.449,0,0,1-.737,1.111,1.019,1.019,0,0,0-.094,1.257,2.31,2.31,0,0,0,.9.71c.339.159.636-.345.3-.5Z" transform="translate(-414.094 -189.057)" fill="#222221"/>
            </g>
          </g>
          <ellipse id="Ellipse_16215" data-name="Ellipse 16215" cx="2.704" cy="1.994" rx="2.704" ry="1.994" transform="translate(61.701 50.24)" fill="#d46a55"/>
          <ellipse id="Ellipse_16216" data-name="Ellipse 16216" cx="2.704" cy="1.994" rx="2.704" ry="1.994" transform="translate(48.702 50.24)" fill="#d46a55"/>
          <path id="Path_1023463" data-name="Path 1023463" d="M426.363,178.284c-.076.634.729.373,1.919.515s2.314.634,2.39,0-.827-1.264-2.017-1.406S426.439,177.65,426.363,178.284Z" transform="translate(-365.829 -135.992)" fill="#222221"/>
          <path id="Path_1023464" data-name="Path 1023464" d="M406.6,178.837c.076.634-.729.373-1.919.515s-2.314.634-2.39,0,.827-1.264,2.017-1.406S406.527,178.2,406.6,178.837Z" transform="translate(-351.82 -136.314)" fill="#222221"/>
          <path id="Path_1023465" data-name="Path 1023465" d="M419.165,219.754c0,.285.451.515,1.008.515s1.008-.231,1.008-.515-.451-.157-1.008-.157S419.165,219.469,419.165,219.754Z" transform="translate(-361.642 -160.555)" fill="#cf866b"/>
          <path id="Path_1023466" data-name="Path 1023466" d="M414.833,207.943a.943.943,0,0,0,1.355-.106c.556-.678,1.4-1.38,2.192-.745,1.266,1.013-.461,3.571-2.872,3.72s-3.665-2.518-3.036-3.244C413.169,206.765,414.158,207.333,414.833,207.943Z" transform="translate(-357.653 -153.149)" fill="#fff"/>
          <path id="Path_1023467" data-name="Path 1023467" d="M411.2,163.77s-1.573,3.826-2.651,2.988-.329-7.573-.329-7.573.15,2.227-1.2,1.817-2.738-6.173-2.738-6.173-9.186-2.622-12.1-.164c-3.334,2.816-.692,12.3-3.573,12.884-1.244.254-.745-3.249-.745-3.249s-5.279-3.918-4.321-9.455,10.214-4.759,11.681-4.789c0,0-.749-1.676.778-2.335s13.2.449,15.192,5.148S411.2,163.77,411.2,163.77Z" transform="translate(-340.848 -118.639)" fill="#7a5fa0"/>
          <path id="Path_1023468" data-name="Path 1023468" d="M385.235,199.743s17.173-18.879,19.687-29.994-6.052-28.371-6.052-28.371l-8.261,2.58,2.6,18.984a6.68,6.68,0,0,1-1.937,5.671L374.74,184.852s-1.873,6.97-10.916,6.995c-9.043-.025-10.916-6.995-10.916-6.995l-16.531-16.241a6.68,6.68,0,0,1-1.937-5.671l2.6-18.984-8.261-2.58s-8.566,17.256-6.052,28.371,18.922,22.6,18.922,22.6l2.036,31.045s1.736,10.356-1.271,11.993-2.081,3.032-2.081,3.032c7.478,7.362,22.548,7.314,23.493,7.3.945.01,16.014.059,23.493-7.3,0,0,.925-1.395-2.081-3.032s-1.271-11.993-1.271-11.993Z" transform="translate(-305.246 -115.047)" fill="#1d3345"/>
          <path id="Path_1023469" data-name="Path 1023469" d="M376.634,317.548a20.972,20.972,0,0,1-8.686-5.683l.7,10.747s1.736,10.356-1.271,11.993-2.081,3.032-2.081,3.032c7.478,7.362,22.548,7.314,23.493,7.3.945.01,16.014.059,23.492-7.3,0,0,.925-1.395-2.081-3.032s-1.271-11.993-1.271-11.993l.357-6.653C399.62,321.711,386.581,321.321,376.634,317.548Z" transform="translate(-330.215 -214.271)" fill="#15222c"/>
          <path id="Path_1023470" data-name="Path 1023470" d="M336.5,248.954l.062.02-2.749-1.864a4.678,4.678,0,0,1-2.052-3.872V238.68L318.8,239.1v4.01a4.678,4.678,0,0,1-2.222,3.981l-3.048,1.881C313.881,249.271,323.979,257.72,336.5,248.954Z" transform="translate(-300.161 -171.677)" fill="#e9a585"/>
          <path id="Path_1023471" data-name="Path 1023471" d="M326.137,241.95V239.1l12.964-.417v3.932C337.072,247.8,328.318,247.471,326.137,241.95Z" transform="translate(-307.5 -171.677)" fill="#a8624b"/>
          <circle id="Ellipse_16217" data-name="Ellipse 16217" cx="6.256" cy="6.256" r="6.256" transform="translate(16.283 32.588)" fill="#271e6d"/>
          <path id="Path_1023472" data-name="Path 1023472" d="M343.627,160.64a2.163,2.163,0,1,0,2.163-2.163A2.163,2.163,0,0,0,343.627,160.64Z" transform="translate(-317.679 -124.999)" fill="#271e6d"/>
          <path id="Path_1023473" data-name="Path 1023473" d="M315.333,165.259A2.163,2.163,0,1,0,317.5,163.1,2.163,2.163,0,0,0,315.333,165.259Z" transform="translate(-301.212 -127.688)" fill="#271e6d"/>
          <path id="Path_1023474" data-name="Path 1023474" d="M298.522,188.124a2.163,2.163,0,1,0,2.163-2.163A2.163,2.163,0,0,0,298.522,188.124Z" transform="translate(-291.428 -140.995)" fill="#271e6d"/>
          <circle id="Ellipse_16218" data-name="Ellipse 16218" cx="2.163" cy="2.163" r="2.163" transform="translate(6.465 56.304)" fill="#271e6d"/>
          <circle id="Ellipse_16219" data-name="Ellipse 16219" cx="6.256" cy="6.256" r="6.256" transform="translate(26.334 33.785)" fill="#271e6d"/>
          <ellipse id="Ellipse_16220" data-name="Ellipse 16220" cx="6.256" cy="6.255" rx="6.256" ry="6.255" transform="translate(5.905 46.57) rotate(-67.716)" fill="#271e6d"/>
          <circle id="Ellipse_16221" data-name="Ellipse 16221" cx="6.255" cy="6.255" r="6.255" transform="translate(4.069 46.853)" fill="#271e6d"/>
          <circle id="Ellipse_16222" data-name="Ellipse 16222" cx="6.255" cy="6.255" r="6.255" transform="translate(7.094 55.683)" fill="#271e6d"/>
          <circle id="Ellipse_16223" data-name="Ellipse 16223" cx="6.255" cy="6.255" r="6.255" transform="translate(30.965 42.067)" fill="#271e6d"/>
          <circle id="Ellipse_16224" data-name="Ellipse 16224" cx="6.255" cy="6.255" r="6.255" transform="translate(28.22 51.126)" fill="#271e6d"/>
          <g id="Group_1198545" data-name="Group 1198545" transform="translate(10.791 53.903)">
            <path id="Path_1023475" data-name="Path 1023475" d="M314.693,209.754s-5.55-5.01-7.064-.587,3.749,9.226,9.054,5.53Z" transform="translate(-307.366 -207.342)" fill="#e9a585"/>
            <path id="Path_1023476" data-name="Path 1023476" d="M308.5,215.294a2.98,2.98,0,0,0,2.4,1.336c2.48-.015,3.339-3.384,2.426-6.08a13.8,13.8,0,0,1,1.4,1.071l1.991,4.943c-4.522,3.15-9.01.125-9.3-3.576A9.2,9.2,0,0,0,308.5,215.294Z" transform="translate(-307.391 -209.209)" fill="#cf866b"/>
            <g id="Group_1198544" data-name="Group 1198544" transform="translate(1.918 3.211)">
              <g id="Group_1198541" data-name="Group 1198541">
                <g id="Group_1198540" data-name="Group 1198540">
                  <path id="Path_1023477" data-name="Path 1023477" d="M314.569,217.391a2.894,2.894,0,0,0-.242-.7,3.067,3.067,0,0,0-1-1.207,2.843,2.843,0,0,0-1.037-.449.275.275,0,0,0-.331.188.272.272,0,0,0,.188.331,2.284,2.284,0,0,1,.825.338c.028.018.056.037.083.057l.04.029c.035.025-.029-.023,0,0,.054.042.1.087.155.133a2.675,2.675,0,0,1,.263.283l.027.034c-.006-.008-.031-.043,0,0l.049.069q.05.071.1.145.081.133.15.273c.02.041.038.083.057.125s-.022-.057,0,.01l.025.064c.025.067.049.135.069.2a1.914,1.914,0,0,1,.056.22.271.271,0,0,0,.331.188.276.276,0,0,0,.188-.331Z" transform="translate(-311.954 -215.024)" fill="#222221"/>
                </g>
              </g>
              <g id="Group_1198543" data-name="Group 1198543" transform="translate(0.695 0.906)">
                <g id="Group_1198542" data-name="Group 1198542">
                  <path id="Path_1023478" data-name="Path 1023478" d="M314.608,217.205a1.606,1.606,0,0,0-.952,1.125,2.04,2.04,0,0,0,.007.83.271.271,0,0,0,.331.188.276.276,0,0,0,.188-.331c-.005-.028-.011-.057-.015-.086,0-.012,0-.024-.005-.036,0,0,0,.044,0,.013,0-.056-.01-.112-.01-.168s0-.091,0-.136c0-.02,0-.04.005-.06,0-.038-.01.051,0,.014,0-.013,0-.025.006-.038a1.359,1.359,0,0,1,.064-.232.131.131,0,0,0,.012-.031s-.023.051-.011.026.016-.034.024-.051c.016-.033.034-.065.053-.1s.035-.055.054-.081.045-.032,0,0a.225.225,0,0,0,.031-.038,1.337,1.337,0,0,1,.127-.13l.058-.05c.033-.028,0,.005-.02.015a.33.33,0,0,0,.034-.025c.034-.025.07-.048.107-.069s.054-.031.083-.044c.054-.026.009,0-.028.01a.276.276,0,0,0,.188-.331.271.271,0,0,0-.33-.189Z" transform="translate(-313.616 -217.191)" fill="#222221"/>
                </g>
              </g>
            </g>
          </g>
          <path id="Path_1023479" data-name="Path 1023479" d="M336.476,176.268s4.088,17.773,1.451,22.265c-3.24,5.522-14.233,6.13-17.676,2.812-2.358-2.272-4.925-13.031-4.109-21.842C316.143,179.5,323.88,168.387,336.476,176.268Z" transform="translate(-301.593 -133.71)" fill="#e9a585"/>
          <path id="Path_1023480" data-name="Path 1023480" d="M335.051,208.788a1.2,1.2,0,0,1-.785,1.472c-.549.087-1.088-.43-1.2-1.156a1.2,1.2,0,0,1,.785-1.472C334.4,207.545,334.936,208.063,335.051,208.788Z" transform="translate(-311.518 -153.602)" fill="#222221"/>
          <path id="Path_1023481" data-name="Path 1023481" d="M356.663,205.621a1.2,1.2,0,0,1-.785,1.472c-.549.087-1.088-.43-1.2-1.156a1.2,1.2,0,0,1,.785-1.472C356.009,204.378,356.548,204.9,356.663,205.621Z" transform="translate(-324.096 -151.759)" fill="#222221"/>
          <g id="Group_1198547" data-name="Group 1198547" transform="translate(26.559 53.353)">
            <g id="Group_1198546" data-name="Group 1198546">
              <path id="Path_1023482" data-name="Path 1023482" d="M346.944,211.895a2.662,2.662,0,0,0,.922-.984,1.179,1.179,0,0,0-.352-1.416,9.879,9.879,0,0,1-.981-1.059,4.487,4.487,0,0,1-.78-2.079.342.342,0,0,0-.331-.331.333.333,0,0,0-.331.331,5.35,5.35,0,0,0,.677,2.119,6.1,6.1,0,0,0,.981,1.192c.226.223.655.511.567.843a1.782,1.782,0,0,1-.7.812c-.351.238-.02.812.334.572Z" transform="translate(-345.089 -206.025)" fill="#222221"/>
            </g>
          </g>
          <path id="Path_1023483" data-name="Path 1023483" d="M330.523,218.66c.173,1.088-.882,2.159-2.358,2.394s-2.811-.457-2.984-1.545.882-2.159,2.358-2.394S330.35,217.572,330.523,218.66Z" transform="translate(-306.933 -159.1)" fill="#d46a55"/>
          <path id="Path_1023484" data-name="Path 1023484" d="M362.445,214.484c.173,1.088-.882,2.159-2.358,2.394s-2.811-.457-2.984-1.545.882-2.159,2.358-2.394S362.272,213.4,362.445,214.484Z" transform="translate(-325.511 -156.67)" fill="#d46a55"/>
          <g id="Group_1198549" data-name="Group 1198549" transform="translate(21.881 60.175)">
            <g id="Group_1198548" data-name="Group 1198548">
              <path id="Path_1023485" data-name="Path 1023485" d="M333.909,222.757a5.661,5.661,0,0,0,2.094,3.13,4.828,4.828,0,0,0,5.664-.519c.327-.275-.144-.741-.468-.468a4.109,4.109,0,0,1-5,.309,5.1,5.1,0,0,1-1.648-2.628.332.332,0,0,0-.639.176Z" transform="translate(-333.897 -222.345)" fill="#222221"/>
            </g>
          </g>
          <path id="Path_1023486" data-name="Path 1023486" d="M331.2,199.059c.175.614-.661.483-1.814.811s-2.185.99-2.36.376.618-1.378,1.771-1.705S331.03,198.445,331.2,199.059Z" transform="translate(-308.006 -148.23)" fill="#222221"/>
          <path id="Path_1023487" data-name="Path 1023487" d="M350.727,196.642c.025.638.779.254,1.976.208s2.385.263,2.36-.375-1.015-1.118-2.213-1.072S350.7,196,350.727,196.642Z" transform="translate(-321.811 -146.488)" fill="#222221"/>
          <path id="Path_1023488" data-name="Path 1023488" d="M345.888,235.832c.026.283-.4.554-.958.6s-1.025-.138-1.051-.422.436-.2.99-.247S345.863,235.548,345.888,235.832Z" transform="translate(-317.826 -169.926)" fill="#cf866b"/>
          <path id="Path_1023489" data-name="Path 1023489" d="M314.157,186.861s.451,1.582,1.664,1-.234-4.857-.234-4.857,5.667.726,4.05-3.9a4.4,4.4,0,0,0,3.906,1.145c2.312-.516,2.559-4.063,2.559-4.063s.471,1.414,1.549,1.5,2.424-1.728,2.424-1.728,2.116,6.7,6.4,7.134l-.228-8.841s-14.277-6.824-22.763,3.008Z" transform="translate(-300.137 -132.841)" fill="#271e6d"/>
          <g id="Group_1198550" data-name="Group 1198550" transform="translate(0.138 77.811)">
            <path id="Path_1023490" data-name="Path 1023490" d="M302.921,299.7,311,314.153s19.754-2.065,24.693-1.078l1.078,5.388s-24.753,10.057-29.033,8.98-14.876-18.408-14.876-18.408S295.917,300.774,302.921,299.7Z" transform="translate(-288.273 -284.999)" fill="#e9a585"/>
            <path id="Path_1023491" data-name="Path 1023491" d="M386.55,322.767a3.342,3.342,0,0,1,.61-4.169c2.026-1.848,1.89-4.8,3.195-5.2,1.078-.326,1.287,1.563.861,2.932-.312,1-1.24,1.959-.963,1.982a6.39,6.39,0,0,0,2.78-.712c.9-.62,5.174-4.069,5.348-4.252,1.307-1.367,1.876-.6,1.876-.6,1.031.974-1.7,3.394-2.457,4.078-1.135,1.031-3.146,2.6-3.146,2.6l.107.207s7.733-2.834,8.136-2.977a.85.85,0,0,1,1.133.344c.127.3.08.829-.713,1.337a48.841,48.841,0,0,1-7.441,3.831,35.333,35.333,0,0,1,6.38-1.125c.614.02,1.6.033,1.643.737.045.8-1.344,1.076-1.554,1.134a41.412,41.412,0,0,1-6.408,1.235l-.076.283s4.267-.275,5.39.2c.108.046.654.256.563.763-.144.8-.913.588-1.073.553a45.81,45.81,0,0,0-6.762.759,7.78,7.78,0,0,1-5.273-.232A3.755,3.755,0,0,1,386.55,322.767Z" transform="translate(-342.519 -292.472)" fill="#e9a585"/>
            <path id="Path_1023492" data-name="Path 1023492" d="M285.934,289.619s-6.765-12.541-2.814-19.575a11.048,11.048,0,0,1,9.414-5.507l6.57,15.675A117.918,117.918,0,0,0,285.934,289.619Z" transform="translate(-281.882 -264.536)" fill="#487fd2"/>
          </g>
          <path id="Path_1023493" data-name="Path 1023493" d="M437.523,215.721a15.361,15.361,0,0,0,2.972-3.771c1.544-2.866,2.8-6.407,5.254-5.033,7.631,4.268,5.441,24.1.413,31.2l-5.176-1.8s2.011-11.156.856-11.763S437.523,220.445,437.523,215.721Z" transform="translate(-372.327 -153.014)" fill="#dd4d61"/>
          <path id="Path_1023494" data-name="Path 1023494" d="M387.774,216.339a10.785,10.785,0,0,1-3.925-3.011c-1.48-1.864-2.269-4.984-3.891-4.235-7.939,3.665-5.955,23.3-.926,30.4l5.176-1.8s-2.011-11.156-.856-11.763S387.774,221.064,387.774,216.339Z" transform="translate(-335.719 -154.391)" fill="#dd4d61"/>
          <path id="Path_1023495" data-name="Path 1023495" d="M411.553,86.335s.552,4.849-1.064,4.669-2.782-7.246-4.609-9.1c0,0-.449,2.484.688,3.352l-3.143.329a4.094,4.094,0,0,1-1.676-3.682s-1.37.359-.7,3.891l-7.292.868s.626-8.248,7.661-7.341A14.065,14.065,0,0,1,411.553,86.335Z" transform="translate(-346.855 -78.891)" fill="#271e6d"/>
          <path id="Path_1023496" data-name="Path 1023496" d="M472.913,110.2l3.6-4.4,1.9.661-1.9,6.376A6.11,6.11,0,0,1,472.913,110.2Z" transform="translate(-392.923 -94.338)" fill="#e8af8e"/>
          <path id="Path_1023497" data-name="Path 1023497" d="M480.375,103.653c.5,1.488.85,2.975.053,3.242s-1.244-.925-1.741-2.414-.858-2.709-.06-2.976S479.878,102.165,480.375,103.653Z" transform="translate(-395.976 -91.815)" fill="#e9a585"/>
          <path id="Path_1023498" data-name="Path 1023498" d="M483.888,101.9c.5,1.488.85,2.975.053,3.242s-1.244-.925-1.741-2.414-.858-2.709-.06-2.976S483.391,100.407,483.888,101.9Z" transform="translate(-398.021 -90.792)" fill="#e9a585"/>
          <path id="Path_1023499" data-name="Path 1023499" d="M488.056,101.521c.441,1.319.739,2.641-.059,2.908s-1.2-.788-1.639-2.107-.755-2.4.043-2.669S487.615,100.2,488.056,101.521Z" transform="translate(-400.488 -90.735)" fill="#e9a585"/>
          <path id="Path_1023500" data-name="Path 1023500" d="M492.494,103.654c.2,1.376.266,2.73-.566,2.853s-1.042-.985-1.245-2.361-.324-2.5.508-2.62S492.29,102.278,492.494,103.654Z" transform="translate(-403.179 -91.847)" fill="#e9a585"/>
          <path id="Path_1023501" data-name="Path 1023501" d="M479.753,114.877s2.76-1.863-2.169-5.248c-1.357-.932.168-3.9-1.024-3.539S474.529,112.242,479.753,114.877Z" transform="translate(-394.525 -94.493)" fill="#e9a585"/>
          <g id="Group_1198552" data-name="Group 1198552" transform="translate(83.5 9.974)">
            <g id="Group_1198551" data-name="Group 1198551">
              <path id="Path_1023502" data-name="Path 1023502" d="M481.332,102.476c.245.452.464.92.667,1.392a7.1,7.1,0,0,1,.713,2.455c.011.31-.028.667-.346.8-.178.077-.024.337.153.261.71-.306.5-1.35.36-1.927a13.238,13.238,0,0,0-.988-2.551c-.1-.2-.194-.394-.3-.587-.093-.171-.354-.019-.261.152Z" transform="translate(-481.312 -102.249)" fill="#222221"/>
            </g>
          </g>
          <g id="Group_1198554" data-name="Group 1198554" transform="translate(85.273 9.786)">
            <g id="Group_1198553" data-name="Group 1198553">
              <path id="Path_1023503" data-name="Path 1023503" d="M485.571,102.026a11.67,11.67,0,0,1,.525,1.134,5.9,5.9,0,0,1,.533,2.105,1.012,1.012,0,0,1-.313.851c-.155.114,0,.376.153.261.578-.423.5-1.241.374-1.861a9.819,9.819,0,0,0-.77-2.159c-.076-.163-.155-.325-.24-.484s-.353-.019-.261.152Z" transform="translate(-485.552 -101.799)" fill="#222221"/>
            </g>
          </g>
          <g id="Group_1198556" data-name="Group 1198556" transform="translate(87.245 10.171)">
            <g id="Group_1198555" data-name="Group 1198555">
              <path id="Path_1023504" data-name="Path 1023504" d="M490.282,102.9c.122.308.227.624.32.942a4.927,4.927,0,0,1,.274,1.654.6.6,0,0,1-.25.533c-.174.087-.021.348.153.261.469-.236.429-.914.374-1.349a8.615,8.615,0,0,0-.436-1.732c-.045-.13-.092-.261-.143-.389-.071-.178-.364-.1-.291.081Z" transform="translate(-490.271 -102.72)" fill="#222221"/>
            </g>
          </g>
          <g id="Group_1198558" data-name="Group 1198558" transform="translate(88.257 10.131)">
            <g id="Group_1198557" data-name="Group 1198557">
              <path id="Path_1023505" data-name="Path 1023505" d="M492.795,106.375a.913.913,0,0,0,1.052-.234,1.652,1.652,0,0,0,.126-1.234c-.087-.54-.182-1.079-.3-1.613-.043-.189-.085-.38-.145-.565s-.351-.105-.291.08a11.817,11.817,0,0,1,.341,1.545c.079.441.462,1.741-.326,1.786a.866.866,0,0,1-.373-.056c-.183-.067-.262.224-.08.291Z" transform="translate(-492.692 -102.624)" fill="#222221"/>
            </g>
          </g>
          <g id="Group_1198560" data-name="Group 1198560" transform="translate(81.264 11.394)">
            <g id="Group_1198559" data-name="Group 1198559">
              <path id="Path_1023506" data-name="Path 1023506" d="M476.259,106.672a1.241,1.241,0,0,1,.329-.592c.1-.092.355-.219.481-.092.064.064.039.219.033.3a6.768,6.768,0,0,0-.128,2.143c.233.977,1.221,1.491,2.006,1.988a4.967,4.967,0,0,1,2.288,2.122c.068.18.36.1.291-.08a3.865,3.865,0,0,0-1.6-1.769c-.424-.286-.864-.548-1.29-.831a3.885,3.885,0,0,1-1.2-1,3.05,3.05,0,0,1-.122-2.2c.063-.373.165-.927-.34-1.007-.555-.088-.919.469-1.045.937a.151.151,0,0,0,.291.081Z" transform="translate(-475.962 -105.645)" fill="#222221"/>
            </g>
          </g>
          <path id="Path_1023507" data-name="Path 1023507" d="M346.593,122.627l1.638-6.543c4.012-7.666-5.059-10.256-6.55-6.654-1.8,4.351.033,5.5.033,5.5l-2.168,6.168Z" transform="translate(-315.305 -95.523)" fill="#e9a585"/>
          <path id="Path_1023508" data-name="Path 1023508" d="M358.65,113.163l-4.008-4.031-1.824.843,2.51,6.16A6.115,6.115,0,0,0,358.65,113.163Z" transform="translate(-323.028 -96.281)" fill="#e8af8e"/>
          <path id="Path_1023509" data-name="Path 1023509" d="M354.907,106.983c-.35,1.53-.556,3.044.264,3.232s1.147-1.042,1.5-2.572.59-2.78-.23-2.967S355.257,105.454,354.907,106.983Z" transform="translate(-324.066 -93.674)" fill="#e9a585"/>
          <path id="Path_1023510" data-name="Path 1023510" d="M351.239,105.576c-.35,1.53-.556,3.044.264,3.232s1.147-1.042,1.5-2.572.59-2.78-.23-2.967S351.589,104.047,351.239,105.576Z" transform="translate(-321.931 -92.855)" fill="#e9a585"/>
          <path id="Path_1023511" data-name="Path 1023511" d="M347.187,105.617c-.31,1.356-.478,2.7.342,2.888s1.115-.9,1.425-2.257.518-2.465-.3-2.652S347.5,104.262,347.187,105.617Z" transform="translate(-319.602 -93.044)" fill="#e9a585"/>
          <path id="Path_1023512" data-name="Path 1023512" d="M343.593,108.175c-.069,1.389,0,2.743.841,2.784s.941-1.082,1.009-2.471.079-2.517-.761-2.559S343.662,106.786,343.593,108.175Z" transform="translate(-317.648 -94.416)" fill="#e9a585"/>
          <path id="Path_1023513" data-name="Path 1023513" d="M354.067,118.143s-2.929-1.585,1.647-5.434c1.26-1.06-.548-3.869.674-3.622S359.009,115.011,354.067,118.143Z" transform="translate(-323.218 -96.245)" fill="#e9a585"/>
          <g id="Group_1198562" data-name="Group 1198562" transform="translate(30.244 11.393)">
            <g id="Group_1198561" data-name="Group 1198561">
              <path id="Path_1023514" data-name="Path 1023514" d="M354.936,105.743a17.445,17.445,0,0,0-.594,1.661,6.118,6.118,0,0,0-.4,2.661.924.924,0,0,0,.594.795c.186.059.265-.232.08-.291-.633-.2-.392-1.365-.306-1.822a14.484,14.484,0,0,1,.7-2.39c.067-.178.135-.357.209-.533s-.217-.257-.291-.08Z" transform="translate(-353.906 -105.643)" fill="#222221"/>
            </g>
          </g>
          <g id="Group_1198564" data-name="Group 1198564" transform="translate(28.721 11.378)">
            <g id="Group_1198563" data-name="Group 1198563">
              <path id="Path_1023515" data-name="Path 1023515" d="M351.033,105.708a11.991,11.991,0,0,0-.462,1.354,5.357,5.357,0,0,0-.265,2.308,1.188,1.188,0,0,0,.529.853.151.151,0,0,0,.153-.261c-.548-.325-.445-1.212-.365-1.739a10.559,10.559,0,0,1,.534-1.994c.053-.148.108-.3.168-.44.074-.18-.218-.258-.292-.081Z" transform="translate(-350.262 -105.608)" fill="#222221"/>
            </g>
          </g>
          <g id="Group_1198566" data-name="Group 1198566" transform="translate(27.175 11.938)">
            <g id="Group_1198565" data-name="Group 1198565">
              <path id="Path_1023516" data-name="Path 1023516" d="M346.946,107.054a10.747,10.747,0,0,0-.25,1.093,4.415,4.415,0,0,0-.061,1.813.8.8,0,0,0,.464.591c.181.07.26-.222.08-.291-.164-.063-.228-.263-.263-.418a2.78,2.78,0,0,1-.036-.783,9.059,9.059,0,0,1,.264-1.578c.028-.116.058-.232.091-.346a.151.151,0,0,0-.291-.08Z" transform="translate(-346.562 -106.948)" fill="#222221"/>
            </g>
          </g>
          <g id="Group_1198568" data-name="Group 1198568" transform="translate(25.765 12.049)">
            <g id="Group_1198567" data-name="Group 1198567">
              <path id="Path_1023517" data-name="Path 1023517" d="M344.393,110.623c-.007,0-.034.015-.008,0s-.043.016-.059.021a1.2,1.2,0,0,1-.21.051.473.473,0,0,1-.482-.194,2.287,2.287,0,0,1-.1-1.36c.032-.433.07-.867.128-1.3.02-.149.04-.3.072-.446.041-.189-.25-.27-.291-.08a13.346,13.346,0,0,0-.216,1.912,2.33,2.33,0,0,0,.153,1.435.754.754,0,0,0,.663.337,1.24,1.24,0,0,0,.5-.122c.175-.084.022-.345-.153-.261Z" transform="translate(-343.189 -107.214)" fill="#222221"/>
            </g>
          </g>
          <g id="Group_1198570" data-name="Group 1198570" transform="translate(29.009 12.649)">
            <g id="Group_1198569" data-name="Group 1198569">
              <path id="Path_1023518" data-name="Path 1023518" d="M355.951,109.519c-.144-.381-.444-.823-.885-.866-.55-.052-.65.37-.555.807a4.91,4.91,0,0,1,.295,2.048,2.126,2.126,0,0,1-.794,1.142c-.395.35-.814.67-1.229.995a4.525,4.525,0,0,0-1.825,2.23.151.151,0,0,0,.291.08,4.842,4.842,0,0,1,2.014-2.3c.741-.578,1.7-1.182,1.855-2.183a5.674,5.674,0,0,0-.316-2.088c-.018-.084-.071-.244-.027-.329.081-.158.329-.1.456-.029a1.158,1.158,0,0,1,.428.577c.068.18.36.1.291-.08Z" transform="translate(-350.951 -108.648)" fill="#222221"/>
            </g>
          </g>
          <path id="Path_1023519" data-name="Path 1023519" d="M332.971,137.545s3.367,3.771,10.685,3.861l1.392-5.792s-6.833-1.841-9.841-3.907Z" transform="translate(-311.477 -109.42)" fill="#e1cec1"/>
          <path id="Path_1023520" data-name="Path 1023520" d="M389.5,278.5a5.566,5.566,0,0,0,1.142,2.987c1.072,1.29-2.013,5.444-4.373,4.784s.959-4.033,1.077-4.55-1.231-2.047-1.231-2.047Z" transform="translate(-342.006 -194.851)" fill="#e1cec1"/>
          <path id="Path_1023521" data-name="Path 1023521" d="M446.269,278.5a5.566,5.566,0,0,1-1.142,2.987c-1.072,1.29,2.013,5.444,4.373,4.784s-.959-4.033-1.077-4.55,1.231-2.047,1.231-2.047Z" transform="translate(-376.625 -194.851)" fill="#e1cec1"/>
          <path id="Path_1023522" data-name="Path 1023522" d="M493.594,137.545s-3.367,3.771-10.685,3.861l-1.392-5.792s6.833-1.841,9.841-3.907Z" transform="translate(-397.931 -109.42)" fill="#e1cec1"/>
        </g>
        <g id="Group_1198605" data-name="Group 1198605" transform="translate(194.695 29.685)">
          <path id="Path_1023523" data-name="Path 1023523" d="M528.984,162.93s1.282-5.768,9.878-5.181,14.149,6.472,14.1,18.213c0,0,15.964,22.58-6.595,26.051s-36.975,2.616-35.053-6.834,8.65-9.419,6.995-16.734S523.378,161.7,528.984,162.93Z" transform="translate(-499.897 -143.996)" fill="#222221"/>
          <path id="Path_1023524" data-name="Path 1023524" d="M530.488,309.17l-1.614,15.623s-8.65,11.213-6.728,30.969h41.027l-1.007-48.377Z" transform="translate(-506.141 -231.109)" fill="#b5a2b8"/>
          <path id="Path_1023525" data-name="Path 1023525" d="M618.375,296.943s.067,2.483-14.623,1.682V292S616.133,291.9,618.375,296.943Z" transform="translate(-553.798 -222.154)" fill="#644b87"/>
          <path id="Path_1023526" data-name="Path 1023526" d="M617.378,320.234c.176-5.162.535-22.346.535-22.346H607.852s-1.075,16.649-.064,22.346Z" transform="translate(-555.895 -225.581)" fill="#e8af8e"/>
          <path id="Path_1023527" data-name="Path 1023527" d="M599.05,251.706l.956,20.8s8.424-1.922,15.632.961c0,0,1.2-2.864-2-4.916C613.637,268.554,615.962,250.72,599.05,251.706Z" transform="translate(-551.061 -198.681)" fill="#7a5fa0"/>
          <path id="Path_1023528" data-name="Path 1023528" d="M508.547,296.1s-.067,2.483,14.623,1.682v-6.626S510.79,291.051,508.547,296.1Z" transform="translate(-498.389 -221.661)" fill="#644b87"/>
          <g id="Group_1198577" data-name="Group 1198577" transform="translate(23.202 34.214)">
            <path id="Path_1023529" data-name="Path 1023529" d="M546.213,208.739s-5.08-4.257-6.277-.288,3.624,8.05,8.2,4.6Z" transform="translate(-539.751 -206.759)" fill="#e8af8e"/>
            <path id="Path_1023530" data-name="Path 1023530" d="M540.867,213.7a2.641,2.641,0,0,0,2.166,1.105c2.2-.095,2.847-3.107,1.95-5.466a12.207,12.207,0,0,1,1.275.9l1.925,4.313c-3.9,2.939-7.978.406-8.356-2.863A8.172,8.172,0,0,0,540.867,213.7Z" transform="translate(-539.795 -208.259)" fill="#cf866b"/>
            <g id="Group_1198576" data-name="Group 1198576" transform="translate(1.704 2.858)">
              <g id="Group_1198573" data-name="Group 1198573">
                <g id="Group_1198572" data-name="Group 1198572">
                  <path id="Path_1023531" data-name="Path 1023531" d="M546.216,215.623a2.577,2.577,0,0,0-.236-.616,2.726,2.726,0,0,0-.919-1.04,2.518,2.518,0,0,0-.933-.366.245.245,0,0,0-.293.167.241.241,0,0,0,.167.293,2.054,2.054,0,0,1,.743.27c.051.031.1.063.148.1l.035.025c.03.022-.026-.021,0,0s.049.04.073.061a2.313,2.313,0,0,1,.242.242l.049.059.024.03c-.005-.006-.029-.039,0,0s.061.083.089.126a2.761,2.761,0,0,1,.141.237c.038.071.069.144.1.216.013.027-.018-.049-.009-.021l.01.023.018.045q.016.043.031.087a1.618,1.618,0,0,1,.056.194.241.241,0,0,0,.293.167.244.244,0,0,0,.167-.295Z" transform="translate(-543.828 -213.596)" fill="#222221"/>
                </g>
              </g>
              <g id="Group_1198575" data-name="Group 1198575" transform="translate(0.686 0.761)">
                <g id="Group_1198574" data-name="Group 1198574">
                  <path id="Path_1023532" data-name="Path 1023532" d="M546.251,215.444a1.275,1.275,0,0,0-.335.237,1.392,1.392,0,0,0-.421.763,1.812,1.812,0,0,0,.029.733.241.241,0,0,0,.293.167.244.244,0,0,0,.167-.293c-.011-.047-.019-.095-.028-.143-.006-.028,0,.007,0,.011s0-.02,0-.031q0-.04-.006-.08,0-.062,0-.124c0-.018,0-.036,0-.055s0-.024,0-.036c0-.033,0,0,0,.012a.584.584,0,0,1,.051-.213l.016-.043c.019-.051-.016.032,0,0s.029-.06.045-.089.028-.047.043-.069.018-.025.026-.038c.029-.042-.026.031,0,0a1.5,1.5,0,0,1,.107-.118c.017-.016.034-.032.051-.047l.023-.02.015-.012c.023-.02-.025.02-.026.02.031-.016.06-.044.09-.063a.757.757,0,0,1,.1-.056.239.239,0,0,0,.086-.326.246.246,0,0,0-.327-.086Z" transform="translate(-545.47 -215.416)" fill="#222221"/>
                </g>
              </g>
            </g>
          </g>
          <path id="Path_1023533" data-name="Path 1023533" d="M555.32,222.968l-.314,6.956a3.442,3.442,0,0,1-1.231,2.486l-3.1,2.594s9.938,10.621,19.232.319l-3.016-2.788a3.442,3.442,0,0,1-1.1-2.711l.232-4.372Z" transform="translate(-522.905 -181.978)" fill="#e8af8e"/>
          <path id="Path_1023534" data-name="Path 1023534" d="M561.507,225.6l.119-2.632,10.7,2.483-.214,4.035C571.005,230.354,564.261,233.985,561.507,225.6Z" transform="translate(-529.211 -181.978)" fill="#a8624b"/>
          <path id="Path_1023535" data-name="Path 1023535" d="M557.986,165.48s11.557.873,10.419,14.434a3.214,3.214,0,0,0,.291,1.6c.945,2.077,3.579,8.464-6.306,13.215a3.02,3.02,0,0,1-1.211.292c-2.722.091-12.846-.4-15.576-12.365C542.442,168.79,557.986,165.48,557.986,165.48Z" transform="translate(-519.709 -148.52)" fill="#e8af8e"/>
          <path id="Path_1023536" data-name="Path 1023536" d="M568.617,202.169a1.193,1.193,0,0,1-.724,1.488c-.541.107-1.094-.386-1.235-1.1a1.193,1.193,0,0,1,.724-1.488C567.922,200.961,568.475,201.454,568.617,202.169Z" transform="translate(-532.19 -169.224)" fill="#222221"/>
          <path id="Path_1023537" data-name="Path 1023537" d="M588.89,198.17a1.194,1.194,0,0,1-.724,1.488c-.541.107-1.094-.386-1.235-1.1a1.193,1.193,0,0,1,.724-1.488C588.2,196.962,588.749,197.455,588.89,198.17Z" transform="translate(-543.989 -166.896)" fill="#222221"/>
          <g id="Group_1198579" data-name="Group 1198579" transform="translate(40.024 30.882)">
            <g id="Group_1198578" data-name="Group 1198578">
              <path id="Path_1023538" data-name="Path 1023538" d="M582.019,204.55a2.666,2.666,0,0,0,.882-1.005,1.177,1.177,0,0,0-.41-1.415,9.028,9.028,0,0,1-1.039-1.053,4.561,4.561,0,0,1-.818-2.054c-.067-.416-.7-.24-.633.175a5.116,5.116,0,0,0,.752,2.022,6.162,6.162,0,0,0,1,1.124c.234.214.658.486.6.8a1.281,1.281,0,0,1-.388.59q-.1.1-.213.2l-.084.069c.073-.059.041-.032.024-.019-.338.247-.01.818.331.567Z" transform="translate(-579.995 -198.785)" fill="#222221"/>
            </g>
          </g>
          <path id="Path_1023539" data-name="Path 1023539" d="M566.07,214.054c.211,1.072-.8,2.173-2.249,2.46s-2.8-.35-3.015-1.421.8-2.173,2.249-2.46S565.859,212.983,566.07,214.054Z" transform="translate(-528.788 -175.923)" fill="#d46a55"/>
          <path id="Path_1023540" data-name="Path 1023540" d="M594.336,208.479c.211,1.072-.8,2.173-2.249,2.46s-2.8-.35-3.015-1.421.8-2.173,2.249-2.46S594.125,207.408,594.336,208.479Z" transform="translate(-545.238 -172.678)" fill="#d46a55"/>
          <g id="Group_1198581" data-name="Group 1198581" transform="translate(37.631 38.722)">
            <g id="Group_1198580" data-name="Group 1198580">
              <path id="Path_1023541" data-name="Path 1023541" d="M574.367,218.623a4.259,4.259,0,0,0,3.644,1.369,5.108,5.108,0,0,0,3.377-1.979c.255-.337-.315-.665-.567-.331a4.432,4.432,0,0,1-2.909,1.667,3.611,3.611,0,0,1-3.081-1.19.329.329,0,0,0-.465.464Z" transform="translate(-574.271 -217.543)" fill="#222221"/>
            </g>
          </g>
          <path id="Path_1023542" data-name="Path 1023542" d="M566.015,192.264c.2.6-.638.5-1.768.87s-2.13,1.061-2.325.459.562-1.389,1.693-1.756S565.819,191.661,566.015,192.264Z" transform="translate(-529.435 -163.751)" fill="#222221"/>
          <path id="Path_1023543" data-name="Path 1023543" d="M585.253,189.178c.048.632.781.223,1.966.133s2.373.173,2.325-.459-1.048-1.071-2.233-.981S585.2,188.546,585.253,189.178Z" transform="translate(-543.03 -161.545)" fill="#222221"/>
          <path id="Path_1023544" data-name="Path 1023544" d="M583.637,227.89c.055.277-.34.588-.882.695s-1.025-.031-1.08-.308.409-.239.951-.346S583.583,227.614,583.637,227.89Z" transform="translate(-540.947 -184.763)" fill="#cf866b"/>
          <g id="Group_1198597" data-name="Group 1198597" transform="translate(51.886)">
            <path id="Path_1023545" data-name="Path 1023545" d="M692.8,341.837c-1.318-16.072-6.491-23.013-6.491-23.013l-14.662-.41v32.34h.362v21.037h17.445S693.806,354.056,692.8,341.837Z" transform="translate(-645.201 -237.527)" fill="#e79e9e"/>
            <path id="Path_1023546" data-name="Path 1023546" d="M620.836,341.837c1.318-16.072,6.491-23.013,6.491-23.013l14.662-.41v32.34h-.362v21.037H624.183S619.833,354.056,620.836,341.837Z" transform="translate(-615.54 -237.527)" fill="#e79e9e"/>
            <path id="Path_1023547" data-name="Path 1023547" d="M621.657,245.847l2.531-11.037s1.6-5.965-.1-8.128c0,0-16.445,8.9-8.549,27.033.973,2.233,31.419.481,31.419.481v-3.647S631.644,243.284,621.657,245.847Z" transform="translate(-611.295 -184.14)" fill="#cf866b"/>
            <g id="Group_1198587" data-name="Group 1198587" transform="translate(33.104 16.415)">
              <path id="Path_1023548" data-name="Path 1023548" d="M688.75,167.323s4.656-5.773,6.828-1.676-2.235,9.622-8.008,6.828Z" transform="translate(-687.57 -164.178)" fill="#e9a585"/>
              <path id="Path_1023549" data-name="Path 1023549" d="M695.416,172.566a2.955,2.955,0,0,1-2.138,1.682c-2.432.372-3.8-2.795-3.323-5.578a13.668,13.668,0,0,0-1.2,1.267l-1.18,5.152c4.921,2.381,8.846-1.282,8.553-4.952A9.135,9.135,0,0,1,695.416,172.566Z" transform="translate(-687.571 -166.792)" fill="#cf866b"/>
              <g id="Group_1198586" data-name="Group 1198586" transform="translate(4.409 3.118)">
                <g id="Group_1198583" data-name="Group 1198583">
                  <g id="Group_1198582" data-name="Group 1198582">
                    <path id="Path_1023550" data-name="Path 1023550" d="M698.652,174.359c0-.058.008-.115.013-.173s0-.016,0,.016c0-.015,0-.031.007-.047.005-.035.011-.069.018-.1.016-.085.036-.169.058-.252s.056-.187.09-.279c.009-.025.019-.049.029-.074s0,.007,0,.011l.019-.043c.023-.051.047-.1.073-.151a2.216,2.216,0,0,1,.415-.578,2.262,2.262,0,0,1,.8-.523.275.275,0,0,0,.186-.329.268.268,0,0,0-.328-.186,2.89,2.89,0,0,0-1.457,1.215,3.246,3.246,0,0,0-.415,1.19,2.473,2.473,0,0,0-.031.3.267.267,0,0,0,.534,0Z" transform="translate(-698.118 -171.636)" fill="#222221"/>
                  </g>
                </g>
                <g id="Group_1198585" data-name="Group 1198585" transform="translate(0.392 1.133)">
                  <g id="Group_1198584" data-name="Group 1198584">
                    <path id="Path_1023551" data-name="Path 1023551" d="M699.249,174.868a.814.814,0,0,1,.1.031l.047.018c.034.013-.075-.034-.029-.012l.03.014a1.457,1.457,0,0,1,.133.071l.063.04.036.026.018.014c.033.024-.046-.037-.022-.017a1.736,1.736,0,0,1,.141.131c.023.024.043.051.065.076s-.035-.048-.016-.021l.016.023c.013.018.024.035.036.053s.036.059.052.089.019.036.028.055a.165.165,0,0,0,.013.028c-.013-.015-.021-.054-.005-.012a1.6,1.6,0,0,1,.08.292.168.168,0,0,1,.006.037c0-.028-.005-.044,0,0s.005.06.007.09c0,.064,0,.128,0,.193a.269.269,0,0,0,.267.267.273.273,0,0,0,.267-.267,1.776,1.776,0,0,0-.385-1.217,1.637,1.637,0,0,0-.667-.466.9.9,0,0,0-.139-.046.267.267,0,1,0-.141.515Z" transform="translate(-699.055 -174.346)" fill="#222221"/>
                  </g>
                </g>
              </g>
            </g>
            <path id="Path_1023552" data-name="Path 1023552" d="M662.264,196.156l.314,6.956a3.442,3.442,0,0,0,1.231,2.486l3.1,2.594s-9.938,10.621-19.232.319l3.016-2.788a3.442,3.442,0,0,0,1.1-2.711l-.232-4.372Z" transform="translate(-631.251 -166.374)" fill="#e8af8e"/>
            <path id="Path_1023553" data-name="Path 1023553" d="M656.181,224.309l5.6.724.415,24.6,2.542,20.574s-20.479,7.7-35.5-2.473l2.273-26.3,3.292-17.13,3.51-.461S645.894,232.631,656.181,224.309Z" transform="translate(-620.518 -182.49)" fill="#508d7e"/>
            <path id="Path_1023554" data-name="Path 1023554" d="M630.086,296.876l-.845,9.777c15.016,10.177,35.5,2.473,35.5,2.473l-2.275-18.414C652.609,295.565,640.743,298.764,630.086,296.876Z" transform="translate(-620.519 -221.405)" fill="#417164"/>
            <path id="Path_1023555" data-name="Path 1023555" d="M667.793,198.789l-.119-2.632-10.7,2.483.214,4.035C658.295,203.543,665.039,207.173,667.793,198.789Z" transform="translate(-636.66 -166.374)" fill="#a8624b"/>
            <path id="Path_1023556" data-name="Path 1023556" d="M647.818,136.7s-11.169,3.093-7.428,16.177a3.221,3.221,0,0,1,.025,1.628c-.525,2.22-1.873,9,8.744,11.745a3.029,3.029,0,0,0,1.244.053c2.689-.438,12.527-2.875,12.888-15.145C663.709,136.934,647.818,136.7,647.818,136.7Z" transform="translate(-626.561 -131.767)" fill="#e8af8e"/>
            <path id="Path_1023557" data-name="Path 1023557" d="M670.973,171.522a1.038,1.038,0,1,0,1-1.32A1.194,1.194,0,0,0,670.973,171.522Z" transform="translate(-644.807 -151.268)" fill="#222221"/>
            <path id="Path_1023558" data-name="Path 1023558" d="M650.309,171.522a1.038,1.038,0,1,0,1-1.32A1.194,1.194,0,0,0,650.309,171.522Z" transform="translate(-632.78 -151.268)" fill="#222221"/>
            <g id="Group_1198589" data-name="Group 1198589" transform="translate(20.101 18.988)">
              <g id="Group_1198588" data-name="Group 1198588">
                <path id="Path_1023559" data-name="Path 1023559" d="M658,175.723a1.9,1.9,0,0,1-.831-.648c-.195-.329.176-.687.365-.941a6.249,6.249,0,0,0,.787-1.324,5.167,5.167,0,0,0,.352-2.16c-.014-.422-.671-.423-.657,0a4.45,4.45,0,0,1-.421,2.179,10.609,10.609,0,0,1-.829,1.249,1.146,1.146,0,0,0-.105,1.414,2.6,2.6,0,0,0,1.009.8c.381.178.715-.388.332-.568Z" transform="translate(-656.462 -170.333)" fill="#222221"/>
              </g>
            </g>
            <path id="Path_1023560" data-name="Path 1023560" d="M671.366,183.173c0,1.092,1.2,1.978,2.682,1.978s2.682-.885,2.682-1.978-1.2-1.978-2.682-1.978S671.366,182.081,671.366,183.173Z" transform="translate(-645.035 -157.666)" fill="#d46a55"/>
            <path id="Path_1023561" data-name="Path 1023561" d="M642.555,183.173c0,1.092,1.2,1.978,2.682,1.978s2.682-.885,2.682-1.978-1.2-1.978-2.682-1.978S642.555,182.081,642.555,183.173Z" transform="translate(-628.267 -157.666)" fill="#d46a55"/>
            <g id="Group_1198591" data-name="Group 1198591" transform="translate(19.12 26.733)">
              <g id="Group_1198590" data-name="Group 1198590">
                <path id="Path_1023562" data-name="Path 1023562" d="M660.657,189.012a3.586,3.586,0,0,1-2.727,1.741,4.445,4.445,0,0,1-3.244-1.081c-.315-.28-.781.183-.464.464a5.094,5.094,0,0,0,3.787,1.268,4.286,4.286,0,0,0,3.217-2.06c.234-.353-.334-.682-.567-.331Z" transform="translate(-654.116 -188.862)" fill="#222221"/>
              </g>
            </g>
            <path id="Path_1023563" data-name="Path 1023563" d="M668.554,161.755c-.075.629.723.37,1.9.511s2.295.629,2.371,0-.821-1.254-2-1.395S668.629,161.126,668.554,161.755Z" transform="translate(-643.396 -145.821)" fill="#222221"/>
            <path id="Path_1023564" data-name="Path 1023564" d="M648.955,162.3c.075.629-.723.37-1.9.511s-2.3.629-2.37,0,.82-1.254,2-1.395S648.879,161.674,648.955,162.3Z" transform="translate(-629.502 -146.14)" fill="#222221"/>
            <path id="Path_1023565" data-name="Path 1023565" d="M660.985,199.9c0,.282.448.511,1,.511s1-.229,1-.511-.448-.155-1-.155S660.985,199.619,660.985,199.9Z" transform="translate(-638.994 -168.446)" fill="#cf866b"/>
            <circle id="Ellipse_16225" data-name="Ellipse 16225" cx="4.409" cy="4.409" r="4.409" transform="translate(11.497 16.119)" fill="none" stroke="#fff" stroke-miterlimit="10" stroke-width="1.352"/>
            <circle id="Ellipse_16226" data-name="Ellipse 16226" cx="4.409" cy="4.409" r="4.409" transform="translate(23.754 16.119)" fill="none" stroke="#fff" stroke-miterlimit="10" stroke-width="1.352"/>
            <path id="Path_1023566" data-name="Path 1023566" d="M657.209,173.821a3.5,3.5,0,0,1,3.475,0" transform="translate(-636.796 -153.1)" fill="none" stroke="#fff" stroke-miterlimit="10" stroke-width="1.352"/>
            <path id="Path_1023567" data-name="Path 1023567" d="M634.841,244.011s-4.591,9.8,4.219,13.593,26.537-4.592,26.537-4.592,5.233-2.883,1.922-11.587c0,0-4.96-7.742-18.391-3.738a4.1,4.1,0,0,1-5.142-2.536Z" transform="translate(-623.082 -189.069)" fill="#984b3c"/>
            <path id="Path_1023568" data-name="Path 1023568" d="M628.716,260.375s-9.808,11.144-4.548,13.463,4.471-5.372,9.727-9.587C633.9,264.25,633.908,260.472,628.716,260.375Z" transform="translate(-616.664 -203.749)" fill="#984b3c"/>
            <path id="Path_1023569" data-name="Path 1023569" d="M616.928,208.946s-3.934-3.138-4.735-5.941c0,0-1.949,1.815-1.028,3.631a3.542,3.542,0,0,0-.247,3.444s.14,4.485,3.051,4.018S616.928,208.946,616.928,208.946Z" transform="translate(-609.644 -170.36)" fill="#823026"/>
            <path id="Path_1023570" data-name="Path 1023570" d="M648.206,208.946s3.934-3.138,4.735-5.941c0,0,1.949,1.815,1.028,3.631a3.542,3.542,0,0,1,.247,3.444s-.14,4.485-3.051,4.018S648.206,208.946,648.206,208.946Z" transform="translate(-631.556 -170.36)" fill="#984b3c"/>
            <path id="Path_1023571" data-name="Path 1023571" d="M612.238,221.046a3.535,3.535,0,0,1-1.587,2.6c-1.291.857-2.253,1.319-2.277,3.2-.04,3.2,4.525,7.529,13.856,4.045a14.7,14.7,0,0,0,7.048-8.169s-1.522-8.85-8.61-8.93A7.971,7.971,0,0,0,612.238,221.046Z" transform="translate(-608.374 -176.634)" fill="#984b3c"/>
            <path id="Path_1023572" data-name="Path 1023572" d="M635.649,244.221s5.831-1.7,9.2-8.709l1.2,1.645a16.628,16.628,0,0,1-11.012,8.78Z" transform="translate(-623.89 -189.279)" fill="#d46a55"/>
            <path id="Path_1023573" data-name="Path 1023573" d="M677.669,245.845l-2.531-11.037s-1.6-5.965.1-8.128c0,0,4.071-.244,7.655,5.9,2.62,4.494,4.264,19.705-.327,22.265-2.128,1.186-30.2-.654-30.2-.654v-3.647S667.683,243.282,677.669,245.845Z" transform="translate(-633.979 -184.138)" fill="#e8af8e"/>
            <path id="Path_1023574" data-name="Path 1023574" d="M698.973,233.5a3.022,3.022,0,0,0,2.75-2.937c.294-2.83.561-4.672,2.7-3.551s3.684,8.089-3.2,8.57Z" transform="translate(-661.103 -184.14)" fill="#984b3c"/>
            <g id="Group_1198596" data-name="Group 1198596" transform="translate(8.722 62.819)">
              <path id="Path_1023575" data-name="Path 1023575" d="M639.762,282.6a3.713,3.713,0,0,0-.895-5.194c-1.825-1.312-4.609-2.9-6.342-1.9-2.755,1.584-4.084,4.958-2.783,5.515s1.8-1.856,2.727-2.228a4.711,4.711,0,0,0-1.749,2.266.8.8,0,0,0,.07.749c.221.331.591.761,1,.714.659-.075,1.131-2.165,2.368-2.467a3,3,0,0,0-1.787,2.047,1.115,1.115,0,0,0,.586,1.395c.275.12.553.15.718-.084.41-.584,1.222-1.806,1.9-1.29s2.843,2.233,4.147.527Z" transform="translate(-629.24 -275.191)" fill="#e8af8e"/>
              <g id="Group_1198593" data-name="Group 1198593" transform="translate(1.518 3.004)">
                <g id="Group_1198592" data-name="Group 1198592">
                  <path id="Path_1023576" data-name="Path 1023576" d="M633.264,284.811c.141-.226.3-.444.46-.655a5.526,5.526,0,0,1,1.022-1.063,2.277,2.277,0,0,1,.344-.21.769.769,0,0,1,.131-.051c.03-.009.059-.018.089-.024l.03-.006c.063-.013-.04,0,.023,0a.215.215,0,0,0,.209-.209.21.21,0,0,0-.209-.209,2.379,2.379,0,0,0-1.34.8,8.512,8.512,0,0,0-.945,1.16c-.06.087-.12.174-.176.264-.143.229.219.439.361.211Z" transform="translate(-632.871 -282.378)" fill="#222221"/>
                </g>
              </g>
              <g id="Group_1198595" data-name="Group 1198595" transform="translate(3.03 4.534)">
                <g id="Group_1198594" data-name="Group 1198594">
                  <path id="Path_1023577" data-name="Path 1023577" d="M636.874,288.28a4.727,4.727,0,0,1,.343-.635,3.113,3.113,0,0,1,.894-.981,1.165,1.165,0,0,1,.681-.21.209.209,0,0,0,0-.418c-1.008-.021-1.731.974-2.151,1.774-.045.085-.088.171-.126.259a.216.216,0,0,0,.075.286.21.21,0,0,0,.286-.075Z" transform="translate(-636.49 -286.036)" fill="#222221"/>
                </g>
              </g>
            </g>
            <path id="Path_1023578" data-name="Path 1023578" d="M643.145,267s-2.363,14.657,3.324,13.816.921-6.928,3.124-13.3C649.592,267.521,647.59,264.318,643.145,267Z" transform="translate(-628.327 -206.982)" fill="#984b3c"/>
            <path id="Path_1023579" data-name="Path 1023579" d="M656.455,137.711s.6,9.427,2.082,9.178.6-5.2,2.8-5.568c0,0,1.535-.391,2.59,2.354,0,0,3.07-5.444,1.629-9.983s-4.7-4.645-4.7-4.645-7.092-6.514-16.254-3.2-11.564-2.776-11.992.374,1.862,19.469,21.138,7.509c0,0-2.2,1.882-1.962,3.564C651.966,138.522,652.451,139.313,656.455,137.711Z" transform="translate(-622.456 -124.906)" fill="#222221"/>
          </g>
          <path id="Path_1023580" data-name="Path 1023580" d="M563.644,252.08s-8.753,10.068-19.232-.319l-3.728,3.6-.766,23.154h27.947s2.751-21.283.668-24.807Z" transform="translate(-516.647 -198.736)" fill="#7a5fa0"/>
          <path id="Path_1023581" data-name="Path 1023581" d="M596.121,251.494l.18,31.676h5.335l-2.011-31.811A7.045,7.045,0,0,0,596.121,251.494Z" transform="translate(-549.357 -198.404)" fill="#b5a2b8"/>
          <path id="Path_1023582" data-name="Path 1023582" d="M527.742,297.041s1.121,17.353,0,22.693c0,0,4.221,2.4,11.706,13.509l-3.951,1.869s-17.087-11.64-17.238-14.63-.578-23.44-.578-23.44h10.062Z" transform="translate(-503.704 -225.089)" fill="#e8af8e"/>
          <path id="Path_1023583" data-name="Path 1023583" d="M525.848,251.7l-1.975,20.449s-8.424-1.922-15.632.961c0,0-1.2-2.864,2-4.916C510.243,268.2,508.935,250.719,525.848,251.7Z" transform="translate(-498.082 -198.68)" fill="#7a5fa0"/>
          <path id="Path_1023584" data-name="Path 1023584" d="M542.49,251.494l.18,31.676H548l-2.011-31.811A7.045,7.045,0,0,0,542.49,251.494Z" transform="translate(-518.144 -198.404)" fill="#b5a2b8"/>
          <g id="Group_1198604" data-name="Group 1198604" transform="translate(0 77.111)">
            <path id="Path_1023585" data-name="Path 1023585" d="M504.733,356.293s-8.555.031-9.2-10.142a34.9,34.9,0,0,1,.665-10.862.929.929,0,0,0-1.377-1.025l-2.892,1.713s-1.361-9.29-4.165-8.49-5.927,13.375.721,20.584c0,0-2.953-2.4-3.959-1.921s-.205,14.335,17.255,14.735Z" transform="translate(-484.245 -319.891)" fill="#bc705c"/>
            <path id="Path_1023586" data-name="Path 1023586" d="M561.405,370.624s.481,4.165,1.869,5.34,2.4,3.578.854,4.218c0,0,5.98,13.616-8.917,18.421v1.7H510.52s-2.8-15.153,4.485-19.558,17.971-4.548,19.678-8.041,7.553-5.254,7.553-5.254S556.146,372.519,561.405,370.624Z" transform="translate(-499.229 -343.176)" fill="#f2dbd1"/>
            <path id="Path_1023587" data-name="Path 1023587" d="M518.443,399.753c.52-3.123,6.787-4.81,5.567-9.03a36.688,36.688,0,0,0-9,3.566c-4.208,2.544-5.05,8.667-5.012,13.392a5.9,5.9,0,0,0,1.666.549C516.183,408.229,517.878,403.709,518.443,399.753Z" transform="translate(-499.232 -356.722)" fill="#bc705c"/>
            <path id="Path_1023588" data-name="Path 1023588" d="M624.191,380.387c-1.388-1.175-1.869-5.34-1.869-5.34-1.647.594-4.142.5-6.793.1-.872,2.439-1.414,4.937-.005,5.875,2.825,2.825,5.651,2.261,8.476,6.216.785.942,1.439,1.141,2.011.878a16.221,16.221,0,0,0-.965-3.512C626.594,383.964,625.58,381.561,624.191,380.387Z" transform="translate(-560.146 -347.599)" fill="#bc705c"/>
            <path id="Path_1023589" data-name="Path 1023589" d="M605.736,362.26l.8,6.007a29,29,0,0,1-20.744-1.921l2.964-4.647Z" transform="translate(-543.346 -339.83)" fill="#1d3345"/>
            <path id="Path_1023590" data-name="Path 1023590" d="M596.253,311.267s6.768-3.644,11.773-.8,6.921,8.056,13.055,9.971c7.048,2.2,2.082,12.815-4.926,13.175l-5.686.08s.681,2.142-.12,2.2-2.823-1.622-2.823-1.622.441,1.282-.761,1.442-2.1-2.083-2.1-2.083a2.813,2.813,0,0,1-2.363,1.9c-1.8.12-2.924-2.8-2.924-2.8a3.522,3.522,0,0,1-3.484,2.162C593.13,334.894,596.253,311.267,596.253,311.267Z" transform="translate(-548.56 -309.382)" fill="#f2dbd1"/>
            <path id="Path_1023591" data-name="Path 1023591" d="M581.3,313.7a7.3,7.3,0,0,1,3.4,7.969c-1.282,5.366-2.237,8.374-2.162,11.854s-7.369,10.172-10.732,0a1.547,1.547,0,0,1-1.522.668c-1.014-.16-1.735-1.869-.774-3.311s1.575-3.524,1.975-10.091S580.454,313.1,581.3,313.7Z" transform="translate(-533.61 -311.81)" fill="#bc705c"/>
            <g id="Group_1198599" data-name="Group 1198599" transform="translate(54.861 45.331)">
              <g id="Group_1198598" data-name="Group 1198598">
                <path id="Path_1023592" data-name="Path 1023592" d="M616.941,429.057a21.756,21.756,0,0,0,.018-2.708,73.313,73.313,0,0,0-.831-8.283c-.062-.417-.7-.24-.634.175a71.1,71.1,0,0,1,.811,8.207,21.3,21.3,0,0,1-.022,2.61c-.038.421.619.418.657,0Z" transform="translate(-615.491 -417.828)" fill="#222221"/>
              </g>
            </g>
            <g id="Group_1198601" data-name="Group 1198601" transform="translate(43.117 44.291)">
              <g id="Group_1198600" data-name="Group 1198600">
                <path id="Path_1023593" data-name="Path 1023593" d="M590.754,427.444a16.586,16.586,0,0,1-1.687-3.518,15.014,15.014,0,0,1-.744-8.174c.088-.412-.545-.589-.634-.175a15.6,15.6,0,0,0,.7,8.4,17.4,17.4,0,0,0,1.8,3.8c.232.352.8.023.568-.332Z" transform="translate(-587.396 -415.342)" fill="#222221"/>
              </g>
            </g>
            <g id="Group_1198603" data-name="Group 1198603" transform="translate(24.909 44.777)">
              <g id="Group_1198602" data-name="Group 1198602">
                <path id="Path_1023594" data-name="Path 1023594" d="M548.355,416.983c1.642,2.425,2.428,6.087.306,8.459a9.464,9.464,0,0,1-4.6,2.528.329.329,0,0,0,.175.634c2.7-.762,5.552-2.291,6.22-5.248a8.616,8.616,0,0,0-.888-5.532,9.029,9.029,0,0,0-.651-1.171c-.236-.349-.805-.02-.567.331Z" transform="translate(-543.835 -416.503)" fill="#222221"/>
              </g>
            </g>
          </g>
          <path id="Path_1023595" data-name="Path 1023595" d="M558.359,377.7a2.52,2.52,0,0,1,2.658-1.74c2.056.22,3.656-1.334,4.531-.8.723.446-.239,1.508-1.225,1.952-.722.325-1.726.279-1.6.447a4.817,4.817,0,0,0,1.792,1.213c.8.2,4.883.886,5.074.893,1.425.055,1.278.758,1.278.758-.034,1.069-2.768.735-3.53.652-1.15-.125-3.041-.475-3.041-.475l-.063.164s5.466,2.949,5.748,3.1a.641.641,0,0,1,.372.812c-.107.223-.428.46-1.111.266a36.774,36.774,0,0,1-5.883-2.285,26.654,26.654,0,0,1,3.825,3.038c.3.356.783.921.405,1.3-.431.427-1.279-.221-1.417-.31a31.2,31.2,0,0,1-3.9-3l-.2.1a16.632,16.632,0,0,1,2.584,3.141c.028.084.183.5-.149.7-.522.317-.788-.222-.848-.329a34.523,34.523,0,0,0-3.809-3.438,5.865,5.865,0,0,1-2.506-3.092A2.83,2.83,0,0,1,558.359,377.7Z" transform="translate(-526.73 -270.488)" fill="#e8af8e"/>
          <path id="Path_1023596" data-name="Path 1023596" d="M565.53,169.535a19.467,19.467,0,0,1-15.105-.216s-1.436,13.328-6.487,12.905c0,0-1.611-1.55-1.463-6.673s7.891-12.4,14.192-11.484A12.429,12.429,0,0,1,565.53,169.535Z" transform="translate(-518.13 -147.653)" fill="#222221"/>
          <path id="Path_1023597" data-name="Path 1023597" d="M654.672,343.448a2.065,2.065,0,0,1-2.017.572c-1.438-.358-3.719-1.069-3.173-1.877.785-1.161,4.709-2.344,5.75-1C655.824,341.9,655.265,342.809,654.672,343.448Z" transform="translate(-580.365 -250.407)" fill="#222221"/>
          <path id="Path_1023598" data-name="Path 1023598" d="M614.575,243.108a1.647,1.647,0,0,0,1.608.456c1.147-.285,2.965-.852,2.53-1.5-.626-.926-3.755-1.869-4.585-.8C613.656,241.878,614.1,242.6,614.575,243.108Z" transform="translate(-559.72 -192.353)" fill="#222221"/>
          <path id="Path_1023599" data-name="Path 1023599" d="M614.3,340a.365.365,0,0,1-.621-.353,2.8,2.8,0,0,1,2.915-2.128,3.3,3.3,0,0,1,2.921,2.521.366.366,0,0,1-.629.344C617.864,339.221,616.143,338.016,614.3,340Z" transform="translate(-559.561 -248.641)" fill="#222221"/>
          <path id="Path_1023600" data-name="Path 1023600" d="M632.94,235.234c-.171.248-.476.018-.392-.3.239-.915.75-1.919,1.843-1.824s1.609,1.2,1.846,2.159c.08.324-.231.551-.4.294C635.194,234.568,634.106,233.536,632.94,235.234Z" transform="translate(-570.549 -187.876)" fill="#222221"/>
          <path id="Path_1023601" data-name="Path 1023601" d="M618.839,233.517c.134.195.374.014.308-.237-.187-.719-.589-1.506-1.447-1.432s-1.263.941-1.45,1.7c-.063.255.181.433.312.231C617.069,232.994,617.923,232.184,618.839,233.517Z" transform="translate(-561.066 -187.143)" fill="#222221"/>
          <path id="Path_1023602" data-name="Path 1023602" d="M695.749,181.083a.823.823,0,1,0,.823-.823A.823.823,0,0,0,695.749,181.083Z" transform="translate(-607.34 -157.122)" fill="#fff"/>
        </g>
      </g>
    </g>
  </g>
</svg>
