<svg xmlns="http://www.w3.org/2000/svg" width="292" height="241" viewBox="0 0 292 241">
  <g id="img5" transform="translate(-1121 -3597)">
    <rect id="Rectangle_461457" data-name="Rectangle 461457" width="292" height="241" transform="translate(1121 3597)" fill="#b9c296"/>
    <g id="_13740863_2010.i606.001..online_medicine_set-14" data-name="13740863_2010.i606.001..online medicine set-14" transform="translate(1108.284 3552.339)">
      <g id="background_11_" transform="translate(50.3 68.83)">
        <ellipse id="Ellipse_16238" data-name="Ellipse 16238" cx="76.662" cy="76.662" rx="76.662" ry="76.662" transform="translate(0 108.416) rotate(-45)" fill="#fcd9d9"/>
        <g id="Group_1198974" data-name="Group 1198974" transform="translate(25.65 25.647)">
          <path id="Path_1025180" data-name="Path 1025180" d="M175.074,277.686a82.768,82.768,0,1,1,82.768-82.768A82.862,82.862,0,0,1,175.074,277.686Zm0-161.871a79.1,79.1,0,1,0,79.1,79.1A79.193,79.193,0,0,0,175.074,115.815Z" transform="translate(-92.306 -112.151)" fill="#fcd9d9"/>
        </g>
      </g>
      <g id="doctor_3_" transform="translate(101.399 119.639)">
        <path id="Path_1025181" data-name="Path 1025181" d="M226.627,220.632c5.846,3.056,10.1,17.867,7.577,27.143-4.017,14.777-14.324,20.112-27.437,23.386s-44.1,0-47.667-3.976a14.177,14.177,0,0,1-3.565-8.653s-7.263,2.654-12.167-4.677-9.545-25.019-4.184-34.375,17.6-33.677,37.2-37.419,38.546-4.444,45.563,10.991S226.627,220.632,226.627,220.632Z" transform="translate(-135.076 -163.659)" fill="#773128"/>
        <path id="Path_1025182" data-name="Path 1025182" d="M210.141,246.772l13.281,9.2L204.205,268.9,186.436,255.18l2.546-1.7,9.471-6.393-.311-9.05s-7.2-1.465-11.614-4.36c-2.455-1.612-3.865-4.69-4.69-7.364l-.092-.33-.018-.073a27.125,27.125,0,0,1-.9-4.561s-6.393.476-7.181-3.426c-.769-3.9-.147-5.606,1.575-7.016,1.7-1.392,4.36-.769,4.36-.769l.147-12.475s.861-17.623,10.881-18.868c3.279-.4,6.613-.971,9.837-1.374l18.081,3.5c5.2,5.77,5.477,18.337,5.477,18.337s.147,2.51.22,6.155c.165,8.225-.018,22.331-3.1,26.544-3.572,4.873-10.991,5.606-10.991,5.606Z" transform="translate(-149.301 -162.726)" fill="#f9aa8f"/>
        <path id="Path_1025183" data-name="Path 1025183" d="M228.22,205.408c-5.019-4.3-14.582-7-20.792-7.914a27.01,27.01,0,0,1-12.365-5.367,44.051,44.051,0,0,1-3.224,10.826,14,14,0,0,1-8.262,7.181l.147-12.475s.861-17.623,10.881-18.868c3.279-.4,6.613-.971,9.837-1.374l18.081,3.5c5.2,5.77,5.477,18.337,5.477,18.337S228.147,201.763,228.22,205.408Z" transform="translate(-153.294 -162.726)" fill="#cc6148"/>
        <g id="Group_1198975" data-name="Group 1198975" transform="translate(54.031 40.556)">
          <path id="Path_1025184" data-name="Path 1025184" d="M223.154,238.533a.687.687,0,0,1-.025-1.374l1.579-.059a4.555,4.555,0,0,0,2.764-1.562,2.586,2.586,0,0,0,.729-1.889,14.232,14.232,0,0,0-1.337-3.406c-1.106-2.32-2.248-4.718-1.77-6.438.462-1.66,1.116-3.494,1.144-3.571a.687.687,0,1,1,1.293.462c-.006.02-.666,1.865-1.114,3.478-.341,1.226.783,3.583,1.687,5.478a14.1,14.1,0,0,1,1.463,3.855,3.85,3.85,0,0,1-1.058,2.932,5.929,5.929,0,0,1-3.75,2.036l-1.578.059Z" transform="translate(-222.468 -219.776)" fill="#cc6148"/>
        </g>
        <path id="Path_1025185" data-name="Path 1025185" d="M228.564,221.5s-.7-1.637,0-2.1,10,.2,10,.584S228.564,221.5,228.564,221.5Z" transform="translate(-170.689 -179.009)" fill="#773128"/>
        <path id="Path_1025186" data-name="Path 1025186" d="M212.484,221.5s.292-1.935-.468-2.225-9.3.877-9.3,1.113S212.484,221.5,212.484,221.5Z" transform="translate(-160.748 -179.005)" fill="#773128"/>
        <path id="Path_1025187" data-name="Path 1025187" d="M210.107,231.467c0,1.347-.667,2.439-1.491,2.439s-1.491-1.092-1.491-2.439.667-2.439,1.491-2.439S210.107,230.12,210.107,231.467Z" transform="translate(-162.463 -182.822)" fill="#773128"/>
        <path id="Path_1025188" data-name="Path 1025188" d="M238.255,231.467c0,1.347-.667,2.439-1.491,2.439s-1.491-1.092-1.491-2.439.667-2.439,1.491-2.439S238.255,230.12,238.255,231.467Z" transform="translate(-173.423 -182.822)" fill="#773128"/>
        <g id="Group_1198976" data-name="Group 1198976" transform="translate(49.004 61.789)">
          <path id="Path_1025189" data-name="Path 1025189" d="M219.281,258.618a9.107,9.107,0,0,1-1.844-.2c-2.032-.418-3.1-2.806-3.144-2.908a.687.687,0,0,1,1.259-.553c.226.512,1.057,1.887,2.163,2.116a6.081,6.081,0,0,0,2.389.1.686.686,0,0,1,.344,1.329A4.732,4.732,0,0,1,219.281,258.618Z" transform="translate(-214.236 -254.548)" fill="#cc6148"/>
        </g>
        <g id="Group_1198977" data-name="Group 1198977" transform="translate(28.309 51.754)">
          <path id="Path_1025190" data-name="Path 1025190" d="M184.36,240.761a.684.684,0,0,1-.531-.25,2.884,2.884,0,0,0-2.667-.989.7.7,0,0,1-.806-.54.686.686,0,0,1,.533-.807,4.28,4.28,0,0,1,4,1.464.687.687,0,0,1-.53,1.124Z" transform="translate(-180.343 -238.114)" fill="#cc6148"/>
        </g>
        <path id="Path_1025191" data-name="Path 1025191" d="M233.719,207.308c-3.167,3.528-9.807,4.914-14.148,1.873-4.323-3.041-4.2-17.409-4.2-17.409s-1.666.917-6.5.642a16.379,16.379,0,0,1-5.9-1.356c-7.016-3.169-7.144-7.364-7.144-7.364a30.429,30.429,0,0,1-12.75,1.044,11.889,11.889,0,0,1-8.628-5.88,74.2,74.2,0,0,1-3.719,13.1c-2.968,8.079-6.467,8.811-6.467,8.811s-2.656-.623-4.36.769c-1.722,1.411-2.345,3.114-1.575,7.016.733,3.627,6.283,3.481,7.089,3.426-.092,5.954-.337,15.925-2.444,21.054-2.18,5.312-11.808,9.667-18.806,6.241-7-3.444-9.965-5.532-10.185-27.3-.238-21.744,17.641-28.064,17.641-28.064s-2.088-5.715,3.975-12.732a13.369,13.369,0,0,1,13.812-4.451s1.392-11.962,19.6-13.336c6.741-.495,7.932,4.342,7.932,4.342s8.882-4.389,20.557,1.092a13.059,13.059,0,0,1,7.406,9.523s12.082-.3,13.486,14.868C239.3,193.028,236.291,204.443,233.719,207.308Z" transform="translate(-133.983 -153.359)" fill="#a54d3c"/>
        <path id="Path_1025192" data-name="Path 1025192" d="M238.816,334.762a76.146,76.146,0,0,1-21.433,7.584c-.623.128-1.227.238-1.85.33-1.465.257-2.931.458-4.415.6a73.476,73.476,0,0,1-8.317.458,77.481,77.481,0,0,1-9.507-.586c-.458-.055-.916-.11-1.374-.183-1.7-.238-3.389-.531-5.038-.9a76.251,76.251,0,0,1-23.375-9.159c.092-6.925.769-14,2.894-17.275,3.114-4.8,11.779-10.955,17.549-14.728,3.206-2.107,5.532-3.462,5.532-3.462l-.788,10.387,1.227.513,1.117.476,12.035,5.019,8.7-9.1,1.136-1.191,3.151-3.3s1.008.44,2.528,1.227c3.407,1.74,9.416,5.148,13.043,9.068C235.592,314.868,237.808,324.211,238.816,334.762Z" transform="translate(-145.479 -209.463)" fill="#fcf9f9"/>
        <path id="Path_1025193" data-name="Path 1025193" d="M215.511,268.525l-8.482,3.517v7.639l-12.64,4.909-.037-.147,9.471-6.393L203.512,269s-7.2-1.466-11.614-4.36c-2.455-1.612-3.865-4.69-4.69-7.364l-.092-.33a14.724,14.724,0,0,0,8.134,8.3c6.7,2.6,9.654,3.517,13.391,3.755A26.667,26.667,0,0,0,215.511,268.525Z" transform="translate(-154.672 -193.693)" fill="#cc6148"/>
        <path id="Path_1025194" data-name="Path 1025194" d="M232.1,344.732c-1.465.257-2.931.458-4.415.6a73.476,73.476,0,0,1-8.317.458,77.481,77.481,0,0,1-9.507-.586c-.458-.055-.916-.11-1.374-.183l-2-34.623-.44-7.676,1.026.6,11.138,6.558,10.2-6.595.861-.568.2,2.876Z" transform="translate(-162.043 -211.519)" fill="#ff7769"/>
        <path id="Path_1025195" data-name="Path 1025195" d="M247.76,318.251l3.719,10.79-3.737,12.475c-.623.128-1.227.238-1.85.33-1.466.256-2.931.458-4.415.6.165-11.486.4-28.431.659-38.543.018-1.282.055-2.455.073-3.5.092-3.059.165-4.964.238-5.038.476-.531,5.954,2.858,6.082,3.792.018.165.183.7.421,1.484,1.081,3.591,3.92,12.237,3.92,12.237Z" transform="translate(-175.838 -208.633)" fill="#dd4231"/>
        <path id="Path_1025196" data-name="Path 1025196" d="M204.1,342.2c-.458-.055-.916-.11-1.374-.183-1.7-.238-3.389-.531-5.038-.9l-4.25-12.017,3.187-10.936-5.367-5.111s2.766-10.039,3.5-13.1c.092-.421.147-.714.165-.824.092-.953,5.386-4.6,5.9-4.085.073.073.256,2.07.495,5.276.165,2.07.348,4.653.531,7.547C202.56,318.072,203.457,332.233,204.1,342.2Z" transform="translate(-156.284 -208.509)" fill="#dd4231"/>
      </g>
      <g id="window_3_9_" transform="translate(164.475 230.046)">
        <path id="Path_1025197" data-name="Path 1025197" d="M312.467,351.651H239.741a1.336,1.336,0,0,1-1.336-1.336V336.628a1.336,1.336,0,0,1,1.336-1.336h72.726a1.336,1.336,0,0,1,1.336,1.336v13.687A1.335,1.335,0,0,1,312.467,351.651Z" transform="translate(-237.718 -334.605)" fill="#fcf9f9"/>
        <path id="Path_1025198" data-name="Path 1025198" d="M253.118,348a1.772,1.772,0,1,1-1.772-1.772A1.772,1.772,0,0,1,253.118,348Z" transform="translate(-242.067 -338.865)" fill="#939aa0"/>
        <path id="Path_1025199" data-name="Path 1025199" d="M272.267,348a1.772,1.772,0,1,1-1.772-1.772A1.772,1.772,0,0,1,272.267,348Z" transform="translate(-249.523 -338.865)" fill="#939aa0"/>
        <path id="Path_1025200" data-name="Path 1025200" d="M291.416,348a1.772,1.772,0,1,1-1.772-1.772A1.772,1.772,0,0,1,291.416,348Z" transform="translate(-256.979 -338.865)" fill="#939aa0"/>
        <path id="Path_1025201" data-name="Path 1025201" d="M310.565,348a1.772,1.772,0,1,1-1.772-1.772A1.772,1.772,0,0,1,310.565,348Z" transform="translate(-264.435 -338.865)" fill="#939aa0"/>
        <path id="Path_1025202" data-name="Path 1025202" d="M329.714,348a1.772,1.772,0,1,1-1.772-1.772A1.772,1.772,0,0,1,329.714,348Z" transform="translate(-271.891 -338.865)" fill="#939aa0"/>
        <path id="Path_1025203" data-name="Path 1025203" d="M348.863,348a1.772,1.772,0,1,1-1.773-1.772A1.772,1.772,0,0,1,348.863,348Z" transform="translate(-279.347 -338.865)" fill="#939aa0"/>
        <g id="Group_1198978" data-name="Group 1198978" transform="translate(53.164 16.359)">
          <path id="Path_1025204" data-name="Path 1025204" d="M328.774,362.332h-3.743a.687.687,0,0,1,0-1.374h3.743a.687.687,0,0,1,0,1.374Z" transform="translate(-324.345 -360.958)" fill="#939aa0"/>
        </g>
        <g id="Group_1198979" data-name="Group 1198979">
          <path id="Path_1025205" data-name="Path 1025205" d="M285.608,351.9H241.975a4.7,4.7,0,0,1-4.7-4.7v-8.342a4.7,4.7,0,0,1,4.7-4.7h67.382a4.7,4.7,0,0,1,4.7,4.7V345.9a.687.687,0,0,1-1.374,0v-7.041a3.325,3.325,0,0,0-3.322-3.322H241.975a3.325,3.325,0,0,0-3.321,3.322V347.2a3.325,3.325,0,0,0,3.321,3.322h43.632a.687.687,0,1,1,0,1.374Z" transform="translate(-237.28 -334.167)" fill="#939aa0"/>
        </g>
      </g>
      <g id="window_2_11_" transform="translate(197.922 125.949)">
        <path id="Path_1025206" data-name="Path 1025206" d="M340,164.819H301.55l-.023,0-8.349.037a8.279,8.279,0,0,1,3.08,2.406,10.107,10.107,0,0,1,1.284,4.478v48.143a4.009,4.009,0,0,0,4.009,4.009H340a4.009,4.009,0,0,0,4.009-4.009V168.828A4.009,4.009,0,0,0,340,164.819Z" transform="translate(-292.492 -164.131)" fill="#fcf9f9"/>
        <g id="Group_1198980" data-name="Group 1198980" transform="translate(27.061 16.254)">
          <path id="Path_1025207" data-name="Path 1025207" d="M347.4,191.684H337.058a.687.687,0,1,1,0-1.374H347.4a.687.687,0,0,1,0,1.374Z" transform="translate(-336.371 -190.31)" fill="#dd4231"/>
        </g>
        <g id="Group_1198981" data-name="Group 1198981" transform="translate(18.082 16.254)">
          <path id="Path_1025208" data-name="Path 1025208" d="M331.868,191.684h-9.514a.687.687,0,0,1,0-1.374h9.514a.687.687,0,0,1,0,1.374Z" transform="translate(-321.667 -190.31)" fill="#81f2ef"/>
        </g>
        <g id="Group_1198982" data-name="Group 1198982" transform="translate(27.061 22.397)">
          <path id="Path_1025209" data-name="Path 1025209" d="M345.447,201.744h-8.389a.687.687,0,0,1,0-1.374h8.389a.687.687,0,0,1,0,1.374Z" transform="translate(-336.371 -200.37)" fill="#dd4231"/>
        </g>
        <g id="Group_1198983" data-name="Group 1198983" transform="translate(20.034 22.397)">
          <path id="Path_1025210" data-name="Path 1025210" d="M333.113,201.744H325.55a.687.687,0,0,1,0-1.374h7.563a.687.687,0,0,1,0,1.374Z" transform="translate(-324.863 -200.37)" fill="#81f2ef"/>
        </g>
        <g id="Group_1198984" data-name="Group 1198984" transform="translate(19.718 37.948)">
          <path id="Path_1025211" data-name="Path 1025211" d="M332.911,227.212h-7.879a.687.687,0,0,1,0-1.374h7.88a.687.687,0,1,1,0,1.374Z" transform="translate(-324.345 -225.838)" fill="#dd4231"/>
        </g>
        <g id="Group_1198985" data-name="Group 1198985" transform="translate(27.597 37.948)">
          <path id="Path_1025212" data-name="Path 1025212" d="M346.1,227.212h-8.169a.687.687,0,0,1,0-1.374H346.1a.687.687,0,0,1,0,1.374Z" transform="translate(-337.249 -225.838)" fill="#81f2ef"/>
        </g>
        <g id="Group_1198986" data-name="Group 1198986" transform="translate(17.872 43.825)">
          <path id="Path_1025213" data-name="Path 1025213" d="M332.133,236.836H322.009a.687.687,0,1,1,0-1.374h10.124a.687.687,0,1,1,0,1.374Z" transform="translate(-321.322 -235.462)" fill="#dd4231"/>
        </g>
        <g id="Group_1198987" data-name="Group 1198987" transform="translate(27.597 43.825)">
          <path id="Path_1025214" data-name="Path 1025214" d="M347.95,236.836H337.935a.687.687,0,1,1,0-1.374H347.95a.687.687,0,0,1,0,1.374Z" transform="translate(-337.248 -235.462)" fill="#81f2ef"/>
        </g>
        <g id="Group_1198988" data-name="Group 1198988" transform="translate(17.686 12.496)">
          <path id="Path_1025215" data-name="Path 1025215" d="M341.817,219.986a.687.687,0,0,1-.687-.687c0-9.378-4.533-12.927-12-17.661-8.035-5.1-8.115-16.32-8.115-16.795a.687.687,0,1,1,1.374,0c0,.109.087,10.949,7.476,15.635,7.633,4.839,12.636,8.763,12.636,18.82A.687.687,0,0,1,341.817,219.986Z" transform="translate(-321.018 -184.157)" fill="#6a8f9b"/>
        </g>
        <g id="Group_1198989" data-name="Group 1198989" transform="translate(17.686 12.496)">
          <path id="Path_1025216" data-name="Path 1025216" d="M321.7,219.986a.687.687,0,0,1-.687-.687c0-10.058,5-13.981,12.636-18.82,7.389-4.687,7.477-15.526,7.477-15.635a.687.687,0,1,1,1.374,0c0,.474-.08,11.7-8.115,16.795-7.466,4.734-12,8.283-12,17.661A.687.687,0,0,1,321.7,219.986Z" transform="translate(-321.018 -184.157)" fill="#6a8f9b"/>
        </g>
        <g id="Group_1198990" data-name="Group 1198990">
          <path id="Path_1025217" data-name="Path 1025217" d="M297.1,216.7a.687.687,0,0,1-.687-.687V171.3a9.467,9.467,0,0,0-1.154-4.077,7.634,7.634,0,0,0-2.792-2.176.687.687,0,0,1,.267-1.318l8.349-.036,38.477,0a4.7,4.7,0,0,1,4.694,4.7v3.683a.687.687,0,1,1-1.374,0v-3.683a3.326,3.326,0,0,0-3.321-3.322l-44.453.029a7.167,7.167,0,0,1,1.268,1.329,10.685,10.685,0,0,1,1.411,4.847v44.738A.687.687,0,0,1,297.1,216.7Z" transform="translate(-292.054 -163.692)" fill="#939aa0"/>
        </g>
        <g id="Group_1198991" data-name="Group 1198991" transform="translate(50.83 30.919)">
          <path id="Path_1025218" data-name="Path 1025218" d="M375.984,221.35a.687.687,0,0,1-.687-.687v-5.65a.687.687,0,0,1,1.374,0v5.65A.687.687,0,0,1,375.984,221.35Z" transform="translate(-375.297 -214.327)" fill="#939aa0"/>
        </g>
        <g id="Group_1198992" data-name="Group 1198992" transform="translate(31.256 42.939)">
          <path id="Path_1025219" data-name="Path 1025219" d="M359.494,251.52H343.927a.687.687,0,0,1,0-1.374h15.567a3.325,3.325,0,0,0,3.321-3.321V234.7a.687.687,0,1,1,1.374,0v12.128A4.7,4.7,0,0,1,359.494,251.52Z" transform="translate(-343.24 -234.011)" fill="#939aa0"/>
        </g>
      </g>
      <g id="window_1_11_" transform="translate(63.827 124.422)">
        <path id="Path_1025220" data-name="Path 1025220" d="M119.285,162.318l-.023,0H77.586a4.009,4.009,0,0,0-4.009,4.009v92.686a4.009,4.009,0,0,0,4.009,4.009h41.676a4.009,4.009,0,0,0,4.009-4.009V169.239a10.112,10.112,0,0,1,1.283-4.478,8.283,8.283,0,0,1,3.08-2.406Z" transform="translate(-72.891 -161.629)" fill="#fcf9f9"/>
        <g id="Group_1198993" data-name="Group 1198993" transform="translate(9.093 41.263)">
          <path id="Path_1025221" data-name="Path 1025221" d="M88.47,229.89h0Z" transform="translate(-87.783 -229.203)" fill="#fcf9f9"/>
          <path id="Path_1025222" data-name="Path 1025222" d="M119.93,230.139h-31.9a.687.687,0,1,1,0-1.374h31.9a.687.687,0,1,1,0,1.374Z" transform="translate(-87.345 -228.765)" fill="#939aa0"/>
        </g>
        <g id="Group_1198994" data-name="Group 1198994" transform="translate(5.48 51.504)">
          <path id="Path_1025223" data-name="Path 1025223" d="M82.551,246.662h0Z" transform="translate(-81.865 -245.975)" fill="#fcf9f9"/>
          <path id="Path_1025224" data-name="Path 1025224" d="M121.114,246.911h-39a.687.687,0,0,1,0-1.374h39a.687.687,0,0,1,0,1.374Z" transform="translate(-81.427 -245.537)" fill="#939aa0"/>
        </g>
        <g id="Group_1198995" data-name="Group 1198995" transform="translate(12.093 46.382)">
          <path id="Path_1025225" data-name="Path 1025225" d="M93.384,238.276h0Z" transform="translate(-92.696 -237.588)" fill="#fcf9f9"/>
          <path id="Path_1025226" data-name="Path 1025226" d="M118.959,238.523H92.945a.687.687,0,1,1,0-1.374h26.014a.687.687,0,1,1,0,1.374Z" transform="translate(-92.258 -237.149)" fill="#939aa0"/>
        </g>
        <g id="Group_1198996" data-name="Group 1198996" transform="translate(5.48 67.011)">
          <path id="Path_1025227" data-name="Path 1025227" d="M82.551,272.056h0Z" transform="translate(-81.865 -271.37)" fill="#fcf9f9"/>
          <path id="Path_1025228" data-name="Path 1025228" d="M121.114,272.306h-39a.687.687,0,0,1,0-1.374h39a.687.687,0,0,1,0,1.374Z" transform="translate(-81.427 -270.932)" fill="#939aa0"/>
        </g>
        <g id="Group_1198997" data-name="Group 1198997" transform="translate(5.48 61.889)">
          <path id="Path_1025229" data-name="Path 1025229" d="M82.551,263.67h0Z" transform="translate(-81.865 -262.982)" fill="#fcf9f9"/>
          <path id="Path_1025230" data-name="Path 1025230" d="M121.114,263.918h-39a.687.687,0,0,1,0-1.374h39a.687.687,0,0,1,0,1.374Z" transform="translate(-81.427 -262.544)" fill="#939aa0"/>
        </g>
        <g id="Group_1198998" data-name="Group 1198998" transform="translate(5.48 72.276)">
          <path id="Path_1025231" data-name="Path 1025231" d="M82.551,280.677h0Z" transform="translate(-81.865 -279.991)" fill="#fcf9f9"/>
          <path id="Path_1025232" data-name="Path 1025232" d="M121.114,280.928h-39a.687.687,0,1,1,0-1.374h39a.687.687,0,0,1,0,1.374Z" transform="translate(-81.427 -279.554)" fill="#939aa0"/>
        </g>
        <g id="Group_1198999" data-name="Group 1198999" transform="translate(5.48 82.515)">
          <path id="Path_1025233" data-name="Path 1025233" d="M82.551,297.449h0Z" transform="translate(-81.865 -296.761)" fill="#fcf9f9"/>
          <path id="Path_1025234" data-name="Path 1025234" d="M121.114,297.7h-39a.687.687,0,0,1,0-1.374h39a.687.687,0,0,1,0,1.374Z" transform="translate(-81.427 -296.323)" fill="#939aa0"/>
        </g>
        <g id="Group_1199000" data-name="Group 1199000" transform="translate(9.576 77.395)">
          <path id="Path_1025235" data-name="Path 1025235" d="M89.261,289.063h0Z" transform="translate(-88.574 -288.376)" fill="#fcf9f9"/>
          <path id="Path_1025236" data-name="Path 1025236" d="M120.238,289.312H88.823a.687.687,0,1,1,0-1.374h31.415a.687.687,0,1,1,0,1.374Z" transform="translate(-88.136 -287.938)" fill="#939aa0"/>
        </g>
        <g id="Group_1199001" data-name="Group 1199001" transform="translate(30.422 87.78)">
          <path id="Path_1025237" data-name="Path 1025237" d="M123.4,306.071h0Z" transform="translate(-122.712 -305.383)" fill="#fcf9f9"/>
          <path id="Path_1025238" data-name="Path 1025238" d="M137.019,306.319H122.961a.687.687,0,1,1,0-1.374h14.058a.687.687,0,0,1,0,1.374Z" transform="translate(-122.274 -304.945)" fill="#939aa0"/>
        </g>
        <g id="Group_1199002" data-name="Group 1199002" transform="translate(30.422 92.902)">
          <path id="Path_1025239" data-name="Path 1025239" d="M123.4,314.457h0Z" transform="translate(-122.712 -313.771)" fill="#fcf9f9"/>
          <path id="Path_1025240" data-name="Path 1025240" d="M137.019,314.707H122.961a.687.687,0,1,1,0-1.374h14.058a.687.687,0,0,1,0,1.374Z" transform="translate(-122.274 -313.333)" fill="#939aa0"/>
        </g>
        <g id="Group_1199003" data-name="Group 1199003" transform="translate(5.48 56.594)">
          <path id="Path_1025241" data-name="Path 1025241" d="M82.551,255h0Z" transform="translate(-81.865 -254.31)" fill="#fcf9f9"/>
          <path id="Path_1025242" data-name="Path 1025242" d="M121.114,255.246h-39a.687.687,0,1,1,0-1.374h39a.687.687,0,0,1,0,1.374Z" transform="translate(-81.427 -253.872)" fill="#939aa0"/>
        </g>
        <rect id="Rectangle_462602" data-name="Rectangle 462602" width="39" height="3.619" transform="translate(6.166 34.326)" fill="#939aa0"/>
        <g id="Group_1199004" data-name="Group 1199004" transform="translate(13.776 6.02)">
          <path id="Path_1025243" data-name="Path 1025243" d="M118.56,179.276v8.476h-6.785V194.6h-8.468v-6.843H96.514v-8.476h6.793v-6.727h8.468v6.727Z" transform="translate(-95.598 -171.633)" fill="#81f2ef"/>
          <path id="Path_1025244" data-name="Path 1025244" d="M111.191,194.926h-8.469a.916.916,0,0,1-.916-.916v-5.927H95.93a.915.915,0,0,1-.916-.916v-8.476a.915.915,0,0,1,.916-.916h5.876v-5.811a.915.915,0,0,1,.916-.916h8.469a.915.915,0,0,1,.916.916v5.811h5.869a.915.915,0,0,1,.916.916v8.476a.915.915,0,0,1-.916.916h-5.869v5.927A.915.915,0,0,1,111.191,194.926Zm-7.553-1.832h6.637v-5.927a.915.915,0,0,1,.916-.916h5.869v-6.644h-5.869a.916.916,0,0,1-.916-.916v-5.811h-6.637v5.811a.915.915,0,0,1-.916.916H96.846v6.644h5.876a.915.915,0,0,1,.916.916Z" transform="translate(-95.014 -171.049)" fill="#2d918a"/>
        </g>
        <g id="Group_1199005" data-name="Group 1199005" transform="translate(16.483)">
          <path id="Path_1025245" data-name="Path 1025245" d="M103.338,162.565h-3.2a.687.687,0,1,1,0-1.374h3.2a.687.687,0,1,1,0,1.374Z" transform="translate(-99.446 -161.191)" fill="#939aa0"/>
        </g>
        <g id="Group_1199006" data-name="Group 1199006" transform="translate(0 0.001)">
          <path id="Path_1025246" data-name="Path 1025246" d="M118.825,263.269H77.148a4.7,4.7,0,0,1-4.7-4.7V165.888a4.7,4.7,0,0,1,4.7-4.7h8.085a.687.687,0,1,1,0,1.374H77.148a3.325,3.325,0,0,0-3.321,3.322v92.685a3.326,3.326,0,0,0,3.321,3.322h41.676a3.326,3.326,0,0,0,3.321-3.322V239.117a.687.687,0,0,1,1.374,0v19.456A4.7,4.7,0,0,1,118.825,263.269Z" transform="translate(-72.453 -161.192)" fill="#939aa0"/>
        </g>
      </g>
      <g id="Group_1199007" data-name="Group 1199007" transform="translate(74.945 88.249)">
        <rect id="Rectangle_462603" data-name="Rectangle 462603" width="122.251" height="5.145" transform="translate(0.916 0.916)" fill="#6a8f9b"/>
        <path id="Path_1025247" data-name="Path 1025247" d="M213.827,108.93H91.576a.915.915,0,0,1-.916-.916v-5.145a.915.915,0,0,1,.916-.916H213.827a.915.915,0,0,1,.916.916v5.145A.915.915,0,0,1,213.827,108.93ZM92.492,107.1H212.911v-3.313H92.492Z" transform="translate(-90.66 -101.953)" fill="#1e5259"/>
      </g>
      <g id="Group_1199013" data-name="Group 1199013" transform="translate(119.598 66.759)">
        <path id="Path_1025248" data-name="Path 1025248" d="M166.247,116.318h41.414A1.336,1.336,0,0,0,209,114.982V69.22a1.336,1.336,0,0,0-1.336-1.336H166.247a1.336,1.336,0,0,0-1.336,1.336v45.762A1.336,1.336,0,0,0,166.247,116.318Z" transform="translate(-164.224 -67.197)" fill="#fcf9f9"/>
        <path id="Path_1025249" data-name="Path 1025249" d="M204.242,87.148A8.848,8.848,0,1,1,195.4,78.3,8.847,8.847,0,0,1,204.242,87.148Z" transform="translate(-172.648 -71.253)" fill="#bce4ed"/>
        <path id="Path_1025250" data-name="Path 1025250" d="M203,96.38a8.85,8.85,0,0,1-10.735.037,6.38,6.38,0,0,1,4.378-3.481V91.562a3.81,3.81,0,0,1-2.62-3.7,3.6,3.6,0,1,1,7.181,0,3.844,3.844,0,0,1-2.565,3.7v1.374A6.385,6.385,0,0,1,203,96.38Z" transform="translate(-174.874 -73.478)" fill="#fcf9f9"/>
        <g id="Group_1199008" data-name="Group 1199008" transform="translate(13.202 6.351)">
          <path id="Path_1025251" data-name="Path 1025251" d="M194.943,96.23a9.542,9.542,0,1,1,5.8-1.973A9.528,9.528,0,0,1,194.943,96.23Zm0-17.7a8.164,8.164,0,0,0-4.93,14.669,8.287,8.287,0,0,0,9.9-.038,8.083,8.083,0,0,0,3.194-6.471A8.171,8.171,0,0,0,194.943,78.533Z" transform="translate(-185.407 -77.16)" fill="#6a8f9b"/>
        </g>
        <g id="Group_1199009" data-name="Group 1199009" transform="translate(6.108 36.351)">
          <path id="Path_1025252" data-name="Path 1025252" d="M174.914,127.415h0Z" transform="translate(-174.227 -126.728)" fill="#fcf9f9"/>
          <path id="Path_1025253" data-name="Path 1025253" d="M207.111,127.664H174.476a.687.687,0,0,1,0-1.374h32.635a.687.687,0,0,1,0,1.374Z" transform="translate(-173.789 -126.29)" fill="#939aa0"/>
        </g>
        <g id="Group_1199010" data-name="Group 1199010" transform="translate(6.108 41.473)">
          <path id="Path_1025254" data-name="Path 1025254" d="M174.914,135.8h0Z" transform="translate(-174.227 -135.115)" fill="#fcf9f9"/>
          <path id="Path_1025255" data-name="Path 1025255" d="M207.111,136.052H174.476a.687.687,0,0,1,0-1.374h32.635a.687.687,0,0,1,0,1.374Z" transform="translate(-173.789 -134.678)" fill="#939aa0"/>
        </g>
        <rect id="Rectangle_462604" data-name="Rectangle 462604" width="32.635" height="3.619" transform="translate(6.795 29.415)" fill="#939aa0"/>
        <g id="Group_1199011" data-name="Group 1199011">
          <path id="Path_1025256" data-name="Path 1025256" d="M174.378,116.567h-5.9a4.7,4.7,0,0,1-4.7-4.695V71.455a4.7,4.7,0,0,1,4.7-4.7h2.1a.687.687,0,0,1,0,1.374h-2.1a3.325,3.325,0,0,0-3.322,3.322v40.418a3.325,3.325,0,0,0,3.322,3.321h5.9a.687.687,0,1,1,0,1.373Z" transform="translate(-163.786 -66.759)" fill="#939aa0"/>
        </g>
        <g id="Group_1199012" data-name="Group 1199012" transform="translate(14.832)">
          <path id="Path_1025257" data-name="Path 1025257" d="M218.017,108.661a.687.687,0,0,1-.687-.687V71.455a3.325,3.325,0,0,0-3.321-3.322H188.762a.687.687,0,1,1,0-1.374h25.246a4.7,4.7,0,0,1,4.7,4.7v36.52A.687.687,0,0,1,218.017,108.661Z" transform="translate(-188.075 -66.759)" fill="#939aa0"/>
        </g>
      </g>
      <g id="Group_1199020" data-name="Group 1199020" transform="translate(66.812 66.759)">
        <path id="Path_1025258" data-name="Path 1025258" d="M79.8,116.318h41.415a1.336,1.336,0,0,0,1.336-1.336V69.22a1.336,1.336,0,0,0-1.336-1.336H79.8a1.336,1.336,0,0,0-1.336,1.336v45.762A1.336,1.336,0,0,0,79.8,116.318Z" transform="translate(-77.779 -67.197)" fill="#fcf9f9"/>
        <circle id="Ellipse_16239" data-name="Ellipse 16239" cx="8.847" cy="8.847" r="8.847" transform="translate(12.592 23.201) rotate(-80.741)" fill="#ff7769"/>
        <path id="Path_1025259" data-name="Path 1025259" d="M116.554,96.38a8.85,8.85,0,0,1-10.735.037,6.38,6.38,0,0,1,4.378-3.481V91.562a3.81,3.81,0,0,1-2.62-3.7,3.6,3.6,0,1,1,7.181,0,3.844,3.844,0,0,1-2.565,3.7v1.374A6.385,6.385,0,0,1,116.554,96.38Z" transform="translate(-88.43 -73.478)" fill="#fcf9f9"/>
        <g id="Group_1199014" data-name="Group 1199014" transform="translate(13.203 6.351)">
          <path id="Path_1025260" data-name="Path 1025260" d="M108.5,96.23a9.542,9.542,0,1,1,5.8-1.973A9.528,9.528,0,0,1,108.5,96.23Zm0-17.7A8.164,8.164,0,0,0,103.568,93.2a8.287,8.287,0,0,0,9.9-.038,8.083,8.083,0,0,0,3.194-6.471A8.17,8.17,0,0,0,108.5,78.533Z" transform="translate(-98.963 -77.16)" fill="#dd4231"/>
        </g>
        <g id="Group_1199015" data-name="Group 1199015" transform="translate(6.109 36.351)">
          <path id="Path_1025261" data-name="Path 1025261" d="M88.47,127.415h0Z" transform="translate(-87.783 -126.728)" fill="#fcf9f9"/>
          <path id="Path_1025262" data-name="Path 1025262" d="M120.667,127.664H88.032a.687.687,0,1,1,0-1.374h32.635a.687.687,0,0,1,0,1.374Z" transform="translate(-87.345 -126.29)" fill="#939aa0"/>
        </g>
        <g id="Group_1199016" data-name="Group 1199016" transform="translate(6.109 41.473)">
          <path id="Path_1025263" data-name="Path 1025263" d="M88.47,135.8h0Z" transform="translate(-87.783 -135.115)" fill="#fcf9f9"/>
          <path id="Path_1025264" data-name="Path 1025264" d="M120.667,136.052H88.032a.687.687,0,1,1,0-1.374h32.635a.687.687,0,0,1,0,1.374Z" transform="translate(-87.345 -134.678)" fill="#939aa0"/>
        </g>
        <rect id="Rectangle_462605" data-name="Rectangle 462605" width="32.635" height="3.619" transform="translate(6.796 29.415)" fill="#939aa0"/>
        <g id="Group_1199017" data-name="Group 1199017" transform="translate(0 22.608)">
          <path id="Path_1025265" data-name="Path 1025265" d="M78.028,112.714a.687.687,0,0,1-.687-.687v-7.557a.687.687,0,1,1,1.374,0v7.557A.687.687,0,0,1,78.028,112.714Z" transform="translate(-77.341 -103.784)" fill="#939aa0"/>
        </g>
        <g id="Group_1199018" data-name="Group 1199018" transform="translate(0 12.929)">
          <path id="Path_1025266" data-name="Path 1025266" d="M78.028,92.653a.687.687,0,0,1-.687-.687V88.619a.687.687,0,0,1,1.374,0v3.347A.687.687,0,0,1,78.028,92.653Z" transform="translate(-77.341 -87.932)" fill="#939aa0"/>
        </g>
        <g id="Group_1199019" data-name="Group 1199019" transform="translate(0.001)">
          <path id="Path_1025267" data-name="Path 1025267" d="M118.106,116.567H82.038a4.7,4.7,0,0,1-4.7-4.695v-9.514a.687.687,0,0,1,1.374,0v9.514a3.325,3.325,0,0,0,3.322,3.321h36.069a3.325,3.325,0,0,0,3.322-3.321V71.455a3.325,3.325,0,0,0-3.322-3.322H82.038a3.325,3.325,0,0,0-3.322,3.322v5.218a.687.687,0,0,1-1.374,0V71.455a4.7,4.7,0,0,1,4.7-4.7h36.069a4.7,4.7,0,0,1,4.7,4.7v40.418A4.7,4.7,0,0,1,118.106,116.567Z" transform="translate(-77.342 -66.759)" fill="#939aa0"/>
        </g>
      </g>
      <g id="Group_1199026" data-name="Group 1199026" transform="translate(172.403 66.759)">
        <path id="Path_1025268" data-name="Path 1025268" d="M252.724,116.318h41.415a1.336,1.336,0,0,0,1.336-1.336V69.22a1.336,1.336,0,0,0-1.336-1.336H252.724a1.336,1.336,0,0,0-1.336,1.336v45.762A1.336,1.336,0,0,0,252.724,116.318Z" transform="translate(-250.701 -67.197)" fill="#fcf9f9"/>
        <path id="Path_1025269" data-name="Path 1025269" d="M290.72,87.148a8.848,8.848,0,1,1-8.847-8.847A8.847,8.847,0,0,1,290.72,87.148Z" transform="translate(-259.126 -71.253)" fill="#81f2ef"/>
        <path id="Path_1025270" data-name="Path 1025270" d="M289.476,96.38a8.85,8.85,0,0,1-10.735.037,6.38,6.38,0,0,1,4.378-3.481V91.562a3.81,3.81,0,0,1-2.62-3.7,3.6,3.6,0,1,1,7.181,0,3.844,3.844,0,0,1-2.565,3.7v1.374A6.385,6.385,0,0,1,289.476,96.38Z" transform="translate(-261.352 -73.478)" fill="#fcf9f9"/>
        <g id="Group_1199021" data-name="Group 1199021" transform="translate(13.204 6.351)">
          <path id="Path_1025271" data-name="Path 1025271" d="M281.421,96.23a9.542,9.542,0,1,1,5.8-1.973A9.526,9.526,0,0,1,281.421,96.23Zm0-17.7a8.164,8.164,0,0,0-4.93,14.669,8.288,8.288,0,0,0,9.9-.038,8.083,8.083,0,0,0,3.194-6.471A8.171,8.171,0,0,0,281.421,78.533Z" transform="translate(-271.887 -77.16)" fill="#2d918a"/>
        </g>
        <g id="Group_1199022" data-name="Group 1199022" transform="translate(6.108 36.351)">
          <path id="Path_1025272" data-name="Path 1025272" d="M261.392,127.415h0Z" transform="translate(-260.704 -126.728)" fill="#fcf9f9"/>
          <path id="Path_1025273" data-name="Path 1025273" d="M293.588,127.664H260.953a.687.687,0,0,1,0-1.374h32.635a.687.687,0,0,1,0,1.374Z" transform="translate(-260.266 -126.29)" fill="#939aa0"/>
        </g>
        <g id="Group_1199023" data-name="Group 1199023" transform="translate(6.108 41.473)">
          <path id="Path_1025274" data-name="Path 1025274" d="M261.392,135.8h0Z" transform="translate(-260.704 -135.115)" fill="#fcf9f9"/>
          <path id="Path_1025275" data-name="Path 1025275" d="M293.588,136.052H260.953a.687.687,0,0,1,0-1.374h32.635a.687.687,0,0,1,0,1.374Z" transform="translate(-260.266 -134.678)" fill="#939aa0"/>
        </g>
        <rect id="Rectangle_462606" data-name="Rectangle 462606" width="32.635" height="3.619" transform="translate(6.796 29.415)" fill="#939aa0"/>
        <g id="Group_1199024" data-name="Group 1199024">
          <path id="Path_1025276" data-name="Path 1025276" d="M291.028,116.567h-36.07a4.7,4.7,0,0,1-4.7-4.695V75.12a.687.687,0,1,1,1.374,0v36.752a3.325,3.325,0,0,0,3.321,3.321h36.07a3.325,3.325,0,0,0,3.322-3.321V71.455a3.325,3.325,0,0,0-3.322-3.322H270.95a.687.687,0,0,1,0-1.374h20.077a4.7,4.7,0,0,1,4.7,4.7v40.418A4.7,4.7,0,0,1,291.028,116.567Z" transform="translate(-250.263 -66.759)" fill="#939aa0"/>
        </g>
        <g id="Group_1199025" data-name="Group 1199025" transform="translate(11.578 0)">
          <path id="Path_1025277" data-name="Path 1025277" d="M274.45,68.133h-4.539a.687.687,0,0,1,0-1.374h4.539a.687.687,0,0,1,0,1.374Z" transform="translate(-269.224 -66.759)" fill="#939aa0"/>
        </g>
      </g>
    </g>
  </g>
</svg>
