<svg xmlns="http://www.w3.org/2000/svg" xmlns:xlink="http://www.w3.org/1999/xlink" width="293" height="313" viewBox="0 0 293 313">
  <defs>
    <clipPath id="clip-path">
      <rect id="Rectangle_462153" data-name="Rectangle 462153" width="221.578" height="244.243" fill="none"/>
    </clipPath>
    <clipPath id="clip-path-3">
      <rect id="Rectangle_462146" data-name="Rectangle 462146" width="30.92" height="36.213" fill="none"/>
    </clipPath>
    <clipPath id="clip-path-4">
      <rect id="Rectangle_462147" data-name="Rectangle 462147" width="61.022" height="61.513" fill="none"/>
    </clipPath>
    <clipPath id="clip-path-5">
      <rect id="Rectangle_462148" data-name="Rectangle 462148" width="0.384" height="0.448" fill="none"/>
    </clipPath>
    <clipPath id="clip-path-6">
      <rect id="Rectangle_462149" data-name="Rectangle 462149" width="0.386" height="0.425" fill="none"/>
    </clipPath>
    <clipPath id="clip-path-7">
      <rect id="Rectangle_462150" data-name="Rectangle 462150" width="24.635" height="15.346" fill="none"/>
    </clipPath>
    <clipPath id="clip-path-8">
      <rect id="Rectangle_462151" data-name="Rectangle 462151" width="52.781" height="53.199" fill="none"/>
    </clipPath>
  </defs>
  <g id="img7" transform="translate(-1121 -3318)">
    <rect id="Image_Place_Holder" data-name="Image Place Holder" width="293" height="313" transform="translate(1121 3318)" fill="#ffe3c2"/>
    <g id="Group_1198043" data-name="Group 1198043" transform="translate(1156.211 3345.879)">
      <g id="Group_1198042" data-name="Group 1198042" clip-path="url(#clip-path)">
        <g id="Group_1198041" data-name="Group 1198041">
          <g id="Group_1198040" data-name="Group 1198040" clip-path="url(#clip-path)">
            <path id="Path_1020914" data-name="Path 1020914" d="M7.017,244.243A7.017,7.017,0,0,1,0,237.226V110.8A110.578,110.578,0,0,1,1.025,95.661c.014-.1.088-.584.115-.731.07-.509.139-.98.221-1.44.129-.943.292-1.909.495-2.945,0-.029.009-.058.015-.087A109.067,109.067,0,0,1,5.231,77.08c.66-2.078,1.386-4.154,2.155-6.167A110.325,110.325,0,0,1,22.443,43.918c.161-.219.325-.428.5-.648a110.653,110.653,0,0,1,32.2-28.307c.187-.105.27-.157.36-.213s.153-.095.23-.139A110.936,110.936,0,0,1,110.788,0a109.715,109.715,0,0,1,49.188,11.5l.161.08c.2.1.414.207.618.316a109.739,109.739,0,0,1,20.113,13.081c1.982,1.616,3.976,3.367,5.919,5.2l.489.455c.671.642,1.256,1.227,1.854,1.823a111.222,111.222,0,0,1,11.124,13A109.825,109.825,0,0,1,207.1,56.007l.12.211c.134.236.267.47.393.71a109.791,109.791,0,0,1,10.154,25c.564,2.1,1.037,4.075,1.449,6.05l.188.939a106.6,106.6,0,0,1,1.658,11.382c.029.226.049.441.068.658.281,3.107.432,6.356.444,9.595V237.226a7.017,7.017,0,0,1-7.017,7.017Z" transform="translate(0 0)" fill="#fff"/>
            <path id="Path_1020915" data-name="Path 1020915" d="M213.539,109.561V236.209H6V109.783a103.053,103.053,0,0,1,.959-14.175c.012-.094.035-.175.047-.281a1.827,1.827,0,0,1,.035-.222c.071-.515.142-1.029.235-1.532.129-.959.292-1.906.478-2.854v-.012A101.671,101.671,0,0,1,10.9,78.195c.62-1.953,1.3-3.895,2.024-5.789A103.26,103.26,0,0,1,27.047,47.1c.129-.175.257-.339.4-.515A104.225,104.225,0,0,1,57.655,20.011c.186-.105.363-.211.549-.327a103.951,103.951,0,0,1,97.632-2.912c.211.105.433.211.643.327A102.546,102.546,0,0,1,175.4,29.39c1.906,1.555,3.766,3.193,5.555,4.877.164.164.339.316.515.48.561.538,1.111,1.088,1.672,1.649a103.5,103.5,0,0,1,10.42,12.175,102.231,102.231,0,0,1,6.421,9.894c.152.269.3.526.444.8a102.775,102.775,0,0,1,9.543,23.472c.5,1.871.959,3.754,1.357,5.66l.175.877a99.751,99.751,0,0,1,1.567,10.806c.023.152.035.292.047.433q.4,4.473.421,9.052" transform="translate(1.016 1.017)" fill="#6f66ff"/>
            <path id="Path_1020916" data-name="Path 1020916" d="M153.795,221.4H13.37c-.257-8.222-1.708-65.365,7.52-86.474,9.485-21.66,40.571-38.641,43.576-40.255.152-.07.234-.117.234-.117l28.77-1.193,1.719.269,10.257,1.614,16.572,2.608,22.127,3.485.889,11.087.608,7.52.082.959.632,7.964.211,2.538,2.491,30.992,3.111,38.711.035.444.012.094Z" transform="translate(2.227 15.827)" fill="#fedede"/>
            <path id="Path_1020917" data-name="Path 1020917" d="M56.981,98.444s5.384,15.349,18.4,12.965S87.9,98.83,87.9,98.83l-.174-2.62-.807-11.836-.069-.957L58.88,75.448Z" transform="translate(9.66 12.79)" fill="#ffa3a3"/>
            <g id="Group_1198024" data-name="Group 1198024" transform="translate(66.64 88.237)" opacity="0.32">
              <g id="Group_1198023" data-name="Group 1198023">
                <g id="Group_1198022" data-name="Group 1198022" clip-path="url(#clip-path-3)">
                  <path id="Path_1020918" data-name="Path 1020918" d="M56.981,98.444s5.384,15.349,18.4,12.965S87.9,98.83,87.9,98.83l-.174-2.62-.807-11.836-.069-.957L58.88,75.448Z" transform="translate(-56.981 -75.447)" fill="#2d1026"/>
                </g>
              </g>
            </g>
            <path id="Path_1020919" data-name="Path 1020919" d="M63.069,80.614c4.981,8.157,14.115,13.563,23.623,14.721L85.885,83.5c-7.949-.582-14.959-.915-22.816-2.885" transform="translate(10.692 13.666)" fill="#2d1026"/>
            <path id="Path_1020920" data-name="Path 1020920" d="M87.327,33a19,19,0,0,1,12.334,4.906A15.192,15.192,0,0,1,104.5,50.089c-.211,2.3-.975,4.766.112,6.8,1.2,2.254,4.1,2.9,6.058,4.546,2.983,2.516,3.32,7.237,1.627,10.753-.753,1.561-1.831,2.945-2.621,4.487a6.693,6.693,0,0,0-.743,5.009c.819,2.514,3.611,3.714,5.449,5.617a8.839,8.839,0,0,1,2.206,8h-42C74.3,89.519,75.3,84.31,76.315,78.61c1.254-7.069,1.384-14.29,2.448-21.389,1.215-8.1,5.011-16.835,8.564-24.217" transform="translate(12.636 5.595)" fill="#2d1026"/>
            <path id="Path_1020921" data-name="Path 1020921" d="M108.043,70.9c-.206,5.637.4,14.392-5.389,20.52-8.622,9.14-39.527.729-39.527.729a59.2,59.2,0,0,0-1.22-8.408c.041.6-3.641.6-5.776.5-.734-.051-1.284-.1-1.449-.137a10.566,10.566,0,0,1-5.318-3.291,8.946,8.946,0,0,1-.028-11.755,8.36,8.36,0,0,1,1.173-1.041c.137-.105.284-.211.433-.305,0-.011.011,0,.011,0a6.055,6.055,0,0,1,4-1.058,6.968,6.968,0,0,1,3.305,1.236c.057.053.115.1.161.157a1.131,1.131,0,0,1,.232.491c-.028-.13-.047-.271-.063-.4A56.3,56.3,0,0,1,57.6,57.212,24.294,24.294,0,0,1,78.039,34.634a38.318,38.318,0,0,1,5.2-.451c.512-.025,1-.027,1.506-.008.23,0,.471.021.712.03a2.447,2.447,0,0,1,.285.02l.241.021c.274.019.549.039.823.069a22.944,22.944,0,0,1,5.044,1.054,21.655,21.655,0,0,1,11.713,9.162,30.674,30.674,0,0,1,4.172,12.7,86.237,86.237,0,0,1,.306,13.665" transform="translate(7.992 5.791)" fill="#ffa3a3"/>
            <g id="Group_1198027" data-name="Group 1198027" transform="translate(55.139 39.954)" opacity="0.32">
              <g id="Group_1198026" data-name="Group 1198026">
                <g id="Group_1198025" data-name="Group 1198025" clip-path="url(#clip-path-4)">
                  <path id="Path_1020922" data-name="Path 1020922" d="M108.043,70.9c-.206,5.637.4,14.392-5.389,20.52-8.622,9.14-39.527.729-39.527.729a59.2,59.2,0,0,0-1.22-8.408c.041.6-3.641.6-5.776.5-.734-.051-1.284-.1-1.449-.137a10.566,10.566,0,0,1-5.318-3.291,8.946,8.946,0,0,1-.028-11.755,8.36,8.36,0,0,1,1.173-1.041c.137-.105.284-.211.433-.305,0-.011.011,0,.011,0a6.055,6.055,0,0,1,4-1.058,6.968,6.968,0,0,1,3.305,1.236c.057.053.115.1.161.157a1.131,1.131,0,0,1,.232.491c-.028-.13-.047-.271-.063-.4A56.3,56.3,0,0,1,57.6,57.212,24.294,24.294,0,0,1,78.039,34.634a38.318,38.318,0,0,1,5.2-.451c.512-.025,1-.027,1.506-.008.23,0,.471.021.712.03a2.447,2.447,0,0,1,.285.02l.241.021c.274.019.549.039.823.069a22.944,22.944,0,0,1,5.044,1.054,21.655,21.655,0,0,1,11.713,9.162,30.674,30.674,0,0,1,4.172,12.7,86.237,86.237,0,0,1,.306,13.665" transform="translate(-47.147 -34.163)" fill="#2d1026"/>
                </g>
              </g>
            </g>
            <path id="Path_1020923" data-name="Path 1020923" d="M86.692,70.644a14.989,14.989,0,0,1-1.981-.174.278.278,0,0,1-.24-.313.27.27,0,0,1,.312-.24,9.953,9.953,0,0,0,2.773.109,3.122,3.122,0,0,0,2.206-1.277,4.2,4.2,0,0,0,.475-2.3,16.784,16.784,0,0,0-1.2-6.1.279.279,0,0,1,.518-.207,17.354,17.354,0,0,1,1.242,6.3,4.676,4.676,0,0,1-.564,2.607,3.659,3.659,0,0,1-2.59,1.526,6.184,6.184,0,0,1-.948.069" transform="translate(14.319 10.165)" fill="#2d1026"/>
            <path id="Path_1020924" data-name="Path 1020924" d="M85.72,73.278a4.885,4.885,0,0,1-.726-.054,5.06,5.06,0,0,1-3.546-2.369.279.279,0,0,1,.477-.288,4.452,4.452,0,0,0,6.782,1.021.279.279,0,1,1,.372.415,5.069,5.069,0,0,1-3.359,1.275" transform="translate(13.8 11.94)" fill="#2d1026"/>
            <path id="Path_1020925" data-name="Path 1020925" d="M97.19,55.452a2.193,2.193,0,0,1,.592.7,1.436,1.436,0,0,1-.393,1.81,3.087,3.087,0,0,1-1.27.551,8.322,8.322,0,0,1-4.678-.343c-1.812-.853-.925-2.755.774-3.367a5.7,5.7,0,0,1,4.975.65" transform="translate(15.332 9.24)" fill="#2d1026"/>
            <path id="Path_1020926" data-name="Path 1020926" d="M74.811,55.746a2.343,2.343,0,0,0-.525.8,1.579,1.579,0,0,0,.578,1.875,3.025,3.025,0,0,0,1.331.455,7.982,7.982,0,0,0,4.657-.835c1.73-1.084.649-3.009-1.117-3.485a5.508,5.508,0,0,0-4.924,1.189" transform="translate(12.575 9.222)" fill="#2d1026"/>
            <path id="Path_1020927" data-name="Path 1020927" d="M80.784,61.925a2.342,2.342,0,1,1-2.438-2.241,2.341,2.341,0,0,1,2.438,2.241" transform="translate(12.901 10.117)" fill="#2d1026"/>
            <path id="Path_1020928" data-name="Path 1020928" d="M96.41,61.494a2.342,2.342,0,1,1-2.438-2.24,2.342,2.342,0,0,1,2.438,2.24" transform="translate(15.55 10.045)" fill="#2d1026"/>
            <path id="Path_1020929" data-name="Path 1020929" d="M60.562,75.171a.248.248,0,0,1-.267-.182A21.218,21.218,0,0,0,58.319,69.8a8.859,8.859,0,0,0-3.855-3.7,5.352,5.352,0,0,0-5.05.239.248.248,0,1,1-.271-.415,5.843,5.843,0,0,1,5.522-.276,9.332,9.332,0,0,1,4.083,3.9,21.605,21.605,0,0,1,2.027,5.3.248.248,0,0,1-.177.3.2.2,0,0,1-.036.007" transform="translate(8.312 11.035)" fill="#2d1026"/>
            <g id="Group_1198030" data-name="Group 1198030" transform="translate(58.035 73.456)" opacity="0.27">
              <g id="Group_1198029" data-name="Group 1198029">
                <g id="Group_1198028" data-name="Group 1198028" clip-path="url(#clip-path-5)">
                  <path id="Path_1020930" data-name="Path 1020930" d="M50.008,63.074c-.129.05-.246.122-.373.182,0-.153,0-.295-.012-.448a1.324,1.324,0,0,1,.385.265" transform="translate(-49.623 -62.809)" fill="#2d1026"/>
                </g>
              </g>
            </g>
            <path id="Path_1020931" data-name="Path 1020931" d="M96.725,33.86c-.1,2.993-2.983,5.077-5.711,6.314s-5.822,2.3-7.374,4.859c-2.675,4.414.8,10.541-1.518,15.151a10.394,10.394,0,0,1-5.174,4.4c-2.1.965-4.335,1.623-6.345,2.76-4.058,2.3-6.982,6.838-6.6,11.488.218,2.662,1.436,5.121,2.237,7.67s1.14,5.492-.28,7.755l-36.2.6a6.968,6.968,0,0,1,.924-6.55c.663-.854,1.524-1.547,2.11-2.452,1.833-2.833.465-6.531.337-9.9A13.173,13.173,0,0,1,39.2,64.515c1.608-1,3.451-1.66,4.841-2.947A10.19,10.19,0,0,0,46.3,58.226c2.023-4.489,2.226-9.612,4.1-14.165A20.868,20.868,0,0,1,63.835,32.1a33.851,33.851,0,0,1,8.04-1.036,98.008,98.008,0,0,1,24.85,2.793" transform="translate(4.973 5.26)" fill="#2d1026"/>
            <path id="Path_1020932" data-name="Path 1020932" d="M121.377,67.388c5.809.185,11.744,1.978,15.985,5.952,4.586,4.3,6.717,10.661,7.412,16.908.31,2.773.453,5.786,2.242,7.926a10.7,10.7,0,0,0,5.27,2.989c7.428,2.261,15.591,2.183,22.506,5.712,5.731,2.924,10.067,8.119,12.958,13.866a36,36,0,0,1,3.726,21.765A27.031,27.031,0,0,1,179.8,160.9a37.123,37.123,0,0,1-10.533,4.245,85.289,85.289,0,0,1-33.575,1.982c-3.884-.547-7.938-1.467-10.824-4.123a19.785,19.785,0,0,1-4.469-7.291c-3.627-8.859-5.863-18.215-8.084-27.527-2.489-10.433-4.975-20.887-6.591-31.5a154.373,154.373,0,0,1-1.654-16.109c-.136-2.932-1.2-8.315,1.493-10.492,1.691-1.368,4.521-1.565,6.563-1.93a44.5,44.5,0,0,1,9.253-.773" transform="translate(17.588 11.421)" fill="#ff7373"/>
            <path id="Path_1020933" data-name="Path 1020933" d="M140.641,120.9s-6.243,8.01-14.1,9.2-9.951,0-9.951,0l-1.127-3.255-3.022-8.767,19.054-9.451,4.894-2.43Z" transform="translate(19.061 18.002)" fill="#ffa3a3"/>
            <path id="Path_1020934" data-name="Path 1020934" d="M132.991,108.218a19.475,19.475,0,0,1-7.638,13.613,28.3,28.3,0,0,1-6.149,3.337,37.465,37.465,0,0,1-3.744,1.325l-3.023-8.766,19.055-9.451c.5-.047,1-.058,1.5-.058" transform="translate(19.061 18.345)" fill="#2d1026"/>
            <path id="Path_1020935" data-name="Path 1020935" d="M93.948,108.714c1.215,5.293,2.231,13.682,8.814,18.428,9.81,7.081,37.511-6.472,37.511-6.472a57.2,57.2,0,0,1-.37-8.171c.07.573,3.553-.089,5.554-.573.685-.182,1.2-.329,1.345-.392a10.177,10.177,0,0,0,4.432-4.076,8.615,8.615,0,0,0-2.1-11.121,7.921,7.921,0,0,0-1.3-.772c-.149-.075-.308-.147-.464-.211,0-.011-.011,0-.011,0a5.842,5.842,0,0,0-3.976-.276,6.711,6.711,0,0,0-2.9,1.769,1.8,1.8,0,0,0-.124.177,1.087,1.087,0,0,0-.13.506c0-.127-.006-.264-.013-.391a54.24,54.24,0,0,0-1.04-10.508,23.393,23.393,0,0,0-23.423-17.646,36.957,36.957,0,0,0-5,.516c-.489.069-.954.156-1.427.265-.216.041-.441.1-.668.158a2.143,2.143,0,0,0-.265.069c-.071.021-.143.042-.225.064-.256.068-.511.136-.766.214a22.087,22.087,0,0,0-4.579,1.911,20.847,20.847,0,0,0-9.416,10.786,29.524,29.524,0,0,0-1.644,12.765,82.946,82.946,0,0,0,2.186,12.977" transform="translate(15.54 11.693)" fill="#ffa3a3"/>
            <path id="Path_1020936" data-name="Path 1020936" d="M107.893,107.876a4.866,4.866,0,0,1-2.495-.683.269.269,0,0,1,.277-.461,4.287,4.287,0,0,0,6.229-2.193.267.267,0,1,1,.5.185,4.866,4.866,0,0,1-2.924,2.883,4.792,4.792,0,0,1-1.589.269" transform="translate(17.845 17.692)" fill="#2d1026"/>
            <path id="Path_1020937" data-name="Path 1020937" d="M110.4,96.45a2.255,2.255,0,1,0,1.9-2.56,2.254,2.254,0,0,0-1.9,2.56" transform="translate(18.711 15.912)" fill="#2d1026"/>
            <path id="Path_1020938" data-name="Path 1020938" d="M96.12,100.312a2.255,2.255,0,1,0,1.9-2.561,2.254,2.254,0,0,0-1.9,2.561" transform="translate(16.29 16.567)" fill="#2d1026"/>
            <path id="Path_1020939" data-name="Path 1020939" d="M133.262,104.963a.238.238,0,0,0,.219-.221,20.46,20.46,0,0,1,.93-5.261,8.528,8.528,0,0,1,2.975-4.2A5.147,5.147,0,0,1,142.2,94.6a.239.239,0,0,0,.181-.443,5.628,5.628,0,0,0-5.272.74,8.978,8.978,0,0,0-3.153,4.43,20.838,20.838,0,0,0-.956,5.384.238.238,0,0,0,.221.255.188.188,0,0,0,.036,0" transform="translate(22.547 15.9)" fill="#2d1026"/>
            <g id="Group_1198033" data-name="Group 1198033" transform="translate(163.435 106.844)" opacity="0.27">
              <g id="Group_1198032" data-name="Group 1198032">
                <g id="Group_1198031" data-name="Group 1198031" clip-path="url(#clip-path-6)">
                  <path id="Path_1020940" data-name="Path 1020940" d="M139.745,91.677c.131.025.254.07.386.1-.03-.144-.05-.278-.07-.425a1.305,1.305,0,0,0-.316.32" transform="translate(-139.745 -91.357)" fill="#2d1026"/>
                </g>
              </g>
            </g>
            <path id="Path_1020941" data-name="Path 1020941" d="M103.843,106.464a.808.808,0,0,1-.537-.184,1.148,1.148,0,0,1-.288-.952l.326-7.981a.27.27,0,0,1,.269-.258h.012a.27.27,0,0,1,.256.28l-.326,7.981c-.009.219,0,.435.1.524s.285.07.558-.026a6.582,6.582,0,0,0,2.008-1.129.268.268,0,1,1,.34.414,7.06,7.06,0,0,1-2.169,1.221,1.68,1.68,0,0,1-.55.11" transform="translate(17.463 16.459)" fill="#2d1026"/>
            <path id="Path_1020942" data-name="Path 1020942" d="M93.89,95.169a.984.984,0,0,0,.84.568,2.821,2.821,0,0,0,1.119-.127,9.883,9.883,0,0,0,2.6-1.127,1.84,1.84,0,0,0,.925-1.013c.3-1.406-2.11-1.564-3.183-1.233-1.05.325-2.6,1.966-2.3,2.932" transform="translate(15.91 15.611)" fill="#ff7373"/>
            <path id="Path_1020943" data-name="Path 1020943" d="M113.874,89.458a.989.989,0,0,1-.372.944,2.851,2.851,0,0,1-1,.526,9.834,9.834,0,0,1-2.783.539,1.828,1.828,0,0,1-1.336-.313c-1.044-.987.857-2.483,1.931-2.814,1.05-.325,3.257.152,3.555,1.118" transform="translate(18.323 14.958)" fill="#ff7373"/>
            <path id="Path_1020944" data-name="Path 1020944" d="M105.015,83.522c3.65,2.175,8.116,2.615,12.34,2.145.4,3.215,1.111,6.707,3.626,8.749a9.069,9.069,0,0,0,5.314,1.817,26.662,26.662,0,0,0,5.676-.544,31.484,31.484,0,0,0,3.279,5.775c.222.309.515.647.894.625.394-.022.647-.42.819-.777a47.885,47.885,0,0,1,2.286-4.923,12.693,12.693,0,0,0,1.665-2.827,7.041,7.041,0,0,0,.145-2.752,29.059,29.059,0,0,0-3.11-10.979,20.477,20.477,0,0,0-7.778-8.244,23.5,23.5,0,0,0-6.162-2.331A34.814,34.814,0,0,0,101.885,71.3c-1,.448-2.383.98-2.721,2.123a7.126,7.126,0,0,0,.586,3.878,12.4,12.4,0,0,0,5.265,6.22" transform="translate(16.792 11.581)" fill="#ff7373"/>
            <path id="Path_1020945" data-name="Path 1020945" d="M91.417,82.008a20.816,20.816,0,0,0-2.074,7.005A9.866,9.866,0,0,0,89.29,91.7a2.979,2.979,0,0,0,.647,1.571,2.721,2.721,0,0,0,3.656-.087,7.911,7.911,0,0,0,1.985-3.478c1.041,1.5,2.4,3.173,4.224,3.106a3.611,3.611,0,0,0,1.918-.715c2.288-1.62,2.874-4.73,3.038-7.528a25.147,25.147,0,0,0-1.562-11.45c-.353-.819-.5-1.629-1.451-1.416-.718.163-1.682,1.208-2.27,1.655a41.919,41.919,0,0,0-4.255,3.626,20.582,20.582,0,0,0-3.8,5.022" transform="translate(15.125 12.15)" fill="#ff7373"/>
            <path id="Path_1020946" data-name="Path 1020946" d="M194.363,218.262H109.117c.1-2.164.525-10.315,1.1-18.666.07-.9.139-1.8.2-2.7.478-6.432,1.053-12.619,1.648-15.87,1.58-8.608,4.2-40.606,4.2-40.606a13.462,13.462,0,0,1-2.62.444c-1.486.094-3.263-5.251-4.351-10.292-.609-2.842,1.309-4.7,3.1-5.8a12.291,12.291,0,0,1,2.737-1.228l.244.444.013.012.981,1.766L117.608,128s.784.094,9.694-1.591a26.156,26.156,0,0,0,2.785-.678,24.154,24.154,0,0,0,10.771-6.444l-.551-2.444-.012-.058-.83-3.731a28.151,28.151,0,0,1,7.719-1.181c3.567.094,5.637,11.473,5.637,11.473s.5.2,8.608,3.368c7.953,3.111,15.239,7.637,23.648,20.958.164.269.339.538.5.807,8.1,13.134,8.748,63.879,8.784,69.785" transform="translate(18.498 18.964)" fill="#ffcb7d"/>
            <path id="Path_1020947" data-name="Path 1020947" d="M87.459,166.917,87.32,174.1l-.012.837s-2.674.883-11.277,1.488-13.207-.895-13.207-.895l.151-14.311,6.7,1.558Z" transform="translate(10.65 27.33)" fill="#ffa3a3"/>
            <g id="Group_1198036" data-name="Group 1198036" transform="translate(73.475 188.551)" opacity="0.09">
              <g id="Group_1198035" data-name="Group 1198035">
                <g id="Group_1198034" data-name="Group 1198034" clip-path="url(#clip-path-7)">
                  <path id="Path_1020948" data-name="Path 1020948" d="M87.459,166.917,87.32,174.1l-.012.837s-2.674.883-11.277,1.488-13.207-.895-13.207-.895l.151-14.311,6.7,1.558Z" transform="translate(-62.825 -161.221)" fill="#2d1026"/>
                </g>
              </g>
            </g>
            <path id="Path_1020949" data-name="Path 1020949" d="M86.773,166.691l-.139,7.184a2.876,2.876,0,0,1-.407.233,7.657,7.657,0,0,1-3.7.534,23.288,23.288,0,0,1-9.045-2.092c-2.313-1.116-5.568-3.255-6.452-5.836-.593-1.767.477-3.186,1.953-4.162Z" transform="translate(11.335 27.556)" fill="#2d1026"/>
            <path id="Path_1020950" data-name="Path 1020950" d="M102.012,125.162A13.209,13.209,0,1,1,88.8,111.953a13.209,13.209,0,0,1,13.209,13.209" transform="translate(12.815 18.978)" fill="#ff7373"/>
            <path id="Path_1020951" data-name="Path 1020951" d="M104.716,156.386c-.187,4.876.32,12.447-4.685,17.736-7.471,7.893-34.187.579-34.187.579a51.243,51.243,0,0,0-1.044-7.265c.054.694-5.686.447-6.243.3a9.087,9.087,0,0,1-4.6-2.851,7.738,7.738,0,0,1-.006-10.16,5.957,5.957,0,0,1,4.861-2.074,6.058,6.058,0,0,1,2.858,1.069.947.947,0,0,1,.333.559,50.11,50.11,0,0,1-.9-9.785,21.016,21.016,0,0,1,17.708-19.5,32.926,32.926,0,0,1,4.5-.389c.442-.016.867-.023,1.3,0,.2,0,.411.02.615.03a2.082,2.082,0,0,1,.248.016c.069,0,.138.015.206.019.24.016.48.033.719.057a18.981,18.981,0,0,1,14.479,8.86,26.5,26.5,0,0,1,3.587,10.99,74.244,74.244,0,0,1,.247,11.813" transform="translate(8.824 21.12)" fill="#ffa3a3"/>
            <g id="Group_1198039" data-name="Group 1198039" transform="translate(60.876 145.709)" opacity="0.09">
              <g id="Group_1198038" data-name="Group 1198038">
                <g id="Group_1198037" data-name="Group 1198037" clip-path="url(#clip-path-8)">
                  <path id="Path_1020952" data-name="Path 1020952" d="M104.716,156.386c-.187,4.876.32,12.447-4.685,17.736-7.471,7.893-34.187.579-34.187.579a51.243,51.243,0,0,0-1.044-7.265c.054.694-5.686.447-6.243.3a9.087,9.087,0,0,1-4.6-2.851,7.738,7.738,0,0,1-.006-10.16,5.957,5.957,0,0,1,4.861-2.074,6.058,6.058,0,0,1,2.858,1.069.947.947,0,0,1,.333.559,50.11,50.11,0,0,1-.9-9.785,21.016,21.016,0,0,1,17.708-19.5,32.926,32.926,0,0,1,4.5-.389c.442-.016.867-.023,1.3,0,.2,0,.411.02.615.03a2.082,2.082,0,0,1,.248.016c.069,0,.138.015.206.019.24.016.48.033.719.057a18.981,18.981,0,0,1,14.479,8.86,26.5,26.5,0,0,1,3.587,10.99,74.244,74.244,0,0,1,.247,11.813" transform="translate(-52.052 -124.588)" fill="#2d1026"/>
                </g>
              </g>
            </g>
            <path id="Path_1020953" data-name="Path 1020953" d="M86.683,157.56a4.789,4.789,0,0,1-3.622-1.355.307.307,0,0,1,0-.436.311.311,0,0,1,.437,0,4.219,4.219,0,0,0,3.284,1.164,4.668,4.668,0,0,0,1.519-.381.308.308,0,0,1,.248.565,5.289,5.289,0,0,1-1.719.432l-.15.009" transform="translate(14.065 26.391)" fill="#2d1026"/>
            <path id="Path_1020954" data-name="Path 1020954" d="M80.927,149.994a2.389,2.389,0,1,1-2.484-2.29,2.389,2.389,0,0,1,2.484,2.29" transform="translate(12.909 25.039)" fill="#2d1026"/>
            <path id="Path_1020955" data-name="Path 1020955" d="M95.651,150a2.389,2.389,0,1,1-2.484-2.29A2.389,2.389,0,0,1,95.651,150" transform="translate(15.405 25.04)" fill="#2d1026"/>
            <path id="Path_1020956" data-name="Path 1020956" d="M63.643,160.029a.214.214,0,0,1-.23-.158,18.4,18.4,0,0,0-1.7-4.487,7.658,7.658,0,0,0-3.33-3.2,4.626,4.626,0,0,0-4.367.2.214.214,0,1,1-.234-.359,5.053,5.053,0,0,1,4.776-.232,8.069,8.069,0,0,1,3.525,3.38,18.634,18.634,0,0,1,1.745,4.59.214.214,0,0,1-.152.263l-.032.006" transform="translate(9.1 25.649)" fill="#2d1026"/>
            <path id="Path_1020957" data-name="Path 1020957" d="M54.3,154.311a8.039,8.039,0,0,1,9.149,1.3,2.241,2.241,0,0,0,.991.7,1.794,1.794,0,0,0,.878-.088c3.288-.934,5.121-4.459,6.995-7.318a39.4,39.4,0,0,0,4.337-8.4c1.674-3.544,5.837-4.294,7.462-5.25,5.148-3.023,6.506-5.484,6.55-11.453a38.333,38.333,0,0,0-17.522-1.075,30.9,30.9,0,0,0-9.955,3.116,17.481,17.481,0,0,0-7.373,7.226c-1.807,3.549-2.045,7.666-2.164,11.647-.092,3.126.64,6.473.651,9.6" transform="translate(9.094 20.714)" fill="#ff7373"/>
            <path id="Path_1020958" data-name="Path 1020958" d="M75.612,130.051c.246-.12.5.132.66.357a32.288,32.288,0,0,1,5.21,12.586l20.368-.946s-1.337-13.357-13.8-16.919-15.584-2.671-15.584-2.671l2.968,6.975Z" transform="translate(12.284 20.742)" fill="#ff7373"/>
            <path id="Path_1020959" data-name="Path 1020959" d="M87.061,156.184a4.109,4.109,0,0,1-.76-.094.29.29,0,1,1,.106-.571,2.451,2.451,0,0,0,.91.058.627.627,0,0,0,.5-.415,1.066,1.066,0,0,0-.07-.48c-.377-1.305-.781-2.634-1.2-3.949a.29.29,0,1,1,.552-.177c.425,1.32.829,2.654,1.207,3.964a1.569,1.569,0,0,1,.084.758,1.2,1.2,0,0,1-.957.869,1.85,1.85,0,0,1-.373.036" transform="translate(14.59 25.489)" fill="#2d1026"/>
            <path id="Path_1020960" data-name="Path 1020960" d="M75.439,145.06a1.671,1.671,0,0,0-.413.637.66.66,0,0,0,.177.7.949.949,0,0,0,.51.152,9.049,9.049,0,0,0,3.658-.436c.6-.2,1.282-.6,1.293-1.243a1.17,1.17,0,0,0-.17-.587,2.027,2.027,0,0,0-1.38-.941c-1.47-.281-2.744.706-3.676,1.719" transform="translate(12.713 24.291)" fill="#ff7373"/>
            <path id="Path_1020961" data-name="Path 1020961" d="M95.337,144.261a1.686,1.686,0,0,1,.557.517.661.661,0,0,1,0,.722.932.932,0,0,1-.456.271,9.019,9.019,0,0,1-3.655.47c-.636-.05-1.389-.274-1.557-.89a1.141,1.141,0,0,1,.021-.61,2.03,2.03,0,0,1,1.108-1.25c1.358-.632,2.834.016,3.985.771" transform="translate(15.289 24.281)" fill="#ff7373"/>
            <path id="Path_1020962" data-name="Path 1020962" d="M68.68,129.053a13.209,13.209,0,1,1-13.209-13.209A13.209,13.209,0,0,1,68.68,129.053" transform="translate(7.164 19.638)" fill="#ff7373"/>
            <path id="Path_1020963" data-name="Path 1020963" d="M132.534,208.229H29.476c1.626-6.6,5.941-20.186,14.514-23.531,11.426-4.456,22.852-5.485,23.3-6.678a61.812,61.812,0,0,0,1.041-6.97l.187.012,12.151.421h.012l12.3.421.865.035s-.444,5.929.748,7.122c1.006,1.006,20.268,3.2,29.32,7.8a12.075,12.075,0,0,1,3.544,2.491c.023.023.047.058.07.082l.012.012a4.1,4.1,0,0,1,.339.421c3.567,4.6,4.444,13.4,4.655,18.361" transform="translate(4.997 28.997)" fill="#925cd5"/>
            <path id="Path_1020964" data-name="Path 1020964" d="M90.527,204.556h-38.4c-2.2-.608-3.754-1.3-3.7-2.012.2-2.374,28-.8,28-.8s-9.391-7.707-8.011-8.9c1.193-1.017,16.022,4.257,20.315,5.813h.012c.725.269,1.146.421,1.146.421l.4-.094Z" transform="translate(8.211 32.67)" fill="#ffa3a3"/>
            <path id="Path_1020965" data-name="Path 1020965" d="M194.673,162.194s-.2,4.935-.656,12.011c-.164,2.351-.35,4.924-.561,7.637v.012a272.935,272.935,0,0,1-3.648,29.3c-.013.082-.025.152-.035.234-.083.444-.177.877-.27,1.3H83.078l-.164-5.894H82.9l-.035-1.462,9.508-.6s-1.193-7.707,4.748-9.5c2.082-.62,9.052-.924,17.543-1.216l1.041-.035h.035c.9-.035,1.813-.07,2.737-.094,7.239-.257,15.157-.55,21.905-1.053,3.8-.281,7.238-.632,9.963-1.088l.048-.012c.678-.105,1.32-.234,1.905-.363.187-.035.375-.07.55-.117a11.773,11.773,0,0,0,3.042-1.064c4.958-2.889,6.467-23.753,6.924-36.173.2-5.427.2-9.239.2-9.239l12.034,6.619Z" transform="translate(14.048 24.543)" fill="#ffcb7d"/>
            <path id="Path_1020966" data-name="Path 1020966" d="M111,195.387a.268.268,0,0,1-.018-.536l36.577-2.361c.338-3.821,4.149-44.34,14.323-52.788a.269.269,0,0,1,.343.414c-10.281,8.535-14.114,52.21-14.151,52.65a.27.27,0,0,1-.25.246l-36.806,2.374H111" transform="translate(18.771 23.672)" fill="#2d1026"/>
            <path id="Path_1020967" data-name="Path 1020967" d="M178.954,170.222s-.363,3.006-.889,7.356v.012c-.421,3.5-.959,7.847-1.485,12.21-1.181,9.59-1.8,14.525-2.164,17.087-.012.082-.023.152-.035.234-.082.538-.14.971-.2,1.3h-.526c.725-4.854,3.614-28.63,4.772-38.255a.237.237,0,0,1,.2-.222.228.228,0,0,1,.094-.012.256.256,0,0,1,.234.292" transform="translate(29.438 28.807)" fill="#2d1026"/>
            <path id="Path_1020968" data-name="Path 1020968" d="M55.153,17.7c-.188.117-.364.222-.55.327A20.8,20.8,0,1,1,24.395,44.6c-.14.175-.269.339-.4.515A21.382,21.382,0,1,0,55.153,17.7" transform="translate(4.068 3.001)" fill="#fff"/>
            <path id="Path_1020969" data-name="Path 1020969" d="M187.331,80.961a20.8,20.8,0,1,1-18.385-30.536,20.468,20.468,0,0,1,7.485,1.4c-.14-.269-.292-.526-.444-.8a21.393,21.393,0,1,0,11.52,30.805l-.175-.877" transform="translate(25.014 8.449)" fill="#fff"/>
            <path id="Path_1020970" data-name="Path 1020970" d="M190.332,100.62v17.917H142.9a26.032,26.032,0,0,1,2.678-2.257c3.45-2.5,7.824-3.976,12.023-3.216,2.678.491,5.31,1.86,8,1.392,2.433-.421,4.327-2.234,6.2-3.848a49.464,49.464,0,0,1,18.525-9.988Z" transform="translate(24.224 17.057)" fill="#fedede"/>
            <path id="Path_1020971" data-name="Path 1020971" d="M176.82,45.18H104.766a26.032,26.032,0,0,1,2.678-2.257c3.45-2.5,7.824-3.976,12.023-3.216,2.678.491,5.31,1.86,8,1.392,2.433-.421,4.327-2.234,6.2-3.848a49.464,49.464,0,0,1,18.525-9.988A35.731,35.731,0,0,1,158.658,26c1.906,1.555,3.766,3.193,5.555,4.877.164.164.339.316.515.48.561.538,1.111,1.088,1.672,1.649A103.5,103.5,0,0,1,176.82,45.18" transform="translate(17.76 4.408)" fill="#fedede"/>
            <path id="Path_1020972" data-name="Path 1020972" d="M39.433,98.988H6v-1.7a103.053,103.053,0,0,1,.959-14.175c.012-.094.035-.175.047-.281a1.462,1.462,0,0,1,.035-.222c.07-.515.14-1.029.234-1.532.012-.012.012-.012.023-.012a28.959,28.959,0,0,1,11.859-1.181c9.508,1.322,17.04,9.426,20.186,18.5Z" transform="translate(1.016 13.509)" fill="#fedede"/>
            <path id="Path_1020973" data-name="Path 1020973" d="M98.7,24.476,95.408,25.75a5.408,5.408,0,0,0-3.093,3.093l-1.274,3.293-1.274-3.293a5.406,5.406,0,0,0-3.092-3.093l-3.293-1.274L86.675,23.2a5.406,5.406,0,0,0,3.092-3.093l1.274-3.293,1.274,3.293A5.408,5.408,0,0,0,95.408,23.2Z" transform="translate(14.135 2.851)" fill="#fff"/>
            <path id="Path_1020974" data-name="Path 1020974" d="M169.51,69.412l-3.293,1.274a5.408,5.408,0,0,0-3.093,3.093l-1.274,3.293-1.272-3.293a5.412,5.412,0,0,0-3.093-3.093l-3.293-1.274,3.293-1.274a5.412,5.412,0,0,0,3.093-3.093l1.272-3.293,1.274,3.293a5.408,5.408,0,0,0,3.093,3.093Z" transform="translate(26.139 10.468)" fill="#fff"/>
            <path id="Path_1020975" data-name="Path 1020975" d="M27.893,127.625,24.6,128.9a5.408,5.408,0,0,0-3.093,3.093l-1.274,3.293-1.274-3.293a5.406,5.406,0,0,0-3.092-3.093l-3.293-1.274,3.293-1.274a5.406,5.406,0,0,0,3.092-3.093l1.274-3.293,1.274,3.293a5.408,5.408,0,0,0,3.093,3.093Z" transform="translate(2.131 20.337)" fill="#fff"/>
          </g>
        </g>
      </g>
    </g>
  </g>
</svg>
