<svg xmlns="http://www.w3.org/2000/svg" width="84" height="84" viewBox="0 0 84 84">
  <g id="img9" transform="translate(-185 -3128)">
    <rect id="Rectangle_461419" data-name="Rectangle 461419" width="84" height="84" rx="9" transform="translate(185 3128)" fill="#9c3413"/>
    <path id="Path_1025716" data-name="Path 1025716" d="M49.513,35.237a3.863,3.863,0,0,0-6.592-2.732l-.513.513c0-.064,0-.129,0-.194A5.075,5.075,0,1,0,37.338,37.9c.065,0,.13,0,.194,0L36.11,39.317a3.863,3.863,0,0,0,5.464,5.464l6.811-6.811a3.836,3.836,0,0,0,1.128-2.732ZM40.9,32.824a3.569,3.569,0,0,1-2.807,3.481V29.343A3.569,3.569,0,0,1,40.9,32.824Zm-7.126,0a3.569,3.569,0,0,1,2.807-3.481v6.963A3.569,3.569,0,0,1,33.775,32.824ZM40.5,43.711a2.351,2.351,0,0,1-3.325-3.325l2.871-2.871,3.325,3.325L40.5,43.711ZM47.315,36.9,44.444,39.77l-3.325-3.325,2.871-2.871A2.351,2.351,0,0,1,47.315,36.9Zm28.137,9.006L73.011,44.5a2.079,2.079,0,0,0-2.366.2,22.994,22.994,0,0,1-5.114-4.681L60.96,34.961A4.554,4.554,0,0,0,56.8,33.493l-2.367.375A13.861,13.861,0,0,0,52.336,29h6.775a2.068,2.068,0,0,0,2.066-2.066V8.881a2.068,2.068,0,0,0-2.066-2.066H56.63a1.552,1.552,0,0,0-1.8-1.254l-.806.141a2.369,2.369,0,0,0-4.548,0l-.806-.141a1.552,1.552,0,0,0-1.8,1.254H44.4a2.068,2.068,0,0,0-2.066,2.066V23.034a14.064,14.064,0,0,0-1.445-.075A13.869,13.869,0,1,0,50.9,46.419l3.46,2a12.753,12.753,0,0,1,3.58,3.017C60.078,54,62.426,54.489,64.7,54.965l.2.042a2.078,2.078,0,0,0,1.036,1.748l2.441,1.409a2.08,2.08,0,0,0,2.84-.761l5-8.658a2.081,2.081,0,0,0-.761-2.84ZM48.366,7.092a.13.13,0,0,1,0-.018.075.075,0,0,1,.014-.014A.1.1,0,0,1,48.4,7.05a.063.063,0,0,1,.019,0l1.6.279a.756.756,0,0,0,.886-.745V6.364a.856.856,0,1,1,1.712,0v.221a.756.756,0,0,0,.886.745l1.6-.279.018,0a.077.077,0,0,1,.016.011l.013.012a.073.073,0,0,1,0,.019v.979H48.366V7.092ZM43.845,8.881a.554.554,0,0,1,.553-.553h2.455v.5a.756.756,0,0,0,.756.756H55.9a.756.756,0,0,0,.756-.756v-.5h2.455a.554.554,0,0,1,.553.553V26.934a.554.554,0,0,1-.553.553H44.4a.554.554,0,0,1-.553-.553V8.881Zm-2.958,40.3a12.356,12.356,0,1,1,0-24.713,12.533,12.533,0,0,1,1.445.086v2.376A2.068,2.068,0,0,0,44.4,29h6.048a12.361,12.361,0,0,1,2.311,11.264l-.3-.172a3.129,3.129,0,1,0-3.129,5.419l.219.127a12.36,12.36,0,0,1-8.664,3.547Zm18.219,1.281a14.2,14.2,0,0,0-3.986-3.359L50.088,44.2A1.616,1.616,0,0,1,51.7,41.4l6.065,3.5.046.024a5.471,5.471,0,0,0,2.636.671.756.756,0,1,0-.072-1.511A4.07,4.07,0,0,1,58.5,43.58l-4.4-2.539a13.893,13.893,0,0,0,.573-5.68l2.361-.374a3.027,3.027,0,0,1,2.8.988l4.572,5.057a24.52,24.52,0,0,0,5.369,4.907l-4.4,7.624-.368-.078c-2.2-.461-4.1-.859-5.9-3.018Zm15.8-2.477-5,8.658a.567.567,0,0,1-.774.207L66.69,55.445a.567.567,0,0,1-.207-.774l5-8.658a.562.562,0,0,1,.344-.263.575.575,0,0,1,.15-.02.558.558,0,0,1,.28.075L74.7,47.215a.567.567,0,0,1,.207.774Zm-47.128-25.8H41.313a.756.756,0,0,0,.753-.824,7.554,7.554,0,0,0-4.872-6.387,3.993,3.993,0,1,0-5.3,0,7.554,7.554,0,0,0-4.871,6.387.756.756,0,0,0,.753.824ZM34.544,9.515A2.481,2.481,0,1,1,32.063,12,2.484,2.484,0,0,1,34.544,9.515Zm0,6.5a6,6,0,0,1,5.885,4.667H28.659A6,6,0,0,1,34.544,16.011ZM62.2,22.191H75.734a.756.756,0,0,0,.753-.824,7.554,7.554,0,0,0-4.871-6.387,3.993,3.993,0,1,0-5.3,0,7.554,7.554,0,0,0-4.871,6.387.756.756,0,0,0,.753.824ZM68.965,9.515A2.481,2.481,0,1,1,66.485,12,2.484,2.484,0,0,1,68.965,9.515Zm0,6.5a6,6,0,0,1,5.885,4.667H63.08a6,6,0,0,1,5.885-4.667Zm-22.773.813a.756.756,0,0,1,.756-.756H56.56a.756.756,0,0,1,0,1.512H46.949a.756.756,0,0,1-.756-.756Zm0,7.271a.756.756,0,0,1,.756-.756H56.56a.756.756,0,0,1,0,1.512H46.949a.756.756,0,0,1-.756-.756Zm0-10.907a.756.756,0,0,1,.756-.756H56.56a.756.756,0,0,1,0,1.512H46.949a.756.756,0,0,1-.756-.756Zm0,7.271a.756.756,0,0,1,.756-.756H56.56a.756.756,0,0,1,0,1.512H46.949a.756.756,0,0,1-.756-.756Z" transform="translate(175.245 3138.781)" fill="#fff"/>
  </g>
</svg>
