<svg xmlns="http://www.w3.org/2000/svg" width="90" height="90" viewBox="0 0 90 90">
  <g id="banner-principal-decorativo-2" transform="translate(-857 -511)">
    <g id="Group_1188194" data-name="Group 1188194">
      <circle id="Ellipse_15026" data-name="Ellipse 15026" cx="45" cy="45" r="45" transform="translate(857 511)" fill="#fff"/>
      <circle id="Ellipse_15027" data-name="Ellipse 15027" cx="40" cy="40" r="40" transform="translate(862 516)" fill="#9c3413"/>
    </g>
    <g id="Group_1188206" data-name="Group 1188206" transform="translate(846.897 528.586)">
      <g id="Group_1188204" data-name="Group 1188204" transform="translate(31.812 0.804)">
        <g id="Group_1188202" data-name="Group 1188202">
          <path id="Path_1011889" data-name="Path 1011889" d="M187.951,21.853c3.5-1.873,6.737-4.524,7.945-8.449,1.346-4.371-3.855-8.814-7.945-3.378-4.09-5.435-9.291-.993-7.945,3.378C181.214,17.329,184.447,19.98,187.951,21.853Z" transform="translate(-164.66 -7.514)" fill="#feef8f" fill-rule="evenodd"/>
          <path id="Path_1011890" data-name="Path 1011890" d="M65.71,93.346l16.168,11.091h3.213V101.8L68.3,90.5a14.231,14.231,0,0,1-2.588,2.845ZM41.721,104.437,57.889,93.346A14.231,14.231,0,0,1,55.3,90.5L38.509,101.8v2.636h3.212Z" transform="translate(-38.509 -81.614)" fill="#df95c0" fill-rule="evenodd"/>
          <path id="Path_1011891" data-name="Path 1011891" d="M189.05,93.346l2.048,1.4a16.216,16.216,0,0,0,2.541-2.9l-2-1.346A14.231,14.231,0,0,1,189.05,93.346Zm-9.869,1.4a16.216,16.216,0,0,1-2.541-2.9l2-1.346a14.231,14.231,0,0,0,2.588,2.845Z" transform="translate(-161.849 -81.614)" fill="#d15573" fill-rule="evenodd"/>
          <path id="Path_1011892" data-name="Path 1011892" d="M108.665,128.159,92.5,117.068a22.128,22.128,0,0,1-3.911,2.607,22.109,22.109,0,0,1-3.911-2.607L68.508,128.159v27.186h3.213v-3.463h1.606V132.607h12.85v19.276h1.606v3.463h20.881V128.159ZM91,132.607h12.85v9.638H91Z" transform="translate(-65.295 -105.336)" fill="#e5ecf5" fill-rule="evenodd"/>
          <path id="Path_1011893" data-name="Path 1011893" d="M113.508,262.175h12.85v19.276h-12.85Z" transform="translate(-105.477 -234.904)" fill="#df95c0" fill-rule="evenodd"/>
          <path id="Path_1011894" data-name="Path 1011894" d="M98.508,442.175v3.463h16.063v-3.463Z" transform="translate(-92.083 -395.629)" fill="#df95c0" fill-rule="evenodd"/>
          <path id="Path_1011895" data-name="Path 1011895" d="M41.721,474.513a3.222,3.222,0,0,0-3.213,3.213H85.09a3.222,3.222,0,0,0-3.213-3.213Z" transform="translate(-38.508 -424.504)" fill="#adb9c8" fill-rule="evenodd"/>
          <path id="Path_1011896" data-name="Path 1011896" d="M278.508,262.175h12.85v9.638h-12.85Z" transform="translate(-252.807 -234.904)" fill="#c4e5f9" fill-rule="evenodd"/>
          <path id="Path_1011897" data-name="Path 1011897" d="M187.951,21.86q.609-.326,1.2-.683c-3.021-1.821-5.672-4.3-6.74-7.766a4.586,4.586,0,0,1,2.617-5.686c-3.225-1.078-6.061,2.325-5.027,5.686C181.214,17.337,184.447,19.988,187.951,21.86Z" transform="translate(-164.66 -7.522)" fill="#f2c18f" fill-rule="evenodd"/>
          <path id="Path_1011898" data-name="Path 1011898" d="M70.917,205.207l-2.409,1.653v27.186h2.409Z" transform="translate(-65.295 -184.037)" fill="#b0c5e0" fill-rule="evenodd"/>
          <path id="Path_1011899" data-name="Path 1011899" d="M113.508,262.175h2.409v19.276h-2.409Z" transform="translate(-105.477 -234.904)" fill="#d15573" fill-rule="evenodd"/>
          <path id="Path_1011900" data-name="Path 1011900" d="M98.508,442.175h2.409v3.463H98.508Z" transform="translate(-92.083 -395.629)" fill="#d15573" fill-rule="evenodd"/>
          <path id="Path_1011901" data-name="Path 1011901" d="M41.721,474.513a3.222,3.222,0,0,0-3.213,3.213h2.409a3.222,3.222,0,0,1,3.213-3.213Z" transform="translate(-38.508 -424.504)" fill="#92a2b5" fill-rule="evenodd"/>
          <path id="Path_1011902" data-name="Path 1011902" d="M278.508,262.175h2.409v9.638h-2.409Z" transform="translate(-252.807 -234.904)" fill="#83c8f1" fill-rule="evenodd"/>
        </g>
        <g id="Group_1188203" data-name="Group 1188203" transform="translate(26.698 2.687)">
          <path id="Path_1011903" data-name="Path 1011903" d="M295.487,51.437l-1.325-.909.909-1.325,1.325.909Zm-2.649-1.817-1.325-.909.909-1.325,1.325.909Zm-3.412-15.4H287.82V32.609h1.606Z" transform="translate(-287.82 -32.609)" fill="#fff"/>
        </g>
      </g>
      <g id="Group_1188205" data-name="Group 1188205" transform="translate(31.009 0)">
        <path id="Path_1011904" data-name="Path 1011904" d="M79.2,24.431V20.565L62.7,9.464A11.993,11.993,0,0,0,63.816,6.93,5.447,5.447,0,0,0,61.26.491,4.43,4.43,0,0,0,57.887.207,6.36,6.36,0,0,0,55.1,2.061,6.36,6.36,0,0,0,52.319.207a4.431,4.431,0,0,0-3.373.284A5.447,5.447,0,0,0,46.39,6.93,12,12,0,0,0,47.5,9.464l-16.495,11.1v3.866h3.213V50.091a4.022,4.022,0,0,0-3.213,3.935v.8H69.56V53.223H32.753a2.414,2.414,0,0,1,2.272-1.606H75.182a2.413,2.413,0,0,1,2.272,1.606H74.378v1.606H79.2v-.8a4.023,4.023,0,0,0-3.213-3.935V24.431Zm-1.606-3.011v1.4h-2.16L60.312,12.453A14.627,14.627,0,0,0,61.8,10.8ZM49.677,1.922a2.888,2.888,0,0,1,1.306-.313c.928,0,2.168.448,3.478,2.19l.642.853.642-.853C57.864.982,59.8,1.548,60.53,1.922a3.822,3.822,0,0,1,1.751,4.536c-.946,3.074-3.3,5.619-7.178,7.771-3.881-2.152-6.231-4.7-7.178-7.771A3.822,3.822,0,0,1,49.677,1.922Zm-17.061,19.5L48.4,10.8a14.617,14.617,0,0,0,1.492,1.657l-6.577,4.512.909,1.325,6.922-4.749a23.915,23.915,0,0,0,3.577,2.31l.379.2.379-.2a23.924,23.924,0,0,0,3.577-2.31L74.378,24.05V50.01H55.1V46.547H53.5V27.272H39.04V46.547H37.434V50.01H35.828V24.05L42.9,19.2l-.909-1.325-7.216,4.95h-2.16ZM51.891,46.547H40.647V28.878H51.891ZM53.5,48.154V50.01H39.04V48.154Z" transform="translate(-31.009 0)"/>
        <path id="Path_1011905" data-name="Path 1011905" d="M285.465,254.675H271.008v11.244h14.457Zm-1.606,4.819h-4.819v-3.213h4.819Zm-6.425-3.213v3.213h-4.819v-3.213Zm-4.819,4.819h4.819v3.213h-4.819Zm6.425,3.213V261.1h4.819v3.213Z" transform="translate(-245.307 -227.403)"/>
        <path id="Path_1011906" data-name="Path 1011906" d="M136.007,344.675h1.606v1.606h-1.606Z" transform="translate(-124.763 -307.765)"/>
        <path id="Path_1011907" data-name="Path 1011907" d="M406,497.013h1.606v1.606H406Z" transform="translate(-365.847 -443.79)"/>
      </g>
    </g>
  </g>
</svg>
