<svg xmlns="http://www.w3.org/2000/svg" width="128" height="128" viewBox="0 0 128 128">
  <g id="img20" transform="translate(-72.746 -7992)">
    <g id="Ellipse_13628" data-name="Ellipse 13628" transform="translate(72.746 7992)" fill="#fef6ff" stroke="#9c3413" stroke-width="6">
      <circle cx="64" cy="64" r="64" stroke="none"/>
      <circle cx="64" cy="64" r="61" fill="none"/>
    </g>
    <g id="Group_1198924" data-name="Group 1198924" transform="translate(104.363 8023.617)">
      <g id="Group_1198922" data-name="Group 1198922" transform="translate(1.266 1.265)">
        <path id="Path_1025024" data-name="Path 1025024" d="M59.884,60H84.926v7.214H59.884Z" transform="translate(-53.574 -53.676)" fill="#d1aee5" fill-rule="evenodd"/>
        <path id="Path_1025025" data-name="Path 1025025" d="M41.353,23.539H16.312V16.325H41.353V10H10V66.922H43a11.067,11.067,0,0,1-1.846-6.338v-.667H38.725A2.435,2.435,0,0,1,36.3,57.489v-.971a2.434,2.434,0,0,1,2.427-2.427v-6.5a9.065,9.065,0,0,1,9.038-9.038h6.5V23.539Z" transform="translate(-10.002 -10)" fill="#fff" fill-rule="evenodd"/>
        <path id="Path_1025026" data-name="Path 1025026" d="M375.419,404.616h-2.427v.667c0,7.776-6.554,11.651-13.108,11.651h17.962a32.494,32.494,0,0,0-2.427-12.319Z" transform="translate(-315.626 -354.699)" fill="#ffda8f" fill-rule="evenodd"/>
        <g id="Group_1198921" data-name="Group 1198921" transform="translate(26.296 39.6)">
          <path id="Path_1025027" data-name="Path 1025027" d="M372.991,334.044v-6.493h-1.348a3.378,3.378,0,0,1-3.368-3.368V323.06a4.5,4.5,0,0,1-4.491,4.491h-3.9v18.144C366.437,345.7,372.991,341.819,372.991,334.044Z" transform="translate(-341.921 -323.06)" fill="#ffdcd5" fill-rule="evenodd"/>
          <path id="Path_1025028" data-name="Path 1025028" d="M463.507,364.386h2.427a2.435,2.435,0,0,0,2.427-2.427v-.971a2.435,2.435,0,0,0-2.427-2.427h-2.427Z" transform="translate(-432.437 -354.069)" fill="#ffdcd5" fill-rule="evenodd"/>
          <path id="Path_1025029" data-name="Path 1025029" d="M222.74,364.387v-5.826h-2.427a2.434,2.434,0,0,0-2.427,2.427v.971a2.435,2.435,0,0,0,2.427,2.427h2.427Z" transform="translate(-217.885 -354.07)" fill="#ffdcd5" fill-rule="evenodd"/>
          <path id="Path_1025030" data-name="Path 1025030" d="M256.263,358.561v6.493c0,7.775,6.554,11.651,13.107,11.651V358.561Z" transform="translate(-251.408 -354.07)" fill="#ffdcd5" fill-rule="evenodd"/>
        </g>
        <path id="Path_1025031" data-name="Path 1025031" d="M252.609,251.283V235.748h-6.5a9.065,9.065,0,0,0-9.038,9.038v6.5h15.535Z" transform="translate(-208.351 -207.192)" fill="#ddb9a3" fill-rule="evenodd"/>
        <path id="Path_1025032" data-name="Path 1025032" d="M359.885,235.748v15.535h3.9a4.5,4.5,0,0,0,4.49-4.491v1.123a3.378,3.378,0,0,0,3.368,3.368h3.775v-5.727a5.727,5.727,0,0,0-4.481-5.572,5.994,5.994,0,0,0-5.711-4.237h-5.342Z" transform="translate(-315.627 -207.192)" fill="#ffda8f" fill-rule="evenodd"/>
        <path id="Path_1025033" data-name="Path 1025033" d="M257.851,23.539h12.907v-.633L257.851,10V23.539Z" transform="translate(-226.5 -10)" fill="#b6bccf" fill-rule="evenodd"/>
      </g>
      <g id="Group_1198923" data-name="Group 1198923" transform="translate(0.001 0)">
        <path id="Path_1025034" data-name="Path 1025034" d="M54.271,158.855a1.265,1.265,0,0,0,1.052-.563l4.216-6.325a1.265,1.265,0,1,0-2.1-1.4l-3.164,4.746-1.056-1.584a1.265,1.265,0,1,0-2.1,1.4l2.108,3.162A1.265,1.265,0,0,0,54.271,158.855Z" transform="translate(-44.46 -131.026)"/>
        <path id="Path_1025035" data-name="Path 1025035" d="M142.165,155.031h20.11a1.265,1.265,0,1,0,0-2.53h-20.11a1.265,1.265,0,0,0,0,2.53Z" transform="translate(-123.077 -133.211)"/>
        <path id="Path_1025036" data-name="Path 1025036" d="M142.165,200.031h8.659a1.265,1.265,0,1,0,0-2.53h-8.659a1.265,1.265,0,1,0,0,2.53Z" transform="translate(-123.077 -172.518)"/>
        <path id="Path_1025037" data-name="Path 1025037" d="M51.11,265.129l2.108,3.162a1.265,1.265,0,0,0,2.1,0l4.216-6.325a1.265,1.265,0,1,0-2.1-1.4l-3.164,4.746-1.056-1.584a1.265,1.265,0,1,0-2.1,1.4Z" transform="translate(-44.459 -227.111)"/>
        <path id="Path_1025038" data-name="Path 1025038" d="M148.006,310.031a1.265,1.265,0,0,0,0-2.53h-5.841a1.265,1.265,0,0,0,0,2.53Z" transform="translate(-123.077 -268.604)"/>
        <path id="Path_1025039" data-name="Path 1025039" d="M64.394,391.265A1.265,1.265,0,0,0,63.129,390H52.164a1.265,1.265,0,0,0,0,2.53H63.129a1.265,1.265,0,0,0,1.265-1.265Z" transform="translate(-44.461 -340.667)"/>
        <path id="Path_1025040" data-name="Path 1025040" d="M62.743,52.04a3.7,3.7,0,0,0,2.008-3.285v-.971a3.7,3.7,0,0,0-2.427-3.469V39.629a7.024,7.024,0,0,0-4.78-6.615,7.3,7.3,0,0,0-6.678-4.458H46.789V14.172a1.265,1.265,0,0,0-.37-.894L33.512.371A1.265,1.265,0,0,0,32.617,0H1.266A1.265,1.265,0,0,0,0,1.265V58.187a1.265,1.265,0,0,0,1.265,1.265H8.681a1.265,1.265,0,1,0,0-2.53H2.531V2.53H31.353V6.325H7.576A1.265,1.265,0,0,0,6.311,7.59V14.8a1.265,1.265,0,0,0,1.265,1.265H44.259V28.556H39.028A10.3,10.3,0,0,0,30.418,33.2H19.089a1.265,1.265,0,0,0,0,2.53h10.12a10.268,10.268,0,0,0-.484,3.124v5.455A3.7,3.7,0,0,0,26.3,47.783v.971a3.7,3.7,0,0,0,3.692,3.692h1.174a12.715,12.715,0,0,0,.971,4.476H20.065a1.265,1.265,0,1,0,0,2.53H33.613a12.209,12.209,0,0,0,2.116,2.131,15.805,15.805,0,0,0,9.8,3.182H63.486a1.265,1.265,0,0,0,1.264-1.216A32.754,32.754,0,0,0,62.743,52.04ZM33.882,4.319l9.22,9.22h-9.22ZM8.841,8.855H31.353v4.684H8.841ZM46.789,58.59a5.082,5.082,0,0,0,3.011-1.4,1.265,1.265,0,0,0-1.877-1.7,2.413,2.413,0,0,1-1.134.52V46.621h2.637a5.74,5.74,0,0,0,4.187-1.81,4.628,4.628,0,0,0,3.671,1.81h.083v5.228c0,6.611-5.268,9.886-10.578,10.333Zm14.27-11.969a1.164,1.164,0,0,1,1.162,1.162v.971a1.164,1.164,0,0,1-1.162,1.162H59.9v-3.3h1.162ZM50.866,31.086a4.747,4.747,0,0,1,4.5,3.341,1.266,1.266,0,0,0,.937.865,4.472,4.472,0,0,1,3.489,4.337v4.462h-2.51a2.105,2.105,0,0,1-2.1-2.1V40.865a1.265,1.265,0,1,0-2.53,0,3.229,3.229,0,0,1-3.226,3.226H46.789V31.086Zm-11.839,0h5.232V44.091h-13V38.859a7.782,7.782,0,0,1,7.773-7.773Zm-10.2,17.669v-.971a1.164,1.164,0,0,1,1.162-1.162h1.162v3.3H29.989A1.164,1.164,0,0,1,28.827,48.754Zm4.855,3.095V46.621H44.259v9.405a2.545,2.545,0,0,1-1.176-.515A1.265,1.265,0,1,0,41.291,57.3a5.289,5.289,0,0,0,2.968,1.3v3.585C38.949,61.735,33.682,58.459,33.682,51.849ZM54.418,62.235q.466-.309.9-.652a11.874,11.874,0,0,0,4.565-9.137H60.2a31.762,31.762,0,0,1,2.031,9.789H54.418Z" transform="translate(-0.001 0)"/>
        <path id="Path_1025041" data-name="Path 1025041" d="M401.146,393.56h0a1.265,1.265,0,1,0,1.266,1.265A1.265,1.265,0,0,0,401.145,393.56Z" transform="translate(-349.299 -343.777)"/>
        <path id="Path_1025042" data-name="Path 1025042" d="M301.154,393.56h0a1.265,1.265,0,1,0,1.266,1.265A1.265,1.265,0,0,0,301.153,393.56Z" transform="translate(-261.955 -343.777)"/>
        <path id="Path_1025043" data-name="Path 1025043" d="M104.882,450h0a1.265,1.265,0,1,0,1.266,1.265A1.265,1.265,0,0,0,104.882,450Z" transform="translate(-90.51 -393.078)"/>
      </g>
    </g>
  </g>
</svg>
