<svg xmlns="http://www.w3.org/2000/svg" width="84" height="84" viewBox="0 0 84 84">
  <g id="img2" transform="translate(-624 -465)">
    <rect id="Rectangle_461338" data-name="Rectangle 461338" width="84" height="84" rx="10" transform="translate(624 465)" fill="#b9c296"/>
    <g id="Group_1196458" data-name="Group 1196458" transform="translate(636.001 479.001)">
      <path id="Path_1018367" data-name="Path 1018367" d="M390.137,69.5V53.4h-8.981v7.347Zm0,0" transform="translate(-335.917 -47.064)" fill="#ffc850"/>
      <path id="Path_1018368" data-name="Path 1018368" d="M384.717,53.4h-3.561v7.347l3.561,3.472Zm0,0" transform="translate(-335.917 -47.065)" fill="#feb644"/>
      <path id="Path_1018369" data-name="Path 1018369" d="M378.693,23.2h-8a1.966,1.966,0,0,0,0,3.932h8a1.966,1.966,0,0,0,0-3.932Zm0,0" transform="translate(-324.963 -20.45)" fill="#feb644"/>
      <path id="Path_1018370" data-name="Path 1018370" d="M378.693,30.409h-8a1.964,1.964,0,0,1-1.551-.764,1.951,1.951,0,0,0-.415,1.2,1.972,1.972,0,0,0,1.966,1.966h8a1.961,1.961,0,0,0,1.551-3.168A1.965,1.965,0,0,1,378.693,30.409Zm0,0" transform="translate(-324.963 -26.127)" fill="#fda537"/>
      <path id="Path_1018371" data-name="Path 1018371" d="M79,48.332,55.164,69.969V97.833h47.673V69.969Zm0,0" transform="translate(-48.618 -42.596)" fill="#e4eaf8"/>
      <path id="Path_1018372" data-name="Path 1018372" d="M79,48.332,55.164,69.969V97.833h3.561V72.589a2.609,2.609,0,0,1,.856-1.932L81.587,50.68Zm0,0" transform="translate(-48.618 -42.596)" fill="#d8dce5"/>
      <path id="Path_1018373" data-name="Path 1018373" d="M8.148,36.263a2.46,2.46,0,0,1,.168-3.475L35.348,8.25a2.459,2.459,0,0,1,3.307,0L65.688,32.788a2.46,2.46,0,1,1-3.307,3.643L37,13.394,11.623,36.431a2.46,2.46,0,0,1-3.475-.168Zm0,0" transform="translate(-6.619 -6.708)" fill="#f77c7c"/>
      <path id="Path_1018374" data-name="Path 1018374" d="M11.709,36.263a2.46,2.46,0,0,1,.168-3.475L38.783,8.365l-.127-.115a2.459,2.459,0,0,0-3.307,0L8.316,32.788a2.46,2.46,0,0,0,3.307,3.643l.133-.121c-.016-.016-.032-.031-.047-.047Zm0,0" transform="translate(-6.619 -6.709)" fill="#f25c5c"/>
      <path id="Path_1018375" data-name="Path 1018375" d="M225.386,139.977h-6.235a1.429,1.429,0,0,0-1.424,1.424v6.235a1.429,1.429,0,0,0,1.424,1.424h6.235a1.429,1.429,0,0,0,1.424-1.424V141.4A1.429,1.429,0,0,0,225.386,139.977Zm0,0" transform="translate(-191.885 -123.364)" fill="#ffc850"/>
      <path id="Path_1018376" data-name="Path 1018376" d="M220.972,147.636V141.4a1.429,1.429,0,0,1,1.424-1.424h-3.245a1.429,1.429,0,0,0-1.424,1.424v6.235a1.429,1.429,0,0,0,1.424,1.424H222.4A1.429,1.429,0,0,1,220.972,147.636Zm0,0" transform="translate(-191.886 -123.363)" fill="#feb644"/>
      <path id="Path_1018377" data-name="Path 1018377" d="M269.872,350.372l-1.878-.727c-.458.506-.952,1.047-1.427,1.563a2.992,2.992,0,0,1-4.4,0c-.465-.506-.95-1.037-1.4-1.535l-1.9.738a3.918,3.918,0,0,0-2.5,3.653v1.682a.691.691,0,0,0,.691.691h14.638a.691.691,0,0,0,.691-.691v-1.72a3.918,3.918,0,0,0-2.5-3.654Zm0,0" transform="translate(-225.929 -308.145)" fill="#f25c5c"/>
      <path id="Path_1018378" data-name="Path 1018378" d="M265.471,352.172a2.993,2.993,0,0,1-3.309-.755c-.465-.506-.95-1.037-1.4-1.535l-1.9.738a3.918,3.918,0,0,0-2.5,3.653v1.682a.691.691,0,0,0,.691.691h10.866a7.221,7.221,0,0,0-2.441-4.475Zm0,0" transform="translate(-225.929 -308.356)" fill="#e54a4a"/>
      <path id="Path_1018379" data-name="Path 1018379" d="M298.848,330.034a.472.472,0,0,1-.3-.44v-1.761a3.983,3.983,0,0,1-2.269.707,4.208,4.208,0,0,1-2.288-.646v1.7a.473.473,0,0,1-.3.44l-1.188.461c.482.534,1.013,1.114,1.518,1.663a2.992,2.992,0,0,0,4.4,0c.514-.559,1.054-1.15,1.543-1.691Zm0,0" transform="translate(-257.783 -288.922)" fill="#f0a479"/>
      <path id="Path_1018380" data-name="Path 1018380" d="M297.3,333.169a1.1,1.1,0,0,1-.383-.841v-3.395a3.994,3.994,0,0,1-.644.052,4.208,4.208,0,0,1-2.288-.646v1.7a.471.471,0,0,1-.3.44l-.464.18-.725.281c1.428,1.581,2.357,3.043,4.423,2.546v0a2.97,2.97,0,0,0,.535-.182C297.407,333.258,297.356,333.213,297.3,333.169Zm0,0" transform="translate(-257.783 -289.369)" fill="#e5966e"/>
      <path id="Path_1018381" data-name="Path 1018381" d="M293.666,240.352h-.049a4.077,4.077,0,0,0-4.015,4.09v1.807a.372.372,0,0,1,.4-.37,9.759,9.759,0,0,0,5.876-1.578.373.373,0,0,1,.476.058c1.386,1.491,1.378,1.433,1.378,1.627v-1.544a4.077,4.077,0,0,0-4.015-4.09h-.049Zm0,0" transform="translate(-255.229 -211.825)" fill="#5e6377"/>
      <path id="Path_1018382" data-name="Path 1018382" d="M292.636,244.442a4.1,4.1,0,0,1,2.546-3.8,4,4,0,0,0-1.468-.293h-.1a4.077,4.077,0,0,0-4.015,4.09v1.807a.372.372,0,0,1,.4-.37,9.007,9.007,0,0,0,2.636-.214v-1.223Zm0,0" transform="translate(-255.229 -211.825)" fill="#52586d"/>
      <path id="Path_1018383" data-name="Path 1018383" d="M296.351,272.5a.37.37,0,0,0-.475-.058A9.764,9.764,0,0,1,290,274.018a.372.372,0,0,0-.4.37v1.447a4.064,4.064,0,0,0,8.128,0v-1.71C297.729,273.931,297.738,273.989,296.351,272.5Zm0,0" transform="translate(-255.229 -240.051)" fill="#f7b594"/>
      <path id="Path_1018384" data-name="Path 1018384" d="M292.636,286.414v-2.031A9.013,9.013,0,0,1,290,284.6a.372.372,0,0,0-.4.37v1.448a4.1,4.1,0,0,0,5.593,3.724,3.98,3.98,0,0,1-2.559-3.725Zm0,0" transform="translate(-255.229 -250.63)" fill="#f0a479"/>
      <path id="Path_1018385" data-name="Path 1018385" d="M132.348,350.372l-1.878-.727c-.458.506-.952,1.047-1.427,1.563a2.992,2.992,0,0,1-4.4,0c-.465-.506-.95-1.037-1.4-1.535l-1.9.738a3.584,3.584,0,0,0-2.094,3.653v1.682a.691.691,0,0,0,.691.691h14.23a.692.692,0,0,0,.691-.691v-1.72a3.918,3.918,0,0,0-2.5-3.654Zm0,0" transform="translate(-105.087 -308.145)" fill="#ffc850"/>
      <path id="Path_1018386" data-name="Path 1018386" d="M121.277,358.3v-2.992a3.919,3.919,0,0,1,1.142-2.765l-1.089.422a3.584,3.584,0,0,0-2.095,3.653V358.3a.691.691,0,0,0,.691.691h2.041A.691.691,0,0,1,121.277,358.3Zm0,0" transform="translate(-105.084 -310.7)" fill="#feb644"/>
      <path id="Path_1018387" data-name="Path 1018387" d="M158.3,330.034a.472.472,0,0,1-.3-.44v-1.761a3.983,3.983,0,0,1-2.269.707,4.21,4.21,0,0,1-2.289-.646v1.7a.472.472,0,0,1-.3.44l-1.188.461c.482.534,1.012,1.114,1.518,1.663a2.992,2.992,0,0,0,4.4,0c.514-.559,1.054-1.15,1.543-1.691Zm0,0" transform="translate(-133.915 -288.922)" fill="#f0a479"/>
      <path id="Path_1018388" data-name="Path 1018388" d="M156.371,328.934a3.991,3.991,0,0,1-.644.052,4.21,4.21,0,0,1-2.289-.646v1.7a.471.471,0,0,1-.3.44l-1.188.461c.482.534,1.012,1.114,1.518,1.663a2.988,2.988,0,0,0,2.9.883Zm0,0" transform="translate(-133.915 -289.37)" fill="#e5966e"/>
      <path id="Path_1018389" data-name="Path 1018389" d="M153.115,240.352h-.049a4.076,4.076,0,0,0-4.015,4.09v1.807a.372.372,0,0,1,.4-.37,9.759,9.759,0,0,0,5.876-1.578.372.372,0,0,1,.475.058c1.387,1.491,1.378,1.433,1.378,1.627v-1.544a4.077,4.077,0,0,0-4.016-4.09h-.048Zm0,0" transform="translate(-131.361 -211.825)" fill="#5e6377"/>
      <path id="Path_1018390" data-name="Path 1018390" d="M152.085,244.442a4.1,4.1,0,0,1,2.547-3.8,4,4,0,0,0-1.469-.293h-.1a4.076,4.076,0,0,0-4.015,4.09v1.807a.372.372,0,0,1,.4-.37,9.009,9.009,0,0,0,2.636-.214Zm0,0" transform="translate(-131.36 -211.825)" fill="#52586d"/>
      <path id="Path_1018391" data-name="Path 1018391" d="M155.8,272.5a.371.371,0,0,0-.475-.058,9.762,9.762,0,0,1-5.876,1.578.372.372,0,0,0-.4.37v1.447a4.064,4.064,0,0,0,8.128,0v-1.71C157.178,273.931,157.187,273.989,155.8,272.5Zm0,0" transform="translate(-131.361 -240.051)" fill="#f7b594"/>
      <path id="Path_1018392" data-name="Path 1018392" d="M152.085,286.414v-2.031a9.011,9.011,0,0,1-2.636.214.372.372,0,0,0-.4.37v1.448a4.1,4.1,0,0,0,5.593,3.724,3.98,3.98,0,0,1-2.559-3.725Zm0,0" transform="translate(-131.361 -250.63)" fill="#f0a479"/>
      <path id="Path_1018393" data-name="Path 1018393" d="M190.167,372.409l-2.206-.854c-.538.595-1.119,1.23-1.676,1.836a3.514,3.514,0,0,1-5.174,0c-.547-.594-1.116-1.218-1.646-1.8l-2.237.867a4.6,4.6,0,0,0-2.939,4.291v1.976a.812.812,0,0,0,.812.812H192.3a.811.811,0,0,0,.811-.812V376.7a4.6,4.6,0,0,0-2.94-4.292Zm0,0" transform="translate(-153.604 -327.455)" fill="#00aaf0"/>
      <path id="Path_1018394" data-name="Path 1018394" d="M177.166,381.724v-3.515a4.6,4.6,0,0,1,1.342-3.248l-1.279.5a4.6,4.6,0,0,0-2.939,4.291v1.976a.812.812,0,0,0,.812.812h2.877a.812.812,0,0,1-.812-.812Zm0,0" transform="translate(-153.603 -330.457)" fill="#059adb"/>
      <path id="Path_1018395" data-name="Path 1018395" d="M224.207,348.52a.555.555,0,0,1-.354-.517v-2.069a4.677,4.677,0,0,1-2.665.83A4.943,4.943,0,0,1,218.5,346v2a.555.555,0,0,1-.354.517l-1.4.541c.566.627,1.189,1.308,1.783,1.954a3.514,3.514,0,0,0,5.174,0c.6-.657,1.238-1.351,1.812-1.987Zm0,0" transform="translate(-191.024 -304.875)" fill="#f0a479"/>
      <path id="Path_1018396" data-name="Path 1018396" d="M221.945,347.229a4.73,4.73,0,0,1-.757.061,4.939,4.939,0,0,1-2.688-.759v2a.555.555,0,0,1-.354.517l-1.4.541c.566.627,1.189,1.308,1.783,1.954a3.51,3.51,0,0,0,3.412,1.037Zm0,0" transform="translate(-191.025 -305.402)" fill="#e5966e"/>
      <path id="Path_1018397" data-name="Path 1018397" d="M218.118,243.168h-.057a4.788,4.788,0,0,0-4.717,4.8V250.1a.437.437,0,0,1,.468-.435,11.466,11.466,0,0,0,6.9-1.854.436.436,0,0,1,.558.069c1.629,1.75,1.619,1.683,1.619,1.912v-1.815a4.788,4.788,0,0,0-4.717-4.8h-.057Zm0,0" transform="translate(-188.023 -214.307)" fill="#5e6377"/>
      <path id="Path_1018398" data-name="Path 1018398" d="M216.912,247.973a4.815,4.815,0,0,1,2.991-4.46,4.688,4.688,0,0,0-1.725-.344h-.114a4.788,4.788,0,0,0-4.717,4.8V250.1a.437.437,0,0,1,.468-.435,10.588,10.588,0,0,0,3.1-.251Zm0,0" transform="translate(-188.026 -214.307)" fill="#52586d"/>
      <path id="Path_1018399" data-name="Path 1018399" d="M221.272,280.931a.436.436,0,0,0-.558-.068,11.47,11.47,0,0,1-6.9,1.854.437.437,0,0,0-.468.435v1.7a4.774,4.774,0,0,0,9.548,0v-2.009c0-.229.01-.161-1.619-1.912Zm0,0" transform="translate(-188.023 -247.465)" fill="#f7b594"/>
      <path id="Path_1018400" data-name="Path 1018400" d="M216.908,297.281v-2.386a10.61,10.61,0,0,1-3.1.251.437.437,0,0,0-.468.435v1.7a4.818,4.818,0,0,0,6.571,4.375,4.674,4.674,0,0,1-3.006-4.375Zm0,0" transform="translate(-188.023 -259.894)" fill="#f0a479"/>
      <path id="Path_1018401" data-name="Path 1018401" d="M59.67,25.413l-4.558-4.137V7.21a2.855,2.855,0,0,0-1.38-5.356h-8A2.855,2.855,0,0,0,44.351,7.21v4.3L32.636.873a3.338,3.338,0,0,0-4.5,0L1.1,25.413a3.35,3.35,0,1,0,4.5,4.962l.054-.049V54.339H4.244a.89.89,0,0,0,0,1.78h52.28a.89.89,0,0,0,0-1.78H55.112V41.946a.89.89,0,0,0-1.78,0V54.339H7.437V28.709L30.384,7.879l22.947,20.83v9.083a.89.89,0,0,0,1.78,0V30.325l.054.049a3.351,3.351,0,0,0,4.5-4.962ZM45.731,3.635h8a1.076,1.076,0,1,1,0,2.151h-8a1.076,1.076,0,1,1,0-2.151Zm.4,9.488V7.567h7.2V19.659l-5.5-4.994ZM58.58,28.949a1.569,1.569,0,0,1-2.218.107L30.983,6.018a.89.89,0,0,0-1.2,0L4.405,29.056a1.57,1.57,0,0,1-2.11-2.325L29.329,2.191a1.565,1.565,0,0,1,2.11,0l27.034,24.54a1.569,1.569,0,0,1,.107,2.218Zm0,0" transform="translate(0 0)"/>
      <path id="Path_1018402" data-name="Path 1018402" d="M212.548,143.266h6.235a2.317,2.317,0,0,0,2.314-2.314v-6.235a2.317,2.317,0,0,0-2.314-2.314h-6.235a2.317,2.317,0,0,0-2.314,2.314v6.235A2.317,2.317,0,0,0,212.548,143.266Zm-.534-2.314v-2.227h2.761v2.761h-2.227A.541.541,0,0,1,212.014,140.952Zm6.769.534h-2.227v-2.761h2.761v2.227A.541.541,0,0,1,218.784,141.486Zm.534-6.769v2.227h-2.761v-2.761h2.227A.542.542,0,0,1,219.318,134.717Zm-6.769-.534h2.227v2.761h-2.761v-2.227A.542.542,0,0,1,212.548,134.183Zm0,0" transform="translate(-185.282 -116.688)"/>
      <path id="Path_1018403" data-name="Path 1018403" d="M147.072,252.726c0-.093,0-.187,0-.284a7.671,7.671,0,0,0-1.03-4.391A4.64,4.64,0,0,0,144,246.524l-2.609-1.01v-.863a4.885,4.885,0,0,0,1.736-3.735V237.75a4.947,4.947,0,0,0-9.079-2.74,5.631,5.631,0,0,0-8.441,0,4.946,4.946,0,0,0-9.079,2.74v3.166a4.818,4.818,0,0,0,1.833,3.81v.788l-2.709,1.05a3.306,3.306,0,0,0-1.753,1.59,6.82,6.82,0,0,0-.73,3.061v1.22a1.873,1.873,0,0,0,1.871,1.871h4.491c0,.04,0,.081,0,.121V256.4a1.7,1.7,0,0,0,1.7,1.7h6.814a.89.89,0,1,0,0-1.78h-6.736v-1.9a3.74,3.74,0,0,1,1.847-3.208,14.762,14.762,0,0,1,2.053-.847c.414.456.875.96,1.377,1.5a4.405,4.405,0,0,0,6.484,0c.517-.563.988-1.078,1.406-1.538l1.5.58a3.739,3.739,0,0,1,2.372,3.462v1.943H132.2a.89.89,0,1,0,0,1.78h6.227a1.7,1.7,0,0,0,1.7-1.7v-2.021c0-.025,0-.05,0-.076h5.366A1.582,1.582,0,0,0,147.072,252.726Zm-6.682-5.694c-.708.775-1.15,1.408-2.214,1.408s-1.507-.633-2.187-1.377c0,0-.726-.171,3.621-1.449v.188a1.373,1.373,0,0,0,.779,1.231Zm-7.8-7.446c.636.681.948,1.008,1.124,1.207v1.73a3.884,3.884,0,0,1-7.767,0V241.4a12.432,12.432,0,0,0,6.643-1.816Zm7.913-1c.422.452.712.758.848.908v1.422a3.119,3.119,0,0,1-3.113,3.113,3.184,3.184,0,0,1-2.743-1.443c0-.043,0-2.455,0-2.5a10.831,10.831,0,0,0,5.008-1.5Zm-7.033,9.454.742-.288q.38.417.813.89Zm-8.772-2.526v-.6a5.451,5.451,0,0,0,.445.773Zm10.362,0-.588.228a5.607,5.607,0,0,0,.574-1.023l.015.012Zm-9.585,2.21.823.319-1.726.669q.485-.529.9-.988Zm9.668-10.9a3.164,3.164,0,0,1,6.071-.005c-1.332-.761-1.918,1.311-5.74,1.484A5.87,5.87,0,0,0,135.14,236.827Zm-5.263-1.94a3.9,3.9,0,0,1,3.773,3.227,1.326,1.326,0,0,0-1.713-.224,10.606,10.606,0,0,1-5.993,1.729V238.8a3.9,3.9,0,0,1,3.933-3.914Zm-8.357-.335a3.189,3.189,0,0,1,2.994,2.269c-1.366-.777-2.171,1.552-6.205,1.493v-.566A3.184,3.184,0,0,1,121.52,234.553Zm-3.212,5.544a10.746,10.746,0,0,0,5.5-1.511l.36.385c0,.045,0,3.568,0,3.614a3.187,3.187,0,0,1-5.856-1.669Zm4.606,5.515a1.387,1.387,0,0,0,.779,1.419c-.708.775-1.151,1.407-2.214,1.408s-1.507-.634-2.187-1.377a1.355,1.355,0,0,0,.848-1.261v-.174a5.174,5.174,0,0,0,2.774-.014Zm-7.966,6.823v-1.22a5.028,5.028,0,0,1,.539-2.258,1.526,1.526,0,0,1,.809-.734l1.217-.472q.5.551,1.11,1.213a3.889,3.889,0,0,0,2.856,1.254h.012a5.478,5.478,0,0,0-1.624,2.307h-4.828a.091.091,0,0,1-.09-.09Zm14.879-.915c-1.349,0-1.9-.812-2.839-1.838a2.007,2.007,0,0,0,.459-.214,1.64,1.64,0,0,0,.65-1.617,5.907,5.907,0,0,0,3.572-.022,2.455,2.455,0,0,0,.077.893,1.471,1.471,0,0,0,.949.928C131.757,250.68,131.187,251.521,129.827,251.521Zm15.465.909c0,.032,0,.064,0,.1H139.8a5.467,5.467,0,0,0-1.588-2.308,3.889,3.889,0,0,0,2.816-1.253c.416-.452.8-.867,1.136-1.242l1.19.461a3.023,3.023,0,0,1,1.195.844,5.918,5.918,0,0,1,.74,3.4Zm0,0" transform="translate(-99.737 -205.145)"/>
    </g>
  </g>
</svg>
