<svg xmlns="http://www.w3.org/2000/svg" width="128" height="128" viewBox="0 0 128 128">
  <g id="img22" transform="translate(-72.746 -7992)">
    <g id="Ellipse_13628" data-name="Ellipse 13628" transform="translate(72.746 7992)" fill="#fef6ff" stroke="#9c3413" stroke-width="6">
      <circle cx="64" cy="64" r="64" stroke="none"/>
      <circle cx="64" cy="64" r="61" fill="none"/>
    </g>
    <g id="Group_1198952" data-name="Group 1198952" transform="translate(77.007 8020.277)">
      <path id="Path_1025056" data-name="Path 1025056" d="M281.073,305.649l-7.381-7.381a19.955,19.955,0,0,1-3.336,3.336l7.381,7.381Z" transform="translate(-208.613 -256.647)" fill="#8abbd5"/>
      <path id="Path_1025057" data-name="Path 1025057" d="M279.372,318.455l-7.282-7.282a19.956,19.956,0,0,1-1.733,1.535l7.381,7.381Z" transform="translate(-208.614 -267.752)" fill="#6cabca"/>
      <g id="Group_1198930" data-name="Group 1198930" transform="translate(68.611 48.489)">
        <g id="Group_1198929" data-name="Group 1198929" transform="translate(0 0)">
          <path id="Path_1025058" data-name="Path 1025058" d="M325.633,347.93a1.514,1.514,0,0,0-2.142,0l-3.475,3.475a1.514,1.514,0,0,0,0,2.142l2.505,2.505,5.616-5.616Z" transform="translate(-319.573 -347.487)" fill="#d8ecfe"/>
        </g>
        <path id="Path_1025059" data-name="Path 1025059" d="M323.565,353.2a1.514,1.514,0,0,1,0-2.142l2.6-2.6-.53-.53a1.514,1.514,0,0,0-2.142,0l-3.475,3.475a1.514,1.514,0,0,0,0,2.142l2.505,2.505,1.947-1.947Z" transform="translate(-319.573 -347.487)" fill="#c4e2ff"/>
      </g>
      <g id="Group_1198931" data-name="Group 1198931" transform="translate(71.56 51.437)">
        <path id="Path_1025060" data-name="Path 1025060" d="M359,384.51l-2.4,2.4a2.272,2.272,0,0,1-3.212,0l-12.68-12.68,5.616-5.616L359,381.3A2.272,2.272,0,0,1,359,384.51Z" transform="translate(-340.706 -368.618)" fill="#2ed1e2"/>
      </g>
      <g id="Group_1198932" data-name="Group 1198932" transform="translate(71.56 51.437)">
        <path id="Path_1025061" data-name="Path 1025061" d="M346.634,373.247l2.159-2.159-2.471-2.471-5.616,5.616,12.68,12.68a2.272,2.272,0,0,0,3.212,0l.864-.864-10.828-10.828A1.4,1.4,0,0,1,346.634,373.247Z" transform="translate(-340.706 -368.618)" fill="#03bed7"/>
      </g>
      <path id="Path_1025062" data-name="Path 1025062" d="M79.935,87.689H70.749a.7.7,0,0,0-.493.2L65.248,92.9a.7.7,0,0,1-1.191-.493V88.386a.7.7,0,0,0-.7-.7H58a.7.7,0,0,1-.7-.7V69.718a19.851,19.851,0,0,0-15.884,26.14H52.31a.418.418,0,0,1,.3.123L56.33,99.7a.419.419,0,0,1,.123.3v8.839A19.848,19.848,0,0,0,80.005,89.35C80.005,88.79,79.981,88.237,79.935,87.689Z" transform="translate(-10.684 -59.989)" fill="#00f2a6"/>
      <path id="Path_1025063" data-name="Path 1025063" d="M103.386,116.085H98.763a.7.7,0,0,0-.493.2L93.262,121.3a.7.7,0,0,1-1.191-.493v-4.021a.7.7,0,0,0-.7-.7H86.019a.7.7,0,0,1-.7-.7V102.72a15.3,15.3,0,0,0-10.984,21.535h5.987a.418.418,0,0,1,.3.123l3.724,3.724a.419.419,0,0,1,.123.3v4.189a15.3,15.3,0,0,0,19.01-14.84,15.483,15.483,0,0,0-.09-1.662Z" transform="translate(-38.698 -88.386)" fill="#d8ecfe"/>
      <g id="Group_1198933" data-name="Group 1198933" transform="translate(34.188 14.334)">
        <path id="Path_1025064" data-name="Path 1025064" d="M80.214,124.255A15.3,15.3,0,0,1,85.322,105.2V102.72a15.3,15.3,0,0,0-10.984,21.535Z" transform="translate(-72.887 -102.72)" fill="#b3dafe"/>
      </g>
      <g id="Group_1198938" data-name="Group 1198938" transform="translate(46.623 1.047)">
        <g id="Group_1198934" data-name="Group 1198934">
          <path id="Path_1025065" data-name="Path 1025065" d="M187.954,7.5H162.7a.7.7,0,0,0-.7.7V33.455a.7.7,0,0,0,.7.7h5.354a.7.7,0,0,1,.7.7v4.021a.7.7,0,0,0,1.191.493l5.008-5.008a.7.7,0,0,1,.493-.2h12.513a.7.7,0,0,0,.7-.7V8.2A.7.7,0,0,0,187.954,7.5Z" transform="translate(-161.999 -7.5)" fill="#2ed1e2"/>
        </g>
        <g id="Group_1198936" data-name="Group 1198936">
          <g id="Group_1198935" data-name="Group 1198935">
            <path id="Path_1025066" data-name="Path 1025066" d="M166.743,33.455V8.2a.7.7,0,0,1,.7-.7H162.7a.7.7,0,0,0-.7.7V33.455a.7.7,0,0,0,.7.7h4.744A.7.7,0,0,1,166.743,33.455Z" transform="translate(-161.999 -7.5)" fill="#03bed7"/>
          </g>
        </g>
        <g id="Group_1198937" data-name="Group 1198937" transform="translate(11.378 4.396)">
          <path id="Path_1025067" data-name="Path 1025067" d="M247.478,99.4h-3.943V89.082h3.637a.306.306,0,0,1,.306.306Z" transform="translate(-243.535 -82.094)" fill="#fff"/>
          <path id="Path_1025068" data-name="Path 1025068" d="M247.172,42.943h-3.33a.306.306,0,0,1-.306-.306v-3.33a.306.306,0,0,1,.306-.306h3.331a.306.306,0,0,1,.306.306v3.33A.307.307,0,0,1,247.172,42.943Z" transform="translate(-243.535 -39)" fill="#fff"/>
        </g>
      </g>
      <g id="Group_1198939" data-name="Group 1198939" transform="translate(73.802 31.799)">
        <path id="Path_1025069" data-name="Path 1025069" d="M366.656,238.179H357.2a.419.419,0,0,1-.419-.419V228.3a.419.419,0,0,1,.419-.419h9.46a.419.419,0,0,1,.419.419v9.46A.419.419,0,0,1,366.656,238.179Z" transform="translate(-356.777 -227.881)" fill="#00f2a6"/>
      </g>
      <g id="Group_1198940" data-name="Group 1198940" transform="translate(73.802 31.799)">
        <path id="Path_1025070" data-name="Path 1025070" d="M360.3,237.76V228.3a.419.419,0,0,1,.419-.419H357.2a.419.419,0,0,0-.419.419v9.46a.419.419,0,0,0,.419.419h3.52A.419.419,0,0,1,360.3,237.76Z" transform="translate(-356.777 -227.881)" fill="#05e39c"/>
      </g>
      <g id="Group_1198941" data-name="Group 1198941" transform="translate(51.39 54.06)">
        <path id="Path_1025071" data-name="Path 1025071" d="M202.861,394.527h-6.28a.419.419,0,0,1-.419-.419v-6.28a.419.419,0,0,1,.419-.419h6.28a.419.419,0,0,1,.419.419v6.28A.419.419,0,0,1,202.861,394.527Z" transform="translate(-196.162 -387.41)" fill="#fe646f"/>
      </g>
      <g id="Group_1198942" data-name="Group 1198942" transform="translate(51.39 54.06)">
        <path id="Path_1025072" data-name="Path 1025072" d="M199.209,394.109v-6.28a.419.419,0,0,1,.419-.419h-3.047a.419.419,0,0,0-.419.419v6.28a.419.419,0,0,0,.419.419h3.047A.419.419,0,0,1,199.209,394.109Z" transform="translate(-196.162 -387.41)" fill="#fd4755"/>
      </g>
      <g id="Group_1198943" data-name="Group 1198943" transform="translate(32.39 3.349)">
        <path id="Path_1025073" data-name="Path 1025073" d="M65.65,30.068H60.419A.419.419,0,0,1,60,29.65V24.419A.419.419,0,0,1,60.419,24H65.65a.419.419,0,0,1,.419.419V29.65A.419.419,0,0,1,65.65,30.068Z" transform="translate(-60 -24)" fill="#ffe177"/>
      </g>
      <g id="Group_1198944" data-name="Group 1198944" transform="translate(32.39 3.349)">
        <path id="Path_1025074" data-name="Path 1025074" d="M62.763,29.65V24.419A.419.419,0,0,1,63.182,24H60.419a.419.419,0,0,0-.419.419V29.65a.419.419,0,0,0,.419.419h2.763A.419.419,0,0,1,62.763,29.65Z" transform="translate(-60 -24)" fill="#ffc344"/>
      </g>
      <g id="Group_1198947" data-name="Group 1198947" transform="translate(28.958 35.869)">
        <g id="Group_1198945" data-name="Group 1198945" transform="translate(0)">
          <path id="Path_1025075" data-name="Path 1025075" d="M48.079,257.047H35.831a.419.419,0,0,0-.419.419V277.64a.419.419,0,0,0,.419.419H51.8a.419.419,0,0,0,.419-.419V261.189a.418.418,0,0,0-.123-.3l-3.724-3.724A.419.419,0,0,0,48.079,257.047Z" transform="translate(-35.412 -257.047)" fill="#ffe177"/>
        </g>
        <g id="Group_1198946" data-name="Group 1198946" transform="translate(0)">
          <path id="Path_1025076" data-name="Path 1025076" d="M40.1,277.64V257.466a.419.419,0,0,1,.419-.419H35.831a.419.419,0,0,0-.419.419V277.64a.419.419,0,0,0,.419.419h4.687A.419.419,0,0,1,40.1,277.64Z" transform="translate(-35.412 -257.047)" fill="#ffc344"/>
        </g>
      </g>
      <g id="Group_1198950" data-name="Group 1198950" transform="translate(77.739 9.992)">
        <g id="Group_1198948" data-name="Group 1198948">
          <path id="Path_1025077" data-name="Path 1025077" d="M394.039,71.607h-8.628a.419.419,0,0,0-.419.419v14.25a.419.419,0,0,0,.419.419h11.232a.419.419,0,0,0,.419-.419V74.63a.418.418,0,0,0-.123-.3l-2.6-2.6a.418.418,0,0,0-.3-.123Z" transform="translate(-384.993 -71.607)" fill="#d8ecfe"/>
        </g>
        <g id="Group_1198949" data-name="Group 1198949" transform="translate(0 0)">
          <path id="Path_1025078" data-name="Path 1025078" d="M388.972,86.275V72.026a.419.419,0,0,1,.419-.419h-3.979a.419.419,0,0,0-.419.419v14.25a.419.419,0,0,0,.419.419h3.979A.419.419,0,0,1,388.972,86.275Z" transform="translate(-384.993 -71.607)" fill="#c4e2ff"/>
        </g>
      </g>
      <g id="Group_1198951" data-name="Group 1198951" transform="translate(27.912 0)">
        <path id="Path_1025079" data-name="Path 1025079" d="M90.6,63.377,85.638,58.42a1.046,1.046,0,1,0-1.48,1.48l4.957,4.957a1.225,1.225,0,0,1,0,1.732l-2.4,2.4a1.225,1.225,0,0,1-1.732,0L73.04,57.054l4.136-4.136L80.7,56.446a1.046,1.046,0,0,0,1.48-1.48l-6.774-6.774a2.564,2.564,0,0,0-2.82-.541l-6.135-6.135a20.77,20.77,0,0,0,3.912-12.156c0-.206,0-.41-.01-.615h2.22A1.746,1.746,0,0,0,74.322,27V17.164a1.047,1.047,0,1,0-2.093,0v9.489H60.065a1.733,1.733,0,0,0-1.233.511l-4.413,4.413V28.4a1.746,1.746,0,0,0-1.744-1.744H47.669V2.093h24.56V12.28a1.047,1.047,0,1,0,2.093,0V1.744A1.746,1.746,0,0,0,72.577,0H47.32a1.746,1.746,0,0,0-1.744,1.744v7.1a20.884,20.884,0,0,0-16.251,25.98,1.466,1.466,0,0,0-1.414,1.463V56.462a1.467,1.467,0,0,0,1.465,1.465h7.338a1.047,1.047,0,0,0,0-2.093h-6.71V36.915h11.36l3.356,3.356V55.834H41.6a1.047,1.047,0,0,0,0,2.093h3.75a1.467,1.467,0,0,0,1.465-1.465V50.074a20.852,20.852,0,0,0,14.824-3.741l6.134,6.134a2.561,2.561,0,0,0,.542,2.822L83.5,70.473a3.318,3.318,0,0,0,4.692,0l2.4-2.4a3.318,3.318,0,0,0,0-4.692Zm-45.019-52.4v2.513A16.34,16.34,0,0,0,34.082,34.822H31.5A18.794,18.794,0,0,1,45.576,10.979ZM42.662,35.251a1.456,1.456,0,0,0-1.036-.429h-5.3a14.244,14.244,0,0,1,9.252-19.163V27a1.746,1.746,0,0,0,1.744,1.744h5.005v3.673A1.744,1.744,0,0,0,55.3,33.652l4.906-4.906h3.507c.009.2.015.409.015.615a14.243,14.243,0,0,1-16.917,14V40.011a1.455,1.455,0,0,0-.429-1.036Zm4.153,12.71V45.482A16.34,16.34,0,0,0,65.824,29.36c0-.206-.005-.411-.013-.615h2.451c.007.2.012.409.012.615a18.789,18.789,0,0,1-21.46,18.6Zm16.471-2.942a21.069,21.069,0,0,0,1.856-1.856L70.98,49l-1.856,1.856Zm6.509,8.789a.468.468,0,0,1,0-.662l3.475-3.475a.468.468,0,0,1,.662,0L75.7,51.437,71.56,55.574Z" transform="translate(-27.912 0)"/>
        <path id="Path_1025080" data-name="Path 1025080" d="M240.717,37.536a1.354,1.354,0,0,0,1.353-1.353v-3.33a1.354,1.354,0,0,0-1.353-1.353h-3.331a1.354,1.354,0,0,0-1.353,1.353v3.33a1.354,1.354,0,0,0,1.353,1.353Zm-2.59-3.943h1.85v1.85h-1.85Z" transform="translate(-206.992 -27.104)"/>
        <path id="Path_1025081" data-name="Path 1025081" d="M227.035,91.9a1.047,1.047,0,0,0,0,2.093H233.7a1.047,1.047,0,0,0,0-2.093h-.316V82.934a1.354,1.354,0,0,0-1.353-1.353H226.99a1.047,1.047,0,0,0,0,2.093h.362V91.9Zm2.409-8.221h1.85V91.9h-1.85Z" transform="translate(-198.31 -70.197)"/>
        <path id="Path_1025082" data-name="Path 1025082" d="M350.742,220.381a1.467,1.467,0,0,0-1.465,1.465v9.46a1.467,1.467,0,0,0,1.465,1.465h9.46a1.467,1.467,0,0,0,1.465-1.465v-9.46a1.467,1.467,0,0,0-1.465-1.465Zm8.832,10.3h-8.2v-8.2h8.2Z" transform="translate(-304.433 -189.629)"/>
        <path id="Path_1025083" data-name="Path 1025083" d="M196.407,379.911h-6.28a1.467,1.467,0,0,0-1.465,1.465v6.28a1.467,1.467,0,0,0,1.465,1.465h6.28a1.467,1.467,0,0,0,1.465-1.465v-6.28A1.467,1.467,0,0,0,196.407,379.911Zm-.628,7.117h-5.024V382h5.024Z" transform="translate(-166.231 -326.898)"/>
        <path id="Path_1025084" data-name="Path 1025084" d="M53.965,24.661H59.2A1.467,1.467,0,0,0,60.661,23.2V17.965A1.467,1.467,0,0,0,59.2,16.5H53.965A1.467,1.467,0,0,0,52.5,17.965V23.2A1.467,1.467,0,0,0,53.965,24.661Zm.628-6.068h3.975v3.975H54.593Z" transform="translate(-49.069 -14.198)"/>
        <path id="Path_1025085" data-name="Path 1025085" d="M65.1,360.657H71.82a1.047,1.047,0,1,0,0-2.093H65.1a1.047,1.047,0,1,0,0,2.093Z" transform="translate(-59.007 -308.53)"/>
        <path id="Path_1025086" data-name="Path 1025086" d="M65.1,326.928H71.82a1.047,1.047,0,1,0,0-2.093H65.1a1.047,1.047,0,1,0,0,2.093Z" transform="translate(-59.007 -279.507)"/>
        <path id="Path_1025087" data-name="Path 1025087" d="M65.1,293.2h3.81a1.047,1.047,0,1,0,0-2.093H65.1a1.047,1.047,0,1,0,0,2.093Z" transform="translate(-59.007 -250.484)"/>
        <path id="Path_1025088" data-name="Path 1025088" d="M378.957,81.286h11.232a1.467,1.467,0,0,0,1.465-1.465V68.176a1.455,1.455,0,0,0-.429-1.036l-2.6-2.6a1.456,1.456,0,0,0-1.036-.429h-8.628a1.467,1.467,0,0,0-1.465,1.465v14.25A1.467,1.467,0,0,0,378.957,81.286Zm.628-15.087h7.74l2.237,2.237V79.193h-9.976Z" transform="translate(-328.711 -55.161)"/>
        <path id="Path_1025089" data-name="Path 1025089" d="M409.316,142.383h-4.828a1.047,1.047,0,1,0,0,2.093h4.828a1.047,1.047,0,0,0,0-2.093Z" transform="translate(-351.04 -122.515)"/>
        <path id="Path_1025090" data-name="Path 1025090" d="M409.316,118.165h-4.828a1.047,1.047,0,1,0,0,2.093h4.828a1.047,1.047,0,0,0,0-2.093Z" transform="translate(-351.04 -101.676)"/>
        <path id="Path_1025091" data-name="Path 1025091" d="M404.488,96.04h2.736a1.047,1.047,0,1,0,0-2.093h-2.736a1.047,1.047,0,1,0,0,2.093Z" transform="translate(-351.039 -80.838)"/>
      </g>
    </g>
  </g>
</svg>
