<svg xmlns="http://www.w3.org/2000/svg" width="150" height="150" viewBox="0 0 150 150">
  <g id="img6" transform="translate(-383.746 -8400)">
    <circle id="Ellipse_13609" data-name="Ellipse 13609" cx="75" cy="75" r="75" transform="translate(383.746 8400)" fill="#b9c296"/>
    <g id="Group_1198876" data-name="Group 1198876" transform="translate(416.518 8433)">
      <path id="Path_1024944" data-name="Path 1024944" d="M29.02,40.34A1.341,1.341,0,0,1,27.68,39H25a4.02,4.02,0,0,0,8.039,0h-2.68A1.341,1.341,0,0,1,29.02,40.34Z" transform="translate(7.816 12.574)" fill="#4a4e3c"/>
      <path id="Path_1024945" data-name="Path 1024945" d="M41.039,39h-2.68a1.34,1.34,0,0,1-2.68,0H33a4.02,4.02,0,0,0,8.039,0Z" transform="translate(10.535 12.574)" fill="#4a4e3c"/>
      <path id="Path_1024946" data-name="Path 1024946" d="M29.117,72.875V63.5a1.34,1.34,0,0,0-1.763-1.272A24.725,24.725,0,0,1,19.521,63.5H14.379v-4.02h4.35a27.5,27.5,0,0,0,10.307-2.008,9.326,9.326,0,0,1,3.485-.671h6.288l-2.8,4.669a1.343,1.343,0,0,0-.05,1.289l4.02,8.039a1.34,1.34,0,0,0,2.4,0l4.02-8.039a1.344,1.344,0,0,0-.05-1.289l-2.8-4.669H49.83a9.5,9.5,0,0,1,3.6.717,27.334,27.334,0,0,0,10.194,1.963h4.35V63.5H62.83A24.725,24.725,0,0,1,55,62.225,1.34,1.34,0,0,0,53.234,63.5v9.379h2.68V65.29a27.4,27.4,0,0,0,6.916.886h6.482a1.339,1.339,0,0,0,1.34-1.34h1.869a5.351,5.351,0,0,0,4.458-2.384l.1-.15a2.68,2.68,0,0,0-2.23-4.166h-4.2a1.339,1.339,0,0,0-1.34-1.34h-5.69a24.841,24.841,0,0,1-9.313-1.817,12.025,12.025,0,0,0-4.479-.863h-.65A13.388,13.388,0,1,0,28.416,39.323c-.027.02-.056.036-.084.056l.043.06a13.362,13.362,0,0,0,4.8,14.678h-.65a12.193,12.193,0,0,0-4.593.908,24.677,24.677,0,0,1-9.2,1.771h-5.69a1.339,1.339,0,0,0-1.34,1.34H7.682A2.679,2.679,0,0,0,5.45,62.3l.1.151a5.351,5.351,0,0,0,4.459,2.386H11.7a1.339,1.339,0,0,0,1.34,1.34h6.482a27.388,27.388,0,0,0,6.916-.886v7.585ZM74.85,60.814l-.1.149a2.676,2.676,0,0,1-2.229,1.194H70.652v-1.34ZM41.176,67.2l-2.492-4.984,2.492-4.154,2.492,4.154Zm0-34.52a10.713,10.713,0,0,1,8.931,4.806,21.425,21.425,0,0,0-17.5-.5,10.7,10.7,0,0,1,8.572-4.31ZM30.457,43.4a10.689,10.689,0,0,1,.281-2.4,18.683,18.683,0,0,1,20.985.553A10.714,10.714,0,1,1,30.457,43.4ZM10.008,62.156a2.674,2.674,0,0,1-2.227-1.188l-.1-.151H11.7v1.34Z" transform="translate(1.02 9.516)" fill="#4a4e3c"/>
      <path id="Path_1024947" data-name="Path 1024947" d="M35.4,28.8A13.4,13.4,0,1,0,22,15.4,13.414,13.414,0,0,0,35.4,28.8Zm-5.526-4.231,2.987-2.239,1.388.694.769,3.078a10.632,10.632,0,0,1-5.144-1.533Zm15.565-5.446-5.271-1.757,1.706-2.56a1.347,1.347,0,0,0,.225-.744v-3.3l2.13-1.42a10.62,10.62,0,0,1,1.21,9.784Zm-3.017-11.8-2.406,1.6a1.342,1.342,0,0,0-.6,1.115v3.614l-2.455,3.682a1.339,1.339,0,0,0,.691,2.014l6.526,2.176a10.734,10.734,0,0,1-6.462,4.332L36.7,21.772A1.342,1.342,0,0,0,36,20.9l-2.68-1.34a1.342,1.342,0,0,0-1.4.127l-4.211,3.158a10.781,10.781,0,0,1-1.865-2.622l4.645-3.484h2.234a1.334,1.334,0,0,0,.947-.393l2.68-2.68a1.338,1.338,0,0,0,.323-1.371l-1.34-4.02a1.337,1.337,0,0,0-1.27-.916H31.934L30.466,5.892A10.649,10.649,0,0,1,42.421,7.321Zm-14.186.129,2.2,2.2a1.334,1.334,0,0,0,.947.393h1.714l.772,2.318-1.7,1.7H30.039a1.336,1.336,0,0,0-.8.268L24.9,17.576A10.792,10.792,0,0,1,24.68,15.4a10.683,10.683,0,0,1,3.555-7.949Z" transform="translate(6.797)" fill="#4a4e3c"/>
      <path id="Path_1024948" data-name="Path 1024948" d="M7.359,41.092v.025h.035a13.294,13.294,0,0,0,16.008,0h.035v-.025a13.4,13.4,0,1,0-16.078,0Zm2.68-1.424V37.1a4.024,4.024,0,0,1,4.02-4.02h2.68a4.024,4.024,0,0,1,4.02,4.02v2.57a10.631,10.631,0,0,1-10.719,0ZM15.4,30.4a2.68,2.68,0,1,1,2.68-2.68A2.682,2.682,0,0,1,15.4,30.4Zm0-10.719a10.7,10.7,0,0,1,8.039,17.785V37.1a6.693,6.693,0,0,0-3.871-6.051,5.36,5.36,0,1,0-8.337,0A6.693,6.693,0,0,0,7.359,37.1v.367A10.7,10.7,0,0,1,15.4,19.68Z" transform="translate(0 5.098)" fill="#4a4e3c"/>
      <path id="Path_1024949" data-name="Path 1024949" d="M55.4,43.8A13.4,13.4,0,1,0,42,30.4,13.414,13.414,0,0,0,55.4,43.8Zm0-24.117A10.719,10.719,0,1,1,44.68,30.4,10.731,10.731,0,0,1,55.4,19.68Z" transform="translate(13.594 5.098)" fill="#4a4e3c"/>
      <path id="Path_1024950" data-name="Path 1024950" d="M50.689,33.059H52.7v4.02h2.68v-4.02h2.01a4.681,4.681,0,0,0,1.4-9.151,5.331,5.331,0,0,0-9.5,0,4.681,4.681,0,0,0,1.4,9.151Zm-.261-6.667A1.337,1.337,0,0,0,51.52,25.5a2.654,2.654,0,0,1,5.038,0,1.337,1.337,0,0,0,1.092.894,2,2,0,0,1-.261,3.989h-6.7a2,2,0,0,1-.261-3.987Z" transform="translate(14.953 6.457)" fill="#4a4e3c"/>
      <path id="Path_1024951" data-name="Path 1024951" d="M55,47h2.68v2.68H55Z" transform="translate(18.012 15.293)" fill="#4a4e3c"/>
      <path id="Path_1024952" data-name="Path 1024952" d="M55,43h2.68v2.68H55Z" transform="translate(18.012 13.934)" fill="#4a4e3c"/>
      <path id="Path_1024953" data-name="Path 1024953" d="M55,39h2.68v2.68H55Z" transform="translate(18.012 12.574)" fill="#4a4e3c"/>
      <path id="Path_1024954" data-name="Path 1024954" d="M7,47H9.68v2.68H7Z" transform="translate(1.699 15.293)" fill="#4a4e3c"/>
      <path id="Path_1024955" data-name="Path 1024955" d="M7,43H9.68v2.68H7Z" transform="translate(1.699 13.934)" fill="#4a4e3c"/>
      <path id="Path_1024956" data-name="Path 1024956" d="M7,39H9.68v2.68H7Z" transform="translate(1.699 12.574)" fill="#4a4e3c"/>
    </g>
  </g>
</svg>
