<svg xmlns="http://www.w3.org/2000/svg" width="90" height="90" viewBox="0 0 90 90">
  <g id="banner-principal-decorativo-1" transform="translate(-857 -511)">
    <g id="Group_1188194" data-name="Group 1188194">
      <circle id="Ellipse_15026" data-name="Ellipse 15026" cx="45" cy="45" r="45" transform="translate(857 511)" fill="#fff"/>
      <circle id="Ellipse_15027" data-name="Ellipse 15027" cx="40" cy="40" r="40" transform="translate(862 516)" fill="#9c3413"/>
    </g>
    <g id="Group_1188199" data-name="Group 1188199" transform="translate(873.231 482.757)">
      <g id="Group_1188197" data-name="Group 1188197" transform="translate(0.843 51.47)">
        <g id="Group_1188195" data-name="Group 1188195">
          <path id="Path_1011875" data-name="Path 1011875" d="M15.574,76.275h15.88L32.3,77.96a9.275,9.275,0,0,1-17.566,0ZM7.5,74.141a16,16,0,0,0,7.585,13.618v7.453l8.428-5.057A16.014,16.014,0,1,0,7.5,74.141Z" transform="translate(-7.5 -58.127)" fill="#feef8f" fill-rule="evenodd"/>
          <path id="Path_1011876" data-name="Path 1011876" d="M88.568,219.616H72.688l-.843,1.686a9.275,9.275,0,0,0,17.566,0Z" transform="translate(-64.614 -201.468)" fill="#df95c0" fill-rule="evenodd"/>
          <path id="Path_1011877" data-name="Path 1011877" d="M238.239,127.4a16,16,0,0,1-6.87,13.148,16.016,16.016,0,0,0,14.68,9.608l8.428,5.057v-7.453a16.014,16.014,0,1,0-17.571-26.765A15.959,15.959,0,0,1,238.239,127.4Zm5.106,8.428a1.686,1.686,0,1,1,1.686-1.686A1.686,1.686,0,0,1,243.344,135.825Zm6.743,0a1.686,1.686,0,1,1,1.686-1.686A1.686,1.686,0,0,1,250.087,135.825Z" transform="translate(-206.211 -111.383)" fill="#e5ecf5" fill-rule="evenodd"/>
          <path id="Path_1011878" data-name="Path 1011878" d="M238.239,139.9a16,16,0,0,1-6.87,13.148,16.041,16.041,0,0,0,12.492,9.459c-5.392-2.354-7.935-5.619-9.255-8.807a18.553,18.553,0,0,0,4.5-21.49,16.025,16.025,0,0,0-2.2,1.284,15.958,15.958,0,0,1,1.332,6.405Z" transform="translate(-206.211 -123.882)" fill="#b0c5e0" fill-rule="evenodd"/>
          <path id="Path_1011879" data-name="Path 1011879" d="M324.619,245.626a1.686,1.686,0,1,0,1.686,1.686A1.686,1.686,0,0,0,324.619,245.626Zm6.743,0a1.686,1.686,0,1,0,1.686,1.686A1.686,1.686,0,0,0,331.361,245.626Z" transform="translate(-287.486 -224.555)" fill="#feef8f" fill-rule="evenodd"/>
          <path id="Path_1011880" data-name="Path 1011880" d="M7.5,89.129a16,16,0,0,0,7.585,13.618V110.2l2.528-1.517v-7.622a16.014,16.014,0,0,1-1.667-26.048A16.01,16.01,0,0,0,7.5,89.129Z" transform="translate(-7.5 -73.115)" fill="#f7bd83" fill-rule="evenodd"/>
          <path id="Path_1011881" data-name="Path 1011881" d="M72.43,224.2l-.585,1.171a9.275,9.275,0,0,0,17.566,0l-.585-1.171a9.274,9.274,0,0,1-16.395,0Z" transform="translate(-64.614 -205.534)" fill="#d15573" fill-rule="evenodd"/>
        </g>
        <g id="Group_1188196" data-name="Group 1188196" transform="translate(18.542 3.371)">
          <path id="Path_1011882" data-name="Path 1011882" d="M203.067,99.084h-1.686V97.4h1.686ZM199.7,97.4H198.01V95.712H199.7Zm-22.138-5.9h-1.686V89.813h1.686Zm-3.371-1.686H172.5V88.127h1.686Z" transform="translate(-172.5 -88.127)" fill="#fff"/>
        </g>
      </g>
      <g id="Group_1188198" data-name="Group 1188198" transform="translate(0 50.627)">
        <path id="Path_1011883" data-name="Path 1011883" d="M54.506,83.871A16.856,16.856,0,0,0,31.883,59.849,16.855,16.855,0,0,0,0,67.484,16.689,16.689,0,0,0,1.717,74.9L3.23,74.16a15.016,15.016,0,0,1-1.545-6.676A15.171,15.171,0,1,1,16.857,82.654h-.233L9.271,87.066V80.632l-.4-.247a15.329,15.329,0,0,1-4.864-4.831l-1.426.9a17.033,17.033,0,0,0,5,5.111v8.481l9.507-5.7a16.752,16.752,0,0,0,8.558-2.48,16.861,16.861,0,0,0,14.793,9.222l9.507,5.7V88.3a16.921,16.921,0,0,0,3.463-3.036l-1.273-1.1a15.234,15.234,0,0,1-3.477,2.963l-.4.247v6.434L40.914,89.4h-.234a15.176,15.176,0,0,1-13.627-8.5,16.843,16.843,0,0,0,5.523-19.5,15.171,15.171,0,0,1,20.547,21.5Z" transform="translate(0 -50.627)"/>
        <path id="Path_1011884" data-name="Path 1011884" d="M63.737,214.583l.113.333a10.118,10.118,0,0,0,19.162,0l.113-.333-1.233-2.466H64.97Zm2.275-.78H80.85l.448.9a8.432,8.432,0,0,1-15.735,0Z" transform="translate(-56.574 -193.969)"/>
        <path id="Path_1011885" data-name="Path 1011885" d="M64.215,144.617A4.219,4.219,0,0,0,60,148.831h1.686a2.528,2.528,0,1,1,5.057,0h1.686A4.219,4.219,0,0,0,64.215,144.617Z" transform="translate(-53.258 -134.055)"/>
        <path id="Path_1011886" data-name="Path 1011886" d="M169.214,146.3a2.531,2.531,0,0,1,2.528,2.528h1.686a4.214,4.214,0,0,0-8.428,0h1.686A2.531,2.531,0,0,1,169.214,146.3Z" transform="translate(-146.458 -134.055)"/>
        <path id="Path_1011887" data-name="Path 1011887" d="M315.433,240.654a2.528,2.528,0,1,0,2.528-2.528A2.531,2.531,0,0,0,315.433,240.654Zm3.371,0a.843.843,0,1,1-.843-.843A.844.844,0,0,1,318.8,240.654Z" transform="translate(-279.986 -217.055)"/>
        <path id="Path_1011888" data-name="Path 1011888" d="M375.432,240.654a2.528,2.528,0,1,0,2.528-2.528A2.531,2.531,0,0,0,375.432,240.654Zm3.371,0a.843.843,0,1,1-.843-.843A.844.844,0,0,1,378.8,240.654Z" transform="translate(-333.242 -217.055)"/>
      </g>
    </g>
  </g>
</svg>
