<svg xmlns="http://www.w3.org/2000/svg" width="150" height="150" viewBox="0 0 150 150">
  <g id="img11" transform="translate(-383.746 -8400)">
    <circle id="Ellipse_13609" data-name="Ellipse 13609" cx="75" cy="75" r="75" transform="translate(383.746 8400)" fill="#b9c296"/>
    <g id="Group_1198963" data-name="Group 1198963" transform="translate(414.746 8431.436)">
      <path id="Path_1025144" data-name="Path 1025144" d="M2,52.4A22.4,22.4,0,1,0,24.4,30,22.426,22.426,0,0,0,2,52.4ZM25.8,32.871A19.486,19.486,0,0,1,37.216,37.6L34.3,40.521l1.98,1.98L39.2,39.584A19.49,19.49,0,0,1,43.929,51H39.8v2.8h4.129a19.577,19.577,0,0,1-39.057,0H9V51H4.871A19.486,19.486,0,0,1,9.6,39.584L12.521,42.5l1.98-1.98L11.584,37.6A19.49,19.49,0,0,1,23,32.871V37h2.8Z" transform="translate(0 11.2)" fill="#4a4e3c"/>
      <path id="Path_1025145" data-name="Path 1025145" d="M15.485,47.7a4.2,4.2,0,1,0,7.693.626l3.457-3.872a1.4,1.4,0,0,0,.347-1.078l-.524-5.02A1.4,1.4,0,0,0,24.4,37.269l-4.432,2.415a1.4,1.4,0,0,0-.69.9l-1.228,5.043A4.18,4.18,0,0,0,15.485,47.7Zm6.36-5.849,2.044-1.114.242,2.316L21.407,46.1c-.085-.053-.161-.119-.252-.167s-.186-.071-.277-.112ZM17.961,49a1.4,1.4,0,0,1,2.479,1.3h0A1.4,1.4,0,1,1,17.961,49Z" transform="translate(5.2 14.039)" fill="#4a4e3c"/>
      <path id="Path_1025146" data-name="Path 1025146" d="M13,53h2.8v2.8H13Z" transform="translate(4.4 20.4)" fill="#4a4e3c"/>
      <path id="Path_1025147" data-name="Path 1025147" d="M17,53h2.8v2.8H17Z" transform="translate(6 20.4)" fill="#4a4e3c"/>
      <path id="Path_1025148" data-name="Path 1025148" d="M21,53h2.8v2.8H21Z" transform="translate(7.6 20.4)" fill="#4a4e3c"/>
      <path id="Path_1025149" data-name="Path 1025149" d="M78.6,2H18.4A1.4,1.4,0,0,0,17,3.4v35h2.8V4.8H77.2V73.4h-35v2.8H78.6A1.4,1.4,0,0,0,80,74.8V3.4A1.4,1.4,0,0,0,78.6,2Z" transform="translate(6)" fill="#4a4e3c"/>
      <path id="Path_1025150" data-name="Path 1025150" d="M56.8,49.4A1.4,1.4,0,0,0,58.2,48V21.4A1.4,1.4,0,0,0,56.8,20H48.4A1.4,1.4,0,0,0,47,21.4V48a1.4,1.4,0,0,0,1.4,1.4Zm-7-26.6h5.6V46.6H49.8Z" transform="translate(18 7.2)" fill="#4a4e3c"/>
      <path id="Path_1025151" data-name="Path 1025151" d="M45.8,50.2a1.4,1.4,0,0,0,1.4-1.4V19.4A1.4,1.4,0,0,0,45.8,18H37.4A1.4,1.4,0,0,0,36,19.4V48.8a1.4,1.4,0,0,0,1.4,1.4Zm-7-29.4h5.6V47.4H38.8Z" transform="translate(13.6 6.4)" fill="#4a4e3c"/>
      <path id="Path_1025152" data-name="Path 1025152" d="M36.2,38.4v-14A1.4,1.4,0,0,0,34.8,23H26.4A1.4,1.4,0,0,0,25,24.4v8.4h2.8v-7h5.6V38.4Z" transform="translate(9.2 8.4)" fill="#4a4e3c"/>
      <path id="Path_1025153" data-name="Path 1025153" d="M36,43H66.8v2.8H36Z" transform="translate(13.6 16.4)" fill="#4a4e3c"/>
      <path id="Path_1025154" data-name="Path 1025154" d="M48.176,11.684a1.406,1.406,0,0,0-1.231.134L32.052,21.3,21.436,18.642l-.678,2.716,11.2,2.8a1.4,1.4,0,0,0,1.091-.176l14.818-9.43,14.752,5.365a1.4,1.4,0,0,0,1.571-.441L67.771,15l2.948,1.966A1.4,1.4,0,0,0,72.9,15.8V7.4a1.4,1.4,0,0,0-1.842-1.329l-8.4,2.8a1.4,1.4,0,0,0-.333,2.493l3.114,2.076-2.8,3.5ZM70.1,9.342v3.842l-3.842-2.561Z" transform="translate(7.503 1.6)" fill="#4a4e3c"/>
    </g>
  </g>
</svg>
