<svg xmlns="http://www.w3.org/2000/svg" width="150" height="150" viewBox="0 0 150 150">
  <g id="img17" transform="translate(-383.746 -8400)">
    <circle id="Ellipse_13609" data-name="Ellipse 13609" cx="75" cy="75" r="75" transform="translate(383.746 8400)" fill="#b9c296"/>
    <g id="Group_1198618" data-name="Group 1198618" transform="translate(416.746 8422.303)">
      <path id="Path_1023622" data-name="Path 1023622" d="M167.407,60.931a1.23,1.23,0,0,0,1.23-1.23V57.851a1.23,1.23,0,1,0-2.461,0V59.7A1.23,1.23,0,0,0,167.407,60.931Z" transform="translate(-138.914 -36.633)" fill="#4a4e3c"/>
      <path id="Path_1023623" data-name="Path 1023623" d="M106.492,31.487a9.335,9.335,0,0,0,6.327-16.228H114.2a1.23,1.23,0,0,0,0-2.461h-7.706a9.345,9.345,0,1,0,0,18.689Zm0-16.228a6.884,6.884,0,1,1-6.906,6.884A6.9,6.9,0,0,1,106.492,15.259Z" transform="translate(-81.191 0)" fill="#4a4e3c"/>
      <path id="Path_1023624" data-name="Path 1023624" d="M312.224,59.356,290.207,81.424a1.727,1.727,0,0,0,0,2.435l3.406,3.414a1.723,1.723,0,0,0,2.438,0L318.064,65.21l1.876,1.881a1.555,1.555,0,0,0,1.1.475,1.5,1.5,0,0,0,1.434-1.145l3.637-13.274a1.533,1.533,0,0,0-.238-1.348,1.513,1.513,0,0,0-1.619-.507l-13.241,3.646a1.486,1.486,0,0,0-.671,2.534ZM323.3,54.107,320.533,64.2l-1.25-1.253a1.723,1.723,0,0,0-2.438,0L294.832,85.011l-2.364-2.369,22.017-22.068a1.726,1.726,0,0,0,0-2.435l-1.256-1.259Z" transform="translate(-242.176 -32.128)" fill="#4a4e3c"/>
      <path id="Path_1023625" data-name="Path 1023625" d="M82.268,157.8H78.75a1.23,1.23,0,0,0,0,2.461H81.53v27.066h-22.6V160.262H73.008a1.23,1.23,0,0,0,0-2.461H58.2a1.725,1.725,0,0,0-1.723,1.723v8.5H48.431V166.46a2.546,2.546,0,0,0-2.543-2.543H44.255v-12.28a2.053,2.053,0,0,0-2.051-2.051H34.91V137.122H45.685a2.049,2.049,0,0,0,1.729.953h3.1a2.053,2.053,0,0,0,2.051-2.051v-4.908a2.053,2.053,0,0,0-2.051-2.051h-3.1a2.049,2.049,0,0,0-1.729.953H42.329a1.23,1.23,0,0,0,0,2.461h3.035v2.182H33.68a1.23,1.23,0,0,0-1.23,1.23V151.6H19.457V135.277a2.807,2.807,0,0,1,2.809-2.8h14.32a1.23,1.23,0,0,0,0-2.461H22.267a5.276,5.276,0,0,0-4.638,2.765l-12.937,12.9a2.075,2.075,0,0,0-.45-.051,2.039,2.039,0,0,0-1.45.6L.6,148.417a2.051,2.051,0,0,0,0,2.9l3.482,3.472a2.056,2.056,0,0,0,2.9,0l2.19-2.184a2.035,2.035,0,0,0,.6-1.45,2.072,2.072,0,0,0-.05-.447L17,143.455v30.833a2.547,2.547,0,0,0-1.556,2.343v1.656H8.082a1.725,1.725,0,0,0-1.723,1.723v8.056a1.725,1.725,0,0,0,1.723,1.723H82.268a1.725,1.725,0,0,0,1.723-1.723V159.524A1.725,1.725,0,0,0,82.268,157.8ZM47.825,131.526H50.1v4.088H47.825Zm-1.937,34.852a.086.086,0,0,1,.082.082v1.562H37.2V166.46a.086.086,0,0,1,.082-.082ZM25.517,154.061h7.557a1.838,1.838,0,0,0,1.836-1.835v-.18h6.884v11.87H38.2V157.68a2.053,2.053,0,0,0-2.051-2.051H25.517v-1.568ZM17.9,176.632a.086.086,0,0,1,.082-.082h8.6a.086.086,0,0,1,.082.082v1.656H17.9ZM5.532,152.76l-2.9-2.893,1.609-1.6,2.9,2.893Zm2.675-4.016L6.659,147.2,17,136.889v3.091Zm23.208,38.585H8.82v-6.58h22.6Zm0-17.584v8.543H29.127v-1.656a2.546,2.546,0,0,0-2.543-2.543H25.517v-6.362a1.23,1.23,0,0,0-2.461,0v6.362h-3.6V154.061h3.6v7.924a1.23,1.23,0,1,0,2.461,0V158.09H35.734v6.36a2.537,2.537,0,0,0-.99,2.009v1.562H33.139a1.725,1.725,0,0,0-1.723,1.723Zm25.057,17.584h-22.6V170.483h22.6Z" transform="translate(0 -97.192)" fill="#4a4e3c"/>
    </g>
  </g>
</svg>
