<svg xmlns="http://www.w3.org/2000/svg" width="84" height="84" viewBox="0 0 84 84">
  <g id="img16" transform="translate(-518 -5967)">
    <rect id="Rectangle_461468" data-name="Rectangle 461468" width="84" height="84" rx="10" transform="translate(518 5967)" fill="#b9c296"/>
    <g id="Group_1196279" data-name="Group 1196279" transform="translate(527.5 5976.999)">
      <path id="Path_1018243" data-name="Path 1018243" d="M161,106v22.844H128.5V106" transform="translate(-111.75 -92.542)" fill="#fff"/>
      <path id="Path_1018244" data-name="Path 1018244" d="M82.5,337.12V323.945a13,13,0,0,1,9.956-4.644h.526a16.865,16.865,0,0,1,8.8,2.479l2.059,1.26h10.02a3.92,3.92,0,1,1,0,7.839l-13.04,0h13.143a3.692,3.692,0,0,0,2.407-.893l13.668-11.756a3.507,3.507,0,0,1,4.751,5.151l-11.926,11.932a14.5,14.5,0,0,1-10.254,4.249H82.5Zm0,0" transform="translate(-71.59 -277.098)" fill="#ffddcf"/>
      <path id="Path_1018245" data-name="Path 1018245" d="M108.5,22.188,127.289,10l18.789,12.188Zm0,0" transform="translate(-94.289 -8.73)" fill="#f5737f"/>
      <path id="Path_1018246" data-name="Path 1018246" d="M11.77,334h6.6a1.269,1.269,0,0,1,1.27,1.27v18.789a1.269,1.269,0,0,1-1.27,1.27h-6.6a1.269,1.269,0,0,1-1.27-1.27V335.27A1.269,1.269,0,0,1,11.77,334Zm0,0" transform="translate(-8.731 -291.597)" fill="#ffcb7c"/>
      <path id="Path_1018247" data-name="Path 1018247" d="M268.368,222.223h-3.739a6.129,6.129,0,0,0-6.128,6.128v1.96h16v-1.96a6.129,6.129,0,0,0-6.128-6.128Zm0,0" transform="translate(-225.247 -194.01)" fill="#ffcb7c"/>
      <path id="Path_1018248" data-name="Path 1018248" d="M138.812,219.352h-3.907a6.4,6.4,0,0,0-6.4,6.4v2.049h16.717v-2.049a6.4,6.4,0,0,0-6.4-6.4Zm0,0" transform="translate(-111.751 -191.504)" fill="#79b2ff"/>
      <g id="Group_1196278" data-name="Group 1196278" transform="translate(21.567 20.122)">
        <path id="Path_1018249" data-name="Path 1018249" d="M235.938,187.613a2.989,2.989,0,0,1,2.989,2.989v.618a2.989,2.989,0,0,1-5.978,0V190.6A2.989,2.989,0,0,1,235.938,187.613Zm0,0" transform="translate(-224.506 -183.917)" fill="#ffd4be"/>
        <path id="Path_1018250" data-name="Path 1018250" d="M298.037,171.382a3.389,3.389,0,0,1-3.389-3.389v-.616a3.389,3.389,0,1,1,6.777,0v.616A3.389,3.389,0,0,1,298.037,171.382Zm0,0" transform="translate(-278.373 -163.291)" fill="#ffd4be"/>
        <path id="Path_1018251" data-name="Path 1018251" d="M169.986,166.222a3.541,3.541,0,0,1-3.541-3.541v-.644a3.541,3.541,0,1,1,7.082,0v.644A3.541,3.541,0,0,1,169.986,166.222Zm0,0" transform="translate(-166.445 -158.497)" fill="#ffd4be"/>
      </g>
      <path id="Path_1018252" data-name="Path 1018252" d="M221.628,239.535h-3.874a3.415,3.415,0,0,0-3.414,3.414v2.477h10.7v-2.477a3.415,3.415,0,0,0-3.415-3.414Zm0,0" transform="translate(-186.692 -209.124)" fill="#d8ec84"/>
      <path id="Path_1018253" data-name="Path 1018253" d="M65.419,311.327a4.776,4.776,0,0,0-7.8-2.764l-10.237,8.8a5.2,5.2,0,0,0-5.113-4.3H32.61l-1.754-1.073a18.128,18.128,0,0,0-9.464-2.666h-.526a14.232,14.232,0,0,0-8.687,2.948v-.208a2.542,2.542,0,0,0-2.539-2.539h-6.6A2.542,2.542,0,0,0,.5,312.068v18.789A2.542,2.542,0,0,0,3.039,333.4h6.6a2.538,2.538,0,0,0,2.2-1.27H41.023a15.663,15.663,0,0,0,11.153-4.621L64.1,315.574a4.775,4.775,0,0,0,1.318-4.246Zm-62.38,19.53V312.068h6.6v18.789ZM62.3,313.778,50.38,325.711a13.145,13.145,0,0,1-9.357,3.877H12.179V315.717a11.7,11.7,0,0,1,8.687-3.849h.526a15.59,15.59,0,0,1,8.139,2.293l2.059,1.26a1.269,1.269,0,0,0,.663.187h10.02a2.65,2.65,0,0,1,.13,5.3H34.946a1.27,1.27,0,0,0,0,2.539l7.328,0q.1,0,.207,0a4.962,4.962,0,0,0,3.132-1.2l13.662-11.751a2.25,2.25,0,0,1,2.36-.339,2.237,2.237,0,0,1,.671,3.625Zm0,0" transform="translate(0 -268.395)"/>
      <path id="Path_1018254" data-name="Path 1018254" d="M99.768,14.727h1.27V36.3a1.269,1.269,0,0,0,1.27,1.27h32.5a1.27,1.27,0,0,0,1.27-1.27V14.727h1.27a1.27,1.27,0,0,0,.691-2.335L119.248.205a1.271,1.271,0,0,0-1.382,0L99.077,12.393a1.27,1.27,0,0,0,.691,2.335Zm3.809,19.526a5.141,5.141,0,0,1,5.135-5.135h3.908a5.077,5.077,0,0,1,2.077.437,4.691,4.691,0,0,0-2.762,4.27v1.207h-8.359v-.779Zm19.238-7,0,.007h0Zm6.093-2.426a2.119,2.119,0,1,1-4.238,0v-.616a2.119,2.119,0,0,1,4.238,0Zm-8.632,2.6a1.719,1.719,0,0,1-3.439,0v-.618a1.719,1.719,0,1,1,3.439,0Zm-7.339-3.119a2.272,2.272,0,0,1-4.543,0v-.644a2.272,2.272,0,0,1,4.543,0Zm6.086,10.725h-4.549V33.825a2.147,2.147,0,0,1,2.145-2.145h3.874a2.147,2.147,0,0,1,2.145,2.145v1.207Zm14.514,0h-8.361V33.825a4.684,4.684,0,0,0-2.167-3.947,4.847,4.847,0,0,1,1.93-.4h3.739a4.865,4.865,0,0,1,4.859,4.859Zm0-6.262a7.387,7.387,0,0,0-2.771-1.524,4.628,4.628,0,0,0,.68-2.421v-.616a4.658,4.658,0,1,0-9.315,0v.29a4.251,4.251,0,0,0-6.655-.626v-.208a4.811,4.811,0,1,0-9.621,0v.644a4.778,4.778,0,0,0,.746,2.569,7.67,7.67,0,0,0-3.025,1.68V14.727h29.961ZM118.557,2.783l14.5,9.4h-29Zm0,0" transform="translate(-85.557 0)"/>
      <path id="Path_1018255" data-name="Path 1018255" d="M218.1,413.6a1.271,1.271,0,1,0,.9.372A1.279,1.279,0,0,0,218.1,413.6Zm0,0" transform="translate(-188.865 -361.09)"/>
    </g>
  </g>
</svg>
