<svg xmlns="http://www.w3.org/2000/svg" width="150" height="150" viewBox="0 0 150 150">
  <g id="img16" transform="translate(-383.746 -8400)">
    <circle id="Ellipse_13609" data-name="Ellipse 13609" cx="75" cy="75" r="75" transform="translate(383.746 8400)" fill="#fff"/>
    <g id="Group_1200287" data-name="Group 1200287" transform="translate(415.705 8431.959)">
      <path id="Path_1027553" data-name="Path 1027553" d="M23.08,38.053a2.337,2.337,0,0,0,.262,1.829l1.747,2.893a2.489,2.489,0,0,0,3.306.869l.51-.282a10.612,10.612,0,0,0,2.106,1.176v.473a2.426,2.426,0,0,0,2.447,2.4h3.5a2.426,2.426,0,0,0,2.441-2.4V44.54A10.641,10.641,0,0,0,41.5,43.364l.51.282a2.489,2.489,0,0,0,3.3-.868l1.749-2.894a2.342,2.342,0,0,0,.26-1.829,2.425,2.425,0,0,0-1.166-1.482l-.446-.245a9.693,9.693,0,0,0,0-2.243l.446-.245a2.425,2.425,0,0,0,1.166-1.482,2.337,2.337,0,0,0-.262-1.829l-1.741-2.893a2.487,2.487,0,0,0-3.306-.869l-.51.282A10.612,10.612,0,0,0,39.4,25.871V25.4A2.426,2.426,0,0,0,36.954,23h-3.5a2.426,2.426,0,0,0-2.441,2.4v.473a10.642,10.642,0,0,0-2.106,1.176l-.51-.282a2.489,2.489,0,0,0-3.3.868l-1.749,2.894a2.342,2.342,0,0,0-.26,1.829,2.425,2.425,0,0,0,1.166,1.482l.446.245a9.694,9.694,0,0,0,0,2.243l-.446.245a2.425,2.425,0,0,0-1.172,1.481Zm4.26-2.848a6.806,6.806,0,0,1,.073-1,2.349,2.349,0,0,0-1.221-2.392l-.34-.189,1.433-2.375.439.243a2.527,2.527,0,0,0,2.7-.2,7.878,7.878,0,0,1,1.74-.966A2.423,2.423,0,0,0,33.728,26.1v-.384h2.965V26.1a2.423,2.423,0,0,0,1.561,2.235,7.866,7.866,0,0,1,1.741.967,2.52,2.52,0,0,0,2.7.194l.439-.243,1.429,2.375-.339.187A2.35,2.35,0,0,0,43,34.209a6.9,6.9,0,0,1,.068,1,6.806,6.806,0,0,1-.073,1A2.349,2.349,0,0,0,44.219,38.6l.34.189-1.433,2.375-.439-.243a2.529,2.529,0,0,0-2.7.2,7.878,7.878,0,0,1-1.74.966,2.423,2.423,0,0,0-1.561,2.235V44.7H33.723v-.384a2.423,2.423,0,0,0-1.561-2.235,7.866,7.866,0,0,1-1.741-.967,2.528,2.528,0,0,0-2.7-.194l-.439.243-1.433-2.375.339-.187a2.35,2.35,0,0,0,1.221-2.4,6.9,6.9,0,0,1-.068-1Z" transform="translate(7.835 7.836)" fill="#4a4e3c"/>
      <path id="Path_1027554" data-name="Path 1027554" d="M33.425,38.849A5.425,5.425,0,1,0,28,33.425,5.425,5.425,0,0,0,33.425,38.849Zm0-8.137a2.712,2.712,0,1,1-2.712,2.712A2.712,2.712,0,0,1,33.425,30.712Z" transform="translate(9.616 9.616)" fill="#4a4e3c"/>
      <path id="Path_1027555" data-name="Path 1027555" d="M34.849,22.7A10.849,10.849,0,1,0,24,11.849,10.849,10.849,0,0,0,34.849,22.7Zm0-18.986a8.137,8.137,0,1,1-8.137,8.137,8.137,8.137,0,0,1,8.137-8.137Z" transform="translate(8.192)" fill="#4a4e3c"/>
      <path id="Path_1027556" data-name="Path 1027556" d="M68.7,34.849A10.849,10.849,0,1,0,57.849,45.7,10.849,10.849,0,0,0,68.7,34.849ZM57.849,42.986a8.137,8.137,0,1,1,8.137-8.137,8.137,8.137,0,0,1-8.137,8.137Z" transform="translate(16.383 8.192)" fill="#4a4e3c"/>
      <path id="Path_1027557" data-name="Path 1027557" d="M11.849,45.7A10.849,10.849,0,1,0,1,34.849,10.849,10.849,0,0,0,11.849,45.7Zm0-18.986a8.137,8.137,0,1,1-8.137,8.137,8.137,8.137,0,0,1,8.137-8.137Z" transform="translate(0 8.192)" fill="#4a4e3c"/>
      <path id="Path_1027558" data-name="Path 1027558" d="M45.7,57.849A10.849,10.849,0,1,0,34.849,68.7,10.849,10.849,0,0,0,45.7,57.849Zm-18.986,0a8.137,8.137,0,1,1,8.137,8.137,8.137,8.137,0,0,1-8.137-8.137Z" transform="translate(8.192 16.383)" fill="#4a4e3c"/>
      <path id="Path_1027559" data-name="Path 1027559" d="M8.712,17.49a6.789,6.789,0,0,1,6.781-6.781h5.425l-2.17,1.627,1.627,2.17L25.8,10.438a1.356,1.356,0,0,0,0-2.17L20.375,4.2,18.748,6.37,20.918,8H15.493A9.5,9.5,0,0,0,6,17.49v9.493H8.712Z" transform="translate(1.781 1.14)" fill="#4a4e3c"/>
      <path id="Path_1027560" data-name="Path 1027560" d="M60.63,16.493v4.068L59,18.392l-2.17,1.627L60.9,25.444a1.356,1.356,0,0,0,2.17,0l4.068-5.425-2.17-1.627-1.627,2.17V16.493A9.5,9.5,0,0,0,53.849,7H43V9.712H53.849A6.789,6.789,0,0,1,60.63,16.493Z" transform="translate(14.959 2.137)" fill="#4a4e3c"/>
      <path id="Path_1027561" data-name="Path 1027561" d="M48.967,65.784l1.627-2.17-2.17-1.627h5.425a9.5,9.5,0,0,0,9.493-9.493V43H60.63v9.493a6.789,6.789,0,0,1-6.781,6.781H48.425l2.17-1.627-1.627-2.17-5.425,4.068a1.356,1.356,0,0,0,0,2.17Z" transform="translate(14.959 14.959)" fill="#4a4e3c"/>
      <path id="Path_1027562" data-name="Path 1027562" d="M11.337,50.587l2.17-1.627L9.438,43.535a1.4,1.4,0,0,0-2.17,0L3.2,48.959l2.17,1.627L7,48.417v4.068a9.5,9.5,0,0,0,9.493,9.493H27.34V59.266H16.49A6.789,6.789,0,0,1,9.71,52.485V48.417Z" transform="translate(0.784 14.967)" fill="#4a4e3c"/>
      <path id="Path_1027563" data-name="Path 1027563" d="M31,8h2.712v2.712H31Z" transform="translate(10.685 2.493)" fill="#4a4e3c"/>
      <path id="Path_1027564" data-name="Path 1027564" d="M52,31h2.712v2.712H52Z" transform="translate(18.164 10.685)" fill="#4a4e3c"/>
      <path id="Path_1027565" data-name="Path 1027565" d="M56,31h2.712v2.712H56Z" transform="translate(19.589 10.685)" fill="#4a4e3c"/>
      <path id="Path_1027566" data-name="Path 1027566" d="M29,56h2.712v2.712H29Z" transform="translate(9.973 19.589)" fill="#4a4e3c"/>
      <path id="Path_1027567" data-name="Path 1027567" d="M33,56h2.712v2.712H33Z" transform="translate(11.397 19.589)" fill="#4a4e3c"/>
      <path id="Path_1027568" data-name="Path 1027568" d="M31,52h2.712v2.712H31Z" transform="translate(10.685 18.164)" fill="#4a4e3c"/>
      <path id="Path_1027569" data-name="Path 1027569" d="M6,33H8.712v2.712H6Z" transform="translate(1.781 11.397)" fill="#4a4e3c"/>
      <path id="Path_1027570" data-name="Path 1027570" d="M10,33h2.712v2.712H10Z" transform="translate(3.205 11.397)" fill="#4a4e3c"/>
      <path id="Path_1027571" data-name="Path 1027571" d="M6,29H8.712v2.712H6Z" transform="translate(1.781 9.973)" fill="#4a4e3c"/>
      <path id="Path_1027572" data-name="Path 1027572" d="M10,29h2.712v2.712H10Z" transform="translate(3.205 9.973)" fill="#4a4e3c"/>
    </g>
  </g>
</svg>
