<svg xmlns="http://www.w3.org/2000/svg" width="128" height="128" viewBox="0 0 128 128">
  <g id="img18" transform="translate(-72.746 -7992)">
    <g id="Ellipse_13628" data-name="Ellipse 13628" transform="translate(72.746 7992)" fill="#fef6ff" stroke="#9c3413" stroke-width="6">
      <circle cx="64" cy="64" r="64" stroke="none"/>
      <circle cx="64" cy="64" r="61" fill="none"/>
    </g>
    <g id="Group_1198896" data-name="Group 1198896" transform="translate(60.333 8019.417)">
      <g id="Group_1198894" data-name="Group 1198894" transform="translate(47.541 1.072)">
        <path id="Path_1024994" data-name="Path 1024994" d="M164.234,133.935H121.505a2.887,2.887,0,0,1-2.887-2.887V75.038a2.887,2.887,0,0,1,2.887-2.887h42.729a2.887,2.887,0,0,1,2.887,2.887v56.01A2.887,2.887,0,0,1,164.234,133.935Z" transform="translate(-109.379 -62.912)" fill="#8ac9fe"/>
        <path id="Path_1024995" data-name="Path 1024995" d="M131.909,101.609H89.18a2.887,2.887,0,0,1-2.887-2.887V42.712a2.887,2.887,0,0,1,2.887-2.887h42.729a2.887,2.887,0,0,1,2.887,2.887v56.01A2.887,2.887,0,0,1,131.909,101.609Z" transform="translate(-81.674 -35.206)" fill="#b3dafe"/>
        <path id="Path_1024996" data-name="Path 1024996" d="M99.584,69.284H56.855A2.887,2.887,0,0,1,53.968,66.4V10.387A2.887,2.887,0,0,1,56.855,7.5H99.584a2.887,2.887,0,0,1,2.887,2.887V66.4A2.887,2.887,0,0,1,99.584,69.284Z" transform="translate(-53.968 -7.5)" fill="#eaf6ff"/>
        <path id="Path_1024997" data-name="Path 1024997" d="M348.936,7.5h-4.042a2.887,2.887,0,0,1,2.887,2.887V66.4a2.887,2.887,0,0,1-2.887,2.887h4.042a2.887,2.887,0,0,0,2.887-2.887V10.387A2.887,2.887,0,0,0,348.936,7.5Z" transform="translate(-303.32 -7.5)" fill="#d8ecfe"/>
        <g id="Group_1198891" data-name="Group 1198891" transform="translate(4.619 13.858)">
          <circle id="Ellipse_16230" data-name="Ellipse 16230" cx="2.97" cy="2.97" r="2.97" transform="translate(1.904)" fill="#fed2a4"/>
          <path id="Path_1024998" data-name="Path 1024998" d="M91.167,146.037a4.873,4.873,0,0,0-4.874,4.873v1.625a1.421,1.421,0,0,0,1.421,1.421h6.9a1.421,1.421,0,0,0,1.421-1.421V150.91A4.873,4.873,0,0,0,91.167,146.037Z" transform="translate(-86.293 -140.098)" fill="#fd8087"/>
          <path id="Path_1024999" data-name="Path 1024999" d="M112.976,146.037a4.88,4.88,0,0,0-1.237.159,4.874,4.874,0,0,1,3.636,4.714v1.625a1.421,1.421,0,0,1-1.421,1.421h2.475a1.421,1.421,0,0,0,1.421-1.421V150.91A4.873,4.873,0,0,0,112.976,146.037Z" transform="translate(-108.103 -140.098)" fill="#fe646f"/>
        </g>
        <g id="Group_1198893" data-name="Group 1198893" transform="translate(12.559 33.779)">
          <circle id="Ellipse_16231" data-name="Ellipse 16231" cx="11.693" cy="11.693" r="11.693" fill="#00f2a6"/>
          <path id="Path_1025000" data-name="Path 1025000" d="M168.842,262.982a11.691,11.691,0,0,1-17.9,14.317,11.692,11.692,0,1,0,17.9-14.317Z" transform="translate(-149.642 -260.252)" fill="#0ed290"/>
          <g id="Group_1198892" data-name="Group 1198892" transform="translate(4.994 7.205)">
            <path id="Path_1025001" data-name="Path 1025001" d="M180.741,297.216l1.633,1.633,3.879-3.879a2.31,2.31,0,0,1,3.266,3.266l-5.512,5.512a2.31,2.31,0,0,1-3.266,0l-3.266-3.266a2.31,2.31,0,0,1,3.266-3.266Z" transform="translate(-176.798 -294.294)" fill="#eaf6ff"/>
          </g>
        </g>
        <path id="Path_1025002" data-name="Path 1025002" d="M124.4,44.445H87.448a1.155,1.155,0,0,1-1.155-1.155v-2.31a1.155,1.155,0,0,1,1.155-1.155H124.4a1.155,1.155,0,0,1,1.155,1.155v2.31A1.155,1.155,0,0,1,124.4,44.445Z" transform="translate(-81.674 -35.207)" fill="#60b7ff"/>
        <path id="Path_1025003" data-name="Path 1025003" d="M330.465,39.825h-3.753a1.155,1.155,0,0,1,1.155,1.155v2.31a1.155,1.155,0,0,1-1.155,1.155h3.753a1.155,1.155,0,0,0,1.155-1.155V40.98a1.155,1.155,0,0,0-1.155-1.155Z" transform="translate(-287.736 -35.206)" fill="#26a6fe"/>
      </g>
      <g id="Group_1198895" data-name="Group 1198895" transform="translate(46.47 0)">
        <path id="Path_1025004" data-name="Path 1025004" d="M105.283,61.427a1.072,1.072,0,0,0,1.072-1.072V13.2A3.963,3.963,0,0,0,102.4,9.239h-.66v-.66a3.964,3.964,0,0,0-3.96-3.958h-.66V3.958A3.963,3.963,0,0,0,93.158,0H50.428A3.963,3.963,0,0,0,46.47,3.958V49.686a1.072,1.072,0,0,0,2.144,0V3.958a1.817,1.817,0,0,1,1.815-1.815H93.158a1.817,1.817,0,0,1,1.815,1.815V59.969a1.817,1.817,0,0,1-1.815,1.815H50.428a1.817,1.817,0,0,1-1.815-1.815V54.688a1.072,1.072,0,1,0-2.144,0v5.282a3.963,3.963,0,0,0,3.958,3.958h.66v.66a3.964,3.964,0,0,0,3.96,3.958h.66v.662a3.963,3.963,0,0,0,3.958,3.958H102.4a3.963,3.963,0,0,0,3.958-3.958V65.357a1.072,1.072,0,0,0-2.144,0v3.851a1.817,1.817,0,0,1-1.815,1.815H59.667a1.817,1.817,0,0,1-1.815-1.815v-.662H97.777a3.964,3.964,0,0,0,3.96-3.958V24.36a1.072,1.072,0,1,0-2.144,0V64.588A1.818,1.818,0,0,1,97.777,66.4H55.048a1.818,1.818,0,0,1-1.816-1.815v-.66H93.158a3.963,3.963,0,0,0,3.958-3.958V6.764h.66a1.818,1.818,0,0,1,1.816,1.815v10.78a1.072,1.072,0,1,0,2.144,0V11.382h.66a1.817,1.817,0,0,1,1.815,1.815V60.355a1.072,1.072,0,0,0,1.072,1.072Z" transform="translate(-46.47 0)"/>
        <path id="Path_1025005" data-name="Path 1025005" d="M78.792,110.484a2.5,2.5,0,0,0,2.493,2.493h6.9a2.5,2.5,0,0,0,2.493-2.493V108.86a5.947,5.947,0,0,0-2.951-5.133,4.041,4.041,0,1,0-5.99,0,5.947,5.947,0,0,0-2.95,5.133ZM84.738,99.12a1.9,1.9,0,1,1-1.9,1.9A1.9,1.9,0,0,1,84.738,99.12Zm-3.8,9.74a3.8,3.8,0,0,1,7.6,0v1.625a.35.35,0,0,1-.35.35h-6.9a.35.35,0,0,1-.35-.35Z" transform="translate(-74.173 -83.118)"/>
        <path id="Path_1025006" data-name="Path 1025006" d="M245.537,96.976H227.348a1.072,1.072,0,1,0,0,2.144h18.189a1.072,1.072,0,1,0,0-2.144Z" transform="translate(-200.581 -83.118)"/>
        <path id="Path_1025007" data-name="Path 1025007" d="M245.537,129.3H227.348a1.072,1.072,0,0,0,0,2.144h18.189a1.072,1.072,0,0,0,0-2.144Z" transform="translate(-200.581 -110.823)"/>
        <path id="Path_1025008" data-name="Path 1025008" d="M246.608,162.7a1.072,1.072,0,0,0-1.072-1.072H227.348a1.072,1.072,0,0,0,0,2.144h18.189A1.072,1.072,0,0,0,246.608,162.7Z" transform="translate(-200.581 -138.529)"/>
        <path id="Path_1025009" data-name="Path 1025009" d="M236.443,196.095a1.072,1.072,0,1,0,0-2.144h-9.094a1.072,1.072,0,0,0,0,2.144Z" transform="translate(-200.582 -166.235)"/>
        <path id="Path_1025010" data-name="Path 1025010" d="M134.352,249.143a12.765,12.765,0,1,0,12.765-12.765A12.779,12.779,0,0,0,134.352,249.143Zm12.765-10.621A10.621,10.621,0,1,1,136.5,249.143,10.633,10.633,0,0,1,147.117,238.522Z" transform="translate(-121.793 -202.599)"/>
        <path id="Path_1025011" data-name="Path 1025011" d="M170.3,294.81l3.266,3.266a3.381,3.381,0,0,0,4.782,0l5.512-5.512a3.381,3.381,0,1,0-4.782-4.782l-3.121,3.121-.875-.875a3.382,3.382,0,0,0-4.782,4.782Zm1.516-3.266a1.238,1.238,0,0,1,1.751,0l1.633,1.633a1.072,1.072,0,0,0,1.516,0l3.879-3.879a1.238,1.238,0,0,1,1.751,1.751l-5.512,5.512a1.238,1.238,0,0,1-1.751,0l-3.266-3.266A1.24,1.24,0,0,1,171.813,291.544Z" transform="translate(-151.755 -245.809)"/>
        <path id="Path_1025012" data-name="Path 1025012" d="M188.784,111.9V98.047a1.072,1.072,0,1,0-2.144,0V111.9a1.072,1.072,0,1,0,2.144,0Z" transform="translate(-166.609 -83.117)"/>
        <path id="Path_1025013" data-name="Path 1025013" d="M120.2,34.552a2.229,2.229,0,0,0-2.227-2.227H81.019a2.229,2.229,0,0,0-2.227,2.227v2.31a2.229,2.229,0,0,0,2.227,2.227h36.955a2.229,2.229,0,0,0,2.227-2.227v-2.31Zm-2.144,2.31a.083.083,0,0,1-.083.083H81.019a.083.083,0,0,1-.083-.083v-2.31a.083.083,0,0,1,.083-.083h36.955a.083.083,0,0,1,.083.083v2.31Z" transform="translate(-74.173 -27.706)"/>
      </g>
    </g>
  </g>
</svg>
