<svg xmlns="http://www.w3.org/2000/svg" width="128" height="128" viewBox="0 0 128 128">
  <g id="img10" transform="translate(-383.746 -8400)">
    <path id="Path_997401" data-name="Path 997401" d="M64,0A64,64,0,1,1,0,64,64,64,0,0,1,64,0Z" transform="translate(383.746 8400)" fill="#ff945d"/>
    <g id="Group_1200283" data-name="Group 1200283" transform="translate(415.622 8431.895)">
      <path id="Path_1027516" data-name="Path 1027516" d="M247.733,58.795h9.929a1.569,1.569,0,0,0,1.568-1.568V47.256a1.569,1.569,0,0,0-1.568-1.568h-9.929a1.569,1.569,0,0,0-1.568,1.568v2.359a.941.941,0,1,0,1.881,0V47.569h9.3v9.344h-9.3V54.141a.941.941,0,1,0-1.881,0v3.087A1.569,1.569,0,0,0,247.733,58.795Z" transform="translate(-215.273 -39.958)" fill="#4a4e3c"/>
      <path id="Path_1027517" data-name="Path 1027517" d="M112.424,124.956h12.814a.941.941,0,1,0,0-1.881H112.424a.941.941,0,1,0,0,1.881Z" transform="translate(-97.482 -107.64)" fill="#4a4e3c"/>
      <path id="Path_1027518" data-name="Path 1027518" d="M186.669,187.42a.94.94,0,0,0-.941-.941H172.8a.941.941,0,0,0,0,1.881h12.93A.941.941,0,0,0,186.669,187.42Z" transform="translate(-150.285 -163.092)" fill="#4a4e3c"/>
      <path id="Path_1027519" data-name="Path 1027519" d="M112.424,92.323h12.814a.941.941,0,1,0,0-1.881H112.424a.941.941,0,1,0,0,1.881Z" transform="translate(-97.482 -79.099)" fill="#4a4e3c"/>
      <path id="Path_1027520" data-name="Path 1027520" d="M112.424,59.69h12.814a.941.941,0,1,0,0-1.881H112.424a.941.941,0,1,0,0,1.881Z" transform="translate(-97.482 -50.559)" fill="#4a4e3c"/>
      <path id="Path_1027521" data-name="Path 1027521" d="M112.424,271.342h19.3a.941.941,0,1,0,0-1.881h-19.3a.941.941,0,1,0,0,1.881Z" transform="translate(-97.482 -235.667)" fill="#4a4e3c"/>
      <path id="Path_1027522" data-name="Path 1027522" d="M112.424,229.385h15.26a.941.941,0,1,0,0-1.881h-15.26a.941.941,0,1,0,0,1.881Z" transform="translate(-97.482 -198.972)" fill="#4a4e3c"/>
      <path id="Path_1027523" data-name="Path 1027523" d="M275.407,227.5h-8.795a.941.941,0,1,0,0,1.881h8.795a.941.941,0,1,0,0-1.881Z" transform="translate(-232.333 -198.972)" fill="#4a4e3c"/>
      <path id="Path_1027524" data-name="Path 1027524" d="M63.136,58.183,63.1,58.15,57.313,53a12.272,12.272,0,0,0,1.506-5.479.941.941,0,1,0-1.88-.067,10.414,10.414,0,1,1-.595-3.886.941.941,0,0,0,1.772-.63,12.313,12.313,0,0,0-10.083-8.083V1.568A1.569,1.569,0,0,0,46.465,0H11.491A1.569,1.569,0,0,0,9.923,1.568v3.4H6.54A1.569,1.569,0,0,0,4.973,6.537v3.4H1.59A1.569,1.569,0,0,0,.022,11.507V58.43A1.569,1.569,0,0,0,1.59,60H31.54a1.569,1.569,0,0,0,1.568-1.568v-3.4h4.083a12.248,12.248,0,0,0,15.176,2.89L58.2,63.142a3.5,3.5,0,1,0,4.937-4.959ZM11.8,1.881H46.152V34.771a12.292,12.292,0,0,0-9.8,5.455H32.531a.941.941,0,0,0,0,1.881h2.785q-.189.43-.347.878a12.313,12.313,0,0,0-.694,4.089c0,.372.018.74.05,1.1H21.24a6.777,6.777,0,0,0,2.1-4.906V42.107h5.117a.941.941,0,1,0,0-1.881H22.4a.94.94,0,0,0-.941.941v2.1a4.9,4.9,0,0,1-4.884,4.906H11.8ZM6.854,53.147V40.289a.941.941,0,0,0-1.881,0V53.46A1.569,1.569,0,0,0,6.54,55.028H31.227v3.089H1.9v-46.3h3.07V36.313a.941.941,0,0,0,1.881,0V6.851h3.07V49.118a.94.94,0,0,0,.941.941H34.642a12.251,12.251,0,0,0,1.236,3.088H6.854ZM61.9,61.882a1.708,1.708,0,0,1-2.428-.125L54,56.857a12.461,12.461,0,0,0,2.271-2.265l5.558,4.945a1.666,1.666,0,0,1,.069,2.344Z" fill="#4a4e3c"/>
      <path id="Path_1027525" data-name="Path 1027525" d="M315.11,311.233a8.039,8.039,0,1,0,8.018,8.04A8.064,8.064,0,0,0,315.11,311.233Zm0,14.2a6.158,6.158,0,1,1,6.136-6.158A6.154,6.154,0,0,1,315.11,325.43Z" transform="translate(-268.559 -272.199)" fill="#4a4e3c"/>
    </g>
  </g>
</svg>
