<svg xmlns="http://www.w3.org/2000/svg" width="150" height="150" viewBox="0 0 150 150">
  <g id="img19" transform="translate(-383.746 -8400)">
    <circle id="Ellipse_13609" data-name="Ellipse 13609" cx="75" cy="75" r="75" transform="translate(383.746 8400)" fill="#b9c296"/>
    <g id="Group_1199329" data-name="Group 1199329" transform="translate(420.654 8437.043)">
      <path id="Path_1025851" data-name="Path 1025851" d="M72.79,1H3.393A2.4,2.4,0,0,0,1,3.393v69.4a2.4,2.4,0,0,0,2.393,2.393h69.4a2.4,2.4,0,0,0,2.393-2.393V3.393A2.4,2.4,0,0,0,72.79,1Zm-33.5,71.79V59.629H36.9V72.79H3.393v-33.5H17.751V36.9H3.393V3.393H36.9V17.751h2.393V3.393h33.5V36.9H58.432v2.393H72.792v33.5Z" fill="#4a4e3c"/>
      <path id="Path_1025852" data-name="Path 1025852" d="M53.786,43.318a1.2,1.2,0,0,0-1.624,0L44.384,50.5a1.2,1.2,0,0,0,.812,2.075h1.2v8.376a1.2,1.2,0,0,0,1.2,1.2H58.358a1.2,1.2,0,0,0,1.2-1.2V52.572h1.2a1.2,1.2,0,0,0,.812-2.075Zm-.214,16.433h-1.2V57.358h1.2Zm3.59,0h-1.2v-3.59a1.2,1.2,0,0,0-1.2-1.2h-3.59a1.2,1.2,0,0,0-1.2,1.2v3.59h-1.2V52.572h8.376Zm-8.9-9.572,4.717-4.354,4.717,4.354Z" transform="translate(8.45 8.253)" fill="#4a4e3c"/>
      <rect id="Rectangle_462650" data-name="Rectangle 462650" width="5.983" height="2.393" transform="translate(35.1 30.913)" fill="#4a4e3c"/>
      <rect id="Rectangle_462651" data-name="Rectangle 462651" width="5.983" height="2.393" transform="translate(35.1 34.502)" fill="#4a4e3c"/>
      <path id="Path_1025853" data-name="Path 1025853" d="M44.327,31.412l-3.879-.97V24.2a1.2,1.2,0,0,0-1.2-1.2H28.483a1.2,1.2,0,0,0-1.2,1.2v6.245l-3.879.97a1.2,1.2,0,0,0-.907,1.16v9.572a1.2,1.2,0,0,0,1.2,1.2H44.037a1.2,1.2,0,0,0,1.2-1.2V32.572a1.2,1.2,0,0,0-.906-1.16ZM27.286,40.948H24.893V33.507l2.393-.6Zm7.179,0h-1.2V38.555h1.2Zm3.59,0h-1.2v-3.59a1.2,1.2,0,0,0-1.2-1.2h-3.59a1.2,1.2,0,0,0-1.2,1.2v3.59h-1.2V25.393h8.376Zm4.786,0H40.448v-8.04l2.393.6Z" transform="translate(4.225 4.323)" fill="#4a4e3c"/>
      <path id="Path_1025854" data-name="Path 1025854" d="M14.786,43.318a1.2,1.2,0,0,0-1.624,0L5.384,50.5A1.2,1.2,0,0,0,6.2,52.572h1.2v8.376a1.2,1.2,0,0,0,1.2,1.2H19.358a1.2,1.2,0,0,0,1.2-1.2V52.572h1.2a1.2,1.2,0,0,0,.812-2.075Zm-.214,16.433h-1.2V57.358h1.2Zm3.59,0h-1.2v-3.59a1.2,1.2,0,0,0-1.2-1.2h-3.59a1.2,1.2,0,0,0-1.2,1.2v3.59h-1.2V52.572h8.376Zm-8.9-9.572,4.717-4.354,4.717,4.354Z" transform="translate(0.786 8.253)" fill="#4a4e3c"/>
      <path id="Path_1025855" data-name="Path 1025855" d="M45.2,14.572h1.2v8.376a1.2,1.2,0,0,0,1.2,1.2H58.358a1.2,1.2,0,0,0,1.2-1.2V14.572h1.2a1.2,1.2,0,0,0,.812-2.075L53.786,5.318a1.2,1.2,0,0,0-1.624,0L44.384,12.5a1.2,1.2,0,0,0,.812,2.075Zm8.376,7.179h-1.2V19.358h1.2Zm3.59,0h-1.2v-3.59a1.2,1.2,0,0,0-1.2-1.2h-3.59a1.2,1.2,0,0,0-1.2,1.2v3.59h-1.2V14.572h8.376ZM52.974,7.825l4.717,4.354H48.257Z" transform="translate(8.45 0.786)" fill="#4a4e3c"/>
      <path id="Path_1025856" data-name="Path 1025856" d="M20.555,22.947V14.572h1.2a1.2,1.2,0,0,0,.812-2.075L14.786,5.318a1.2,1.2,0,0,0-1.624,0L5.384,12.5A1.2,1.2,0,0,0,6.2,14.572h1.2v8.376a1.2,1.2,0,0,0,1.2,1.2H19.358a1.2,1.2,0,0,0,1.2-1.2Zm-5.983-1.2h-1.2V19.358h1.2Zm3.59,0h-1.2v-3.59a1.2,1.2,0,0,0-1.2-1.2h-3.59a1.2,1.2,0,0,0-1.2,1.2v3.59h-1.2V14.572h8.376Zm-8.9-9.572,4.717-4.354,4.717,4.354Z" transform="translate(0.786 0.786)" fill="#4a4e3c"/>
      <path id="Path_1025857" data-name="Path 1025857" d="M35.144,16.5A19.144,19.144,0,1,0,54.288,35.644,19.144,19.144,0,0,0,35.144,16.5Zm0,35.9A16.751,16.751,0,1,1,51.9,35.644,16.751,16.751,0,0,1,35.144,52.4Z" transform="translate(2.948 3.046)" fill="#4a4e3c"/>
    </g>
  </g>
</svg>
