<svg xmlns="http://www.w3.org/2000/svg" width="84" height="84" viewBox="0 0 84 84">
  <g id="img1" transform="translate(-215 -573)">
    <rect id="Rectangle_461338" data-name="Rectangle 461338" width="84" height="84" rx="10" transform="translate(215 573)" fill="#b9c296"/>
    <g id="Group_1196498" data-name="Group 1196498" transform="translate(230.314 576.979)">
      <g id="Group_1196495" data-name="Group 1196495" transform="translate(0.782 13.995)">
        <g id="Group_1196494" data-name="Group 1196494" transform="translate(0 0)">
          <g id="Group_1196493" data-name="Group 1196493">
            <circle id="Ellipse_15152" data-name="Ellipse 15152" cx="22.558" cy="22.558" r="22.558" transform="translate(6.691 1.968)" fill="#feb237"/>
            <g id="Group_1196480" data-name="Group 1196480" transform="translate(6.691 4.484)">
              <path id="Path_1018495" data-name="Path 1018495" d="M78.488,166.541a13.452,13.452,0,0,0-5.24,1.055,22.581,22.581,0,0,0,6.845,25.839,13.495,13.495,0,0,0-1.605-26.894Z" transform="translate(-71.684 -155.824)" fill="#fe9901"/>
              <path id="Path_1018496" data-name="Path 1018496" d="M339.819,364.384a8.806,8.806,0,0,0-14.155,9.033A22.562,22.562,0,0,0,339.819,364.384Z" transform="translate(-298.92 -331.205)" fill="#fe9901"/>
              <path id="Path_1018497" data-name="Path 1018497" d="M342.406,75.336a22.64,22.64,0,0,0-10.567-11.609,8.806,8.806,0,1,0,10.567,11.609Z" transform="translate(-298.92 -63.727)" fill="#fe9901"/>
            </g>
            <circle id="Ellipse_15153" data-name="Ellipse 15153" cx="18.636" cy="18.636" r="18.636" transform="translate(10.613 5.891)" fill="#fde784"/>
            <path id="Path_1018498" data-name="Path 1018498" d="M112.2,166.541c-.129,0-.258,0-.386.006a18.644,18.644,0,0,0,6.725,25.4,13.5,13.5,0,0,0-6.339-25.41Z" transform="translate(-98.704 -151.34)" fill="#ffd15b"/>
            <path id="Path_1018499" data-name="Path 1018499" d="M270.174,77.232a18.869,18.869,0,0,0-2.085.116,18.514,18.514,0,0,1,7.256,2.391,8.8,8.8,0,0,0,7.52,13.384q.39,0,.772-.034a.831.831,0,0,1,.892.742,18.642,18.642,0,0,1-16.44,20.556,18.869,18.869,0,0,0,2.085.116,18.635,18.635,0,1,0,0-37.27Z" transform="translate(-240.925 -71.34)" fill="#ffd15b"/>
            <g id="Group_1196492" data-name="Group 1196492">
              <g id="Group_1196488" data-name="Group 1196488" transform="translate(33.134)">
                <g id="Group_1196484" data-name="Group 1196484">
                  <g id="Group_1196483" data-name="Group 1196483">
                    <circle id="Ellipse_15154" data-name="Ellipse 15154" cx="8.806" cy="8.806" r="8.806" fill="#8dcafc"/>
                    <path id="Path_1018500" data-name="Path 1018500" d="M403.424,29.519a8.814,8.814,0,0,1-10.577,8.629,8.809,8.809,0,0,0,0-17.256,8.814,8.814,0,0,1,10.577,8.628Z" transform="translate(-385.812 -20.713)" fill="#64b9fc"/>
                    <g id="Group_1196482" data-name="Group 1196482" transform="translate(2.34 4.049)">
                      <path id="Path_1018501" data-name="Path 1018501" d="M360.742,133.255a8.8,8.8,0,0,1-12.931,0,4.168,4.168,0,0,1,4.1-3.406h4.735A4.168,4.168,0,0,1,360.742,133.255Z" transform="translate(-347.811 -122.521)" fill="#fd4755"/>
                      <path id="Path_1018502" data-name="Path 1018502" d="M401.1,133.248a4.167,4.167,0,0,0-1.822-2.73h0a4.147,4.147,0,0,0-2.275-.676h-3.966a4.169,4.169,0,0,1,4.052,3.194.981.981,0,0,1-.329.974,8.765,8.765,0,0,1-3.895,1.89,8.851,8.851,0,0,0,4.338-.2h0A8.8,8.8,0,0,0,401.1,133.248Zm-1.823-2.73h0Z" transform="translate(-388.17 -122.514)" fill="#e41f2d"/>
                      <g id="Group_1196481" data-name="Group 1196481" transform="translate(2.852)">
                        <path id="Path_1018503" data-name="Path 1018503" d="M378.788,68.155a3.614,3.614,0,0,1-3.614-3.614V62.9a3.339,3.339,0,0,1,3.339-3.339h.549A3.339,3.339,0,0,1,382.4,62.9v1.646a3.614,3.614,0,0,1-3.614,3.614Z" transform="translate(-375.174 -59.555)" fill="#fdb4ba"/>
                        <path id="Path_1018504" data-name="Path 1018504" d="M401.942,62.89v1.647a3.614,3.614,0,0,1-4.953,3.357,3.614,3.614,0,0,0,2.273-3.357V62.89a3.341,3.341,0,0,0-2.275-3.166,3.346,3.346,0,0,1,1.065-.173h.549A3.34,3.34,0,0,1,401.942,62.89Z" transform="translate(-394.714 -59.551)" fill="#fe99a0"/>
                      </g>
                    </g>
                  </g>
                </g>
                <g id="Group_1196487" data-name="Group 1196487" transform="translate(0 31.441)">
                  <circle id="Ellipse_15155" data-name="Ellipse 15155" cx="8.806" cy="8.806" r="8.806" fill="#a3e440"/>
                  <path id="Path_1018505" data-name="Path 1018505" d="M403.424,331.138a8.814,8.814,0,0,1-10.577,8.629,8.809,8.809,0,0,0,0-17.256,8.814,8.814,0,0,1,10.577,8.628Z" transform="translate(-385.812 -322.332)" fill="#8dc637"/>
                  <g id="Group_1196486" data-name="Group 1196486" transform="translate(2.34 4.049)">
                    <path id="Path_1018506" data-name="Path 1018506" d="M360.742,434.875a8.8,8.8,0,0,1-12.931,0,4.168,4.168,0,0,1,4.1-3.406h4.735A4.167,4.167,0,0,1,360.742,434.875Z" transform="translate(-347.811 -424.141)" fill="#f2fbff"/>
                    <path id="Path_1018507" data-name="Path 1018507" d="M401.1,434.868a4.167,4.167,0,0,0-1.822-2.73h0a4.147,4.147,0,0,0-2.275-.676h-3.966a4.169,4.169,0,0,1,4.052,3.194.981.981,0,0,1-.329.974,8.765,8.765,0,0,1-3.895,1.89,8.85,8.85,0,0,0,4.338-.2h0A8.8,8.8,0,0,0,401.1,434.868Zm-1.823-2.73h0Z" transform="translate(-388.17 -424.134)" fill="#c4e2ff"/>
                    <g id="Group_1196485" data-name="Group 1196485" transform="translate(2.852)">
                      <path id="Path_1018508" data-name="Path 1018508" d="M378.788,369.774a3.614,3.614,0,0,1-3.614-3.614v-1.646a3.339,3.339,0,0,1,3.339-3.339h.549a3.339,3.339,0,0,1,3.339,3.339v1.646a3.614,3.614,0,0,1-3.614,3.614Z" transform="translate(-375.174 -361.175)" fill="#fdb4ba"/>
                      <path id="Path_1018509" data-name="Path 1018509" d="M401.942,364.511v1.647a3.614,3.614,0,0,1-4.953,3.357,3.614,3.614,0,0,0,2.273-3.357v-1.647a3.341,3.341,0,0,0-2.275-3.166,3.346,3.346,0,0,1,1.065-.173h.549A3.34,3.34,0,0,1,401.942,364.511Z" transform="translate(-394.714 -361.172)" fill="#fe99a0"/>
                    </g>
                  </g>
                </g>
              </g>
              <g id="Group_1196491" data-name="Group 1196491" transform="translate(0 11.032)">
                <path id="Path_1018510" data-name="Path 1018510" d="M34.489,140.037a13.506,13.506,0,0,1-17.508,12.887,2.909,2.909,0,0,0-5.024-2.867,13.495,13.495,0,1,1,22.533-10.021Z" transform="translate(-7.5 -126.542)" fill="#ffd15b"/>
                <path id="Path_1018511" data-name="Path 1018511" d="M127.125,140.036a13.507,13.507,0,0,1-16.209,13.223,13.5,13.5,0,0,0,0-26.444,13.507,13.507,0,0,1,16.209,13.221Z" transform="translate(-100.136 -126.542)" fill="#feb237"/>
                <g id="Group_1196490" data-name="Group 1196490" transform="translate(3.586 6.204)">
                  <path id="Path_1018512" data-name="Path 1018512" d="M61.717,299.008a13.489,13.489,0,0,1-19.817,0,6.387,6.387,0,0,1,6.28-5.22h7.256A6.386,6.386,0,0,1,61.717,299.008Z" transform="translate(-41.9 -282.559)" fill="#31a7fb"/>
                  <path id="Path_1018513" data-name="Path 1018513" d="M123.564,299a6.386,6.386,0,0,0-2.793-4.184h0a6.355,6.355,0,0,0-3.487-1.036h-6.078a6.388,6.388,0,0,1,6.209,4.895,1.5,1.5,0,0,1-.5,1.493,13.43,13.43,0,0,1-5.968,2.9,13.563,13.563,0,0,0,6.648-.311h0A13.483,13.483,0,0,0,123.564,299Zm-2.793-4.184h0Z" transform="translate(-103.748 -282.546)" fill="#1785f8"/>
                  <g id="Group_1196489" data-name="Group 1196489" transform="translate(4.371)">
                    <path id="Path_1018514" data-name="Path 1018514" d="M89.369,199.245a5.538,5.538,0,0,1-5.538-5.538v-2.522a5.118,5.118,0,0,1,5.117-5.117h.841a5.118,5.118,0,0,1,5.117,5.117v2.522A5.538,5.538,0,0,1,89.369,199.245Z" transform="translate(-83.831 -186.066)" fill="#fdb4ba"/>
                    <path id="Path_1018515" data-name="Path 1018515" d="M124.853,191.178V193.7a5.538,5.538,0,0,1-5.538,5.538,5.483,5.483,0,0,1-2.051-.394,5.539,5.539,0,0,0,3.484-5.145v-2.523a5.12,5.12,0,0,0-3.485-4.852,5.127,5.127,0,0,1,1.632-.266h.842A5.118,5.118,0,0,1,124.853,191.178Z" transform="translate(-113.777 -186.061)" fill="#fe99a0"/>
                  </g>
                </g>
              </g>
            </g>
          </g>
        </g>
      </g>
      <g id="Group_1196497" data-name="Group 1196497" transform="translate(0 13.213)">
        <g id="Group_1196496" data-name="Group 1196496" transform="translate(0 0)">
          <path id="Path_1018516" data-name="Path 1018516" d="M53.371,38.521a23.4,23.4,0,0,0-2.545-10.6A9.584,9.584,0,0,0,36.014,15.956a23.4,23.4,0,0,0-5.983-.775A23.09,23.09,0,0,0,19.4,17.736a23.55,23.55,0,0,0-8.071,6.815A14.277,14.277,0,0,0,5.6,49.855a.782.782,0,0,0,.952-1.241,12.987,12.987,0,0,1-1.325-1.169,5.616,5.616,0,0,1,4.561-4.136,6.307,6.307,0,0,0,8.988,0,5.594,5.594,0,0,1,4.559,4.128A12.714,12.714,0,0,1,9.618,50.354a.782.782,0,1,0-.573,1.455,14.169,14.169,0,0,0,2.29.686,23.549,23.549,0,0,0,8.026,6.791,23.087,23.087,0,0,0,10.669,2.576,23.408,23.408,0,0,0,5.985-.775A9.583,9.583,0,0,0,50.826,49.124a23.4,23.4,0,0,0,2.545-10.6Zm-1.564,0a21.853,21.853,0,0,1-2.045,9.219,9.659,9.659,0,0,0-1.877-1.575,19.474,19.474,0,0,0,0-15.289A9.659,9.659,0,0,0,49.762,29.3a21.859,21.859,0,0,1,2.045,9.22ZM45.554,23.029a2.832,2.832,0,1,1-5.664,0V21.383a2.56,2.56,0,0,1,2.558-2.558H43a2.561,2.561,0,0,1,2.558,2.558ZM39.7,26.217a4.383,4.383,0,0,0,6.042,0,3.387,3.387,0,0,1,2.581,2.321,8.027,8.027,0,0,1-11.206.014A3.412,3.412,0,0,1,39.7,26.217ZM20.116,19.127a21.54,21.54,0,0,1,9.914-2.382,21.887,21.887,0,0,1,4.85.542,9.544,9.544,0,0,0-1.145,2.17,19.57,19.57,0,0,0-3.7-.353,19.306,19.306,0,0,0-13.372,5.34,14.31,14.31,0,0,0-2.382-.2q-.352,0-.7.017a21.982,21.982,0,0,1,6.541-5.135Zm-5.84,24.5a4.761,4.761,0,0,1-4.756-4.756V36.349a4.341,4.341,0,0,1,4.336-4.336H14.7a4.341,4.341,0,0,1,4.336,4.336v2.522A4.761,4.761,0,0,1,14.277,43.627ZM19.8,41.932a6.28,6.28,0,0,0,.793-3.061V36.349a5.906,5.906,0,0,0-5.9-5.9h-.841a5.906,5.906,0,0,0-5.9,5.9v2.522a6.28,6.28,0,0,0,.794,3.063,7.2,7.2,0,0,0-4.711,4.135A12.715,12.715,0,1,1,26.99,38.521a12.644,12.644,0,0,1-2.481,7.536A7.161,7.161,0,0,0,19.8,41.932Zm8.75-3.411A14.3,14.3,0,0,0,18.507,24.884a17.742,17.742,0,0,1,11.524-4.217,18.007,18.007,0,0,1,3.281.3,9.613,9.613,0,0,0-.161,1.279.782.782,0,0,0,1.561.089A8.023,8.023,0,1,1,49.44,27.18a4.965,4.965,0,0,0-2.725-2.317,4.368,4.368,0,0,0,.4-1.834V21.383A4.126,4.126,0,0,0,43,17.262h-.549a4.126,4.126,0,0,0-4.121,4.121v1.646a4.367,4.367,0,0,0,.4,1.836A5.014,5.014,0,0,0,36,27.19a8.154,8.154,0,0,1-.757-1.475.782.782,0,1,0-1.457.568A9.586,9.586,0,0,0,46.5,31.613a17.9,17.9,0,0,1,0,13.816A9.588,9.588,0,0,0,33.311,56.073a18.006,18.006,0,0,1-3.28.3,17.744,17.744,0,0,1-11.525-4.217A14.3,14.3,0,0,0,28.553,38.521ZM20.077,57.9a21.979,21.979,0,0,1-6.5-5.115q.349.017.7.017a14.316,14.316,0,0,0,2.381-.2,19.307,19.307,0,0,0,13.373,5.341,19.574,19.574,0,0,0,3.705-.353,9.575,9.575,0,0,0,1.146,2.17,21.885,21.885,0,0,1-4.852.543A21.537,21.537,0,0,1,20.077,57.9ZM37.121,59.98A3.4,3.4,0,0,1,39.7,57.658a4.384,4.384,0,0,0,6.042,0,3.389,3.389,0,0,1,2.581,2.321,8.005,8.005,0,0,1-11.2,0Zm8.433-5.51a2.832,2.832,0,1,1-5.664,0V52.824a2.56,2.56,0,0,1,2.558-2.558H43a2.561,2.561,0,0,1,2.558,2.558Zm3.887,4.151A4.971,4.971,0,0,0,46.715,56.3a4.368,4.368,0,0,0,.4-1.834V52.824A4.126,4.126,0,0,0,43,48.7h-.549a4.126,4.126,0,0,0-4.121,4.121V54.47a4.367,4.367,0,0,0,.4,1.834A4.985,4.985,0,0,0,36,58.623a8.024,8.024,0,1,1,13.436,0Z" transform="translate(0 -13.213)"/>
          <path id="Path_1018517" data-name="Path 1018517" d="M117.743,259.162a.782.782,0,0,0-.782.782.864.864,0,0,1-1.728,0,.782.782,0,0,0-1.564,0,2.427,2.427,0,0,0,4.855,0A.782.782,0,0,0,117.743,259.162Z" transform="translate(-101.821 -233.524)"/>
          <path id="Path_1018518" data-name="Path 1018518" d="M298.618,250.066h4.5a.782.782,0,0,0,0-1.564h-4.5a.782.782,0,0,0,0,1.564Z" transform="translate(-266.789 -223.975)"/>
          <path id="Path_1018519" data-name="Path 1018519" d="M298.618,280.4h4.5a.782.782,0,0,0,0-1.564h-4.5a.782.782,0,0,0,0,1.564Z" transform="translate(-266.789 -251.149)"/>
          <path id="Path_1018520" data-name="Path 1018520" d="M298.618,219.73h2.251a.782.782,0,1,0,0-1.564h-2.251a.782.782,0,0,0,0,1.564Z" transform="translate(-266.789 -196.802)"/>
        </g>
      </g>
    </g>
  </g>
</svg>
