<svg xmlns="http://www.w3.org/2000/svg" width="150" height="150" viewBox="0 0 150 150">
  <g id="img12" transform="translate(-383.746 -8400)">
    <circle id="Ellipse_13609" data-name="Ellipse 13609" cx="75" cy="75" r="75" transform="translate(383.746 8400)" fill="#fff"/>
    <g id="Group_1198611" data-name="Group 1198611" transform="translate(418.925 8435.177)">
      <g id="Group_1198610" data-name="Group 1198610" transform="translate(0 0.002)">
        <g id="Group_1198609" data-name="Group 1198609" transform="translate(0 0)">
          <path id="Path_1023607" data-name="Path 1023607" d="M283.52,166.626s0,0,0-.008,0,0,0,0Z" transform="translate(-239.418 -140.698)" fill="#4a4e3c"/>
          <path id="Path_1023608" data-name="Path 1023608" d="M79.609,73.131c0-.01,0-.02,0-.029-2.792-24.955-2.642-23.9-2.855-24.933a8.409,8.409,0,0,0-6.371-6.322l-7.47-1.86v-.359h7.018a3.046,3.046,0,0,0,3.042-3l.873-14.8a1.167,1.167,0,0,0-2.33-.138c-.913,15.5-.877,14.832-.877,14.9a.719.719,0,0,1-.709.709H62.91v-.3a12.4,12.4,0,0,0,1.185-.68,12.985,12.985,0,0,0,4.688-5.34c1.71-3.6,1.139-6.416,1.251-8.262a2.316,2.316,0,0,0-2.22-2.319h0c-8.54-.366-12.953-5.208-14.1-6.684a2,2,0,0,0-3.06-.1,8.349,8.349,0,0,1-4.623,2.683,2.382,2.382,0,0,0-1.936,2.341c0,7.111-.009,6.764.011,7.3.014.352.049.795.1,1.174a12.972,12.972,0,0,0,5.878,9.246,12.386,12.386,0,0,0,1.092.627v.324H44.358a.719.719,0,0,1-.709-.709c0-.064-.941-15.99-.945-16.028-.014-.121-1.3-12.14,5.446-13.624a1.149,1.149,0,0,0,.783-.6c.118-.222,3-5.418,12.195-3.629.046.009.446.14.48.151A14.393,14.393,0,0,1,71.572,16.33a1.167,1.167,0,0,0,2.333-.041,16.592,16.592,0,0,0-.433-3.525A16.8,16.8,0,0,0,62.356.647a6.907,6.907,0,0,0-.784-.231c-7.2-1.4-12.133,1-14.416,4.362-3.443.977-5.7,4.047-6.537,8.915a28,28,0,0,0-.238,7.1c1.093,16.882.718,16.245,1.35,17.326a11.257,11.257,0,0,0-2.2-.138h-.016a11.509,11.509,0,0,0-7.272,2.948l-.929-.231-2.837-1.358V36.967c7.335-3.668,7.068-11.55,7.073-11.565,3.191-.7,4.674-3.929,2.939-6.361,0-.027,0-2.619-.015-3.815A15.914,15.914,0,0,0,17.229.922a16.129,16.129,0,0,0-10.281,12c-.024.126-.087.475-.1.55a31.891,31.891,0,0,0-.186,5.573C4.93,21.474,6.415,24.707,9.605,25.4a12.939,12.939,0,0,0,7.129,11.593v2.314L13.78,40.722c-3.431,1.012-6.083.946-8.723,3.467-.187.18-.374.389-.355.368a8.2,8.2,0,0,0-2.017,4.888L.038,73.1c0,.01,0,.02,0,.03A9.328,9.328,0,0,0,0,74.076a5.313,5.313,0,0,0,5.484,5.567H16.1a1.167,1.167,0,1,0,0-2.334H11.3l1.157-21.883a1.167,1.167,0,0,0-2.33-.123l-.243,4.6-5.951-.624c0-.017,1.1-10.069,1.3-10.872,1.082-4.257,5.7-4.443,8.562-5.286l3.587,4.592a2.318,2.318,0,0,0,1.689.886c.046,0,.091,0,.137,0a3.046,3.046,0,0,0,2.2-1.249V53a1.167,1.167,0,1,0,2.334,0V47.357a2.964,2.964,0,0,0,2.34,1.244c1.538-.091,1.989-1.451,2.826-2.342a12.979,12.979,0,0,0-.446,4.159,3.765,3.765,0,0,0-.584,4.544,15.227,15.227,0,0,0-2.119,3.865c-.465,1.187-.884,2.171-.246,3.267.809,1.389,2.241,1.171,3.52,1.558a2.021,2.021,0,0,0,1.528-.287c1.654-1.075.482-2.465,1-4.824a8.985,8.985,0,0,0,3.8,4.423h0c.018.01.072.045.251.143v1.455c-4.149,1.033-5.552,1.264-6.743,2.092a7.9,7.9,0,0,0-.736.585,5.269,5.269,0,0,0-1.529,2.375h0c-.422,1.369-.295,2.23-1,7.7H21.544a1.167,1.167,0,1,0,0,2.334H58.32a1.167,1.167,0,0,0,0-2.334H54.2c-.721-6.393-.63-7.472-1.612-8.995-1.659-2.551-4.4-2.76-8.393-3.754V63.123c.177-.1.264-.15.281-.16h0a9.546,9.546,0,0,0,2.007-1.6,8.959,8.959,0,0,0,1.8-2.82,10.167,10.167,0,0,1,.068,2.978,2.054,2.054,0,0,0,1.321,2.043c.767.292,1.215.06,3.049-.306a2.444,2.444,0,0,0,1.825-1.631A2.742,2.742,0,0,0,54.4,59.7a16.675,16.675,0,0,0-2.44-4.74,3.709,3.709,0,0,0,.047-3.679A14.554,14.554,0,0,0,57.037,48.3c6.125,5.313,11.3,4.266,11.723-4.453.24.111,4.851.656,5.706,4.793.252,1.215.246,2,1.245,10.638l-5.9.62L69.564,55.3a1.167,1.167,0,1,0-2.33.123L68.391,77.31H63.765a1.167,1.167,0,1,0,0,2.334H74.16C77.382,79.644,79.97,77.308,79.609,73.131Zm-69.92-10.9L8.932,77.31c-2.759-.149-4.451.428-5.688-.826a3.427,3.427,0,0,1-.909-2.431c-.015-.824.034-.576,1.338-12.453ZM46.425,25.413V18.625a.047.047,0,0,1,.036-.048,10.66,10.66,0,0,0,5.657-3.127C54,17.734,58.851,22.337,67.7,22.721a26.416,26.416,0,0,1-.157,4.523,10.57,10.57,0,0,1-2.51,5.211,10.636,10.636,0,0,1-18.608-7.042ZM51.17,39.627v.359h0l-3.613.9a11.492,11.492,0,0,0-1.7-1.259H51.17ZM35.547,22.966V19.6C37.329,20.337,37.329,22.231,35.547,22.966Zm-25.942,0c-1.783-.735-1.783-2.629,0-3.365Zm1.008-5.922A5.4,5.4,0,0,0,9,17.337,14.167,14.167,0,0,1,13.566,5.755l.016-.014a13.577,13.577,0,0,1,22.532,9.125c.055.732.037,1.281.04,2.471a5.4,5.4,0,0,0-1.614-.293,3.386,3.386,0,0,1-1.615-2.323c-.187-.9.07-2-1.118-2.989-2.051-1.711-4.019.718-13.975-.342L15.622,11.1a2.851,2.851,0,0,0-3.3,2.789c0,.066-.009.189-.018.289A3.416,3.416,0,0,1,10.614,17.045ZM12.255,28c-.564-2.479-.185-3.013-.316-9.027a5.9,5.9,0,0,0,2.723-5.08c.038-1.494,2.706,1.181,15.227-.483a.516.516,0,0,1,.6.483,5.948,5.948,0,0,0,1.878,4.434,5.517,5.517,0,0,0,.845.646c0,7.1.023,6.961-.088,7.825a10.648,10.648,0,0,1-13.831,8.737A10.853,10.853,0,0,1,12.255,28Zm6.953,18.266-3.142-4.021,1.58-.756L20.9,44.553Zm3.369-3.341-3.509-3.3V37.9a13.011,13.011,0,0,0,7.045-.008v1.7Zm3.369,3.341-1.7-1.71,3.277-3.086,1.577.755Zm3.2,15.028c-1.519-.327-1.63-.289-1.629-.425a15.781,15.781,0,0,1,2.059-4.275q.075.041.152.08A9.143,9.143,0,0,0,29.145,61.291Zm1.784-6.635a1.628,1.628,0,0,1,0-3.155ZM45.292,67.241c2.166.548,3.606.79,4.388,1.387,1.729,1.318,1.418,2.028,2.168,8.682H48.722L48.6,75A1.167,1.167,0,0,0,47.436,73.9l-.063,0a1.167,1.167,0,0,0-1.1,1.227l.116,2.186H33.456l.116-2.186A1.167,1.167,0,0,0,31.241,75l-.122,2.309H27.964c.846-7.506.617-5.674.773-6.61.6-2.751,3.445-2.776,5.812-3.467a5.975,5.975,0,0,0,.116.72,5.584,5.584,0,0,0,.659,1.642A5.459,5.459,0,0,0,41.935,71.7l.015-.006A5.368,5.368,0,0,0,45.292,67.241ZM40.03,64.2a8.664,8.664,0,0,0,1.826-.208c.049.285-.316,2.252,1.13,2.674A3.066,3.066,0,0,1,40.514,69.7a3.248,3.248,0,0,1-.74.054,3,3,0,0,1-.761-.133,3.072,3.072,0,0,1-.6-.261l-.013-.007-.007,0h0a3.1,3.1,0,0,1-1.457-1.965,3.907,3.907,0,0,1-.078-.728,1.764,1.764,0,0,0,1.1-1.731v-.94A9,9,0,0,0,40.03,64.2Zm6.493-8.123a6.671,6.671,0,0,1-3.035,4.754,6.272,6.272,0,0,1-1.64.752,6.676,6.676,0,0,1-4.412-.2l-.014-.006a6.623,6.623,0,0,1-4.044-4.939,44.973,44.973,0,0,1-.115-5.453c1.725.194,4.773.131,6.658-2.225,1.885,2.357,4.933,2.419,6.658,2.225A50.707,50.707,0,0,1,46.523,56.076Zm.513-7.516c-3.683.745-5.126-.914-5.576-1.662a1.8,1.8,0,0,0-3.078,0c-.449.748-1.892,2.406-5.576,1.662a1.554,1.554,0,0,0-1.4.415,5.268,5.268,0,0,0-.6.114,8.52,8.52,0,0,1,.189-1.542,9.123,9.123,0,0,1,18.044,1.542,5.241,5.241,0,0,0-.6-.114A1.555,1.555,0,0,0,47.035,48.559Zm1.877,6.1V51.5A1.628,1.628,0,0,1,48.912,54.656Zm3.408,6.179c0,.011-.136.136-1.624.457a9.3,9.3,0,0,0-.582-4.62q.077-.039.152-.08A15.276,15.276,0,0,1,52.319,60.834ZM51.371,49.04a11.443,11.443,0,0,0-.565-3.2A10.645,10.645,0,0,0,54.278,47.5,10.334,10.334,0,0,1,51.371,49.04Zm-.7-6.524a15.629,15.629,0,0,0,1.714-.446,2.136,2.136,0,0,0,1.121-2V37.887a13.015,13.015,0,0,0,7.073.013v2.17A2.044,2.044,0,0,0,61.9,42.139l.022.006,1.488.371A8.249,8.249,0,0,1,50.669,42.516Zm11.241-.374.007,0Zm2.557,6.92c-1.357.567-3.493-.711-4.686-1.572a10.958,10.958,0,0,0,6.1-4.359l.569.142C66.351,46.523,65.657,48.566,64.467,49.062ZM76.4,76.484c-1.237,1.254-2.918.676-5.673.826l-.8-15.078,6.041-.634c1.436,13.335,1.312,11.058,1.339,12.5A3.451,3.451,0,0,1,76.4,76.484Z" transform="translate(0 -0.002)" fill="#4a4e3c"/>
        </g>
      </g>
    </g>
  </g>
</svg>
