<svg xmlns="http://www.w3.org/2000/svg" width="84" height="84" viewBox="0 0 84 84">
  <g id="img1" transform="translate(-215 -480)">
    <rect id="Rectangle_461338" data-name="Rectangle 461338" width="84" height="84" rx="10" transform="translate(215 480)" fill="#b9c296"/>
    <g id="Group_1196259" data-name="Group 1196259" transform="translate(203.826 494.001)">
      <g id="Group_1196257" data-name="Group 1196257" transform="translate(29.338 1.151)">
        <g id="Group_1196256" data-name="Group 1196256" transform="translate(0)">
          <g id="Group_1196255" data-name="Group 1196255">
            <path id="Path_1018203" data-name="Path 1018203" d="M74.7,10.415H50.758A12.053,12.053,0,0,1,38.705,22.468v11.97c0,24.023,24.023,30.369,24.023,30.369S86.75,58.46,86.75,34.437V22.468A12.053,12.053,0,0,1,74.7,10.415Z" transform="translate(-38.705 -10.415)" fill="#fff7bf"/>
            <path id="Path_1018204" data-name="Path 1018204" d="M212.245,57.322a3.552,3.552,0,0,0-5.023,0,3.551,3.551,0,0,0-5.023,5.022l3.317,3.317,1.705,1.705,5.023-5.023A3.551,3.551,0,0,0,212.245,57.322Z" transform="translate(-183.2 -51.212)" fill="#ff7d97"/>
            <circle id="Ellipse_15142" data-name="Ellipse 15142" cx="6.075" cy="6.075" r="6.075" transform="translate(7.434 17.157)" fill="#ffdcd5"/>
            <circle id="Ellipse_15143" data-name="Ellipse 15143" cx="6.075" cy="6.075" r="6.075" transform="translate(28.461 17.157)" fill="#ffdcd5"/>
            <path id="Path_1018205" data-name="Path 1018205" d="M84.478,277.228q-.123,4.521-.247,9.04l-.362,13.247a40,40,0,0,1-3.762-1.772A32.964,32.964,0,0,1,66.074,284l-.149-.345V282.6a7.085,7.085,0,0,1,7.085-7.085h6.843a7.063,7.063,0,0,1,4.624,1.718Z" transform="translate(-62.916 -246.203)" fill="#80b6ff"/>
            <path id="Path_1018206" data-name="Path 1018206" d="M296.823,283.668c-3.527,7.162-9.5,11.556-14.182,14.066a40.017,40.017,0,0,1-4.387,2.024v-22.53a7.053,7.053,0,0,1,4.624-1.718h6.843a7.085,7.085,0,0,1,7.085,7.085v1.059Z" transform="translate(-251.772 -246.203)" fill="#ffcd69"/>
            <path id="Path_1018207" data-name="Path 1018207" d="M207.268,377.283v6.741l-.07.083a40,40,0,0,1-4.387,2.024,25.959,25.959,0,0,1-2.461.837,27.852,27.852,0,0,1-3.068-1.079,40.006,40.006,0,0,1-3.762-1.772l-.086-.092v-6.743a4.663,4.663,0,0,1,4.21-4.641c.149-.014.3-.022.454-.022H202.6c.07,0,.139,0,.208,0a4.664,4.664,0,0,1,4.456,4.659Z" transform="translate(-176.329 -332.577)" fill="#ff7d97"/>
            <circle id="Ellipse_15144" data-name="Ellipse 15144" cx="4.844" cy="4.844" r="4.844" transform="translate(17.166 35.197) rotate(-45)" fill="#ffdcd5"/>
          </g>
        </g>
      </g>
      <g id="Group_1196258" data-name="Group 1196258" transform="translate(28.174 -0.001)">
        <path id="Path_1018208" data-name="Path 1018208" d="M251.179,2.206A1.106,1.106,0,1,0,250.073,1.1,1.106,1.106,0,0,0,251.179,2.206Z" transform="translate(-225.542 0.001)"/>
        <path id="Path_1018209" data-name="Path 1018209" d="M191.13,50.512a4.629,4.629,0,0,0,1.365,3.294l5.025,5.025a1.106,1.106,0,0,0,1.564,0l5.025-5.025a4.66,4.66,0,0,0-5.807-7.22A4.669,4.669,0,0,0,191.13,50.512Zm2.929-1.73a2.458,2.458,0,0,1,3.461,0,1.112,1.112,0,0,0,1.564,0,2.447,2.447,0,1,1,3.461,3.461L198.3,56.485l-4.243-4.243A2.458,2.458,0,0,1,194.058,48.782Z" transform="translate(-173.114 -40.78)"/>
        <path id="Path_1018210" data-name="Path 1018210" d="M77.394,12.058A10.965,10.965,0,0,1,66.442,1.106,1.106,1.106,0,0,0,65.336,0H58.788a1.106,1.106,0,1,0,0,2.212h5.487A13.187,13.187,0,0,0,76.288,14.224V25.14a30.365,30.365,0,0,1-1.4,9.335A8.247,8.247,0,0,0,68.9,29.523a7.181,7.181,0,1,0-10.047,0,8.183,8.183,0,0,0-3.165,1.365,5.991,5.991,0,0,0-4.661,0,8.192,8.192,0,0,0-3.165-1.365,7.181,7.181,0,1,0-10.047,0,8.247,8.247,0,0,0-5.987,4.951,30.366,30.366,0,0,1-1.4-9.335V14.224A13.188,13.188,0,0,0,42.445,2.212h6.389a1.106,1.106,0,0,0,0-2.212H41.385a1.106,1.106,0,0,0-1.106,1.106A10.965,10.965,0,0,1,29.327,12.058a1.106,1.106,0,0,0-1.106,1.106c.135,9.449-1.119,19.026,3.9,27.408,4.565,8.658,15.472,14.654,20.958,16.021.782.166,6.536-1.613,12.971-6.369A32.114,32.114,0,0,0,74.6,40.572c5.021-8.389,3.763-17.962,3.9-27.408a1.106,1.106,0,0,0-1.106-1.106ZM63.879,19.423a4.972,4.972,0,1,1-4.972,4.972A4.978,4.978,0,0,1,63.879,19.423ZM57.1,36.366a3.74,3.74,0,1,1-3.74-3.74A3.745,3.745,0,0,1,57.1,36.366ZM42.842,19.423a4.972,4.972,0,1,1-4.972,4.972A4.978,4.978,0,0,1,42.842,19.423ZM33.444,38.4v-.836a6.011,6.011,0,0,1,5.983-5.983s6.827,0,6.846,0a5.981,5.981,0,0,1,2.78.686,5.969,5.969,0,0,0,.011,8.215,5.793,5.793,0,0,0-3.729,5.4v4.839A31.208,31.208,0,0,1,33.444,38.4ZM53.361,54.372a35.9,35.9,0,0,1-5.814-2.419V45.879a3.56,3.56,0,0,1,3.56-3.559h4.507a3.56,3.56,0,0,1,3.56,3.559v6.074a35.9,35.9,0,0,1-5.814,2.419Zm11.406-5.953a36.317,36.317,0,0,1-3.38,2.3V45.879a5.8,5.8,0,0,0-3.729-5.4,5.969,5.969,0,0,0,.01-8.215,5.982,5.982,0,0,1,2.781-.686c.021,0,6.846,0,6.846,0a6.011,6.011,0,0,1,5.983,5.983V38.4a29.388,29.388,0,0,1-8.511,10.021Z" transform="translate(-28.174 0)"/>
      </g>
    </g>
  </g>
</svg>
