<svg xmlns="http://www.w3.org/2000/svg" width="150" height="150" viewBox="0 0 150 150">
  <g id="img12" transform="translate(-383.746 -8400)">
    <circle id="Ellipse_13609" data-name="Ellipse 13609" cx="75" cy="75" r="75" transform="translate(383.746 8400)" fill="#b9c296"/>
    <path id="Path_1025155" data-name="Path 1025155" d="M92.392,56c0-.009,0-.018,0-.027-.3-3.94-1.269-5.714-3.976-7.3-1.991-1.167-5.372-2.031-8.355-2.792-.979-.25-1.905-.487-2.712-.716a4.606,4.606,0,0,1-2.139-2.773A12.6,12.6,0,0,0,77.1,40.477a16.7,16.7,0,0,0,3.361-8.2,18.946,18.946,0,0,0,.88-9.521,5.62,5.62,0,0,0-2.759-3.826,4.075,4.075,0,0,0-2.214-.435c-2.3-3.167-5.853-2.323-9.3-1.5a21.138,21.138,0,0,1-8.2.8,1.23,1.23,0,0,0-1.363.851c-1.4,4.511-1.519,10.921.645,13.807a16.668,16.668,0,0,0,3.338,8.028,12.6,12.6,0,0,0,1.889,1.914,4.607,4.607,0,0,1-2.191,2.8c-11.771,3.586-17.54.515-22.013-6.121h6.274a4.647,4.647,0,0,0,4.642-4.642V8.642A4.647,4.647,0,0,0,45.447,4H8.638A4.647,4.647,0,0,0,4,8.642V34.431a4.647,4.647,0,0,0,4.642,4.642H25.812V57.546H8.638A4.647,4.647,0,0,0,4,62.188V87.977a4.647,4.647,0,0,0,4.642,4.642H45.447a4.647,4.647,0,0,0,4.642-4.642V62.188a4.62,4.62,0,0,0-1.036-2.918,34.7,34.7,0,0,0,4.489.554,1.31,1.31,0,0,1,1.231,1.306V79.159A1.231,1.231,0,0,0,56,80.39H90.928a1.231,1.231,0,0,0,1.229-1.17A214.711,214.711,0,0,0,92.392,56ZM59.578,20.352a25.178,25.178,0,0,0,8.061-.964c3.863-.918,5.779-1.255,7.079,1.1a1.231,1.231,0,0,0,1.55.542,1.478,1.478,0,0,1,1.2.1,3.238,3.238,0,0,1,1.478,2.218,16.5,16.5,0,0,1-.091,5.568,11.762,11.762,0,0,0-.881-1.689,2.516,2.516,0,0,0-2.24-1.189,8.436,8.436,0,0,0-2.642.6c-2.545.883-5.168.285-7.481-.242a10.6,10.6,0,0,0-3.94-.449,3.543,3.543,0,0,0-2.558,2.125,20.219,20.219,0,0,1,.463-7.726Zm.99,11.622.019-.1c.212-1.164.606-3.332,1.521-3.5a9.878,9.878,0,0,1,2.958.426c2.374.541,5.624,1.282,8.835.168,1.408-.489,1.849-.513,1.97-.448a.268.268,0,0,1,.051.062,9.826,9.826,0,0,1,.7,1.358,10.865,10.865,0,0,0,1.348,2.379c-.718,4.633-3.666,9.562-8.675,9.937-5.134-.384-8.1-5.553-8.724-10.284ZM69.213,44.72l.08,0,.08,0a10.022,10.022,0,0,0,3.7-.966,7,7,0,0,0,2,2.816,7.574,7.574,0,0,1-11.573,0,7,7,0,0,0,2-2.816A10.018,10.018,0,0,0,69.213,44.72ZM6.458,34.431V8.642a2.183,2.183,0,0,1,2.18-2.18H45.447a2.183,2.183,0,0,1,2.18,2.18V34.431a2.183,2.183,0,0,1-2.18,2.18H37.654c-.058-.1-.117-.2-.175-.308a5.064,5.064,0,0,0-6.96-1.91,5.605,5.605,0,0,0-2.31,2.218H8.638a2.183,2.183,0,0,1-2.18-2.18Zm41.17,53.546a2.183,2.183,0,0,1-2.18,2.18H8.638a2.183,2.183,0,0,1-2.18-2.18V62.188a2.183,2.183,0,0,1,2.18-2.18H45.447a2.183,2.183,0,0,1,2.18,2.18ZM28.273,57.546v-16.1c3.055,6.324,7.253,12.759,15.074,16.1ZM57.235,61.13a3.775,3.775,0,0,0-3.545-3.764c-13.648-.818-19.287-8.8-23.347-17.3a2.541,2.541,0,0,1,1.31-3.486,2.637,2.637,0,0,1,3.68.929c3.038,5.415,6.1,8.587,9.941,10.283,4.21,1.861,9.447,1.845,15.988-.051a10.562,10.562,0,0,0,6.8,3.9V77.929H57.235v-16.8Zm32.521,16.8H83.773V59.671a1.231,1.231,0,1,0-2.462,0V77.928H70.523V51.642a10.569,10.569,0,0,0,6.82-3.925c.66.178,1.369.359,2.108.548,2.825.721,6.027,1.539,7.718,2.53,1.848,1.083,2.508,2.01,2.766,5.353A204.408,204.408,0,0,1,89.756,77.928Zm-69.632-53a1.231,1.231,0,0,1,0,1.741l-4.879,4.879a1.231,1.231,0,0,1-1.936-.255l-1.3-2.254a1.231,1.231,0,0,1,2.132-1.231l.5.865,3.745-3.745a1.231,1.231,0,0,1,1.741,0Zm2.237-7.673a1.231,1.231,0,0,1,1.231-1.231H40.9a1.231,1.231,0,1,1,0,2.462H23.592A1.231,1.231,0,0,1,22.361,17.259Zm0-4.857a1.231,1.231,0,0,1,1.231-1.231H41.012a1.231,1.231,0,1,1,0,2.462H23.592A1.231,1.231,0,0,1,22.361,12.4Zm0,13.411a1.231,1.231,0,0,1,1.231-1.231H40.9a1.231,1.231,0,0,1,0,2.462H23.592a1.231,1.231,0,0,1-1.231-1.231ZM23.592,31.9a1.231,1.231,0,0,1,0-2.462H40.9a1.231,1.231,0,1,1,0,2.462ZM20.124,11.521a1.231,1.231,0,0,1,0,1.741l-4.879,4.879a1.231,1.231,0,0,1-1.936-.255l-1.3-2.254A1.231,1.231,0,0,1,14.139,14.4l.5.865,3.745-3.745a1.231,1.231,0,0,1,1.741,0ZM41.8,70.806a1.231,1.231,0,0,1-1.231,1.231H23.266a1.231,1.231,0,0,1,0-2.462H40.572A1.231,1.231,0,0,1,41.8,70.806Zm.115-4.857a1.231,1.231,0,0,1-1.231,1.231H23.266a1.231,1.231,0,0,1,0-2.462H40.687A1.231,1.231,0,0,1,41.918,65.949ZM41.8,79.359a1.231,1.231,0,0,1-1.231,1.231H23.266a1.231,1.231,0,0,1,0-2.462H40.572A1.231,1.231,0,0,1,41.8,79.359Zm0,4.857a1.231,1.231,0,0,1-1.231,1.231H23.266a1.231,1.231,0,0,1,0-2.462H40.572A1.231,1.231,0,0,1,41.8,84.217ZM12.528,69.946,14.1,68.377l-1.569-1.569a1.231,1.231,0,1,1,1.741-1.741l1.569,1.569,1.569-1.569a1.231,1.231,0,1,1,1.741,1.741l-1.569,1.569,1.569,1.569a1.231,1.231,0,1,1-1.741,1.741l-1.569-1.569-1.569,1.569a1.231,1.231,0,0,1-1.741-1.741Zm6.62,10.273-1.569,1.569,1.569,1.569A1.231,1.231,0,0,1,17.407,85.1l-1.569-1.569L14.268,85.1a1.231,1.231,0,0,1-1.741-1.741L14.1,81.788l-1.569-1.569a1.231,1.231,0,1,1,1.741-1.741l1.569,1.569,1.569-1.569a1.231,1.231,0,0,1,1.741,1.741Z" transform="translate(410.44 8426.69)" fill="#4a4e3c"/>
  </g>
</svg>
