<svg xmlns="http://www.w3.org/2000/svg" width="84" height="84" viewBox="0 0 84 84">
  <g id="img10" transform="translate(-601 -3128)">
    <rect id="Rectangle_461420" data-name="Rectangle 461420" width="84" height="84" rx="9" transform="translate(601 3128)" fill="#9c3413"/>
    <g id="outline" transform="translate(602.523 3129.523)">
      <path id="Path_1025717" data-name="Path 1025717" d="M64.138,16H16.816a.816.816,0,0,0-.816.816V64.138a.816.816,0,0,0,.816.816H64.138a.816.816,0,0,0,.816-.816V16.816A.816.816,0,0,0,64.138,16ZM30.9,24.159h.816l1.224,1.632H29.676Zm-7.964,4.08h.816l1.224,1.632H21.711ZM21.189,55.91A5.7,5.7,0,0,1,20.9,54.1v-.491a5.67,5.67,0,0,1,.722.909,7.847,7.847,0,0,0-.066,2.273h-.068ZM27.423,54.1a5.7,5.7,0,0,1-.293,1.806l-.295.885h-.068a7.847,7.847,0,0,0-.066-2.273,5.666,5.666,0,0,1,.722-.909Zm-2.394.392a.82.82,0,0,0,.023.1,6.222,6.222,0,0,1,.07,2.2H23.2a6.218,6.218,0,0,1,.963-4.332,6.235,6.235,0,0,1,.87,2.033Zm-3.442,8.826-.4-2.414a4.762,4.762,0,0,1,.243-2.481h5.463a4.762,4.762,0,0,1,.243,2.481l-.4,2.414Zm26.234,0v-4.9h1.632v4.9ZM45.372,56.8a.816.816,0,0,1,0-1.632H51.9a.816.816,0,0,1,0,1.632Zm10.607,6.527V61.69h3.264v1.632Zm7.343,0H60.875V61.487a1.429,1.429,0,0,0-1.428-1.428h-1.02V52.716h2.448a.816.816,0,0,0,.808-.931l-.816-5.711a.816.816,0,0,0-.808-.7h-4.9a.816.816,0,0,0-.808.7l-.816,5.711a.816.816,0,0,0,.808.931H56.8v7.343h-1.02a1.429,1.429,0,0,0-1.428,1.428v1.836H51.084v-4.9H51.9a2.448,2.448,0,1,0,0-4.9H45.372a2.448,2.448,0,0,0,0,4.9h.816v4.9h-17.8l.358-2.146a6.381,6.381,0,0,0-.444-3.614l.379-1.136a7.329,7.329,0,0,0,.377-2.322V51.9a.816.816,0,0,0-1.305-.653l-.653.49a7.347,7.347,0,0,0-.986.892,7.934,7.934,0,0,0-.869-1.462l-.429-.572a.816.816,0,0,0-1.305,0l-.429.572a7.93,7.93,0,0,0-.869,1.462,7.333,7.333,0,0,0-.986-.892l-.653-.49a.816.816,0,0,0-1.305.653v2.2a7.33,7.33,0,0,0,.378,2.323l.378,1.135a6.381,6.381,0,0,0-.445,3.614l.358,2.146h-2.3V17.632h4.955v8.975h-.059a.816.816,0,0,0-.653.326L19.427,30.2A.816.816,0,0,0,20.08,31.5h6.527a.816.816,0,0,0,.653-1.305l-2.448-3.264a.815.815,0,0,0-.593-.323V17.632h6.333v4.9h-.059a.816.816,0,0,0-.653.326l-2.448,3.264a.816.816,0,0,0,.653,1.305h6.527a.816.816,0,0,0,.653-1.305l-2.448-3.264a.815.815,0,0,0-.593-.323v-4.9h31.14ZM55.288,51.084,55.871,47h3.48l.583,4.08Z" fill="#fff"/>
      <path id="Path_1025718" data-name="Path 1025718" d="M132.079,107.627v.888a2.855,2.855,0,0,0-4.08,2.58v3.876a2.246,2.246,0,0,0,2.244,2.244h.791l-.562,2.25a.816.816,0,0,0,.792,1.014h2.448a.816.816,0,0,0,.73-.451l1.406-2.813h8.782l1.406,2.813a.816.816,0,0,0,.73.451h2.448a.816.816,0,0,0,.792-1.014l-.563-2.25a2.246,2.246,0,0,0,2.219-2.243v-3.876a2.866,2.866,0,0,0-.053-.542,2.546,2.546,0,0,0,1.223-.881l1.7-2.272a3.855,3.855,0,0,0,2.79-1.7l.682-1.023,4.022-4.022A.816.816,0,0,0,161.9,99.4l-4.9-3.264a.816.816,0,0,0-1.03.1l-3.84,3.84H145.95a.816.816,0,0,0-.679.363l-3.264,4.9a.815.815,0,0,0-.137.453h-7.955A1.838,1.838,0,0,0,132.079,107.627Zm1.836-.2h11.831a.2.2,0,0,1,.2.2v3.145a2.233,2.233,0,0,0-.612-.086H134.323a2.232,2.232,0,0,0-.612.085v-3.145A.2.2,0,0,1,133.915,107.423Zm14.773-.683a2.533,2.533,0,0,0-.422,1.55,2.831,2.831,0,0,0-.685.224v-.888a1.824,1.824,0,0,0-.214-.859l.651-.977h1.3Zm-14.977,8.842V112.93a.613.613,0,0,1,.612-.612h11.015a.613.613,0,0,1,.612.612v2.652Zm-4.08-.612v-3.876a1.224,1.224,0,0,1,2.448,0v4.487h-1.836a.613.613,0,0,1-.612-.612Zm3.575,3.876h-.9l.408-1.632h1.306Zm14.063,0-.816-1.632h1.306l.408,1.632Zm2.759-3.876a.613.613,0,0,1-.612.612h-1.836v-4.487a1.217,1.217,0,0,1,1.363-1.215,2.53,2.53,0,0,0,.938.635,1.218,1.218,0,0,1,.147.58Zm-3.643-13.258h6.091a.816.816,0,0,0,.577-.239l3.607-3.607,3.511,2.341-3.376,3.376a.821.821,0,0,0-.1.124l-.727,1.09a2.228,2.228,0,0,1-1.858.994.816.816,0,0,0-.653.326l-1.931,2.575a.907.907,0,0,1-1.48-1.047l1.479-2.218a.816.816,0,0,0-.679-1.269h-3.264a.816.816,0,0,0-.679.363l-.863,1.294a1.84,1.84,0,0,0-.294-.026h-2.079Z" transform="translate(-100.577 -71.841)" fill="#fff"/>
    </g>
  </g>
</svg>
