<svg xmlns="http://www.w3.org/2000/svg" xmlns:xlink="http://www.w3.org/1999/xlink" width="292" height="227.789" viewBox="0 0 292 227.789">
  <defs>
    <clipPath id="clip-path">
      <rect id="Rectangle_462206" data-name="Rectangle 462206" width="292" height="195" fill="none"/>
    </clipPath>
    <clipPath id="clip-path-3">
      <rect id="Rectangle_462161" data-name="Rectangle 462161" width="49.101" height="75.714" fill="none"/>
    </clipPath>
    <clipPath id="clip-path-4">
      <rect id="Rectangle_462162" data-name="Rectangle 462162" width="64.5" height="75.714" fill="none"/>
    </clipPath>
    <clipPath id="clip-path-6">
      <rect id="Rectangle_462166" data-name="Rectangle 462166" width="15.055" height="2.608" fill="none"/>
    </clipPath>
    <clipPath id="clip-path-7">
      <rect id="Rectangle_462167" data-name="Rectangle 462167" width="64.767" height="136.598" fill="none"/>
    </clipPath>
    <clipPath id="clip-path-8">
      <rect id="Rectangle_462169" data-name="Rectangle 462169" width="1.005" height="6.929" fill="none"/>
    </clipPath>
    <clipPath id="clip-path-9">
      <rect id="Rectangle_462170" data-name="Rectangle 462170" width="0.635" height="6.929" fill="none"/>
    </clipPath>
    <clipPath id="clip-path-11">
      <rect id="Rectangle_462172" data-name="Rectangle 462172" width="1.007" height="6.929" fill="none"/>
    </clipPath>
    <clipPath id="clip-path-12">
      <rect id="Rectangle_462173" data-name="Rectangle 462173" width="1.645" height="5.205" fill="none"/>
    </clipPath>
    <clipPath id="clip-path-14">
      <rect id="Rectangle_462175" data-name="Rectangle 462175" width="1.644" height="5.205" fill="none"/>
    </clipPath>
    <clipPath id="clip-path-15">
      <rect id="Rectangle_462183" data-name="Rectangle 462183" width="48.946" height="33.819" fill="none"/>
    </clipPath>
    <clipPath id="clip-path-16">
      <rect id="Rectangle_462184" data-name="Rectangle 462184" width="16.915" height="22.307" fill="none"/>
    </clipPath>
    <clipPath id="clip-path-17">
      <rect id="Rectangle_462185" data-name="Rectangle 462185" width="22.024" height="16.253" fill="none"/>
    </clipPath>
    <clipPath id="clip-path-18">
      <rect id="Rectangle_462186" data-name="Rectangle 462186" width="1.206" height="1.523" fill="none"/>
    </clipPath>
    <clipPath id="clip-path-19">
      <rect id="Rectangle_462187" data-name="Rectangle 462187" width="1.867" height="1.825" fill="none"/>
    </clipPath>
    <clipPath id="clip-path-20">
      <rect id="Rectangle_462199" data-name="Rectangle 462199" width="6.013" height="25.734" fill="none"/>
    </clipPath>
    <clipPath id="clip-path-21">
      <rect id="Rectangle_462200" data-name="Rectangle 462200" width="7.667" height="17.414" fill="none"/>
    </clipPath>
    <clipPath id="clip-path-22">
      <rect id="Rectangle_462201" data-name="Rectangle 462201" width="5.2" height="5.885" fill="none"/>
    </clipPath>
    <clipPath id="clip-path-23">
      <rect id="Rectangle_462202" data-name="Rectangle 462202" width="5.141" height="10.819" fill="none"/>
    </clipPath>
    <clipPath id="clip-path-24">
      <rect id="Rectangle_462203" data-name="Rectangle 462203" width="3.25" height="17.187" fill="none"/>
    </clipPath>
    <clipPath id="clip-path-25">
      <rect id="Rectangle_462204" data-name="Rectangle 462204" width="1.874" height="7.156" fill="none"/>
    </clipPath>
  </defs>
  <g id="img15" transform="translate(-184.967 -8975)">
    <rect id="Rectangle_461405" data-name="Rectangle 461405" width="292" height="227.789" rx="10" transform="translate(184.967 8975)" fill="#ffe3c2"/>
    <g id="Group_1198128" data-name="Group 1198128" transform="translate(184.967 8988.789)">
      <g id="Group_1198127" data-name="Group 1198127" clip-path="url(#clip-path)">
        <rect id="Rectangle_462158" data-name="Rectangle 462158" width="292" height="195" fill="#fee8e3"/>
        <rect id="Rectangle_462159" data-name="Rectangle 462159" width="116.478" height="79.033" transform="translate(79.849 16.656)" fill="#fff"/>
        <rect id="Rectangle_462160" data-name="Rectangle 462160" width="110.233" height="75.714" transform="translate(82.974 19.974)" fill="#c0c7e9"/>
        <g id="Group_1198064" data-name="Group 1198064">
          <g id="Group_1198063" data-name="Group 1198063" clip-path="url(#clip-path)">
            <g id="Group_1198059" data-name="Group 1198059" transform="translate(82.974 19.974)" opacity="0.3">
              <g id="Group_1198058" data-name="Group 1198058">
                <g id="Group_1198057" data-name="Group 1198057" clip-path="url(#clip-path-3)">
                  <path id="Path_1021938" data-name="Path 1021938" d="M112.922,20.519,85.238,74.584v-8.5l23.343-45.567Z" transform="translate(-85.238 -20.519)" fill="#fff"/>
                  <path id="Path_1021939" data-name="Path 1021939" d="M124.769,20.519,86,96.233h-.759V78.964l29.924-58.446Z" transform="translate(-85.238 -20.519)" fill="#fff"/>
                  <path id="Path_1021940" data-name="Path 1021940" d="M134.548,20.519,95.766,96.233H93.148L131.92,20.519Z" transform="translate(-85.448 -20.519)" fill="#fff"/>
                </g>
              </g>
            </g>
            <g id="Group_1198062" data-name="Group 1198062" transform="translate(128.707 19.974)" opacity="0.3">
              <g id="Group_1198061" data-name="Group 1198061">
                <g id="Group_1198060" data-name="Group 1198060" clip-path="url(#clip-path-4)">
                  <path id="Path_1021941" data-name="Path 1021941" d="M175.341,20.519,136.559,96.233h-4.342L170.99,20.519Z" transform="translate(-132.218 -20.519)" fill="#fff"/>
                  <path id="Path_1021942" data-name="Path 1021942" d="M187.358,20.519,148.586,96.233h-9.6L177.76,20.519Z" transform="translate(-132.398 -20.519)" fill="#fff"/>
                  <path id="Path_1021943" data-name="Path 1021943" d="M197.349,20.519v.058L158.6,96.233h-2.619L194.75,20.519Z" transform="translate(-132.849 -20.519)" fill="#fff"/>
                </g>
              </g>
            </g>
          </g>
        </g>
        <rect id="Rectangle_462164" data-name="Rectangle 462164" width="2.975" height="79.033" transform="translate(136.601 16.656)" fill="#fff"/>
        <rect id="Rectangle_462165" data-name="Rectangle 462165" width="292.033" height="40.311" transform="translate(0 154.378)" fill="#febf60"/>
        <g id="Group_1198126" data-name="Group 1198126">
          <g id="Group_1198125" data-name="Group 1198125" clip-path="url(#clip-path)">
            <path id="Path_1021944" data-name="Path 1021944" d="M34.011,16.663c-.941-1.642-1.889-3.454-1.687-5.36a1.12,1.12,0,0,1,.265-.7c.528-.505,1.281.276,1.585.956a55.038,55.038,0,0,1,2.961,8.42c.094-2.374-.293-4.754-.112-7.123S38.107,7.983,40.067,6.8a35.162,35.162,0,0,1-.9,12.035A22.83,22.83,0,0,1,43.2,11.159,13.186,13.186,0,0,1,50.24,6.622a2.865,2.865,0,0,1,2.979.648,2.474,2.474,0,0,1,0,2.645A6.222,6.222,0,0,1,51.251,11.8c-2.849,1.981-5.917,3.682-8.376,6.175a34.519,34.519,0,0,1-2.756,2.777c-.937.754-2.545,1.851-3.406.507-.953-1.488-1.82-3.059-2.7-4.6" transform="translate(-0.858 -0.172)" fill="#4a8b65"/>
            <path id="Path_1021945" data-name="Path 1021945" d="M40.4,10.994a35.12,35.12,0,0,0-.155-4.185,4.9,4.9,0,0,0-.855.663c-.667,1.411-.914,3.148,1.009,3.522" transform="translate(-1.033 -0.181)" fill="#353e75"/>
            <path id="Path_1021946" data-name="Path 1021946" d="M53.644,7.277a1.8,1.8,0,0,0-.7-.545c-2.5.715-5.585,2.062-4.377,3.756,1.058,1.112,3.629.357,5.363-1.3a2.24,2.24,0,0,0-.288-1.911" transform="translate(-1.283 -0.179)" fill="#353e75"/>
            <path id="Path_1021947" data-name="Path 1021947" d="M33.4,13.689a4.207,4.207,0,0,0,.332-2.7c-.351-.387-.8-.613-1.143-.28a1.117,1.117,0,0,0-.264.7,5.734,5.734,0,0,0,.251,2.272c.284.159.6.238.824.007" transform="translate(-0.858 -0.28)" fill="#353e75"/>
            <path id="Path_1021948" data-name="Path 1021948" d="M43.863,27.477H35.348a1.49,1.49,0,0,1-1.459-1.16L32.078,18.2H47.132l-1.811,8.119a1.491,1.491,0,0,1-1.459,1.16" transform="translate(-0.852 -0.483)" fill="#af503a"/>
            <g id="Group_1198067" data-name="Group 1198067" transform="translate(31.226 17.714)" opacity="0.28" style="mix-blend-mode: overlay;isolation: isolate">
              <g id="Group_1198066" data-name="Group 1198066">
                <g id="Group_1198065" data-name="Group 1198065" clip-path="url(#clip-path-6)">
                  <path id="Path_1021949" data-name="Path 1021949" d="M32.077,18.2l.581,2.607c4.558-.676,9.6-1.375,13.908-.068l.567-2.539Z" transform="translate(-32.077 -18.197)"/>
                </g>
              </g>
            </g>
            <path id="Path_1021950" data-name="Path 1021950" d="M46.85,19.22H32.134a.633.633,0,0,1-.633-.633V17.431a.633.633,0,0,1,.633-.633H46.85a.633.633,0,0,1,.633.633v1.156a.633.633,0,0,1-.633.633" transform="translate(-0.837 -0.446)" fill="#af503a"/>
            <path id="Path_1021951" data-name="Path 1021951" d="M62.912,42.337V164.086H.5V42.337c0-8.2,5.87-14.85,13.113-14.85H49.806c7.237,0,13.105,6.647,13.105,14.85" transform="translate(-0.013 -0.73)" fill="#f35c3d"/>
            <g id="Group_1198070" data-name="Group 1198070" transform="translate(0.492 26.757)" opacity="0.21" style="mix-blend-mode: overlay;isolation: isolate">
              <g id="Group_1198069" data-name="Group 1198069">
                <g id="Group_1198068" data-name="Group 1198068" clip-path="url(#clip-path-7)">
                  <path id="Path_1021952" data-name="Path 1021952" d="M16.417,32.114A25.932,25.932,0,0,1,20.1,29.156a23.425,23.425,0,0,1,3.11-1.668H13.619C6.375,27.488.506,34.133.506,42.338V164.085H65.273A103.269,103.269,0,0,1,30.7,137.906s-32.125-37.582-21.067-92c.961-4.727,4.318-11.347,6.788-13.788" transform="translate(-0.505 -27.487)"/>
                </g>
              </g>
            </g>
            <rect id="Rectangle_462168" data-name="Rectangle 462168" width="62.407" height="3.432" transform="translate(0.492 67.492)" fill="#fd8d4b"/>
            <path id="Path_1021953" data-name="Path 1021953" d="M55.911,63.657h-.335a.945.945,0,0,1-.944-.944V49.993a.944.944,0,0,1,.944-.944h.335a.944.944,0,0,1,.944.944v12.72a.945.945,0,0,1-.944.944" transform="translate(-1.451 -1.303)" fill="#353e75"/>
            <path id="Path_1021954" data-name="Path 1021954" d="M55.911,93.818h-.335a.943.943,0,0,1-.944-.943V80.154a.945.945,0,0,1,.944-.944h.335a.945.945,0,0,1,.944.944v12.72a.943.943,0,0,1-.944.943" transform="translate(-1.451 -2.103)" fill="#353e75"/>
            <path id="Path_1021955" data-name="Path 1021955" d="M233.742,23.274a9.362,9.362,0,1,1-9.362-9.362,9.362,9.362,0,0,1,9.362,9.362" transform="translate(-5.71 -0.369)" fill="#fff"/>
            <path id="Path_1021956" data-name="Path 1021956" d="M232.73,23.3a8.321,8.321,0,1,1-8.322-8.321A8.322,8.322,0,0,1,232.73,23.3" transform="translate(-5.738 -0.398)" fill="#f3f3f3"/>
            <path id="Path_1021957" data-name="Path 1021957" d="M230.405,23.367a5.932,5.932,0,1,1-5.931-5.932,5.931,5.931,0,0,1,5.931,5.932" transform="translate(-5.804 -0.463)" fill="#c0c7e9"/>
            <path id="Path_1021958" data-name="Path 1021958" d="M243.359,23.274A9.362,9.362,0,1,1,234,13.912a9.362,9.362,0,0,1,9.362,9.362" transform="translate(-5.965 -0.369)" fill="#fff"/>
            <path id="Path_1021959" data-name="Path 1021959" d="M242.347,23.3a8.321,8.321,0,1,1-8.321-8.321,8.322,8.322,0,0,1,8.321,8.321" transform="translate(-5.994 -0.398)" fill="#f3f3f3"/>
            <path id="Path_1021960" data-name="Path 1021960" d="M240.022,23.367a5.932,5.932,0,1,1-5.931-5.932,5.931,5.931,0,0,1,5.931,5.932" transform="translate(-6.059 -0.463)" fill="#c0c7e9"/>
            <path id="Path_1021961" data-name="Path 1021961" d="M251.907,23.274a9.362,9.362,0,1,1-9.362-9.362,9.362,9.362,0,0,1,9.362,9.362" transform="translate(-6.192 -0.369)" fill="#fff"/>
            <path id="Path_1021962" data-name="Path 1021962" d="M250.894,23.3a8.321,8.321,0,1,1-8.321-8.321,8.321,8.321,0,0,1,8.321,8.321" transform="translate(-6.221 -0.398)" fill="#f3f3f3"/>
            <path id="Path_1021963" data-name="Path 1021963" d="M248.57,23.367a5.932,5.932,0,1,1-5.931-5.932,5.931,5.931,0,0,1,5.931,5.932" transform="translate(-6.286 -0.463)" fill="#c0c7e9"/>
            <path id="Path_1021964" data-name="Path 1021964" d="M285.837,23.266a17.966,17.966,0,0,0-3.7-5.306q.393-1.789.785-3.575l-4.242.132.45,3.443a19.874,19.874,0,0,0-3.9,13.648h12.2a18.106,18.106,0,0,0-1.591-8.341" transform="translate(-7.307 -0.382)" fill="#c0c7e9"/>
            <path id="Path_1021965" data-name="Path 1021965" d="M277.71,27.126l-.693-.017a11.025,11.025,0,0,1,2.027-6.1l.566.4a10.315,10.315,0,0,0-1.9,5.718" transform="translate(-7.356 -0.558)" fill="#fdeaea"/>
            <path id="Path_1021966" data-name="Path 1021966" d="M255.36,24.344A5.622,5.622,0,0,0,256.6,29.5a11.388,11.388,0,0,0,2.585,2.286l8.29.082a10.231,10.231,0,0,0,3.406-2.576,4.225,4.225,0,0,0,.584-4.744l-16.1-.208" transform="translate(-6.776 -0.646)" fill="#4a8b65"/>
            <path id="Path_1021967" data-name="Path 1021967" d="M228.628,41.532H227.06V39.374h-6.876v9.674a.9.9,0,0,0,.9.9h5.08a.9.9,0,0,0,.9-.9V47.457h1.567a.83.83,0,0,0,.918-.7V42.227a.83.83,0,0,0-.918-.7m-.069,3.942a.831.831,0,0,1-.919.7h-.579V42.82h.579a.831.831,0,0,1,.919.7Z" transform="translate(-5.847 -1.046)" fill="#f35c3d"/>
            <path id="Path_1021968" data-name="Path 1021968" d="M238.262,45.068a1.355,1.355,0,0,0-.521.1v-.663h-7.013V48.6a1.486,1.486,0,0,0,1.485,1.486h4.041a1.487,1.487,0,0,0,1.486-1.486V47.338a1.373,1.373,0,0,0,.521.1,1.191,1.191,0,1,0,0-2.373m0,1.714a.646.646,0,0,1-.521-.251v-.553a.648.648,0,0,1,.521-.25.535.535,0,1,1,0,1.054" transform="translate(-6.127 -1.182)" fill="#febf60"/>
            <path id="Path_1021969" data-name="Path 1021969" d="M272.749,45.316a1.355,1.355,0,0,0-.521.1v-.663h-7.013v4.087a1.486,1.486,0,0,0,1.485,1.486h4.042a1.487,1.487,0,0,0,1.486-1.486V47.586a1.372,1.372,0,0,0,.521.1,1.191,1.191,0,1,0,0-2.373m0,1.714a.648.648,0,0,1-.521-.251v-.553a.647.647,0,0,1,.521-.25.535.535,0,1,1,0,1.054" transform="translate(-7.043 -1.189)" fill="#af503a"/>
            <path id="Path_1021970" data-name="Path 1021970" d="M255.466,49.969h-3.822l-1.156-9.731h6.135Z" transform="translate(-6.652 -1.069)" fill="#febf60"/>
            <g id="Group_1198073" data-name="Group 1198073" transform="translate(244.796 41.971)" opacity="0.49">
              <g id="Group_1198072" data-name="Group 1198072">
                <g id="Group_1198071" data-name="Group 1198071" clip-path="url(#clip-path-8)">
                  <path id="Path_1021971" data-name="Path 1021971" d="M252.478,50.045h-.37l-.635-6.929H252Z" transform="translate(-251.474 -43.116)" fill="#fff"/>
                </g>
              </g>
            </g>
            <g id="Group_1198076" data-name="Group 1198076" transform="translate(246.025 41.971)" opacity="0.49">
              <g id="Group_1198075" data-name="Group 1198075">
                <g id="Group_1198074" data-name="Group 1198074" clip-path="url(#clip-path-9)">
                  <path id="Path_1021972" data-name="Path 1021972" d="M253.371,50.045H253l-.264-6.929h.529Z" transform="translate(-252.737 -43.116)" fill="#fff"/>
                </g>
              </g>
            </g>
            <g id="Group_1198079" data-name="Group 1198079" transform="translate(247.15 41.971)" opacity="0.49">
              <g id="Group_1198078" data-name="Group 1198078">
                <g id="Group_1198077" data-name="Group 1198077" clip-path="url(#clip-path-9)">
                  <path id="Path_1021973" data-name="Path 1021973" d="M254.262,50.045h-.37L254,43.116h.53Z" transform="translate(-253.892 -43.116)" fill="#fff"/>
                </g>
              </g>
            </g>
            <g id="Group_1198082" data-name="Group 1198082" transform="translate(248.008 41.971)" opacity="0.49">
              <g id="Group_1198081" data-name="Group 1198081">
                <g id="Group_1198080" data-name="Group 1198080" clip-path="url(#clip-path-11)">
                  <path id="Path_1021974" data-name="Path 1021974" d="M255.144,50.045h-.37l.477-6.929h.53Z" transform="translate(-254.774 -43.116)" fill="#fff"/>
                </g>
              </g>
            </g>
            <path id="Path_1021975" data-name="Path 1021975" d="M261.531,44.289a1.615,1.615,0,0,0,1.615-1.615V37.535h-4.977v5.139a1.615,1.615,0,0,0,1.615,1.615h.4v5.028h-1.7v.58h4.343v-.58h-1.7V44.289Z" transform="translate(-6.856 -0.997)" fill="#c0c7e9"/>
            <g id="Group_1198085" data-name="Group 1198085" transform="translate(251.547 37.418)" opacity="0.29">
              <g id="Group_1198084" data-name="Group 1198084">
                <g id="Group_1198083" data-name="Group 1198083" clip-path="url(#clip-path-12)">
                  <path id="Path_1021976" data-name="Path 1021976" d="M259.006,38.439c-.165-.018-1.315,3.578.1,4.814.292.255.778.483.912.355.17-.164-.324-.809-.659-1.588a7.141,7.141,0,0,1-.354-3.581" transform="translate(-258.409 -38.439)" fill="#fff"/>
                </g>
              </g>
            </g>
            <path id="Path_1021977" data-name="Path 1021977" d="M242,44.289a1.615,1.615,0,0,0,1.615-1.615V37.535h-4.977v5.139a1.615,1.615,0,0,0,1.615,1.615h.4v5.028h-1.7v.58h4.343v-.58h-1.7V44.289Z" transform="translate(-6.337 -0.997)" fill="#c0c7e9"/>
            <g id="Group_1198088" data-name="Group 1198088" transform="translate(232.532 37.418)" opacity="0.29">
              <g id="Group_1198087" data-name="Group 1198087">
                <g id="Group_1198086" data-name="Group 1198086" clip-path="url(#clip-path-12)">
                  <path id="Path_1021978" data-name="Path 1021978" d="M239.473,38.439c-.165-.018-1.315,3.578.1,4.814.292.255.778.483.912.355.17-.164-.324-.809-.659-1.588a7.142,7.142,0,0,1-.354-3.581" transform="translate(-238.876 -38.439)" fill="#fff"/>
                </g>
              </g>
            </g>
            <path id="Path_1021979" data-name="Path 1021979" d="M247.7,44.289a1.615,1.615,0,0,0,1.615-1.615V37.535h-4.977v5.139a1.615,1.615,0,0,0,1.615,1.615h.4v5.028h-1.7v.58H249v-.58h-1.7V44.289Z" transform="translate(-6.489 -0.997)" fill="#c0c7e9"/>
            <g id="Group_1198091" data-name="Group 1198091" transform="translate(238.088 37.418)" opacity="0.29">
              <g id="Group_1198090" data-name="Group 1198090">
                <g id="Group_1198089" data-name="Group 1198089" clip-path="url(#clip-path-14)">
                  <path id="Path_1021980" data-name="Path 1021980" d="M245.18,38.439c-.165-.018-1.315,3.578.1,4.814.292.255.778.483.912.355.17-.164-.324-.809-.659-1.588a7.142,7.142,0,0,1-.354-3.581" transform="translate(-244.583 -38.439)" fill="#fff"/>
                </g>
              </g>
            </g>
            <path id="Path_1021981" data-name="Path 1021981" d="M284.2,46.8a15.024,15.024,0,0,1-8.5-2.985c2.913.153,5.974.238,9.172.234,3.029,0,5.935-.089,8.707-.234A15.1,15.1,0,0,1,284.2,46.8" transform="translate(-7.321 -1.164)" fill="#f35c3d"/>
            <path id="Path_1021982" data-name="Path 1021982" d="M284.2,48.338a15.024,15.024,0,0,1-8.5-2.985c2.913.153,5.974.238,9.172.234,3.029,0,5.935-.089,8.707-.234a15.1,15.1,0,0,1-9.376,2.985" transform="translate(-7.321 -1.204)" fill="#4a8b65"/>
            <path id="Path_1021983" data-name="Path 1021983" d="M284.2,50.147a15.031,15.031,0,0,1-8.5-2.985c2.913.153,5.974.238,9.172.234,3.029,0,5.935-.089,8.707-.234a15.1,15.1,0,0,1-9.376,2.985" transform="translate(-7.321 -1.252)" fill="#f35c3d"/>
            <rect id="Rectangle_462176" data-name="Rectangle 462176" width="77.636" height="2.514" transform="translate(209.577 31.225)" fill="#353e75"/>
            <rect id="Rectangle_462177" data-name="Rectangle 462177" width="77.636" height="2.514" transform="translate(209.577 48.9)" fill="#353e75"/>
            <path id="Path_1021984" data-name="Path 1021984" d="M140.76,76.013a4.1,4.1,0,0,1-.172-1.865c.3.723,1.069,1.109,1.7,1.579a8.213,8.213,0,0,1,1.381,1.376,15.413,15.413,0,0,1,1.307,1.858A15.72,15.72,0,0,1,146,81a15.928,15.928,0,0,1,1.145,4.416q.031.283.051.567a1.915,1.915,0,0,1,.019.505c-.053.236-.312.155-.466.077a1.818,1.818,0,0,1-.636-.587q-.349-.486-.693-.976c-.463-.66-.918-1.326-1.355-2s-.849-1.355-1.238-2.054-.746-1.4-1.067-2.131a20.073,20.073,0,0,1-.84-2.237c-.056-.186-.111-.374-.162-.562" transform="translate(-3.732 -1.969)" fill="#4a8b65"/>
            <path id="Path_1021985" data-name="Path 1021985" d="M147.19,76.3a3.3,3.3,0,0,1,.855-1.671,5.347,5.347,0,0,0,.9,2.5,9.6,9.6,0,0,1,.687,2.113,16.021,16.021,0,0,1,.341,2.462,15,15,0,0,1-.049,2.416,13.848,13.848,0,0,1-.434,2.31,12.918,12.918,0,0,1-.817,2.165c-.083.17-.169.34-.26.506a1.5,1.5,0,0,1-.262.434c-.184.16-.412-.09-.531-.263a2.17,2.17,0,0,1-.343-.934c-.063-.433-.127-.866-.186-1.3-.12-.873-.227-1.745-.31-2.616s-.14-1.722-.161-2.576a24.337,24.337,0,0,1,.061-2.52,17.8,17.8,0,0,1,.361-2.449q.066-.294.142-.581" transform="translate(-3.894 -1.982)" fill="#353e75"/>
            <path id="Path_1021986" data-name="Path 1021986" d="M155.654,76.07a3.3,3.3,0,0,1,1.729-.732,5.348,5.348,0,0,0-.915,2.5,9.567,9.567,0,0,1-.83,2.061A16.08,16.08,0,0,1,154.317,82a14.98,14.98,0,0,1-1.589,1.82,13.986,13.986,0,0,1-1.816,1.491,12.923,12.923,0,0,1-2.017,1.135c-.173.078-.348.151-.525.221a1.513,1.513,0,0,1-.479.165c-.244,0-.259-.333-.238-.542a2.174,2.174,0,0,1,.338-.935q.343-.559.691-1.115c.469-.747.947-1.484,1.443-2.2s1-1.411,1.531-2.077a24.315,24.315,0,0,1,1.667-1.892,17.59,17.59,0,0,1,1.85-1.645q.238-.183.482-.354" transform="translate(-3.921 -2.001)" fill="#4a8b65"/>
            <path id="Path_1021987" data-name="Path 1021987" d="M153.013,96.524h-8.848a3.293,3.293,0,0,1-3.293-3.293V85.468h15.434v7.763a3.293,3.293,0,0,1-3.293,3.293" transform="translate(-3.741 -2.27)" fill="#febf60"/>
            <path id="Path_1021988" data-name="Path 1021988" d="M156.3,85.468H140.872v2.371a102.717,102.717,0,0,1,15.433.786Z" transform="translate(-3.741 -2.27)" fill="#af503a"/>
            <path id="Path_1021989" data-name="Path 1021989" d="M156.444,87.291H140.671a.981.981,0,0,1-.98-.981v-.662a.981.981,0,0,1,.98-.981h15.773a.981.981,0,0,1,.981.981v.662a.981.981,0,0,1-.981.981" transform="translate(-3.71 -2.248)" fill="#febf60"/>
            <path id="Path_1021990" data-name="Path 1021990" d="M81.734,76.08c.118-1.139.545-2.538,1.679-2.694.971-.132,1.765.8,2.088,1.725a10.257,10.257,0,0,1,.4,3.365q.013,5.461-.449,10.909a2.007,2.007,0,0,1-.565,1.488,2.332,2.332,0,0,1-1.494.379c-.959-.069-1.274-.872-1.362-1.719-.3-2.865-.465-5.776-.5-8.657a42.423,42.423,0,0,1,.2-4.8" transform="translate(-2.165 -1.949)" fill="#353e75"/>
            <path id="Path_1021991" data-name="Path 1021991" d="M88.2,84.513a1.263,1.263,0,0,0,1.159-1.219,7.628,7.628,0,0,0,.165-1.989,5.863,5.863,0,0,1-.008-1.226,1.323,1.323,0,0,1,.638-1,.57.57,0,0,1,.323-.067c.29.04.437.365.518.646a9.9,9.9,0,0,1,.122,4.983,2.224,2.224,0,0,1-.219.614,2.041,2.041,0,0,1-1.226.809,11.446,11.446,0,0,1-3.969.23,1.136,1.136,0,0,1-.481-.1,1,1,0,0,1-.116-1.426.718.718,0,0,1,.6-.162,10.065,10.065,0,0,0,1.187.055,7.646,7.646,0,0,0,1.306-.154" transform="translate(-2.254 -2.098)" fill="#353e75"/>
            <path id="Path_1021992" data-name="Path 1021992" d="M79.511,82.235A3.76,3.76,0,0,1,78.054,79.8a9.14,9.14,0,0,1-.1-1.514l-.015-1.584c0-.628.07-1.392.64-1.657a.372.372,0,0,1,.259-.037.459.459,0,0,1,.244.258,7.287,7.287,0,0,1,.605,2.485,5.616,5.616,0,0,0,.3,1.437,1.863,1.863,0,0,0,.958,1.065c.176.074.367.11.536.2a1.35,1.35,0,0,1,.645.934,3.137,3.137,0,0,1,.041.885c-.015.2-.062.312-.263.381a2.612,2.612,0,0,1-1.582-.02,2.882,2.882,0,0,1-.813-.4" transform="translate(-2.07 -1.992)" fill="#353e75"/>
            <path id="Path_1021993" data-name="Path 1021993" d="M87.075,96.588H80.337l-1.58-7.233h9.9Z" transform="translate(-2.091 -2.373)" fill="#af503a"/>
            <path id="Path_1021994" data-name="Path 1021994" d="M88.422,90.421l.233-1.066h-9.9l.232,1.063a45.025,45.025,0,0,1,9.434,0" transform="translate(-2.091 -2.373)" fill="#f35c3d"/>
            <rect id="Rectangle_462178" data-name="Rectangle 462178" width="10.76" height="1.229" transform="translate(76.167 86.309)" fill="#af503a"/>
            <path id="Path_1021995" data-name="Path 1021995" d="M83.9,77.305a.651.651,0,0,1,.1-.463.491.491,0,0,1,.669-.008,1.146,1.146,0,0,1,.333.649,4.08,4.08,0,0,1,.064,1.524,4.315,4.315,0,0,1,1.035-1.851,1.677,1.677,0,0,1,.628-.452.758.758,0,0,1,.739.1.775.775,0,0,1,.155.868,1.84,1.84,0,0,1-.6.709,6.138,6.138,0,0,1-1.4.827,1.82,1.82,0,0,1,2.015.612c.335.368.581.945.283,1.344a.827.827,0,0,1-.8.275,1.625,1.625,0,0,1-.773-.424,3.137,3.137,0,0,1-.812-1.178,3.653,3.653,0,0,1-.178,2.261.718.718,0,0,1-.4.456c-.335.1-.625-.27-.72-.605a2.307,2.307,0,0,1,.393-2.017.965.965,0,0,1-1.787-.588.42.42,0,0,1,.116-.278.529.529,0,0,1,.32-.1,2.756,2.756,0,0,1,.8.016c.191.037.506.074.348-.223a3.418,3.418,0,0,1-.518-1.449" transform="translate(-2.2 -2.036)" fill="#f35c3d"/>
            <path id="Path_1021996" data-name="Path 1021996" d="M84.152,74.088l1.112-1.112-.773,1.5s-.123.3-.339-.386" transform="translate(-2.235 -1.938)" fill="#353e75"/>
            <path id="Path_1021997" data-name="Path 1021997" d="M85.519,76.3a5.494,5.494,0,0,1,.927-.667l-.8.988s-.232.077-.128-.321" transform="translate(-2.27 -2.009)" fill="#353e75"/>
            <path id="Path_1021998" data-name="Path 1021998" d="M83.305,75.608,82.92,74.5v1.242s.285.319.385-.134" transform="translate(-2.202 -1.978)" fill="#353e75"/>
            <path id="Path_1021999" data-name="Path 1021999" d="M82,75.88l-.823-.311.7.565s.185.091.118-.254" transform="translate(-2.156 -2.007)" fill="#353e75"/>
            <path id="Path_1022000" data-name="Path 1022000" d="M81.862,79.244l-.856-.52.7.788s.235.067.151-.269" transform="translate(-2.151 -2.091)" fill="#353e75"/>
            <path id="Path_1022001" data-name="Path 1022001" d="M83.316,83.466c-.022-.048.521-1.208.521-1.208l-.185,1.292s-.151.3-.336-.084" transform="translate(-2.213 -2.184)" fill="#353e75"/>
            <path id="Path_1022002" data-name="Path 1022002" d="M85.78,83.58l.973-.2-.973.52s-.159-.032,0-.318" transform="translate(-2.276 -2.214)" fill="#353e75"/>
            <path id="Path_1022003" data-name="Path 1022003" d="M87.954,84.852l.167-.939.087.939s-.162.134-.254,0" transform="translate(-2.336 -2.228)" fill="#353e75"/>
            <path id="Path_1022004" data-name="Path 1022004" d="M89.867,81.957l-.672-.3h.672s.227.069,0,.3" transform="translate(-2.369 -2.168)" fill="#353e75"/>
            <path id="Path_1022005" data-name="Path 1022005" d="M90.419,79.659l.285-1.194v1.194s-.184.339-.285,0" transform="translate(-2.401 -2.084)" fill="#353e75"/>
            <path id="Path_1022006" data-name="Path 1022006" d="M91.211,81.335l.57-.318-.57.553s-.067,0,0-.235" transform="translate(-2.421 -2.151)" fill="#353e75"/>
            <path id="Path_1022007" data-name="Path 1022007" d="M91.107,83.913l.587.5-.587-.249s-.185-.166,0-.25" transform="translate(-2.417 -2.228)" fill="#353e75"/>
            <path id="Path_1022008" data-name="Path 1022008" d="M89.988,85.943l.336.6-.168-.717s-.131-.144-.167.118" transform="translate(-2.39 -2.278)" fill="#353e75"/>
            <path id="Path_1022009" data-name="Path 1022009" d="M86.4,86.794l.185-.5a.118.118,0,0,1,.184,0c.1.1-.369.5-.369.5" transform="translate(-2.294 -2.29)" fill="#353e75"/>
            <path id="Path_1022010" data-name="Path 1022010" d="M82.614,86.956l-1.082-.3.814.57s.4.033.269-.269" transform="translate(-2.165 -2.301)" fill="#353e75"/>
            <path id="Path_1022011" data-name="Path 1022011" d="M79.631,82.086l-.47.629.655-.461s.117-.167-.185-.167" transform="translate(-2.102 -2.18)" fill="#353e75"/>
            <path id="Path_1022012" data-name="Path 1022012" d="M77.558,78.724l.7.259s.134.228,0,.295-.7-.554-.7-.554" transform="translate(-2.06 -2.091)" fill="#353e75"/>
            <path id="Path_1022013" data-name="Path 1022013" d="M78.192,75.986l-.134-1.124.4,1s-.115.331-.269.126" transform="translate(-2.073 -1.988)" fill="#353e75"/>
            <path id="Path_1022014" data-name="Path 1022014" d="M79.334,77.1l.509-.2-.509.4s-.034-.034,0-.2" transform="translate(-2.106 -2.042)" fill="#353e75"/>
            <path id="Path_1022015" data-name="Path 1022015" d="M226.479,93.066l1.249.78c.087.055.187.107.267.024a.825.825,0,0,0,.13-.385q.234-1.339.468-2.678a6.718,6.718,0,0,0,.693,2.777l1.077-1.508a1.463,1.463,0,0,0,.667,1.56c.4.112.793-.508,1.162-.808.07-.057.528-.315.213.309-.049.1.026.253.045.381a.324.324,0,0,0,.38.3c.39-.028,1.154-1.213,1.544-1.241-.121.471-.613,2.1-.735,2.57a1.455,1.455,0,0,1-.119.348.521.521,0,0,1-.287.227,13.478,13.478,0,0,1-3.6.965,1.407,1.407,0,0,1-1.521-.567,12.721,12.721,0,0,1-1.142-1.726q-.145-.3-.269-.637a4.472,4.472,0,0,0-.225-.693" transform="translate(-6.014 -2.411)" fill="#f35c3d"/>
            <path id="Path_1022016" data-name="Path 1022016" d="M237.4,97.807h-.05l-14.067-.518a1.335,1.335,0,0,1-1.291-1.338v-.715a1.341,1.341,0,0,1,1.339-1.338H237.4a1.341,1.341,0,0,1,1.339,1.338v1.233a1.341,1.341,0,0,1-1.338,1.339m-14.068-3.322a.75.75,0,0,0-.75.75v.715a.747.747,0,0,0,.722.749l14.067.518a.748.748,0,0,0,.777-.749V95.234a.75.75,0,0,0-.75-.75Z" transform="translate(-5.895 -2.493)" fill="#353e75"/>
            <path id="Path_1022017" data-name="Path 1022017" d="M255.481,97.807h-.051l-14.067-.518a1.335,1.335,0,0,1-1.29-1.338v-.715a1.341,1.341,0,0,1,1.339-1.338H255.48a1.34,1.34,0,0,1,1.338,1.338v1.233a1.339,1.339,0,0,1-1.338,1.339m-14.068-3.322a.75.75,0,0,0-.75.75v.715a.747.747,0,0,0,.722.749l14.066.518a.725.725,0,0,0,.548-.209.745.745,0,0,0,.23-.539V95.234a.75.75,0,0,0-.75-.75Z" transform="translate(-6.375 -2.493)" fill="#353e75"/>
            <rect id="Rectangle_462179" data-name="Rectangle 462179" width="6.949" height="1.636" transform="translate(238.423 93.158)" fill="#353e75"/>
            <rect id="Rectangle_462180" data-name="Rectangle 462180" width="7.967" height="1.636" transform="translate(220.531 93.158)" fill="#353e75"/>
            <rect id="Rectangle_462181" data-name="Rectangle 462181" width="226.215" height="69.379" transform="translate(65.818 93.976)" fill="#fd8d4b"/>
            <rect id="Rectangle_462182" data-name="Rectangle 462182" width="226.215" height="6.035" transform="translate(65.818 93.975)" fill="#353e75"/>
            <path id="Path_1022018" data-name="Path 1022018" d="M113.061,160.314H72.105V105.646h40.956Zm-39.982-.973h39.009V106.619H73.078Z" transform="translate(-1.915 -2.806)" fill="#febf60"/>
            <path id="Path_1022019" data-name="Path 1022019" d="M158.907,160.314H117.951V105.646h40.956Zm-39.982-.973h39.009V106.619H118.924Z" transform="translate(-3.132 -2.806)" fill="#febf60"/>
            <path id="Path_1022020" data-name="Path 1022020" d="M204.754,160.314H163.8V105.646h40.956Zm-39.982-.973H203.78V106.619H164.771Z" transform="translate(-4.35 -2.806)" fill="#febf60"/>
            <path id="Path_1022021" data-name="Path 1022021" d="M250.6,160.314H209.644V105.646H250.6Zm-39.982-.973h39.009V106.619H210.617Z" transform="translate(-5.567 -2.806)" fill="#febf60"/>
            <path id="Path_1022022" data-name="Path 1022022" d="M296.447,160.314H255.491V105.646h40.956Zm-39.982-.973h39.009V106.619H256.464Z" transform="translate(-6.785 -2.806)" fill="#febf60"/>
            <path id="Path_1022023" data-name="Path 1022023" d="M52.663,174.878c1.248-.76,3.2-2.038,3.2-2.038l3.381,3.23-1.262,2.422.456.666a13.462,13.462,0,0,1-5.772-4.279" transform="translate(-1.399 -4.59)" fill="#fdb2a5"/>
            <path id="Path_1022024" data-name="Path 1022024" d="M51.73,175.419c.18-.09.483-.268.84-.485a13.468,13.468,0,0,0,5.772,4.279c1.179,1.728,4.274,6.29,4.641,7.105.454,1.009-1.564,1.918-1.666,2.22s-12.111-8.579-12.111-8.579a4.381,4.381,0,0,1,2.523-4.541" transform="translate(-1.305 -4.646)" fill="#333"/>
            <path id="Path_1022025" data-name="Path 1022025" d="M81.51,179.555c.2-1.4.448-3.105.448-3.105l5.248-.706.1,3.33s.893.352,2.147.854c-2.509.975-5.3.46-7.943-.373" transform="translate(-2.165 -4.667)" fill="#fdb2a5"/>
            <path id="Path_1022026" data-name="Path 1022026" d="M81.5,179.659c2.644.833,5.435,1.348,7.943.373,2.772,1.107,7.32,2.937,7.945,3.284.908.5,0,2.826,0,2.826l-15.441-.4c-1.515-1.211-.808-3.734-.707-4.34.037-.222.141-.931.259-1.74" transform="translate(-2.151 -4.771)" fill="#333"/>
            <path id="Path_1022027" data-name="Path 1022027" d="M53.124,129.089s28.158,8.074,29.369,8.882,2.322,2.926,2.725,4.844,3.028,32.6,3.028,32.6-5.552,2.422-8.579.908l-4.642-29.874-32.6-4.541-5.349-8.175Z" transform="translate(-0.985 -3.428)" fill="#353e75"/>
            <g id="Group_1198094" data-name="Group 1198094" transform="translate(36.093 125.66)" opacity="0.15" style="mix-blend-mode: overlay;isolation: isolate">
              <g id="Group_1198093" data-name="Group 1198093">
                <g id="Group_1198092" data-name="Group 1198092" clip-path="url(#clip-path-15)">
                  <path id="Path_1022028" data-name="Path 1022028" d="M42.426,141.906l-5.349-8.175,16.047-4.642s28.158,8.074,29.369,8.882,2.321,2.926,2.725,4.844c.119.562.427,3.595.805,7.6a25.89,25.89,0,0,1-8.441,12.494l-2.557-16.46Z" transform="translate(-37.077 -129.089)"/>
                </g>
              </g>
            </g>
            <path id="Path_1022029" data-name="Path 1022029" d="M51.351,128.155s28.057,14.432,29.672,16.854,2.019,5.046,1.211,6.964-23.212,24.82-23.212,24.82l-5.249-4.636,15.239-21.4s-29.772-7.872-31.387-9.991a23.454,23.454,0,0,1-2.725-5.046Z" transform="translate(-0.927 -3.403)" fill="#353e75"/>
            <path id="Path_1022030" data-name="Path 1022030" d="M48.593,77.248c1.445,4.307,1.127,5.638,2.433,6.517.752.507,1.642.479,3.406.378.916-.053,8.489-.488,9.938-4.307.223-.589.124-.79.493-1.724.839-2.123,1.82-2.259,2.093-3.509.359-1.646-.942-3.253-1.847-4.37a7.319,7.319,0,0,0-2.832-2.278,8.143,8.143,0,0,0-3.2-.554,21.533,21.533,0,0,0-4.953.492c-2.537.483-3.784.749-4.572,1.381a6.069,6.069,0,0,0-2.02,4.147c-.069,1.125.277,1.484,1.063,3.828" transform="translate(-1.262 -1.79)" fill="#333"/>
            <path id="Path_1022031" data-name="Path 1022031" d="M48.768,88.616a77.865,77.865,0,0,0,3.758-7.737l7.25,2.765-2.809,7.024s.369.379.905.988c-3.4.615-7.125-.339-9.1-3.04" transform="translate(-1.295 -2.148)" fill="#fdb2a5"/>
            <path id="Path_1022032" data-name="Path 1022032" d="M51.817,82.686c.475-1.061.79-1.807.79-1.807l7.25,2.765-1.483,3.708a9.355,9.355,0,0,1-6.558-4.666" transform="translate(-1.376 -2.148)" fill="#f35c3d"/>
            <path id="Path_1022033" data-name="Path 1022033" d="M33.863,126.3a33.928,33.928,0,0,1,.972-7.281c1.8-8.126,2.693-12.19,4.935-16.854a72.185,72.185,0,0,1,7.716-12.2c.367-.483.676-.879.884-1.144,1.98,2.7,5.7,3.655,9.106,3.04,1.48,1.683,4.268,5.173,4.343,7.692.1,3.431-4.542,29.066-4.542,29.066a22.144,22.144,0,0,0-4.753,2.66c-2.331,1.716-2.252,2.377-4.01,3.655-.632.46-5.28,3.738-10.023,2.123a8.965,8.965,0,0,1-3.619-2.384,31.561,31.561,0,0,1-1.009-8.376" transform="translate(-0.899 -2.359)" fill="#fee8e3"/>
            <g id="Group_1198097" data-name="Group 1198097" transform="translate(44.007 89.818)" opacity="0.48" style="mix-blend-mode: overlay;isolation: isolate">
              <g id="Group_1198096" data-name="Group 1198096">
                <g id="Group_1198095" data-name="Group 1198095" clip-path="url(#clip-path-16)">
                  <path id="Path_1022034" data-name="Path 1022034" d="M46.886,94.4c3.211-4.5,9.845-1,14.328,2.365a7.046,7.046,0,0,1,.906,2.882c.049,1.641-.988,8.359-2.083,14.924C52.257,108.688,40.9,102.784,46.886,94.4" transform="translate(-45.207 -92.268)"/>
                </g>
              </g>
            </g>
            <path id="Path_1022035" data-name="Path 1022035" d="M63.985,100.8l7.34,4.322s19.9-1.876,20.632-2.161a5.409,5.409,0,0,1,3.832,0,44.543,44.543,0,0,0,9.216,1.345c1.55-.081,1.224,1.142.734,1.305s-8.808.652-9.623.652H92.2s-20.306,5.67-21.692,5.811-7.5-2.957-7.5-2.957Z" transform="translate(-1.673 -2.677)" fill="#fdb2a5"/>
            <path id="Path_1022036" data-name="Path 1022036" d="M65.812,100.594S54.15,93.091,51.3,93.172s-5.3,1.958-5.464,4.322,1.794,6.035,5.708,7.585,12.233,5.953,12.233,5.953,2.854-7.91,2.038-10.438" transform="translate(-1.217 -2.474)" fill="#fee8e3"/>
            <path id="Path_1022037" data-name="Path 1022037" d="M51.959,81.121a7.322,7.322,0,1,0,3.8-9.634,7.323,7.323,0,0,0-3.8,9.634" transform="translate(-1.364 -1.882)" fill="#fdb2a5"/>
            <path id="Path_1022038" data-name="Path 1022038" d="M53.882,79.979A2.226,2.226,0,1,1,51.815,77.6a2.226,2.226,0,0,1,2.067,2.374" transform="translate(-1.313 -2.061)" fill="#fdb2a5"/>
            <path id="Path_1022039" data-name="Path 1022039" d="M63.145,77.221c.078.173.212.343.382.34a.356.356,0,0,0,.286-.217.906.906,0,0,0,.076-.4,1.137,1.137,0,0,0-.1-.5.5.5,0,0,0-.353-.294c-.567-.081-.452.723-.294,1.074" transform="translate(-1.673 -2.022)" fill="#333"/>
            <path id="Path_1022040" data-name="Path 1022040" d="M60.72,78.208c-.011-.063,1.1-.566,1.459-.145.388.453-.459,1.558-.508,1.536s.489-.864.179-1.251c-.288-.361-1.121-.086-1.13-.14" transform="translate(-1.612 -2.069)" fill="#333"/>
            <path id="Path_1022041" data-name="Path 1022041" d="M57.689,75.161a.49.49,0,0,1,.494.075.517.517,0,0,1-.031.58,1.848,1.848,0,0,1-1.1.864.875.875,0,0,1-.439.026.457.457,0,0,1-.33-.276c-.209-.589,1.012-1.168,1.407-1.269" transform="translate(-1.494 -1.995)" fill="#333"/>
            <path id="Path_1022042" data-name="Path 1022042" d="M62.535,74.371a.516.516,0,0,0-.432.261c-.071.19.082.385.243.5a1.844,1.844,0,0,0,1.345.336.949.949,0,0,0,.419-.149.464.464,0,0,0,.2-.377c-.022-.605-1.374-.64-1.779-.574" transform="translate(-1.649 -1.974)" fill="#333"/>
            <path id="Path_1022043" data-name="Path 1022043" d="M62.324,82.871a2.731,2.731,0,0,1-2.2.3c-.892-.291-1.643-1.124-1.449-1.529.162-.341.856-.1,2.414-.4,1.435-.277,1.924-.686,2.178-.451.342.314-.065,1.485-.942,2.082" transform="translate(-1.557 -2.144)" fill="#fff"/>
            <path id="Path_1022044" data-name="Path 1022044" d="M63.508,76.341a.189.189,0,1,0,.183.17.189.189,0,0,0-.183-.17" transform="translate(-1.682 -2.027)" fill="#fff"/>
            <path id="Path_1022045" data-name="Path 1022045" d="M57.777,78.222c.084.17.224.335.392.326a.353.353,0,0,0,.279-.227.927.927,0,0,0,.062-.4,1.122,1.122,0,0,0-.115-.5.5.5,0,0,0-.362-.282c-.569-.061-.426.739-.257,1.083" transform="translate(-1.53 -2.048)" fill="#333"/>
            <path id="Path_1022046" data-name="Path 1022046" d="M58.108,77.33a.189.189,0,0,0-.167.21.18.18,0,1,0,.167-.21" transform="translate(-1.539 -2.054)" fill="#fff"/>
            <path id="Path_1022047" data-name="Path 1022047" d="M57.155,79.456c-.018-.258.835-.508,1.282-.6.234-.047,1.018-.2,1.11.012s-.5.82-1.207.929c-.547.085-1.17-.128-1.185-.344" transform="translate(-1.518 -2.092)" fill="#f35c3d"/>
            <path id="Path_1022048" data-name="Path 1022048" d="M63.082,78.165c.026-.175.5-.238.935-.294s.945-.124,1.009.037c.076.188-.441.727-1.031.745-.467.014-.941-.3-.913-.488" transform="translate(-1.675 -2.066)" fill="#f35c3d"/>
            <path id="Path_1022049" data-name="Path 1022049" d="M52.2,80.624a.2.2,0,0,0,.071-.316,3.155,3.155,0,0,0-1.66-.68.2.2,0,1,0-.05.4,2.729,2.729,0,0,1,1.407.545.2.2,0,0,0,.232.053" transform="translate(-1.338 -2.115)" fill="#f35c3d"/>
            <path id="Path_1022050" data-name="Path 1022050" d="M60.155,73.492c-1.439.678-3.124.211-4.673-.151a1.4,1.4,0,0,0-1.189.09,1.424,1.424,0,0,0-.385,1.027q-.187,2.038-.373,4.079a1.021,1.021,0,0,1-.26.713c-.379.319-.943-.052-1.243-.446a5.5,5.5,0,0,1,.576-7.065,7.233,7.233,0,0,1,1.636-1.127,9.191,9.191,0,0,1,4.912-1.041,7.069,7.069,0,0,1,2.408.6c.517.238,1.794.879,1.008,1.548-.372.315-.79.588-1.167.9a5.949,5.949,0,0,1-1.252.866" transform="translate(-1.355 -1.847)" fill="#333"/>
            <path id="Path_1022051" data-name="Path 1022051" d="M100.009,94.375a1.662,1.662,0,0,1,1.778.541,7.1,7.1,0,0,1,1.16,1.874,10.1,10.1,0,0,1,.93-5.516c.221-.445.573-.915.985-.809a.979.979,0,0,1,.49.416,4.8,4.8,0,0,1,.34,4.615c.5-.551,1.206-.975,1.831-.677s.821,1.617.2,1.925l1.612-1.051a2.535,2.535,0,0,1,1.072-.485.93.93,0,0,1,.969.593c.163.431-.078,1.056-.461,1.051a2.462,2.462,0,0,1,1.977-1.15,3.913,3.913,0,0,1,1.692-.049,1.806,1.806,0,0,1,1.277,1.255,2.393,2.393,0,0,1-.443,1.99,3.869,3.869,0,0,1-1.488,1.1,16.884,16.884,0,0,1-8.94,1.205,6.639,6.639,0,0,1-3.286-.748,7.057,7.057,0,0,1-2.465-2.673c-.463-1.114-.316-2.951.774-3.406" transform="translate(-2.629 -2.402)" fill="#febf60"/>
            <path id="Path_1022052" data-name="Path 1022052" d="M97.8,99.1c.076-.509,1.479-.466,9.235-.41,8.992.065,9.842.026,9.9.41.143,1.012-5.386,4.148-11.379,3.485-4.089-.452-7.881-2.615-7.752-3.485" transform="translate(-2.597 -2.62)" fill="#fdeaea"/>
            <path id="Path_1022053" data-name="Path 1022053" d="M175.94,111.857l-4.023,3.634-3.46-7.7s-.211-5.015-.847-5.887a4.838,4.838,0,0,0-3.106-1.817c-.847.073-2.541.727-1.976,1.018s2.753-.146,3.106.581.917,2.181.141,2.181-2.188-1.962-2.542-1.526a.967.967,0,0,0,.071,1.38c.423.437,3.035,3.5,3.035,3.5s.635,12.273,1.976,13.508a3.577,3.577,0,0,0,3.742.8c.706-.364,6.282-2.835,6.282-2.835Z" transform="translate(-4.313 -2.658)" fill="#fdb2a5"/>
            <path id="Path_1022054" data-name="Path 1022054" d="M166.53,133.234s-7.871,1.55-10.046,2.8-10.35,22.389-10.35,22.389-5.393,4.835-5.74,6a1.193,1.193,0,0,0,.783,1.522s9.48-3.582,9.306-4.567a5.031,5.031,0,0,0-1.218-2.06l12.564-17.91,15.925.985s-5.7-8.383-11.224-9.162" transform="translate(-3.727 -3.538)" fill="#fdb2a5"/>
            <g id="Group_1198100" data-name="Group 1198100" transform="translate(152.003 129.696)" opacity="0.56">
              <g id="Group_1198099" data-name="Group 1198099">
                <g id="Group_1198098" data-name="Group 1198098" clip-path="url(#clip-path-17)">
                  <path id="Path_1022055" data-name="Path 1022055" d="M178.174,142.4s-5.7-8.383-11.224-9.162a70.5,70.5,0,0,0-9.292,2.443c-2.032,3.821-1.591,8.8-1.075,13.81l5.665-8.077Z" transform="translate(-156.15 -133.234)" fill="#f35c3d"/>
                </g>
              </g>
            </g>
            <path id="Path_1022056" data-name="Path 1022056" d="M170.282,135.654s-8.437.806-9.48,2.239-.783,3.761-.7,4.657,3.566,20.418,3.566,20.418-4.783,5.373-4.871,6.269a1.912,1.912,0,0,0,.73,1.522s9.533-3.672,9.794-4.12-2.3-3.672-2.3-3.672l.565-19.612,12.525.806Z" transform="translate(-4.217 -3.602)" fill="#fdb2a5"/>
            <path id="Path_1022057" data-name="Path 1022057" d="M197.051,115.563l2.047,4.07,2.894-6.4s1.553-2.981,2.965-3.2,3.176-1.453,3.246-2.108.424-2.544.848-2.4.565.291.565.727-.353,2.69-.353,3.125-4.729,4.507-4.729,4.507-1.341,11.92-3.106,13.082-2.965.073-3.671,0-5.929-6.687-5.929-6.687.494-5.451,5.223-4.724" transform="translate(-5.094 -2.802)" fill="#fdb2a5"/>
            <path id="Path_1022058" data-name="Path 1022058" d="M197.191,92.489a10.51,10.51,0,0,1-2.47,13.239,36.409,36.409,0,0,1-5.23.059,36.9,36.9,0,0,1-9.314-1.79,20.743,20.743,0,0,0,.994-4.347c.342-2.922-.187-3.864.248-5.627a8.466,8.466,0,0,1,4.471-5.37c3.774-1.764,8.925-.048,11.3,3.836" transform="translate(-4.785 -2.336)" fill="#333"/>
            <path id="Path_1022059" data-name="Path 1022059" d="M191.211,108.864a10.1,10.1,0,0,1,3.478,1.584c1.053.976,2.74,5.643,2.74,5.643s-3.162.434-4.532,1.736a3.2,3.2,0,0,0-.632,3.256S195.427,134,195.111,136.6s-1.264,6.4-3.9,7.054-16.125.543-16.125.543-5.513-11.285-7.842-11.649c0,0,11.295-2.762,11.154-4s-.918-9.812-.918-11.775.07-6.615.988-7.341,5.682-2.025,5.682-2.025Z" transform="translate(-4.441 -2.852)" fill="#4a8b65"/>
            <path id="Path_1022060" data-name="Path 1022060" d="M178.708,109.49s-1.976,2.254-2.4,2.617,1.528,7.125,1.528,7.125Z" transform="translate(-4.68 -2.908)" fill="#4a8b65"/>
            <path id="Path_1022061" data-name="Path 1022061" d="M192.094,101.472l-.421,7.205s-5.8.39-7.061-1.454l2.108-6.837Z" transform="translate(-4.903 -2.666)" fill="#fdb2a5"/>
            <path id="Path_1022062" data-name="Path 1022062" d="M186.745,100.387l-1.183,3.837c2.427-.015,4.585-.149,6.472-1.3l.085-1.454Z" transform="translate(-4.928 -2.666)" fill="#f35c3d"/>
            <path id="Path_1022063" data-name="Path 1022063" d="M193.279,100.724a5.935,5.935,0,0,1-8.414,1.549,6.341,6.341,0,0,1-1.5-8.664,5.936,5.936,0,0,1,8.415-1.549,6.341,6.341,0,0,1,1.5,8.664" transform="translate(-4.84 -2.415)" fill="#fdb2a5"/>
            <path id="Path_1022064" data-name="Path 1022064" d="M192.159,99.476a1.883,1.883,0,0,0,1.586,2.12,1.849,1.849,0,0,0,2.059-1.632,1.882,1.882,0,0,0-1.586-2.12,1.849,1.849,0,0,0-2.059,1.632" transform="translate(-5.103 -2.598)" fill="#fdb2a5"/>
            <path id="Path_1022065" data-name="Path 1022065" d="M185.2,95.635c-.092.131-.228.25-.364.219a.3.3,0,0,1-.2-.229.8.8,0,0,1,0-.347.992.992,0,0,1,.16-.4.415.415,0,0,1,.334-.186c.472.027.248.678.063.944" transform="translate(-4.903 -2.515)" fill="#333"/>
            <path id="Path_1022066" data-name="Path 1022066" d="M186.985,96.861c.018-.051-.8-.655-1.156-.366-.389.313.118,1.375.16,1.366s-.254-.8.058-1.073c.293-.252.923.117.938.073" transform="translate(-4.931 -2.56)" fill="#333"/>
            <path id="Path_1022067" data-name="Path 1022067" d="M189.925,94.827a.394.394,0,0,0-.412-.019.45.45,0,0,0-.069.489,1.562,1.562,0,0,0,.75.905.719.719,0,0,0,.351.1.378.378,0,0,0,.311-.175c.266-.457-.629-1.143-.932-1.295" transform="translate(-5.03 -2.516)" fill="#333"/>
            <path id="Path_1022068" data-name="Path 1022068" d="M186.125,93.36c.136.053.285.142.308.29.026.169-.129.306-.279.379a1.487,1.487,0,0,1-1.143.055.765.765,0,0,1-.314-.195.4.4,0,0,1-.105-.348c.117-.5,1.217-.3,1.534-.181" transform="translate(-4.902 -2.475)" fill="#333"/>
            <path id="Path_1022069" data-name="Path 1022069" d="M184.858,100.463a2.2,2.2,0,0,0,1.731.62c.77-.092,1.514-.661,1.423-1.031-.077-.311-.677-.23-1.888-.742-1.116-.471-1.445-.894-1.69-.741-.327.205-.188,1.249.424,1.893" transform="translate(-4.893 -2.617)" fill="#fff"/>
            <path id="Path_1022070" data-name="Path 1022070" d="M185.06,94.842a.161.161,0,0,1,.108.2.154.154,0,0,1-.185.111.159.159,0,0,1-.1-.2.154.154,0,0,1,.175-.111" transform="translate(-4.91 -2.519)" fill="#fff"/>
            <path id="Path_1022071" data-name="Path 1022071" d="M189.377,97.369c-.1.129-.236.241-.371.205a.3.3,0,0,1-.189-.235.82.82,0,0,1,.015-.347.979.979,0,0,1,.174-.4.413.413,0,0,1,.339-.174c.471.045.226.687.032.946" transform="translate(-5.014 -2.561)" fill="#333"/>
            <path id="Path_1022072" data-name="Path 1022072" d="M189.269,96.572a.162.162,0,0,1,.1.2.155.155,0,0,1-.189.1.161.161,0,0,1-.092-.2.154.154,0,0,1,.179-.105" transform="translate(-5.021 -2.564)" fill="#fff"/>
            <path id="Path_1022073" data-name="Path 1022073" d="M189.65,98.493c.055-.212-.594-.564-.94-.713-.182-.077-.791-.339-.9-.176s.273.767.826.976c.429.163.968.09,1.014-.088" transform="translate(-4.987 -2.591)" fill="#f35c3d"/>
            <path id="Path_1022074" data-name="Path 1022074" d="M185.073,96.427c.007-.151-.368-.282-.709-.4s-.745-.261-.824-.138c-.092.144.239.68.714.793.377.091.811-.093.819-.253" transform="translate(-4.874 -2.545)" fill="#f35c3d"/>
            <path id="Path_1022075" data-name="Path 1022075" d="M193.477,100.305a.184.184,0,0,1-.037-.036.175.175,0,0,1,.03-.239,2.544,2.544,0,0,1,1.455-.289.171.171,0,0,1,.153.184.168.168,0,0,1-.178.157,2.2,2.2,0,0,0-1.228.219.161.161,0,0,1-.2,0" transform="translate(-5.136 -2.649)" fill="#f35c3d"/>
            <path id="Path_1022076" data-name="Path 1022076" d="M189.129,92.383c1.262.583,2.654,1.17,3.328,2.413.434.8.532,1.825,1.2,2.435a2.624,2.624,0,0,0,1.08.543,5.927,5.927,0,0,0,1.777.223.553.553,0,0,0,.351-.094.619.619,0,0,0,.134-.527,8.959,8.959,0,0,0-3.655-6.579,8.445,8.445,0,0,0-4.381-1.524,7.589,7.589,0,0,0-2.338.194c-.793.207.058,1.228.352,1.525a7.156,7.156,0,0,0,2.152,1.391" transform="translate(-4.947 -2.37)" fill="#333"/>
            <path id="Path_1022077" data-name="Path 1022077" d="M192.9,92.915s1.138-2.354,1.912-2.3,1.522,2.963,1.522,2.963l-.637,1.23s-2.6-.01-2.8-1.893" transform="translate(-5.123 -2.406)" fill="#febf60"/>
            <path id="Path_1022078" data-name="Path 1022078" d="M199.061,97.274s1.638-1.833,1.279-2.563-3.254-.547-3.254-.547l-.838,1s1.055,2.507,2.813,2.11" transform="translate(-5.212 -2.5)" fill="#febf60"/>
            <g id="Group_1198103" data-name="Group 1198103" transform="translate(190.009 90.879)" opacity="0.35" style="mix-blend-mode: overlay;isolation: isolate">
              <g id="Group_1198102" data-name="Group 1198102">
                <g id="Group_1198101" data-name="Group 1198101" clip-path="url(#clip-path-18)">
                  <path id="Path_1022079" data-name="Path 1022079" d="M196.4,93.651s-.029-.114-.082-.293c-.83.065-1.054.7-1.125,1.469a4.284,4.284,0,0,0,.569.055Z" transform="translate(-195.193 -93.358)"/>
                </g>
              </g>
            </g>
            <g id="Group_1198106" data-name="Group 1198106" transform="translate(191.035 91.644)" opacity="0.35" style="mix-blend-mode: overlay;isolation: isolate">
              <g id="Group_1198105" data-name="Group 1198105">
                <g id="Group_1198104" data-name="Group 1198104" clip-path="url(#clip-path-19)">
                  <path id="Path_1022080" data-name="Path 1022080" d="M198.1,94.146c-.565-.01-1.014.018-1.014.018l-.839,1a5.33,5.33,0,0,0,.451.806,1.779,1.779,0,0,0,1.4-1.823" transform="translate(-196.247 -94.144)"/>
                </g>
              </g>
            </g>
            <path id="Path_1022081" data-name="Path 1022081" d="M196.409,93.659a1.048,1.048,0,0,1,.731.379c.327.378-.341,1.785-.822,1.585s-.979-.722-.663-1.154a5.668,5.668,0,0,1,.753-.81" transform="translate(-5.193 -2.487)" fill="#febf60"/>
            <path id="Path_1022082" data-name="Path 1022082" d="M148.664,108.934h-1.327v-1.827h-5.821V115.3a.76.76,0,0,0,.759.76h4.3a.761.761,0,0,0,.76-.76v-1.346h1.327a.7.7,0,0,0,.778-.588v-3.841a.7.7,0,0,0-.778-.588m-.058,3.338a.7.7,0,0,1-.778.589h-.491v-2.837h.491a.7.7,0,0,1,.778.589Z" transform="translate(-3.758 -2.844)" fill="#fdeaea"/>
            <path id="Path_1022083" data-name="Path 1022083" d="M108.25,108.636v4.343a.8.8,0,0,0,.879.666h1.5v1.521a.86.86,0,0,0,.86.86h4.864a.86.86,0,0,0,.86-.86V105.9h-6.583v2.066h-1.5a.8.8,0,0,0-.879.665m.945,1.233a.8.8,0,0,1,.88-.666h.554v3.207h-.554a.8.8,0,0,1-.88-.666Z" transform="translate(-2.875 -2.812)" fill="#fdeaea"/>
            <path id="Path_1022084" data-name="Path 1022084" d="M200.307,148.734h4.66a138.73,138.73,0,0,0,0,37.587h-3.924a186.54,186.54,0,0,0,.524-21.1c-.189-5.92-.647-11.433-1.26-16.485" transform="translate(-5.319 -3.95)" fill="#af503a"/>
            <path id="Path_1022085" data-name="Path 1022085" d="M176.387,148.734h-4.66a138.73,138.73,0,0,1,0,37.587h3.924a186.544,186.544,0,0,1-.524-21.1c.189-5.92.647-11.433,1.26-16.485" transform="translate(-4.56 -3.95)" fill="#af503a"/>
            <path id="Path_1022086" data-name="Path 1022086" d="M201.761,143.6a82.143,82.143,0,0,0-.833-32.662h3.924V147.73H169.743V143.6Z" transform="translate(-4.508 -2.946)" fill="#af503a"/>
            <rect id="Rectangle_462188" data-name="Rectangle 462188" width="27.605" height="2.481" transform="translate(169.334 152.737)" fill="#af503a"/>
            <rect id="Rectangle_462189" data-name="Rectangle 462189" width="27.605" height="2.481" transform="translate(169.334 158.306)" fill="#af503a"/>
            <path id="Path_1022087" data-name="Path 1022087" d="M37.349,148.734H31.788a116.65,116.65,0,0,1,1.5,16.485,116.586,116.586,0,0,1-1.5,21.1h4.683a156.345,156.345,0,0,1,.878-37.587" transform="translate(-0.844 -3.95)" fill="#af503a"/>
            <path id="Path_1022088" data-name="Path 1022088" d="M65.892,148.734h5.561a116.5,116.5,0,0,0,0,37.587H66.77a156.467,156.467,0,0,0,.625-21.1,156.608,156.608,0,0,0-1.5-16.485" transform="translate(-1.75 -3.95)" fill="#af503a"/>
            <path id="Path_1022089" data-name="Path 1022089" d="M34.622,143.6a69.138,69.138,0,0,1,.995-32.662H30.934V147.73H72.828V143.6Z" transform="translate(-0.821 -2.946)" fill="#af503a"/>
            <rect id="Rectangle_462190" data-name="Rectangle 462190" width="32.94" height="2.481" transform="translate(33.637 152.79)" fill="#af503a"/>
            <rect id="Rectangle_462191" data-name="Rectangle 462191" width="32.94" height="2.481" transform="translate(33.637 158.359)" fill="#af503a"/>
            <path id="Path_1022090" data-name="Path 1022090" d="M128.646,102.852a7.736,7.736,0,0,0-.874-2.108,10.781,10.781,0,0,0-1.88-2.03l-2.019-1.84c.682,2.616,3.359,4.573,4.375,7.112a9.7,9.7,0,0,1,.585,3c.068,1.022.072,2.047.208,3.065.034.251.076.5.129.751.015.07.083.543.292.366.069-.058.037-.269.043-.348.009-.134.016-.27.022-.4q.019-.4.023-.8a23.439,23.439,0,0,0-.181-3.219,23.68,23.68,0,0,0-.622-3.168q-.05-.185-.1-.371" transform="translate(-3.29 -2.573)" fill="#4a8b65"/>
            <path id="Path_1022091" data-name="Path 1022091" d="M130.117,102.934a6,6,0,0,1,.673-1.624,8.339,8.339,0,0,1,1.448-1.562l1.555-1.416c-.526,2.014-2.586,3.521-3.368,5.476a7.449,7.449,0,0,0-.451,2.306c-.052.787-.055,1.576-.161,2.36-.026.194-.058.386-.1.578-.012.054-.063.418-.225.281-.053-.045-.028-.207-.032-.268q-.01-.156-.018-.312c-.01-.205-.017-.411-.018-.616a17.886,17.886,0,0,1,.14-2.477,18.26,18.26,0,0,1,.478-2.438q.038-.143.079-.286" transform="translate(-3.437 -2.611)" fill="#4a8b65"/>
            <path id="Path_1022092" data-name="Path 1022092" d="M127.816,107.94v-3.526H130.8v3.521a4.827,4.827,0,0,1,2.541,3.908,4.923,4.923,0,0,1-3.067,4.392l-2.333-.053c-.235-.141-2.825-1.765-2.668-4.34a4.94,4.94,0,0,1,2.542-3.9" transform="translate(-3.327 -2.773)" fill="#c0c7e9"/>
            <path id="Path_1022093" data-name="Path 1022093" d="M131.281,109.24a3.187,3.187,0,0,1,1.336,2.282,3.734,3.734,0,0,1-1.47,3.283,7.673,7.673,0,0,0,.735-3.228,14.606,14.606,0,0,0-.6-2.337" transform="translate(-3.482 -2.901)" fill="#fff"/>
            <path id="Path_1022094" data-name="Path 1022094" d="M128.467,103.038a.18.18,0,0,1,.072-.186.557.557,0,0,1,.473,0,.461.461,0,0,1,.237.262.957.957,0,0,1,.044.613,1.811,1.811,0,0,1,.734-.745,1.389,1.389,0,0,1,.444-.182.887.887,0,0,1,.523.04.224.224,0,0,1,.11.349,1.073,1.073,0,0,1-.427.284,5.653,5.653,0,0,1-.99.333,1.951,1.951,0,0,1,1.426.247c.237.148.411.38.2.54a.878.878,0,0,1-.568.11,1.517,1.517,0,0,1-.547-.17,1.555,1.555,0,0,1-.574-.474.9.9,0,0,1-.127.91.426.426,0,0,1-.282.183.5.5,0,0,1-.51-.244.638.638,0,0,1,.278-.811,1.018,1.018,0,0,1-.8.169c-.291-.055-.5-.233-.466-.406a.147.147,0,0,1,.082-.112.6.6,0,0,1,.227-.042,3.513,3.513,0,0,1,.564.007c.134.015.357.03.245-.09a1.092,1.092,0,0,1-.367-.583" transform="translate(-3.392 -2.729)" fill="#f35c3d"/>
            <path id="Path_1022095" data-name="Path 1022095" d="M128.848,100.181A.2.2,0,0,1,128.9,100a.333.333,0,0,1,.356,0,.438.438,0,0,1,.177.256,1.2,1.2,0,0,1,.034.6,1.653,1.653,0,0,1,.552-.729.914.914,0,0,1,.335-.178.523.523,0,0,1,.393.039.25.25,0,0,1,.083.342.831.831,0,0,1-.322.279,3.657,3.657,0,0,1-.746.327,1.193,1.193,0,0,1,1.075.24c.178.145.31.373.151.53a.537.537,0,0,1-.428.109.988.988,0,0,1-.412-.167,1.315,1.315,0,0,1-.433-.464,1.1,1.1,0,0,1-.094.891.333.333,0,0,1-.213.18.359.359,0,0,1-.384-.239.73.73,0,0,1,.209-.794.629.629,0,0,1-.6.165.41.41,0,0,1-.351-.4.152.152,0,0,1,.062-.11.355.355,0,0,1,.17-.04,1.933,1.933,0,0,1,.424.006c.1.015.27.029.185-.088a1.153,1.153,0,0,1-.276-.571" transform="translate(-3.407 -2.654)" fill="#f35c3d"/>
            <path id="Path_1022096" data-name="Path 1022096" d="M127.431,99a.128.128,0,0,1,.034-.115.207.207,0,0,1,.223,0,.269.269,0,0,1,.111.16.758.758,0,0,1,.021.376,1.04,1.04,0,0,1,.346-.457.575.575,0,0,1,.209-.111.328.328,0,0,1,.246.024.157.157,0,0,1,.053.214.534.534,0,0,1-.2.175,2.269,2.269,0,0,1-.467.2.746.746,0,0,1,.673.152c.111.091.194.233.094.331a.335.335,0,0,1-.268.068.6.6,0,0,1-.258-.105.816.816,0,0,1-.272-.29.683.683,0,0,1-.059.558.206.206,0,0,1-.132.112.224.224,0,0,1-.24-.149.456.456,0,0,1,.13-.5.4.4,0,0,1-.377.1.256.256,0,0,1-.22-.248.1.1,0,0,1,.039-.069.223.223,0,0,1,.107-.025,1.213,1.213,0,0,1,.266,0c.063.009.168.018.116-.055a.714.714,0,0,1-.173-.357" transform="translate(-3.375 -2.625)" fill="#f35c3d"/>
            <path id="Path_1022097" data-name="Path 1022097" d="M103.1,109.573a6.281,6.281,0,0,0-1.066-1.214,5.662,5.662,0,0,0-3.112-1.065,6.67,6.67,0,0,0-4.767.865,9.4,9.4,0,0,0-1.677,1.764.723.723,0,0,0-.2.434c0,.263.243.424.458.505a6.018,6.018,0,0,0,2.264.265c2.314-.046,4.623-.262,6.935-.358q.626-.026,1.254-.042l.32-.008c.06,0,.209.029.253-.028.083-.11-.181-.416-.234-.5-.137-.21-.277-.419-.423-.621" transform="translate(-2.45 -2.847)" fill="#febf60"/>
            <path id="Path_1022098" data-name="Path 1022098" d="M94.783,116.024h5.546a4.82,4.82,0,0,0,4.82-4.82v-1.512H89.963V111.2a4.82,4.82,0,0,0,4.821,4.82" transform="translate(-2.389 -2.913)" fill="#fdeaea"/>
            <path id="Path_1022099" data-name="Path 1022099" d="M90.146,111.53a9.272,9.272,0,0,1-.183-1.838H105.15a9.263,9.263,0,0,1-.151,1.651c-5.084,1.658-9.809-.473-14.853.187" transform="translate(-2.389 -2.913)" fill="#bcc7d4"/>
            <rect id="Rectangle_462192" data-name="Rectangle 462192" width="16.194" height="1.73" transform="translate(87.105 106.28)" fill="#fdeaea"/>
            <path id="Path_1022100" data-name="Path 1022100" d="M164.617,110.1a6.1,6.1,0,0,0-1.066-1.166,5.814,5.814,0,0,0-3.112-1.023,6.9,6.9,0,0,0-4.767.831,9.223,9.223,0,0,0-1.677,1.695.682.682,0,0,0-.2.417c0,.253.243.408.458.486a6.236,6.236,0,0,0,2.264.254c2.314-.043,4.623-.252,6.935-.344.418-.018.835-.03,1.254-.041l.32-.007c.06,0,.209.027.253-.027.083-.106-.181-.4-.234-.478-.137-.2-.277-.4-.423-.6" transform="translate(-4.084 -2.864)" fill="#febf60"/>
            <path id="Path_1022101" data-name="Path 1022101" d="M156.205,116.3h5.737a4.724,4.724,0,0,0,4.725-4.724v-1.358H151.48v1.358a4.724,4.724,0,0,0,4.725,4.724" transform="translate(-4.023 -2.927)" fill="#fdeaea"/>
            <path id="Path_1022102" data-name="Path 1022102" d="M151.663,111.984a8.569,8.569,0,0,1-.183-1.766h15.187a8.567,8.567,0,0,1-.151,1.587c-5.084,1.593-9.809-.456-14.853.179" transform="translate(-4.023 -2.927)" fill="#bcc7d4"/>
            <rect id="Rectangle_462193" data-name="Rectangle 462193" width="16.194" height="1.662" transform="translate(146.988 106.811)" fill="#fdeaea"/>
            <rect id="Rectangle_462194" data-name="Rectangle 462194" width="98.259" height="4.699" transform="translate(72.763 115.106)" fill="#af503a"/>
            <rect id="Rectangle_462195" data-name="Rectangle 462195" width="104.378" height="3.31" transform="translate(69.703 113.061)" fill="#353e75"/>
            <rect id="Rectangle_462196" data-name="Rectangle 462196" width="5.766" height="63.666" transform="translate(158.282 118.705)" fill="#af503a"/>
            <rect id="Rectangle_462197" data-name="Rectangle 462197" width="5.766" height="63.666" transform="translate(79.407 118.705)" fill="#af503a"/>
            <rect id="Rectangle_462198" data-name="Rectangle 462198" width="76.007" height="2.38" transform="translate(83.946 125.582)" fill="#af503a"/>
            <path id="Path_1022103" data-name="Path 1022103" d="M209.264,105.533c-.423-.145-.777,1.744-.847,2.4s-1.836,1.889-3.247,2.108-2.964,3.2-2.964,3.2l-2.348,5.187a21.529,21.529,0,0,0,2.011,8.331c1.65-1.968,2.878-12.865,2.878-12.865s4.729-4.07,4.729-4.506.353-2.689.353-3.125-.141-.582-.565-.727" transform="translate(-5.307 -2.802)" fill="#fdb2a5"/>
            <path id="Path_1022104" data-name="Path 1022104" d="M160.585,103.388l.439.546,7.8-5.815a.745.745,0,1,0-.875-1.089Z" transform="translate(-4.264 -2.569)" fill="#fff"/>
            <path id="Path_1022105" data-name="Path 1022105" d="M161.2,103.291l.151.188a.949.949,0,0,1-.02,1.33l-2.248,1.8-.294-.367,2.073-1.665-.29-.361-2.073,1.665-.269-.335,2.073-1.665-.29-.361-2.073,1.666-.289-.361,2.247-1.8a.948.948,0,0,1,1.3.267" transform="translate(-4.187 -2.732)" fill="#fff"/>
            <path id="Path_1022106" data-name="Path 1022106" d="M252.27,81.13s-11.848-9.551-12.851-9.928c-2.366-.888-4.239-1.945-6.026-1.129-1.719.783-3.251,3.035-2.548,4.665.649,1.5,2.953,1.9,4.355,1.647a6.339,6.339,0,0,0,1.962-.781,6.82,6.82,0,0,0,1.439-1.139s12.775,14.681,13.668,14.967,3.167.659,4.258-1.411-3.018-7.067-4.258-6.891" transform="translate(-6.126 -1.853)" fill="#fdb2a5"/>
            <path id="Path_1022107" data-name="Path 1022107" d="M293.105,90.268l1.032,15.724s.565,5.518.5,6.9-1.631,5.894-2.133,5.644-.689-.126-.5-.69,1.573-6.145,1.1-6.71-1.162-.941-1.539-.313-.251,2.2-.752,2.383-.94-1.819-.816-2.446,1.129-4.766,1.129-4.766l-3.3-14.488s2.99-2.349,5.277-1.236" transform="translate(-7.644 -2.389)" fill="#fdb2a5"/>
            <path id="Path_1022108" data-name="Path 1022108" d="M263.253,144.065l-8.385-2.246v25.455s-3.777-.283-6.9-.326A16.243,16.243,0,0,0,258.449,172a25.773,25.773,0,0,0,.461-3.079c.15-1.947,4.343-24.857,4.343-24.857" transform="translate(-6.585 -3.766)" fill="#fdb2a5"/>
            <path id="Path_1022109" data-name="Path 1022109" d="M282.349,143.664l-8.526,1.048,9.733,21.562s-4.161,2.973-6.673,5.044a21.2,21.2,0,0,0,12.861-3.8,10.482,10.482,0,0,0-1.475-2.292c-.82-.749-5.919-21.562-5.919-21.562" transform="translate(-7.272 -3.815)" fill="#fdb2a5"/>
            <path id="Path_1022110" data-name="Path 1022110" d="M279.579,47.721c.534,1.7,2.275,1.47,3.174,3.268.864,1.729-.345,2.743-.093,5.227.371,3.681,3.4,5.235,2.877,6.078-.816,1.3-7.055-4.022-14.763-2.986-4.988.671-7.009,3.524-9.9,2.143a6.687,6.687,0,0,1-3.419-6.355c.386-3.459,4.1-3.753,4.482-7.376.272-2.607-1.517-3.78-.561-6.349.116-.31.786-2.11,2.241-2.52.749-.211,1.152.348,1.961.093.828-.262.97-.943,1.688-1.565a5.065,5.065,0,0,1,3.256-.918,9.495,9.495,0,0,1,6.726,2.109c.688.58,2.906,2.435,2.987,5.041.062,1.947-1.121,2.616-.653,4.108" transform="translate(-6.836 -0.968)" fill="#333"/>
            <path id="Path_1022111" data-name="Path 1022111" d="M260.012,62.083s-2.411.184-3.089,1.83-1.839,6.193-2.419,6.774-.871,4.759-.968,5.719-.678,4.345-.678,4.345,4.742,4.453,4.258,7.065l4.941-5.71s1.236-16.337-2.046-20.024" transform="translate(-6.715 -1.649)" fill="#f35c3d"/>
            <g id="Group_1198109" data-name="Group 1198109" transform="translate(249.559 60.434)" opacity="0.26" style="mix-blend-mode: overlay;isolation: isolate">
              <g id="Group_1198108" data-name="Group 1198108">
                <g id="Group_1198107" data-name="Group 1198107" clip-path="url(#clip-path-20)">
                  <path id="Path_1022112" data-name="Path 1022112" d="M260.105,62.083s-.128.011-.326.045c-.552,7.47.91,17.111-3.412,22.779a4.578,4.578,0,0,1,.843,2.911l4.941-5.71s1.236-16.337-2.046-20.024" transform="translate(-256.367 -62.083)"/>
                </g>
              </g>
            </g>
            <path id="Path_1022113" data-name="Path 1022113" d="M275.782,66.064a22.1,22.1,0,0,0,3.7-6.128c-1.753-.522-3.309-.89-3.309-.89l-8.664-.5s-1.16.506-2.548,1.133c-1.8,6.378,5.44,10.421,10.82,6.386" transform="translate(-7.029 -1.555)" fill="#fdb2a5"/>
            <path id="Path_1022114" data-name="Path 1022114" d="M280.832,85.7a15.861,15.861,0,0,1,.162-2.656c.1-.8.327-2.409.655-4.7.538-3.814,1.383-9.493,2.482-16.322-.546-.233-1.084-.465-1.63-.706-1.048-.444-2.1-.9-3.137-1.354a15.213,15.213,0,0,1-6.916,4.077c-1.959.509-4.462,1.157-6.152-.3a5.22,5.22,0,0,1-1.455-4.033,38.485,38.485,0,0,0-4.637,2.308c-.561.561.7,4.477.844,8.256.1,2.619,1.265,10.751,1.555,16.285,5.729,1.751,13.231,2.747,18.232-.861" transform="translate(-6.906 -1.586)" fill="#f35c3d"/>
            <path id="Path_1022115" data-name="Path 1022115" d="M285.166,134.638c-.975-5.038,1.26-17.632,1.682-25.88s-5.351-17.035-5.562-18.4c-.029-.2-.247-.772-.408-1.573a14.189,14.189,0,0,1-.263-2.375c-5,3.609-12.5,2.613-18.232.862.128,2.448.084,4.389-.3,5.117-1.252,2.381-5.875,31.617-6.289,33.859s-3.917,17.487-3.917,17.487,5.453,3.356,8.955,2.235,6.574.283,15,0,11.853-4.339,11.853-4.339-1.536-1.959-2.519-6.989" transform="translate(-6.689 -2.295)" fill="#333"/>
            <g id="Group_1198112" data-name="Group 1198112" transform="translate(270.518 59.732)" opacity="0.26" style="mix-blend-mode: overlay;isolation: isolate">
              <g id="Group_1198111" data-name="Group 1198111">
                <g id="Group_1198110" data-name="Group 1198110" clip-path="url(#clip-path-21)">
                  <path id="Path_1022116" data-name="Path 1022116" d="M282.471,78.776c-.117-.131-.233-.255-.349-.385-3.524-3.895-5.992-8.082-2.628-13.963a8.991,8.991,0,0,1,3.48-3.065c.546.24,1.084.473,1.631.707,2.469,3.349-.4,10.716-2.133,16.707" transform="translate(-277.898 -61.362)"/>
                </g>
              </g>
            </g>
            <path id="Path_1022117" data-name="Path 1022117" d="M275.943,49.647l.308,9.163s-1.084,2.243-5.187,2.093-3.476-2.594-3.476-2.594l2.251-8.369Z" transform="translate(-7.105 -1.318)" fill="#fdb2a5"/>
            <path id="Path_1022118" data-name="Path 1022118" d="M269.857,49.94l-1.583,5.888a11.112,11.112,0,0,0,7.805-2.715l-.117-3.466Z" transform="translate(-7.124 -1.318)" fill="#f35c3d"/>
            <path id="Path_1022119" data-name="Path 1022119" d="M276.545,48.787a6.7,6.7,0,1,1-4.181-8.5,6.7,6.7,0,0,1,4.181,8.5" transform="translate(-6.998 -1.06)" fill="#fdb2a5"/>
            <path id="Path_1022120" data-name="Path 1022120" d="M274.95,47.88a2.036,2.036,0,1,0,1.706-2.319,2.037,2.037,0,0,0-1.706,2.319" transform="translate(-7.301 -1.209)" fill="#fdb2a5"/>
            <path id="Path_1022121" data-name="Path 1022121" d="M266.386,46.056c-.058.164-.168.328-.322.338a.324.324,0,0,1-.277-.176.841.841,0,0,1-.1-.359,1.048,1.048,0,0,1,.051-.464.461.461,0,0,1,.3-.295c.511-.116.466.626.349.957" transform="translate(-7.055 -1.197)" fill="#333"/>
            <path id="Path_1022122" data-name="Path 1022122" d="M268.653,46.774c0-.058-1.044-.433-1.34-.023-.321.443.534,1.385.577,1.363s-.51-.751-.257-1.127c.237-.35,1.016-.163,1.02-.212" transform="translate(-7.097 -1.236)" fill="#333"/>
            <path id="Path_1022123" data-name="Path 1022123" d="M271.177,43.773a.449.449,0,0,0-.445.105.475.475,0,0,0,.072.527,1.692,1.692,0,0,0,1.068.706.814.814,0,0,0,.4-.009.424.424,0,0,0,.28-.276c.147-.553-1.01-.989-1.377-1.052" transform="translate(-7.188 -1.162)" fill="#333"/>
            <path id="Path_1022124" data-name="Path 1022124" d="M266.7,43.413a.474.474,0,0,1,.414.206c.079.167-.046.356-.184.477a1.688,1.688,0,0,1-1.2.407.833.833,0,0,1-.392-.106.417.417,0,0,1-.215-.326c-.025-.554,1.205-.687,1.579-.658" transform="translate(-7.04 -1.153)" fill="#333"/>
            <path id="Path_1022125" data-name="Path 1022125" d="M267.88,50.686a2.023,2.023,0,0,0,1.284.071c.762-.2,1.434-.861,1.323-1.123-.09-.213-.625-.006-2.01-.055-1.114-.04-1.547-.2-1.643-.011-.124.245.42.861,1.046,1.118" transform="translate(-7.086 -1.314)" fill="#fff"/>
            <path id="Path_1022126" data-name="Path 1022126" d="M266,45.28a.173.173,0,0,1,.174.173A.164.164,0,1,1,266,45.28" transform="translate(-7.06 -1.202)" fill="#fff"/>
            <path id="Path_1022127" data-name="Path 1022127" d="M271.355,46.566c-.064.162-.179.322-.334.326a.322.322,0,0,1-.271-.185.845.845,0,0,1-.088-.362,1.044,1.044,0,0,1,.067-.463.462.462,0,0,1,.31-.284c.515-.1.444.641.315.969" transform="translate(-7.188 -1.211)" fill="#333"/>
            <path id="Path_1022128" data-name="Path 1022128" d="M271,45.778a.173.173,0,0,1,0,.346.173.173,0,0,1,0-.346" transform="translate(-7.192 -1.216)" fill="#fff"/>
            <path id="Path_1022129" data-name="Path 1022129" d="M271.975,47.648c0-.237-.8-.4-1.214-.448-.216-.025-.943-.108-1.01.093s.519.71,1.17.756c.505.036,1.057-.2,1.054-.4" transform="translate(-7.163 -1.252)" fill="#f35c3d"/>
            <path id="Path_1022130" data-name="Path 1022130" d="M266.487,46.914c-.037-.159-.475-.179-.874-.2s-.87-.042-.918.11c-.055.176.458.63,1,.6.427-.022.836-.346.8-.513" transform="translate(-7.029 -1.24)" fill="#f35c3d"/>
            <path id="Path_1022131" data-name="Path 1022131" d="M276.591,48.338a.188.188,0,0,1-.05-.026.184.184,0,0,1-.039-.257,2.885,2.885,0,0,1,1.462-.744.183.183,0,1,1,.075.359,2.494,2.494,0,0,0-1.241.6.184.184,0,0,1-.207.065" transform="translate(-7.342 -1.256)" fill="#f35c3d"/>
            <path id="Path_1022132" data-name="Path 1022132" d="M284.63,62.089a12.789,12.789,0,0,1,3.771,4.74c1.268,2.928.887,8.486,1.5,10.186s3.243,6.642,2.935,8.187a18.241,18.241,0,0,0,.025,4.325l-5.278,1.236s-3.089-6.951-4.17-9.114-4.959-8.8-4.564-11.895.5-8.223,5.776-7.665" transform="translate(-7.404 -1.648)" fill="#f35c3d"/>
            <path id="Path_1022133" data-name="Path 1022133" d="M247.844,167.633c-1.948-.027-3.641.039-4,.327a1.253,1.253,0,0,0,0,2.1c.566.45,12.357,5.84,13.2,5.691.494-.088.953-1.508,1.28-3.061a16.238,16.238,0,0,1-10.48-5.053" transform="translate(-6.46 -4.452)" fill="#353e75"/>
            <path id="Path_1022134" data-name="Path 1022134" d="M276.915,171.969a7.369,7.369,0,0,0-1.862,1.844c-.149.9.9,1.95.9,1.95s14.767-4.046,14.945-4.645a8.2,8.2,0,0,0-1.12-2.949,21.2,21.2,0,0,1-12.861,3.8" transform="translate(-7.304 -4.466)" fill="#353e75"/>
            <path id="Path_1022135" data-name="Path 1022135" d="M267.428,42.836a11.387,11.387,0,0,0,2.49-.533,4.237,4.237,0,0,0,2.036-1.473,12.464,12.464,0,0,0,6.634,9.111,7.31,7.31,0,0,0,.006-4.587,12.115,12.115,0,0,0-2.28-4.039,7.175,7.175,0,0,0-3.43-2.561c-1.705-.477-3.5.1-5.223.516a10.13,10.13,0,0,0-3.016,1.021,3.485,3.485,0,0,0-.961.885,2.6,2.6,0,0,0-.5,1.179c-.019.144-.079.41.078.5a.868.868,0,0,0,.272.066c.133.024.267.044.4.059a9.789,9.789,0,0,0,1.646.044c.551-.028,1.1-.089,1.644-.159l.2-.026" transform="translate(-6.988 -1.024)" fill="#333"/>
            <path id="Path_1022136" data-name="Path 1022136" d="M238.776,85.2l-.873-.452c1.572-3.036,1.629-6.133.145-7.889-1.081-1.278-2.768-1.6-4.723-1.971-2.147-.408-4-.76-5.585.226-2.8,1.743-2.431,6.31-2.427,6.356l-.977.087c-.019-.212-.421-5.217,2.884-7.276,1.91-1.19,4.036-.785,6.287-.356,2.049.388,3.986.757,5.291,2.3,1.741,2.062,1.733,5.585-.022,8.975" transform="translate(-5.957 -1.952)" fill="#353e75"/>
            <path id="Path_1022137" data-name="Path 1022137" d="M236.462,76.306,230.4,74.949a.777.777,0,0,1-.588-.928l.207-.928a.777.777,0,0,1,.928-.588l6.065,1.357a.778.778,0,0,1,.589.928l-.208.928a.776.776,0,0,1-.927.588" transform="translate(-6.102 -1.925)" fill="#353e75"/>
            <path id="Path_1022138" data-name="Path 1022138" d="M218.351,77.627a10.8,10.8,0,0,0,.273,4.413,11.108,11.108,0,0,0,3.733,5.619l2.029-4.793s-.716-.485-1.488-1.058a13.012,13.012,0,0,1-1.817-1.588A11.009,11.009,0,0,1,219.468,78l-1.118-.375" transform="translate(-5.796 -2.061)" fill="#353e75"/>
            <g id="Group_1198115" data-name="Group 1198115" transform="translate(212.759 79.71)" opacity="0.4" style="mix-blend-mode: overlay;isolation: isolate">
              <g id="Group_1198114" data-name="Group 1198114">
                <g id="Group_1198113" data-name="Group 1198113" clip-path="url(#clip-path-22)">
                  <path id="Path_1022139" data-name="Path 1022139" d="M218.563,81.885c.022.089.045.177.069.268a11.108,11.108,0,0,0,3.734,5.619l1.4-3.3a4.45,4.45,0,0,1-1.47.174,4.519,4.519,0,0,1-3.73-2.758" transform="translate(-218.563 -81.885)"/>
                </g>
              </g>
            </g>
            <path id="Path_1022140" data-name="Path 1022140" d="M236.2,80.884a8.1,8.1,0,0,0-3.346-1.62l-.754-.169a8.091,8.091,0,0,0-4.156.162,9.22,9.22,0,0,0,8.256,1.628" transform="translate(-6.053 -2.095)" fill="#f35c3d"/>
            <path id="Path_1022141" data-name="Path 1022141" d="M236.643,81.294c-.146-.138-.3-.273-.454-.4a9.22,9.22,0,0,1-8.256-1.628c-.123.037-.242.081-.363.125,2.266,2.3,6.113,3.394,9.073,1.9" transform="translate(-6.043 -2.105)" fill="#f35c3d"/>
            <path id="Path_1022142" data-name="Path 1022142" d="M236.479,81.3c-2.959,1.492-6.806.4-9.073-1.9a8.117,8.117,0,0,0-5.188,5.871L221.383,89,238,92.719l.835-3.734a8.12,8.12,0,0,0-2.358-7.687" transform="translate(-5.879 -2.108)" fill="#353e75"/>
            <g id="Group_1198118" data-name="Group 1198118" transform="translate(226.538 79.614)" opacity="0.4" style="mix-blend-mode: overlay;isolation: isolate">
              <g id="Group_1198117" data-name="Group 1198117">
                <g id="Group_1198116" data-name="Group 1198116" clip-path="url(#clip-path-23)">
                  <path id="Path_1022143" data-name="Path 1022143" d="M235.681,81.786a6.825,6.825,0,0,1-1.7.254,11.731,11.731,0,0,1-1.267,9.492l4.8,1.074c.731-3.784.383-7.689-1.832-10.82" transform="translate(-232.718 -81.786)"/>
                </g>
              </g>
            </g>
            <path id="Path_1022144" data-name="Path 1022144" d="M233.64,79.036a.973.973,0,1,1-.759-.905.85.85,0,0,1,.759.905" transform="translate(-6.156 -2.074)" fill="#353e75"/>
            <g id="Group_1198121" data-name="Group 1198121" transform="translate(212.158 57.132)" opacity="0.76">
              <g id="Group_1198120" data-name="Group 1198120">
                <g id="Group_1198119" data-name="Group 1198119" clip-path="url(#clip-path-24)">
                  <path id="Path_1022145" data-name="Path 1022145" d="M219.355,75.878a3.2,3.2,0,0,0,0-2.364c-.545-1-1.608-2.665-1.378-3.664s1.381-3.257.84-5.031a7.991,7.991,0,0,1,1.2-6.129s-.791,3.119-.347,4.32c.923,2.492,1.941,3.657,1.356,5.3-.392,1.106-1.318,1.349-1.39,2.633-.033.591.164.516.29,1.877a4.7,4.7,0,0,1-.229,2.44,3.589,3.589,0,0,1-.34.613" transform="translate(-217.946 -58.691)" fill="#fff"/>
                </g>
              </g>
            </g>
            <g id="Group_1198124" data-name="Group 1198124" transform="translate(209.478 62.375)" opacity="0.76">
              <g id="Group_1198123" data-name="Group 1198123">
                <g id="Group_1198122" data-name="Group 1198122" clip-path="url(#clip-path-25)">
                  <path id="Path_1022146" data-name="Path 1022146" d="M216.759,64.077a7.026,7.026,0,0,1-.36,2.384c-.485,1.224-1.108,1.327-1.2,2.14-.156,1.424,1.585,2.669,1.631,2.632s-1.544-1.306-1.269-2.613c.159-.752.773-.762,1.208-1.708a3.394,3.394,0,0,0-.013-2.835" transform="translate(-215.193 -64.077)" fill="#fff"/>
                </g>
              </g>
            </g>
            <path id="Path_1022147" data-name="Path 1022147" d="M230.89,74.049c.087-.235.223-.491.467-.546a.423.423,0,0,1,.48.275.793.793,0,0,1,.024.249,12.762,12.762,0,0,1-.089,1.39,1.012,1.012,0,0,1-.168.523.747.747,0,0,1-.276.2.68.68,0,0,1-.5.059.37.37,0,0,1-.25-.285c-.009-.1.045-.208.042-.316a3.943,3.943,0,0,1,.1-1.008,4.551,4.551,0,0,1,.163-.541" transform="translate(-6.123 -1.952)" fill="#fdb2a5"/>
            <path id="Path_1022148" data-name="Path 1022148" d="M232.159,74.091a.893.893,0,0,1,.6-.588.563.563,0,0,1,.617.3.718.718,0,0,1,.032.269,11.707,11.707,0,0,1-.115,1.5.967.967,0,0,1-.217.564,1,1,0,0,1-.355.216,1.015,1.015,0,0,1-.636.063.431.431,0,0,1-.322-.307c-.012-.111.057-.225.054-.341a3.641,3.641,0,0,1,.132-1.086,4.5,4.5,0,0,1,.209-.584" transform="translate(-6.155 -1.952)" fill="#fdb2a5"/>
            <path id="Path_1022149" data-name="Path 1022149" d="M233.5,74.371a.9.9,0,0,1,.6-.589.564.564,0,0,1,.617.3.718.718,0,0,1,.032.269,11.7,11.7,0,0,1-.115,1.5.792.792,0,0,1-.572.78,1.023,1.023,0,0,1-.636.064.432.432,0,0,1-.322-.308c-.012-.111.057-.225.054-.341a3.642,3.642,0,0,1,.132-1.086,4.439,4.439,0,0,1,.209-.583" transform="translate(-6.19 -1.959)" fill="#fdb2a5"/>
            <path id="Path_1022150" data-name="Path 1022150" d="M234.909,74.62a.9.9,0,0,1,.6-.589.566.566,0,0,1,.617.3.72.72,0,0,1,.032.269,11.7,11.7,0,0,1-.115,1.5.967.967,0,0,1-.217.564.987.987,0,0,1-.355.217,1.024,1.024,0,0,1-.637.062.431.431,0,0,1-.322-.307c-.011-.111.057-.225.055-.341A3.642,3.642,0,0,1,234.7,75.2a4.3,4.3,0,0,1,.209-.583" transform="translate(-6.228 -1.966)" fill="#fdb2a5"/>
            <path id="Path_1022151" data-name="Path 1022151" d="M231.34,70.131l-1.108.022a2.011,2.011,0,0,0-.641.082.556.556,0,0,0-.4.419.661.661,0,0,0,.274.49,4.573,4.573,0,0,0,1.139.771,1.475,1.475,0,0,0,.751.184,1.509,1.509,0,0,0,.911-.539c.158-.165.309-.336.451-.511s.187-.273.352-.506.3-.4.386-.51a10.686,10.686,0,0,1-1.267.1,7.143,7.143,0,0,0-.853,0" transform="translate(-6.086 -1.86)" fill="#fdb2a5"/>
          </g>
        </g>
      </g>
    </g>
  </g>
</svg>
