<svg xmlns="http://www.w3.org/2000/svg" width="84" height="84" viewBox="0 0 84 84">
  <g id="img11" transform="translate(-185 -3232)">
    <rect id="Rectangle_461427" data-name="Rectangle 461427" width="84" height="84" rx="9" transform="translate(185 3232)" fill="#9c3413"/>
    <g id="Group_1199264" data-name="Group 1199264" transform="translate(199.669 3246.675)">
      <path id="Path_1025719" data-name="Path 1025719" d="M41.437,26.893a4.777,4.777,0,0,0-3.177-2.2V9.109A4.56,4.56,0,0,0,33.7,4.554H26.164A1.815,1.815,0,0,0,24.6,3.643H23.374a5.466,5.466,0,0,0-10.31,0H11.842a1.815,1.815,0,0,0-1.569.911H4.555A4.56,4.56,0,0,0,0,9.109V47.368a4.56,4.56,0,0,0,4.555,4.555h16c.042.086.076.174.123.258a4.752,4.752,0,0,0,4.2,2.475H49.837a4.753,4.753,0,0,0,4.19-2.476,4.869,4.869,0,0,0-.1-4.986Zm-5-17.784V24.691a4.72,4.72,0,0,0-1.822.768V10.02A1.822,1.822,0,0,0,32.794,8.2H26.417V6.376H33.7A2.733,2.733,0,0,1,36.437,9.109Zm-24.6-3.644h1.913a.911.911,0,0,0,.894-.729,3.644,3.644,0,0,1,7.14,0,.911.911,0,0,0,.894.729H24.6V9.109H11.842ZM24.6,10.931a1.815,1.815,0,0,0,1.569-.911h6.63V27.653l-11.569,18.8H5.466V10.02h4.808a1.815,1.815,0,0,0,1.569.911ZM4.555,50.1a2.733,2.733,0,0,1-2.733-2.733V9.109A2.733,2.733,0,0,1,4.555,6.376H10.02V8.2H5.466A1.822,1.822,0,0,0,3.644,10.02V46.457a1.822,1.822,0,0,0,1.822,1.822H20.28a4.828,4.828,0,0,0-.223,1.822Zm47.88,1.191a2.954,2.954,0,0,1-2.6,1.542H24.869a2.952,2.952,0,0,1-2.6-1.541,3.071,3.071,0,0,1,.065-3.145l12.48-20.3a2.964,2.964,0,0,1,5.074,0l12.48,20.3a3.069,3.069,0,0,1,.068,3.143Z" fill="#fff"/>
      <path id="Path_1025720" data-name="Path 1025720" d="M40.733,33A2.733,2.733,0,0,0,38,35.733v8.2a2.733,2.733,0,0,0,5.466,0v-8.2A2.733,2.733,0,0,0,40.733,33Zm.911,10.931a.911.911,0,0,1-1.822,0v-8.2a.911.911,0,1,1,1.822,0Z" transform="translate(-3.385 -2.94)" fill="#fff"/>
      <path id="Path_1025721" data-name="Path 1025721" d="M40.733,50a2.733,2.733,0,1,0,2.733,2.733A2.733,2.733,0,0,0,40.733,50Zm0,3.644a.911.911,0,1,1,.911-.911A.911.911,0,0,1,40.733,53.644Z" transform="translate(-3.385 -4.454)" fill="#fff"/>
      <path id="Path_1025722" data-name="Path 1025722" d="M19.911,18.822H31.753a.911.911,0,1,0,0-1.822H19.911a.911.911,0,1,0,0,1.822Z" transform="translate(-1.692 -1.515)" fill="#fff"/>
      <path id="Path_1025723" data-name="Path 1025723" d="M19.911,22.822h5.466a.911.911,0,1,0,0-1.822H19.911a.911.911,0,1,0,0,1.822Z" transform="translate(-1.692 -1.871)" fill="#fff"/>
      <path id="Path_1025724" data-name="Path 1025724" d="M19.911,29.822H31.753a.911.911,0,1,0,0-1.822H19.911a.911.911,0,1,0,0,1.822Z" transform="translate(-1.692 -2.494)" fill="#fff"/>
      <path id="Path_1025725" data-name="Path 1025725" d="M19.911,33.822h5.466a.911.911,0,0,0,0-1.822H19.911a.911.911,0,0,0,0,1.822Z" transform="translate(-1.692 -2.851)" fill="#fff"/>
      <path id="Path_1025726" data-name="Path 1025726" d="M19.911,40.822h6.377a.911.911,0,1,0,0-1.822H19.911a.911.911,0,0,0,0,1.822Z" transform="translate(-1.692 -3.474)" fill="#fff"/>
      <path id="Path_1025727" data-name="Path 1025727" d="M19.911,44.822h3.644a.911.911,0,1,0,0-1.822H19.911a.911.911,0,1,0,0,1.822Z" transform="translate(-1.692 -3.83)" fill="#fff"/>
      <path id="Path_1025728" data-name="Path 1025728" d="M9.267,20.732a.911.911,0,0,0,0,1.288l1.822,1.822a.911.911,0,0,0,.644.267.874.874,0,0,0,.146-.012.911.911,0,0,0,.67-.492l3.644-7.287a.911.911,0,1,0-1.631-.814l-3.078,6.157-.928-.928a.911.911,0,0,0-1.288,0Z" transform="translate(-0.802 -1.336)" fill="#fff"/>
      <path id="Path_1025729" data-name="Path 1025729" d="M15.784,26.1a.911.911,0,0,0-1.222.408l-3.078,6.157-.928-.928a.911.911,0,1,0-1.288,1.288l1.822,1.822a.911.911,0,0,0,.644.267.874.874,0,0,0,.146-.012.911.911,0,0,0,.67-.492l3.644-7.287A.911.911,0,0,0,15.784,26.1Z" transform="translate(-0.802 -2.316)" fill="#fff"/>
      <path id="Path_1025730" data-name="Path 1025730" d="M15.784,37.091a.911.911,0,0,0-1.222.408l-3.078,6.157-.928-.928a.911.911,0,1,0-1.288,1.288l1.822,1.822a.911.911,0,0,0,.644.271.873.873,0,0,0,.146-.012.911.911,0,0,0,.67-.492l3.644-7.287a.911.911,0,0,0-.408-1.227Z" transform="translate(-0.802 -3.295)" fill="#fff"/>
    </g>
  </g>
</svg>
