<svg xmlns="http://www.w3.org/2000/svg" width="150" height="150" viewBox="0 0 150 150">
  <g id="img13" transform="translate(-383.746 -8400)">
    <circle id="Ellipse_13609" data-name="Ellipse 13609" cx="75" cy="75" r="75" transform="translate(383.746 8400)" fill="#fff"/>
    <path id="Path_1023613" data-name="Path 1023613" d="M77.554,62.147A13.7,13.7,0,0,0,68.8,65.3l-3.6-3.635a24.535,24.535,0,0,0,6.283-15.144H75.04a8.044,8.044,0,1,0,0-2.628H71.484a24.556,24.556,0,0,0-.67-4.572,1.314,1.314,0,1,0-2.552.627A22.029,22.029,0,0,1,62,61.185c-.559-5.155-5-6.346-8.294-7.23l-.659-.178c-.257-.069-.467-.417-.63-.778,3.277-2.246,5.712-6.073,5.712-9.416V40.556a12.738,12.738,0,0,0-3.478-9.244,11.086,11.086,0,0,0-7.719-3.245h-.045a11.354,11.354,0,0,0-4.63,1.074,1.314,1.314,0,0,0,1.125,2.375,8.706,8.706,0,0,1,3.529-.821c3.78.073,7.815,2.675,8.492,8.194a4.294,4.294,0,0,1-1.242-.983,3.552,3.552,0,0,0-3.854-1.256c-.513.132-.95.249-1.327.351a9.376,9.376,0,0,1-2.069.438A9.376,9.376,0,0,1,44.843,37c-.378-.1-.814-.218-1.328-.351a3.55,3.55,0,0,0-3.853,1.256,4.289,4.289,0,0,1-1.244.984,10.149,10.149,0,0,1,1.414-4.2A1.314,1.314,0,1,0,37.6,33.3a13.5,13.5,0,0,0-1.907,7.253v3.028c0,3.343,2.436,7.171,5.712,9.416-.163.361-.374.709-.635.779l-.653.176c-3.3.884-7.735,2.075-8.294,7.23a21.984,21.984,0,1,1,34.058-27.1l.009.016c.069.114.135.233.2.351l.059.107a1.314,1.314,0,1,0,2.294-1.281l-.056-.1c-.08-.145-.162-.29-.246-.43a24.684,24.684,0,0,0-2.935-4l3.663-3.7a13.73,13.73,0,0,0,16.694-.663,1.318,1.318,0,0,0,.209-.182,13.773,13.773,0,1,0-18.9-.87l-3.522,3.559a24.468,24.468,0,0,0-15.123-6.264V17.063a8.046,8.046,0,1,0-2.628,0v3.558A24.506,24.506,0,0,0,30.474,26.9l-3.545-3.547A13.771,13.771,0,1,0,8.05,24.2a1.318,1.318,0,0,0,.209.182,13.73,13.73,0,0,0,16.665.685l3.692,3.694a24.528,24.528,0,0,0-6.277,15.132H18.784a8.048,8.048,0,1,0,0,2.628h3.554a24.534,24.534,0,0,0,6.279,15.135l-3.589,3.587A13.8,13.8,0,1,0,26.886,67.1l3.588-3.587q.473.426.967.828a7.647,7.647,0,0,0,.99.762A24.459,24.459,0,0,0,45.6,69.794v3.558a8.046,8.046,0,1,0,2.628,0V69.794A24.459,24.459,0,0,0,61.39,65.1a1.318,1.318,0,0,0,.247-.181q.885-.663,1.705-1.4l3.6,3.635a13.754,13.754,0,0,0,1.6,19.173,1.317,1.317,0,0,0,.256.222,13.742,13.742,0,0,0,17.514,0,1.323,1.323,0,0,0,.256-.222,13.77,13.77,0,0,0-9.013-24.182Zm5.423-22.358a5.418,5.418,0,1,1-5.418,5.416A5.423,5.423,0,0,1,82.977,39.789ZM76.782,24.927a11.082,11.082,0,0,1-6.689-2.239,6.756,6.756,0,0,1,3.3-5.181,6.556,6.556,0,0,0,6.78,0,6.756,6.756,0,0,1,3.3,5.181A11.082,11.082,0,0,1,76.782,24.927Zm-3.944-13.05a3.943,3.943,0,1,1,3.944,3.946,3.949,3.949,0,0,1-3.944-3.946Zm-7.2,1.9a11.144,11.144,0,1,1,20.049,6.694,9.416,9.416,0,0,0-3.535-4.812,6.571,6.571,0,1,0-10.74,0,9.417,9.417,0,0,0-3.535,4.812,11.1,11.1,0,0,1-2.238-6.694ZM41.494,9.123a5.418,5.418,0,1,1,5.418,5.421A5.423,5.423,0,0,1,41.494,9.123Zm-24.452,15.8a11.082,11.082,0,0,1-6.689-2.239,6.756,6.756,0,0,1,3.3-5.181,6.556,6.556,0,0,0,6.78,0,6.756,6.756,0,0,1,3.3,5.181A11.082,11.082,0,0,1,17.042,24.927ZM13.1,11.878a3.943,3.943,0,1,1,3.943,3.946A3.949,3.949,0,0,1,13.1,11.878Zm9.313,3.782a6.571,6.571,0,1,0-10.74,0,9.416,9.416,0,0,0-3.535,4.812,11.144,11.144,0,1,1,17.81,0A9.416,9.416,0,0,0,22.412,15.66ZM10.847,50.626a5.418,5.418,0,1,1,5.418-5.421A5.425,5.425,0,0,1,10.847,50.626Zm5.423,36.39a11.081,11.081,0,0,1-6.689-2.239,6.752,6.752,0,0,1,3.3-5.182,6.556,6.556,0,0,0,6.78,0,6.754,6.754,0,0,1,3.3,5.181A11.081,11.081,0,0,1,16.271,87.016Zm-3.943-13.05a3.943,3.943,0,1,1,3.943,3.946A3.949,3.949,0,0,1,12.327,73.966ZM25.176,82.56a9.413,9.413,0,0,0-3.534-4.814,6.571,6.571,0,1,0-10.744,0A9.411,9.411,0,0,0,7.365,82.56a11.144,11.144,0,1,1,17.811,0ZM38.322,43.584v-1.9a6.166,6.166,0,0,0,3.218-1.938c.617-.63.7-.711,1.32-.551.5.13.933.245,1.3.344a10.628,10.628,0,0,0,2.749.528,10.62,10.62,0,0,0,2.749-.528c.371-.1.8-.214,1.3-.344.623-.16.7-.08,1.32.551A6.166,6.166,0,0,0,55.5,41.684v1.9c0,3.071-3.13,7.028-6.571,8.3a5.1,5.1,0,0,1-4.043,0c-3.437-1.274-6.567-5.23-6.567-8.3ZM51.316,55.8,47.59,57.986l-.052.032c-.609.4-.644.4-1.253,0l-.052-.032L42.508,55.8a4.229,4.229,0,0,0,1.213-1.552c.084.034.167.068.252.1a7.677,7.677,0,0,0,5.876,0c.085-.032.17-.067.255-.1A4.23,4.23,0,0,0,51.316,55.8ZM52.33,81.287a5.418,5.418,0,1,1-5.418-5.416A5.425,5.425,0,0,1,52.33,81.287Zm7.1-18.013a21.919,21.919,0,0,1-25.041,0v-.966c0-3.3,1.8-4.437,4.854-5.374l5.635,3.3a3.281,3.281,0,0,0,4.064,0l5.635-3.3c3.052.937,4.854,2.078,4.854,5.374Zm18.121,23.8a11.081,11.081,0,0,1-6.689-2.238,6.757,6.757,0,0,1,3.3-5.181,6.557,6.557,0,0,0,6.78,0,6.756,6.756,0,0,1,3.3,5.183,11.082,11.082,0,0,1-6.689,2.238ZM73.61,74.025a3.943,3.943,0,1,1,3.944,3.946A3.949,3.949,0,0,1,73.61,74.025Zm12.848,8.594A9.412,9.412,0,0,0,82.926,77.8a6.571,6.571,0,1,0-10.744,0,9.416,9.416,0,0,0-3.533,4.815,11.144,11.144,0,1,1,17.809,0Z" transform="translate(411.834 8430.148)" fill="#4a4e3c"/>
  </g>
</svg>
