<svg xmlns="http://www.w3.org/2000/svg" width="84" height="84" viewBox="0 0 84 84">
  <g id="img16" transform="translate(-527 -9119)">
    <rect id="Rectangle_461404" data-name="Rectangle 461404" width="84" height="84" rx="10" transform="translate(527 9119)" fill="#b9c296"/>
    <g id="Group_1196304" data-name="Group 1196304" transform="translate(545.299 9104.272)">
      <g id="Group_1196302" data-name="Group 1196302" transform="translate(0.925 37.869)">
        <g id="Group_1196297" data-name="Group 1196297" transform="translate(0 3.566)">
          <path id="Path_1018271" data-name="Path 1018271" d="M0,0H26.535V42.627H0Z" transform="translate(0 26.35) rotate(-82.996)" fill="#d3f5fc" fill-rule="evenodd"/>
        </g>
        <g id="Group_1196298" data-name="Group 1196298" transform="translate(6.427 0)">
          <path id="Path_1018272" data-name="Path 1018272" d="M0,0H3.663V6.278H0Z" transform="translate(0 0.546) rotate(-8.568)" fill="#ffc144" fill-rule="evenodd"/>
        </g>
        <g id="Group_1196299" data-name="Group 1196299" transform="translate(37.422 3.68)">
          <path id="Path_1018273" data-name="Path 1018273" d="M0,0H3.663V6.278H0Z" transform="matrix(-0.923, -0.384, 0.384, -0.923, 3.381, 7.201)" fill="#ffc144" fill-rule="evenodd"/>
        </g>
        <g id="Group_1196300" data-name="Group 1196300" transform="translate(2.353 27.833)">
          <path id="Path_1018274" data-name="Path 1018274" d="M0,0H3.663V6.278H0Z" transform="matrix(0.923, 0.384, -0.384, 0.923, 2.411, 0)" fill="#ffc144" fill-rule="evenodd"/>
        </g>
        <g id="Group_1196301" data-name="Group 1196301" transform="translate(34.554 31.969)">
          <path id="Path_1018275" data-name="Path 1018275" d="M0,0H3.663V6.278H0Z" transform="translate(4.558 6.209) rotate(171.432)" fill="#ffc144" fill-rule="evenodd"/>
        </g>
      </g>
      <g id="Group_1196303" data-name="Group 1196303" transform="translate(0 36.947)">
        <path id="Path_1018276" data-name="Path 1018276" d="M46.59,45.746l-2.5-.307.889-2.136a.926.926,0,0,0-.5-1.21L41.1,40.685a.926.926,0,0,0-1.21.5l-1.479,3.555-8.161-1.005a.926.926,0,1,0-.226,1.838l7.649.942-.194.467a.926.926,0,0,0,.5,1.21L41.362,49.6a.926.926,0,0,0,1.21-.5l.785-1.886,2.088.257-3.017,24.5-2.088-.257-.3-2.02a.926.926,0,0,0-1.053-.778l-3.622.544a.926.926,0,0,0-.778,1.053l.075.5L9.728,67.942l.194-.467a.926.926,0,0,0-.5-1.21L6.041,64.858a.926.926,0,0,0-1.21.5l-.785,1.886-2.088-.257,3.017-24.5,2.088.257.3,2.02a.926.926,0,0,0,.914.788.943.943,0,0,0,.139-.01L12.042,45a.926.926,0,0,0,.778-1.053l-.075-.5,9.011,1.11a.937.937,0,0,0,.114.007.926.926,0,0,0,.112-1.845l-9.523-1.173-.572-3.807a.926.926,0,0,0-1.053-.778L7.212,37.5a.926.926,0,0,0-.778,1.053l.344,2.288-2.5-.307a.926.926,0,0,0-1.032.806L.007,67.678A.926.926,0,0,0,.813,68.71l2.5.307-.889,2.136a.926.926,0,0,0,.5,1.21L6.3,73.77a.925.925,0,0,0,1.21-.5l1.479-3.554,25.955,3.2.572,3.807a.926.926,0,0,0,1.053.778l3.622-.544a.926.926,0,0,0,.778-1.053l-.344-2.288,2.5.307a.937.937,0,0,0,.114.007.926.926,0,0,0,.918-.813L47.4,46.778A.926.926,0,0,0,46.59,45.746Zm-5.372,1.787-1.672-.7,1.7-4.087,1.672.7ZM10.193,38.926l.658,4.377-1.791.269L8.4,39.2ZM6.156,71.705l-1.672-.7,1.7-4.087,1.672.7ZM37.21,75.529l-.658-4.377,1.791-.269L39,75.26Z" transform="translate(0 -36.947)"/>
        <path id="Path_1018277" data-name="Path 1018277" d="M271.3,106.152a.926.926,0,1,0,.341-1.124A.927.927,0,0,0,271.3,106.152Z" transform="translate(-246.12 -98.583)"/>
        <path id="Path_1018278" data-name="Path 1018278" d="M93.272,155.791a3.448,3.448,0,1,0-1.829-.528l-.356,1.327-2.517-1.329A.926.926,0,0,0,87.7,156.9l2.889,1.526-.356,1.327-3.363,2.12a.926.926,0,1,0,.987,1.566l2.763-1.742,1.349,3.046a.926.926,0,1,0,1.693-.75l-1.651-3.726.344-1.279,3.294.484a.926.926,0,0,0,.27-1.832l-3.08-.453.375-1.4Zm0-5.034a1.591,1.591,0,1,1-1.591,1.591A1.593,1.593,0,0,1,93.272,150.757Z" transform="translate(-78.439 -138.54)"/>
        <path id="Path_1018279" data-name="Path 1018279" d="M325.914,192.392a.926.926,0,0,0,.1,1.846.942.942,0,0,0,.1-.006l2.906-.316-.012,1.537-2.585,3.151a.926.926,0,1,0,1.432,1.175l2.113-2.576,2.2,2.416a.926.926,0,1,0,1.37-1.246l-2.675-2.94.011-1.485,2.864.4a.943.943,0,0,0,.13.009.926.926,0,0,0,.128-1.843l-3.108-.438.01-1.293a3.441,3.441,0,1,0-1.9.021l.052.012-.009,1.232Zm2.463-5.327a1.591,1.591,0,1,1,1.109,1.958A1.594,1.594,0,0,1,328.377,187.065Z" transform="translate(-294.99 -170.427)"/>
        <path id="Path_1018280" data-name="Path 1018280" d="M211.233,206.735a3,3,0,0,0,1.413,3.939l-.1.579-2.222-.321a.926.926,0,1,0-.265,1.833l2.183.316-.2,1.181-2.468,2.192a.926.926,0,1,0,1.23,1.384l1.912-1.7,1.373,2.093a.926.926,0,1,0,1.548-1.016l-1.762-2.686.2-1.212,2.31.4a.926.926,0,1,0,.315-1.825l-2.32-.4.094-.561a3,3,0,1,0-3.247-4.2Zm1.685.768a1.148,1.148,0,1,1-.031.878A1.141,1.141,0,0,1,212.918,207.5Z" transform="translate(-189.894 -189.421)"/>
      </g>
    </g>
  </g>
</svg>
