<svg xmlns="http://www.w3.org/2000/svg" width="128" height="128" viewBox="0 0 128 128">
  <g id="img19" transform="translate(-72.746 -7992)">
    <g id="Ellipse_13628" data-name="Ellipse 13628" transform="translate(72.746 7992)" fill="#fef6ff" stroke="#9c3413" stroke-width="6">
      <circle cx="64" cy="64" r="64" stroke="none"/>
      <circle cx="64" cy="64" r="61" fill="none"/>
    </g>
    <g id="Group_1198920" data-name="Group 1198920" transform="translate(78.792 8021.737)">
      <g id="Group_1198901" data-name="Group 1198901" transform="translate(28.69 1.338)">
        <g id="Group_1198897" data-name="Group 1198897" transform="translate(9.118 24.259)">
          <path id="Path_1025014" data-name="Path 1025014" d="M142.167,192.441a12.715,12.715,0,0,1-3.749-.562v30.234a3.532,3.532,0,0,1-3.532,3.532H105.476v3.667a3.532,3.532,0,0,0,3.532,3.532H144a3.532,3.532,0,0,0,3.532-3.532V191.256A12.67,12.67,0,0,1,142.167,192.441Z" transform="translate(-105.476 -191.256)" fill="#ccf5fc"/>
        </g>
        <g id="Group_1198898" data-name="Group 1198898" transform="translate(0 2.897)">
          <path id="Path_1025015" data-name="Path 1025015" d="M74.811,31.646H40.884a3.532,3.532,0,0,0-3.532,3.532V83.866A3.532,3.532,0,0,0,40.884,87.4H75.879a3.533,3.533,0,0,0,3.532-3.532V53.9" transform="translate(-37.352 -31.646)" fill="#faf7f5"/>
        </g>
        <g id="Group_1198899" data-name="Group 1198899" transform="translate(33.088)">
          <ellipse id="Ellipse_16232" data-name="Ellipse 16232" cx="12.72" cy="12.722" rx="12.72" ry="12.722" fill="#ff7d97"/>
        </g>
        <g id="Group_1198900" data-name="Group 1198900" transform="translate(8.971 13.467)">
          <path id="Path_1025016" data-name="Path 1025016" d="M104.377,110.62h24.118v5.653H104.377Z" transform="translate(-104.377 -110.62)" fill="#ffe6b4"/>
        </g>
      </g>
      <g id="Group_1198919" data-name="Group 1198919" transform="translate(27.352)">
        <g id="Group_1198903" data-name="Group 1198903" transform="translate(45.814 10.969)">
          <g id="Group_1198902" data-name="Group 1198902">
            <path id="Path_1025017" data-name="Path 1025017" d="M370.993,93.785a1.339,1.339,0,0,1-1.338-1.338V83.294a1.338,1.338,0,1,1,2.677,0v9.152A1.338,1.338,0,0,1,370.993,93.785Z" transform="translate(-369.655 -81.956)"/>
          </g>
        </g>
        <g id="Group_1198905" data-name="Group 1198905" transform="translate(45.808 6.662)">
          <g id="Group_1198904" data-name="Group 1198904">
            <circle id="Ellipse_16233" data-name="Ellipse 16233" cx="1.338" cy="1.338" r="1.338"/>
          </g>
        </g>
        <g id="Group_1198908" data-name="Group 1198908">
          <path id="Path_1025018" data-name="Path 1025018" d="M88.557,14.061A14.051,14.051,0,0,0,65.96,2.9H32.223a4.876,4.876,0,0,0-4.871,4.871V56.456a4.877,4.877,0,0,0,4.871,4.871H36.47v2.329a4.877,4.877,0,0,0,4.871,4.871H76.335a4.876,4.876,0,0,0,4.871-4.871V45.091a1.338,1.338,0,1,0-2.677,0V63.655a2.2,2.2,0,0,1-2.194,2.194H41.341a2.2,2.2,0,0,1-2.194-2.194V61.327H67.217a4.877,4.877,0,0,0,4.871-4.871V27.915a14.109,14.109,0,0,0,6.441-.382v5.458a1.338,1.338,0,1,0,2.677,0V26.416a14.074,14.074,0,0,0,7.351-12.355ZM69.411,56.456a2.2,2.2,0,0,1-2.194,2.194H32.223a2.2,2.2,0,0,1-2.194-2.194V7.768a2.2,2.2,0,0,1,2.194-2.194H63.3a13.987,13.987,0,0,0-2.844,7.893H37.661a1.339,1.339,0,0,0-1.338,1.338v5.653A1.339,1.339,0,0,0,37.661,21.8H61.779a1.333,1.333,0,0,0,.81-.273,14.14,14.14,0,0,0,6.823,5.645ZM60.44,16.144V19.12H39V16.144Zm14.058,9.3A11.384,11.384,0,1,1,85.88,14.061,11.4,11.4,0,0,1,74.5,25.445Z" transform="translate(-27.352)"/>
          <g id="Group_1198907" data-name="Group 1198907" transform="translate(51.179 37.682)">
            <g id="Group_1198906" data-name="Group 1198906">
              <path id="Path_1025019" data-name="Path 1025019" d="M411.077,284.215a1.338,1.338,0,1,1,1.3-1.035A1.351,1.351,0,0,1,411.077,284.215Z" transform="translate(-409.742 -281.541)"/>
            </g>
          </g>
        </g>
        <g id="Group_1198918" data-name="Group 1198918" transform="translate(8.971 26.451)">
          <g id="Group_1198917" data-name="Group 1198917">
            <g id="Group_1198910" data-name="Group 1198910">
              <g id="Group_1198909" data-name="Group 1198909">
                <path id="Path_1025020" data-name="Path 1025020" d="M119.833,200.31H95.715a1.338,1.338,0,1,1,0-2.677h24.118a1.338,1.338,0,1,1,0,2.677Z" transform="translate(-94.377 -197.633)"/>
              </g>
            </g>
            <g id="Group_1198912" data-name="Group 1198912" transform="translate(0 6.348)">
              <g id="Group_1198911" data-name="Group 1198911">
                <path id="Path_1025021" data-name="Path 1025021" d="M119.833,247.74H95.715a1.338,1.338,0,0,1,0-2.677h24.118a1.338,1.338,0,0,1,0,2.677Z" transform="translate(-94.377 -245.063)"/>
              </g>
            </g>
            <g id="Group_1198914" data-name="Group 1198914" transform="translate(0 12.696)">
              <g id="Group_1198913" data-name="Group 1198913">
                <path id="Path_1025022" data-name="Path 1025022" d="M119.833,295.17H95.715a1.338,1.338,0,1,1,0-2.677h24.118a1.338,1.338,0,1,1,0,2.677Z" transform="translate(-94.377 -292.493)"/>
              </g>
            </g>
            <g id="Group_1198916" data-name="Group 1198916" transform="translate(0 19.044)">
              <g id="Group_1198915" data-name="Group 1198915">
                <path id="Path_1025023" data-name="Path 1025023" d="M119.833,342.6H95.715a1.338,1.338,0,0,1,0-2.677h24.118a1.338,1.338,0,0,1,0,2.677Z" transform="translate(-94.377 -339.923)"/>
              </g>
            </g>
          </g>
        </g>
      </g>
    </g>
  </g>
</svg>
