<svg xmlns="http://www.w3.org/2000/svg" width="128" height="128" viewBox="0 0 128 128">
  <g id="img21" transform="translate(-72.746 -7992)">
    <g id="Ellipse_13628" data-name="Ellipse 13628" transform="translate(72.746 7992)" fill="#fef6ff" stroke="#9c3413" stroke-width="6">
      <circle cx="64" cy="64" r="64" stroke="none"/>
      <circle cx="64" cy="64" r="61" fill="none"/>
    </g>
    <g id="Group_1198928" data-name="Group 1198928" transform="translate(98.602 8024.072)">
      <g id="Group_1198925" data-name="Group 1198925" transform="translate(8.349 1.247)">
        <path id="Path_1025044" data-name="Path 1025044" d="M94.85,33.256l5.79,9.959a1.49,1.49,0,0,0,1.288.741h10.511V11.349A1.349,1.349,0,0,0,111.09,10H82.807L71.4,21.411v11.1H93.562a1.49,1.49,0,0,1,1.288.741Z" transform="translate(-64.625 -10)" fill="#fff"/>
        <path id="Path_1025045" data-name="Path 1025045" d="M81.454,21.41H71.392L82.8,10V20.061A1.349,1.349,0,0,1,81.454,21.41Z" transform="translate(-64.621 -9.999)" fill="#ffee80"/>
        <path id="Path_1025046" data-name="Path 1025046" d="M400.482,68.04V79.077h5v-27.6a1.349,1.349,0,0,0-1.349-1.349h-3.655V68.04Z" transform="translate(-352.668 -45.121)" fill="#b6bccf"/>
        <path id="Path_1025047" data-name="Path 1025047" d="M75.2,201.967h-20.8a1.49,1.49,0,0,1-1.288-.741l-5.79-9.959a1.49,1.49,0,0,0-1.288-.741H18.592a1.49,1.49,0,0,0-1.49,1.49v35.867a1.49,1.49,0,0,0,1.49,1.49H75.2a1.49,1.49,0,0,0,1.49-1.49V203.457a1.49,1.49,0,0,0-1.49-1.49Z" transform="translate(-17.102 -168.011)" fill="#ffee80"/>
        <circle id="Ellipse_16234" data-name="Ellipse 16234" cx="5.217" cy="5.217" r="5.217" transform="translate(11.539 33.133)" fill="#ffd4b5"/>
        <path id="Path_1025048" data-name="Path 1025048" d="M101.988,370.9H88.458a1.247,1.247,0,0,1-1.247-1.247V363.98a4.646,4.646,0,0,1,4.646-4.646H98.59a4.646,4.646,0,0,1,4.646,4.646v5.677A1.247,1.247,0,0,1,101.988,370.9Z" transform="translate(-78.467 -315.766)" fill="#80b6ff"/>
      </g>
      <g id="Group_1198927" data-name="Group 1198927" transform="translate(7.102 0)">
        <path id="Path_1025049" data-name="Path 1025049" d="M66.449,33.956H62.415V7.6a2.6,2.6,0,0,0-2.6-2.6H57.411V2.6a2.6,2.6,0,0,0-2.6-2.6H26.531a1.267,1.267,0,0,0-.882.365L14.238,11.776a1.267,1.267,0,0,0-.364.881v9.857H9.839A2.74,2.74,0,0,0,7.1,25.251V61.118a2.74,2.74,0,0,0,2.737,2.737h56.61a2.74,2.74,0,0,0,2.737-2.737V36.693A2.74,2.74,0,0,0,66.449,33.956ZM25.284,4.258v7.051a.1.1,0,0,1-.1.1H18.131Zm-8.916,9.647h8.814a2.6,2.6,0,0,0,2.6-2.6V2.494H54.814a.1.1,0,0,1,.1.1V14.12a1.247,1.247,0,1,0,2.494,0V7.5h2.408a.1.1,0,0,1,.1.1V33.956H57.41V24.165a1.247,1.247,0,1,0-2.494,0v9.791H45.652a.244.244,0,0,1-.21-.121l-5.79-9.959a2.746,2.746,0,0,0-2.366-1.361H16.368ZM66.691,61.118a.243.243,0,0,1-.243.243H9.839a.243.243,0,0,1-.243-.243V25.251a.243.243,0,0,1,.243-.242H37.287a.243.243,0,0,1,.21.121l5.79,9.959h0a2.746,2.746,0,0,0,2.366,1.361h20.8a.243.243,0,0,1,.243.242V61.118Z" transform="translate(-7.102 0)"/>
        <path id="Path_1025050" data-name="Path 1025050" d="M91.4,276.313a6.464,6.464,0,1,0-9.85,0A5.9,5.9,0,0,0,77.211,282v5.677a2.5,2.5,0,0,0,2.494,2.494h13.53a2.5,2.5,0,0,0,2.494-2.494V282A5.9,5.9,0,0,0,91.4,276.313Zm-4.925-8.151a3.97,3.97,0,1,1-3.97,3.97A3.975,3.975,0,0,1,86.47,268.162Zm6.765,19.51H79.705V282a3.4,3.4,0,0,1,3.4-3.4h6.733a3.4,3.4,0,0,1,3.4,3.4l0,5.677Z" transform="translate(-68.467 -232.535)"/>
        <path id="Path_1025051" data-name="Path 1025051" d="M279.182,355.72H262.094a1.247,1.247,0,1,0,0,2.494h17.087a1.247,1.247,0,1,0,0-2.494Z" transform="translate(-229.201 -311.356)"/>
        <path id="Path_1025052" data-name="Path 1025052" d="M279.182,395.72H262.094a1.247,1.247,0,1,0,0,2.494h17.087a1.247,1.247,0,1,0,0-2.494Z" transform="translate(-229.201 -346.367)"/>
        <path id="Path_1025053" data-name="Path 1025053" d="M270.638,435.721h-8.544a1.247,1.247,0,1,0,0,2.494h8.544a1.247,1.247,0,1,0,0-2.494Z" transform="translate(-229.201 -381.379)"/>
        <circle id="Ellipse_16235" data-name="Ellipse 16235" cx="1.247" cy="1.247" r="1.247" transform="translate(47.814 17.907)"/>
        <g id="Group_1198926" data-name="Group 1198926" transform="translate(24.768 10.379)">
          <path id="Path_1025054" data-name="Path 1025054" d="M206.945,85.714h16.119a1.247,1.247,0,0,0,0-2.494H206.945a1.247,1.247,0,0,0,0,2.494Z" transform="translate(-205.698 -83.22)"/>
          <path id="Path_1025055" data-name="Path 1025055" d="M223.064,123.22H206.945a1.247,1.247,0,0,0,0,2.494h16.119a1.247,1.247,0,0,0,0-2.494Z" transform="translate(-205.698 -118.231)"/>
        </g>
      </g>
    </g>
  </g>
</svg>
