<svg xmlns="http://www.w3.org/2000/svg" width="84" height="84" viewBox="0 0 84 84">
  <g id="img24" transform="translate(-527 -9119)">
    <rect id="Rectangle_461404" data-name="Rectangle 461404" width="84" height="84" rx="10" transform="translate(527 9119)" fill="#b9c296"/>
    <g id="Group_1198957" data-name="Group 1198957" transform="translate(543.266 9135.265)">
      <g id="Group_1198955" data-name="Group 1198955" transform="translate(0.803 0.804)">
        <path id="Path_1025092" data-name="Path 1025092" d="M0,0H4.032V5.72H0Z" transform="translate(36.815 36.056) rotate(-45)" fill="#e6e2e6"/>
        <path id="Path_1025093" data-name="Path 1025093" d="M0,0H4.032V5.72H0Z" transform="translate(36.815 36.056) rotate(-45)" fill="#ecdaec"/>
        <path id="Path_1025094" data-name="Path 1025094" d="M0,0H1.919V5.72H0Z" transform="translate(36.815 36.056) rotate(-45)" fill="#e2cbe2"/>
        <path id="Path_1025095" data-name="Path 1025095" d="M8,9.508A1.508,1.508,0,0,1,9.508,8H34.885l9.343,9.343V56.353a1.508,1.508,0,0,1-1.508,1.508H9.508A1.508,1.508,0,0,1,8,56.353Z" transform="translate(-8 -8)" fill="#f9f6f6"/>
        <path id="Path_1025096" data-name="Path 1025096" d="M42.72,472.508H9.508A1.508,1.508,0,0,1,8,471v1.809a1.508,1.508,0,0,0,1.508,1.508H42.72a1.508,1.508,0,0,0,1.508-1.508V471A1.508,1.508,0,0,1,42.72,472.508Z" transform="translate(-8 -424.456)" fill="#ecdaec"/>
        <g id="Group_1198953" data-name="Group 1198953" transform="translate(18.241)">
          <path id="Path_1025097" data-name="Path 1025097" d="M276.953,17.343h7.835L275.445,8v7.835A1.508,1.508,0,0,0,276.953,17.343Z" transform="translate(-266.8 -8)" fill="#e2cbe2"/>
          <path id="Path_1025098" data-name="Path 1025098" d="M276.953,17.343h7.835L275.445,8v7.835A1.508,1.508,0,0,0,276.953,17.343Z" transform="translate(-266.8 -8)" fill="#e2cbe2"/>
          <circle id="Ellipse_16236" data-name="Ellipse 16236" cx="12.514" cy="12.514" r="12.514" transform="translate(0 14.622)" fill="#e2cbe2"/>
        </g>
        <path id="Path_1025099" data-name="Path 1025099" d="M210.817,276.882a12.514,12.514,0,0,1-21.33-7.944,12.514,12.514,0,1,0,24.963,0A12.465,12.465,0,0,1,210.817,276.882Z" transform="translate(-171.213 -242.707)" fill="#dab9d8"/>
        <circle id="Ellipse_16237" data-name="Ellipse 16237" cx="9.061" cy="9.061" r="9.061" transform="translate(21.694 18.075)" fill="#ffe27a"/>
        <path id="Path_1025100" data-name="Path 1025100" d="M239.281,274.439a9.06,9.06,0,0,1-15.422-5.5,9.06,9.06,0,1,0,18.03,0A9.022,9.022,0,0,1,239.281,274.439Z" transform="translate(-202.119 -242.706)" fill="#f9cf58"/>
        <path id="Path_1025101" data-name="Path 1025101" d="M273.093,250.485a1.579,1.579,0,0,1-1.1-.448l-2.079-2.022a1.584,1.584,0,1,1,2.209-2.272l.945.919,2.839-2.911a1.584,1.584,0,0,1,2.269,2.212l-3.944,4.044a1.579,1.579,0,0,1-1.134.478Z" transform="translate(-243.149 -219.622)" fill="#98db7c"/>
        <path id="Path_1025102" data-name="Path 1025102" d="M278.181,250.226l-3.944,4.044a1.584,1.584,0,0,1-2.239.03l-2.079-2.022a1.6,1.6,0,0,1-.195-.23,1.583,1.583,0,0,0,.195,2.04L272,256.109a1.584,1.584,0,0,0,2.239-.03l3.944-4.044a1.584,1.584,0,0,0,.165-2.012A1.6,1.6,0,0,1,278.181,250.226Z" transform="translate(-243.159 -225.694)" fill="#82d361"/>
        <path id="Path_1025103" data-name="Path 1025103" d="M412.922,372.946l-3.976,3.976,4.757,4.757a2.811,2.811,0,0,0,3.976-3.976Z" transform="translate(-368.64 -336.259)" fill="#ff4755"/>
        <path id="Path_1025104" data-name="Path 1025104" d="M415.058,403.748l-4.755-4.755-1.357,1.357,4.757,4.757a2.813,2.813,0,0,0,4.537-.8A2.812,2.812,0,0,1,415.058,403.748Z" transform="translate(-368.64 -359.688)" fill="#fc2b3a"/>
        <g id="Group_1198954" data-name="Group 1198954" transform="translate(5.156 13.877)">
          <path id="Path_1025105" data-name="Path 1025105" d="M63.517,151.2h-3.3a.932.932,0,0,1-.932-.932v-3.3a.932.932,0,0,1,.932-.933h3.3a.933.933,0,0,1,.932.933v3.3A.933.933,0,0,1,63.517,151.2Z" transform="translate(-59.286 -146.039)" fill="#98db7c"/>
          <path id="Path_1025106" data-name="Path 1025106" d="M63.517,256.364h-3.3a.932.932,0,0,1-.932-.932v-3.3a.932.932,0,0,1,.932-.932h3.3a.932.932,0,0,1,.932.932v3.3A.933.933,0,0,1,63.517,256.364Z" transform="translate(-59.286 -240.629)" fill="#98db7c"/>
          <path id="Path_1025107" data-name="Path 1025107" d="M63.517,363.661h-3.3a.933.933,0,0,1-.932-.932v-3.3a.933.933,0,0,1,.932-.933h3.3a.933.933,0,0,1,.932.933v3.3A.933.933,0,0,1,63.517,363.661Z" transform="translate(-59.286 -337.14)" fill="#98db7c"/>
        </g>
        <path id="Path_1025108" data-name="Path 1025108" d="M63.517,171.06h-3.3a.932.932,0,0,1-.932-.932v1.809a.932.932,0,0,0,.932.932h3.3a.932.932,0,0,0,.932-.932v-1.809A.932.932,0,0,1,63.517,171.06Z" transform="translate(-54.13 -153.83)" fill="#82d361"/>
        <path id="Path_1025109" data-name="Path 1025109" d="M63.517,276.221h-3.3a.932.932,0,0,1-.932-.932V277.1a.932.932,0,0,0,.932.932h3.3a.932.932,0,0,0,.932-.932v-1.809A.932.932,0,0,1,63.517,276.221Z" transform="translate(-54.13 -248.419)" fill="#82d361"/>
        <path id="Path_1025110" data-name="Path 1025110" d="M63.517,383.518h-3.3a.932.932,0,0,1-.932-.932V384.4a.932.932,0,0,0,.932.932h3.3a.932.932,0,0,0,.932-.932v-1.809A.932.932,0,0,1,63.517,383.518Z" transform="translate(-54.13 -344.93)" fill="#82d361"/>
        <path id="Path_1025111" data-name="Path 1025111" d="M275.445,85.937v1.809a1.508,1.508,0,0,0,1.508,1.508h7.835V87.445h-7.835A1.508,1.508,0,0,1,275.445,85.937Z" transform="translate(-248.56 -78.102)" fill="#ecdaec"/>
      </g>
      <g id="Group_1198956" data-name="Group 1198956" transform="translate(-0.001 0)">
        <path id="Path_1025112" data-name="Path 1025112" d="M266.413,244.481a2.326,2.326,0,0,0,1.678-.707l3.952-4.052a2.343,2.343,0,0,0-3.355-3.271l-2.318,2.377-.406-.395a2.343,2.343,0,1,0-3.267,3.359l2.084,2.026A2.331,2.331,0,0,0,266.413,244.481Zm-2.68-4.949a.833.833,0,0,1,1.177-.016l.947.921a.756.756,0,0,0,1.068-.014l2.845-2.917a.832.832,0,1,1,1.192,1.162l-3.952,4.052a.836.836,0,0,1-1.176.016l-2.084-2.026A.833.833,0,0,1,263.733,239.532Z" transform="translate(-235.651 -212.046)"/>
        <path id="Path_1025113" data-name="Path 1025113" d="M219.4,195.038a.756.756,0,0,0-1.206.91,9.957,9.957,0,0,0,.9,1.039,9.827,9.827,0,1,0-2.414-3.955.755.755,0,0,0,1.439-.459,8.33,8.33,0,1,1,2.043,3.347A8.46,8.46,0,0,1,219.4,195.038Z" transform="translate(-194.476 -162.089)"/>
        <path id="Path_1025114" data-name="Path 1025114" d="M50.429,41.746,45.663,36.98a.756.756,0,0,0-1.069,0l-.029.029-1.834-1.834a13.272,13.272,0,0,0,2.112-6.39.756.756,0,0,0-1.508-.1,11.774,11.774,0,0,1-11.75,11.032h-.071A11.778,11.778,0,1,1,43.173,25.855a.756.756,0,0,0,1.487-.267A13.3,13.3,0,0,0,37.814,16.2V10.116a.765.765,0,0,0-.221-.534L28.23.221A.766.766,0,0,0,27.7,0H2.266A2.269,2.269,0,0,0,0,2.266v6.35a.756.756,0,0,0,1.511,0V2.266a.756.756,0,0,1,.756-.755H26.941V8.606a2.269,2.269,0,0,0,2.267,2.266h7.1v4.649a13.35,13.35,0,0,0-4.585-.862l-.022,0H14.827a.755.755,0,1,0,0,1.511H25.405a13.242,13.242,0,0,0-3.014,2.164H14.827a.755.755,0,1,0,0,1.511h6.2a13.15,13.15,0,0,0-2.479,5.4H14.827a.755.755,0,1,0,0,1.511h3.5q-.052.591-.053,1.191,0,.492.035.978H14.827a.755.755,0,1,0,0,1.511h3.683a13.149,13.149,0,0,0,2.523,5.616H14.827a.755.755,0,1,0,0,1.511h7.567a13.241,13.241,0,0,0,3.009,2.16H14.827a.755.755,0,1,0,0,1.511H31.574a13.358,13.358,0,0,0,4.729-.864V49.2a.756.756,0,0,1-.756.755H2.266A.756.756,0,0,1,1.51,49.2V11.638a.756.756,0,0,0-1.511,0V49.2A2.269,2.269,0,0,0,2.266,51.47H35.547A2.269,2.269,0,0,0,37.814,49.2v-9.52q.506-.268.992-.583l1.834,1.834a.762.762,0,0,0-.029,1.1L45.377,46.8a3.572,3.572,0,0,0,5.052-5.052ZM29.207,9.361a.756.756,0,0,1-.756-.755V2.579l6.783,6.782ZM40.038,38.2q.484-.4.937-.851t.851-.937l1.67,1.67-1.788,1.788Zm9.323,7.533a2.071,2.071,0,0,1-2.915,0L42.213,41.5l2.915-2.915,4.232,4.232A2.071,2.071,0,0,1,49.361,45.729Z" transform="translate(0.001 0)"/>
        <path id="Path_1025115" data-name="Path 1025115" d="M53.083,144.994h3.305a1.692,1.692,0,0,0,1.69-1.69V140a1.692,1.692,0,0,0-1.69-1.69H53.083a1.692,1.692,0,0,0-1.69,1.69v3.3A1.692,1.692,0,0,0,53.083,144.994ZM52.9,140a.179.179,0,0,1,.179-.179h3.305a.179.179,0,0,1,.179.179v3.3a.179.179,0,0,1-.179.179H53.083a.179.179,0,0,1-.179-.179Z" transform="translate(-46.227 -124.406)"/>
        <path id="Path_1025116" data-name="Path 1025116" d="M51.393,248.673a1.692,1.692,0,0,0,1.69,1.69h3.305a1.692,1.692,0,0,0,1.69-1.69v-3.3a1.692,1.692,0,0,0-1.69-1.69H53.083a1.692,1.692,0,0,0-1.69,1.69Zm1.511-3.3a.179.179,0,0,1,.179-.179h3.305a.179.179,0,0,1,.179.179v3.3a.179.179,0,0,1-.179.179H53.083a.179.179,0,0,1-.179-.179Z" transform="translate(-46.227 -219.182)"/>
        <path id="Path_1025117" data-name="Path 1025117" d="M51.393,356.18a1.692,1.692,0,0,0,1.69,1.69h3.305a1.692,1.692,0,0,0,1.69-1.69v-3.3a1.692,1.692,0,0,0-1.69-1.69H53.083a1.692,1.692,0,0,0-1.69,1.69Zm1.511-3.3a.179.179,0,0,1,.179-.179h3.305a.179.179,0,0,1,.179.179v3.3a.179.179,0,0,1-.179.179H53.083a.179.179,0,0,1-.179-.179Z" transform="translate(-46.227 -315.881)"/>
      </g>
    </g>
  </g>
</svg>
