<svg xmlns="http://www.w3.org/2000/svg" width="150" height="150" viewBox="0 0 150 150">
  <g id="img20" transform="translate(-383.746 -8400)">
    <circle id="Ellipse_13609" data-name="Ellipse 13609" cx="75" cy="75" r="75" transform="translate(383.746 8400)" fill="#b9c296"/>
    <g id="Group_1199330" data-name="Group 1199330" transform="translate(420.364 8434.94)">
      <path id="Path_1025858" data-name="Path 1025858" d="M10.341,80.117H66.424a5.341,5.341,0,0,0,5.341-5.341V9.346a5.341,5.341,0,0,0-5.341-5.341H51.364a2.661,2.661,0,0,0-2.3-1.335H44.346a1.532,1.532,0,0,1-1.068-.534,6.676,6.676,0,0,0-9.785,0,1.532,1.532,0,0,1-1.068.534H27.7a2.661,2.661,0,0,0-2.3,1.335H10.341A5.341,5.341,0,0,0,5,9.346v65.43A5.341,5.341,0,0,0,10.341,80.117ZM27.7,5.34h4.719a4.127,4.127,0,0,0,3.032-1.391,4.091,4.091,0,0,1,5.862,0A4.127,4.127,0,0,0,44.346,5.34h4.719v5.341H27.7Zm21.365,8.012a2.661,2.661,0,0,0,2.3-1.335H63.753V72.105H13.012V12.017H25.4a2.661,2.661,0,0,0,2.3,1.335ZM7.671,9.346a2.671,2.671,0,0,1,2.671-2.671H25.029V9.346H13.012a2.671,2.671,0,0,0-2.671,2.671V72.105a2.671,2.671,0,0,0,2.671,2.671H63.753a2.671,2.671,0,0,0,2.671-2.671V12.017a2.671,2.671,0,0,0-2.671-2.671H51.735V6.676H66.424a2.671,2.671,0,0,1,2.671,2.671v65.43a2.671,2.671,0,0,1-2.671,2.671H10.341a2.671,2.671,0,0,1-2.671-2.671Z" fill="#4a4e3c"/>
      <path id="Path_1025859" data-name="Path 1025859" d="M20.279,19.068a1.335,1.335,0,1,0-1.888,1.888l1.335,1.335a1.335,1.335,0,0,0,1.888,0l8.012-8.012a1.335,1.335,0,1,0-1.888-1.888l-7.068,7.068Z" transform="translate(4.359 4.023)" fill="#4a4e3c"/>
      <path id="Path_1025860" data-name="Path 1025860" d="M14,16.006v8.012a4.006,4.006,0,0,0,4.006,4.006h8.012a4.006,4.006,0,0,0,4.006-4.006V21.347a1.335,1.335,0,0,0-2.671,0v2.671a1.335,1.335,0,0,1-1.335,1.335H18.006a1.335,1.335,0,0,1-1.335-1.335V16.006a1.335,1.335,0,0,1,1.335-1.335h5.341a1.335,1.335,0,1,0,0-2.671H18.006A4.006,4.006,0,0,0,14,16.006Z" transform="translate(3.018 4.023)" fill="#4a4e3c"/>
      <path id="Path_1025861" data-name="Path 1025861" d="M27.738,26.391l-7.068,7.068-.391-.391a1.335,1.335,0,1,0-1.888,1.888l1.335,1.335a1.335,1.335,0,0,0,1.888,0l8.012-8.012a1.335,1.335,0,1,0-1.888-1.888Z" transform="translate(4.359 8.717)" fill="#4a4e3c"/>
      <path id="Path_1025862" data-name="Path 1025862" d="M18.006,42.024h8.012a4.006,4.006,0,0,0,4.006-4.006V35.347a1.335,1.335,0,0,0-2.671,0v2.671a1.335,1.335,0,0,1-1.335,1.335H18.006a1.335,1.335,0,0,1-1.335-1.335V30.006a1.335,1.335,0,0,1,1.335-1.335h5.341a1.335,1.335,0,1,0,0-2.671H18.006A4.006,4.006,0,0,0,14,30.006v8.012A4.006,4.006,0,0,0,18.006,42.024Z" transform="translate(3.018 8.717)" fill="#4a4e3c"/>
      <path id="Path_1025863" data-name="Path 1025863" d="M27.738,40.391l-7.068,7.068-.391-.391a1.335,1.335,0,1,0-1.888,1.888l1.335,1.335a1.335,1.335,0,0,0,1.888,0l8.012-8.012a1.335,1.335,0,1,0-1.888-1.888Z" transform="translate(4.359 13.411)" fill="#4a4e3c"/>
      <path id="Path_1025864" data-name="Path 1025864" d="M28.688,48.012a1.335,1.335,0,0,0-1.335,1.335v2.671a1.335,1.335,0,0,1-1.335,1.335H18.006a1.335,1.335,0,0,1-1.335-1.335V44.006a1.335,1.335,0,0,1,1.335-1.335h5.341a1.335,1.335,0,1,0,0-2.671H18.006A4.006,4.006,0,0,0,14,44.006v8.012a4.006,4.006,0,0,0,4.006,4.006h8.012a4.006,4.006,0,0,0,4.006-4.006V49.347A1.335,1.335,0,0,0,28.688,48.012Z" transform="translate(3.018 13.411)" fill="#4a4e3c"/>
      <path id="Path_1025865" data-name="Path 1025865" d="M31.335,17.671h4.006a1.335,1.335,0,1,0,0-2.671H31.335a1.335,1.335,0,1,0,0,2.671Z" transform="translate(8.382 5.029)" fill="#4a4e3c"/>
      <path id="Path_1025866" data-name="Path 1025866" d="M31.335,21.671H50.029a1.335,1.335,0,0,0,0-2.671H31.335a1.335,1.335,0,0,0,0,2.671Z" transform="translate(8.382 6.37)" fill="#4a4e3c"/>
      <path id="Path_1025867" data-name="Path 1025867" d="M31.335,31.671h4.006a1.335,1.335,0,1,0,0-2.671H31.335a1.335,1.335,0,0,0,0,2.671Z" transform="translate(8.382 9.723)" fill="#4a4e3c"/>
      <path id="Path_1025868" data-name="Path 1025868" d="M31.335,35.671H50.029a1.335,1.335,0,0,0,0-2.671H31.335a1.335,1.335,0,0,0,0,2.671Z" transform="translate(8.382 11.064)" fill="#4a4e3c"/>
      <path id="Path_1025869" data-name="Path 1025869" d="M31.335,45.671h4.006a1.335,1.335,0,1,0,0-2.671H31.335a1.335,1.335,0,0,0,0,2.671Z" transform="translate(8.382 14.417)" fill="#4a4e3c"/>
      <path id="Path_1025870" data-name="Path 1025870" d="M31.335,49.671H50.029a1.335,1.335,0,0,0,0-2.671H31.335a1.335,1.335,0,1,0,0,2.671Z" transform="translate(8.382 15.758)" fill="#4a4e3c"/>
      <path id="Path_1025871" data-name="Path 1025871" d="M31.983,4H29.335a1.335,1.335,0,0,0,0,2.671h2.255c1.162,0,1.751-.449,1.751-1.335A1.357,1.357,0,0,0,31.983,4Z" transform="translate(7.712 1.34)" fill="#4a4e3c"/>
    </g>
  </g>
</svg>
