<svg xmlns="http://www.w3.org/2000/svg" width="150" height="150" viewBox="0 0 150 150">
  <g id="img22" transform="translate(-383.746 -8400)">
    <circle id="Ellipse_13609" data-name="Ellipse 13609" cx="75" cy="75" r="75" transform="translate(383.746 8400)" fill="#b9c296"/>
    <g id="Group_1199340" data-name="Group 1199340" transform="translate(421.747 8434.816)">
      <path id="Path_1025876" data-name="Path 1025876" d="M69.973,176.92a4.966,4.966,0,0,0-5.445,3.254c-.009.022-.018.043-.026.065l-4.224,11.328a4.763,4.763,0,0,0-4.978.1l-10.834,6.954A18.164,18.164,0,0,0,37,207.195a18.164,18.164,0,0,0-7.466-8.569L18.7,191.673a4.763,4.763,0,0,0-4.979-.106L9.5,180.239c-.008-.022-.017-.044-.026-.065a4.966,4.966,0,0,0-5.445-3.254,4.794,4.794,0,0,0-3.985,5.413,1.428,1.428,0,0,0,.032.171l4.577,18.4a25.019,25.019,0,0,0,8.829,13.1l.045.034,7.3,5.225v2.593a2.894,2.894,0,0,0,2.891,2.891H50.282a2.894,2.894,0,0,0,2.891-2.891v-2.593l7.3-5.225.045-.034A25.02,25.02,0,0,0,69.35,200.9l4.576-18.4a1.463,1.463,0,0,0,.032-.171A4.794,4.794,0,0,0,69.973,176.92ZM35.538,214.787c0,.043-.006,7.071-.006,7.071H23.717v-3.336a1.445,1.445,0,0,0-.6-1.175l-7.884-5.64a22.354,22.354,0,0,1-7.775-11.5L2.9,181.9a1.9,1.9,0,0,1,1.664-2.14l.042-.009c.057-.012,1.4-.277,2.194,1.533l4.8,12.879a4.734,4.734,0,0,0,1.072,4.8c.047.05,7.458,5.9,7.458,5.9a1.445,1.445,0,1,0,1.79-2.27L14.712,196.9a1.884,1.884,0,0,1,.091-2.545,1.867,1.867,0,0,1,2.335-.252l10.848,6.963.03.019a15.1,15.1,0,0,1,6.841,8.67,14.9,14.9,0,0,1,.681,5.03ZM71.1,181.9l-4.553,18.3a22.353,22.353,0,0,1-7.775,11.506l-7.884,5.64a1.445,1.445,0,0,0-.6,1.175v3.336H38.467s0-7.026-.005-7.066a14.89,14.89,0,0,1,.68-5.035,15.1,15.1,0,0,1,6.841-8.67l.03-.019,10.85-6.964a1.868,1.868,0,0,1,2.333.253,1.884,1.884,0,0,1,.092,2.546l-7.213,5.688a1.445,1.445,0,0,0,1.79,2.27s7.41-5.85,7.458-5.9a4.734,4.734,0,0,0,1.072-4.8l4.8-12.879c.725-1.653,1.928-1.573,2.205-1.531a.308.308,0,0,0,.032.006A1.9,1.9,0,0,1,71.1,181.9Z" transform="translate(0 -148.103)" fill="#4a4e3c"/>
      <path id="Path_1025877" data-name="Path 1025877" d="M103.941,45.357a4.3,4.3,0,0,0,6.068,0l4.029-4.029a1.445,1.445,0,0,0-2.044-2.044l-4.029,4.029a1.4,1.4,0,0,1-1.981,0L87.863,25.2a10.891,10.891,0,1,1,15.4-15.4l2.681,2.681a1.445,1.445,0,0,0,2.044,0L110.67,9.8a10.891,10.891,0,0,1,15.4,15.4l-4.9,4.9a1.445,1.445,0,0,0,2.044,2.044l4.9-4.9a13.782,13.782,0,0,0-19.49-19.49l-1.658,1.658-1.659-1.659a13.781,13.781,0,1,0-19.49,19.49Z" transform="translate(-69.968)" fill="#4a4e3c"/>
      <circle id="Ellipse_16333" data-name="Ellipse 16333" cx="1.445" cy="1.445" r="1.445" transform="translate(46.216 34.293)" fill="#4a4e3c"/>
    </g>
  </g>
</svg>
