<svg xmlns="http://www.w3.org/2000/svg" xmlns:xlink="http://www.w3.org/1999/xlink" width="292" height="291" viewBox="0 0 292 291">
  <defs>
    <clipPath id="clip-path">
      <rect id="Rectangle_462145" data-name="Rectangle 462145" width="226.028" height="249.149" fill="none"/>
    </clipPath>
    <clipPath id="clip-path-3">
      <rect id="Rectangle_462136" data-name="Rectangle 462136" width="34.194" height="36.84" fill="none"/>
    </clipPath>
    <clipPath id="clip-path-4">
      <rect id="Rectangle_462137" data-name="Rectangle 462137" width="65.725" height="65.771" fill="none"/>
    </clipPath>
    <clipPath id="clip-path-5">
      <rect id="Rectangle_462138" data-name="Rectangle 462138" width="0.41" height="0.476" fill="none"/>
    </clipPath>
    <clipPath id="clip-path-6">
      <rect id="Rectangle_462139" data-name="Rectangle 462139" width="12.133" height="30.493" fill="none"/>
    </clipPath>
    <clipPath id="clip-path-7">
      <rect id="Rectangle_462140" data-name="Rectangle 462140" width="24.757" height="22.823" fill="none"/>
    </clipPath>
    <clipPath id="clip-path-8">
      <rect id="Rectangle_462141" data-name="Rectangle 462141" width="53.432" height="53.854" fill="none"/>
    </clipPath>
    <clipPath id="clip-path-9">
      <rect id="Rectangle_462142" data-name="Rectangle 462142" width="47.458" height="34.967" fill="none"/>
    </clipPath>
    <clipPath id="clip-path-10">
      <rect id="Rectangle_462143" data-name="Rectangle 462143" width="64.813" height="41.625" fill="none"/>
    </clipPath>
  </defs>
  <g id="img2" transform="translate(-1121 -316)">
    <rect id="Rectangle_461554" data-name="Rectangle 461554" width="292" height="291" rx="20" transform="translate(1121 316)" fill="#e1c1b7"/>
    <g id="Group_1198021" data-name="Group 1198021" transform="translate(1153.986 336.926)">
      <g id="Group_1198020" data-name="Group 1198020" clip-path="url(#clip-path)">
        <g id="Group_1198019" data-name="Group 1198019">
          <g id="Group_1198018" data-name="Group 1198018" clip-path="url(#clip-path)">
            <path id="Path_1020845" data-name="Path 1020845" d="M7.158,249.149A7.158,7.158,0,0,1,0,241.991V113.026c0-.527,0-1.068.014-1.6A109.41,109.41,0,0,1,1.043,97.611c.016-.118.033-.235.054-.35s.035-.255.064-.418c.069-.5.141-.989.227-1.473.131-.948.3-1.933.5-3l.018-.1a111.1,111.1,0,0,1,3.43-13.648c.669-2.107,1.41-4.227,2.2-6.287A112.562,112.562,0,0,1,22.931,44.752c.123-.167.291-.384.477-.618A112.6,112.6,0,0,1,49.876,19.285c.253-.185.5-.353.758-.515,1.756-1.169,3.666-2.362,5.6-3.5.039-.023.548-.326.622-.367A112.354,112.354,0,0,1,92.55,1.848l.525-.1A113.672,113.672,0,0,1,113.014,0a111.913,111.913,0,0,1,50.175,11.733l.143.072c.22.107.44.218.657.336A111.947,111.947,0,0,1,184.5,25.48c2.026,1.652,4.06,3.438,6.038,5.3.053.05.506.471.506.471.673.644,1.269,1.241,1.88,1.852a112.926,112.926,0,0,1,11.35,13.262,111.7,111.7,0,0,1,6.986,10.768l.115.2c.143.249.283.5.416.75.222.4.434.789.644,1.186.15.258.288.509.415.765a111.824,111.824,0,0,1,9.291,23.537c0,.011.031.119.033.13.225.848.449,1.7.648,2.559.266,1.062.536,2.251.791,3.455l.194.96a109.273,109.273,0,0,1,1.7,11.652c.024.186.043.365.057.544.012.111.036.437.039.488.092,1.044.185,2.226.236,3.485.112,1.779.173,3.714.187,5.91V241.991a7.159,7.159,0,0,1-7.158,7.158Z" fill="#fff"/>
            <path id="Path_1020846" data-name="Path 1020846" d="M218.538,111.875V241.067H6.826V112.1c0-.465,0-.942.012-1.408a100.717,100.717,0,0,1,.74-11.286c.072-.6.143-1.181.227-1.766.012-.1.036-.179.048-.286a1.492,1.492,0,0,1,.036-.227c.072-.525.143-1.05.239-1.563q.054-.447.143-.895c.1-.68.215-1.348.346-2.016v-.012a103.5,103.5,0,0,1,3.209-12.765c.632-1.992,1.324-3.973,2.064-5.905A105.377,105.377,0,0,1,28.3,48.156c.131-.179.262-.346.406-.525A105.762,105.762,0,0,1,53.688,24.2c.167-.131.334-.239.5-.346q2.613-1.736,5.333-3.329c.191-.107.37-.215.561-.334A105.415,105.415,0,0,1,93.51,7.964c.191-.036.394-.072.6-.107a106.3,106.3,0,0,1,65.568,9.365c.215.107.441.215.656.334a104.605,104.605,0,0,1,19.3,12.539c1.945,1.587,3.842,3.257,5.667,4.975.167.167.346.322.525.489.573.549,1.133,1.11,1.706,1.682a105.578,105.578,0,0,1,10.63,12.419,104.281,104.281,0,0,1,6.55,10.093c.155.274.31.537.453.811.239.429.465.847.692,1.277a5.69,5.69,0,0,1,.286.525A104.563,104.563,0,0,1,214.1,81.716c.286.919.549,1.849.8,2.792.215.811.429,1.622.62,2.446.274,1.1.525,2.207.764,3.329l.179.895c.382,1.909.716,3.842.99,5.786.251,1.73.453,3.484.608,5.237a.535.535,0,0,1,.012.131,3.089,3.089,0,0,1,.036.31c.012.1.012.191.024.286.1,1.109.179,2.231.227,3.364.119,1.849.167,3.71.179,5.583" transform="translate(1.318 1.203)" fill="#6f66ff"/>
            <path id="Path_1020847" data-name="Path 1020847" d="M195.335,85.469H121.416a26.557,26.557,0,0,1,2.732-2.3c3.519-2.553,7.981-4.056,12.264-3.281,2.732.5,5.416,1.9,8.16,1.42,2.481-.429,4.414-2.279,6.323-3.925a50.458,50.458,0,0,1,18.9-10.188,29.541,29.541,0,0,1,12.1-1.2,22.133,22.133,0,0,1,10.093,4.235c.286.919.549,1.849.8,2.792.215.811.429,1.622.62,2.446.274,1.1.525,2.207.764,3.329l.179.895c.382,1.909.716,3.842.99,5.786" transform="translate(23.435 12.697)" fill="#fedede"/>
            <path id="Path_1020848" data-name="Path 1020848" d="M71.056,87.519H7.456c.072-.6.143-1.181.227-1.766.012-.1.036-.179.048-.286a1.492,1.492,0,0,1,.036-.227c.072-.525.143-1.05.239-1.563q.054-.447.143-.895a11,11,0,0,0,4.9.573c2.481-.429,4.414-2.279,6.323-3.925a50.457,50.457,0,0,1,18.9-10.188,29.541,29.541,0,0,1,12.1-1.2c9.7,1.348,17.382,9.616,20.591,18.873Z" transform="translate(1.439 13.092)" fill="#fedede"/>
            <path id="Path_1020849" data-name="Path 1020849" d="M155.6,38.494H74.438a26.555,26.555,0,0,1,2.732-2.3c3.519-2.553,7.981-4.056,12.264-3.281,2.732.5,5.416,1.9,8.16,1.42,2.481-.429,4.414-2.279,6.323-3.925a50.457,50.457,0,0,1,18.9-10.188,29.541,29.541,0,0,1,12.1-1.2c9.7,1.348,17.382,9.616,20.591,18.873Z" transform="translate(14.368 3.63)" fill="#fedede"/>
            <path id="Path_1020850" data-name="Path 1020850" d="M176.384,80.106l-1.341.606.728,1.275a4.681,4.681,0,0,1-5.018,6.9l-1.442-.3-.159,1.45a4.681,4.681,0,0,1-8.117,2.638l-.982-1.082-.983,1.082a4.681,4.681,0,0,1-8.117-2.638l-.159-1.45-1.442.3a4.681,4.681,0,0,1-5.018-6.9l.728-1.277-1.341-.6a4.68,4.68,0,0,1,0-8.532l1.341-.606-.728-1.277a4.68,4.68,0,0,1,5.018-6.9l1.442.3.159-1.45A4.68,4.68,0,0,1,159.07,59l.983,1.082L161.035,59a4.68,4.68,0,0,1,8.117,2.638l.159,1.45,1.442-.3a4.681,4.681,0,0,1,5.018,6.9l-.728,1.275,1.341.606a4.681,4.681,0,0,1,0,8.532" transform="translate(27.208 11.091)" fill="#fff"/>
            <path id="Path_1020851" data-name="Path 1020851" d="M165.7,73.915a7.006,7.006,0,1,1-7.005-7.005,7.005,7.005,0,0,1,7.005,7.005" transform="translate(29.278 12.915)" fill="#ffa3a3"/>
            <path id="Path_1020852" data-name="Path 1020852" d="M172.662,192.209c-.251,9.795-.31,19.661-.274,28.1H49.1c0-.2,0-.406-.012-.608-.036-6.418-.036-13.672.06-21.212.107-8.625.334-17.6.775-26.079,0-.167.012-.334.024-.5v-.167c.012-.143.024-.286.024-.429.167-3.03.358-5.989.573-8.84,1.145-15.008,3.126-27.034,6.43-30.338a39.477,39.477,0,0,1,4.832-4.032c11.1-7.934,28.084-13.5,30.3-14.221.155-.048.239-.072.239-.072l33.87,1.074s7.182,2.732,15.426,6.836c6.919,3.46,14.6,7.874,19.434,12.479q.018,0,.036.036a5.417,5.417,0,0,1,.453.453,4.975,4.975,0,0,1,.441.429c3.865,4.032,6.43,9.663,8.089,16.523q.805,3.328,1.336,7.039c1.4,9.64,1.539,21.057,1.229,33.536" transform="translate(9.471 21.966)" fill="#ff7373"/>
            <path id="Path_1020853" data-name="Path 1020853" d="M119.268,101.022v17.735a18.99,18.99,0,0,1-15.658,11.665c-11.99,1.277-18.536-11.189-18.536-11.189l1.439-25.558,12.442,2.79Z" transform="translate(16.42 18.081)" fill="#ffa3a3"/>
            <g id="Group_1197996" data-name="Group 1197996" transform="translate(101.495 111.756)" opacity="0.33">
              <g id="Group_1197995" data-name="Group 1197995">
                <g id="Group_1197994" data-name="Group 1197994" clip-path="url(#clip-path-3)">
                  <path id="Path_1020854" data-name="Path 1020854" d="M119.268,101.022v17.735a18.99,18.99,0,0,1-15.658,11.665c-11.99,1.277-18.536-11.189-18.536-11.189l1.439-25.558,12.442,2.79Z" transform="translate(-85.074 -93.675)" fill="#2d1026"/>
                </g>
              </g>
            </g>
            <path id="Path_1020855" data-name="Path 1020855" d="M117.429,100.57v13.5c-.2.088-.4.162-.613.239a10.542,10.542,0,0,1-4.882.288,21.423,21.423,0,0,1-10.676-4.969,26.756,26.756,0,0,1-4.681-5.258c-1.263-1.852-2.715-3.479-1.539-5.619a12.36,12.36,0,0,1,2.078-2.742Z" transform="translate(18.26 18.532)" fill="#2d1026"/>
            <path id="Path_1020856" data-name="Path 1020856" d="M108.6,44.556a17.334,17.334,0,0,1,6.607-.888,6.49,6.49,0,0,1,5.326,3.554,25.834,25.834,0,0,1,8.649-.95,11.393,11.393,0,0,1,7.682,3.7,7.393,7.393,0,0,1,1.04,8.151,18.6,18.6,0,0,1,7.027,3.414,9.478,9.478,0,0,1,3.565,6.758,9.62,9.62,0,0,1-3.34,7.134,20.3,20.3,0,0,1-7.065,3.9,61.7,61.7,0,0,1-14.2,3.036,32.469,32.469,0,0,1-10.847-.291c-6.279-1.477-11.532-6.016-14.985-11.464a42.441,42.441,0,0,1-4.383-9.557c-.8-2.437-6.779-7.118-4.449-8.417a77.509,77.509,0,0,1,8.136-4.34q5.522-2.14,11.236-3.737" transform="translate(17.118 8.416)" fill="#2d1026"/>
            <path id="Path_1020857" data-name="Path 1020857" d="M138.583,91.586c-.648,5.966-1.35,20.2-9.425,23.18C116.621,119.4,89.107,113,89.107,113A78.164,78.164,0,0,0,88.65,101.7c0,.639-3.911.364-6.169.092-.775-.111-1.354-.205-1.527-.255a11.258,11.258,0,0,1-5.392-3.9,9.521,9.521,0,0,1,.867-12.477,8.8,8.8,0,0,1,1.323-1.014c.154-.1.319-.2.484-.291,0-.012.011,0,.011,0a6.453,6.453,0,0,1,4.327-.818A7.425,7.425,0,0,1,85.987,84.6a1.934,1.934,0,0,1,.157.178,1.194,1.194,0,0,1,.21.538c-.021-.14-.029-.29-.038-.429A59.98,59.98,0,0,1,86.1,73.221a25.846,25.846,0,0,1,23.413-22.4,40.963,40.963,0,0,1,5.553-.082c.545.013,1.067.048,1.6.106.243.018.5.058.753.087a2.5,2.5,0,0,1,.3.042c.081.013.162.027.255.041.289.042.58.084.867.136a24.4,24.4,0,0,1,5.273,1.5A23.034,23.034,0,0,1,135.84,63.27,32.609,32.609,0,0,1,139.3,77.063a91.707,91.707,0,0,1-.716,14.523" transform="translate(14.214 9.782)" fill="#ffa3a3"/>
            <g id="Group_1197999" data-name="Group 1197999" transform="translate(87.859 60.463)" opacity="0.33">
              <g id="Group_1197998" data-name="Group 1197998">
                <g id="Group_1197997" data-name="Group 1197997" clip-path="url(#clip-path-4)">
                  <path id="Path_1020858" data-name="Path 1020858" d="M138.583,91.586c-.648,5.966-1.35,20.2-9.425,23.18C116.621,119.4,89.107,113,89.107,113A78.164,78.164,0,0,0,88.65,101.7c0,.639-3.911.364-6.169.092-.775-.111-1.354-.205-1.527-.255a11.258,11.258,0,0,1-5.392-3.9,9.521,9.521,0,0,1,.867-12.477,8.8,8.8,0,0,1,1.323-1.014c.154-.1.319-.2.484-.291,0-.012.011,0,.011,0a6.453,6.453,0,0,1,4.327-.818A7.425,7.425,0,0,1,85.987,84.6a1.934,1.934,0,0,1,.157.178,1.194,1.194,0,0,1,.21.538c-.021-.14-.029-.29-.038-.429A59.98,59.98,0,0,1,86.1,73.221a25.846,25.846,0,0,1,23.413-22.4,40.963,40.963,0,0,1,5.553-.082c.545.013,1.067.048,1.6.106.243.018.5.058.753.087a2.5,2.5,0,0,1,.3.042c.081.013.162.027.255.041.289.042.58.084.867.136a24.4,24.4,0,0,1,5.273,1.5A23.034,23.034,0,0,1,135.84,63.27,32.609,32.609,0,0,1,139.3,77.063a91.707,91.707,0,0,1-.716,14.523" transform="translate(-73.645 -50.681)" fill="#2d1026"/>
                </g>
              </g>
            </g>
            <path id="Path_1020859" data-name="Path 1020859" d="M113.771,90.612a.313.313,0,0,1-.043-.623,5.39,5.39,0,0,0,2.5-.812,3.76,3.76,0,0,0,1.392-2.59,8.856,8.856,0,0,0-.3-3.133,22.745,22.745,0,0,0-1.262-3.735.313.313,0,0,1,.573-.252,23.224,23.224,0,0,1,1.3,3.839,9.42,9.42,0,0,1,.308,3.36,4.381,4.381,0,0,1-1.645,3.017,6.039,6.039,0,0,1-2.785.926.272.272,0,0,1-.043,0" transform="translate(21.899 15.302)" fill="#2d1026"/>
            <path id="Path_1020860" data-name="Path 1020860" d="M114.986,92.815a7.23,7.23,0,0,1-.91-.057A6.519,6.519,0,0,1,109.486,90a.313.313,0,1,1,.521-.347,5.889,5.889,0,0,0,4.148,2.481,7.622,7.622,0,0,0,4.823-1.106.313.313,0,0,1,.323.536,8.4,8.4,0,0,1-4.316,1.247" transform="translate(21.122 17.278)" fill="#2d1026"/>
            <path id="Path_1020861" data-name="Path 1020861" d="M107.955,81.749a2.491,2.491,0,1,1-2.474-2.508,2.49,2.49,0,0,1,2.474,2.508" transform="translate(19.875 15.295)" fill="#2d1026"/>
            <path id="Path_1020862" data-name="Path 1020862" d="M124.164,81.832a2.491,2.491,0,1,1-2.474-2.508,2.492,2.492,0,0,1,2.474,2.508" transform="translate(23.004 15.311)" fill="#2d1026"/>
            <path id="Path_1020863" data-name="Path 1020863" d="M87.391,92.258a.265.265,0,0,1-.27-.215,22.546,22.546,0,0,0-1.7-5.651,9.413,9.413,0,0,0-3.809-4.218,5.688,5.688,0,0,0-5.376-.131.264.264,0,0,1-.257-.462,6.218,6.218,0,0,1,5.882.128,9.927,9.927,0,0,1,4.034,4.452,22.981,22.981,0,0,1,1.747,5.784.264.264,0,0,1-.21.309.222.222,0,0,1-.039,0" transform="translate(14.639 15.615)" fill="#2d1026"/>
            <g id="Group_1198002" data-name="Group 1198002" transform="translate(91.477 93.52)" opacity="0.27">
              <g id="Group_1198001" data-name="Group 1198001">
                <g id="Group_1198000" data-name="Group 1198000" clip-path="url(#clip-path-5)">
                  <path id="Path_1020864" data-name="Path 1020864" d="M77.087,78.7c-.141.043-.27.11-.41.165.016-.162.019-.313.023-.475a1.434,1.434,0,0,1,.388.31" transform="translate(-76.678 -78.39)" fill="#2d1026"/>
                </g>
              </g>
            </g>
            <path id="Path_1020865" data-name="Path 1020865" d="M100.294,77a2.786,2.786,0,0,0,1.634.428q1.256.057,2.512.055c1.994,0,8.553-1.324,5.76-4.665-1.6-1.911-5.661-.741-7.545-.016-1.325.509-4.427,2.57-2.362,4.2" transform="translate(19.225 13.855)" fill="#2d1026"/>
            <path id="Path_1020866" data-name="Path 1020866" d="M128.97,76.156a2.588,2.588,0,0,1-1.52.571q-1.2.166-2.4.276c-1.906.174-8.314-.561-5.977-4.13,1.337-2.042,5.341-1.237,7.215-.682,1.319.39,4.493,2.165,2.681,3.966" transform="translate(22.885 13.811)" fill="#2d1026"/>
            <path id="Path_1020867" data-name="Path 1020867" d="M76.855,84.883a14.513,14.513,0,0,1,3.832-1.37,4.882,4.882,0,0,1,3.865.871c1.852,1.538,1.8,4.508,3.448,6.261a1.467,1.467,0,0,0,.623.434,1.208,1.208,0,0,0,1.167-.388,3.559,3.559,0,0,0,.642-1.114L91.8,86.345a8.233,8.233,0,0,0,6.914-4.191,10.266,10.266,0,0,0,1.136-2.885,13.968,13.968,0,0,0-.039-6.677c-.031-.124-.106-.278-.234-.26s.027.262.054.137c3.448.749,7.343-.78,10.073-3.015a11.941,11.941,0,0,0,4.309-9.28,10.4,10.4,0,0,0,8.958-1.772,8.482,8.482,0,0,0,3.147-8.442,157.478,157.478,0,0,0-35.1.475c-2.688.354-5.459.814-7.725,2.3-4.223,2.775-5.573,8.282-6.21,13.294a102.567,102.567,0,0,0-.228,18.852" transform="translate(14.772 9.498)" fill="#2d1026"/>
            <path id="Path_1020868" data-name="Path 1020868" d="M92.786,218.587H20.393l.057-34.923H6.826V143.137c7.516-11.12,25.28-19.231,25.28-19.231l.155-.013,24.612-1.4.322-.024a46.662,46.662,0,0,1,12.765,3.95,40.834,40.834,0,0,1,13.493,10c6.717,7.755,8.828,31.735,9.377,51.718.429,16.273-.044,30.449-.044,30.449" transform="translate(1.318 23.639)" fill="#ffcb7d"/>
            <path id="Path_1020869" data-name="Path 1020869" d="M81.4,208.007H69.588l-.012-.489V207.4l-.31-29.563h.107l11.405-.322h.155Z" transform="translate(13.369 34.262)" fill="#ffa3a3"/>
            <path id="Path_1020870" data-name="Path 1020870" d="M81.4,208.007H69.588l-.012-.489V207.4l-.31-29.563h.107l11.405-.322h.155Z" transform="translate(13.369 34.262)" fill="#ffa3a3"/>
            <g id="Group_1198005" data-name="Group 1198005" transform="translate(82.635 211.776)" opacity="0.33">
              <g id="Group_1198004" data-name="Group 1198004">
                <g id="Group_1198003" data-name="Group 1198003" clip-path="url(#clip-path-6)">
                  <path id="Path_1020871" data-name="Path 1020871" d="M81.4,208.007H69.588l-.012-.489V207.4l-.31-29.563h.107l11.405-.322h.155Z" transform="translate(-69.266 -177.514)" fill="#2d1026"/>
                </g>
              </g>
            </g>
            <path id="Path_1020872" data-name="Path 1020872" d="M52.779,112.321v13.43a22.936,22.936,0,0,1-12.3,5.746,15.722,15.722,0,0,1-12.29-3.667L28.022,108.8l11.214,1.589,12.992,1.853Z" transform="translate(5.409 21.001)" fill="#ffa3a3"/>
            <g id="Group_1198008" data-name="Group 1198008" transform="translate(33.431 129.805)" opacity="0.33">
              <g id="Group_1198007" data-name="Group 1198007">
                <g id="Group_1198006" data-name="Group 1198006" clip-path="url(#clip-path-7)">
                  <path id="Path_1020873" data-name="Path 1020873" d="M52.779,112.321v13.43a22.936,22.936,0,0,1-12.3,5.746,15.722,15.722,0,0,1-12.29-3.667L28.022,108.8l11.214,1.589,12.992,1.853Z" transform="translate(-28.022 -108.804)" fill="#2d1026"/>
                </g>
              </g>
            </g>
            <path id="Path_1020874" data-name="Path 1020874" d="M51.678,112.7v8.775a4.615,4.615,0,0,1-.939.837,6.489,6.489,0,0,1-2.616.939,11.8,11.8,0,0,1-8.736-2.441,19.622,19.622,0,0,1-5.656-7.285l1.188-1.051a13.758,13.758,0,0,1,3.216-2.341l12.992,1.853a4.156,4.156,0,0,1,.551.713" transform="translate(6.51 21.258)" fill="#2d1026"/>
            <path id="Path_1020875" data-name="Path 1020875" d="M71.3,105.235c-.19,4.937.325,12.6-4.743,17.955-7.563,7.991-34.609.586-34.609.586a51.678,51.678,0,0,0-1.057-7.355c.055.7-5.755.453-6.319.3a9.212,9.212,0,0,1-4.656-2.887,7.834,7.834,0,0,1-.006-10.285,6.029,6.029,0,0,1,4.92-2.1,6.115,6.115,0,0,1,2.894,1.082.964.964,0,0,1,.338.564,50.844,50.844,0,0,1-.908-9.906A21.275,21.275,0,0,1,45.077,73.457a33.243,33.243,0,0,1,4.554-.4c.446-.017.877-.023,1.317,0,.208,0,.416.02.624.031a2.391,2.391,0,0,1,.251.016c.069,0,.14.017.209.019.242.017.484.033.728.058a19.214,19.214,0,0,1,14.657,8.97,26.83,26.83,0,0,1,3.632,11.125,75.282,75.282,0,0,1,.249,11.959" transform="translate(3.471 14.099)" fill="#ffa3a3"/>
            <g id="Group_1198011" data-name="Group 1198011" transform="translate(21.455 87.144)" opacity="0.33">
              <g id="Group_1198010" data-name="Group 1198010">
                <g id="Group_1198009" data-name="Group 1198009" clip-path="url(#clip-path-8)">
                  <path id="Path_1020876" data-name="Path 1020876" d="M71.3,105.235c-.19,4.937.325,12.6-4.743,17.955-7.563,7.991-34.609.586-34.609.586a51.678,51.678,0,0,0-1.057-7.355c.055.7-5.755.453-6.319.3a9.212,9.212,0,0,1-4.656-2.887,7.834,7.834,0,0,1-.006-10.285,6.029,6.029,0,0,1,4.92-2.1,6.115,6.115,0,0,1,2.894,1.082.964.964,0,0,1,.338.564,50.844,50.844,0,0,1-.908-9.906A21.275,21.275,0,0,1,45.077,73.457a33.243,33.243,0,0,1,4.554-.4c.446-.017.877-.023,1.317,0,.208,0,.416.02.624.031a2.391,2.391,0,0,1,.251.016c.069,0,.14.017.209.019.242.017.484.033.728.058a19.214,19.214,0,0,1,14.657,8.97,26.83,26.83,0,0,1,3.632,11.125,75.282,75.282,0,0,1,.249,11.959" transform="translate(-17.984 -73.045)" fill="#2d1026"/>
                </g>
              </g>
            </g>
            <path id="Path_1020877" data-name="Path 1020877" d="M41.078,93.211a.948.948,0,0,0,.383.9,2.048,2.048,0,0,0,.957.357,5.062,5.062,0,0,0,2.732-.339c1.317-.558,1.978-2.6.177-2.909-1.129-.2-3.986.743-4.248,1.989" transform="translate(7.926 17.602)" fill="#2d1026"/>
            <path id="Path_1020878" data-name="Path 1020878" d="M61.556,93.4a.948.948,0,0,1-.383.9,2.035,2.035,0,0,1-.957.357,5.052,5.052,0,0,1-2.732-.34c-1.317-.557-1.978-2.6-.177-2.907,1.13-.194,3.986.743,4.248,1.989" transform="translate(10.848 17.638)" fill="#2d1026"/>
            <path id="Path_1020879" data-name="Path 1020879" d="M51.571,103.674a.328.328,0,0,1-.091-.644,2.37,2.37,0,0,0,1.628-1.811,2.45,2.45,0,0,0,.031-.551,2.662,2.662,0,0,0-.855-1.8.328.328,0,1,1,.44-.487,3.293,3.293,0,0,1,1.073,2.251,3.217,3.217,0,0,1-.041.7,3.01,3.01,0,0,1-2.095,2.328.3.3,0,0,1-.091.013" transform="translate(9.89 18.972)" fill="#2d1026"/>
            <path id="Path_1020880" data-name="Path 1020880" d="M51.176,105.578c-.126,0-.253-.006-.377-.018a3.6,3.6,0,0,1-2.847-1.829.328.328,0,0,1,.58-.308,2.987,2.987,0,0,0,2.329,1.482,3.968,3.968,0,0,0,2.758-.851.328.328,0,1,1,.4.521,4.752,4.752,0,0,1-2.842,1" transform="translate(9.248 19.928)" fill="#2d1026"/>
            <path id="Path_1020881" data-name="Path 1020881" d="M46.735,98.3a2.418,2.418,0,1,1-2.515-2.318A2.418,2.418,0,0,1,46.735,98.3" transform="translate(8.087 18.526)" fill="#2d1026"/>
            <path id="Path_1020882" data-name="Path 1020882" d="M60.738,98.075a2.418,2.418,0,1,1-2.515-2.318,2.419,2.419,0,0,1,2.515,2.318" transform="translate(10.79 18.482)" fill="#2d1026"/>
            <path id="Path_1020883" data-name="Path 1020883" d="M29.685,108.39a.216.216,0,0,1-.234-.161,18.567,18.567,0,0,0-1.723-4.541,7.748,7.748,0,0,0-3.37-3.243,4.68,4.68,0,0,0-4.42.2.217.217,0,0,1-.237-.364,5.118,5.118,0,0,1,4.835-.235,8.168,8.168,0,0,1,3.568,3.423,18.894,18.894,0,0,1,1.767,4.647.218.218,0,0,1-.154.266l-.032.006" transform="translate(3.784 19.216)" fill="#2d1026"/>
            <path id="Path_1020884" data-name="Path 1020884" d="M38.859,80.238a38.229,38.229,0,0,0,2.49,4.875,6.294,6.294,0,0,0,4.42,2.929c1.821.147,3.8-1.2,3.844-3.031a19.239,19.239,0,0,0,3.8,4.02,6.767,6.767,0,0,0,5.218,1.354,4.167,4.167,0,0,0,3.383-3.845,12.054,12.054,0,0,0,4.618,2.422,3.245,3.245,0,0,0,1.484.132,2.941,2.941,0,0,0,1.974-2.664c.359-2.767-1.216-5.422-3.066-7.51a25.792,25.792,0,0,0-27.974-7.189c-1.535.543-4.427,1.15-3.878,3.034.509,1.749,2.82,3.731,3.689,5.474" transform="translate(6.775 13.556)" fill="#2d1026"/>
            <path id="Path_1020885" data-name="Path 1020885" d="M45.287,70.673c-4.174.86-8.96,1.621-13.134,2.481-3.326.685-6.867,1.484-9.223,3.931a10.905,10.905,0,0,0-2.448,4.344c-1.13,3.61-.869,7.492-.538,11.261q.438,5.021,1.014,10.031c2.743-1.787,6.47-.562,8.555,1.96.661.8,2.019,1.529,2.763.808a1.613,1.613,0,0,0,.372-.884,19.408,19.408,0,0,0,.22-5.666,5.144,5.144,0,0,0,6.04-2.855c.953-2.307.068-4.921-.817-7.255a12.167,12.167,0,0,0,8.537-7.487,10.984,10.984,0,0,0-1.341-10.669" transform="translate(3.795 13.641)" fill="#2d1026"/>
            <path id="Path_1020886" data-name="Path 1020886" d="M54.284,208.731H15.976a83.552,83.552,0,0,1-9.15-6.216V173.764H23.48l.167,3.042.227,4.08v.024l.382,7.063.024.334,2.016,1.372.024.012,27.069,18.432Z" transform="translate(1.318 33.539)" fill="#ffa3a3"/>
            <g id="Group_1198014" data-name="Group 1198014" transform="translate(8.143 207.302)" opacity="0.33">
              <g id="Group_1198013" data-name="Group 1198013">
                <g id="Group_1198012" data-name="Group 1198012" clip-path="url(#clip-path-9)">
                  <path id="Path_1020887" data-name="Path 1020887" d="M54.284,208.731H15.976a83.552,83.552,0,0,1-9.15-6.216V173.764H23.48l.167,3.042.227,4.08v.024l.382,7.063.024.334,2.016,1.372.024.012,27.069,18.432Z" transform="translate(-6.826 -173.764)" fill="#2d1026"/>
                </g>
              </g>
            </g>
            <path id="Path_1020888" data-name="Path 1020888" d="M52.2,206.43H51.02l-.919-.608L20.789,186.281a.327.327,0,0,1-.084-.453.319.319,0,0,1,.274-.143.337.337,0,0,1,.179.048l2.47,1.646.024.012,27.642,18.432Z" transform="translate(3.985 35.839)" fill="#2d1026"/>
            <path id="Path_1020889" data-name="Path 1020889" d="M69.4,213.023a.328.328,0,0,1-.328-.326l-.48-62.316a.328.328,0,0,1,.327-.33h0a.328.328,0,0,1,.328.326l.478,62.316a.328.328,0,0,1-.326.33Z" transform="translate(13.239 28.962)" fill="#2d1026"/>
            <path id="Path_1020890" data-name="Path 1020890" d="M21,166.534v25.885s46.337-.8,50.172-2.716a6.3,6.3,0,0,0,3.674-5.593s6.871-4.794,6.871-6.871a8.1,8.1,0,0,0-.639-3.355s3.676-3.036,3.2-5.433a5.723,5.723,0,0,0-1.438-3.2s4.634-4.634,1.278-4.792-13.262,4.474-18.854,4.953a33.792,33.792,0,0,1-10.385-.8s16.936-12.463,13.741-13.741-29.081,12.942-29.081,12.942l-19.014.8Z" transform="translate(3.96 29.105)" fill="#ffa3a3"/>
            <g id="Group_1198017" data-name="Group 1198017" transform="translate(24.48 179.9)" opacity="0.33">
              <g id="Group_1198016" data-name="Group 1198016">
                <g id="Group_1198015" data-name="Group 1198015" clip-path="url(#clip-path-10)">
                  <path id="Path_1020891" data-name="Path 1020891" d="M21,166.534v25.885s46.337-.8,50.172-2.716a6.3,6.3,0,0,0,3.674-5.593s6.871-4.794,6.871-6.871a8.1,8.1,0,0,0-.639-3.355s3.676-3.036,3.2-5.433a5.723,5.723,0,0,0-1.438-3.2s4.634-4.634,1.278-4.792-13.262,4.474-18.854,4.953a33.792,33.792,0,0,1-10.385-.8s16.936-12.463,13.741-13.741-29.081,12.942-29.081,12.942l-19.014.8Z" transform="translate(-20.519 -150.794)" fill="#2d1026"/>
                </g>
              </g>
            </g>
            <path id="Path_1020892" data-name="Path 1020892" d="M56.456,172.211a.329.329,0,0,1-.036-.655,46.358,46.358,0,0,0,7.517-1.422c2.509-.89,9.923-4.048,12.29-5.862,2.318-1.776,4.18-3.362,3.5-4.791-.413-.872-7.826,1.434-11.8,2.671-2.621.816-5.1,1.586-6.606,1.9-4.56.963-13.185-.648-13.549-.718a.328.328,0,0,1,.12-.645c.089.017,8.861,1.656,13.294.721,1.477-.311,3.939-1.076,6.546-1.887,7.424-2.31,11.977-3.621,12.593-2.325.964,2.026-1.618,4-3.692,5.594-2.421,1.856-9.934,5.06-12.473,5.96a45.735,45.735,0,0,1-7.664,1.455.18.18,0,0,1-.036,0" transform="translate(9.168 30.629)" fill="#2d1026"/>
            <path id="Path_1020893" data-name="Path 1020893" d="M57.872,177.518a.329.329,0,0,1-.092-.644c.476-.138,1.433-.346,2.645-.61,3.688-.8,9.863-2.141,11.371-3.475.308-.271.608-.532.9-.787a13.989,13.989,0,0,0,3.969-4.538c.931-2-1.194-4.244-1.217-4.266a.329.329,0,0,1,.474-.457c.1.1,2.46,2.586,1.34,5a14.481,14.481,0,0,1-4.136,4.758q-.438.379-.9.781c-1.637,1.448-7.672,2.759-11.668,3.626-1.2.261-2.145.466-2.6.6a.35.35,0,0,1-.092.013" transform="translate(11.107 31.392)" fill="#2d1026"/>
            <path id="Path_1020894" data-name="Path 1020894" d="M59.546,182.433a.329.329,0,0,1-.032-.656,32.562,32.562,0,0,0,7.172-1.491c2.335-1.012,5.793-4.308,7.054-6.044,1.126-1.547-.39-3.833-.406-3.857a.329.329,0,0,1,.545-.367c.073.109,1.791,2.69.392,4.611-1.3,1.793-4.89,5.205-7.325,6.261a32.535,32.535,0,0,1-7.369,1.543h-.032" transform="translate(11.43 32.788)" fill="#2d1026"/>
            <path id="Path_1020895" data-name="Path 1020895" d="M20.84,191.589h0a.329.329,0,0,1-.325-.332l.32-35.792a.328.328,0,0,1,.329-.326h0a.329.329,0,0,1,.326.333l-.321,35.792a.327.327,0,0,1-.328.325" transform="translate(3.959 29.944)" fill="#2d1026"/>
            <path id="Path_1020896" data-name="Path 1020896" d="M197.35,117.977a2.9,2.9,0,0,1-.036.453,9.388,9.388,0,0,1-.143,1.145c-.024.215-.072.429-.107.632s-.072.382-.119.561a27.1,27.1,0,0,1-1.778,5.19s-.036.274-.107.752c0,0,.012,0,0,.012-.6,3.7-3.448,19.732-9.341,21.45-5.953,1.742-7.695-4.939-7.993-6.383a2.305,2.305,0,0,1-.06-.274l-1.945-.7a.042.042,0,0,0-.024-.012l-1.086-.394a.6.6,0,0,0-.012.131c-.024.107-.048.3-.072.537-.286,2.076-1.169,8.506-1.861,12.646a.368.368,0,0,0-.012.119,26.871,26.871,0,0,0,.465,7.516c1.05,6.466,3.376,15.712,5.929,26.533,3.543,14.889,7.528,33.452,8.232,36.721H110.666c1.742-4.116,13.827-32.677,19.231-44.774a184.71,184.71,0,0,0,7.313-20.055c.895-2.9,1.6-5.357,2.064-7.039.239-.895.418-1.563.513-1.957.06-.2.1-.334.107-.382v-.012c-.155-.024-.3-.036-.441-.06h-.012c-.167-.024-.334-.06-.5-.083l-.525-.107a6.5,6.5,0,0,1-.692-.167,11.086,11.086,0,0,1-1.611-.537c-.167-.06-.334-.143-.5-.215a6.992,6.992,0,0,1-.728-.382c-.155-.084-.3-.167-.441-.251-.179-.107-.346-.215-.513-.334s-.322-.239-.489-.358-.31-.251-.453-.382-.3-.262-.429-.394-.286-.286-.418-.429-.251-.286-.382-.441-.239-.3-.358-.465a10.756,10.756,0,0,1-.656-.978c-.107-.167-.2-.346-.3-.525s-.179-.358-.262-.537a4.723,4.723,0,0,1-.251-.561c-.084-.191-.155-.382-.227-.573-.143-.382-.274-.775-.382-1.169s-.215-.8-.3-1.2a19.267,19.267,0,0,1-.37-2.529c-.036-.37-.06-.74-.083-1.109-.012-.429-.024-.859-.024-1.3,0-.382.012-.764.024-1.157.024-.787.083-1.6.179-2.41.036-.418.1-.835.155-1.241s.119-.835.191-1.253c.048-.286.1-.573.155-.859.072-.382.143-.764.227-1.157s.179-.8.274-1.2c.036-.2.1-.418.143-.62a54.656,54.656,0,0,1,11.012-21.51c5.8-6.776,13.946-12.1,24.815-12.372,7.182-.191,12.073,1.563,15.4,4.009a17.978,17.978,0,0,1,7.075,12.67,1.474,1.474,0,0,1-.036.37,2.183,2.183,0,0,1-.036.227,16.4,16.4,0,0,1,7.54,4.068,2.823,2.823,0,0,1,.334.322,3.88,3.88,0,0,1,.752,1.109l.012.012a7.431,7.431,0,0,1,.585,3.674" transform="translate(21.36 17.661)" fill="#fedede"/>
            <path id="Path_1020897" data-name="Path 1020897" d="M148.714,120q-.261,4-.761,7.985a45.382,45.382,0,0,1-2.231,10.225,19.6,19.6,0,0,1-5.841,8.561A8.93,8.93,0,0,1,137,148.4v-.011c-11.39-1.392-13.054-12.782-10-25a54.838,54.838,0,0,1,11.009-21.517,1.155,1.155,0,0,1,.3.153c1.164.772.957,2.676,2,3.611.848.761,2.153.576,3.241.272a5,5,0,0,1,3.307-.272c1.458.61,1.838,2.47,1.947,4.036a76.055,76.055,0,0,1-.1,10.323" transform="translate(24.253 19.664)" fill="#ffa3a3"/>
            <path id="Path_1020898" data-name="Path 1020898" d="M134.9,148.513a.272.272,0,0,1-.06-.537c.085-.019,8.542-2.072,10.343-14.679,1.828-12.791,1.574-29.232,1.572-29.4a.269.269,0,0,1,.266-.276h0a.272.272,0,0,1,.272.267c0,.165.257,16.649-1.577,29.483-1.855,13-10.674,15.113-10.762,15.132a.254.254,0,0,1-.06.006" transform="translate(25.985 20.001)" fill="#2d1026"/>
            <path id="Path_1020899" data-name="Path 1020899" d="M158.338,103.527a2.546,2.546,0,1,1-2.546-2.546,2.545,2.545,0,0,1,2.546,2.546" transform="translate(29.579 19.491)" fill="#2d1026"/>
            <path id="Path_1020900" data-name="Path 1020900" d="M177.158,107.538a1.218,1.218,0,0,1-.206.1,4.314,4.314,0,0,1-3.241-.5c-.849-.4-1.687-.838-2.5-1.306a6.9,6.9,0,0,1-2.164-1.707A6.406,6.406,0,0,1,167.966,101a7.893,7.893,0,0,1,.4-4.09,4.22,4.22,0,0,1,1.718-2.034,17.984,17.984,0,0,1,7.071,12.661" transform="translate(32.402 18.313)" fill="#ffa3a3"/>
            <path id="Path_1020901" data-name="Path 1020901" d="M175.12,103.111a2.13,2.13,0,1,1-2.13-2.13,2.129,2.129,0,0,1,2.13,2.13" transform="translate(32.978 19.491)" fill="#2d1026"/>
            <path id="Path_1020902" data-name="Path 1020902" d="M170.442,139.733a6.584,6.584,0,0,1-1.317-.131,69.2,69.2,0,0,1-14.322-4.467.271.271,0,0,1-.13-.361.277.277,0,0,1,.363-.13,68.639,68.639,0,0,0,14.2,4.424c8.32,1.719,17.108-15.241,17.195-15.414.02-.054,3.077-8.142,1.479-11.514-1.534-3.239-8.645-5.352-11.322-6.146l-.4-.12a23.294,23.294,0,0,1-5.308-2.6.272.272,0,0,1,.3-.452,23.17,23.17,0,0,0,5.161,2.534l.4.119c3,.891,10.02,2.978,11.658,6.436,1.7,3.581-1.343,11.628-1.475,11.968-.358.705-8.228,15.856-16.484,15.858" transform="translate(29.849 19.836)" fill="#2d1026"/>
            <path id="Path_1020903" data-name="Path 1020903" d="M179.67,109.1a21.42,21.42,0,0,0-4.891.088,5.916,5.916,0,0,0-2.343.82,2.943,2.943,0,0,0-1.353,2.011,3.123,3.123,0,0,0,.643,2.155,9.331,9.331,0,0,0,1.626,1.62,19.067,19.067,0,0,0,3.357,2.435,5.53,5.53,0,0,0,4.7.455,5.713,5.713,0,0,0,1.6-1.141,7.414,7.414,0,0,0,2.325-4.084c.184-1.18-.078-3.326-1.286-3.973a3.707,3.707,0,0,0-1.49-.141c-.964-.061-1.924-.18-2.888-.246" transform="translate(33.018 21.04)" fill="#2d1026"/>
            <path id="Path_1020904" data-name="Path 1020904" d="M174.033,133.557a.272.272,0,0,1-.2-.46,13.525,13.525,0,0,0,2.459-4.038,44.43,44.43,0,0,0,3.433-12.679.278.278,0,0,1,.3-.24.274.274,0,0,1,.24.3,45.034,45.034,0,0,1-3.478,12.836,14.234,14.234,0,0,1-2.565,4.2.27.27,0,0,1-.2.082" transform="translate(33.538 22.416)" fill="#2d1026"/>
            <path id="Path_1020905" data-name="Path 1020905" d="M168.828,151.442a66.542,66.542,0,0,1-19.8,1.447c-5.048-.382-11.063-1.121-16.11-3.014.892-2.9,1.588-5.363,2.056-7.038,2.165.086,4.667,1.305,6.516,1.707a58.071,58.071,0,0,0,20.234,1.022,21.518,21.518,0,0,0,6.636-1.643,26.615,26.615,0,0,0,.468,7.517" transform="translate(25.655 27.57)" fill="#dfdefe"/>
            <path id="Path_1020906" data-name="Path 1020906" d="M73.745,44.361l-1.341.6.728,1.277a4.681,4.681,0,0,1-5.018,6.9l-1.442-.3-.159,1.45A4.681,4.681,0,0,1,58.4,56.933l-.982-1.082-.983,1.082A4.681,4.681,0,0,1,48.314,54.3l-.159-1.45-1.442.3a4.681,4.681,0,0,1-5.018-6.9l.728-1.277-1.341-.6a4.68,4.68,0,0,1,0-8.532l1.341-.606-.728-1.277a4.68,4.68,0,0,1,5.018-6.9l1.442.3.159-1.45a4.68,4.68,0,0,1,8.117-2.638l.983,1.082.982-1.082a4.68,4.68,0,0,1,8.117,2.638l.159,1.45,1.442-.3a4.681,4.681,0,0,1,5.018,6.9L72.4,35.223l1.341.606a4.681,4.681,0,0,1,0,8.532" transform="translate(7.397 4.192)" fill="#fff"/>
            <path id="Path_1020907" data-name="Path 1020907" d="M63.061,38.17a7.006,7.006,0,1,1-7.005-7.005,7.005,7.005,0,0,1,7.005,7.005" transform="translate(9.467 6.015)" fill="#ffa3a3"/>
            <path id="Path_1020908" data-name="Path 1020908" d="M45.405,192.191l-1.341.606.728,1.275a4.681,4.681,0,0,1-5.018,6.9l-1.442-.3-.159,1.45a4.681,4.681,0,0,1-8.117,2.638l-.982-1.082-.983,1.082a4.681,4.681,0,0,1-8.117-2.638l-.159-1.45-1.442.3a4.681,4.681,0,0,1-5.018-6.9l.728-1.277-1.341-.6a4.68,4.68,0,0,1,0-8.532l1.341-.606-.728-1.276a4.68,4.68,0,0,1,5.018-6.9l1.442.3.159-1.45a4.68,4.68,0,0,1,8.117-2.638l.983,1.082.982-1.082a4.68,4.68,0,0,1,8.117,2.638l.159,1.45,1.442-.3a4.681,4.681,0,0,1,5.018,6.9l-.728,1.275,1.341.606a4.681,4.681,0,0,1,0,8.532" transform="translate(1.927 32.725)" fill="#fff"/>
            <path id="Path_1020909" data-name="Path 1020909" d="M34.72,186a7.006,7.006,0,1,1-7.005-7.005A7.005,7.005,0,0,1,34.72,186" transform="translate(3.997 34.548)" fill="#ffa3a3"/>
            <path id="Path_1020910" data-name="Path 1020910" d="M153.336,48.329a4.569,4.569,0,1,1-4.569-4.569,4.57,4.57,0,0,1,4.569,4.569" transform="translate(27.832 8.446)" fill="#fff"/>
            <path id="Path_1020911" data-name="Path 1020911" d="M22.357,119.563a4.569,4.569,0,1,1-4.569-4.569,4.57,4.57,0,0,1,4.569,4.569" transform="translate(2.551 22.195)" fill="#fff"/>
            <path id="Path_1020912" data-name="Path 1020912" d="M179.761,161.563a4.569,4.569,0,1,1-4.569-4.569,4.57,4.57,0,0,1,4.569,4.569" transform="translate(32.932 30.302)" fill="#fff"/>
            <path id="Path_1020913" data-name="Path 1020913" d="M35.889,56.755a4.569,4.569,0,1,1-4.569-4.569,4.57,4.57,0,0,1,4.569,4.569" transform="translate(5.163 10.073)" fill="#fff"/>
          </g>
        </g>
      </g>
    </g>
  </g>
</svg>
