<svg xmlns="http://www.w3.org/2000/svg" width="150" height="150" viewBox="0 0 150 150">
  <g id="img2" transform="translate(-383.746 -8400)">
    <circle id="Ellipse_13609" data-name="Ellipse 13609" cx="75" cy="75" r="75" transform="translate(383.746 8400)" fill="#b9c296"/>
    <g id="Group_1199341" data-name="Group 1199341" transform="translate(410.355 8431.927)">
      <path id="Path_1025878" data-name="Path 1025878" d="M181.6,231.71a1.262,1.262,0,0,0,1.262-1.262V228.73a1.262,1.262,0,1,0-2.524,0v1.718A1.262,1.262,0,0,0,181.6,231.71Z" transform="translate(-144.681 -189.195)" fill="#4a4e3c"/>
      <path id="Path_1025879" data-name="Path 1025879" d="M168.3,267.244a1.262,1.262,0,0,0-1.509-.953,14.881,14.881,0,0,1-6.638.018,1.262,1.262,0,0,0-.7,2.425,15.241,15.241,0,0,0,3.918.46,18.061,18.061,0,0,0,3.976-.441A1.262,1.262,0,0,0,168.3,267.244Z" transform="translate(-126.55 -221.459)" fill="#4a4e3c"/>
      <path id="Path_1025880" data-name="Path 1025880" d="M79.615,61.475,61.357,38.946l-2.173-7.964a4.257,4.257,0,0,0-1.509-2.245V25.61H59.4a3.491,3.491,0,0,0,3.487-3.487v-3.4a5.527,5.527,0,0,1,1.385-3.59A9.158,9.158,0,1,0,48.67,12.12c-.668-.162-8.582-.055-9.462-.084A20.412,20.412,0,0,1,28.8,9.184a3.4,3.4,0,0,0-1.724-.478,3.444,3.444,0,0,0-2.634,1.256,3.362,3.362,0,0,0-.691,2.8l.648,3.24H21.964a5.885,5.885,0,0,0-4.285,1.839A5.557,5.557,0,0,0,16.17,22V32.769a3.151,3.151,0,0,0-1.8,2.84v3.055a3.154,3.154,0,0,0,3.151,3.151h3.01v2.464a12.2,12.2,0,0,0,9.374,11.83v5.32a1.262,1.262,0,0,0,1.262,1.262H63.3l2.266,3.41a1.262,1.262,0,0,0,2.1-1.4L65,60.689,59.444,51.48l6.021-3.456,12.108,14.94a6.08,6.08,0,0,1-4.487,8.7L54.9,74.409V72.2a1.262,1.262,0,1,0-2.524,0v9.544A1.885,1.885,0,0,1,50.5,83.626H21.465V72.932a1.262,1.262,0,0,0-2.524,0V83.626H10.8a1.885,1.885,0,0,1-1.883-1.883V71.722a9.041,9.041,0,0,1,9.031-9.031h7.327a1.262,1.262,0,0,0,0-2.524H17.946A11.568,11.568,0,0,0,6.391,71.722V81.743A4.412,4.412,0,0,0,10.8,86.15H50.5A4.412,4.412,0,0,0,54.9,81.743V76.962l18.56-2.8c5.756-.688,9.224-7.747,6.151-12.685Zm-26.3-26.492h3.01a.627.627,0,0,1,.627.627v3.055a.627.627,0,0,1-.627.627h-3.01Zm3.01-2.524h-3.01c-.231-2.138,2.818-2.916,3.438-.811l.241.885a3.146,3.146,0,0,0-.669-.073Zm4.047-10.335a.964.964,0,0,1-.963.963H55.271a.964.964,0,0,1-.963-.963V20.015h6.06v2.108ZM50.708,8.871a6.636,6.636,0,1,1,11.657,4.616,8.18,8.18,0,0,0-1.9,4H54.206a8.186,8.186,0,0,0-1.9-4.006,6.615,6.615,0,0,1-1.6-4.614ZM19.52,19.571a3.353,3.353,0,0,1,2.443-1.041h3.978a1.262,1.262,0,0,0,1.237-1.51l-.951-4.75a.824.824,0,0,1,.168-.708.868.868,0,0,1,1.121-.205,22.936,22.936,0,0,0,11.69,3.2h8.154c2.88-.152,4.388,1.394,4.422,4.193v3.37A3.488,3.488,0,0,0,55.15,25.6v2.261a4.3,4.3,0,0,0-3.137,1.3,8.14,8.14,0,0,0-6.844-3.741H27.685a1.262,1.262,0,0,0-1.249,1.084,6.722,6.722,0,0,1-4.853,5.948H18.694V21.966c0-.027,0-.055,0-.082a3.06,3.06,0,0,1,.829-2.313Zm-2,19.72a.627.627,0,0,1-.627-.627V35.609a.627.627,0,0,1,.627-.627h3.01v4.309ZM32.433,60.167V55.1A1.262,1.262,0,0,0,31.4,53.853a9.777,9.777,0,0,1-8.336-9.574V34.6a9.02,9.02,0,0,0,5.674-6.654H45.17a5.623,5.623,0,0,1,5.617,5.6V44.279a9.777,9.777,0,0,1-8.336,9.574A1.262,1.262,0,0,0,41.413,55.1v5.072h-8.98Zm11.5,0V56.109a12.264,12.264,0,0,0,9.2-9.762c2.192,3.2,6.588,10.423,8.6,13.821ZM63.855,46.038,58.1,49.34,54.15,43.279l-.026-.039a4.422,4.422,0,0,1-.664-1.426h2.861A3.152,3.152,0,0,0,59.1,40.139a1.264,1.264,0,0,0,.126.19Z" fill="#4a4e3c"/>
      <path id="Path_1025881" data-name="Path 1025881" d="M403.632,86.971a1.262,1.262,0,0,0-1.785-1.785,23.842,23.842,0,0,0,0,33.68,1.262,1.262,0,0,0,1.785-1.785A21.316,21.316,0,0,1,403.632,86.971Z" transform="translate(-323.123 -70.547)" fill="#4a4e3c"/>
      <path id="Path_1025882" data-name="Path 1025882" d="M438.946,198.02a1.262,1.262,0,1,0-2.481.463,16.98,16.98,0,0,0,4.706,8.925,1.262,1.262,0,0,0,1.785-1.785A14.466,14.466,0,0,1,438.946,198.02Z" transform="translate(-357.69 -163.845)" fill="#4a4e3c"/>
      <path id="Path_1025883" data-name="Path 1025883" d="M437.52,123.806a1.277,1.277,0,0,0,.237.022A1.262,1.262,0,0,0,439,122.8a14.468,14.468,0,0,1,4-7.563,1.262,1.262,0,0,0-1.785-1.785,16.982,16.982,0,0,0-4.7,8.877A1.262,1.262,0,0,0,437.52,123.806Z" transform="translate(-357.732 -94.058)" fill="#4a4e3c"/>
      <path id="Path_1025884" data-name="Path 1025884" d="M477.291,149.047a7.788,7.788,0,0,1,2.3-5.543,1.262,1.262,0,1,0-1.785-1.785,10.363,10.363,0,0,0,0,14.655,1.262,1.262,0,1,0,1.785-1.785A7.788,7.788,0,0,1,477.291,149.047Z" transform="translate(-389.565 -117.567)" fill="#4a4e3c"/>
      <path id="Path_1025885" data-name="Path 1025885" d="M295.381,44.651a1.258,1.258,0,0,0,.892-.37l2.541-2.541a1.262,1.262,0,0,0-1.785-1.785L294.489,42.5a1.262,1.262,0,0,0,.892,2.154Z" transform="translate(-239.314 -32.927)" fill="#4a4e3c"/>
    </g>
  </g>
</svg>
