<svg xmlns="http://www.w3.org/2000/svg" width="80" height="80" viewBox="0 0 80 80">
  <g id="img32" transform="translate(-205 -9465)">
    <rect id="Rectangle_461948" data-name="Rectangle 461948" width="80" height="80" rx="10" transform="translate(205 9465)" fill="#fff7ed"/>
    <g id="Group_1198865" data-name="Group 1198865" transform="translate(216 9434.102)">
      <g id="Group_1198860" data-name="Group 1198860" transform="translate(38.35 80.525)">
        <g id="Group_1198859" data-name="Group 1198859">
          <path id="Path_1024891" data-name="Path 1024891" d="M337.693,341.584a1.143,1.143,0,0,0-1.615.016l-.032.033a1.142,1.142,0,0,0,1.632,1.6l.032-.033A1.142,1.142,0,0,0,337.693,341.584Z" transform="translate(-335.718 -341.258)" fill="#4a4e3c"/>
        </g>
      </g>
      <g id="Group_1198862" data-name="Group 1198862" transform="translate(43.115 64.697)">
        <g id="Group_1198861" data-name="Group 1198861">
          <path id="Path_1024892" data-name="Path 1024892" d="M386.924,206.88h-3.036v-3.036a1.142,1.142,0,1,0-2.285,0v3.036h-3.036a1.142,1.142,0,0,0,0,2.285H381.6V212.2a1.142,1.142,0,1,0,2.285,0v-3.036h3.036a1.142,1.142,0,0,0,0-2.285Z" transform="translate(-377.426 -202.702)" fill="#4a4e3c"/>
        </g>
      </g>
      <g id="Group_1198864" data-name="Group 1198864" transform="translate(0 46.899)">
        <g id="Group_1198863" data-name="Group 1198863">
          <path id="Path_1024893" data-name="Path 1024893" d="M52.17,60.684A15.744,15.744,0,0,0,36.686,46.9,15.268,15.268,0,0,0,26.159,51.07,15.268,15.268,0,0,0,15.633,46.9,15.84,15.84,0,0,0,0,62.9,14.009,14.009,0,0,0,1.521,68.76H1.142a1.142,1.142,0,0,0,0,2.285H2.737A64.711,64.711,0,0,0,12.845,83.338a147.24,147.24,0,0,0,12.62,11.1,1.142,1.142,0,0,0,1.388,0c.048-.037,4.883-3.745,10.242-8.8a1.142,1.142,0,0,0-1.567-1.662c-4.087,3.853-7.859,6.908-9.368,8.1A146.432,146.432,0,0,1,14.44,81.7,67.948,67.948,0,0,1,5.421,71.044H15.648a1.142,1.142,0,0,0,1.1-.827l2-6.957,5.527,17.708a1.142,1.142,0,0,0,2.181,0l3.061-9.81h5.1a1.142,1.142,0,1,0,0-2.285h-5.94a1.142,1.142,0,0,0-1.09.8l-2.221,7.117L19.786,58.938a1.142,1.142,0,0,0-2.189.025l-2.81,9.8H4.069A12.991,12.991,0,0,1,2.285,62.9,13.554,13.554,0,0,1,15.633,49.184a13.061,13.061,0,0,1,9.687,4.282,1.142,1.142,0,0,0,1.679,0,13.061,13.061,0,0,1,9.687-4.282A13.431,13.431,0,0,1,49.746,60.05a10.056,10.056,0,1,0,2.424.634Zm-3.735,17.1A7.768,7.768,0,1,1,56.2,70.017,7.777,7.777,0,0,1,48.435,77.785Z" transform="translate(0 -46.899)" fill="#4a4e3c"/>
        </g>
      </g>
    </g>
  </g>
</svg>
