<svg xmlns="http://www.w3.org/2000/svg" width="80" height="80" viewBox="0 0 80 80">
  <g id="img35" transform="translate(-621 -9605)">
    <rect id="Rectangle_461952" data-name="Rectangle 461952" width="80" height="80" rx="10" transform="translate(621 9605)" fill="#fff7ed"/>
    <g id="Group_1198872" data-name="Group 1198872" transform="translate(631.001 9590.48)">
      <path id="Path_1024920" data-name="Path 1024920" d="M90.711,271.361a2.757,2.757,0,0,0-3.56-.447,2.743,2.743,0,0,0-.71,3.876l3.8,5.318a.872.872,0,1,0,1.42-1.014l-3.8-5.318a1,1,0,0,1,.258-1.41,1,1,0,0,1,1.295.163l5.755,6.394a6.99,6.99,0,0,1,1.8,4.683v10.757a.872.872,0,1,0,1.745,0V283.605a8.732,8.732,0,0,0-2.245-5.851Z" transform="translate(-75.933 -213.794)" fill="#4a4e3c"/>
      <path id="Path_1024921" data-name="Path 1024921" d="M7.944,177.5A12.871,12.871,0,0,1,5.8,173.619L1.808,161.993a1.19,1.19,0,0,1,.837-1.541,1.193,1.193,0,0,1,1.4.718l3.765,9.554a.872.872,0,0,0,1.623-.64L5.665,160.53a2.935,2.935,0,0,0-5.507,2.03l3.994,11.626A14.611,14.611,0,0,0,6.583,178.6l6.668,8.307a4.062,4.062,0,0,1,.891,2.534v6.143a.872.872,0,0,0,1.745,0v-6.143a5.813,5.813,0,0,0-1.276-3.626Z" transform="translate(0 -115.012)" fill="#4a4e3c"/>
      <path id="Path_1024922" data-name="Path 1024922" d="M326.762,272.364a1,1,0,0,1,.258,1.41l-3.8,5.318a.872.872,0,1,0,1.42,1.014l3.8-5.318a2.743,2.743,0,0,0-.71-3.876,2.757,2.757,0,0,0-3.56.447l-5.755,6.394a8.732,8.732,0,0,0-2.245,5.851v10.757a.872.872,0,0,0,1.745,0V283.6a6.99,6.99,0,0,1,1.8-4.683l5.755-6.394A1,1,0,0,1,326.762,272.364Z" transform="translate(-279.391 -213.793)" fill="#4a4e3c"/>
      <path id="Path_1024923" data-name="Path 1024923" d="M390.927,160.2a2.935,2.935,0,0,0-5.31.325l-3.765,9.554a.872.872,0,0,0,1.623.64l3.765-9.554a1.193,1.193,0,0,1,1.4-.718,1.19,1.19,0,0,1,.837,1.541l-3.994,11.626a12.87,12.87,0,0,1-2.141,3.885l-6.668,8.307a5.813,5.813,0,0,0-1.276,3.627v6.143a.872.872,0,0,0,1.745,0v-6.143a4.062,4.062,0,0,1,.891-2.534L384.7,178.6a14.611,14.611,0,0,0,2.431-4.411l3.994-11.626A2.943,2.943,0,0,0,390.927,160.2Z" transform="translate(-331.726 -115.011)" fill="#4a4e3c"/>
      <path id="Path_1024924" data-name="Path 1024924" d="M198.3,107.9V101.01a4.815,4.815,0,0,0-4.809-4.809h-7.873a4.814,4.814,0,0,0-4.809,4.809V107.9a2.84,2.84,0,0,0,3.937,2.621v10.174a2.839,2.839,0,0,0,4.809,2.045,2.839,2.839,0,0,0,4.809-2.045V110.52A2.84,2.84,0,0,0,198.3,107.9Zm-3.937,0v-5.905a.872.872,0,1,0-1.745,0v18.7a1.1,1.1,0,0,1-2.192,0V107.9a.872.872,0,1,0-1.745,0v12.794a1.1,1.1,0,0,1-2.192,0v-18.7a.872.872,0,0,0-1.745,0V107.9a1.1,1.1,0,1,1-2.192,0V101.01a3.068,3.068,0,0,1,3.064-3.064h7.873a3.068,3.068,0,0,1,3.064,3.064V107.9a1.1,1.1,0,1,1-2.192,0Z" transform="translate(-159.774 -59.809)" fill="#4a4e3c"/>
      <path id="Path_1024925" data-name="Path 1024925" d="M230.67,35.185a3.333,3.333,0,1,0-3.333-3.333A3.337,3.337,0,0,0,230.67,35.185Zm0-4.921a1.588,1.588,0,1,1-1.588,1.588A1.59,1.59,0,0,1,230.67,30.264Z" transform="translate(-200.892 0)" fill="#4a4e3c"/>
      <path id="Path_1024926" data-name="Path 1024926" d="M146.964,207.058v6.348a.872.872,0,1,0,1.745,0v-6.348a.872.872,0,1,0-1.745,0Z" transform="translate(-129.869 -156.999)" fill="#4a4e3c"/>
      <path id="Path_1024927" data-name="Path 1024927" d="M181.677,240.028a.872.872,0,0,0-.872.872v6.889a.872.872,0,1,0,1.745,0V240.9A.872.872,0,0,0,181.677,240.028Z" transform="translate(-159.773 -186.905)" fill="#4a4e3c"/>
      <path id="Path_1024928" data-name="Path 1024928" d="M82.122,120.184a2.823,2.823,0,0,0,1.1-.22v1.316a.872.872,0,0,0,1.745,0V110.454a.872.872,0,1,0-1.745,0v6.889a1.1,1.1,0,1,1-2.192,0V109.47a3.068,3.068,0,0,1,3.064-3.064h4.921a.872.872,0,0,0,0-1.745H84.09a4.815,4.815,0,0,0-4.809,4.809v7.873A2.844,2.844,0,0,0,82.122,120.184Z" transform="translate(-70.059 -67.285)" fill="#4a4e3c"/>
      <path id="Path_1024929" data-name="Path 1024929" d="M129.146,43.645a3.333,3.333,0,1,0-3.333-3.333A3.337,3.337,0,0,0,129.146,43.645Zm0-4.921a1.588,1.588,0,1,1-1.588,1.588A1.59,1.59,0,0,1,129.146,38.724Z" transform="translate(-111.178 -7.476)" fill="#4a4e3c"/>
      <path id="Path_1024930" data-name="Path 1024930" d="M350.012,207.058v6.348a.872.872,0,1,0,1.745,0v-6.348a.872.872,0,1,0-1.745,0Z" transform="translate(-309.296 -156.999)" fill="#4a4e3c"/>
      <path id="Path_1024931" data-name="Path 1024931" d="M316.171,240.9v6.889a.872.872,0,1,0,1.745,0V240.9a.872.872,0,1,0-1.745,0Z" transform="translate(-279.392 -186.905)" fill="#4a4e3c"/>
      <path id="Path_1024932" data-name="Path 1024932" d="M341.552,105.534a.872.872,0,0,0,.872.872h4.921a3.068,3.068,0,0,1,3.064,3.064v7.873a1.1,1.1,0,1,1-2.192,0v-6.889a.872.872,0,1,0-1.745,0v10.826a.872.872,0,1,0,1.745,0v-1.316a2.84,2.84,0,0,0,3.937-2.621v-7.873a4.815,4.815,0,0,0-4.809-4.809h-4.921a.872.872,0,0,0-.872.872Z" transform="translate(-301.821 -67.285)" fill="#4a4e3c"/>
      <path id="Path_1024933" data-name="Path 1024933" d="M332.194,43.645a3.333,3.333,0,1,0-3.333-3.333A3.337,3.337,0,0,0,332.194,43.645Zm0-4.921a1.588,1.588,0,1,1-1.588,1.588A1.59,1.59,0,0,1,332.194,38.724Z" transform="translate(-290.606 -7.476)" fill="#4a4e3c"/>
    </g>
  </g>
</svg>
