<svg xmlns="http://www.w3.org/2000/svg" width="150" height="150" viewBox="0 0 150 150">
  <g id="img4" transform="translate(-383.746 -8400)">
    <circle id="Ellipse_13609" data-name="Ellipse 13609" cx="75" cy="75" r="75" transform="translate(383.746 8400)" fill="#b9c296"/>
    <g id="Group_1198874" data-name="Group 1198874" transform="translate(419.318 8419.595)">
      <path id="Path_1024934" data-name="Path 1024934" d="M77.135,142.648H71.154A1.155,1.155,0,0,0,70,143.8v5.98a1.155,1.155,0,0,0,1.155,1.155h5.981a1.155,1.155,0,0,0,1.155-1.155V143.8A1.155,1.155,0,0,0,77.135,142.648Zm-1.155,5.98h-3.67v-3.67h3.67Z" transform="translate(-59.218 -104.7)" fill="#4a4e3c"/>
      <path id="Path_1024935" data-name="Path 1024935" d="M77.135,218.191H71.154A1.155,1.155,0,0,0,70,219.346v5.981a1.155,1.155,0,0,0,1.155,1.155h5.981a1.155,1.155,0,0,0,1.155-1.155v-5.981A1.155,1.155,0,0,0,77.135,218.191Zm-1.155,5.981h-3.67V220.5h3.67Z" transform="translate(-59.218 -168.608)" fill="#4a4e3c"/>
      <path id="Path_1024936" data-name="Path 1024936" d="M77.135,293.734H71.154A1.155,1.155,0,0,0,70,294.889v5.981a1.155,1.155,0,0,0,1.155,1.155h5.981a1.155,1.155,0,0,0,1.155-1.155v-5.981A1.155,1.155,0,0,0,77.135,293.734Zm-1.155,5.981h-3.67v-3.67h3.67Z" transform="translate(-59.218 -232.516)" fill="#4a4e3c"/>
      <path id="Path_1024937" data-name="Path 1024937" d="M77.135,369.277H71.154A1.155,1.155,0,0,0,70,370.432v5.981a1.155,1.155,0,0,0,1.155,1.155h5.981a1.155,1.155,0,0,0,1.155-1.155v-5.981A1.155,1.155,0,0,0,77.135,369.277Zm-1.155,5.981h-3.67v-3.67h3.67Z" transform="translate(-59.218 -296.424)" fill="#4a4e3c"/>
      <path id="Path_1024938" data-name="Path 1024938" d="M167.161,237.606H150.474a1.155,1.155,0,0,0,0,2.31h16.687a1.155,1.155,0,1,0,0-2.31Z" transform="translate(-126.321 -185.033)" fill="#4a4e3c"/>
      <path id="Path_1024939" data-name="Path 1024939" d="M167.161,313.15H150.474a1.155,1.155,0,0,0,0,2.31h16.687a1.155,1.155,0,0,0,0-2.31Z" transform="translate(-126.321 -248.942)" fill="#4a4e3c"/>
      <path id="Path_1024940" data-name="Path 1024940" d="M167.161,388.693H150.474a1.155,1.155,0,1,0,0,2.31h16.687a1.155,1.155,0,1,0,0-2.31Z" transform="translate(-126.321 -312.85)" fill="#4a4e3c"/>
      <path id="Path_1024941" data-name="Path 1024941" d="M78.217,23.931l-1.386-1.386.6-.6A1.155,1.155,0,0,0,75.8,20.308l-.6.6-1.386-1.386a2.183,2.183,0,0,0-3.087,0l-2.616,2.616a2.69,2.69,0,0,0-.621,2.822l.983,2.675-2.384,2.384A15.948,15.948,0,0,0,49.8,27.239a3.656,3.656,0,0,0-.706-.071H38.484l-.163-.525a3.575,3.575,0,0,0-3.431-2.528H31.06a4.614,4.614,0,0,0-9.227,0H17.971a3.585,3.585,0,0,0-3.413,2.471l-1.525,4.646a2.772,2.772,0,0,0-.1,1.326H6.546a1.155,1.155,0,0,0-1.155,1.155V85.379a1.155,1.155,0,0,0,1.155,1.155H46.231a1.155,1.155,0,0,0,1.155-1.155V55.749a15.9,15.9,0,0,0,3.08,1.445V88.242a1.374,1.374,0,0,1-1.372,1.372H3.683A1.374,1.374,0,0,1,2.31,88.242V30.849a1.374,1.374,0,0,1,1.372-1.372H9.717a1.155,1.155,0,0,0,0-2.31H3.683A3.687,3.687,0,0,0,0,30.849V88.242a3.687,3.687,0,0,0,3.683,3.683H49.094a3.687,3.687,0,0,0,3.683-3.683V57.8A15.958,15.958,0,0,0,67.721,31.656L70.1,29.273l2.675.983a2.688,2.688,0,0,0,2.821-.621l2.616-2.616a2.186,2.186,0,0,0,0-3.088Zm-8.475-.155,2.526-2.526,1.3,1.3L70.27,25.839l-.615-1.672A.373.373,0,0,1,69.742,23.776Zm-23.863,5.7a16.1,16.1,0,0,0-3.025,3.08H39.847a2.767,2.767,0,0,0-.089-1.282l-.558-1.8Zm-30.587,2.89a.452.452,0,0,1-.065-.415l1.525-4.646a1.279,1.279,0,0,1,1.217-.882h5.017a1.155,1.155,0,0,0,1.155-1.155v-1.1a2.3,2.3,0,1,1,4.607,0v1.1A1.155,1.155,0,0,0,29.9,26.424h4.986a1.276,1.276,0,0,1,1.224.9l.412,1.328.007.022,1.018,3.283a.461.461,0,0,1-.438.6H15.663a.452.452,0,0,1-.371-.191ZM45.076,84.224H7.7V34.868H41.416a15.846,15.846,0,0,0-1.689,6.071H24.153a1.155,1.155,0,1,0,0,2.31H39.727a15.936,15.936,0,0,0,5.349,10.795ZM69.3,42.094a13.671,13.671,0,1,1-4.856-10.432L62.26,33.849a10.521,10.521,0,0,0-6.611-2.33,10.643,10.643,0,0,0-10.136,7.557,1.155,1.155,0,1,0,2.214.66A8.319,8.319,0,0,1,55.65,33.83a8.22,8.22,0,0,1,4.967,1.664L58.4,37.705a5.191,5.191,0,1,0,1.634,1.634l2.212-2.212a8.259,8.259,0,0,1-6.6,13.231,8.32,8.32,0,0,1-7.92-5.9,1.155,1.155,0,1,0-2.213.662,10.575,10.575,0,0,0,20.707-3.026,10.52,10.52,0,0,0-2.33-6.611l2.188-2.188a13.593,13.593,0,0,1,3.222,8.8Zm-10.781,0a2.883,2.883,0,1,1-1.832-2.675l-1.858,1.858a1.155,1.155,0,1,0,1.634,1.633l1.858-1.858A2.854,2.854,0,0,1,58.523,42.094ZM73.967,28a.373.373,0,0,1-.391.086L71.9,27.473,75.2,24.179l1.3,1.3Z" fill="#4a4e3c"/>
    </g>
  </g>
</svg>
