<svg xmlns="http://www.w3.org/2000/svg" width="150" height="150" viewBox="0 0 150 150">
  <g id="img4" transform="translate(-383.746 -8400)">
    <circle id="Ellipse_13609" data-name="Ellipse 13609" cx="75" cy="75" r="75" transform="translate(383.746 8400)" fill="#b9c296"/>
    <path id="Path_1025886" data-name="Path 1025886" d="M72.02,97.166A24.1,24.1,0,0,0,62.612,91.9a12.931,12.931,0,1,0-13.575,0A24.166,24.166,0,0,0,31.807,112.49,1.451,1.451,0,0,0,33.25,114.1H78.4a1.451,1.451,0,0,0,1.443-1.605A24.1,24.1,0,0,0,72.02,97.166ZM45.8,80.9A10.028,10.028,0,1,1,55.827,90.932h0A10.04,10.04,0,0,1,45.8,80.9Zm-10.869,30.29a21.2,21.2,0,0,1,20.9-17.359h0a21.2,21.2,0,0,1,20.9,17.359Zm3.1-36.5V64.386a3.81,3.81,0,0,0,3.6-6.642l-13.74-9.983a3.792,3.792,0,0,0-4.529-.037L9.575,57.743A3.813,3.813,0,0,0,11.211,64.6a3.865,3.865,0,0,0,.609.049,3.769,3.769,0,0,0,1.358-.255V74.7a4.834,4.834,0,0,0,4.828,4.828H33.2A4.834,4.834,0,0,0,38.029,74.7ZM11.668,61.73a.911.911,0,0,1-.389-1.637l13.79-10.019a.916.916,0,0,1,1.084.011l.024.018,13.752,9.992a.91.91,0,0,1-1.067,1.476L26.456,52.556a1.451,1.451,0,0,0-1.706,0l-12.4,9.012a.906.906,0,0,1-.678.162ZM16.08,74.7V62.443L25.6,55.523l9.524,6.919V74.7A1.928,1.928,0,0,1,33.2,76.621H29.967V66.448A1.451,1.451,0,0,0,28.516,65H22.691a1.451,1.451,0,0,0-1.451,1.451V76.621H18.005A1.928,1.928,0,0,1,16.08,74.7Zm10.985,1.926H24.142V67.9h2.923Zm31.224-24.8a1.038,1.038,0,0,0,.236-.871c-.05-.412-.167-1.376-2.924-1.828-3.954-.649-4.878-2.734-4.957-4.368a4.6,4.6,0,0,1,3.73-4.659v-.572a1.451,1.451,0,0,1,2.9,0v.556a5.259,5.259,0,0,1,3.708,3.153,1.451,1.451,0,1,1-2.676,1.124,2.651,2.651,0,0,0-3.147-1.469c-.281.064-1.681.447-1.619,1.727.016.339.06,1.24,2.529,1.645,3.255.535,5.05,2,5.335,4.343a3.919,3.919,0,0,1-.922,3.119,5.642,5.642,0,0,1-3.209,1.711v.52a1.451,1.451,0,1,1-2.9,0v-.543a5.274,5.274,0,0,1-4.121-3.828,1.451,1.451,0,0,1,2.816-.7,2.715,2.715,0,0,0,2.891,1.787,3.371,3.371,0,0,0,2.33-.843ZM55.824,62.171A14.432,14.432,0,1,0,41.392,47.739,14.448,14.448,0,0,0,55.824,62.171Zm0-25.961a11.53,11.53,0,1,1-11.53,11.53,11.543,11.543,0,0,1,11.53-11.53ZM97.089,56.416,85.044,51.254a1.452,1.452,0,0,0-1.143,0L71.856,56.416a1.451,1.451,0,0,0-.88,1.334v9.74a15.513,15.513,0,0,0,13.247,15.3,1.45,1.45,0,0,0,.5,0,15.513,15.513,0,0,0,13.247-15.3V57.75a1.451,1.451,0,0,0-.88-1.334ZM95.067,67.489a12.633,12.633,0,0,1-10.594,12.4,12.633,12.633,0,0,1-10.594-12.4V58.706l10.594-4.54,10.594,4.54ZM83.9,56.385l-7.329,3.141a1.451,1.451,0,0,0-.88,1.334v6.63A10.645,10.645,0,0,0,84.12,77.954a1.448,1.448,0,0,0,.7,0,10.645,10.645,0,0,0,8.428-10.465v-6.63a1.451,1.451,0,0,0-.88-1.334l-7.329-3.141a1.451,1.451,0,0,0-1.143,0Zm6.45,5.432v5.673a7.78,7.78,0,0,1-5.878,7.554,7.78,7.78,0,0,1-5.878-7.554V61.816L84.473,59.3Z" transform="translate(405.762 8399.485)" fill="#4a4e3c"/>
  </g>
</svg>
