<svg xmlns="http://www.w3.org/2000/svg" width="150" height="150" viewBox="0 0 150 150">
  <g id="img5" transform="translate(-383.746 -8400)">
    <circle id="Ellipse_13609" data-name="Ellipse 13609" cx="75" cy="75" r="75" transform="translate(383.746 8400)" fill="#b9c296"/>
    <g id="Group_1198875" data-name="Group 1198875" transform="translate(420.819 8435.641)">
      <path id="Path_1024942" data-name="Path 1024942" d="M8.943,32.645c.808.469,1.5.892,2.134,1.278,2.95,1.8,4.441,2.71,8.6,2.71H34.733a4.073,4.073,0,0,0,4.059-4.077,4.027,4.027,0,0,0-.527-1.992,4.419,4.419,0,0,0,2.112-7.116,4.414,4.414,0,0,0,1.508-5.967h6.49a4.427,4.427,0,1,0,0-8.855H34.747V7.249a5.531,5.531,0,0,0-1.5-4.026,5.653,5.653,0,0,0-4.05-1.54h-.014l-7.573,0c-3.535,0-8.752,2.147-12.752,7.976a2.4,2.4,0,0,0-1.727-.735H1.111a1.111,1.111,0,1,0,0,2.222h6.02a.189.189,0,0,1,.183.184v7.439a1.111,1.111,0,1,0,2.222,0V12.787c3.407-6.123,8.5-8.874,12.075-8.879l7.574,0h.009a3.545,3.545,0,0,1,2.482.891,3.331,3.331,0,0,1,.85,2.452l0,2.441c0,.017,0,.033,0,.05s0,.032,0,.049l0,3.567a2.5,2.5,0,0,1-1.1,2.069l-.052.033a2.512,2.512,0,0,1-3.876-2.1V8.987a1.111,1.111,0,0,0-2.222,0A5.45,5.45,0,0,1,23.4,12.7a5.768,5.768,0,0,1-4.052,1.754,1.111,1.111,0,0,0-.117,2.219,8,8,0,0,0,5.7-2.36q.2-.186.378-.379a4.709,4.709,0,0,0,1.243,2.649,4.41,4.41,0,0,0,.216,6.412,4.417,4.417,0,0,0,.887,7.26,4.036,4.036,0,0,0-.3,4.159H19.771c-3.607.016-4.679-.64-7.537-2.385-.775-.473-1.64-1-2.7-1.6V23.927a1.111,1.111,0,1,0-2.222,0V31.07a.186.186,0,0,1-.183.18H1.111a1.111,1.111,0,1,0,0,2.222h6.02a2.4,2.4,0,0,0,1.812-.828Zm39.432-21.8a2.205,2.205,0,1,1,0,4.41H34.341a4.69,4.69,0,0,0,.4-1.906l0-2.5H48.375ZM32.312,17.482h5.729a2.205,2.205,0,1,1,0,4.41H29.694a2.2,2.2,0,0,1-1.187-4.055,4.737,4.737,0,0,0,3.8-.356Zm-2.626,6.633H37a2.205,2.205,0,1,1,0,4.411H29.686a2.205,2.205,0,1,1,0-4.411Zm-.551,8.467a1.838,1.838,0,0,1,1.837-1.834h4.047a1.837,1.837,0,0,1,1.551,1.809,1.871,1.871,0,0,1-1.837,1.855H30.972a1.836,1.836,0,0,1-1.837-1.83Z" fill="#4a4e3c"/>
      <path id="Path_1024943" data-name="Path 1024943" d="M87.73,24.579a1.111,1.111,0,0,0-1.111,1.111v5.357H81.681a1.111,1.111,0,0,0,0,2.222h4.938v10.4H81.681a1.111,1.111,0,0,0,0,2.222h4.938v10.4H81.681a1.111,1.111,0,0,0,0,2.222h4.938v10.4H81.681a1.111,1.111,0,0,0,0,2.222h4.938v10.4H81.681a1.111,1.111,0,0,0,0,2.222h4.938V94.32H76.028V56.656a1.111,1.111,0,0,0-1.111-1.111H61.448a1.111,1.111,0,0,0-1.111,1.111v16.4a1.111,1.111,0,0,0,2.222,0V57.767H73.806V94.155H62.559V78.208a1.111,1.111,0,1,0-2.222,0V94.32H56.244v-24.3a1.111,1.111,0,0,0-1.111-1.111H41.668a1.111,1.111,0,0,0-1.111,1.111v24.3H36.463V82.646a1.111,1.111,0,0,0-1.111-1.111H21.883a1.111,1.111,0,0,0-1.111,1.111V94.32H16.358a1.111,1.111,0,1,0,0,2.222H87.73a1.111,1.111,0,0,0,1.111-1.111V25.69A1.111,1.111,0,0,0,87.73,24.579ZM42.779,71.133H54.021V94.155H42.779ZM22.994,83.757H34.241v10.4H22.994Z" transform="translate(-12.988 -19.505)" fill="#4a4e3c"/>
    </g>
  </g>
</svg>
