<svg xmlns="http://www.w3.org/2000/svg" width="150" height="150" viewBox="0 0 150 150">
  <g id="img5" transform="translate(-383.746 -8400.5)">
    <circle id="Ellipse_13609" data-name="Ellipse 13609" cx="75" cy="75" r="75" transform="translate(383.746 8400.5)" fill="#b9c296"/>
    <g id="Group_1199342" data-name="Group 1199342" transform="translate(415.746 8433.5)">
      <path id="Path_1025887" data-name="Path 1025887" d="M17.332,93.3A1.331,1.331,0,0,1,16,91.963V41.332a1.332,1.332,0,0,1,2.665,0V91.963A1.331,1.331,0,0,1,17.332,93.3Zm0,0" transform="translate(-13.335 -33.338)" fill="#4a4e3c"/>
      <path id="Path_1025888" data-name="Path 1025888" d="M17.332,29.33A1.331,1.331,0,0,1,16,28a4,4,0,0,1,4-4,1.332,1.332,0,1,1,0,2.665A1.333,1.333,0,0,0,18.665,28,1.331,1.331,0,0,1,17.332,29.33Zm0,0" transform="translate(-13.335 -20.003)" fill="#4a4e3c"/>
      <path id="Path_1025889" data-name="Path 1025889" d="M481.332,93.3A1.331,1.331,0,0,1,480,91.963V41.332a1.332,1.332,0,1,1,2.665,0V91.963A1.331,1.331,0,0,1,481.332,93.3Zm0,0" transform="translate(-400.057 -33.338)" fill="#4a4e3c"/>
      <path id="Path_1025890" data-name="Path 1025890" d="M468,29.33A1.331,1.331,0,0,1,466.665,28a1.333,1.333,0,0,0-1.332-1.332,1.332,1.332,0,1,1,0-2.665,4,4,0,0,1,4,4A1.331,1.331,0,0,1,468,29.33Zm0,0" transform="translate(-386.722 -20.003)" fill="#4a4e3c"/>
      <path id="Path_1025891" data-name="Path 1025891" d="M105.281,26.665H33.332a1.332,1.332,0,0,1,0-2.665h71.949a1.332,1.332,0,0,1,0,2.665Zm0,0" transform="translate(-26.67 -20.003)" fill="#4a4e3c"/>
      <path id="Path_1025892" data-name="Path 1025892" d="M83.94,350.662H1.332A1.331,1.331,0,0,1,0,349.33v-4A1.331,1.331,0,0,1,1.332,344H83.94a1.331,1.331,0,0,1,1.332,1.332v4A1.331,1.331,0,0,1,83.94,350.662ZM2.665,348H82.608v-1.332H2.665Zm0,0" transform="translate(0 -286.708)" fill="#4a4e3c"/>
      <path id="Path_1025893" data-name="Path 1025893" d="M161.332,389.31a1.315,1.315,0,0,1-.448-.079,1.329,1.329,0,0,1-.806-1.7l6.662-18.653a1.331,1.331,0,0,1,2.507.9l-6.662,18.653A1.329,1.329,0,0,1,161.332,389.31Zm0,0" transform="translate(-133.352 -306.702)" fill="#4a4e3c"/>
      <path id="Path_1025894" data-name="Path 1025894" d="M121.332,389.31a1.315,1.315,0,0,1-.448-.079,1.329,1.329,0,0,1-.806-1.7l6.662-18.653a1.331,1.331,0,0,1,2.507.9l-6.662,18.653a1.329,1.329,0,0,1-1.254.885Zm0,0" transform="translate(-100.014 -306.702)" fill="#4a4e3c"/>
      <path id="Path_1025895" data-name="Path 1025895" d="M127.994,482.665h-6.662a1.332,1.332,0,1,1,0-2.665h6.662a1.332,1.332,0,1,1,0,2.665Zm0,0" transform="translate(-100.014 -400.057)" fill="#4a4e3c"/>
      <path id="Path_1025896" data-name="Path 1025896" d="M303.994,389.316a1.329,1.329,0,0,1-1.254-.885l-6.662-18.653a1.331,1.331,0,0,1,2.507-.9l6.662,18.653a1.329,1.329,0,0,1-.806,1.7,1.314,1.314,0,0,1-.448.079Zm0,0" transform="translate(-246.702 -306.709)" fill="#4a4e3c"/>
      <path id="Path_1025897" data-name="Path 1025897" d="M343.994,389.316a1.329,1.329,0,0,1-1.254-.885l-6.662-18.653a1.331,1.331,0,0,1,2.507-.9l6.662,18.653a1.329,1.329,0,0,1-.806,1.7A1.315,1.315,0,0,1,343.994,389.316Zm0,0" transform="translate(-280.04 -306.709)" fill="#4a4e3c"/>
      <path id="Path_1025898" data-name="Path 1025898" d="M343.994,482.665h-6.662a1.332,1.332,0,1,1,0-2.665h6.662a1.332,1.332,0,0,1,0,2.665Zm0,0" transform="translate(-280.04 -400.057)" fill="#4a4e3c"/>
      <path id="Path_1025899" data-name="Path 1025899" d="M205.888,418.665h-21.7a1.332,1.332,0,1,1,0-2.665h21.7a1.332,1.332,0,0,1,0,2.665Zm0,0" transform="translate(-152.402 -346.716)" fill="#4a4e3c"/>
      <path id="Path_1025900" data-name="Path 1025900" d="M200.174,442.665H175.621a1.332,1.332,0,0,1,0-2.665h24.553a1.332,1.332,0,0,1,0,2.665Zm0,0" transform="translate(-145.262 -366.719)" fill="#4a4e3c"/>
      <path id="Path_1025901" data-name="Path 1025901" d="M227.991,6.662H217.332A1.331,1.331,0,0,1,216,5.33v-4A1.331,1.331,0,0,1,217.332,0h10.659a1.331,1.331,0,0,1,1.332,1.332v4A1.331,1.331,0,0,1,227.991,6.662ZM218.665,4h7.994V2.665h-7.994Zm0,0" transform="translate(-180.026)" fill="#4a4e3c"/>
      <path id="Path_1025902" data-name="Path 1025902" d="M77.33,250.659a5.33,5.33,0,1,1,5.33-5.33A5.335,5.335,0,0,1,77.33,250.659Zm0-7.994a2.665,2.665,0,1,0,2.665,2.665A2.667,2.667,0,0,0,77.33,242.665Zm0,0" transform="translate(-60.009 -200.029)" fill="#4a4e3c"/>
      <path id="Path_1025903" data-name="Path 1025903" d="M357.33,138.659a5.33,5.33,0,1,1,5.33-5.33A5.335,5.335,0,0,1,357.33,138.659Zm0-7.994a2.665,2.665,0,1,0,2.665,2.665A2.667,2.667,0,0,0,357.33,130.665Zm0,0" transform="translate(-293.375 -106.682)" fill="#4a4e3c"/>
      <path id="Path_1025904" data-name="Path 1025904" d="M377.332,94.656A1.331,1.331,0,0,1,376,93.324V81.332a1.332,1.332,0,0,1,2.665,0V93.324A1.331,1.331,0,0,1,377.332,94.656Zm0,0" transform="translate(-313.378 -66.676)" fill="#4a4e3c"/>
      <path id="Path_1025905" data-name="Path 1025905" d="M385.327,82.665h-7.994a1.332,1.332,0,1,1,0-2.665h7.994a1.332,1.332,0,0,1,0,2.665Zm0,0" transform="translate(-313.378 -66.676)" fill="#4a4e3c"/>
      <path id="Path_1025906" data-name="Path 1025906" d="M385.327,114.665h-7.994a1.332,1.332,0,1,1,0-2.665h7.994a1.332,1.332,0,0,1,0,2.665Zm0,0" transform="translate(-313.378 -93.347)" fill="#4a4e3c"/>
      <path id="Path_1025907" data-name="Path 1025907" d="M418.661,87.994a1.333,1.333,0,0,1-1.194-.737l-1.332-2.665a1.331,1.331,0,0,1,0-1.193l1.332-2.665a1.333,1.333,0,0,1,2.384,1.193L418.817,84l1.034,2.069a1.331,1.331,0,0,1-1.19,1.928Zm0,0" transform="translate(-346.711 -66.676)" fill="#4a4e3c"/>
      <path id="Path_1025908" data-name="Path 1025908" d="M137.334,166.656a1.332,1.332,0,0,1-1-2.217C136.79,163.93,147.63,152,167.979,152a1.332,1.332,0,0,1,0,2.665c-19.166,0-29.547,11.429-29.649,11.544a1.325,1.325,0,0,1-1,.448Zm0,0" transform="translate(-113.351 -126.685)" fill="#4a4e3c"/>
      <path id="Path_1025909" data-name="Path 1025909" d="M305.33,157.327a1.332,1.332,0,0,1-.942-2.274l2.665-2.665a1.332,1.332,0,0,1,1.884,1.884l-2.665,2.665A1.33,1.33,0,0,1,305.33,157.327Zm0,0" transform="translate(-253.367 -126.682)" fill="#4a4e3c"/>
      <path id="Path_1025910" data-name="Path 1025910" d="M307.995,141.327a1.33,1.33,0,0,1-.942-.39l-2.665-2.665a1.332,1.332,0,1,1,1.884-1.884l2.665,2.665a1.332,1.332,0,0,1-.942,2.274Zm0,0" transform="translate(-253.367 -113.347)" fill="#4a4e3c"/>
      <path id="Path_1025911" data-name="Path 1025911" d="M97.538,266.673a1.332,1.332,0,0,1-.014-2.665h.014a1.332,1.332,0,1,1,0,2.665Zm0,0" transform="translate(-80.177 -220.038)" fill="#4a4e3c"/>
      <path id="Path_1025912" data-name="Path 1025912" d="M86.659,127.992a1.33,1.33,0,0,1-.942-.39l-5.33-5.33a1.332,1.332,0,1,1,1.884-1.884l5.33,5.33a1.332,1.332,0,0,1-.942,2.274Zm0,0" transform="translate(-66.674 -100.012)" fill="#4a4e3c"/>
      <path id="Path_1025913" data-name="Path 1025913" d="M81.33,127.992a1.332,1.332,0,0,1-.942-2.274l5.33-5.33a1.332,1.332,0,0,1,1.884,1.884l-5.33,5.33A1.33,1.33,0,0,1,81.33,127.992Zm0,0" transform="translate(-66.674 -100.012)" fill="#4a4e3c"/>
      <path id="Path_1025914" data-name="Path 1025914" d="M206.659,71.992a1.33,1.33,0,0,1-.942-.39l-5.33-5.33a1.332,1.332,0,1,1,1.884-1.884l5.33,5.33a1.332,1.332,0,0,1-.942,2.274Zm0,0" transform="translate(-166.688 -53.339)" fill="#4a4e3c"/>
      <path id="Path_1025915" data-name="Path 1025915" d="M201.33,71.992a1.332,1.332,0,0,1-.942-2.274l5.33-5.33a1.332,1.332,0,0,1,1.884,1.884l-5.33,5.33A1.33,1.33,0,0,1,201.33,71.992Zm0,0" transform="translate(-166.688 -53.338)" fill="#4a4e3c"/>
      <path id="Path_1025916" data-name="Path 1025916" d="M222.659,279.992a1.33,1.33,0,0,1-.942-.39l-5.33-5.33a1.332,1.332,0,1,1,1.884-1.884l5.33,5.33a1.332,1.332,0,0,1-.942,2.274Zm0,0" transform="translate(-180.023 -226.697)" fill="#4a4e3c"/>
      <path id="Path_1025917" data-name="Path 1025917" d="M217.33,279.992a1.332,1.332,0,0,1-.942-2.274l5.33-5.33a1.332,1.332,0,0,1,1.884,1.884l-5.33,5.33A1.33,1.33,0,0,1,217.33,279.992Zm0,0" transform="translate(-180.023 -226.697)" fill="#4a4e3c"/>
      <path id="Path_1025918" data-name="Path 1025918" d="M342.659,239.992a1.33,1.33,0,0,1-.942-.39l-5.33-5.33a1.332,1.332,0,1,1,1.884-1.884l5.33,5.33a1.332,1.332,0,0,1-.942,2.274Zm0,0" transform="translate(-280.038 -193.358)" fill="#4a4e3c"/>
      <path id="Path_1025919" data-name="Path 1025919" d="M337.33,239.992a1.332,1.332,0,0,1-.942-2.274l5.33-5.33a1.332,1.332,0,0,1,1.884,1.884l-5.33,5.33A1.33,1.33,0,0,1,337.33,239.992Zm0,0" transform="translate(-280.038 -193.358)" fill="#4a4e3c"/>
    </g>
  </g>
</svg>
