<svg xmlns="http://www.w3.org/2000/svg" width="84" height="84" viewBox="0 0 84 84">
  <g id="img6" transform="translate(-215 -1680)">
    <rect id="Rectangle_461342" data-name="Rectangle 461342" width="84" height="84" rx="10" transform="translate(215 1680)" fill="#b9c296"/>
    <g id="Group_1196510" data-name="Group 1196510" transform="translate(230.738 1695.735)">
      <g id="Group_1196509" data-name="Group 1196509" transform="translate(1.026 1.029)">
        <path id="Path_1018547" data-name="Path 1018547" d="M422.926,64a2.49,2.49,0,0,1-3.682,0,2.567,2.567,0,0,0-2.534,2.6c0,2.011,4.375,5.355,4.375,5.355s4.375-3.345,4.375-5.355A2.567,2.567,0,0,0,422.926,64Z" transform="translate(-374.987 -58.462)" fill="#fe90c5"/>
        <path id="Path_1018548" data-name="Path 1018548" d="M16.216,10a2.5,2.5,0,0,0-1.841.813A2.5,2.5,0,0,0,12.534,10,2.567,2.567,0,0,0,10,12.6c0,2.011,4.375,5.355,4.375,5.355S18.75,14.612,18.75,12.6A2.567,2.567,0,0,0,16.216,10Z" transform="translate(-10 -10.002)" fill="#fe90c5"/>
      </g>
      <path id="Path_1018549" data-name="Path 1018549" d="M97.377,121.11l11.554-11.554-5.51-5.51.006-4.573a14.679,14.679,0,0,0-2.487-8.2l-4.515-6.734a3.062,3.062,0,0,0-4.313-.793A3.114,3.114,0,0,0,91.3,87.9l1.726,2.847a.441.441,0,0,1-.689.541l-12.7-12.7a3.044,3.044,0,0,0-4.274-.066,2.993,2.993,0,0,0-.154,4.1l-1.853-1.853a3,3,0,0,0-4.2-.04,3.06,3.06,0,0,0,.015,4.332l1.8,1.8a2.993,2.993,0,0,0-4.1.154,3.044,3.044,0,0,0,.066,4.274l2.013,2.013a2.994,2.994,0,0,0-4.081.14h0a3,3,0,0,0,0,4.236l9.731,9.731h0l3.9,3.9a14.678,14.678,0,0,0,10.4,4.3l2.956,0Z" transform="translate(-57.433 -69.704)" fill="#ffd4ac"/>
      <path id="Path_1018550" data-name="Path 1018550" d="M18.306,246.9l4.51-4.51,3.288,0A10.553,10.553,0,0,0,32,240.609l4.841-3.246a2.2,2.2,0,0,0,.577-3.09h0a2.2,2.2,0,0,0-2.944-.62l-2.092,1.268a.317.317,0,0,1-.389-.5l6.926-6.926a2.154,2.154,0,0,0,0-3.046h0a2.154,2.154,0,0,0-3.046,0l-4.839,4.839,1.514-1.5,4.839-4.839a2.154,2.154,0,0,0,0-3.046h0a2.154,2.154,0,0,0-3.046,0L29.5,224.744,28,226.258l4.839-4.839a2.154,2.154,0,0,0,0-3.046h0a2.154,2.154,0,0,0-3.046,0l-4.839,4.839.005.005,1.267-1.267a2.154,2.154,0,0,0,0-3.046h0a2.154,2.154,0,0,0-3.046,0L20.4,221.677l2.284-2.284L17.6,224.484a10.553,10.553,0,0,0-3.091,7.477l0,2.125L10,238.6Z" transform="translate(-8.974 -195.403)" fill="#ffcc9c"/>
      <path id="Path_1018551" data-name="Path 1018551" d="M35.16,105.75a1.026,1.026,0,0,0-.725-.3h0l-2.956,0h-.019a13.731,13.731,0,0,1-4.8-.873l1.774-1.189a3.225,3.225,0,0,0-1.8-5.9h-.05L30.667,93.4a3.183,3.183,0,0,0-1.036-5.189A3.181,3.181,0,0,0,25.28,83.86a3.181,3.181,0,0,0-5.189-1.036l-1.467,1.467a3.181,3.181,0,0,0-5.145-.936l-.65.65-2.644-2.629a1.97,1.97,0,0,1,2.634-2.922l2.56,2.56a1.026,1.026,0,0,0,1.451-1.451l-4.417-4.417A1.97,1.97,0,0,1,15.2,72.362l7.739,7.754a1.026,1.026,0,1,0,1.451-1.451l-5.882-5.9a1.97,1.97,0,0,1,2.922-2.634l2.155,2.155a1.026,1.026,0,0,0,1.451-1.451l-2.155-2.155a4.018,4.018,0,0,0-6.727,1.806A4.021,4.021,0,0,0,10.54,76.1a4.017,4.017,0,0,0-2.055,6.453A4.018,4.018,0,0,0,6.718,89.27l.458.458a11.489,11.489,0,0,0-2.668,7.411l0,1.7L.3,103.048A1.026,1.026,0,1,0,1.751,104.5l4.51-4.51a1.026,1.026,0,0,0,.3-.727l0-2.125a9.463,9.463,0,0,1,2.79-6.75L14.44,85.3h0l.488-.488a1.127,1.127,0,0,1,1.679,1.5l-1.356,1.356a1.026,1.026,0,0,0,0,1.451l0,0,0,0a1.026,1.026,0,0,0,1.451,0l4.833-4.844a1.127,1.127,0,0,1,1.679,1.5L18.3,90.709a1.026,1.026,0,1,0,1.451,1.451l6.342-6.353A1.128,1.128,0,0,1,27.684,87.4l-6.352,6.342a1.026,1.026,0,0,0,1.451,1.451l4.934-4.923a1.127,1.127,0,0,1,1.5,1.679L22.29,98.877a1.343,1.343,0,0,0,1.646,2.1l2.092-1.268a1.175,1.175,0,0,1,1.264,1.981l-4.841,3.246a9.494,9.494,0,0,1-5.306,1.614h-.013l-3.288,0h0a1.026,1.026,0,0,0-.725.3l-4.51,4.51a1.026,1.026,0,1,0,1.451,1.451l4.209-4.209,2.862,0h.016a11.539,11.539,0,0,0,6.449-1.962l1.037-.7a15.79,15.79,0,0,0,6.827,1.563h.022l2.53,0,5.209,5.209a1.026,1.026,0,0,0,1.451-1.451ZM8.169,85.034A1.972,1.972,0,0,1,10.8,84.9l.567.567-.664.664h0L8.591,88.243l-.423-.423A1.972,1.972,0,0,1,8.169,85.034Z" transform="translate(0 -60.579)"/>
      <path id="Path_1018552" data-name="Path 1018552" d="M493.026,378.452a1.026,1.026,0,1,0,.725.3A1.029,1.029,0,0,0,493.026,378.452Z" transform="translate(-441.528 -339.625)"/>
      <path id="Path_1018553" data-name="Path 1018553" d="M293.013,142.85l.006-4.148a15.65,15.65,0,0,0-2.661-8.769l-4.515-6.734a4.087,4.087,0,0,0-5.739-1.072,4.1,4.1,0,0,0-1.552,4.583l-2.681-2.681a1.026,1.026,0,0,0-1.451,1.451l5.76,5.76a1.467,1.467,0,0,0,2.292-1.8l-1.764-2.911a2.036,2.036,0,0,1,2.114-3.056,2.02,2.02,0,0,1,1.317.867l4.515,6.734a13.605,13.605,0,0,1,2.313,7.623l-.006,4.573a1.026,1.026,0,0,0,.3.727l2.751,2.751a1.026,1.026,0,0,0,1.451-1.451Z" transform="translate(-245.999 -108.932)"/>
      <path id="Path_1018554" data-name="Path 1018554" d="M251.637,122.764a1.026,1.026,0,1,0-.726-.3A1.031,1.031,0,0,0,251.637,122.764Z" transform="translate(-224.901 -108.326)"/>
      <path id="Path_1018555" data-name="Path 1018555" d="M331.31,263.5a1.026,1.026,0,1,0-1.451-1.451l-.448.448a4.919,4.919,0,0,0,0,6.949A1.026,1.026,0,0,0,330.862,268a2.865,2.865,0,0,1,0-4.047Z" transform="translate(-294.329 -234.898)"/>
      <path id="Path_1018556" data-name="Path 1018556" d="M413.951,54a3.5,3.5,0,0,1-3.682,0,3.6,3.6,0,0,0-3.56,3.625c0,1.133.814,2.493,2.49,4.159a26.129,26.129,0,0,0,2.288,2.011,1.026,1.026,0,0,0,1.246,0,26.148,26.148,0,0,0,2.288-2.011c1.675-1.666,2.49-3.026,2.49-4.159A3.6,3.6,0,0,0,413.951,54ZM412.11,61.67c-1.714-1.424-3.349-3.241-3.349-4.043a1.543,1.543,0,0,1,1.508-1.573,1.466,1.466,0,0,1,1.087.483,1.026,1.026,0,0,0,1.508,0,1.467,1.467,0,0,1,1.087-.483,1.543,1.543,0,0,1,1.508,1.573C415.46,58.427,413.825,60.244,412.11,61.67Z" transform="translate(-364.987 -48.459)"/>
      <path id="Path_1018557" data-name="Path 1018557" d="M4.778,9.8a1.026,1.026,0,0,0,1.246,0A26.153,26.153,0,0,0,8.311,7.787C9.987,6.121,10.8,4.761,10.8,3.628A3.6,3.6,0,0,0,7.241,0,3.523,3.523,0,0,0,5.4.526,3.523,3.523,0,0,0,3.56,0,3.6,3.6,0,0,0,0,3.628C0,4.761.814,6.121,2.49,7.787A26.161,26.161,0,0,0,4.778,9.8ZM3.56,2.055a1.466,1.466,0,0,1,1.087.483,1.026,1.026,0,0,0,1.508,0,1.467,1.467,0,0,1,1.087-.483A1.543,1.543,0,0,1,8.75,3.628c0,.8-1.635,2.618-3.349,4.043C3.686,6.247,2.052,4.43,2.052,3.628A1.543,1.543,0,0,1,3.56,2.055Z" transform="translate(0 0)"/>
    </g>
  </g>
</svg>
