<svg xmlns="http://www.w3.org/2000/svg" width="84" height="84" viewBox="0 0 84 84">
  <g id="img9" transform="translate(-185 -4586)">
    <rect id="Rectangle_461356" data-name="Rectangle 461356" width="84" height="84" rx="9" transform="translate(185 4586)" fill="#ffe3c2"/>
    <g id="Layer_66" transform="translate(196.313 4597.313)">
      <g id="Group_1196453" data-name="Group 1196453" transform="translate(0 0)">
        <g id="Group_1196307" data-name="Group 1196307" transform="translate(4.664 30.287)">
          <g id="Group_1196306" data-name="Group 1196306">
            <path id="Path_1018281" data-name="Path 1018281" d="M23.276,126.854a2.785,2.785,0,0,1-2.149-.523,7.963,7.963,0,0,0,.573,4.588c.913,2.283-2.529,4.181-2.225,7.365l3.436-.867a5.97,5.97,0,0,0,1.179-.433l1.685-.831a1.9,1.9,0,0,0,1.057-1.7v-2.067a6.84,6.84,0,0,1-3.556-5.532Z" transform="translate(-19.456 -126.331)" fill="#fcdd86"/>
          </g>
        </g>
        <g id="Group_1196309" data-name="Group 1196309" transform="translate(0.599 41.431)">
          <g id="Group_1196308" data-name="Group 1196308">
            <path id="Path_1018282" data-name="Path 1018282" d="M26.63,176.306a2.451,2.451,0,0,1-2.805-1.96c-2.5,4.393-5.044,2.339-6.126,1.088a.535.535,0,0,1-.13-.344H16.8a.535.535,0,0,1-.13.344c-1.192,1.377-4.149,3.728-6.88-2.617l-4.638,1.171a2.794,2.794,0,0,0-2.108,2.554L2.5,191.34a.777.777,0,0,0,.776.82H7.591a.525.525,0,0,0,.525-.525v-9.25l.762,2.441a16.542,16.542,0,0,1,.752,4.93v1.88a.525.525,0,0,0,.525.525H20.573l.229-4.178a2.323,2.323,0,0,1,1.752-2.124l2.839-.714c.158-.546.287-.93.855-2.759v2.544l.878-.221,1.362-.672a2.124,2.124,0,0,0,1.388-1.949v-.914a5.907,5.907,0,0,1-3.245-4.867Z" transform="translate(-2.5 -172.817)" fill="#fc657e"/>
          </g>
        </g>
        <g id="Group_1196311" data-name="Group 1196311" transform="translate(15.664 40.304)">
          <g id="Group_1196310" data-name="Group 1196310">
            <path id="Path_1018283" data-name="Path 1018283" d="M71.863,169.112a14.9,14.9,0,0,1-2.214-1,9.062,9.062,0,0,1-3.907,2.847.558.558,0,0,0-.272.9c1.082,1.251,3.623,3.3,6.126-1.088A2.44,2.44,0,0,1,71.863,169.112Z" transform="translate(-65.337 -168.114)" fill="#edf4fc"/>
          </g>
        </g>
        <g id="Group_1196313" data-name="Group 1196313" transform="translate(7.885 40.304)">
          <g id="Group_1196312" data-name="Group 1196312">
            <path id="Path_1018284" data-name="Path 1018284" d="M39.5,170.961a9.06,9.06,0,0,1-3.907-2.847l-1.288.635a5.965,5.965,0,0,1-1.179.433l-.234.059c2.73,6.344,5.688,3.994,6.88,2.617A.558.558,0,0,0,39.5,170.961Z" transform="translate(-32.891 -168.114)" fill="#edf4fc"/>
          </g>
        </g>
        <g id="Group_1196315" data-name="Group 1196315" transform="translate(10.586 36.342)">
          <g id="Group_1196314" data-name="Group 1196314">
            <path id="Path_1018285" data-name="Path 1018285" d="M53.15,155.355a1.9,1.9,0,0,1-1.057-1.7v-2.067a6.775,6.775,0,0,1-6.483,0v2.067a1.9,1.9,0,0,1-1.057,1.7l-.4.2a9.062,9.062,0,0,0,3.907,2.847.567.567,0,0,1,.4.554h.772a.566.566,0,0,1,.4-.554,9.06,9.06,0,0,0,3.907-2.847Z" transform="translate(-44.156 -151.589)" fill="#f9d0b4"/>
          </g>
        </g>
        <g id="Group_1196320" data-name="Group 1196320" transform="translate(0 40.832)">
          <g id="Group_1196317" data-name="Group 1196317" transform="translate(22.932 9.567)">
            <g id="Group_1196316" data-name="Group 1196316">
              <path id="Path_1018286" data-name="Path 1018286" d="M97.157,210.232a.6.6,0,0,0-.662.415c-.219.7-.372,1.194-.487,1.562-.16.512-.247.788-.331,1.073a1.081,1.081,0,0,0,1.99-.038v-2.418a.6.6,0,0,0-.509-.593Z" transform="translate(-95.652 -210.225)"/>
            </g>
          </g>
          <g id="Group_1196319" data-name="Group 1196319">
            <g id="Group_1196318" data-name="Group 1196318">
              <path id="Path_1018287" data-name="Path 1018287" d="M18.672,189.66H8.329v-1.805a17.123,17.123,0,0,0-.779-5.108l-.762-2.441a.6.6,0,0,0-1.171.179v9.176H1.377a.177.177,0,0,1-.129-.055.185.185,0,0,1-.048-.143l.538-14.786a2.185,2.185,0,0,1,1.656-2.006L8.032,171.5a.6.6,0,0,0-.293-1.162L3.1,171.506A3.382,3.382,0,0,0,.54,174.62L0,189.407a1.376,1.376,0,0,0,1.374,1.453H5.691a1.126,1.126,0,0,0,1.125-1.124V184.7a15.916,15.916,0,0,1,.315,3.153v1.88a1.126,1.126,0,0,0,1.124,1.124H18.672a.6.6,0,1,0,0-1.2Z" transform="translate(0 -170.318)"/>
            </g>
          </g>
        </g>
        <g id="Group_1196322" data-name="Group 1196322" transform="translate(18.523 30.286)">
          <g id="Group_1196321" data-name="Group 1196321">
            <path id="Path_1018288" data-name="Path 1018288" d="M82.966,126.33a2.786,2.786,0,0,1-2.149.523,6.839,6.839,0,0,1-3.556,5.532v2.067a1.9,1.9,0,0,0,1.057,1.7l1.685.831a5.954,5.954,0,0,0,.926.362,2.472,2.472,0,0,1,.614-.725h0v-2.14a7.848,7.848,0,0,1,.85-3.559v0a7.962,7.962,0,0,0,.573-4.588Z" transform="translate(-77.261 -126.33)" fill="#fcdd86"/>
          </g>
        </g>
        <g id="Group_1196324" data-name="Group 1196324" transform="translate(22.079 25.159)">
          <g id="Group_1196323" data-name="Group 1196323">
            <path id="Path_1018289" data-name="Path 1018289" d="M92.55,104.944a2.828,2.828,0,0,0-.437.035v5.159c0,.154-.007.306-.017.457a2.844,2.844,0,1,0,.455-5.651Z" transform="translate(-92.095 -104.944)" fill="#f9d0b4"/>
          </g>
        </g>
        <g id="Group_1196326" data-name="Group 1196326" transform="translate(8.467 22.777)">
          <g id="Group_1196325" data-name="Group 1196325">
            <path id="Path_1018290" data-name="Path 1018290" d="M48.526,96.558a5.649,5.649,0,0,1-2.487-1.431.452.452,0,0,0-.649.036c-1.038,1.211-4.718,4.887-10.074,3.361v4.058a6.815,6.815,0,0,0,13.629,0V97.077A.534.534,0,0,0,48.526,96.558Z" transform="translate(-35.316 -95.007)" fill="#f9d0b4"/>
          </g>
        </g>
        <g id="Group_1196328" data-name="Group 1196328" transform="translate(5.184 25.698)">
          <g id="Group_1196327" data-name="Group 1196327">
            <path id="Path_1018291" data-name="Path 1018291" d="M24.907,111.846v-4.058a11.074,11.074,0,0,1-1.441-.523.867.867,0,0,0-.942.162,2.836,2.836,0,0,0,2.4,4.877C24.914,112.152,24.907,112,24.907,111.846Z" transform="translate(-21.624 -107.191)" fill="#f9d0b4"/>
          </g>
        </g>
        <g id="Group_1196330" data-name="Group 1196330" transform="translate(6.015 15.063)">
          <g id="Group_1196329" data-name="Group 1196329">
            <path id="Path_1018292" data-name="Path 1018292" d="M34.356,62.829A9.294,9.294,0,0,0,25.089,72.1V73.77c.023-.023.044-.048.068-.071a.867.867,0,0,1,.942-.162,11.073,11.073,0,0,0,1.441.523c5.356,1.526,9.036-2.15,10.074-3.361a.452.452,0,0,1,.649-.036,5.649,5.649,0,0,0,2.487,1.431.535.535,0,0,1,.419.519v.347a2.832,2.832,0,0,1,2.452.8V72.1A9.294,9.294,0,0,0,34.356,62.829Z" transform="translate(-25.089 -62.829)" fill="#fcdd86"/>
          </g>
        </g>
        <g id="Group_1196332" data-name="Group 1196332" transform="translate(21.658 24.56)">
          <g id="Group_1196331" data-name="Group 1196331">
            <path id="Path_1018293" data-name="Path 1018293" d="M91.215,102.444c-.106,0-.211.005-.315.015a.6.6,0,1,0,.111,1.194c.067-.006.135-.01.2-.01a2.246,2.246,0,1,1,0,4.492,1.979,1.979,0,0,1-.211-.012.6.6,0,1,0-.129,1.192,3.142,3.142,0,0,0,.34.019,3.445,3.445,0,0,0,0-6.889Z" transform="translate(-90.34 -102.444)"/>
          </g>
        </g>
        <g id="Group_1196334" data-name="Group 1196334" transform="translate(12.803 32.006)">
          <g id="Group_1196333" data-name="Group 1196333">
            <path id="Path_1018294" data-name="Path 1018294" d="M58.344,133.644a.6.6,0,0,0-.844.074,2.137,2.137,0,0,1-3.038,0,.6.6,0,0,0-.919.77,3.329,3.329,0,0,0,4.875,0A.6.6,0,0,0,58.344,133.644Z" transform="translate(-53.403 -133.504)"/>
          </g>
        </g>
        <g id="Group_1196337" data-name="Group 1196337" transform="translate(7.867 22.178)">
          <g id="Group_1196336" data-name="Group 1196336">
            <g id="Group_1196335" data-name="Group 1196335">
              <path id="Path_1018295" data-name="Path 1018295" d="M46.761,94.074a5.147,5.147,0,0,1-2.219-1.291,1.068,1.068,0,0,0-.778-.274,1.038,1.038,0,0,0-.729.364c-.948,1.106-4.431,4.606-9.455,3.175a.6.6,0,0,0-.764.576v4.058a7.414,7.414,0,1,0,14.828,0V95.177A1.13,1.13,0,0,0,46.761,94.074Zm-.315,6.608a6.215,6.215,0,1,1-12.431,0V97.388c5.134,1.057,8.692-2.331,9.83-3.62a6.241,6.241,0,0,0,2.6,1.463Z" transform="translate(-32.816 -92.507)"/>
            </g>
          </g>
        </g>
        <g id="Group_1196339" data-name="Group 1196339" transform="translate(4.585 25.098)">
          <g id="Group_1196338" data-name="Group 1196338">
            <path id="Path_1018296" data-name="Path 1018296" d="M21.323,105.908a11.743,11.743,0,0,0,1.519.552.6.6,0,0,0,.328-1.153,10.506,10.506,0,0,1-1.363-.5,1.461,1.461,0,0,0-1.594.273,3.442,3.442,0,0,0,2.356,5.953c.1,0,.191-.005.285-.014a.6.6,0,0,0-.111-1.194c-.058.005-.116.008-.175.008a2.248,2.248,0,0,1-2.246-2.246,2.22,2.22,0,0,1,.709-1.634A.267.267,0,0,1,21.323,105.908Z" transform="translate(-19.125 -104.687)"/>
          </g>
        </g>
        <g id="Group_1196341" data-name="Group 1196341" transform="translate(5.415 14.463)">
          <g id="Group_1196340" data-name="Group 1196340">
            <path id="Path_1018297" data-name="Path 1018297" d="M32.455,60.329a9.877,9.877,0,0,0-9.866,9.866v1.533a.6.6,0,1,0,1.2,0V70.195a8.667,8.667,0,0,1,17.335,0v1.493a.6.6,0,0,0,1.2,0V70.195A9.877,9.877,0,0,0,32.455,60.329Z" transform="translate(-22.589 -60.329)"/>
          </g>
        </g>
        <g id="Group_1196343" data-name="Group 1196343" transform="translate(23.054 29.832)">
          <g id="Group_1196342" data-name="Group 1196342">
            <path id="Path_1018298" data-name="Path 1018298" d="M97.953,124.929a.6.6,0,0,0-1.18.21,7.64,7.64,0,0,1-.567,4.115l-.01.026a.6.6,0,0,0,1.121.423l0-.012A8.7,8.7,0,0,0,97.953,124.929Z" transform="translate(-96.162 -124.434)"/>
          </g>
        </g>
        <g id="Group_1196345" data-name="Group 1196345" transform="translate(4.065 29.83)">
          <g id="Group_1196344" data-name="Group 1196344">
            <path id="Path_1018299" data-name="Path 1018299" d="M20.356,129.249a7.636,7.636,0,0,1-.567-4.117.6.6,0,0,0-1.18-.211,8.7,8.7,0,0,0,.634,4.773c.331.828-.108,1.615-.852,2.832a7.091,7.091,0,0,0-1.425,4.206.6.6,0,0,0,.6.562H17.6a.6.6,0,0,0,.561-.635,6.067,6.067,0,0,1,1.251-3.507C20.158,131.935,20.927,130.677,20.356,129.249Z" transform="translate(-16.956 -124.427)"/>
          </g>
        </g>
        <g id="Group_1196348" data-name="Group 1196348" transform="translate(15.064 39.704)">
          <g id="Group_1196347" data-name="Group 1196347">
            <g id="Group_1196346" data-name="Group 1196346">
              <path id="Path_1018300" data-name="Path 1018300" d="M70.517,166.986a.6.6,0,0,0-.383-.349,5.415,5.415,0,0,1-.833-.326l-1.288-.635a.6.6,0,0,0-.721.148,8.5,8.5,0,0,1-3.628,2.664,1.171,1.171,0,0,0-.784.8,1.142,1.142,0,0,0,.236,1.064,4.543,4.543,0,0,0,3.245,1.795q.146,0,.3-.014c1.315-.129,2.513-1.126,3.56-2.964a.6.6,0,0,0,.068-.409,1.835,1.835,0,0,1,.2-1.254A.6.6,0,0,0,70.517,166.986Zm-1.445,1.765c-.812,1.366-1.664,2.1-2.532,2.186a3.277,3.277,0,0,1-2.471-1.32,9.324,9.324,0,0,0,3.826-2.664l.877.433q.194.1.4.179a3.014,3.014,0,0,0-.1,1.185Z" transform="translate(-62.836 -165.615)"/>
            </g>
          </g>
        </g>
        <g id="Group_1196351" data-name="Group 1196351" transform="translate(7.286 39.705)">
          <g id="Group_1196350" data-name="Group 1196350">
            <g id="Group_1196349" data-name="Group 1196349">
              <path id="Path_1018301" data-name="Path 1018301" d="M38.559,169.286a1.171,1.171,0,0,0-.783-.8,8.5,8.5,0,0,1-3.629-2.663.6.6,0,0,0-.721-.148l-1.288.635a5.369,5.369,0,0,1-1.061.39l-.234.059a.6.6,0,0,0-.4.818c1.189,2.762,2.595,4.287,4.178,4.532a2.894,2.894,0,0,0,.444.034,4.479,4.479,0,0,0,3.261-1.794A1.143,1.143,0,0,0,38.559,169.286ZM34.8,170.926c-1.026-.159-2.049-1.259-2.976-3.195a6.549,6.549,0,0,0,.843-.345l.877-.432a9.321,9.321,0,0,0,3.826,2.664A3.186,3.186,0,0,1,34.8,170.926Z" transform="translate(-30.391 -165.615)"/>
            </g>
          </g>
        </g>
        <g id="Group_1196353" data-name="Group 1196353" transform="translate(17.923 35.946)">
          <g id="Group_1196352" data-name="Group 1196352">
            <path id="Path_1018302" data-name="Path 1018302" d="M77.081,153.758l-.4-.2a1.287,1.287,0,0,1-.722-1.162v-1.863a.6.6,0,1,0-1.2,0V152.4a2.478,2.478,0,0,0,1.391,2.237l.4.2a.6.6,0,0,0,.53-1.075Z" transform="translate(-74.762 -149.938)"/>
          </g>
        </g>
        <g id="Group_1196355" data-name="Group 1196355" transform="translate(14.338 43.104)">
          <g id="Group_1196354" data-name="Group 1196354">
            <path id="Path_1018303" data-name="Path 1018303" d="M61.094,179.8h-.688a.6.6,0,1,0,0,1.2h.688a.6.6,0,1,0,0-1.2Z" transform="translate(-59.807 -179.797)"/>
          </g>
        </g>
        <g id="Group_1196357" data-name="Group 1196357" transform="translate(9.986 35.961)">
          <g id="Group_1196356" data-name="Group 1196356">
            <path id="Path_1018304" data-name="Path 1018304" d="M43.709,150a.6.6,0,0,0-.6.6v1.848a1.287,1.287,0,0,1-.723,1.162l-.4.2a.6.6,0,1,0,.53,1.075l.4-.2a2.478,2.478,0,0,0,1.391-2.237V150.6A.6.6,0,0,0,43.709,150Z" transform="translate(-41.655 -150)"/>
          </g>
        </g>
        <g id="Group_1196359" data-name="Group 1196359" transform="translate(38.152 21.591)">
          <g id="Group_1196358" data-name="Group 1196358">
            <path id="Path_1018305" data-name="Path 1018305" d="M173.6,92.428a.388.388,0,0,0-.374-.38,7.529,7.529,0,0,1-5.2-1.875.39.39,0,0,0-.579.036,7.84,7.84,0,0,1-7.85,2.579.386.386,0,0,0-.467.373v5.824a7.233,7.233,0,0,0,14.467,0V92.541C173.606,92.5,173.605,92.466,173.6,92.428Z" transform="translate(-159.139 -90.06)" fill="#f9c1a8"/>
          </g>
        </g>
        <g id="Group_1196361" data-name="Group 1196361" transform="translate(35.803 14.853)">
          <g id="Group_1196360" data-name="Group 1196360">
            <path id="Path_1018306" data-name="Path 1018306" d="M164.585,63.387a4.089,4.089,0,0,0-2.111.589,4.136,4.136,0,0,0-3.543-2.022h-2.122a7.488,7.488,0,0,0-7.466,7.466v3.346a3,3,0,0,1,2.349-.625v-.348a.386.386,0,0,1,.467-.373,7.84,7.84,0,0,0,7.85-2.579.39.39,0,0,1,.579-.036,7.531,7.531,0,0,0,5.2,1.875.388.388,0,0,1,.374.38c0,.038,0,.075,0,.113v.968a3,3,0,0,1,2.559.811V67.519A4.144,4.144,0,0,0,164.585,63.387Z" transform="translate(-149.343 -61.954)" fill="#414344"/>
          </g>
        </g>
        <g id="Group_1196363" data-name="Group 1196363" transform="translate(52.601 25.002)">
          <g id="Group_1196362" data-name="Group 1196362">
            <path id="Path_1018307" data-name="Path 1018307" d="M219.889,104.29a2.991,2.991,0,0,0-.464.037V109.8c0,.163-.007.325-.018.485a3.019,3.019,0,1,0,.482-6Z" transform="translate(-219.407 -104.29)" fill="#f9c1a8"/>
          </g>
        </g>
        <g id="Group_1196365" data-name="Group 1196365" transform="translate(34.668 25.002)">
          <g id="Group_1196364" data-name="Group 1196364">
            <path id="Path_1018308" data-name="Path 1018308" d="M148.089,109.8v-5.476a3.021,3.021,0,1,0,.018,5.961C148.1,110.127,148.089,109.965,148.089,109.8Z" transform="translate(-144.605 -104.289)" fill="#f9c1a8"/>
          </g>
        </g>
        <g id="Group_1196367" data-name="Group 1196367" transform="translate(33.399 36.874)">
          <g id="Group_1196366" data-name="Group 1196366">
            <path id="Path_1018309" data-name="Path 1018309" d="M165.886,162.283a2.854,2.854,0,0,0-2.153-2.609l-5.618-1.414-1.986-.979a2.5,2.5,0,0,1-1.394-2.241v-1.231a7.184,7.184,0,0,1-6.665.108v1.123a2.5,2.5,0,0,1-1.394,2.241l-1.795.885a2.455,2.455,0,0,1-2.5,3.688h0a5.908,5.908,0,0,1-3.074,4.78v1a2.126,2.126,0,0,0,1.388,1.949l1.362.672,4.572,1.151a2.323,2.323,0,0,1,1.752,2.123l.229,4.178h17.279a.794.794,0,0,0,.792-.838Z" transform="translate(-139.312 -153.808)" fill="#70d6f9"/>
          </g>
        </g>
        <g id="Group_1196369" data-name="Group 1196369" transform="translate(40.452 36.874)">
          <g id="Group_1196368" data-name="Group 1196368">
            <path id="Path_1018310" data-name="Path 1018310" d="M178.5,157.281a2.5,2.5,0,0,1-1.394-2.241v-1.231a7.184,7.184,0,0,1-6.665.108v1.123a2.5,2.5,0,0,1-1.394,2.241l-.312.154a5.655,5.655,0,0,0,10.076,0Z" transform="translate(-168.734 -153.808)" fill="#f9c1a8"/>
          </g>
        </g>
        <g id="Group_1196372" data-name="Group 1196372" transform="translate(37.552 20.992)">
          <g id="Group_1196371" data-name="Group 1196371">
            <g id="Group_1196370" data-name="Group 1196370">
              <path id="Path_1018311" data-name="Path 1018311" d="M172.3,90.517a.985.985,0,0,0-.955-.967,6.979,6.979,0,0,1-4.795-1.7.989.989,0,0,0-1.468.092,7.19,7.19,0,0,1-7.258,2.366.989.989,0,0,0-.826.2.978.978,0,0,0-.363.764v5.819a7.833,7.833,0,1,0,15.666,0V90.517Zm-1.2,6.568a6.634,6.634,0,0,1-13.268,0V91.525a8.451,8.451,0,0,0,8.044-2.667,8.167,8.167,0,0,0,5.225,1.883Z" transform="translate(-156.637 -87.563)"/>
            </g>
          </g>
        </g>
        <g id="Group_1196376" data-name="Group 1196376" transform="translate(35.204 14.254)">
          <g id="Group_1196375" data-name="Group 1196375">
            <g id="Group_1196374" data-name="Group 1196374">
              <g id="Group_1196373" data-name="Group 1196373">
                <path id="Path_1018312" data-name="Path 1018312" d="M162.684,60.888a4.684,4.684,0,0,0-1.917.413,4.756,4.756,0,0,0-3.738-1.846h-2.122a8.075,8.075,0,0,0-8.066,8.066v3.346a.6.6,0,0,0,.974.468,2.393,2.393,0,0,1,1.51-.531,2.455,2.455,0,0,1,.373.03.6.6,0,0,0,.691-.592v-.085a8.453,8.453,0,0,0,8.044-2.667,8.167,8.167,0,0,0,5.225,1.883v.869a.6.6,0,0,0,.691.592,2.455,2.455,0,0,1,.373-.03,2.408,2.408,0,0,1,1.679.68.6.6,0,0,0,1.015-.432V65.619A4.736,4.736,0,0,0,162.684,60.888Zm3.533,9.04a3.594,3.594,0,0,0-1.36-.321v-.459a.985.985,0,0,0-.955-.967,6.978,6.978,0,0,1-4.795-1.7.989.989,0,0,0-1.468.092,7.19,7.19,0,0,1-7.258,2.366.989.989,0,0,0-.826.2.975.975,0,0,0-.319.472,3.618,3.618,0,0,0-1.193.236V67.521a6.875,6.875,0,0,1,6.867-6.867h2.122a3.557,3.557,0,0,1,3.029,1.731.6.6,0,0,0,.822.206,3.52,3.52,0,0,1,5.335,3.028Z" transform="translate(-146.842 -59.455)"/>
              </g>
            </g>
          </g>
        </g>
        <g id="Group_1196378" data-name="Group 1196378" transform="translate(54.91 48.181)">
          <g id="Group_1196377" data-name="Group 1196377">
            <path id="Path_1018313" data-name="Path 1018313" d="M229.638,200.974a.6.6,0,0,0-.6.6V213.38a.6.6,0,1,0,1.2,0V201.573A.6.6,0,0,0,229.638,200.974Z" transform="translate(-229.039 -200.974)"/>
          </g>
        </g>
        <g id="Group_1196380" data-name="Group 1196380" transform="translate(34.872 48.181)">
          <g id="Group_1196379" data-name="Group 1196379">
            <path id="Path_1018314" data-name="Path 1018314" d="M146.058,200.974a.6.6,0,0,0-.6.6v4.1a.6.6,0,0,0,1.2,0v-4.1A.6.6,0,0,0,146.058,200.974Z" transform="translate(-145.459 -200.974)"/>
          </g>
        </g>
        <g id="Group_1196383" data-name="Group 1196383" transform="translate(52.001 24.403)">
          <g id="Group_1196382" data-name="Group 1196382">
            <g id="Group_1196381" data-name="Group 1196381">
              <path id="Path_1018315" data-name="Path 1018315" d="M217.988,101.79a3.657,3.657,0,0,0-.556.044.6.6,0,0,0-.508.592V107.9c0,.132-.005.273-.017.445a.6.6,0,0,0,.5.632,3.618,3.618,0,1,0,.577-7.189Zm.135,6.036v-4.834a2.421,2.421,0,0,1,0,4.834Z" transform="translate(-216.906 -101.79)"/>
            </g>
          </g>
        </g>
        <g id="Group_1196386" data-name="Group 1196386" transform="translate(34.068 24.403)">
          <g id="Group_1196385" data-name="Group 1196385">
            <g id="Group_1196384" data-name="Group 1196384">
              <path id="Path_1018316" data-name="Path 1018316" d="M146.788,107.9v-5.476a.6.6,0,0,0-.508-.592,3.619,3.619,0,1,0-.556,7.2,3.609,3.609,0,0,0,.578-.05.6.6,0,0,0,.5-.632C146.793,108.174,146.788,108.033,146.788,107.9Zm-1.2-.076a2.421,2.421,0,0,1,0-4.834Z" transform="translate(-142.105 -101.789)"/>
            </g>
          </g>
        </g>
        <g id="Group_1196391" data-name="Group 1196391" transform="translate(38.455 36.52)">
          <g id="Group_1196388" data-name="Group 1196388" transform="translate(0 0.033)">
            <g id="Group_1196387" data-name="Group 1196387">
              <path id="Path_1018317" data-name="Path 1018317" d="M164.107,152.469a.6.6,0,0,0-.6.6v.953a1.888,1.888,0,0,1-1.059,1.7l-1.71.843a.6.6,0,1,0,.53,1.075l1.71-.843a3.079,3.079,0,0,0,1.728-2.779v-.953A.6.6,0,0,0,164.107,152.469Z" transform="translate(-160.404 -152.469)"/>
            </g>
          </g>
          <g id="Group_1196390" data-name="Group 1196390" transform="translate(3.647)">
            <g id="Group_1196389" data-name="Group 1196389">
              <path id="Path_1018318" data-name="Path 1018318" d="M194.886,175.716l-.8-14.588a3.439,3.439,0,0,0-2.605-3.158l-5.556-1.4L184,155.622a1.888,1.888,0,0,1-1.059-1.7v-.986a.6.6,0,0,0-1.2,0v.986a3.08,3.08,0,0,0,1.728,2.779l1.986.979a.6.6,0,0,0,.119.044l5.618,1.414a2.245,2.245,0,0,1,1.7,2.061l.8,14.588a.195.195,0,0,1-.194.205H176.216a.6.6,0,1,0,0,1.2H193.5a1.393,1.393,0,0,0,1.391-1.47Z" transform="translate(-175.617 -152.333)"/>
            </g>
          </g>
        </g>
        <g id="Group_1196393" data-name="Group 1196393" transform="translate(39.934 40.052)">
          <g id="Group_1196392" data-name="Group 1196392">
            <path id="Path_1018319" data-name="Path 1018319" d="M177.359,167.176a.6.6,0,0,0-.816.228,5.054,5.054,0,0,1-8.848-.032.6.6,0,0,0-1.048.581,6.253,6.253,0,0,0,10.941.039.6.6,0,0,0-.228-.816Z" transform="translate(-166.571 -167.063)"/>
          </g>
        </g>
        <g id="Group_1196395" data-name="Group 1196395" transform="translate(42.944 32.029)">
          <g id="Group_1196394" data-name="Group 1196394">
            <path id="Path_1018320" data-name="Path 1018320" d="M184.1,133.74a.6.6,0,0,0-.844.075,2.163,2.163,0,0,1-3.074,0,.6.6,0,0,0-.919.77,3.353,3.353,0,0,0,4.911,0,.6.6,0,0,0-.074-.844Z" transform="translate(-179.128 -133.6)"/>
          </g>
        </g>
        <g id="Group_1196397" data-name="Group 1196397" transform="translate(47.567 27.345)">
          <g id="Group_1196396" data-name="Group 1196396">
            <path id="Path_1018321" data-name="Path 1018321" d="M199.363,114.06a.952.952,0,1,0,.952.952A.952.952,0,0,0,199.363,114.06Z" transform="translate(-198.411 -114.06)"/>
          </g>
        </g>
        <g id="Group_1196399" data-name="Group 1196399" transform="translate(41.631 27.345)">
          <g id="Group_1196398" data-name="Group 1196398">
            <path id="Path_1018322" data-name="Path 1018322" d="M174.6,114.06a.952.952,0,1,0,.952.952A.952.952,0,0,0,174.6,114.06Z" transform="translate(-173.649 -114.06)"/>
          </g>
        </g>
        <g id="Group_1196401" data-name="Group 1196401" transform="translate(17.36 27.824)">
          <g id="Group_1196400" data-name="Group 1196400">
            <path id="Path_1018323" data-name="Path 1018323" d="M73.363,116.06a.952.952,0,1,0,.952.952A.952.952,0,0,0,73.363,116.06Z" transform="translate(-72.411 -116.06)"/>
          </g>
        </g>
        <g id="Group_1196403" data-name="Group 1196403" transform="translate(11.423 27.824)">
          <g id="Group_1196402" data-name="Group 1196402">
            <path id="Path_1018324" data-name="Path 1018324" d="M48.6,116.06a.952.952,0,1,0,.952.952A.952.952,0,0,0,48.6,116.06Z" transform="translate(-47.649 -116.06)"/>
          </g>
        </g>
        <g id="Group_1196405" data-name="Group 1196405" transform="translate(24.715 36.803)">
          <g id="Group_1196404" data-name="Group 1196404">
            <path id="Path_1018325" data-name="Path 1018325" d="M114.217,156.113h-.007a5.591,5.591,0,0,1-4.507-2.277.792.792,0,0,0-1.281,0,5.592,5.592,0,0,1-4.507,2.277l-.175,0a.63.63,0,0,0-.649.631v4.491a5.887,5.887,0,1,0,11.773,0v-4.486A.638.638,0,0,0,114.217,156.113Z" transform="translate(-103.09 -153.51)" fill="#f9c1a8"/>
          </g>
        </g>
        <g id="Group_1196407" data-name="Group 1196407" transform="translate(22.803 30.554)">
          <g id="Group_1196406" data-name="Group 1196406">
            <path id="Path_1018326" data-name="Path 1018326" d="M103,127.447a7.883,7.883,0,0,0-7.883,7.883v2.14a2.441,2.441,0,0,1,1.911-.509v-.035a.63.63,0,0,1,.649-.631l.175,0a5.591,5.591,0,0,0,4.507-2.277.792.792,0,0,1,1.281,0,5.592,5.592,0,0,0,4.507,2.277h.007a.637.637,0,0,1,.646.633v.03a2.443,2.443,0,0,1,2.082.66V135.33A7.882,7.882,0,0,0,103,127.447Z" transform="translate(-95.117 -127.447)" fill="#414344"/>
          </g>
        </g>
        <g id="Group_1196409" data-name="Group 1196409" transform="translate(36.473 40.039)">
          <g id="Group_1196408" data-name="Group 1196408">
            <path id="Path_1018327" data-name="Path 1018327" d="M152.527,167.009a2.453,2.453,0,0,0-.378.03V171.5c0,.133-.006.264-.015.395a2.456,2.456,0,1,0,.393-4.881Z" transform="translate(-152.134 -167.009)" fill="#f9c1a8"/>
          </g>
        </g>
        <g id="Group_1196411" data-name="Group 1196411" transform="translate(21.879 40.039)">
          <g id="Group_1196410" data-name="Group 1196410">
            <path id="Path_1018328" data-name="Path 1018328" d="M94.1,171.5v-4.456a2.459,2.459,0,1,0,.015,4.851C94.1,171.759,94.1,171.628,94.1,171.5Z" transform="translate(-91.262 -167.009)" fill="#f9c1a8"/>
          </g>
        </g>
        <g id="Group_1196413" data-name="Group 1196413" transform="translate(18.672 49.7)">
          <g id="Group_1196412" data-name="Group 1196412">
            <path id="Path_1018329" data-name="Path 1018329" d="M101.685,214.2a2.323,2.323,0,0,0-1.752-2.123l-4.572-1.151-1.616-.8a2.033,2.033,0,0,1-1.134-1.824v-1a5.845,5.845,0,0,1-5.424.088v.914a2.034,2.034,0,0,1-1.134,1.824l-1.616.8-4.572,1.151a2.323,2.323,0,0,0-1.752,2.124l-.229,4.177h24.03Z" transform="translate(-77.884 -207.306)" fill="#f5c84c"/>
          </g>
        </g>
        <g id="Group_1196415" data-name="Group 1196415" transform="translate(26.587 49.699)">
          <g id="Group_1196414" data-name="Group 1196414">
            <path id="Path_1018330" data-name="Path 1018330" d="M118.844,210.132a2.033,2.033,0,0,1-1.134-1.824v-1a5.845,5.845,0,0,1-5.424.088v.914a2.034,2.034,0,0,1-1.134,1.824l-.254.125a4.6,4.6,0,0,0,8.2,0Z" transform="translate(-110.898 -207.306)" fill="#f9c1a8"/>
          </g>
        </g>
        <g id="Group_1196417" data-name="Group 1196417" transform="translate(38.24 57.175)">
          <g id="Group_1196416" data-name="Group 1196416">
            <path id="Path_1018331" data-name="Path 1018331" d="M160.107,238.487a.6.6,0,0,0-.6.6v2.937a.6.6,0,0,0,1.2,0v-2.937A.6.6,0,0,0,160.107,238.487Z" transform="translate(-159.508 -238.487)"/>
          </g>
        </g>
        <g id="Group_1196419" data-name="Group 1196419" transform="translate(21.934 57.175)">
          <g id="Group_1196418" data-name="Group 1196418">
            <path id="Path_1018332" data-name="Path 1018332" d="M92.091,238.487a.6.6,0,0,0-.6.6v2.937a.6.6,0,0,0,1.2,0v-2.937A.6.6,0,0,0,92.091,238.487Z" transform="translate(-91.492 -238.487)"/>
          </g>
        </g>
        <g id="Group_1196421" data-name="Group 1196421" transform="translate(35.986 39.439)">
          <g id="Group_1196420" data-name="Group 1196420">
            <path id="Path_1018333" data-name="Path 1018333" d="M150.982,164.509a2.978,2.978,0,0,0-.346.02.6.6,0,1,0,.138,1.191,1.8,1.8,0,0,1,.207-.012,1.858,1.858,0,0,1,0,3.717,1.67,1.67,0,0,1-.206-.014.6.6,0,1,0-.149,1.189,2.847,2.847,0,0,0,.355.023,3.057,3.057,0,0,0,0-6.114Z" transform="translate(-150.102 -164.509)"/>
          </g>
        </g>
        <g id="Group_1196423" data-name="Group 1196423" transform="translate(21.28 39.439)">
          <g id="Group_1196422" data-name="Group 1196422">
            <path id="Path_1018334" data-name="Path 1018334" d="M92.641,169.951a.6.6,0,0,0-.657-.536c-.054.005-.109.009-.165.009a1.858,1.858,0,0,1,0-3.717c.05,0,.1,0,.147.006a.6.6,0,0,0,.1-1.194c-.082-.007-.166-.011-.25-.011a3.057,3.057,0,0,0,0,6.114,2.748,2.748,0,0,0,.286-.015A.6.6,0,0,0,92.641,169.951Z" transform="translate(-88.763 -164.509)"/>
          </g>
        </g>
        <g id="Group_1196425" data-name="Group 1196425" transform="translate(18.072 49.297)">
          <g id="Group_1196424" data-name="Group 1196424">
            <path id="Path_1018335" data-name="Path 1018335" d="M100.381,212.893a2.91,2.91,0,0,0-2.2-2.672l-4.51-1.135-1.559-.769a1.425,1.425,0,0,1-.8-1.286v-.806a.6.6,0,0,0-1.2,0v.806a2.616,2.616,0,0,0,1.468,2.361l1.616.8a.613.613,0,0,0,.119.044l4.572,1.151a1.715,1.715,0,0,1,1.3,1.575l.195,3.545H76.615l.194-3.545a1.715,1.715,0,0,1,1.3-1.575l4.572-1.151a.6.6,0,0,0,.119-.044l1.616-.8a2.616,2.616,0,0,0,1.469-2.361v-.706a.6.6,0,1,0-1.2,0v.706a1.425,1.425,0,0,1-.8,1.286l-1.559.769-4.51,1.135a2.91,2.91,0,0,0-2.2,2.672l-.229,4.178a.6.6,0,0,0,.6.632h24.03a.6.6,0,0,0,.6-.632Z" transform="translate(-75.382 -205.626)"/>
          </g>
        </g>
        <g id="Group_1196427" data-name="Group 1196427" transform="translate(26.087 52.186)">
          <g id="Group_1196426" data-name="Group 1196426">
            <path id="Path_1018336" data-name="Path 1018336" d="M117.733,217.753a.6.6,0,0,0-.815.232,4,4,0,0,1-6.985.042.6.6,0,0,0-1.04.6,5.2,5.2,0,0,0,9.071-.054.6.6,0,0,0-.231-.816Z" transform="translate(-108.814 -217.677)"/>
          </g>
        </g>
        <g id="Group_1196429" data-name="Group 1196429" transform="translate(28.503 45.645)">
          <g id="Group_1196428" data-name="Group 1196428">
            <path id="Path_1018337" data-name="Path 1018337" d="M123.125,190.535a.6.6,0,0,0-.844.074,1.649,1.649,0,0,1-2.33,0,.6.6,0,1,0-.919.77,2.84,2.84,0,0,0,4.168,0A.6.6,0,0,0,123.125,190.535Z" transform="translate(-118.892 -190.395)"/>
          </g>
        </g>
        <g id="Group_1196431" data-name="Group 1196431" transform="translate(32.377 41.945)">
          <g id="Group_1196430" data-name="Group 1196430">
            <path id="Path_1018338" data-name="Path 1018338" d="M135.824,174.96a.774.774,0,1,0,.775.775A.775.775,0,0,0,135.824,174.96Z" transform="translate(-135.049 -174.96)"/>
          </g>
        </g>
        <g id="Group_1196433" data-name="Group 1196433" transform="translate(27.546 41.945)">
          <g id="Group_1196432" data-name="Group 1196432">
            <path id="Path_1018339" data-name="Path 1018339" d="M115.673,174.96a.774.774,0,1,0,.775.775A.775.775,0,0,0,115.673,174.96Z" transform="translate(-114.898 -174.96)"/>
          </g>
        </g>
        <g id="Group_1196435" data-name="Group 1196435" transform="translate(24.115 36.204)">
          <g id="Group_1196434" data-name="Group 1196434">
            <path id="Path_1018340" data-name="Path 1018340" d="M113.2,153.979a1.22,1.22,0,0,0-.887-.365,5.09,5.09,0,0,1-4.031-2.033,1.392,1.392,0,0,0-2.245,0,5.025,5.025,0,0,1-4.025,2.033l-.155,0a1.23,1.23,0,0,0-1.268,1.23v4.491a6.486,6.486,0,0,0,12.972,0v-4.486a1.218,1.218,0,0,0-.36-.867Zm-.839,5.354a5.287,5.287,0,0,1-10.574,0v-4.491s0-.015.03-.032q.1,0,.194,0a6.229,6.229,0,0,0,4.989-2.52.194.194,0,0,1,.317,0,6.229,6.229,0,0,0,4.989,2.52h.008c.02,0,.031.008.046.034Z" transform="translate(-100.589 -151.012)"/>
          </g>
        </g>
        <g id="Group_1196437" data-name="Group 1196437" transform="translate(22.204 29.955)">
          <g id="Group_1196436" data-name="Group 1196436">
            <path id="Path_1018341" data-name="Path 1018341" d="M101.1,124.947a8.492,8.492,0,0,0-8.483,8.482v2.019a.6.6,0,0,0,1.2,0v-2.019a7.284,7.284,0,0,1,14.568,0v2.049a.6.6,0,0,0,1.2,0v-2.049A8.492,8.492,0,0,0,101.1,124.947Z" transform="translate(-92.617 -124.947)"/>
          </g>
        </g>
        <g id="Group_1196439" data-name="Group 1196439" transform="translate(23.797 6.029)">
          <g id="Group_1196438" data-name="Group 1196438">
            <path id="Path_1018342" data-name="Path 1018342" d="M111.813,26.154a3.907,3.907,0,0,0-5.4.163.365.365,0,0,1-.517,0,3.907,3.907,0,0,0-5.4-.163,3.847,3.847,0,0,0-.1,5.537l4.969,4.969a1.124,1.124,0,0,0,1.589,0l4.969-4.969A3.846,3.846,0,0,0,111.813,26.154Z" transform="translate(-99.261 -25.146)" fill="#fc657e"/>
          </g>
        </g>
        <g id="Group_1196442" data-name="Group 1196442" transform="translate(23.197 5.439)">
          <g id="Group_1196441" data-name="Group 1196441">
            <g id="Group_1196440" data-name="Group 1196440">
              <path id="Path_1018343" data-name="Path 1018343" d="M110.32,23.846a4.528,4.528,0,0,0-6.071.02,4.528,4.528,0,0,0-6.071-.02,4.446,4.446,0,0,0-.116,6.4l4.969,4.969a1.724,1.724,0,0,0,2.437,0l4.969-4.969a4.446,4.446,0,0,0-.116-6.4Zm-.731,5.552-4.969,4.969a.538.538,0,0,1-.742,0L98.909,29.4a3.248,3.248,0,0,1,.086-4.675,3.18,3.18,0,0,1,2.179-.841,3.386,3.386,0,0,1,2.393.989.966.966,0,0,0,1.364,0,3.323,3.323,0,0,1,4.572-.148,3.248,3.248,0,0,1,.086,4.675Z" transform="translate(-96.759 -22.687)"/>
            </g>
          </g>
        </g>
        <g id="Group_1196444" data-name="Group 1196444" transform="translate(19.199 1.678)">
          <g id="Group_1196443" data-name="Group 1196443">
            <path id="Path_1018344" data-name="Path 1018344" d="M84.485,9.13a2.661,2.661,0,0,1-2.133-2.09.048.048,0,0,0-.095,0,2.661,2.661,0,0,1-2.133,2.09.047.047,0,0,0,0,.093,2.661,2.661,0,0,1,2.133,2.09.048.048,0,0,0,.095,0,2.661,2.661,0,0,1,2.133-2.09A.047.047,0,0,0,84.485,9.13Z" transform="translate(-80.083 -7)" fill="#f5c84c"/>
          </g>
        </g>
        <g id="Group_1196446" data-name="Group 1196446" transform="translate(40.776 9.168)">
          <g id="Group_1196445" data-name="Group 1196445">
            <path id="Path_1018345" data-name="Path 1018345" d="M172.915,39.609a1.712,1.712,0,0,1-1.372-1.344.031.031,0,0,0-.061,0,1.711,1.711,0,0,1-1.372,1.344.03.03,0,0,0,0,.06,1.712,1.712,0,0,1,1.372,1.344.031.031,0,0,0,.061,0,1.711,1.711,0,0,1,1.372-1.344A.03.03,0,0,0,172.915,39.609Z" transform="translate(-170.084 -38.239)" fill="#70d6f9"/>
          </g>
        </g>
        <g id="Group_1196448" data-name="Group 1196448" transform="translate(0.725 16.018)">
          <g id="Group_1196447" data-name="Group 1196447">
            <path id="Path_1018346" data-name="Path 1018346" d="M6.413,68.13H5.854v-.559a.757.757,0,0,0-1.514,0v.559H3.782a.757.757,0,1,0,0,1.514H4.34V70.2a.757.757,0,1,0,1.514,0v-.559h.558a.757.757,0,1,0,0-1.514Z" transform="translate(-3.025 -66.815)" fill="#fc657e"/>
          </g>
        </g>
        <g id="Group_1196450" data-name="Group 1196450" transform="translate(25.672 0)">
          <g id="Group_1196449" data-name="Group 1196449">
            <circle id="Ellipse_15149" data-name="Ellipse 15149" cx="0.81" cy="0.81" r="0.81" fill="#87d147"/>
          </g>
        </g>
        <g id="Group_1196452" data-name="Group 1196452" transform="translate(0 23.734)">
          <g id="Group_1196451" data-name="Group 1196451">
            <path id="Path_1018347" data-name="Path 1018347" d="M.81,99a.81.81,0,1,0,.81.81A.81.81,0,0,0,.81,99Z" transform="translate(0 -99)" fill="#f5c84c"/>
          </g>
        </g>
      </g>
    </g>
  </g>
</svg>
